<svg xmlns="http://www.w3.org/2000/svg" xmlns:xlink="http://www.w3.org/1999/xlink" version="1.1" width="393.586pt" height="48.485pt" viewBox="0 0 393.586 48.485">
<path transform="matrix(1,0,0,-1,49.165,47.776)" stroke-width="1.41731" stroke-linecap="butt" stroke-miterlimit="10" stroke-linejoin="miter" fill="none" stroke="#000000" d="M0 0V34.37161H343.7163V0ZM343.7163 34.37161"/>
<path transform="matrix(1,0,0,-1,49.165,47.776)" stroke-width="1.41731" stroke-linecap="butt" stroke-miterlimit="10" stroke-linejoin="miter" fill="none" stroke="#000000" d="M0 0V34.37161"/>
<text xml:space="preserve" transform="matrix(1 0 -0 1 0 48.485)" font-size="9.9626" font-family="CMR10"><tspan y="-14.684" x="63.86">2</tspan></text>
<text xml:space="preserve" transform="matrix(1 0 -0 1 0 48.485)" font-size="9.9626" font-family="CMR10"><tspan y="-38.744" x="63.86">0</tspan></text>
<path transform="matrix(1,0,0,-1,49.165,47.776)" stroke-width="1.41731" stroke-linecap="butt" stroke-miterlimit="10" stroke-linejoin="miter" fill="none" stroke="#000000" d="M34.37161 0V34.37161"/>
<text xml:space="preserve" transform="matrix(1 0 -0 1 0 48.485)" font-size="9.9626" font-family="CMR10"><tspan y="-14.684" x="98.231">5</tspan></text>
<text xml:space="preserve" transform="matrix(1 0 -0 1 0 48.485)" font-size="9.9626" font-family="CMR10"><tspan y="-38.744" x="98.231">1</tspan></text>
<path transform="matrix(1,0,0,-1,49.165,47.776)" stroke-width="1.41731" stroke-linecap="butt" stroke-miterlimit="10" stroke-linejoin="miter" fill="none" stroke="#000000" d="M68.74324 0V34.37161"/>
<text xml:space="preserve" transform="matrix(1 0 -0 1 -.000015258789 48.485)" font-size="9.9626" font-family="CMR10"><tspan y="-14.684" x="132.602">8</tspan></text>
<text xml:space="preserve" transform="matrix(1 0 -0 1 -.000015258789 48.485)" font-size="9.9626" font-family="CMR10"><tspan y="-38.744" x="132.602">2</tspan></text>
<path transform="matrix(1,0,0,-1,49.165,47.776)" stroke-width="1.41731" stroke-linecap="butt" stroke-miterlimit="10" stroke-linejoin="miter" fill="none" stroke="#000000" d="M103.11487 0V34.37161"/>
<text xml:space="preserve" transform="matrix(1 0 -0 1 0 48.485)" font-size="9.9626" font-family="CMR10"><tspan y="-14.684" x="164.483 169.4643">12</tspan></text>
<text xml:space="preserve" transform="matrix(1 0 -0 1 0 48.485)" font-size="9.9626" font-family="CMR10"><tspan y="-38.744" x="166.974">3</tspan></text>
<path transform="matrix(1,0,0,-1,49.165,47.776)" stroke-width="1.41731" stroke-linecap="butt" stroke-miterlimit="10" stroke-linejoin="miter" fill="none" stroke="#000000" d="M137.48651 0V34.37161"/>
<text xml:space="preserve" transform="matrix(1 0 -0 1 0 48.485)" font-size="9.9626" font-family="CMR10"><tspan y="-14.684" x="198.854 203.8353">16</tspan></text>
<text xml:space="preserve" transform="matrix(1 0 -0 1 0 48.485)" font-size="9.9626" font-family="CMR10"><tspan y="-38.744" x="201.345">4</tspan></text>
<path transform="matrix(1,0,0,-1,49.165,47.776)" stroke-width="1.41731" stroke-linecap="butt" stroke-miterlimit="10" stroke-linejoin="miter" fill="none" stroke="#000000" d="M171.85814 0V34.37161"/>
<text xml:space="preserve" transform="matrix(1 0 -0 1 0 48.485)" font-size="9.9626" font-family="CMR10"><tspan y="-14.684" x="233.225 238.2063">23</tspan></text>
<text xml:space="preserve" transform="matrix(1 0 -0 1 0 48.485)" font-size="9.9626" font-family="CMR10"><tspan y="-38.744" x="235.716">5</tspan></text>
<path transform="matrix(1,0,0,-1,49.165,47.776)" stroke-width="1.41731" stroke-linecap="butt" stroke-miterlimit="10" stroke-linejoin="miter" fill="none" stroke="#000000" d="M206.22977 0V34.37161"/>
<text xml:space="preserve" transform="matrix(1 0 -0 1 0 48.485)" font-size="9.9626" font-family="CMR10"><tspan y="-14.684" x="267.596 272.5773">38</tspan></text>
<text xml:space="preserve" transform="matrix(1 0 -0 1 0 48.485)" font-size="9.9626" font-family="CMR10"><tspan y="-38.744" x="270.087">6</tspan></text>
<path transform="matrix(1,0,0,-1,49.165,47.776)" stroke-width="1.41731" stroke-linecap="butt" stroke-miterlimit="10" stroke-linejoin="miter" fill="none" stroke="#000000" d="M240.6014 0V34.37161"/>
<text xml:space="preserve" transform="matrix(1 0 -0 1 0 48.485)" font-size="9.9626" font-family="CMR10"><tspan y="-14.684" x="301.968 306.94929">56</tspan></text>
<text xml:space="preserve" transform="matrix(1 0 -0 1 0 48.485)" font-size="9.9626" font-family="CMR10"><tspan y="-38.744" x="304.458">7</tspan></text>
<path transform="matrix(1,0,0,-1,49.165,47.776)" stroke-width="1.41731" stroke-linecap="butt" stroke-miterlimit="10" stroke-linejoin="miter" fill="none" stroke="#000000" d="M274.97306 0V34.37161"/>
<text xml:space="preserve" transform="matrix(1 0 -0 1 .000030517579 48.485)" font-size="9.9626" font-family="CMR10"><tspan y="-14.684" x="336.339 341.32029">72</tspan></text>
<text xml:space="preserve" transform="matrix(1 0 -0 1 .000030517579 48.485)" font-size="9.9626" font-family="CMR10"><tspan y="-38.744" x="338.83">8</tspan></text>
<path transform="matrix(1,0,0,-1,49.165,47.776)" stroke-width="1.41731" stroke-linecap="butt" stroke-miterlimit="10" stroke-linejoin="miter" fill="none" stroke="#000000" d="M309.34468 0V34.37161"/>
<text xml:space="preserve" transform="matrix(1 0 -0 1 .000030517579 48.485)" font-size="9.9626" font-family="CMR10"><tspan y="-14.684" x="370.71 375.69129">91</tspan></text>
<text xml:space="preserve" transform="matrix(1 0 -0 1 .000030517579 48.485)" font-size="9.9626" font-family="CMR10"><tspan y="-38.744" x="373.201">9</tspan></text>
<text xml:space="preserve" transform="matrix(1 0 -0 1 -.00000023841859 48.485006)" font-size="9.9626" font-family="CMR10"><tspan y="-14.435" x="3.32 8.859206 13.2826 18.2639 22.169239 26.31368 35.180395 40.161695">Search23</tspan></text>
</svg>
