<svg xmlns="http://www.w3.org/2000/svg" xmlns:xlink="http://www.w3.org/1999/xlink" version="1.1" width="449.46pt" height="48.678pt" viewBox="0 0 449.46 48.678">
<path transform="matrix(1,0,0,-1,105.039,47.969)" stroke-width="1.41731" stroke-linecap="butt" stroke-miterlimit="10" stroke-linejoin="miter" fill="none" stroke="#000000" d="M0 0V34.37161H343.7163V0ZM343.7163 34.37161"/>
<path transform="matrix(1,0,0,-1,105.039,47.969)" stroke-width="1.41731" stroke-linecap="butt" stroke-miterlimit="10" stroke-linejoin="miter" fill="none" stroke="#000000" d="M0 0V34.37161"/>
<text xml:space="preserve" transform="matrix(1 0 -0 1 0 48.678)" font-size="9.9626" font-family="CMR10"><tspan y="-14.684" x="119.734">2</tspan></text>
<text fill="#ff8000" xml:space="preserve" transform="matrix(1 0 -0 1 0 48.678)" font-size="9.9626" font-family="CMR10"><tspan y="-38.55" x="112.746 118.972629 126.723529">L=0</tspan></text>
<path transform="matrix(1,0,0,-1,105.039,47.969)" stroke-width="1.41731" stroke-linecap="butt" stroke-miterlimit="10" stroke-linejoin="miter" fill="none" stroke="#000000" d="M34.37161 0V34.37161"/>
<text xml:space="preserve" transform="matrix(1 0 -0 1 .000015258789 48.678)" font-size="9.9626" font-family="CMR10"><tspan y="-14.684" x="154.105">5</tspan></text>
<text xml:space="preserve" transform="matrix(1 0 -0 1 .000015258789 48.678)" font-size="9.9626" font-family="CMR10"><tspan y="-38.744" x="154.105">1</tspan></text>
<path transform="matrix(1,0,0,-1,105.039,47.969)" stroke-width="1.41731" stroke-linecap="butt" stroke-miterlimit="10" stroke-linejoin="miter" fill="none" stroke="#000000" d="M68.74324 0V34.37161"/>
<text xml:space="preserve" transform="matrix(1 0 -0 1 0 48.678)" font-size="9.9626" font-family="CMR10"><tspan y="-14.684" x="188.476">8</tspan></text>
<text xml:space="preserve" transform="matrix(1 0 -0 1 0 48.678)" font-size="9.9626" font-family="CMR10"><tspan y="-38.744" x="188.476">2</tspan></text>
<path transform="matrix(1,0,0,-1,105.039,47.969)" stroke-width="1.41731" stroke-linecap="butt" stroke-miterlimit="10" stroke-linejoin="miter" fill="none" stroke="#000000" d="M103.11487 0V34.37161"/>
<text xml:space="preserve" transform="matrix(1 0 -0 1 0 48.678)" font-size="9.9626" font-family="CMR10"><tspan y="-14.684" x="220.357 225.33829">12</tspan></text>
<text xml:space="preserve" transform="matrix(1 0 -0 1 0 48.678)" font-size="9.9626" font-family="CMR10"><tspan y="-38.744" x="222.847">3</tspan></text>
<path transform="matrix(1,0,0,-1,105.039,47.969)" stroke-width="1.41731" stroke-linecap="butt" stroke-miterlimit="10" stroke-linejoin="miter" fill="none" stroke="#000000" d="M137.48651 0V34.37161"/>
<path transform="matrix(1,0,0,-1,105.039,47.969)" d="M137.48651 0V34.37161H171.85814V0ZM171.85814 34.37161" fill="#cbcbcb"/>
<text xml:space="preserve" transform="matrix(1 0 -0 1 0 48.678)" font-size="9.9626" font-family="CMR10"><tspan y="-14.684" x="254.728 259.7093">16</tspan></text>
<text fill="#ff8000" xml:space="preserve" transform="matrix(1 0 -0 1 0 48.678)" font-size="9.9626" font-family="CMR10"><tspan y="-38.55" x="248.778 257.9137 265.6646">M=4</tspan></text>
<path transform="matrix(1,0,0,-1,105.039,47.969)" stroke-width="1.41731" stroke-linecap="butt" stroke-miterlimit="10" stroke-linejoin="miter" fill="none" stroke="#000000" d="M171.85814 0V34.37161"/>
<text xml:space="preserve" transform="matrix(1 0 -0 1 0 48.678)" font-size="9.9626" font-family="CMR10"><tspan y="-14.684" x="289.099 294.0803">23</tspan></text>
<text xml:space="preserve" transform="matrix(1 0 -0 1 0 48.678)" font-size="9.9626" font-family="CMR10"><tspan y="-38.744" x="291.59">5</tspan></text>
<path transform="matrix(1,0,0,-1,105.039,47.969)" stroke-width="1.41731" stroke-linecap="butt" stroke-miterlimit="10" stroke-linejoin="miter" fill="none" stroke="#000000" d="M206.22977 0V34.37161"/>
<text xml:space="preserve" transform="matrix(1 0 -0 1 0 48.678)" font-size="9.9626" font-family="CMR10"><tspan y="-14.684" x="323.47 328.4513">38</tspan></text>
<text xml:space="preserve" transform="matrix(1 0 -0 1 0 48.678)" font-size="9.9626" font-family="CMR10"><tspan y="-38.744" x="325.961">6</tspan></text>
<path transform="matrix(1,0,0,-1,105.039,47.969)" stroke-width="1.41731" stroke-linecap="butt" stroke-miterlimit="10" stroke-linejoin="miter" fill="none" stroke="#000000" d="M240.6014 0V34.37161"/>
<text xml:space="preserve" transform="matrix(1 0 -0 1 -.000030517579 48.678)" font-size="9.9626" font-family="CMR10"><tspan y="-14.684" x="357.842 362.8233">56</tspan></text>
<text xml:space="preserve" transform="matrix(1 0 -0 1 0 48.678)" font-size="9.9626" font-family="CMR10"><tspan y="-38.744" x="360.332">7</tspan></text>
<path transform="matrix(1,0,0,-1,105.039,47.969)" stroke-width="1.41731" stroke-linecap="butt" stroke-miterlimit="10" stroke-linejoin="miter" fill="none" stroke="#000000" d="M274.97306 0V34.37161"/>
<text xml:space="preserve" transform="matrix(1 0 -0 1 0 48.678)" font-size="9.9626" font-family="CMR10"><tspan y="-14.684" x="392.213 397.1943">72</tspan></text>
<text xml:space="preserve" transform="matrix(1 0 -0 1 0 48.678)" font-size="9.9626" font-family="CMR10"><tspan y="-38.744" x="394.703">8</tspan></text>
<path transform="matrix(1,0,0,-1,105.039,47.969)" stroke-width="1.41731" stroke-linecap="butt" stroke-miterlimit="10" stroke-linejoin="miter" fill="none" stroke="#000000" d="M309.34468 0V34.37161"/>
<text xml:space="preserve" transform="matrix(1 0 -0 1 0 48.678)" font-size="9.9626" font-family="CMR10"><tspan y="-14.684" x="426.584 431.5653">91</tspan></text>
<text fill="#ff8000" xml:space="preserve" transform="matrix(1 0 -0 1 0 48.678)" font-size="9.9626" font-family="CMR10"><tspan y="-38.55" x="421.464 428.93595 436.68687">H=9</tspan></text>
<text xml:space="preserve" transform="matrix(1 0 -0 1 -.00000023841859 48.678)" font-size="9.9626" font-family="CMR10"><tspan y="-15.404" x="3.32 8.3013">23</tspan></text>
<text xml:space="preserve" transform="matrix(1 0 -0 1 -.00000023841859 48.678)" font-size="9.9626" font-family="CMMI10" font-style="italic"><tspan y="-15.404" x="16.604">&#x003e;</tspan></text>
<text xml:space="preserve" transform="matrix(1 0 -0 1 -.00000023841859 48.678)" font-size="9.9626" font-family="CMR10"><tspan y="-15.404" x="27.674 32.6553 37.6366 43.72375 47.5992 52.5805 57.561803 65.312709 70.29401 75.83321 84.689968 90.22917 95.21047 97.98007">16,take2ndhalf</tspan></text>
</svg>
