<svg xmlns="http://www.w3.org/2000/svg" xmlns:xlink="http://www.w3.org/1999/xlink" version="1.1" width="419.572pt" height="48.678pt" viewBox="0 0 419.572 48.678">
<path transform="matrix(1,0,0,-1,75.151,47.969)" stroke-width="1.41731" stroke-linecap="butt" stroke-miterlimit="10" stroke-linejoin="miter" fill="none" stroke="#000000" d="M0 0V34.37161H343.7163V0ZM343.7163 34.37161"/>
<path transform="matrix(1,0,0,-1,75.151,47.969)" stroke-width="1.41731" stroke-linecap="butt" stroke-miterlimit="10" stroke-linejoin="miter" fill="none" stroke="#000000" d="M0 0V34.37161"/>
<text xml:space="preserve" transform="matrix(1 0 -0 1 0 48.678)" font-size="9.9626" font-family="CMR10"><tspan y="-14.684" x="89.846">2</tspan></text>
<text xml:space="preserve" transform="matrix(1 0 -0 1 0 48.678)" font-size="9.9626" font-family="CMR10"><tspan y="-38.744" x="89.846">0</tspan></text>
<path transform="matrix(1,0,0,-1,75.151,47.969)" stroke-width="1.41731" stroke-linecap="butt" stroke-miterlimit="10" stroke-linejoin="miter" fill="none" stroke="#000000" d="M34.37161 0V34.37161"/>
<text xml:space="preserve" transform="matrix(1 0 -0 1 0 48.678)" font-size="9.9626" font-family="CMR10"><tspan y="-14.684" x="124.217">5</tspan></text>
<text xml:space="preserve" transform="matrix(1 0 -0 1 0 48.678)" font-size="9.9626" font-family="CMR10"><tspan y="-38.744" x="124.217">1</tspan></text>
<path transform="matrix(1,0,0,-1,75.151,47.969)" stroke-width="1.41731" stroke-linecap="butt" stroke-miterlimit="10" stroke-linejoin="miter" fill="none" stroke="#000000" d="M68.74324 0V34.37161"/>
<text xml:space="preserve" transform="matrix(1 0 -0 1 0 48.678)" font-size="9.9626" font-family="CMR10"><tspan y="-14.684" x="158.588">8</tspan></text>
<text xml:space="preserve" transform="matrix(1 0 -0 1 0 48.678)" font-size="9.9626" font-family="CMR10"><tspan y="-38.744" x="158.588">2</tspan></text>
<path transform="matrix(1,0,0,-1,75.151,47.969)" stroke-width="1.41731" stroke-linecap="butt" stroke-miterlimit="10" stroke-linejoin="miter" fill="none" stroke="#000000" d="M103.11487 0V34.37161"/>
<text xml:space="preserve" transform="matrix(1 0 -0 1 0 48.678)" font-size="9.9626" font-family="CMR10"><tspan y="-14.684" x="190.469 195.45029">12</tspan></text>
<text xml:space="preserve" transform="matrix(1 0 -0 1 -.000015258789 48.678)" font-size="9.9626" font-family="CMR10"><tspan y="-38.744" x="192.96">3</tspan></text>
<path transform="matrix(1,0,0,-1,75.151,47.969)" stroke-width="1.41731" stroke-linecap="butt" stroke-miterlimit="10" stroke-linejoin="miter" fill="none" stroke="#000000" d="M137.48651 0V34.37161"/>
<text xml:space="preserve" transform="matrix(1 0 -0 1 0 48.678)" font-size="9.9626" font-family="CMR10"><tspan y="-14.684" x="224.84 229.82129">16</tspan></text>
<text xml:space="preserve" transform="matrix(1 0 -0 1 0 48.678)" font-size="9.9626" font-family="CMR10"><tspan y="-38.744" x="227.331">4</tspan></text>
<path transform="matrix(1,0,0,-1,75.151,47.969)" stroke-width="1.41731" stroke-linecap="butt" stroke-miterlimit="10" stroke-linejoin="miter" fill="none" stroke="#000000" d="M171.85814 0V34.37161"/>
<path transform="matrix(1,0,0,-1,75.151,47.969)" d="M171.85814 0V34.37161H206.22977V0ZM206.22977 34.37161" fill="#cbcbcb"/>
<text xml:space="preserve" transform="matrix(1 0 -0 1 0 48.678)" font-size="9.9626" font-family="CMR10"><tspan y="-14.684" x="259.211 264.1923">23</tspan></text>
<text fill="#ff8000" xml:space="preserve" transform="matrix(1 0 -0 1 0 48.678)" font-size="9.9626" font-family="CMR10"><tspan y="-38.55" x="246.274 252.50063 260.25154 269.38725 277.13816">L=M=5</tspan></text>
<path transform="matrix(1,0,0,-1,75.151,47.969)" stroke-width="1.41731" stroke-linecap="butt" stroke-miterlimit="10" stroke-linejoin="miter" fill="none" stroke="#000000" d="M206.22977 0V34.37161"/>
<text xml:space="preserve" transform="matrix(1 0 -0 1 0 48.678)" font-size="9.9626" font-family="CMR10"><tspan y="-14.684" x="293.582 298.5633">38</tspan></text>
<text fill="#ff8000" xml:space="preserve" transform="matrix(1 0 -0 1 0 48.678)" font-size="9.9626" font-family="CMR10"><tspan y="-38.55" x="288.463 295.93498 303.68589">H=6</tspan></text>
<path transform="matrix(1,0,0,-1,75.151,47.969)" stroke-width="1.41731" stroke-linecap="butt" stroke-miterlimit="10" stroke-linejoin="miter" fill="none" stroke="#000000" d="M240.6014 0V34.37161"/>
<text xml:space="preserve" transform="matrix(1 0 -0 1 -.000030517579 48.678)" font-size="9.9626" font-family="CMR10"><tspan y="-14.684" x="327.954 332.9353">56</tspan></text>
<text xml:space="preserve" transform="matrix(1 0 -0 1 0 48.678)" font-size="9.9626" font-family="CMR10"><tspan y="-38.744" x="330.444">7</tspan></text>
<path transform="matrix(1,0,0,-1,75.151,47.969)" stroke-width="1.41731" stroke-linecap="butt" stroke-miterlimit="10" stroke-linejoin="miter" fill="none" stroke="#000000" d="M274.97306 0V34.37161"/>
<text xml:space="preserve" transform="matrix(1 0 -0 1 0 48.678)" font-size="9.9626" font-family="CMR10"><tspan y="-14.684" x="362.325 367.3063">72</tspan></text>
<text xml:space="preserve" transform="matrix(1 0 -0 1 0 48.678)" font-size="9.9626" font-family="CMR10"><tspan y="-38.744" x="364.816">8</tspan></text>
<path transform="matrix(1,0,0,-1,75.151,47.969)" stroke-width="1.41731" stroke-linecap="butt" stroke-miterlimit="10" stroke-linejoin="miter" fill="none" stroke="#000000" d="M309.34468 0V34.37161"/>
<text xml:space="preserve" transform="matrix(1 0 -0 1 0 48.678)" font-size="9.9626" font-family="CMR10"><tspan y="-14.684" x="396.696 401.6773">91</tspan></text>
<text xml:space="preserve" transform="matrix(1 0 -0 1 0 48.678)" font-size="9.9626" font-family="CMR10"><tspan y="-38.744" x="399.187">9</tspan></text>
<text xml:space="preserve" transform="matrix(1 0 -0 1 -.00000023841859 48.678)" font-size="9.9626" font-family="CMR10"><tspan y="-15.404" x="3.32 8.3013 16.600148 27.67856 32.65986 37.64116 43.72831 46.776868 51.758169 57.297376 62.836584 68.375789">23=23,found!</tspan></text>
</svg>
