<svg xmlns="http://www.w3.org/2000/svg" xmlns:xlink="http://www.w3.org/1999/xlink" version="1.1" width="446.194pt" height="48.678pt" viewBox="0 0 446.194 48.678">
<path transform="matrix(1,0,0,-1,101.774,47.969)" stroke-width="1.41731" stroke-linecap="butt" stroke-miterlimit="10" stroke-linejoin="miter" fill="none" stroke="#000000" d="M0 0V34.37161H343.7163V0ZM343.7163 34.37161"/>
<path transform="matrix(1,0,0,-1,101.774,47.969)" stroke-width="1.41731" stroke-linecap="butt" stroke-miterlimit="10" stroke-linejoin="miter" fill="none" stroke="#000000" d="M0 0V34.37161"/>
<text xml:space="preserve" transform="matrix(1 0 -0 1 0 48.678)" font-size="9.9626" font-family="CMR10"><tspan y="-14.684" x="116.468">2</tspan></text>
<text xml:space="preserve" transform="matrix(1 0 -0 1 0 48.678)" font-size="9.9626" font-family="CMR10"><tspan y="-38.744" x="116.468">0</tspan></text>
<path transform="matrix(1,0,0,-1,101.774,47.969)" stroke-width="1.41731" stroke-linecap="butt" stroke-miterlimit="10" stroke-linejoin="miter" fill="none" stroke="#000000" d="M34.37161 0V34.37161"/>
<text xml:space="preserve" transform="matrix(1 0 -0 1 0 48.678)" font-size="9.9626" font-family="CMR10"><tspan y="-14.684" x="150.84">5</tspan></text>
<text xml:space="preserve" transform="matrix(1 0 -0 1 0 48.678)" font-size="9.9626" font-family="CMR10"><tspan y="-38.744" x="150.84">1</tspan></text>
<path transform="matrix(1,0,0,-1,101.774,47.969)" stroke-width="1.41731" stroke-linecap="butt" stroke-miterlimit="10" stroke-linejoin="miter" fill="none" stroke="#000000" d="M68.74324 0V34.37161"/>
<text xml:space="preserve" transform="matrix(1 0 -0 1 0 48.678)" font-size="9.9626" font-family="CMR10"><tspan y="-14.684" x="185.211">8</tspan></text>
<text xml:space="preserve" transform="matrix(1 0 -0 1 0 48.678)" font-size="9.9626" font-family="CMR10"><tspan y="-38.744" x="185.211">2</tspan></text>
<path transform="matrix(1,0,0,-1,101.774,47.969)" stroke-width="1.41731" stroke-linecap="butt" stroke-miterlimit="10" stroke-linejoin="miter" fill="none" stroke="#000000" d="M103.11487 0V34.37161"/>
<text xml:space="preserve" transform="matrix(1 0 -0 1 0 48.678)" font-size="9.9626" font-family="CMR10"><tspan y="-14.684" x="217.091 222.0723">12</tspan></text>
<text xml:space="preserve" transform="matrix(1 0 -0 1 0 48.678)" font-size="9.9626" font-family="CMR10"><tspan y="-38.744" x="219.582">3</tspan></text>
<path transform="matrix(1,0,0,-1,101.774,47.969)" stroke-width="1.41731" stroke-linecap="butt" stroke-miterlimit="10" stroke-linejoin="miter" fill="none" stroke="#000000" d="M137.48651 0V34.37161"/>
<text xml:space="preserve" transform="matrix(1 0 -0 1 0 48.678)" font-size="9.9626" font-family="CMR10"><tspan y="-14.684" x="251.463 256.4443">16</tspan></text>
<text xml:space="preserve" transform="matrix(1 0 -0 1 0 48.678)" font-size="9.9626" font-family="CMR10"><tspan y="-38.744" x="253.953">4</tspan></text>
<path transform="matrix(1,0,0,-1,101.774,47.969)" stroke-width="1.41731" stroke-linecap="butt" stroke-miterlimit="10" stroke-linejoin="miter" fill="none" stroke="#000000" d="M171.85814 0V34.37161"/>
<text xml:space="preserve" transform="matrix(1 0 -0 1 -.000030517579 48.678)" font-size="9.9626" font-family="CMR10"><tspan y="-14.684" x="285.834 290.8153">23</tspan></text>
<text fill="#ff8000" xml:space="preserve" transform="matrix(1 0 -0 1 0 48.678)" font-size="9.9626" font-family="CMR10"><tspan y="-38.55" x="281.337 287.56364 295.31455">L=5</tspan></text>
<path transform="matrix(1,0,0,-1,101.774,47.969)" stroke-width="1.41731" stroke-linecap="butt" stroke-miterlimit="10" stroke-linejoin="miter" fill="none" stroke="#000000" d="M206.22977 0V34.37161"/>
<text xml:space="preserve" transform="matrix(1 0 -0 1 .000030517579 48.678)" font-size="9.9626" font-family="CMR10"><tspan y="-14.684" x="320.205 325.18629">38</tspan></text>
<text xml:space="preserve" transform="matrix(1 0 -0 1 -.000030517579 48.678)" font-size="9.9626" font-family="CMR10"><tspan y="-38.744" x="322.696">6</tspan></text>
<path transform="matrix(1,0,0,-1,101.774,47.969)" stroke-width="1.41731" stroke-linecap="butt" stroke-miterlimit="10" stroke-linejoin="miter" fill="none" stroke="#000000" d="M240.6014 0V34.37161"/>
<path transform="matrix(1,0,0,-1,101.774,47.969)" d="M240.6014 0V34.37161H274.97306V0ZM274.97306 34.37161" fill="#cbcbcb"/>
<text xml:space="preserve" transform="matrix(1 0 -0 1 0 48.678)" font-size="9.9626" font-family="CMR10"><tspan y="-14.684" x="354.576 359.55729">56</tspan></text>
<text fill="#ff8000" xml:space="preserve" transform="matrix(1 0 -0 1 0 48.678)" font-size="9.9626" font-family="CMR10"><tspan y="-38.55" x="348.626 357.76173 365.51264">M=7</tspan></text>
<path transform="matrix(1,0,0,-1,101.774,47.969)" stroke-width="1.41731" stroke-linecap="butt" stroke-miterlimit="10" stroke-linejoin="miter" fill="none" stroke="#000000" d="M274.97306 0V34.37161"/>
<text xml:space="preserve" transform="matrix(1 0 -0 1 .000030517579 48.678)" font-size="9.9626" font-family="CMR10"><tspan y="-14.684" x="388.947 393.92829">72</tspan></text>
<text xml:space="preserve" transform="matrix(1 0 -0 1 0 48.678)" font-size="9.9626" font-family="CMR10"><tspan y="-38.744" x="391.438">8</tspan></text>
<path transform="matrix(1,0,0,-1,101.774,47.969)" stroke-width="1.41731" stroke-linecap="butt" stroke-miterlimit="10" stroke-linejoin="miter" fill="none" stroke="#000000" d="M309.34468 0V34.37161"/>
<text xml:space="preserve" transform="matrix(1 0 -0 1 .000030517579 48.678)" font-size="9.9626" font-family="CMR10"><tspan y="-14.684" x="423.319 428.3003">91</tspan></text>
<text fill="#ff8000" xml:space="preserve" transform="matrix(1 0 -0 1 -.000030517579 48.678)" font-size="9.9626" font-family="CMR10"><tspan y="-38.55" x="418.199 425.67097 433.42189">H=9</tspan></text>
<text xml:space="preserve" transform="matrix(1 0 -0 1 -.0000009536743 48.678)" font-size="9.9626" font-family="CMR10"><tspan y="-15.404" x="3.321 8.3022999">23</tspan></text>
<text xml:space="preserve" transform="matrix(1 0 -0 1 -.0000009536743 48.678)" font-size="9.9626" font-family="CMMI10" font-style="italic"><tspan y="-15.404" x="16.604">&#x003c;</tspan></text>
<text xml:space="preserve" transform="matrix(1 0 -0 1 -.0000009536743 48.678)" font-size="9.9626" font-family="CMR10"><tspan y="-15.404" x="27.674 32.6553 37.6366 43.72375 47.5992 52.5805 57.561803 65.312709 70.29401 74.21927 81.41226 86.95147 91.93277 94.70237">56,take1sthalf</tspan></text>
</svg>
