<?xml version="1.0" encoding="utf-8" standalone="no"?>
<!DOCTYPE svg PUBLIC "-//W3C//DTD SVG 1.1//EN"
  "http://www.w3.org/Graphics/SVG/1.1/DTD/svg11.dtd">
<svg xmlns:xlink="http://www.w3.org/1999/xlink" width="382.265413pt" height="300.989344pt" viewBox="0 0 382.265413 300.989344" xmlns="http://www.w3.org/2000/svg" version="1.1">
 <metadata>
  <rdf:RDF xmlns:dc="http://purl.org/dc/elements/1.1/" xmlns:cc="http://creativecommons.org/ns#" xmlns:rdf="http://www.w3.org/1999/02/22-rdf-syntax-ns#">
   <cc:Work>
    <dc:type rdf:resource="http://purl.org/dc/dcmitype/StillImage"/>
    <dc:date>2024-09-07T13:21:56.013076</dc:date>
    <dc:format>image/svg+xml</dc:format>
    <dc:creator>
     <cc:Agent>
      <dc:title>Matplotlib v3.9.0, https://matplotlib.org/</dc:title>
     </cc:Agent>
    </dc:creator>
   </cc:Work>
  </rdf:RDF>
 </metadata>
 <defs>
  <style type="text/css">*{stroke-linejoin: round; stroke-linecap: butt}</style>
 </defs>
 <g id="figure_1">
  <g id="patch_1">
   <path d="M 0 300.989344 
L 382.265413 300.989344 
L 382.265413 0 
L 0 0 
z
" style="fill: #ffffff"/>
  </g>
  <g id="axes_1">
   <g id="patch_2">
    <path d="M 28.942188 277.111219 
L 314.638188 277.111219 
L 314.638188 10.999219 
L 28.942188 10.999219 
z
" style="fill: #ffffff"/>
   </g>
   <g id="matplotlib.axis_1">
    <g id="xtick_1">
     <g id="line2d_1">
      <defs>
       <path id="m5418dfad7a" d="M 0 0 
L 0 3.5 
" style="stroke: #000000; stroke-width: 0.8"/>
      </defs>
      <g>
       <use xlink:href="#m5418dfad7a" x="28.942188" y="277.111219" style="stroke: #000000; stroke-width: 0.8"/>
      </g>
     </g>
     <g id="text_1">
      <!-- −3 -->
      <g transform="translate(21.571094 291.709656) scale(0.1 -0.1)">
       <defs>
        <path id="DejaVuSans-2212" d="M 678 2272 
L 4684 2272 
L 4684 1741 
L 678 1741 
L 678 2272 
z
" transform="scale(0.015625)"/>
        <path id="DejaVuSans-33" d="M 2597 2516 
Q 3050 2419 3304 2112 
Q 3559 1806 3559 1356 
Q 3559 666 3084 287 
Q 2609 -91 1734 -91 
Q 1441 -91 1130 -33 
Q 819 25 488 141 
L 488 750 
Q 750 597 1062 519 
Q 1375 441 1716 441 
Q 2309 441 2620 675 
Q 2931 909 2931 1356 
Q 2931 1769 2642 2001 
Q 2353 2234 1838 2234 
L 1294 2234 
L 1294 2753 
L 1863 2753 
Q 2328 2753 2575 2939 
Q 2822 3125 2822 3475 
Q 2822 3834 2567 4026 
Q 2313 4219 1838 4219 
Q 1578 4219 1281 4162 
Q 984 4106 628 3988 
L 628 4550 
Q 988 4650 1302 4700 
Q 1616 4750 1894 4750 
Q 2613 4750 3031 4423 
Q 3450 4097 3450 3541 
Q 3450 3153 3228 2886 
Q 3006 2619 2597 2516 
z
" transform="scale(0.015625)"/>
       </defs>
       <use xlink:href="#DejaVuSans-2212"/>
       <use xlink:href="#DejaVuSans-33" x="83.789062"/>
      </g>
     </g>
    </g>
    <g id="xtick_2">
     <g id="line2d_2">
      <g>
       <use xlink:href="#m5418dfad7a" x="76.558188" y="277.111219" style="stroke: #000000; stroke-width: 0.8"/>
      </g>
     </g>
     <g id="text_2">
      <!-- −2 -->
      <g transform="translate(69.187094 291.709656) scale(0.1 -0.1)">
       <defs>
        <path id="DejaVuSans-32" d="M 1228 531 
L 3431 531 
L 3431 0 
L 469 0 
L 469 531 
Q 828 903 1448 1529 
Q 2069 2156 2228 2338 
Q 2531 2678 2651 2914 
Q 2772 3150 2772 3378 
Q 2772 3750 2511 3984 
Q 2250 4219 1831 4219 
Q 1534 4219 1204 4116 
Q 875 4013 500 3803 
L 500 4441 
Q 881 4594 1212 4672 
Q 1544 4750 1819 4750 
Q 2544 4750 2975 4387 
Q 3406 4025 3406 3419 
Q 3406 3131 3298 2873 
Q 3191 2616 2906 2266 
Q 2828 2175 2409 1742 
Q 1991 1309 1228 531 
z
" transform="scale(0.015625)"/>
       </defs>
       <use xlink:href="#DejaVuSans-2212"/>
       <use xlink:href="#DejaVuSans-32" x="83.789062"/>
      </g>
     </g>
    </g>
    <g id="xtick_3">
     <g id="line2d_3">
      <g>
       <use xlink:href="#m5418dfad7a" x="124.174188" y="277.111219" style="stroke: #000000; stroke-width: 0.8"/>
      </g>
     </g>
     <g id="text_3">
      <!-- −1 -->
      <g transform="translate(116.803094 291.709656) scale(0.1 -0.1)">
       <defs>
        <path id="DejaVuSans-31" d="M 794 531 
L 1825 531 
L 1825 4091 
L 703 3866 
L 703 4441 
L 1819 4666 
L 2450 4666 
L 2450 531 
L 3481 531 
L 3481 0 
L 794 0 
L 794 531 
z
" transform="scale(0.015625)"/>
       </defs>
       <use xlink:href="#DejaVuSans-2212"/>
       <use xlink:href="#DejaVuSans-31" x="83.789062"/>
      </g>
     </g>
    </g>
    <g id="xtick_4">
     <g id="line2d_4">
      <g>
       <use xlink:href="#m5418dfad7a" x="171.790188" y="277.111219" style="stroke: #000000; stroke-width: 0.8"/>
      </g>
     </g>
     <g id="text_4">
      <!-- 0 -->
      <g transform="translate(168.608938 291.709656) scale(0.1 -0.1)">
       <defs>
        <path id="DejaVuSans-30" d="M 2034 4250 
Q 1547 4250 1301 3770 
Q 1056 3291 1056 2328 
Q 1056 1369 1301 889 
Q 1547 409 2034 409 
Q 2525 409 2770 889 
Q 3016 1369 3016 2328 
Q 3016 3291 2770 3770 
Q 2525 4250 2034 4250 
z
M 2034 4750 
Q 2819 4750 3233 4129 
Q 3647 3509 3647 2328 
Q 3647 1150 3233 529 
Q 2819 -91 2034 -91 
Q 1250 -91 836 529 
Q 422 1150 422 2328 
Q 422 3509 836 4129 
Q 1250 4750 2034 4750 
z
" transform="scale(0.015625)"/>
       </defs>
       <use xlink:href="#DejaVuSans-30"/>
      </g>
     </g>
    </g>
    <g id="xtick_5">
     <g id="line2d_5">
      <g>
       <use xlink:href="#m5418dfad7a" x="219.406188" y="277.111219" style="stroke: #000000; stroke-width: 0.8"/>
      </g>
     </g>
     <g id="text_5">
      <!-- 1 -->
      <g transform="translate(216.224938 291.709656) scale(0.1 -0.1)">
       <use xlink:href="#DejaVuSans-31"/>
      </g>
     </g>
    </g>
    <g id="xtick_6">
     <g id="line2d_6">
      <g>
       <use xlink:href="#m5418dfad7a" x="267.022188" y="277.111219" style="stroke: #000000; stroke-width: 0.8"/>
      </g>
     </g>
     <g id="text_6">
      <!-- 2 -->
      <g transform="translate(263.840938 291.709656) scale(0.1 -0.1)">
       <use xlink:href="#DejaVuSans-32"/>
      </g>
     </g>
    </g>
    <g id="xtick_7">
     <g id="line2d_7">
      <g>
       <use xlink:href="#m5418dfad7a" x="314.638188" y="277.111219" style="stroke: #000000; stroke-width: 0.8"/>
      </g>
     </g>
     <g id="text_7">
      <!-- 3 -->
      <g transform="translate(311.456938 291.709656) scale(0.1 -0.1)">
       <use xlink:href="#DejaVuSans-33"/>
      </g>
     </g>
    </g>
   </g>
   <g id="matplotlib.axis_2">
    <g id="ytick_1">
     <g id="line2d_8">
      <defs>
       <path id="m3b89b8e772" d="M 0 0 
L -3.5 0 
" style="stroke: #000000; stroke-width: 0.8"/>
      </defs>
      <g>
       <use xlink:href="#m3b89b8e772" x="28.942188" y="277.111219" style="stroke: #000000; stroke-width: 0.8"/>
      </g>
     </g>
     <g id="text_8">
      <!-- −3 -->
      <g transform="translate(7.2 280.910437) scale(0.1 -0.1)">
       <use xlink:href="#DejaVuSans-2212"/>
       <use xlink:href="#DejaVuSans-33" x="83.789062"/>
      </g>
     </g>
    </g>
    <g id="ytick_2">
     <g id="line2d_9">
      <g>
       <use xlink:href="#m3b89b8e772" x="28.942188" y="232.759219" style="stroke: #000000; stroke-width: 0.8"/>
      </g>
     </g>
     <g id="text_9">
      <!-- −2 -->
      <g transform="translate(7.2 236.558437) scale(0.1 -0.1)">
       <use xlink:href="#DejaVuSans-2212"/>
       <use xlink:href="#DejaVuSans-32" x="83.789062"/>
      </g>
     </g>
    </g>
    <g id="ytick_3">
     <g id="line2d_10">
      <g>
       <use xlink:href="#m3b89b8e772" x="28.942188" y="188.407219" style="stroke: #000000; stroke-width: 0.8"/>
      </g>
     </g>
     <g id="text_10">
      <!-- −1 -->
      <g transform="translate(7.2 192.206437) scale(0.1 -0.1)">
       <use xlink:href="#DejaVuSans-2212"/>
       <use xlink:href="#DejaVuSans-31" x="83.789062"/>
      </g>
     </g>
    </g>
    <g id="ytick_4">
     <g id="line2d_11">
      <g>
       <use xlink:href="#m3b89b8e772" x="28.942188" y="144.055219" style="stroke: #000000; stroke-width: 0.8"/>
      </g>
     </g>
     <g id="text_11">
      <!-- 0 -->
      <g transform="translate(15.579688 147.854437) scale(0.1 -0.1)">
       <use xlink:href="#DejaVuSans-30"/>
      </g>
     </g>
    </g>
    <g id="ytick_5">
     <g id="line2d_12">
      <g>
       <use xlink:href="#m3b89b8e772" x="28.942188" y="99.703219" style="stroke: #000000; stroke-width: 0.8"/>
      </g>
     </g>
     <g id="text_12">
      <!-- 1 -->
      <g transform="translate(15.579688 103.502437) scale(0.1 -0.1)">
       <use xlink:href="#DejaVuSans-31"/>
      </g>
     </g>
    </g>
    <g id="ytick_6">
     <g id="line2d_13">
      <g>
       <use xlink:href="#m3b89b8e772" x="28.942188" y="55.351219" style="stroke: #000000; stroke-width: 0.8"/>
      </g>
     </g>
     <g id="text_13">
      <!-- 2 -->
      <g transform="translate(15.579688 59.150437) scale(0.1 -0.1)">
       <use xlink:href="#DejaVuSans-32"/>
      </g>
     </g>
    </g>
    <g id="ytick_7">
     <g id="line2d_14">
      <g>
       <use xlink:href="#m3b89b8e772" x="28.942188" y="10.999219" style="stroke: #000000; stroke-width: 0.8"/>
      </g>
     </g>
     <g id="text_14">
      <!-- 3 -->
      <g transform="translate(15.579688 14.798437) scale(0.1 -0.1)">
       <use xlink:href="#DejaVuSans-33"/>
      </g>
     </g>
    </g>
   </g>
   <g id="QuadContourSet_1">
    <path clip-path="url(#p3db35f1d78)" style="fill: none; stroke: #67001f; stroke-width: 1.5"/>
    <path d="M 28.942188 241.035197 
L 57.962834 247.543219 
L 60.686188 248.352283 
L 92.430188 253.117713 
L 124.174188 252.965847 
L 155.918188 248.287203 
L 158.641541 247.543219 
L 187.662188 245.270598 
L 219.406188 241.220645 
L 251.150188 233.871725 
L 282.894188 218.719203 
L 284.228868 217.975219 
L 314.638188 210.396898 
M 314.638188 35.14459 
L 282.894188 39.823234 
L 280.170834 40.567219 
L 251.150188 42.83984 
L 219.406188 46.889792 
L 187.662188 54.238712 
L 155.918188 69.391234 
L 154.583507 70.135219 
L 124.174188 77.71354 
L 92.430188 94.128724 
L 83.985049 99.703219 
L 60.686188 110.830582 
L 35.929154 129.271219 
L 28.942188 135.77924 
" clip-path="url(#p3db35f1d78)" style="fill: none; stroke: #900d26; stroke-width: 1.5"/>
    <path d="M 28.942188 210.991329 
L 33.562749 217.975219 
L 60.686188 232.019106 
L 92.430188 238.604107 
L 124.174188 240.275591 
L 155.918188 239.228063 
L 187.662188 235.789759 
L 219.406188 228.884274 
L 246.529626 217.975219 
L 251.150188 217.113082 
L 282.894188 209.660063 
L 314.638188 195.610359 
M 314.638188 47.834847 
L 282.894188 48.882375 
L 251.150188 52.320678 
L 219.406188 59.226163 
L 192.282749 70.135219 
L 187.662188 70.997356 
L 155.918188 78.450375 
L 124.174188 92.500078 
L 112.291463 99.703219 
L 92.430188 108.642331 
L 63.042271 129.271219 
L 60.686188 131.465797 
L 31.298271 158.839219 
L 28.942188 165.823109 
" clip-path="url(#p3db35f1d78)" style="fill: none; stroke: #b61f2e; stroke-width: 1.5"/>
    <path d="M 314.638188 56.760628 
L 282.894188 57.38888 
L 251.150188 61.801517 
L 223.098515 70.135219 
L 219.406188 70.657424 
L 187.662188 76.720392 
L 155.918188 86.95688 
L 132.268619 99.703219 
L 124.174188 103.051681 
L 92.430188 119.620956 
L 78.682422 129.271219 
L 60.686188 146.03384 
L 46.938422 158.839219 
L 37.036619 188.407219 
L 60.686188 215.855793 
L 64.378515 217.975219 
L 92.430188 227.625482 
L 124.174188 231.349809 
L 155.918188 230.721557 
L 187.662188 226.308921 
L 215.71386 217.975219 
L 219.406188 217.453014 
L 251.150188 211.390046 
L 282.894188 201.153557 
L 306.543756 188.407219 
L 314.638188 185.058756 
" clip-path="url(#p3db35f1d78)" style="fill: none; stroke: #c94741; stroke-width: 1.5"/>
    <path d="M 314.638188 65.68641 
L 282.894188 65.895386 
L 257.350971 70.135219 
L 251.150188 70.641739 
L 219.406188 75.170871 
L 187.662188 82.443428 
L 155.918188 95.463386 
L 148.051598 99.703219 
L 124.174188 109.580702 
L 93.654628 129.271219 
L 92.430188 130.411726 
L 61.910628 158.839219 
L 60.686188 164.614949 
L 52.819598 188.407219 
L 60.686188 197.537477 
L 92.430188 216.834712 
L 98.630971 217.975219 
L 124.174188 222.424028 
L 155.918188 222.215051 
L 181.461404 217.975219 
L 187.662188 217.468699 
L 219.406188 212.939566 
L 251.150188 205.66701 
L 282.894188 192.647051 
L 290.760777 188.407219 
L 314.638188 178.529735 
" clip-path="url(#p3db35f1d78)" style="fill: none; stroke: #dc6e57; stroke-width: 1.5"/>
    <path d="M 314.638188 73.139218 
L 282.894188 72.436808 
L 251.150188 74.828019 
L 219.406188 79.684319 
L 187.662188 88.166464 
L 162.242942 99.703219 
L 155.918188 102.004808 
L 124.174188 116.109723 
L 103.774365 129.271219 
L 92.430188 139.837771 
L 72.030365 158.839219 
L 67.010942 188.407219 
L 92.430188 207.408667 
L 124.174188 214.971219 
L 155.918188 215.673629 
L 187.662188 213.282418 
L 219.406188 208.426118 
L 251.150188 199.943974 
L 276.569433 188.407219 
L 282.894188 186.105629 
L 314.638188 172.000714 
" clip-path="url(#p3db35f1d78)" style="fill: none; stroke: #ee9677; stroke-width: 1.5"/>
    <path d="M 314.638188 79.12832 
L 282.894188 77.025508 
L 251.150188 79.014299 
L 219.406188 84.197767 
L 187.662188 93.8895 
L 174.852663 99.703219 
L 155.918188 106.593508 
L 124.174188 122.638744 
L 113.894101 129.271219 
L 92.430188 149.263816 
L 82.150101 158.839219 
L 79.620663 188.407219 
L 92.430188 197.982621 
L 124.174188 208.982118 
L 155.918188 211.084929 
L 187.662188 209.096138 
L 219.406188 203.912671 
L 251.150188 194.220938 
L 263.959712 188.407219 
L 282.894188 181.516929 
L 314.638188 165.471693 
" clip-path="url(#p3db35f1d78)" style="fill: none; stroke: #f7b799; stroke-width: 1.5"/>
    <path d="M 314.638188 85.117422 
L 282.894188 81.614209 
L 251.150188 83.20058 
L 219.406188 88.711214 
L 187.662188 99.612536 
L 187.462384 99.703219 
L 155.918188 111.182209 
L 124.174188 129.167765 
L 124.013838 129.271219 
L 92.430188 158.689861 
L 92.269838 158.839219 
L 92.230384 188.407219 
L 92.430188 188.556576 
L 124.174188 202.993016 
L 155.918188 206.496229 
L 187.662188 204.909858 
L 219.406188 199.399223 
L 251.150188 188.497901 
L 251.349991 188.407219 
L 282.894188 176.928229 
L 314.638188 158.942672 
" clip-path="url(#p3db35f1d78)" style="fill: none; stroke: #fcd5bf; stroke-width: 1.5"/>
    <path d="M 314.638188 91.106523 
L 282.894188 86.202909 
L 251.150188 87.38686 
L 219.406188 93.224662 
L 200.574126 99.703219 
L 187.662188 103.482466 
L 155.918188 115.770909 
L 132.131183 129.271219 
L 124.174188 136.682775 
L 100.387183 158.839219 
L 105.342126 188.407219 
L 124.174188 197.003914 
L 155.918188 201.907528 
L 187.662188 200.723578 
L 219.406188 194.885775 
L 238.238249 188.407219 
L 251.150188 184.627971 
L 282.894188 172.339528 
L 306.681192 158.839219 
L 314.638188 151.427662 
" clip-path="url(#p3db35f1d78)" style="fill: none; stroke: #feebdf; stroke-width: 1.5"/>
    <path d="M 314.638188 97.095625 
L 282.894188 90.791609 
L 251.150188 91.57314 
L 219.406188 97.73811 
L 213.69395 99.703219 
L 187.662188 107.322561 
L 155.918188 120.359609 
L 140.216289 129.271219 
L 124.174188 144.21366 
L 108.472289 158.839219 
L 118.46195 188.407219 
L 124.174188 191.014812 
L 155.918188 197.318828 
L 187.662188 196.537297 
L 219.406188 190.372328 
L 225.118425 188.407219 
L 251.150188 180.787877 
L 282.894188 167.750828 
L 298.596086 158.839219 
L 314.638188 143.896777 
" clip-path="url(#p3db35f1d78)" style="fill: none; stroke: #fefefe; stroke-width: 1.5"/>
    <path d="M 314.638188 110.783418 
L 302.742562 99.703219 
L 282.894188 95.38031 
L 251.150188 95.75942 
L 231.301813 99.703219 
L 219.406188 101.891175 
L 187.662188 111.162655 
L 155.918188 124.94831 
L 148.301395 129.271219 
L 124.174188 151.744545 
L 116.557395 158.839219 
L 124.174188 177.32702 
L 136.069813 188.407219 
L 155.918188 192.730128 
L 187.662188 192.351017 
L 207.510562 188.407219 
L 219.406188 186.219262 
L 251.150188 176.947782 
L 282.894188 163.162128 
L 290.51098 158.839219 
L 314.638188 136.365893 
" clip-path="url(#p3db35f1d78)" style="fill: none; stroke: #ededed; stroke-width: 1.5"/>
    <path d="M 155.918188 187.953362 
L 187.662188 188.127529 
L 219.406188 182.344099 
L 251.150188 173.107688 
L 282.40693 158.839219 
L 282.894188 158.385362 
L 314.15093 129.271219 
L 282.894188 100.157076 
L 251.150188 99.982909 
L 219.406188 105.766338 
L 187.662188 115.00275 
L 156.405445 129.271219 
L 155.918188 129.725076 
L 124.661445 158.839219 
L 155.918188 187.953362 
z
" clip-path="url(#p3db35f1d78)" style="fill: none; stroke: #dcdcdc; stroke-width: 1.5"/>
    <path d="M 155.918188 180.117828 
L 187.662188 183.298873 
L 219.406188 178.468936 
L 251.150188 169.267593 
L 273.994755 158.839219 
L 282.894188 150.549828 
L 305.738755 129.271219 
L 282.894188 107.992609 
L 251.150188 104.811564 
L 219.406188 109.641501 
L 187.662188 118.842844 
L 164.81762 129.271219 
L 155.918188 137.560609 
L 133.07362 158.839219 
L 155.918188 180.117828 
z
" clip-path="url(#p3db35f1d78)" style="fill: none; stroke: #c7c7c7; stroke-width: 1.5"/>
    <path d="M 155.918188 172.282295 
L 187.662188 178.470217 
L 219.406188 174.593773 
L 251.150188 165.427498 
L 265.582581 158.839219 
L 282.894188 142.714295 
L 297.326581 129.271219 
L 282.894188 115.828142 
L 251.150188 109.64022 
L 219.406188 113.516664 
L 187.662188 122.682939 
L 173.229794 129.271219 
L 155.918188 145.396142 
L 141.485794 158.839219 
L 155.918188 172.282295 
z
" clip-path="url(#p3db35f1d78)" style="fill: none; stroke: #afafaf; stroke-width: 1.5"/>
    <path d="M 155.918188 164.446762 
L 187.662188 173.641562 
L 219.406188 170.71861 
L 251.150188 161.587404 
L 257.170407 158.839219 
L 282.894188 134.878762 
L 288.914407 129.271219 
L 282.894188 123.663676 
L 251.150188 114.468876 
L 219.406188 117.391827 
L 187.662188 126.523034 
L 181.641968 129.271219 
L 155.918188 153.231676 
L 149.897968 158.839219 
L 155.918188 164.446762 
z
" clip-path="url(#p3db35f1d78)" style="fill: none; stroke: #919191; stroke-width: 1.5"/>
    <path d="M 187.662188 168.812906 
L 219.406188 166.843447 
L 247.309018 158.839219 
L 251.150188 155.261355 
L 279.053018 129.271219 
L 251.150188 119.297532 
L 219.406188 121.26699 
L 191.503357 129.271219 
L 187.662188 132.849082 
L 159.759357 158.839219 
L 187.662188 168.812906 
z
" clip-path="url(#p3db35f1d78)" style="fill: none; stroke: #737373; stroke-width: 1.5"/>
    <path d="M 187.662188 163.98425 
L 219.406188 162.968284 
L 233.800156 158.839219 
L 251.150188 142.678504 
L 265.544156 129.271219 
L 251.150188 124.126187 
L 219.406188 125.142153 
L 205.012219 129.271219 
L 187.662188 145.431933 
L 173.268219 158.839219 
L 187.662188 163.98425 
z
" clip-path="url(#p3db35f1d78)" style="fill: none; stroke: #535353; stroke-width: 1.5"/>
    <path d="M 187.662188 159.155595 
L 219.406188 159.093121 
L 220.291295 158.839219 
L 251.150188 130.095653 
L 252.035295 129.271219 
L 251.150188 128.954843 
L 219.406188 129.017316 
L 218.52108 129.271219 
L 187.662188 158.014784 
L 186.77708 158.839219 
L 187.662188 159.155595 
z
" clip-path="url(#p3db35f1d78)" style="fill: none; stroke: #363636; stroke-width: 1.5"/>
    <path clip-path="url(#p3db35f1d78)" style="fill: none; stroke: #1a1a1a; stroke-width: 1.5"/>
   </g>
   <g id="patch_3">
    <path d="M 28.942188 277.111219 
L 28.942188 10.999219 
" style="fill: none; stroke: #000000; stroke-width: 0.8; stroke-linejoin: miter; stroke-linecap: square"/>
   </g>
   <g id="patch_4">
    <path d="M 314.638188 277.111219 
L 314.638188 10.999219 
" style="fill: none; stroke: #000000; stroke-width: 0.8; stroke-linejoin: miter; stroke-linecap: square"/>
   </g>
   <g id="patch_5">
    <path d="M 28.942188 277.111219 
L 314.638188 277.111219 
" style="fill: none; stroke: #000000; stroke-width: 0.8; stroke-linejoin: miter; stroke-linecap: square"/>
   </g>
   <g id="patch_6">
    <path d="M 28.942188 10.999219 
L 314.638188 10.999219 
" style="fill: none; stroke: #000000; stroke-width: 0.8; stroke-linejoin: miter; stroke-linecap: square"/>
   </g>
  </g>
  <g id="axes_2">
   <g id="patch_7">
    <path d="M 332.494188 277.111219 
L 345.799788 277.111219 
L 345.799788 10.999219 
L 332.494188 10.999219 
z
" style="fill: #ffffff"/>
   </g>
   <g id="matplotlib.axis_3"/>
   <g id="matplotlib.axis_4">
    <g id="ytick_8">
     <g id="line2d_15">
      <defs>
       <path id="m0a971e53fb" d="M 0 0 
L 3.5 0 
" style="stroke: #000000; stroke-width: 0.8"/>
      </defs>
      <g>
       <use xlink:href="#m0a971e53fb" x="345.799788" y="277.111219" style="stroke: #000000; stroke-width: 0.8"/>
      </g>
     </g>
     <g id="text_15">
      <!-- 0.00 -->
      <g transform="translate(352.799788 280.910437) scale(0.1 -0.1)">
       <defs>
        <path id="DejaVuSans-2e" d="M 684 794 
L 1344 794 
L 1344 0 
L 684 0 
L 684 794 
z
" transform="scale(0.015625)"/>
       </defs>
       <use xlink:href="#DejaVuSans-30"/>
       <use xlink:href="#DejaVuSans-2e" x="63.623047"/>
       <use xlink:href="#DejaVuSans-30" x="95.410156"/>
       <use xlink:href="#DejaVuSans-30" x="159.033203"/>
      </g>
     </g>
    </g>
    <g id="ytick_9">
     <g id="line2d_16">
      <g>
       <use xlink:href="#m0a971e53fb" x="345.799788" y="247.543219" style="stroke: #000000; stroke-width: 0.8"/>
      </g>
     </g>
     <g id="text_16">
      <!-- 0.01 -->
      <g transform="translate(352.799788 251.342437) scale(0.1 -0.1)">
       <use xlink:href="#DejaVuSans-30"/>
       <use xlink:href="#DejaVuSans-2e" x="63.623047"/>
       <use xlink:href="#DejaVuSans-30" x="95.410156"/>
       <use xlink:href="#DejaVuSans-31" x="159.033203"/>
      </g>
     </g>
    </g>
    <g id="ytick_10">
     <g id="line2d_17">
      <g>
       <use xlink:href="#m0a971e53fb" x="345.799788" y="217.975219" style="stroke: #000000; stroke-width: 0.8"/>
      </g>
     </g>
     <g id="text_17">
      <!-- 0.02 -->
      <g transform="translate(352.799788 221.774437) scale(0.1 -0.1)">
       <use xlink:href="#DejaVuSans-30"/>
       <use xlink:href="#DejaVuSans-2e" x="63.623047"/>
       <use xlink:href="#DejaVuSans-30" x="95.410156"/>
       <use xlink:href="#DejaVuSans-32" x="159.033203"/>
      </g>
     </g>
    </g>
    <g id="ytick_11">
     <g id="line2d_18">
      <g>
       <use xlink:href="#m0a971e53fb" x="345.799788" y="188.407219" style="stroke: #000000; stroke-width: 0.8"/>
      </g>
     </g>
     <g id="text_18">
      <!-- 0.03 -->
      <g transform="translate(352.799788 192.206437) scale(0.1 -0.1)">
       <use xlink:href="#DejaVuSans-30"/>
       <use xlink:href="#DejaVuSans-2e" x="63.623047"/>
       <use xlink:href="#DejaVuSans-30" x="95.410156"/>
       <use xlink:href="#DejaVuSans-33" x="159.033203"/>
      </g>
     </g>
    </g>
    <g id="ytick_12">
     <g id="line2d_19">
      <g>
       <use xlink:href="#m0a971e53fb" x="345.799788" y="158.839219" style="stroke: #000000; stroke-width: 0.8"/>
      </g>
     </g>
     <g id="text_19">
      <!-- 0.04 -->
      <g transform="translate(352.799788 162.638437) scale(0.1 -0.1)">
       <defs>
        <path id="DejaVuSans-34" d="M 2419 4116 
L 825 1625 
L 2419 1625 
L 2419 4116 
z
M 2253 4666 
L 3047 4666 
L 3047 1625 
L 3713 1625 
L 3713 1100 
L 3047 1100 
L 3047 0 
L 2419 0 
L 2419 1100 
L 313 1100 
L 313 1709 
L 2253 4666 
z
" transform="scale(0.015625)"/>
       </defs>
       <use xlink:href="#DejaVuSans-30"/>
       <use xlink:href="#DejaVuSans-2e" x="63.623047"/>
       <use xlink:href="#DejaVuSans-30" x="95.410156"/>
       <use xlink:href="#DejaVuSans-34" x="159.033203"/>
      </g>
     </g>
    </g>
    <g id="ytick_13">
     <g id="line2d_20">
      <g>
       <use xlink:href="#m0a971e53fb" x="345.799788" y="129.271219" style="stroke: #000000; stroke-width: 0.8"/>
      </g>
     </g>
     <g id="text_20">
      <!-- 0.05 -->
      <g transform="translate(352.799788 133.070437) scale(0.1 -0.1)">
       <defs>
        <path id="DejaVuSans-35" d="M 691 4666 
L 3169 4666 
L 3169 4134 
L 1269 4134 
L 1269 2991 
Q 1406 3038 1543 3061 
Q 1681 3084 1819 3084 
Q 2600 3084 3056 2656 
Q 3513 2228 3513 1497 
Q 3513 744 3044 326 
Q 2575 -91 1722 -91 
Q 1428 -91 1123 -41 
Q 819 9 494 109 
L 494 744 
Q 775 591 1075 516 
Q 1375 441 1709 441 
Q 2250 441 2565 725 
Q 2881 1009 2881 1497 
Q 2881 1984 2565 2268 
Q 2250 2553 1709 2553 
Q 1456 2553 1204 2497 
Q 953 2441 691 2322 
L 691 4666 
z
" transform="scale(0.015625)"/>
       </defs>
       <use xlink:href="#DejaVuSans-30"/>
       <use xlink:href="#DejaVuSans-2e" x="63.623047"/>
       <use xlink:href="#DejaVuSans-30" x="95.410156"/>
       <use xlink:href="#DejaVuSans-35" x="159.033203"/>
      </g>
     </g>
    </g>
    <g id="ytick_14">
     <g id="line2d_21">
      <g>
       <use xlink:href="#m0a971e53fb" x="345.799788" y="99.703219" style="stroke: #000000; stroke-width: 0.8"/>
      </g>
     </g>
     <g id="text_21">
      <!-- 0.06 -->
      <g transform="translate(352.799788 103.502437) scale(0.1 -0.1)">
       <defs>
        <path id="DejaVuSans-36" d="M 2113 2584 
Q 1688 2584 1439 2293 
Q 1191 2003 1191 1497 
Q 1191 994 1439 701 
Q 1688 409 2113 409 
Q 2538 409 2786 701 
Q 3034 994 3034 1497 
Q 3034 2003 2786 2293 
Q 2538 2584 2113 2584 
z
M 3366 4563 
L 3366 3988 
Q 3128 4100 2886 4159 
Q 2644 4219 2406 4219 
Q 1781 4219 1451 3797 
Q 1122 3375 1075 2522 
Q 1259 2794 1537 2939 
Q 1816 3084 2150 3084 
Q 2853 3084 3261 2657 
Q 3669 2231 3669 1497 
Q 3669 778 3244 343 
Q 2819 -91 2113 -91 
Q 1303 -91 875 529 
Q 447 1150 447 2328 
Q 447 3434 972 4092 
Q 1497 4750 2381 4750 
Q 2619 4750 2861 4703 
Q 3103 4656 3366 4563 
z
" transform="scale(0.015625)"/>
       </defs>
       <use xlink:href="#DejaVuSans-30"/>
       <use xlink:href="#DejaVuSans-2e" x="63.623047"/>
       <use xlink:href="#DejaVuSans-30" x="95.410156"/>
       <use xlink:href="#DejaVuSans-36" x="159.033203"/>
      </g>
     </g>
    </g>
    <g id="ytick_15">
     <g id="line2d_22">
      <g>
       <use xlink:href="#m0a971e53fb" x="345.799788" y="70.135219" style="stroke: #000000; stroke-width: 0.8"/>
      </g>
     </g>
     <g id="text_22">
      <!-- 0.07 -->
      <g transform="translate(352.799788 73.934437) scale(0.1 -0.1)">
       <defs>
        <path id="DejaVuSans-37" d="M 525 4666 
L 3525 4666 
L 3525 4397 
L 1831 0 
L 1172 0 
L 2766 4134 
L 525 4134 
L 525 4666 
z
" transform="scale(0.015625)"/>
       </defs>
       <use xlink:href="#DejaVuSans-30"/>
       <use xlink:href="#DejaVuSans-2e" x="63.623047"/>
       <use xlink:href="#DejaVuSans-30" x="95.410156"/>
       <use xlink:href="#DejaVuSans-37" x="159.033203"/>
      </g>
     </g>
    </g>
    <g id="ytick_16">
     <g id="line2d_23">
      <g>
       <use xlink:href="#m0a971e53fb" x="345.799788" y="40.567219" style="stroke: #000000; stroke-width: 0.8"/>
      </g>
     </g>
     <g id="text_23">
      <!-- 0.08 -->
      <g transform="translate(352.799788 44.366437) scale(0.1 -0.1)">
       <defs>
        <path id="DejaVuSans-38" d="M 2034 2216 
Q 1584 2216 1326 1975 
Q 1069 1734 1069 1313 
Q 1069 891 1326 650 
Q 1584 409 2034 409 
Q 2484 409 2743 651 
Q 3003 894 3003 1313 
Q 3003 1734 2745 1975 
Q 2488 2216 2034 2216 
z
M 1403 2484 
Q 997 2584 770 2862 
Q 544 3141 544 3541 
Q 544 4100 942 4425 
Q 1341 4750 2034 4750 
Q 2731 4750 3128 4425 
Q 3525 4100 3525 3541 
Q 3525 3141 3298 2862 
Q 3072 2584 2669 2484 
Q 3125 2378 3379 2068 
Q 3634 1759 3634 1313 
Q 3634 634 3220 271 
Q 2806 -91 2034 -91 
Q 1263 -91 848 271 
Q 434 634 434 1313 
Q 434 1759 690 2068 
Q 947 2378 1403 2484 
z
M 1172 3481 
Q 1172 3119 1398 2916 
Q 1625 2713 2034 2713 
Q 2441 2713 2670 2916 
Q 2900 3119 2900 3481 
Q 2900 3844 2670 4047 
Q 2441 4250 2034 4250 
Q 1625 4250 1398 4047 
Q 1172 3844 1172 3481 
z
" transform="scale(0.015625)"/>
       </defs>
       <use xlink:href="#DejaVuSans-30"/>
       <use xlink:href="#DejaVuSans-2e" x="63.623047"/>
       <use xlink:href="#DejaVuSans-30" x="95.410156"/>
       <use xlink:href="#DejaVuSans-38" x="159.033203"/>
      </g>
     </g>
    </g>
    <g id="ytick_17">
     <g id="line2d_24">
      <g>
       <use xlink:href="#m0a971e53fb" x="345.799788" y="10.999219" style="stroke: #000000; stroke-width: 0.8"/>
      </g>
     </g>
     <g id="text_24">
      <!-- 0.09 -->
      <g transform="translate(352.799788 14.798437) scale(0.1 -0.1)">
       <defs>
        <path id="DejaVuSans-39" d="M 703 97 
L 703 672 
Q 941 559 1184 500 
Q 1428 441 1663 441 
Q 2288 441 2617 861 
Q 2947 1281 2994 2138 
Q 2813 1869 2534 1725 
Q 2256 1581 1919 1581 
Q 1219 1581 811 2004 
Q 403 2428 403 3163 
Q 403 3881 828 4315 
Q 1253 4750 1959 4750 
Q 2769 4750 3195 4129 
Q 3622 3509 3622 2328 
Q 3622 1225 3098 567 
Q 2575 -91 1691 -91 
Q 1453 -91 1209 -44 
Q 966 3 703 97 
z
M 1959 2075 
Q 2384 2075 2632 2365 
Q 2881 2656 2881 3163 
Q 2881 3666 2632 3958 
Q 2384 4250 1959 4250 
Q 1534 4250 1286 3958 
Q 1038 3666 1038 3163 
Q 1038 2656 1286 2365 
Q 1534 2075 1959 2075 
z
" transform="scale(0.015625)"/>
       </defs>
       <use xlink:href="#DejaVuSans-30"/>
       <use xlink:href="#DejaVuSans-2e" x="63.623047"/>
       <use xlink:href="#DejaVuSans-30" x="95.410156"/>
       <use xlink:href="#DejaVuSans-39" x="159.033203"/>
      </g>
     </g>
    </g>
   </g>
   <g id="LineCollection_1"/>
   <g id="LineCollection_2">
    <path d="M 332.494188 277.111219 
L 345.799788 277.111219 
" clip-path="url(#p70f1a4a588)" style="fill: none; stroke: #67001f; stroke-width: 1.5"/>
    <path d="M 332.494188 262.327219 
L 345.799788 262.327219 
" clip-path="url(#p70f1a4a588)" style="fill: none; stroke: #900d26; stroke-width: 1.5"/>
    <path d="M 332.494188 247.543219 
L 345.799788 247.543219 
" clip-path="url(#p70f1a4a588)" style="fill: none; stroke: #b61f2e; stroke-width: 1.5"/>
    <path d="M 332.494188 232.759219 
L 345.799788 232.759219 
" clip-path="url(#p70f1a4a588)" style="fill: none; stroke: #c94741; stroke-width: 1.5"/>
    <path d="M 332.494188 217.975219 
L 345.799788 217.975219 
" clip-path="url(#p70f1a4a588)" style="fill: none; stroke: #dc6e57; stroke-width: 1.5"/>
    <path d="M 332.494188 203.191219 
L 345.799788 203.191219 
" clip-path="url(#p70f1a4a588)" style="fill: none; stroke: #ee9677; stroke-width: 1.5"/>
    <path d="M 332.494188 188.407219 
L 345.799788 188.407219 
" clip-path="url(#p70f1a4a588)" style="fill: none; stroke: #f7b799; stroke-width: 1.5"/>
    <path d="M 332.494188 173.623219 
L 345.799788 173.623219 
" clip-path="url(#p70f1a4a588)" style="fill: none; stroke: #fcd5bf; stroke-width: 1.5"/>
    <path d="M 332.494188 158.839219 
L 345.799788 158.839219 
" clip-path="url(#p70f1a4a588)" style="fill: none; stroke: #feebdf; stroke-width: 1.5"/>
    <path d="M 332.494188 144.055219 
L 345.799788 144.055219 
" clip-path="url(#p70f1a4a588)" style="fill: none; stroke: #fefefe; stroke-width: 1.5"/>
    <path d="M 332.494188 129.271219 
L 345.799788 129.271219 
" clip-path="url(#p70f1a4a588)" style="fill: none; stroke: #ededed; stroke-width: 1.5"/>
    <path d="M 332.494188 114.487219 
L 345.799788 114.487219 
" clip-path="url(#p70f1a4a588)" style="fill: none; stroke: #dcdcdc; stroke-width: 1.5"/>
    <path d="M 332.494188 99.703219 
L 345.799788 99.703219 
" clip-path="url(#p70f1a4a588)" style="fill: none; stroke: #c7c7c7; stroke-width: 1.5"/>
    <path d="M 332.494188 84.919219 
L 345.799788 84.919219 
" clip-path="url(#p70f1a4a588)" style="fill: none; stroke: #afafaf; stroke-width: 1.5"/>
    <path d="M 332.494188 70.135219 
L 345.799788 70.135219 
" clip-path="url(#p70f1a4a588)" style="fill: none; stroke: #919191; stroke-width: 1.5"/>
    <path d="M 332.494188 55.351219 
L 345.799788 55.351219 
" clip-path="url(#p70f1a4a588)" style="fill: none; stroke: #737373; stroke-width: 1.5"/>
    <path d="M 332.494188 40.567219 
L 345.799788 40.567219 
" clip-path="url(#p70f1a4a588)" style="fill: none; stroke: #535353; stroke-width: 1.5"/>
    <path d="M 332.494188 25.783219 
L 345.799788 25.783219 
" clip-path="url(#p70f1a4a588)" style="fill: none; stroke: #363636; stroke-width: 1.5"/>
    <path d="M 332.494188 10.999219 
L 345.799788 10.999219 
" clip-path="url(#p70f1a4a588)" style="fill: none; stroke: #1a1a1a; stroke-width: 1.5"/>
   </g>
   <g id="patch_8">
    <path d="M 332.494188 277.111219 
L 339.146988 277.111219 
L 345.799788 277.111219 
L 345.799788 10.999219 
L 339.146988 10.999219 
L 332.494188 10.999219 
L 332.494188 277.111219 
z
" style="fill: none; stroke: #000000; stroke-width: 0.8; stroke-linejoin: miter; stroke-linecap: square"/>
   </g>
  </g>
 </g>
 <defs>
  <clipPath id="p3db35f1d78">
   <rect x="28.942188" y="10.999219" width="285.696" height="266.112"/>
  </clipPath>
  <clipPath id="p70f1a4a588">
   <path d="M 332.494188 278.611219 
L 345.799788 278.611219 
L 345.799788 9.499219 
L 332.494188 9.499219 
z
"/>
  </clipPath>
 </defs>
</svg>