<?xml version="1.0" encoding="utf-8" standalone="no"?>
<!DOCTYPE svg PUBLIC "-//W3C//DTD SVG 1.1//EN"
  "http://www.w3.org/Graphics/SVG/1.1/DTD/svg11.dtd">
<svg xmlns:xlink="http://www.w3.org/1999/xlink" width="856.46125pt" height="423.034375pt" viewBox="0 0 856.46125 423.034375" xmlns="http://www.w3.org/2000/svg" version="1.1">
 <metadata>
  <rdf:RDF xmlns:dc="http://purl.org/dc/elements/1.1/" xmlns:cc="http://creativecommons.org/ns#" xmlns:rdf="http://www.w3.org/1999/02/22-rdf-syntax-ns#">
   <cc:Work>
    <dc:type rdf:resource="http://purl.org/dc/dcmitype/StillImage"/>
    <dc:date>2024-09-08T12:55:49.533984</dc:date>
    <dc:format>image/svg+xml</dc:format>
    <dc:creator>
     <cc:Agent>
      <dc:title>Matplotlib v3.9.0, https://matplotlib.org/</dc:title>
     </cc:Agent>
    </dc:creator>
   </cc:Work>
  </rdf:RDF>
 </metadata>
 <defs>
  <style type="text/css">*{stroke-linejoin: round; stroke-linecap: butt}</style>
 </defs>
 <g id="figure_1">
  <g id="patch_1">
   <path d="M 0 423.034375 
L 856.46125 423.034375 
L 856.46125 0 
L 0 0 
z
" style="fill: #ffffff"/>
  </g>
  <g id="axes_1">
   <g id="patch_2">
    <path d="M 43.78125 385.478125 
L 849.26125 385.478125 
L 849.26125 22.318125 
L 43.78125 22.318125 
z
" style="fill: #ffffff"/>
   </g>
   <g id="patch_3">
    <path d="M 80.923096 385.478125 
L 101.308981 385.478125 
L 101.308981 338.069786 
L 80.923096 338.069786 
z
" clip-path="url(#pd12b16bce7)" style="fill: #ff0000; opacity: 0.3; stroke: #000000; stroke-linejoin: miter"/>
   </g>
   <g id="patch_4">
    <path d="M 101.308981 385.478125 
L 121.694867 385.478125 
L 121.694867 240.783922 
L 101.308981 240.783922 
z
" clip-path="url(#pd12b16bce7)" style="fill: #ff0000; opacity: 0.3; stroke: #000000; stroke-linejoin: miter"/>
   </g>
   <g id="patch_5">
    <path d="M 121.694867 385.478125 
L 142.080752 385.478125 
L 142.080752 171.64676 
L 121.694867 171.64676 
z
" clip-path="url(#pd12b16bce7)" style="fill: #ff0000; opacity: 0.3; stroke: #000000; stroke-linejoin: miter"/>
   </g>
   <g id="patch_6">
    <path d="M 142.080752 385.478125 
L 162.466637 385.478125 
L 162.466637 107.447967 
L 142.080752 107.447967 
z
" clip-path="url(#pd12b16bce7)" style="fill: #ff0000; opacity: 0.3; stroke: #000000; stroke-linejoin: miter"/>
   </g>
   <g id="patch_7">
    <path d="M 162.466637 385.478125 
L 182.852522 385.478125 
L 182.852522 85.719145 
L 162.466637 85.719145 
z
" clip-path="url(#pd12b16bce7)" style="fill: #ff0000; opacity: 0.3; stroke: #000000; stroke-linejoin: miter"/>
   </g>
   <g id="patch_8">
    <path d="M 182.852522 385.478125 
L 203.238407 385.478125 
L 203.238407 76.830082 
L 182.852522 76.830082 
z
" clip-path="url(#pd12b16bce7)" style="fill: #ff0000; opacity: 0.3; stroke: #000000; stroke-linejoin: miter"/>
   </g>
   <g id="patch_9">
    <path d="M 203.238407 385.478125 
L 223.624292 385.478125 
L 223.624292 43.743011 
L 203.238407 43.743011 
z
" clip-path="url(#pd12b16bce7)" style="fill: #ff0000; opacity: 0.3; stroke: #000000; stroke-linejoin: miter"/>
   </g>
   <g id="patch_10">
    <path d="M 223.624292 385.478125 
L 244.010177 385.478125 
L 244.010177 43.743011 
L 223.624292 43.743011 
z
" clip-path="url(#pd12b16bce7)" style="fill: #ff0000; opacity: 0.3; stroke: #000000; stroke-linejoin: miter"/>
   </g>
   <g id="patch_11">
    <path d="M 244.010177 385.478125 
L 264.396063 385.478125 
L 264.396063 62.014975 
L 244.010177 62.014975 
z
" clip-path="url(#pd12b16bce7)" style="fill: #ff0000; opacity: 0.3; stroke: #000000; stroke-linejoin: miter"/>
   </g>
   <g id="patch_12">
    <path d="M 264.396063 385.478125 
L 284.781948 385.478125 
L 284.781948 58.06428 
L 264.396063 58.06428 
z
" clip-path="url(#pd12b16bce7)" style="fill: #ff0000; opacity: 0.3; stroke: #000000; stroke-linejoin: miter"/>
   </g>
   <g id="patch_13">
    <path d="M 284.781948 385.478125 
L 305.167833 385.478125 
L 305.167833 94.114372 
L 284.781948 94.114372 
z
" clip-path="url(#pd12b16bce7)" style="fill: #ff0000; opacity: 0.3; stroke: #000000; stroke-linejoin: miter"/>
   </g>
   <g id="patch_14">
    <path d="M 305.167833 385.478125 
L 325.553718 385.478125 
L 325.553718 107.941804 
L 305.167833 107.941804 
z
" clip-path="url(#pd12b16bce7)" style="fill: #ff0000; opacity: 0.3; stroke: #000000; stroke-linejoin: miter"/>
   </g>
   <g id="patch_15">
    <path d="M 325.553718 385.478125 
L 345.939603 385.478125 
L 345.939603 101.521925 
L 325.553718 101.521925 
z
" clip-path="url(#pd12b16bce7)" style="fill: #ff0000; opacity: 0.3; stroke: #000000; stroke-linejoin: miter"/>
   </g>
   <g id="patch_16">
    <path d="M 345.939603 385.478125 
L 366.325488 385.478125 
L 366.325488 142.510385 
L 345.939603 142.510385 
z
" clip-path="url(#pd12b16bce7)" style="fill: #ff0000; opacity: 0.3; stroke: #000000; stroke-linejoin: miter"/>
   </g>
   <g id="patch_17">
    <path d="M 366.325488 385.478125 
L 386.711374 385.478125 
L 386.711374 165.720718 
L 366.325488 165.720718 
z
" clip-path="url(#pd12b16bce7)" style="fill: #ff0000; opacity: 0.3; stroke: #000000; stroke-linejoin: miter"/>
   </g>
   <g id="patch_18">
    <path d="M 386.711374 385.478125 
L 407.097259 385.478125 
L 407.097259 196.832441 
L 386.711374 196.832441 
z
" clip-path="url(#pd12b16bce7)" style="fill: #ff0000; opacity: 0.3; stroke: #000000; stroke-linejoin: miter"/>
   </g>
   <g id="patch_19">
    <path d="M 407.097259 385.478125 
L 427.483144 385.478125 
L 427.483144 228.931837 
L 407.097259 228.931837 
z
" clip-path="url(#pd12b16bce7)" style="fill: #ff0000; opacity: 0.3; stroke: #000000; stroke-linejoin: miter"/>
   </g>
   <g id="patch_20">
    <path d="M 427.483144 385.478125 
L 447.869029 385.478125 
L 447.869029 246.709965 
L 427.483144 246.709965 
z
" clip-path="url(#pd12b16bce7)" style="fill: #ff0000; opacity: 0.3; stroke: #000000; stroke-linejoin: miter"/>
   </g>
   <g id="patch_21">
    <path d="M 447.869029 385.478125 
L 468.254914 385.478125 
L 468.254914 264.488092 
L 447.869029 264.488092 
z
" clip-path="url(#pd12b16bce7)" style="fill: #ff0000; opacity: 0.3; stroke: #000000; stroke-linejoin: miter"/>
   </g>
   <g id="patch_22">
    <path d="M 468.254914 385.478125 
L 488.640799 385.478125 
L 488.640799 287.698425 
L 468.254914 287.698425 
z
" clip-path="url(#pd12b16bce7)" style="fill: #ff0000; opacity: 0.3; stroke: #000000; stroke-linejoin: miter"/>
   </g>
   <g id="patch_23">
    <path d="M 488.640799 385.478125 
L 509.026684 385.478125 
L 509.026684 303.007368 
L 488.640799 303.007368 
z
" clip-path="url(#pd12b16bce7)" style="fill: #ff0000; opacity: 0.3; stroke: #000000; stroke-linejoin: miter"/>
   </g>
   <g id="patch_24">
    <path d="M 509.026684 385.478125 
L 529.41257 385.478125 
L 529.41257 328.193048 
L 509.026684 328.193048 
z
" clip-path="url(#pd12b16bce7)" style="fill: #ff0000; opacity: 0.3; stroke: #000000; stroke-linejoin: miter"/>
   </g>
   <g id="patch_25">
    <path d="M 529.41257 385.478125 
L 549.798455 385.478125 
L 549.798455 346.958849 
L 529.41257 346.958849 
z
" clip-path="url(#pd12b16bce7)" style="fill: #ff0000; opacity: 0.3; stroke: #000000; stroke-linejoin: miter"/>
   </g>
   <g id="patch_26">
    <path d="M 549.798455 385.478125 
L 570.18434 385.478125 
L 570.18434 349.428034 
L 549.798455 349.428034 
z
" clip-path="url(#pd12b16bce7)" style="fill: #ff0000; opacity: 0.3; stroke: #000000; stroke-linejoin: miter"/>
   </g>
   <g id="patch_27">
    <path d="M 570.18434 385.478125 
L 590.570225 385.478125 
L 590.570225 357.82326 
L 570.18434 357.82326 
z
" clip-path="url(#pd12b16bce7)" style="fill: #ff0000; opacity: 0.3; stroke: #000000; stroke-linejoin: miter"/>
   </g>
   <g id="patch_28">
    <path d="M 590.570225 385.478125 
L 610.95611 385.478125 
L 610.95611 365.72465 
L 590.570225 365.72465 
z
" clip-path="url(#pd12b16bce7)" style="fill: #ff0000; opacity: 0.3; stroke: #000000; stroke-linejoin: miter"/>
   </g>
   <g id="patch_29">
    <path d="M 610.95611 385.478125 
L 631.341995 385.478125 
L 631.341995 371.156856 
L 610.95611 371.156856 
z
" clip-path="url(#pd12b16bce7)" style="fill: #ff0000; opacity: 0.3; stroke: #000000; stroke-linejoin: miter"/>
   </g>
   <g id="patch_30">
    <path d="M 631.341995 385.478125 
L 651.72788 385.478125 
L 651.72788 378.070572 
L 631.341995 378.070572 
z
" clip-path="url(#pd12b16bce7)" style="fill: #ff0000; opacity: 0.3; stroke: #000000; stroke-linejoin: miter"/>
   </g>
   <g id="patch_31">
    <path d="M 651.72788 385.478125 
L 672.113766 385.478125 
L 672.113766 378.070572 
L 651.72788 378.070572 
z
" clip-path="url(#pd12b16bce7)" style="fill: #ff0000; opacity: 0.3; stroke: #000000; stroke-linejoin: miter"/>
   </g>
   <g id="patch_32">
    <path d="M 672.113766 385.478125 
L 692.499651 385.478125 
L 692.499651 383.008941 
L 672.113766 383.008941 
z
" clip-path="url(#pd12b16bce7)" style="fill: #ff0000; opacity: 0.3; stroke: #000000; stroke-linejoin: miter"/>
   </g>
   <g id="patch_33">
    <path d="M 153.060019 385.478125 
L 174.97794 385.478125 
L 174.97794 384.559488 
L 153.060019 384.559488 
z
" clip-path="url(#pd12b16bce7)" style="fill: #0000ff; opacity: 0.3; stroke: #000000; stroke-linejoin: miter"/>
   </g>
   <g id="patch_34">
    <path d="M 174.97794 385.478125 
L 196.895861 385.478125 
L 196.895861 384.559488 
L 174.97794 384.559488 
z
" clip-path="url(#pd12b16bce7)" style="fill: #0000ff; opacity: 0.3; stroke: #000000; stroke-linejoin: miter"/>
   </g>
   <g id="patch_35">
    <path d="M 196.895861 385.478125 
L 218.813782 385.478125 
L 218.813782 383.640852 
L 196.895861 383.640852 
z
" clip-path="url(#pd12b16bce7)" style="fill: #0000ff; opacity: 0.3; stroke: #000000; stroke-linejoin: miter"/>
   </g>
   <g id="patch_36">
    <path d="M 218.813782 385.478125 
L 240.731702 385.478125 
L 240.731702 379.506987 
L 218.813782 379.506987 
z
" clip-path="url(#pd12b16bce7)" style="fill: #0000ff; opacity: 0.3; stroke: #000000; stroke-linejoin: miter"/>
   </g>
   <g id="patch_37">
    <path d="M 240.731702 385.478125 
L 262.649623 385.478125 
L 262.649623 376.751078 
L 240.731702 376.751078 
z
" clip-path="url(#pd12b16bce7)" style="fill: #0000ff; opacity: 0.3; stroke: #000000; stroke-linejoin: miter"/>
   </g>
   <g id="patch_38">
    <path d="M 262.649623 385.478125 
L 284.567544 385.478125 
L 284.567544 372.157895 
L 262.649623 372.157895 
z
" clip-path="url(#pd12b16bce7)" style="fill: #0000ff; opacity: 0.3; stroke: #000000; stroke-linejoin: miter"/>
   </g>
   <g id="patch_39">
    <path d="M 284.567544 385.478125 
L 306.485464 385.478125 
L 306.485464 361.134256 
L 284.567544 361.134256 
z
" clip-path="url(#pd12b16bce7)" style="fill: #0000ff; opacity: 0.3; stroke: #000000; stroke-linejoin: miter"/>
   </g>
   <g id="patch_40">
    <path d="M 306.485464 385.478125 
L 328.403385 385.478125 
L 328.403385 348.273344 
L 306.485464 348.273344 
z
" clip-path="url(#pd12b16bce7)" style="fill: #0000ff; opacity: 0.3; stroke: #000000; stroke-linejoin: miter"/>
   </g>
   <g id="patch_41">
    <path d="M 328.403385 385.478125 
L 350.321306 385.478125 
L 350.321306 355.163118 
L 328.403385 355.163118 
z
" clip-path="url(#pd12b16bce7)" style="fill: #0000ff; opacity: 0.3; stroke: #000000; stroke-linejoin: miter"/>
   </g>
   <g id="patch_42">
    <path d="M 350.321306 385.478125 
L 372.239227 385.478125 
L 372.239227 326.226067 
L 350.321306 326.226067 
z
" clip-path="url(#pd12b16bce7)" style="fill: #0000ff; opacity: 0.3; stroke: #000000; stroke-linejoin: miter"/>
   </g>
   <g id="patch_43">
    <path d="M 372.239227 385.478125 
L 394.157147 385.478125 
L 394.157147 312.905836 
L 372.239227 312.905836 
z
" clip-path="url(#pd12b16bce7)" style="fill: #0000ff; opacity: 0.3; stroke: #000000; stroke-linejoin: miter"/>
   </g>
   <g id="patch_44">
    <path d="M 394.157147 385.478125 
L 416.075068 385.478125 
L 416.075068 293.614469 
L 394.157147 293.614469 
z
" clip-path="url(#pd12b16bce7)" style="fill: #0000ff; opacity: 0.3; stroke: #000000; stroke-linejoin: miter"/>
   </g>
   <g id="patch_45">
    <path d="M 416.075068 385.478125 
L 437.992989 385.478125 
L 437.992989 286.265376 
L 416.075068 286.265376 
z
" clip-path="url(#pd12b16bce7)" style="fill: #0000ff; opacity: 0.3; stroke: #000000; stroke-linejoin: miter"/>
   </g>
   <g id="patch_46">
    <path d="M 437.992989 385.478125 
L 459.91091 385.478125 
L 459.91091 252.275823 
L 437.992989 252.275823 
z
" clip-path="url(#pd12b16bce7)" style="fill: #0000ff; opacity: 0.3; stroke: #000000; stroke-linejoin: miter"/>
   </g>
   <g id="patch_47">
    <path d="M 459.91091 385.478125 
L 481.82883 385.478125 
L 481.82883 228.391272 
L 459.91091 228.391272 
z
" clip-path="url(#pd12b16bce7)" style="fill: #0000ff; opacity: 0.3; stroke: #000000; stroke-linejoin: miter"/>
   </g>
   <g id="patch_48">
    <path d="M 481.82883 385.478125 
L 503.746751 385.478125 
L 503.746751 197.157629 
L 481.82883 197.157629 
z
" clip-path="url(#pd12b16bce7)" style="fill: #0000ff; opacity: 0.3; stroke: #000000; stroke-linejoin: miter"/>
   </g>
   <g id="patch_49">
    <path d="M 503.746751 385.478125 
L 525.664672 385.478125 
L 525.664672 195.779674 
L 503.746751 195.779674 
z
" clip-path="url(#pd12b16bce7)" style="fill: #0000ff; opacity: 0.3; stroke: #000000; stroke-linejoin: miter"/>
   </g>
   <g id="patch_50">
    <path d="M 525.664672 385.478125 
L 547.582592 385.478125 
L 547.582592 164.546031 
L 525.664672 164.546031 
z
" clip-path="url(#pd12b16bce7)" style="fill: #0000ff; opacity: 0.3; stroke: #000000; stroke-linejoin: miter"/>
   </g>
   <g id="patch_51">
    <path d="M 547.582592 385.478125 
L 569.500513 385.478125 
L 569.500513 132.393751 
L 547.582592 132.393751 
z
" clip-path="url(#pd12b16bce7)" style="fill: #0000ff; opacity: 0.3; stroke: #000000; stroke-linejoin: miter"/>
   </g>
   <g id="patch_52">
    <path d="M 569.500513 385.478125 
L 591.418434 385.478125 
L 591.418434 107.131246 
L 569.500513 107.131246 
z
" clip-path="url(#pd12b16bce7)" style="fill: #0000ff; opacity: 0.3; stroke: #000000; stroke-linejoin: miter"/>
   </g>
   <g id="patch_53">
    <path d="M 591.418434 385.478125 
L 613.336355 385.478125 
L 613.336355 77.734876 
L 591.418434 77.734876 
z
" clip-path="url(#pd12b16bce7)" style="fill: #0000ff; opacity: 0.3; stroke: #000000; stroke-linejoin: miter"/>
   </g>
   <g id="patch_54">
    <path d="M 613.336355 385.478125 
L 635.254275 385.478125 
L 635.254275 51.553734 
L 613.336355 51.553734 
z
" clip-path="url(#pd12b16bce7)" style="fill: #0000ff; opacity: 0.3; stroke: #000000; stroke-linejoin: miter"/>
   </g>
   <g id="patch_55">
    <path d="M 635.254275 385.478125 
L 657.172196 385.478125 
L 657.172196 39.611458 
L 635.254275 39.611458 
z
" clip-path="url(#pd12b16bce7)" style="fill: #0000ff; opacity: 0.3; stroke: #000000; stroke-linejoin: miter"/>
   </g>
   <g id="patch_56">
    <path d="M 657.172196 385.478125 
L 679.090117 385.478125 
L 679.090117 54.768962 
L 657.172196 54.768962 
z
" clip-path="url(#pd12b16bce7)" style="fill: #0000ff; opacity: 0.3; stroke: #000000; stroke-linejoin: miter"/>
   </g>
   <g id="patch_57">
    <path d="M 679.090117 385.478125 
L 701.008038 385.478125 
L 701.008038 42.367368 
L 679.090117 42.367368 
z
" clip-path="url(#pd12b16bce7)" style="fill: #0000ff; opacity: 0.3; stroke: #000000; stroke-linejoin: miter"/>
   </g>
   <g id="patch_58">
    <path d="M 701.008038 385.478125 
L 722.925958 385.478125 
L 722.925958 79.572149 
L 701.008038 79.572149 
z
" clip-path="url(#pd12b16bce7)" style="fill: #0000ff; opacity: 0.3; stroke: #000000; stroke-linejoin: miter"/>
   </g>
   <g id="patch_59">
    <path d="M 722.925958 385.478125 
L 744.843879 385.478125 
L 744.843879 93.351697 
L 722.925958 93.351697 
z
" clip-path="url(#pd12b16bce7)" style="fill: #0000ff; opacity: 0.3; stroke: #000000; stroke-linejoin: miter"/>
   </g>
   <g id="patch_60">
    <path d="M 744.843879 385.478125 
L 766.7618 385.478125 
L 766.7618 150.766483 
L 744.843879 150.766483 
z
" clip-path="url(#pd12b16bce7)" style="fill: #0000ff; opacity: 0.3; stroke: #000000; stroke-linejoin: miter"/>
   </g>
   <g id="patch_61">
    <path d="M 766.7618 385.478125 
L 788.679721 385.478125 
L 788.679721 224.716726 
L 766.7618 224.716726 
z
" clip-path="url(#pd12b16bce7)" style="fill: #0000ff; opacity: 0.3; stroke: #000000; stroke-linejoin: miter"/>
   </g>
   <g id="patch_62">
    <path d="M 788.679721 385.478125 
L 810.597641 385.478125 
L 810.597641 314.283791 
L 788.679721 314.283791 
z
" clip-path="url(#pd12b16bce7)" style="fill: #0000ff; opacity: 0.3; stroke: #000000; stroke-linejoin: miter"/>
   </g>
   <g id="patch_63">
    <path d="M 118.372347 385.478125 
L 140.204922 385.478125 
L 140.204922 383.172556 
L 118.372347 383.172556 
z
" clip-path="url(#pd12b16bce7)" style="fill: #008000; opacity: 0.3; stroke: #000000; stroke-linejoin: miter"/>
   </g>
   <g id="patch_64">
    <path d="M 140.204922 385.478125 
L 162.037497 385.478125 
L 162.037497 380.405873 
L 140.204922 380.405873 
z
" clip-path="url(#pd12b16bce7)" style="fill: #008000; opacity: 0.3; stroke: #000000; stroke-linejoin: miter"/>
   </g>
   <g id="patch_65">
    <path d="M 162.037497 385.478125 
L 183.870072 385.478125 
L 183.870072 373.489166 
L 162.037497 373.489166 
z
" clip-path="url(#pd12b16bce7)" style="fill: #008000; opacity: 0.3; stroke: #000000; stroke-linejoin: miter"/>
   </g>
   <g id="patch_66">
    <path d="M 183.870072 385.478125 
L 205.702647 385.478125 
L 205.702647 357.350183 
L 183.870072 357.350183 
z
" clip-path="url(#pd12b16bce7)" style="fill: #008000; opacity: 0.3; stroke: #000000; stroke-linejoin: miter"/>
   </g>
   <g id="patch_67">
    <path d="M 205.702647 385.478125 
L 227.535222 385.478125 
L 227.535222 340.750086 
L 205.702647 340.750086 
z
" clip-path="url(#pd12b16bce7)" style="fill: #008000; opacity: 0.3; stroke: #000000; stroke-linejoin: miter"/>
   </g>
   <g id="patch_68">
    <path d="M 227.535222 385.478125 
L 249.367797 385.478125 
L 249.367797 311.699917 
L 227.535222 311.699917 
z
" clip-path="url(#pd12b16bce7)" style="fill: #008000; opacity: 0.3; stroke: #000000; stroke-linejoin: miter"/>
   </g>
   <g id="patch_69">
    <path d="M 249.367797 385.478125 
L 271.200372 385.478125 
L 271.200372 290.949795 
L 249.367797 290.949795 
z
" clip-path="url(#pd12b16bce7)" style="fill: #008000; opacity: 0.3; stroke: #000000; stroke-linejoin: miter"/>
   </g>
   <g id="patch_70">
    <path d="M 271.200372 385.478125 
L 293.032947 385.478125 
L 293.032947 239.766163 
L 271.200372 239.766163 
z
" clip-path="url(#pd12b16bce7)" style="fill: #008000; opacity: 0.3; stroke: #000000; stroke-linejoin: miter"/>
   </g>
   <g id="patch_71">
    <path d="M 293.032947 385.478125 
L 314.865523 385.478125 
L 314.865523 191.810328 
L 293.032947 191.810328 
z
" clip-path="url(#pd12b16bce7)" style="fill: #008000; opacity: 0.3; stroke: #000000; stroke-linejoin: miter"/>
   </g>
   <g id="patch_72">
    <path d="M 314.865523 385.478125 
L 336.698098 385.478125 
L 336.698098 174.749117 
L 314.865523 174.749117 
z
" clip-path="url(#pd12b16bce7)" style="fill: #008000; opacity: 0.3; stroke: #000000; stroke-linejoin: miter"/>
   </g>
   <g id="patch_73">
    <path d="M 336.698098 385.478125 
L 358.530673 385.478125 
L 358.530673 132.787761 
L 336.698098 132.787761 
z
" clip-path="url(#pd12b16bce7)" style="fill: #008000; opacity: 0.3; stroke: #000000; stroke-linejoin: miter"/>
   </g>
   <g id="patch_74">
    <path d="M 358.530673 385.478125 
L 380.363248 385.478125 
L 380.363248 104.198705 
L 358.530673 104.198705 
z
" clip-path="url(#pd12b16bce7)" style="fill: #008000; opacity: 0.3; stroke: #000000; stroke-linejoin: miter"/>
   </g>
   <g id="patch_75">
    <path d="M 380.363248 385.478125 
L 402.195823 385.478125 
L 402.195823 96.359771 
L 380.363248 96.359771 
z
" clip-path="url(#pd12b16bce7)" style="fill: #008000; opacity: 0.3; stroke: #000000; stroke-linejoin: miter"/>
   </g>
   <g id="patch_76">
    <path d="M 402.195823 385.478125 
L 424.028398 385.478125 
L 424.028398 68.692943 
L 402.195823 68.692943 
z
" clip-path="url(#pd12b16bce7)" style="fill: #008000; opacity: 0.3; stroke: #000000; stroke-linejoin: miter"/>
   </g>
   <g id="patch_77">
    <path d="M 424.028398 385.478125 
L 445.860973 385.478125 
L 445.860973 57.626211 
L 424.028398 57.626211 
z
" clip-path="url(#pd12b16bce7)" style="fill: #008000; opacity: 0.3; stroke: #000000; stroke-linejoin: miter"/>
   </g>
   <g id="patch_78">
    <path d="M 445.860973 385.478125 
L 467.693548 385.478125 
L 467.693548 51.170618 
L 445.860973 51.170618 
z
" clip-path="url(#pd12b16bce7)" style="fill: #008000; opacity: 0.3; stroke: #000000; stroke-linejoin: miter"/>
   </g>
   <g id="patch_79">
    <path d="M 467.693548 385.478125 
L 489.526123 385.478125 
L 489.526123 43.331683 
L 467.693548 43.331683 
z
" clip-path="url(#pd12b16bce7)" style="fill: #008000; opacity: 0.3; stroke: #000000; stroke-linejoin: miter"/>
   </g>
   <g id="patch_80">
    <path d="M 489.526123 385.478125 
L 511.358698 385.478125 
L 511.358698 72.381853 
L 489.526123 72.381853 
z
" clip-path="url(#pd12b16bce7)" style="fill: #008000; opacity: 0.3; stroke: #000000; stroke-linejoin: miter"/>
   </g>
   <g id="patch_81">
    <path d="M 511.358698 385.478125 
L 533.191273 385.478125 
L 533.191273 99.587567 
L 511.358698 99.587567 
z
" clip-path="url(#pd12b16bce7)" style="fill: #008000; opacity: 0.3; stroke: #000000; stroke-linejoin: miter"/>
   </g>
   <g id="patch_82">
    <path d="M 533.191273 385.478125 
L 555.023848 385.478125 
L 555.023848 134.171103 
L 533.191273 134.171103 
z
" clip-path="url(#pd12b16bce7)" style="fill: #008000; opacity: 0.3; stroke: #000000; stroke-linejoin: miter"/>
   </g>
   <g id="patch_83">
    <path d="M 555.023848 385.478125 
L 576.856423 385.478125 
L 576.856423 163.682386 
L 555.023848 163.682386 
z
" clip-path="url(#pd12b16bce7)" style="fill: #008000; opacity: 0.3; stroke: #000000; stroke-linejoin: miter"/>
   </g>
   <g id="patch_84">
    <path d="M 576.856423 385.478125 
L 598.688998 385.478125 
L 598.688998 228.699432 
L 576.856423 228.699432 
z
" clip-path="url(#pd12b16bce7)" style="fill: #008000; opacity: 0.3; stroke: #000000; stroke-linejoin: miter"/>
   </g>
   <g id="patch_85">
    <path d="M 598.688998 385.478125 
L 620.521573 385.478125 
L 620.521573 242.99396 
L 598.688998 242.99396 
z
" clip-path="url(#pd12b16bce7)" style="fill: #008000; opacity: 0.3; stroke: #000000; stroke-linejoin: miter"/>
   </g>
   <g id="patch_86">
    <path d="M 620.521573 385.478125 
L 642.354148 385.478125 
L 642.354148 275.271926 
L 620.521573 275.271926 
z
" clip-path="url(#pd12b16bce7)" style="fill: #008000; opacity: 0.3; stroke: #000000; stroke-linejoin: miter"/>
   </g>
   <g id="patch_87">
    <path d="M 642.354148 385.478125 
L 664.186723 385.478125 
L 664.186723 312.622144 
L 642.354148 312.622144 
z
" clip-path="url(#pd12b16bce7)" style="fill: #008000; opacity: 0.3; stroke: #000000; stroke-linejoin: miter"/>
   </g>
   <g id="patch_88">
    <path d="M 664.186723 385.478125 
L 686.019298 385.478125 
L 686.019298 338.905631 
L 664.186723 338.905631 
z
" clip-path="url(#pd12b16bce7)" style="fill: #008000; opacity: 0.3; stroke: #000000; stroke-linejoin: miter"/>
   </g>
   <g id="patch_89">
    <path d="M 686.019298 385.478125 
L 707.851874 385.478125 
L 707.851874 356.427955 
L 686.019298 356.427955 
z
" clip-path="url(#pd12b16bce7)" style="fill: #008000; opacity: 0.3; stroke: #000000; stroke-linejoin: miter"/>
   </g>
   <g id="patch_90">
    <path d="M 707.851874 385.478125 
L 729.684449 385.478125 
L 729.684449 367.955801 
L 707.851874 367.955801 
z
" clip-path="url(#pd12b16bce7)" style="fill: #008000; opacity: 0.3; stroke: #000000; stroke-linejoin: miter"/>
   </g>
   <g id="patch_91">
    <path d="M 729.684449 385.478125 
L 751.517024 385.478125 
L 751.517024 380.866987 
L 729.684449 380.866987 
z
" clip-path="url(#pd12b16bce7)" style="fill: #008000; opacity: 0.3; stroke: #000000; stroke-linejoin: miter"/>
   </g>
   <g id="patch_92">
    <path d="M 751.517024 385.478125 
L 773.349599 385.478125 
L 773.349599 381.328101 
L 751.517024 381.328101 
z
" clip-path="url(#pd12b16bce7)" style="fill: #008000; opacity: 0.3; stroke: #000000; stroke-linejoin: miter"/>
   </g>
   <g id="matplotlib.axis_1">
    <g id="xtick_1">
     <g id="line2d_1">
      <path d="M 80.393977 385.478125 
L 80.393977 22.318125 
" clip-path="url(#pd12b16bce7)" style="fill: none; stroke: #b0b0b0; stroke-opacity: 0.3; stroke-width: 0.8; stroke-linecap: square"/>
     </g>
     <g id="line2d_2">
      <defs>
       <path id="mdebafae718" d="M 0 0 
L 0 3.5 
" style="stroke: #000000; stroke-width: 0.8"/>
      </defs>
      <g>
       <use xlink:href="#mdebafae718" x="80.393977" y="385.478125" style="stroke: #000000; stroke-width: 0.8"/>
      </g>
     </g>
     <g id="text_1">
      <!-- 0.0 -->
      <g transform="translate(72.442415 400.076562) scale(0.1 -0.1)">
       <defs>
        <path id="DejaVuSans-30" d="M 2034 4250 
Q 1547 4250 1301 3770 
Q 1056 3291 1056 2328 
Q 1056 1369 1301 889 
Q 1547 409 2034 409 
Q 2525 409 2770 889 
Q 3016 1369 3016 2328 
Q 3016 3291 2770 3770 
Q 2525 4250 2034 4250 
z
M 2034 4750 
Q 2819 4750 3233 4129 
Q 3647 3509 3647 2328 
Q 3647 1150 3233 529 
Q 2819 -91 2034 -91 
Q 1250 -91 836 529 
Q 422 1150 422 2328 
Q 422 3509 836 4129 
Q 1250 4750 2034 4750 
z
" transform="scale(0.015625)"/>
        <path id="DejaVuSans-2e" d="M 684 794 
L 1344 794 
L 1344 0 
L 684 0 
L 684 794 
z
" transform="scale(0.015625)"/>
       </defs>
       <use xlink:href="#DejaVuSans-30"/>
       <use xlink:href="#DejaVuSans-2e" x="63.623047"/>
       <use xlink:href="#DejaVuSans-30" x="95.410156"/>
      </g>
     </g>
    </g>
    <g id="xtick_2">
     <g id="line2d_3">
      <path d="M 226.844886 385.478125 
L 226.844886 22.318125 
" clip-path="url(#pd12b16bce7)" style="fill: none; stroke: #b0b0b0; stroke-opacity: 0.3; stroke-width: 0.8; stroke-linecap: square"/>
     </g>
     <g id="line2d_4">
      <g>
       <use xlink:href="#mdebafae718" x="226.844886" y="385.478125" style="stroke: #000000; stroke-width: 0.8"/>
      </g>
     </g>
     <g id="text_2">
      <!-- 0.2 -->
      <g transform="translate(218.893324 400.076562) scale(0.1 -0.1)">
       <defs>
        <path id="DejaVuSans-32" d="M 1228 531 
L 3431 531 
L 3431 0 
L 469 0 
L 469 531 
Q 828 903 1448 1529 
Q 2069 2156 2228 2338 
Q 2531 2678 2651 2914 
Q 2772 3150 2772 3378 
Q 2772 3750 2511 3984 
Q 2250 4219 1831 4219 
Q 1534 4219 1204 4116 
Q 875 4013 500 3803 
L 500 4441 
Q 881 4594 1212 4672 
Q 1544 4750 1819 4750 
Q 2544 4750 2975 4387 
Q 3406 4025 3406 3419 
Q 3406 3131 3298 2873 
Q 3191 2616 2906 2266 
Q 2828 2175 2409 1742 
Q 1991 1309 1228 531 
z
" transform="scale(0.015625)"/>
       </defs>
       <use xlink:href="#DejaVuSans-30"/>
       <use xlink:href="#DejaVuSans-2e" x="63.623047"/>
       <use xlink:href="#DejaVuSans-32" x="95.410156"/>
      </g>
     </g>
    </g>
    <g id="xtick_3">
     <g id="line2d_5">
      <path d="M 373.295795 385.478125 
L 373.295795 22.318125 
" clip-path="url(#pd12b16bce7)" style="fill: none; stroke: #b0b0b0; stroke-opacity: 0.3; stroke-width: 0.8; stroke-linecap: square"/>
     </g>
     <g id="line2d_6">
      <g>
       <use xlink:href="#mdebafae718" x="373.295795" y="385.478125" style="stroke: #000000; stroke-width: 0.8"/>
      </g>
     </g>
     <g id="text_3">
      <!-- 0.4 -->
      <g transform="translate(365.344233 400.076562) scale(0.1 -0.1)">
       <defs>
        <path id="DejaVuSans-34" d="M 2419 4116 
L 825 1625 
L 2419 1625 
L 2419 4116 
z
M 2253 4666 
L 3047 4666 
L 3047 1625 
L 3713 1625 
L 3713 1100 
L 3047 1100 
L 3047 0 
L 2419 0 
L 2419 1100 
L 313 1100 
L 313 1709 
L 2253 4666 
z
" transform="scale(0.015625)"/>
       </defs>
       <use xlink:href="#DejaVuSans-30"/>
       <use xlink:href="#DejaVuSans-2e" x="63.623047"/>
       <use xlink:href="#DejaVuSans-34" x="95.410156"/>
      </g>
     </g>
    </g>
    <g id="xtick_4">
     <g id="line2d_7">
      <path d="M 519.746705 385.478125 
L 519.746705 22.318125 
" clip-path="url(#pd12b16bce7)" style="fill: none; stroke: #b0b0b0; stroke-opacity: 0.3; stroke-width: 0.8; stroke-linecap: square"/>
     </g>
     <g id="line2d_8">
      <g>
       <use xlink:href="#mdebafae718" x="519.746705" y="385.478125" style="stroke: #000000; stroke-width: 0.8"/>
      </g>
     </g>
     <g id="text_4">
      <!-- 0.6 -->
      <g transform="translate(511.795142 400.076562) scale(0.1 -0.1)">
       <defs>
        <path id="DejaVuSans-36" d="M 2113 2584 
Q 1688 2584 1439 2293 
Q 1191 2003 1191 1497 
Q 1191 994 1439 701 
Q 1688 409 2113 409 
Q 2538 409 2786 701 
Q 3034 994 3034 1497 
Q 3034 2003 2786 2293 
Q 2538 2584 2113 2584 
z
M 3366 4563 
L 3366 3988 
Q 3128 4100 2886 4159 
Q 2644 4219 2406 4219 
Q 1781 4219 1451 3797 
Q 1122 3375 1075 2522 
Q 1259 2794 1537 2939 
Q 1816 3084 2150 3084 
Q 2853 3084 3261 2657 
Q 3669 2231 3669 1497 
Q 3669 778 3244 343 
Q 2819 -91 2113 -91 
Q 1303 -91 875 529 
Q 447 1150 447 2328 
Q 447 3434 972 4092 
Q 1497 4750 2381 4750 
Q 2619 4750 2861 4703 
Q 3103 4656 3366 4563 
z
" transform="scale(0.015625)"/>
       </defs>
       <use xlink:href="#DejaVuSans-30"/>
       <use xlink:href="#DejaVuSans-2e" x="63.623047"/>
       <use xlink:href="#DejaVuSans-36" x="95.410156"/>
      </g>
     </g>
    </g>
    <g id="xtick_5">
     <g id="line2d_9">
      <path d="M 666.197614 385.478125 
L 666.197614 22.318125 
" clip-path="url(#pd12b16bce7)" style="fill: none; stroke: #b0b0b0; stroke-opacity: 0.3; stroke-width: 0.8; stroke-linecap: square"/>
     </g>
     <g id="line2d_10">
      <g>
       <use xlink:href="#mdebafae718" x="666.197614" y="385.478125" style="stroke: #000000; stroke-width: 0.8"/>
      </g>
     </g>
     <g id="text_5">
      <!-- 0.8 -->
      <g transform="translate(658.246051 400.076562) scale(0.1 -0.1)">
       <defs>
        <path id="DejaVuSans-38" d="M 2034 2216 
Q 1584 2216 1326 1975 
Q 1069 1734 1069 1313 
Q 1069 891 1326 650 
Q 1584 409 2034 409 
Q 2484 409 2743 651 
Q 3003 894 3003 1313 
Q 3003 1734 2745 1975 
Q 2488 2216 2034 2216 
z
M 1403 2484 
Q 997 2584 770 2862 
Q 544 3141 544 3541 
Q 544 4100 942 4425 
Q 1341 4750 2034 4750 
Q 2731 4750 3128 4425 
Q 3525 4100 3525 3541 
Q 3525 3141 3298 2862 
Q 3072 2584 2669 2484 
Q 3125 2378 3379 2068 
Q 3634 1759 3634 1313 
Q 3634 634 3220 271 
Q 2806 -91 2034 -91 
Q 1263 -91 848 271 
Q 434 634 434 1313 
Q 434 1759 690 2068 
Q 947 2378 1403 2484 
z
M 1172 3481 
Q 1172 3119 1398 2916 
Q 1625 2713 2034 2713 
Q 2441 2713 2670 2916 
Q 2900 3119 2900 3481 
Q 2900 3844 2670 4047 
Q 2441 4250 2034 4250 
Q 1625 4250 1398 4047 
Q 1172 3844 1172 3481 
z
" transform="scale(0.015625)"/>
       </defs>
       <use xlink:href="#DejaVuSans-30"/>
       <use xlink:href="#DejaVuSans-2e" x="63.623047"/>
       <use xlink:href="#DejaVuSans-38" x="95.410156"/>
      </g>
     </g>
    </g>
    <g id="xtick_6">
     <g id="line2d_11">
      <path d="M 812.648523 385.478125 
L 812.648523 22.318125 
" clip-path="url(#pd12b16bce7)" style="fill: none; stroke: #b0b0b0; stroke-opacity: 0.3; stroke-width: 0.8; stroke-linecap: square"/>
     </g>
     <g id="line2d_12">
      <g>
       <use xlink:href="#mdebafae718" x="812.648523" y="385.478125" style="stroke: #000000; stroke-width: 0.8"/>
      </g>
     </g>
     <g id="text_6">
      <!-- 1.0 -->
      <g transform="translate(804.69696 400.076562) scale(0.1 -0.1)">
       <defs>
        <path id="DejaVuSans-31" d="M 794 531 
L 1825 531 
L 1825 4091 
L 703 3866 
L 703 4441 
L 1819 4666 
L 2450 4666 
L 2450 531 
L 3481 531 
L 3481 0 
L 794 0 
L 794 531 
z
" transform="scale(0.015625)"/>
       </defs>
       <use xlink:href="#DejaVuSans-31"/>
       <use xlink:href="#DejaVuSans-2e" x="63.623047"/>
       <use xlink:href="#DejaVuSans-30" x="95.410156"/>
      </g>
     </g>
    </g>
    <g id="text_7">
     <!-- Value -->
     <g transform="translate(432.79 413.754687) scale(0.1 -0.1)">
      <defs>
       <path id="DejaVuSans-56" d="M 1831 0 
L 50 4666 
L 709 4666 
L 2188 738 
L 3669 4666 
L 4325 4666 
L 2547 0 
L 1831 0 
z
" transform="scale(0.015625)"/>
       <path id="DejaVuSans-61" d="M 2194 1759 
Q 1497 1759 1228 1600 
Q 959 1441 959 1056 
Q 959 750 1161 570 
Q 1363 391 1709 391 
Q 2188 391 2477 730 
Q 2766 1069 2766 1631 
L 2766 1759 
L 2194 1759 
z
M 3341 1997 
L 3341 0 
L 2766 0 
L 2766 531 
Q 2569 213 2275 61 
Q 1981 -91 1556 -91 
Q 1019 -91 701 211 
Q 384 513 384 1019 
Q 384 1609 779 1909 
Q 1175 2209 1959 2209 
L 2766 2209 
L 2766 2266 
Q 2766 2663 2505 2880 
Q 2244 3097 1772 3097 
Q 1472 3097 1187 3025 
Q 903 2953 641 2809 
L 641 3341 
Q 956 3463 1253 3523 
Q 1550 3584 1831 3584 
Q 2591 3584 2966 3190 
Q 3341 2797 3341 1997 
z
" transform="scale(0.015625)"/>
       <path id="DejaVuSans-6c" d="M 603 4863 
L 1178 4863 
L 1178 0 
L 603 0 
L 603 4863 
z
" transform="scale(0.015625)"/>
       <path id="DejaVuSans-75" d="M 544 1381 
L 544 3500 
L 1119 3500 
L 1119 1403 
Q 1119 906 1312 657 
Q 1506 409 1894 409 
Q 2359 409 2629 706 
Q 2900 1003 2900 1516 
L 2900 3500 
L 3475 3500 
L 3475 0 
L 2900 0 
L 2900 538 
Q 2691 219 2414 64 
Q 2138 -91 1772 -91 
Q 1169 -91 856 284 
Q 544 659 544 1381 
z
M 1991 3584 
L 1991 3584 
z
" transform="scale(0.015625)"/>
       <path id="DejaVuSans-65" d="M 3597 1894 
L 3597 1613 
L 953 1613 
Q 991 1019 1311 708 
Q 1631 397 2203 397 
Q 2534 397 2845 478 
Q 3156 559 3463 722 
L 3463 178 
Q 3153 47 2828 -22 
Q 2503 -91 2169 -91 
Q 1331 -91 842 396 
Q 353 884 353 1716 
Q 353 2575 817 3079 
Q 1281 3584 2069 3584 
Q 2775 3584 3186 3129 
Q 3597 2675 3597 1894 
z
M 3022 2063 
Q 3016 2534 2758 2815 
Q 2500 3097 2075 3097 
Q 1594 3097 1305 2825 
Q 1016 2553 972 2059 
L 3022 2063 
z
" transform="scale(0.015625)"/>
      </defs>
      <use xlink:href="#DejaVuSans-56"/>
      <use xlink:href="#DejaVuSans-61" x="60.658203"/>
      <use xlink:href="#DejaVuSans-6c" x="121.9375"/>
      <use xlink:href="#DejaVuSans-75" x="149.720703"/>
      <use xlink:href="#DejaVuSans-65" x="213.099609"/>
     </g>
    </g>
   </g>
   <g id="matplotlib.axis_2">
    <g id="ytick_1">
     <g id="line2d_13">
      <path d="M 43.78125 385.478125 
L 849.26125 385.478125 
" clip-path="url(#pd12b16bce7)" style="fill: none; stroke: #b0b0b0; stroke-opacity: 0.3; stroke-width: 0.8; stroke-linecap: square"/>
     </g>
     <g id="line2d_14">
      <defs>
       <path id="mb5991b7ad7" d="M 0 0 
L -3.5 0 
" style="stroke: #000000; stroke-width: 0.8"/>
      </defs>
      <g>
       <use xlink:href="#mb5991b7ad7" x="43.78125" y="385.478125" style="stroke: #000000; stroke-width: 0.8"/>
      </g>
     </g>
     <g id="text_8">
      <!-- 0.0 -->
      <g transform="translate(20.878125 389.277344) scale(0.1 -0.1)">
       <use xlink:href="#DejaVuSans-30"/>
       <use xlink:href="#DejaVuSans-2e" x="63.623047"/>
       <use xlink:href="#DejaVuSans-30" x="95.410156"/>
      </g>
     </g>
    </g>
    <g id="ytick_2">
     <g id="line2d_15">
      <path d="M 43.78125 316.736307 
L 849.26125 316.736307 
" clip-path="url(#pd12b16bce7)" style="fill: none; stroke: #b0b0b0; stroke-opacity: 0.3; stroke-width: 0.8; stroke-linecap: square"/>
     </g>
     <g id="line2d_16">
      <g>
       <use xlink:href="#mb5991b7ad7" x="43.78125" y="316.736307" style="stroke: #000000; stroke-width: 0.8"/>
      </g>
     </g>
     <g id="text_9">
      <!-- 0.5 -->
      <g transform="translate(20.878125 320.535526) scale(0.1 -0.1)">
       <defs>
        <path id="DejaVuSans-35" d="M 691 4666 
L 3169 4666 
L 3169 4134 
L 1269 4134 
L 1269 2991 
Q 1406 3038 1543 3061 
Q 1681 3084 1819 3084 
Q 2600 3084 3056 2656 
Q 3513 2228 3513 1497 
Q 3513 744 3044 326 
Q 2575 -91 1722 -91 
Q 1428 -91 1123 -41 
Q 819 9 494 109 
L 494 744 
Q 775 591 1075 516 
Q 1375 441 1709 441 
Q 2250 441 2565 725 
Q 2881 1009 2881 1497 
Q 2881 1984 2565 2268 
Q 2250 2553 1709 2553 
Q 1456 2553 1204 2497 
Q 953 2441 691 2322 
L 691 4666 
z
" transform="scale(0.015625)"/>
       </defs>
       <use xlink:href="#DejaVuSans-30"/>
       <use xlink:href="#DejaVuSans-2e" x="63.623047"/>
       <use xlink:href="#DejaVuSans-35" x="95.410156"/>
      </g>
     </g>
    </g>
    <g id="ytick_3">
     <g id="line2d_17">
      <path d="M 43.78125 247.994489 
L 849.26125 247.994489 
" clip-path="url(#pd12b16bce7)" style="fill: none; stroke: #b0b0b0; stroke-opacity: 0.3; stroke-width: 0.8; stroke-linecap: square"/>
     </g>
     <g id="line2d_18">
      <g>
       <use xlink:href="#mb5991b7ad7" x="43.78125" y="247.994489" style="stroke: #000000; stroke-width: 0.8"/>
      </g>
     </g>
     <g id="text_10">
      <!-- 1.0 -->
      <g transform="translate(20.878125 251.793708) scale(0.1 -0.1)">
       <use xlink:href="#DejaVuSans-31"/>
       <use xlink:href="#DejaVuSans-2e" x="63.623047"/>
       <use xlink:href="#DejaVuSans-30" x="95.410156"/>
      </g>
     </g>
    </g>
    <g id="ytick_4">
     <g id="line2d_19">
      <path d="M 43.78125 179.252672 
L 849.26125 179.252672 
" clip-path="url(#pd12b16bce7)" style="fill: none; stroke: #b0b0b0; stroke-opacity: 0.3; stroke-width: 0.8; stroke-linecap: square"/>
     </g>
     <g id="line2d_20">
      <g>
       <use xlink:href="#mb5991b7ad7" x="43.78125" y="179.252672" style="stroke: #000000; stroke-width: 0.8"/>
      </g>
     </g>
     <g id="text_11">
      <!-- 1.5 -->
      <g transform="translate(20.878125 183.05189) scale(0.1 -0.1)">
       <use xlink:href="#DejaVuSans-31"/>
       <use xlink:href="#DejaVuSans-2e" x="63.623047"/>
       <use xlink:href="#DejaVuSans-35" x="95.410156"/>
      </g>
     </g>
    </g>
    <g id="ytick_5">
     <g id="line2d_21">
      <path d="M 43.78125 110.510854 
L 849.26125 110.510854 
" clip-path="url(#pd12b16bce7)" style="fill: none; stroke: #b0b0b0; stroke-opacity: 0.3; stroke-width: 0.8; stroke-linecap: square"/>
     </g>
     <g id="line2d_22">
      <g>
       <use xlink:href="#mb5991b7ad7" x="43.78125" y="110.510854" style="stroke: #000000; stroke-width: 0.8"/>
      </g>
     </g>
     <g id="text_12">
      <!-- 2.0 -->
      <g transform="translate(20.878125 114.310073) scale(0.1 -0.1)">
       <use xlink:href="#DejaVuSans-32"/>
       <use xlink:href="#DejaVuSans-2e" x="63.623047"/>
       <use xlink:href="#DejaVuSans-30" x="95.410156"/>
      </g>
     </g>
    </g>
    <g id="ytick_6">
     <g id="line2d_23">
      <path d="M 43.78125 41.769036 
L 849.26125 41.769036 
" clip-path="url(#pd12b16bce7)" style="fill: none; stroke: #b0b0b0; stroke-opacity: 0.3; stroke-width: 0.8; stroke-linecap: square"/>
     </g>
     <g id="line2d_24">
      <g>
       <use xlink:href="#mb5991b7ad7" x="43.78125" y="41.769036" style="stroke: #000000; stroke-width: 0.8"/>
      </g>
     </g>
     <g id="text_13">
      <!-- 2.5 -->
      <g transform="translate(20.878125 45.568255) scale(0.1 -0.1)">
       <use xlink:href="#DejaVuSans-32"/>
       <use xlink:href="#DejaVuSans-2e" x="63.623047"/>
       <use xlink:href="#DejaVuSans-35" x="95.410156"/>
      </g>
     </g>
    </g>
    <g id="text_14">
     <!-- Density -->
     <g transform="translate(14.798438 222.906719) rotate(-90) scale(0.1 -0.1)">
      <defs>
       <path id="DejaVuSans-44" d="M 1259 4147 
L 1259 519 
L 2022 519 
Q 2988 519 3436 956 
Q 3884 1394 3884 2338 
Q 3884 3275 3436 3711 
Q 2988 4147 2022 4147 
L 1259 4147 
z
M 628 4666 
L 1925 4666 
Q 3281 4666 3915 4102 
Q 4550 3538 4550 2338 
Q 4550 1131 3912 565 
Q 3275 0 1925 0 
L 628 0 
L 628 4666 
z
" transform="scale(0.015625)"/>
       <path id="DejaVuSans-6e" d="M 3513 2113 
L 3513 0 
L 2938 0 
L 2938 2094 
Q 2938 2591 2744 2837 
Q 2550 3084 2163 3084 
Q 1697 3084 1428 2787 
Q 1159 2491 1159 1978 
L 1159 0 
L 581 0 
L 581 3500 
L 1159 3500 
L 1159 2956 
Q 1366 3272 1645 3428 
Q 1925 3584 2291 3584 
Q 2894 3584 3203 3211 
Q 3513 2838 3513 2113 
z
" transform="scale(0.015625)"/>
       <path id="DejaVuSans-73" d="M 2834 3397 
L 2834 2853 
Q 2591 2978 2328 3040 
Q 2066 3103 1784 3103 
Q 1356 3103 1142 2972 
Q 928 2841 928 2578 
Q 928 2378 1081 2264 
Q 1234 2150 1697 2047 
L 1894 2003 
Q 2506 1872 2764 1633 
Q 3022 1394 3022 966 
Q 3022 478 2636 193 
Q 2250 -91 1575 -91 
Q 1294 -91 989 -36 
Q 684 19 347 128 
L 347 722 
Q 666 556 975 473 
Q 1284 391 1588 391 
Q 1994 391 2212 530 
Q 2431 669 2431 922 
Q 2431 1156 2273 1281 
Q 2116 1406 1581 1522 
L 1381 1569 
Q 847 1681 609 1914 
Q 372 2147 372 2553 
Q 372 3047 722 3315 
Q 1072 3584 1716 3584 
Q 2034 3584 2315 3537 
Q 2597 3491 2834 3397 
z
" transform="scale(0.015625)"/>
       <path id="DejaVuSans-69" d="M 603 3500 
L 1178 3500 
L 1178 0 
L 603 0 
L 603 3500 
z
M 603 4863 
L 1178 4863 
L 1178 4134 
L 603 4134 
L 603 4863 
z
" transform="scale(0.015625)"/>
       <path id="DejaVuSans-74" d="M 1172 4494 
L 1172 3500 
L 2356 3500 
L 2356 3053 
L 1172 3053 
L 1172 1153 
Q 1172 725 1289 603 
Q 1406 481 1766 481 
L 2356 481 
L 2356 0 
L 1766 0 
Q 1100 0 847 248 
Q 594 497 594 1153 
L 594 3053 
L 172 3053 
L 172 3500 
L 594 3500 
L 594 4494 
L 1172 4494 
z
" transform="scale(0.015625)"/>
       <path id="DejaVuSans-79" d="M 2059 -325 
Q 1816 -950 1584 -1140 
Q 1353 -1331 966 -1331 
L 506 -1331 
L 506 -850 
L 844 -850 
Q 1081 -850 1212 -737 
Q 1344 -625 1503 -206 
L 1606 56 
L 191 3500 
L 800 3500 
L 1894 763 
L 2988 3500 
L 3597 3500 
L 2059 -325 
z
" transform="scale(0.015625)"/>
      </defs>
      <use xlink:href="#DejaVuSans-44"/>
      <use xlink:href="#DejaVuSans-65" x="77.001953"/>
      <use xlink:href="#DejaVuSans-6e" x="138.525391"/>
      <use xlink:href="#DejaVuSans-73" x="201.904297"/>
      <use xlink:href="#DejaVuSans-69" x="254.003906"/>
      <use xlink:href="#DejaVuSans-74" x="281.787109"/>
      <use xlink:href="#DejaVuSans-79" x="320.996094"/>
     </g>
    </g>
   </g>
   <g id="line2d_25">
    <path d="M 80.393977 351.76205 
L 82.59294 346.523796 
L 84.791902 340.821057 
L 87.723853 332.518267 
L 90.655803 323.464979 
L 93.587753 313.735252 
L 97.252691 300.766928 
L 101.650616 284.31547 
L 109.713479 252.988524 
L 116.310366 227.729409 
L 120.708292 211.686044 
L 125.106217 196.53713 
L 128.771154 184.681918 
L 132.436092 173.552782 
L 136.10103 163.143633 
L 139.765967 153.428398 
L 143.430905 144.369885 
L 147.095843 135.927027 
L 150.76078 128.060206 
L 154.425718 120.734662 
L 158.090656 113.921914 
L 161.755593 107.599104 
L 165.420531 101.746282 
L 169.085469 96.342134 
L 172.750406 91.359343 
L 176.415344 86.761274 
L 180.080282 82.501654 
L 184.478207 77.763213 
L 188.876132 73.350441 
L 194.007045 68.533496 
L 199.137958 64.053145 
L 203.535883 60.526349 
L 207.20082 57.865974 
L 210.865758 55.514492 
L 213.797708 53.889279 
L 216.729658 52.514929 
L 219.661609 51.407651 
L 222.593559 50.578168 
L 225.525509 50.031806 
L 228.457459 49.768738 
L 231.389409 49.784112 
L 234.321359 50.06792 
L 237.253309 50.604693 
L 240.185259 51.373287 
L 243.11721 52.347113 
L 246.782147 53.805505 
L 251.180072 55.823184 
L 257.043973 58.801592 
L 263.640861 62.391077 
L 269.504761 65.820681 
L 273.902686 68.632664 
L 278.300611 71.723383 
L 282.698536 75.118003 
L 287.829449 79.411043 
L 303.955175 93.228666 
L 308.3531 96.559385 
L 313.484013 100.125912 
L 329.609738 110.954572 
L 333.274676 113.846175 
L 336.939614 117.034726 
L 340.604551 120.540973 
L 344.269489 124.360841 
L 347.934427 128.471769 
L 352.332352 133.742976 
L 357.463265 140.284727 
L 363.327165 148.182353 
L 369.924053 157.492004 
L 378.719903 170.350499 
L 391.180691 188.571493 
L 399.243554 199.925851 
L 407.306417 210.887479 
L 415.36928 221.501159 
L 422.699155 230.798509 
L 428.563055 237.915056 
L 434.426956 244.671471 
L 439.557868 250.239466 
L 444.688781 255.459489 
L 449.819694 260.337755 
L 455.683594 265.564081 
L 465.212432 273.661615 
L 474.008282 281.259485 
L 481.338158 287.907356 
L 490.134008 296.223778 
L 500.395834 306.259219 
L 523.118447 328.737214 
L 527.516372 332.671409 
L 531.914298 336.293554 
L 535.579235 339.035584 
L 539.244173 341.509384 
L 542.909111 343.715107 
L 546.574048 345.668309 
L 550.971973 347.720895 
L 555.369899 349.522347 
L 561.233799 351.670934 
L 583.956412 359.497137 
L 594.951225 363.164585 
L 605.946038 366.560327 
L 627.202677 372.86155 
L 633.799565 374.570201 
L 639.663465 375.866569 
L 646.260353 377.075895 
L 655.056203 378.42149 
L 691.70558 383.611703 
L 699.768443 384.353864 
L 707.831306 384.861982 
L 716.627156 385.196412 
L 728.354956 385.400551 
L 748.14562 385.474015 
L 812.648523 385.478125 
L 812.648523 385.478125 
" clip-path="url(#pd12b16bce7)" style="fill: none; stroke: #ff0000; stroke-width: 1.5; stroke-linecap: square"/>
   </g>
   <g id="line2d_26">
    <path d="M 80.393977 385.478025 
L 128.038167 385.366657 
L 147.82883 385.062713 
L 194.007045 384.051014 
L 201.33692 383.53509 
L 208.666796 382.776293 
L 216.729658 381.692073 
L 226.991484 380.057189 
L 253.379035 375.513166 
L 261.441898 373.937947 
L 267.305798 372.563011 
L 272.436711 371.125872 
L 277.567624 369.431475 
L 282.698536 367.475522 
L 288.562437 364.966742 
L 298.824262 360.240401 
L 305.42115 357.325658 
L 310.552063 355.286928 
L 315.682975 353.487288 
L 322.279863 351.437296 
L 330.342726 348.903835 
L 334.740651 347.251209 
L 338.405589 345.618923 
L 342.070527 343.708353 
L 345.735464 341.503913 
L 349.400402 339.018017 
L 353.798327 335.716595 
L 358.92924 331.547322 
L 368.458078 323.42446 
L 378.719903 314.792515 
L 386.782766 308.29619 
L 394.112641 302.67595 
L 400.709529 297.91524 
L 407.306417 293.432153 
L 419.767205 285.040396 
L 424.16513 281.749654 
L 427.830068 278.745732 
L 431.495006 275.457638 
L 435.159943 271.865689 
L 438.824881 267.975315 
L 443.222806 262.954902 
L 448.353719 256.720291 
L 456.416582 246.47695 
L 467.411395 232.540111 
L 473.275295 225.473974 
L 478.406208 219.664372 
L 482.804133 215.043471 
L 486.469071 211.480272 
L 490.134008 208.183848 
L 494.531933 204.546317 
L 499.662846 200.614516 
L 508.458697 193.949127 
L 512.123634 190.909265 
L 515.788572 187.576205 
L 519.45351 183.887551 
L 523.118447 179.813954 
L 526.783385 175.361119 
L 530.448323 170.567695 
L 534.846248 164.460423 
L 542.176123 153.817426 
L 550.238986 142.20363 
L 555.369899 135.199002 
L 560.500811 128.598158 
L 565.631724 122.373708 
L 572.228612 114.740382 
L 584.6894 100.379299 
L 592.019275 91.513512 
L 609.610976 69.976742 
L 614.008901 65.03559 
L 617.673839 61.220974 
L 621.338777 57.763358 
L 624.270727 55.307423 
L 627.202677 53.168759 
L 629.401639 51.792586 
L 631.600602 50.622855 
L 633.799565 49.664828 
L 635.998527 48.918318 
L 638.19749 48.376986 
L 640.396452 48.028016 
L 643.328403 47.827979 
L 646.260353 47.874473 
L 649.92529 48.166884 
L 660.920103 49.250145 
L 666.051016 49.410924 
L 674.113879 49.563962 
L 677.045829 49.83998 
L 679.977779 50.366661 
L 682.176742 50.969524 
L 684.375704 51.775796 
L 686.574667 52.799182 
L 688.77363 54.044265 
L 690.972592 55.50657 
L 693.904542 57.771236 
L 696.836493 60.350866 
L 700.50143 63.926156 
L 704.899355 68.573831 
L 710.763256 75.132907 
L 716.627156 82.029033 
L 721.025081 87.543046 
L 724.690019 92.492615 
L 728.354956 97.876326 
L 731.286907 102.559556 
L 734.218857 107.61942 
L 737.150807 113.084003 
L 740.082757 118.971328 
L 743.014707 125.290507 
L 746.679645 133.79877 
L 750.344582 142.974274 
L 754.00952 152.795037 
L 757.674458 163.228098 
L 762.072383 176.494835 
L 766.470308 190.491303 
L 771.601221 207.609868 
L 777.465121 228.015036 
L 784.794996 254.397586 
L 797.255785 299.387034 
L 801.65371 314.36312 
L 805.318647 326.069498 
L 808.250598 334.781406 
L 811.182548 342.814617 
L 812.648523 346.553877 
L 812.648523 346.553877 
" clip-path="url(#pd12b16bce7)" style="fill: none; stroke: #0000ff; stroke-width: 1.5; stroke-linecap: square"/>
   </g>
   <g id="line2d_27">
    <path d="M 80.393977 385.442052 
L 95.786715 385.262747 
L 106.781528 384.916589 
L 115.577379 384.424936 
L 122.907254 383.81147 
L 129.504142 383.052953 
L 136.10103 382.058171 
L 141.96493 380.951986 
L 147.82883 379.62297 
L 153.692731 378.0564 
L 158.823643 376.469846 
L 163.954556 374.651787 
L 168.352481 372.882344 
L 172.750406 370.895532 
L 177.148332 368.67586 
L 181.546257 366.215862 
L 185.944182 363.515081 
L 190.342107 360.576144 
L 194.740032 357.399975 
L 199.137958 353.9828 
L 203.535883 350.316749 
L 207.933808 346.393887 
L 213.064721 341.489585 
L 218.195633 336.243899 
L 223.326546 330.684013 
L 229.190446 323.98849 
L 235.054347 316.967206 
L 240.918247 309.631648 
L 246.782147 301.951742 
L 251.91306 294.889323 
L 257.043973 287.425611 
L 261.441898 280.641494 
L 265.839823 273.449902 
L 270.237748 265.82572 
L 274.635674 257.777143 
L 279.766586 247.916056 
L 286.363474 234.72401 
L 297.358287 212.704421 
L 301.756212 204.380148 
L 306.154137 196.548548 
L 309.819075 190.444766 
L 313.484013 184.712102 
L 317.881938 178.233614 
L 325.211813 167.929803 
L 331.808701 158.529724 
L 336.939614 150.855389 
L 344.269489 139.435759 
L 350.866377 129.277262 
L 354.531315 123.986283 
L 358.196252 119.114307 
L 361.128202 115.586131 
L 364.060153 112.420387 
L 366.992103 109.625275 
L 369.924053 107.184949 
L 372.856003 105.059237 
L 376.520941 102.746895 
L 381.651853 99.852142 
L 386.782766 96.879625 
L 389.714716 94.951345 
L 392.646666 92.76425 
L 395.578616 90.276369 
L 398.510567 87.479503 
L 401.442517 84.402169 
L 405.840442 79.409741 
L 413.170317 70.981101 
L 416.102267 67.931893 
L 419.034218 65.233405 
L 421.23318 63.485999 
L 423.432143 61.996055 
L 425.631105 60.767499 
L 427.830068 59.790693 
L 430.029031 59.043333 
L 432.227993 58.492271 
L 435.159943 57.99054 
L 439.557868 57.510681 
L 444.688781 56.937242 
L 448.353719 56.299874 
L 452.018656 55.403844 
L 456.416582 54.046269 
L 463.746457 51.713194 
L 466.678407 51.038429 
L 468.87737 50.723617 
L 471.076332 50.614736 
L 473.275295 50.743206 
L 475.474258 51.133154 
L 477.67322 51.800555 
L 479.872183 52.752824 
L 482.071145 53.98885 
L 484.270108 55.499439 
L 486.469071 57.268142 
L 489.401021 59.988229 
L 492.332971 63.060799 
L 495.997908 67.284531 
L 500.395834 72.724929 
L 509.191684 84.073258 
L 524.584422 104.200117 
L 530.448323 112.316607 
L 535.579235 119.837312 
L 539.97716 126.649868 
L 544.375086 133.824563 
L 548.773011 141.372526 
L 553.903924 150.65233 
L 559.034836 160.415817 
L 565.631724 173.522594 
L 577.359525 196.955639 
L 581.75745 205.197245 
L 585.422388 211.667965 
L 589.087325 217.751262 
L 593.48525 224.578181 
L 598.616163 232.043399 
L 606.679026 243.261674 
L 616.207864 256.600567 
L 626.469689 271.405094 
L 639.663465 290.40506 
L 646.99334 300.545552 
L 653.590228 309.305685 
L 660.187116 317.721047 
L 666.784004 325.794022 
L 672.647904 332.629052 
L 677.778817 338.26356 
L 682.176742 342.771242 
L 686.574667 346.937416 
L 690.239605 350.132441 
L 693.904542 353.076694 
L 698.302468 356.298729 
L 702.700393 359.221827 
L 707.831306 362.326206 
L 713.695206 365.574917 
L 720.292094 368.957191 
L 726.888981 372.085401 
L 732.752882 374.604311 
L 737.883794 376.54473 
L 742.28172 377.979444 
L 746.679645 379.195604 
L 751.810557 380.358396 
L 756.94147 381.294998 
L 763.538358 382.268288 
L 772.334208 383.326552 
L 781.863046 384.247335 
L 789.925909 384.813702 
L 798.72176 385.19411 
L 808.983585 385.396472 
L 812.648523 385.429328 
L 812.648523 385.429328 
" clip-path="url(#pd12b16bce7)" style="fill: none; stroke: #008000; stroke-width: 1.5; stroke-linecap: square"/>
   </g>
   <g id="patch_93">
    <path d="M 43.78125 385.478125 
L 43.78125 22.318125 
" style="fill: none; stroke: #000000; stroke-width: 0.8; stroke-linejoin: miter; stroke-linecap: square"/>
   </g>
   <g id="patch_94">
    <path d="M 849.26125 385.478125 
L 849.26125 22.318125 
" style="fill: none; stroke: #000000; stroke-width: 0.8; stroke-linejoin: miter; stroke-linecap: square"/>
   </g>
   <g id="patch_95">
    <path d="M 43.78125 385.478125 
L 849.26125 385.478125 
" style="fill: none; stroke: #000000; stroke-width: 0.8; stroke-linejoin: miter; stroke-linecap: square"/>
   </g>
   <g id="patch_96">
    <path d="M 43.78125 22.318125 
L 849.26125 22.318125 
" style="fill: none; stroke: #000000; stroke-width: 0.8; stroke-linejoin: miter; stroke-linecap: square"/>
   </g>
   <g id="text_15">
    <!-- Comparison of Skewed Distributions -->
    <g transform="translate(337.799375 16.318125) scale(0.12 -0.12)">
     <defs>
      <path id="DejaVuSans-43" d="M 4122 4306 
L 4122 3641 
Q 3803 3938 3442 4084 
Q 3081 4231 2675 4231 
Q 1875 4231 1450 3742 
Q 1025 3253 1025 2328 
Q 1025 1406 1450 917 
Q 1875 428 2675 428 
Q 3081 428 3442 575 
Q 3803 722 4122 1019 
L 4122 359 
Q 3791 134 3420 21 
Q 3050 -91 2638 -91 
Q 1578 -91 968 557 
Q 359 1206 359 2328 
Q 359 3453 968 4101 
Q 1578 4750 2638 4750 
Q 3056 4750 3426 4639 
Q 3797 4528 4122 4306 
z
" transform="scale(0.015625)"/>
      <path id="DejaVuSans-6f" d="M 1959 3097 
Q 1497 3097 1228 2736 
Q 959 2375 959 1747 
Q 959 1119 1226 758 
Q 1494 397 1959 397 
Q 2419 397 2687 759 
Q 2956 1122 2956 1747 
Q 2956 2369 2687 2733 
Q 2419 3097 1959 3097 
z
M 1959 3584 
Q 2709 3584 3137 3096 
Q 3566 2609 3566 1747 
Q 3566 888 3137 398 
Q 2709 -91 1959 -91 
Q 1206 -91 779 398 
Q 353 888 353 1747 
Q 353 2609 779 3096 
Q 1206 3584 1959 3584 
z
" transform="scale(0.015625)"/>
      <path id="DejaVuSans-6d" d="M 3328 2828 
Q 3544 3216 3844 3400 
Q 4144 3584 4550 3584 
Q 5097 3584 5394 3201 
Q 5691 2819 5691 2113 
L 5691 0 
L 5113 0 
L 5113 2094 
Q 5113 2597 4934 2840 
Q 4756 3084 4391 3084 
Q 3944 3084 3684 2787 
Q 3425 2491 3425 1978 
L 3425 0 
L 2847 0 
L 2847 2094 
Q 2847 2600 2669 2842 
Q 2491 3084 2119 3084 
Q 1678 3084 1418 2786 
Q 1159 2488 1159 1978 
L 1159 0 
L 581 0 
L 581 3500 
L 1159 3500 
L 1159 2956 
Q 1356 3278 1631 3431 
Q 1906 3584 2284 3584 
Q 2666 3584 2933 3390 
Q 3200 3197 3328 2828 
z
" transform="scale(0.015625)"/>
      <path id="DejaVuSans-70" d="M 1159 525 
L 1159 -1331 
L 581 -1331 
L 581 3500 
L 1159 3500 
L 1159 2969 
Q 1341 3281 1617 3432 
Q 1894 3584 2278 3584 
Q 2916 3584 3314 3078 
Q 3713 2572 3713 1747 
Q 3713 922 3314 415 
Q 2916 -91 2278 -91 
Q 1894 -91 1617 61 
Q 1341 213 1159 525 
z
M 3116 1747 
Q 3116 2381 2855 2742 
Q 2594 3103 2138 3103 
Q 1681 3103 1420 2742 
Q 1159 2381 1159 1747 
Q 1159 1113 1420 752 
Q 1681 391 2138 391 
Q 2594 391 2855 752 
Q 3116 1113 3116 1747 
z
" transform="scale(0.015625)"/>
      <path id="DejaVuSans-72" d="M 2631 2963 
Q 2534 3019 2420 3045 
Q 2306 3072 2169 3072 
Q 1681 3072 1420 2755 
Q 1159 2438 1159 1844 
L 1159 0 
L 581 0 
L 581 3500 
L 1159 3500 
L 1159 2956 
Q 1341 3275 1631 3429 
Q 1922 3584 2338 3584 
Q 2397 3584 2469 3576 
Q 2541 3569 2628 3553 
L 2631 2963 
z
" transform="scale(0.015625)"/>
      <path id="DejaVuSans-20" transform="scale(0.015625)"/>
      <path id="DejaVuSans-66" d="M 2375 4863 
L 2375 4384 
L 1825 4384 
Q 1516 4384 1395 4259 
Q 1275 4134 1275 3809 
L 1275 3500 
L 2222 3500 
L 2222 3053 
L 1275 3053 
L 1275 0 
L 697 0 
L 697 3053 
L 147 3053 
L 147 3500 
L 697 3500 
L 697 3744 
Q 697 4328 969 4595 
Q 1241 4863 1831 4863 
L 2375 4863 
z
" transform="scale(0.015625)"/>
      <path id="DejaVuSans-53" d="M 3425 4513 
L 3425 3897 
Q 3066 4069 2747 4153 
Q 2428 4238 2131 4238 
Q 1616 4238 1336 4038 
Q 1056 3838 1056 3469 
Q 1056 3159 1242 3001 
Q 1428 2844 1947 2747 
L 2328 2669 
Q 3034 2534 3370 2195 
Q 3706 1856 3706 1288 
Q 3706 609 3251 259 
Q 2797 -91 1919 -91 
Q 1588 -91 1214 -16 
Q 841 59 441 206 
L 441 856 
Q 825 641 1194 531 
Q 1563 422 1919 422 
Q 2459 422 2753 634 
Q 3047 847 3047 1241 
Q 3047 1584 2836 1778 
Q 2625 1972 2144 2069 
L 1759 2144 
Q 1053 2284 737 2584 
Q 422 2884 422 3419 
Q 422 4038 858 4394 
Q 1294 4750 2059 4750 
Q 2388 4750 2728 4690 
Q 3069 4631 3425 4513 
z
" transform="scale(0.015625)"/>
      <path id="DejaVuSans-6b" d="M 581 4863 
L 1159 4863 
L 1159 1991 
L 2875 3500 
L 3609 3500 
L 1753 1863 
L 3688 0 
L 2938 0 
L 1159 1709 
L 1159 0 
L 581 0 
L 581 4863 
z
" transform="scale(0.015625)"/>
      <path id="DejaVuSans-77" d="M 269 3500 
L 844 3500 
L 1563 769 
L 2278 3500 
L 2956 3500 
L 3675 769 
L 4391 3500 
L 4966 3500 
L 4050 0 
L 3372 0 
L 2619 2869 
L 1863 0 
L 1184 0 
L 269 3500 
z
" transform="scale(0.015625)"/>
      <path id="DejaVuSans-64" d="M 2906 2969 
L 2906 4863 
L 3481 4863 
L 3481 0 
L 2906 0 
L 2906 525 
Q 2725 213 2448 61 
Q 2172 -91 1784 -91 
Q 1150 -91 751 415 
Q 353 922 353 1747 
Q 353 2572 751 3078 
Q 1150 3584 1784 3584 
Q 2172 3584 2448 3432 
Q 2725 3281 2906 2969 
z
M 947 1747 
Q 947 1113 1208 752 
Q 1469 391 1925 391 
Q 2381 391 2643 752 
Q 2906 1113 2906 1747 
Q 2906 2381 2643 2742 
Q 2381 3103 1925 3103 
Q 1469 3103 1208 2742 
Q 947 2381 947 1747 
z
" transform="scale(0.015625)"/>
      <path id="DejaVuSans-62" d="M 3116 1747 
Q 3116 2381 2855 2742 
Q 2594 3103 2138 3103 
Q 1681 3103 1420 2742 
Q 1159 2381 1159 1747 
Q 1159 1113 1420 752 
Q 1681 391 2138 391 
Q 2594 391 2855 752 
Q 3116 1113 3116 1747 
z
M 1159 2969 
Q 1341 3281 1617 3432 
Q 1894 3584 2278 3584 
Q 2916 3584 3314 3078 
Q 3713 2572 3713 1747 
Q 3713 922 3314 415 
Q 2916 -91 2278 -91 
Q 1894 -91 1617 61 
Q 1341 213 1159 525 
L 1159 0 
L 581 0 
L 581 4863 
L 1159 4863 
L 1159 2969 
z
" transform="scale(0.015625)"/>
     </defs>
     <use xlink:href="#DejaVuSans-43"/>
     <use xlink:href="#DejaVuSans-6f" x="69.824219"/>
     <use xlink:href="#DejaVuSans-6d" x="131.005859"/>
     <use xlink:href="#DejaVuSans-70" x="228.417969"/>
     <use xlink:href="#DejaVuSans-61" x="291.894531"/>
     <use xlink:href="#DejaVuSans-72" x="353.173828"/>
     <use xlink:href="#DejaVuSans-69" x="394.287109"/>
     <use xlink:href="#DejaVuSans-73" x="422.070312"/>
     <use xlink:href="#DejaVuSans-6f" x="474.169922"/>
     <use xlink:href="#DejaVuSans-6e" x="535.351562"/>
     <use xlink:href="#DejaVuSans-20" x="598.730469"/>
     <use xlink:href="#DejaVuSans-6f" x="630.517578"/>
     <use xlink:href="#DejaVuSans-66" x="691.699219"/>
     <use xlink:href="#DejaVuSans-20" x="726.904297"/>
     <use xlink:href="#DejaVuSans-53" x="758.691406"/>
     <use xlink:href="#DejaVuSans-6b" x="822.167969"/>
     <use xlink:href="#DejaVuSans-65" x="876.453125"/>
     <use xlink:href="#DejaVuSans-77" x="937.976562"/>
     <use xlink:href="#DejaVuSans-65" x="1019.763672"/>
     <use xlink:href="#DejaVuSans-64" x="1081.287109"/>
     <use xlink:href="#DejaVuSans-20" x="1144.763672"/>
     <use xlink:href="#DejaVuSans-44" x="1176.550781"/>
     <use xlink:href="#DejaVuSans-69" x="1253.552734"/>
     <use xlink:href="#DejaVuSans-73" x="1281.335938"/>
     <use xlink:href="#DejaVuSans-74" x="1333.435547"/>
     <use xlink:href="#DejaVuSans-72" x="1372.644531"/>
     <use xlink:href="#DejaVuSans-69" x="1413.757812"/>
     <use xlink:href="#DejaVuSans-62" x="1441.541016"/>
     <use xlink:href="#DejaVuSans-75" x="1505.017578"/>
     <use xlink:href="#DejaVuSans-74" x="1568.396484"/>
     <use xlink:href="#DejaVuSans-69" x="1607.605469"/>
     <use xlink:href="#DejaVuSans-6f" x="1635.388672"/>
     <use xlink:href="#DejaVuSans-6e" x="1696.570312"/>
     <use xlink:href="#DejaVuSans-73" x="1759.949219"/>
    </g>
   </g>
   <g id="legend_1">
    <g id="patch_97">
     <path d="M 590.464375 227.415312 
L 842.26125 227.415312 
Q 844.26125 227.415312 844.26125 225.415312 
L 844.26125 182.380937 
Q 844.26125 180.380937 842.26125 180.380937 
L 590.464375 180.380937 
Q 588.464375 180.380937 588.464375 182.380937 
L 588.464375 225.415312 
Q 588.464375 227.415312 590.464375 227.415312 
z
" style="fill: #ffffff; opacity: 0.8; stroke: #cccccc; stroke-linejoin: miter"/>
    </g>
    <g id="line2d_28">
     <path d="M 592.464375 188.479375 
L 602.464375 188.479375 
L 612.464375 188.479375 
" style="fill: none; stroke: #ff0000; stroke-width: 1.5; stroke-linecap: square"/>
    </g>
    <g id="text_16">
     <!-- Positive Skewness (Skewness: 0.56) -->
     <g transform="translate(620.464375 191.979375) scale(0.1 -0.1)">
      <defs>
       <path id="DejaVuSans-50" d="M 1259 4147 
L 1259 2394 
L 2053 2394 
Q 2494 2394 2734 2622 
Q 2975 2850 2975 3272 
Q 2975 3691 2734 3919 
Q 2494 4147 2053 4147 
L 1259 4147 
z
M 628 4666 
L 2053 4666 
Q 2838 4666 3239 4311 
Q 3641 3956 3641 3272 
Q 3641 2581 3239 2228 
Q 2838 1875 2053 1875 
L 1259 1875 
L 1259 0 
L 628 0 
L 628 4666 
z
" transform="scale(0.015625)"/>
       <path id="DejaVuSans-76" d="M 191 3500 
L 800 3500 
L 1894 563 
L 2988 3500 
L 3597 3500 
L 2284 0 
L 1503 0 
L 191 3500 
z
" transform="scale(0.015625)"/>
       <path id="DejaVuSans-28" d="M 1984 4856 
Q 1566 4138 1362 3434 
Q 1159 2731 1159 2009 
Q 1159 1288 1364 580 
Q 1569 -128 1984 -844 
L 1484 -844 
Q 1016 -109 783 600 
Q 550 1309 550 2009 
Q 550 2706 781 3412 
Q 1013 4119 1484 4856 
L 1984 4856 
z
" transform="scale(0.015625)"/>
       <path id="DejaVuSans-3a" d="M 750 794 
L 1409 794 
L 1409 0 
L 750 0 
L 750 794 
z
M 750 3309 
L 1409 3309 
L 1409 2516 
L 750 2516 
L 750 3309 
z
" transform="scale(0.015625)"/>
       <path id="DejaVuSans-29" d="M 513 4856 
L 1013 4856 
Q 1481 4119 1714 3412 
Q 1947 2706 1947 2009 
Q 1947 1309 1714 600 
Q 1481 -109 1013 -844 
L 513 -844 
Q 928 -128 1133 580 
Q 1338 1288 1338 2009 
Q 1338 2731 1133 3434 
Q 928 4138 513 4856 
z
" transform="scale(0.015625)"/>
      </defs>
      <use xlink:href="#DejaVuSans-50"/>
      <use xlink:href="#DejaVuSans-6f" x="56.677734"/>
      <use xlink:href="#DejaVuSans-73" x="117.859375"/>
      <use xlink:href="#DejaVuSans-69" x="169.958984"/>
      <use xlink:href="#DejaVuSans-74" x="197.742188"/>
      <use xlink:href="#DejaVuSans-69" x="236.951172"/>
      <use xlink:href="#DejaVuSans-76" x="264.734375"/>
      <use xlink:href="#DejaVuSans-65" x="323.914062"/>
      <use xlink:href="#DejaVuSans-20" x="385.4375"/>
      <use xlink:href="#DejaVuSans-53" x="417.224609"/>
      <use xlink:href="#DejaVuSans-6b" x="480.701172"/>
      <use xlink:href="#DejaVuSans-65" x="534.986328"/>
      <use xlink:href="#DejaVuSans-77" x="596.509766"/>
      <use xlink:href="#DejaVuSans-6e" x="678.296875"/>
      <use xlink:href="#DejaVuSans-65" x="741.675781"/>
      <use xlink:href="#DejaVuSans-73" x="803.199219"/>
      <use xlink:href="#DejaVuSans-73" x="855.298828"/>
      <use xlink:href="#DejaVuSans-20" x="907.398438"/>
      <use xlink:href="#DejaVuSans-28" x="939.185547"/>
      <use xlink:href="#DejaVuSans-53" x="978.199219"/>
      <use xlink:href="#DejaVuSans-6b" x="1041.675781"/>
      <use xlink:href="#DejaVuSans-65" x="1095.960938"/>
      <use xlink:href="#DejaVuSans-77" x="1157.484375"/>
      <use xlink:href="#DejaVuSans-6e" x="1239.271484"/>
      <use xlink:href="#DejaVuSans-65" x="1302.650391"/>
      <use xlink:href="#DejaVuSans-73" x="1364.173828"/>
      <use xlink:href="#DejaVuSans-73" x="1416.273438"/>
      <use xlink:href="#DejaVuSans-3a" x="1468.373047"/>
      <use xlink:href="#DejaVuSans-20" x="1502.064453"/>
      <use xlink:href="#DejaVuSans-30" x="1533.851562"/>
      <use xlink:href="#DejaVuSans-2e" x="1597.474609"/>
      <use xlink:href="#DejaVuSans-35" x="1629.261719"/>
      <use xlink:href="#DejaVuSans-36" x="1692.884766"/>
      <use xlink:href="#DejaVuSans-29" x="1756.507812"/>
     </g>
    </g>
    <g id="line2d_29">
     <path d="M 592.464375 203.1575 
L 602.464375 203.1575 
L 612.464375 203.1575 
" style="fill: none; stroke: #0000ff; stroke-width: 1.5; stroke-linecap: square"/>
    </g>
    <g id="text_17">
     <!-- Negative Skewness (Skewness: -0.60) -->
     <g transform="translate(620.464375 206.6575) scale(0.1 -0.1)">
      <defs>
       <path id="DejaVuSans-4e" d="M 628 4666 
L 1478 4666 
L 3547 763 
L 3547 4666 
L 4159 4666 
L 4159 0 
L 3309 0 
L 1241 3903 
L 1241 0 
L 628 0 
L 628 4666 
z
" transform="scale(0.015625)"/>
       <path id="DejaVuSans-67" d="M 2906 1791 
Q 2906 2416 2648 2759 
Q 2391 3103 1925 3103 
Q 1463 3103 1205 2759 
Q 947 2416 947 1791 
Q 947 1169 1205 825 
Q 1463 481 1925 481 
Q 2391 481 2648 825 
Q 2906 1169 2906 1791 
z
M 3481 434 
Q 3481 -459 3084 -895 
Q 2688 -1331 1869 -1331 
Q 1566 -1331 1297 -1286 
Q 1028 -1241 775 -1147 
L 775 -588 
Q 1028 -725 1275 -790 
Q 1522 -856 1778 -856 
Q 2344 -856 2625 -561 
Q 2906 -266 2906 331 
L 2906 616 
Q 2728 306 2450 153 
Q 2172 0 1784 0 
Q 1141 0 747 490 
Q 353 981 353 1791 
Q 353 2603 747 3093 
Q 1141 3584 1784 3584 
Q 2172 3584 2450 3431 
Q 2728 3278 2906 2969 
L 2906 3500 
L 3481 3500 
L 3481 434 
z
" transform="scale(0.015625)"/>
       <path id="DejaVuSans-2d" d="M 313 2009 
L 1997 2009 
L 1997 1497 
L 313 1497 
L 313 2009 
z
" transform="scale(0.015625)"/>
      </defs>
      <use xlink:href="#DejaVuSans-4e"/>
      <use xlink:href="#DejaVuSans-65" x="74.804688"/>
      <use xlink:href="#DejaVuSans-67" x="136.328125"/>
      <use xlink:href="#DejaVuSans-61" x="199.804688"/>
      <use xlink:href="#DejaVuSans-74" x="261.083984"/>
      <use xlink:href="#DejaVuSans-69" x="300.292969"/>
      <use xlink:href="#DejaVuSans-76" x="328.076172"/>
      <use xlink:href="#DejaVuSans-65" x="387.255859"/>
      <use xlink:href="#DejaVuSans-20" x="448.779297"/>
      <use xlink:href="#DejaVuSans-53" x="480.566406"/>
      <use xlink:href="#DejaVuSans-6b" x="544.042969"/>
      <use xlink:href="#DejaVuSans-65" x="598.328125"/>
      <use xlink:href="#DejaVuSans-77" x="659.851562"/>
      <use xlink:href="#DejaVuSans-6e" x="741.638672"/>
      <use xlink:href="#DejaVuSans-65" x="805.017578"/>
      <use xlink:href="#DejaVuSans-73" x="866.541016"/>
      <use xlink:href="#DejaVuSans-73" x="918.640625"/>
      <use xlink:href="#DejaVuSans-20" x="970.740234"/>
      <use xlink:href="#DejaVuSans-28" x="1002.527344"/>
      <use xlink:href="#DejaVuSans-53" x="1041.541016"/>
      <use xlink:href="#DejaVuSans-6b" x="1105.017578"/>
      <use xlink:href="#DejaVuSans-65" x="1159.302734"/>
      <use xlink:href="#DejaVuSans-77" x="1220.826172"/>
      <use xlink:href="#DejaVuSans-6e" x="1302.613281"/>
      <use xlink:href="#DejaVuSans-65" x="1365.992188"/>
      <use xlink:href="#DejaVuSans-73" x="1427.515625"/>
      <use xlink:href="#DejaVuSans-73" x="1479.615234"/>
      <use xlink:href="#DejaVuSans-3a" x="1531.714844"/>
      <use xlink:href="#DejaVuSans-20" x="1565.40625"/>
      <use xlink:href="#DejaVuSans-2d" x="1597.193359"/>
      <use xlink:href="#DejaVuSans-30" x="1633.277344"/>
      <use xlink:href="#DejaVuSans-2e" x="1696.900391"/>
      <use xlink:href="#DejaVuSans-36" x="1728.6875"/>
      <use xlink:href="#DejaVuSans-30" x="1792.310547"/>
      <use xlink:href="#DejaVuSans-29" x="1855.933594"/>
     </g>
    </g>
    <g id="line2d_30">
     <path d="M 592.464375 217.835625 
L 602.464375 217.835625 
L 612.464375 217.835625 
" style="fill: none; stroke: #008000; stroke-width: 1.5; stroke-linecap: square"/>
    </g>
    <g id="text_18">
     <!-- Symmetric (No Skewness) (Skewness: 0.01) -->
     <g transform="translate(620.464375 221.335625) scale(0.1 -0.1)">
      <defs>
       <path id="DejaVuSans-63" d="M 3122 3366 
L 3122 2828 
Q 2878 2963 2633 3030 
Q 2388 3097 2138 3097 
Q 1578 3097 1268 2742 
Q 959 2388 959 1747 
Q 959 1106 1268 751 
Q 1578 397 2138 397 
Q 2388 397 2633 464 
Q 2878 531 3122 666 
L 3122 134 
Q 2881 22 2623 -34 
Q 2366 -91 2075 -91 
Q 1284 -91 818 406 
Q 353 903 353 1747 
Q 353 2603 823 3093 
Q 1294 3584 2113 3584 
Q 2378 3584 2631 3529 
Q 2884 3475 3122 3366 
z
" transform="scale(0.015625)"/>
      </defs>
      <use xlink:href="#DejaVuSans-53"/>
      <use xlink:href="#DejaVuSans-79" x="63.476562"/>
      <use xlink:href="#DejaVuSans-6d" x="122.65625"/>
      <use xlink:href="#DejaVuSans-6d" x="220.068359"/>
      <use xlink:href="#DejaVuSans-65" x="317.480469"/>
      <use xlink:href="#DejaVuSans-74" x="379.003906"/>
      <use xlink:href="#DejaVuSans-72" x="418.212891"/>
      <use xlink:href="#DejaVuSans-69" x="459.326172"/>
      <use xlink:href="#DejaVuSans-63" x="487.109375"/>
      <use xlink:href="#DejaVuSans-20" x="542.089844"/>
      <use xlink:href="#DejaVuSans-28" x="573.876953"/>
      <use xlink:href="#DejaVuSans-4e" x="612.890625"/>
      <use xlink:href="#DejaVuSans-6f" x="687.695312"/>
      <use xlink:href="#DejaVuSans-20" x="748.876953"/>
      <use xlink:href="#DejaVuSans-53" x="780.664062"/>
      <use xlink:href="#DejaVuSans-6b" x="844.140625"/>
      <use xlink:href="#DejaVuSans-65" x="898.425781"/>
      <use xlink:href="#DejaVuSans-77" x="959.949219"/>
      <use xlink:href="#DejaVuSans-6e" x="1041.736328"/>
      <use xlink:href="#DejaVuSans-65" x="1105.115234"/>
      <use xlink:href="#DejaVuSans-73" x="1166.638672"/>
      <use xlink:href="#DejaVuSans-73" x="1218.738281"/>
      <use xlink:href="#DejaVuSans-29" x="1270.837891"/>
      <use xlink:href="#DejaVuSans-20" x="1309.851562"/>
      <use xlink:href="#DejaVuSans-28" x="1341.638672"/>
      <use xlink:href="#DejaVuSans-53" x="1380.652344"/>
      <use xlink:href="#DejaVuSans-6b" x="1444.128906"/>
      <use xlink:href="#DejaVuSans-65" x="1498.414062"/>
      <use xlink:href="#DejaVuSans-77" x="1559.9375"/>
      <use xlink:href="#DejaVuSans-6e" x="1641.724609"/>
      <use xlink:href="#DejaVuSans-65" x="1705.103516"/>
      <use xlink:href="#DejaVuSans-73" x="1766.626953"/>
      <use xlink:href="#DejaVuSans-73" x="1818.726562"/>
      <use xlink:href="#DejaVuSans-3a" x="1870.826172"/>
      <use xlink:href="#DejaVuSans-20" x="1904.517578"/>
      <use xlink:href="#DejaVuSans-30" x="1936.304688"/>
      <use xlink:href="#DejaVuSans-2e" x="1999.927734"/>
      <use xlink:href="#DejaVuSans-30" x="2031.714844"/>
      <use xlink:href="#DejaVuSans-31" x="2095.337891"/>
      <use xlink:href="#DejaVuSans-29" x="2158.960938"/>
     </g>
    </g>
   </g>
  </g>
 </g>
 <defs>
  <clipPath id="pd12b16bce7">
   <rect x="43.78125" y="22.318125" width="805.48" height="363.16"/>
  </clipPath>
 </defs>
</svg>