<?xml version="1.0" encoding="utf-8" standalone="no"?>
<!DOCTYPE svg PUBLIC "-//W3C//DTD SVG 1.1//EN"
  "http://www.w3.org/Graphics/SVG/1.1/DTD/svg11.dtd">
<svg xmlns:xlink="http://www.w3.org/1999/xlink" width="713.265625pt" height="585.478125pt" viewBox="0 0 713.265625 585.478125" xmlns="http://www.w3.org/2000/svg" version="1.1">
 <metadata>
  <rdf:RDF xmlns:dc="http://purl.org/dc/elements/1.1/" xmlns:cc="http://creativecommons.org/ns#" xmlns:rdf="http://www.w3.org/1999/02/22-rdf-syntax-ns#">
   <cc:Work>
    <dc:type rdf:resource="http://purl.org/dc/dcmitype/StillImage"/>
    <dc:date>2024-09-20T12:58:35.055002</dc:date>
    <dc:format>image/svg+xml</dc:format>
    <dc:creator>
     <cc:Agent>
      <dc:title>Matplotlib v3.9.0, https://matplotlib.org/</dc:title>
     </cc:Agent>
    </dc:creator>
   </cc:Work>
  </rdf:RDF>
 </metadata>
 <defs>
  <style type="text/css">*{stroke-linejoin: round; stroke-linecap: butt}</style>
 </defs>
 <g id="figure_1">
  <g id="patch_1">
   <path d="M 0 585.478125 
L 713.265625 585.478125 
L 713.265625 0 
L 0 0 
z
" style="fill: #ffffff"/>
  </g>
  <g id="axes_1">
   <g id="patch_2">
    <path d="M 36.465625 170.258824 
L 706.065625 170.258824 
L 706.065625 7.2 
L 36.465625 7.2 
z
" style="fill: #ffffff"/>
   </g>
   <g id="matplotlib.axis_1">
    <g id="xtick_1">
     <g id="line2d_1">
      <defs>
       <path id="m7997c499c1" d="M 0 0 
L 0 3.5 
" style="stroke: #000000; stroke-width: 0.8"/>
      </defs>
      <g>
       <use xlink:href="#m7997c499c1" x="66.901989" y="170.258824" style="stroke: #000000; stroke-width: 0.8"/>
      </g>
     </g>
    </g>
    <g id="xtick_2">
     <g id="line2d_2">
      <g>
       <use xlink:href="#m7997c499c1" x="168.359916" y="170.258824" style="stroke: #000000; stroke-width: 0.8"/>
      </g>
     </g>
    </g>
    <g id="xtick_3">
     <g id="line2d_3">
      <g>
       <use xlink:href="#m7997c499c1" x="269.817843" y="170.258824" style="stroke: #000000; stroke-width: 0.8"/>
      </g>
     </g>
    </g>
    <g id="xtick_4">
     <g id="line2d_4">
      <g>
       <use xlink:href="#m7997c499c1" x="371.275771" y="170.258824" style="stroke: #000000; stroke-width: 0.8"/>
      </g>
     </g>
    </g>
    <g id="xtick_5">
     <g id="line2d_5">
      <g>
       <use xlink:href="#m7997c499c1" x="472.733698" y="170.258824" style="stroke: #000000; stroke-width: 0.8"/>
      </g>
     </g>
    </g>
    <g id="xtick_6">
     <g id="line2d_6">
      <g>
       <use xlink:href="#m7997c499c1" x="574.191626" y="170.258824" style="stroke: #000000; stroke-width: 0.8"/>
      </g>
     </g>
    </g>
    <g id="xtick_7">
     <g id="line2d_7">
      <g>
       <use xlink:href="#m7997c499c1" x="675.649553" y="170.258824" style="stroke: #000000; stroke-width: 0.8"/>
      </g>
     </g>
    </g>
   </g>
   <g id="matplotlib.axis_2">
    <g id="ytick_1">
     <g id="line2d_8">
      <defs>
       <path id="m4fadb2f99f" d="M 0 0 
L -3.5 0 
" style="stroke: #000000; stroke-width: 0.8"/>
      </defs>
      <g>
       <use xlink:href="#m4fadb2f99f" x="36.465625" y="162.847059" style="stroke: #000000; stroke-width: 0.8"/>
      </g>
     </g>
     <g id="text_1">
      <!-- 0.00 -->
      <g transform="translate(7.2 166.646278) scale(0.1 -0.1)">
       <defs>
        <path id="DejaVuSans-30" d="M 2034 4250 
Q 1547 4250 1301 3770 
Q 1056 3291 1056 2328 
Q 1056 1369 1301 889 
Q 1547 409 2034 409 
Q 2525 409 2770 889 
Q 3016 1369 3016 2328 
Q 3016 3291 2770 3770 
Q 2525 4250 2034 4250 
z
M 2034 4750 
Q 2819 4750 3233 4129 
Q 3647 3509 3647 2328 
Q 3647 1150 3233 529 
Q 2819 -91 2034 -91 
Q 1250 -91 836 529 
Q 422 1150 422 2328 
Q 422 3509 836 4129 
Q 1250 4750 2034 4750 
z
" transform="scale(0.015625)"/>
        <path id="DejaVuSans-2e" d="M 684 794 
L 1344 794 
L 1344 0 
L 684 0 
L 684 794 
z
" transform="scale(0.015625)"/>
       </defs>
       <use xlink:href="#DejaVuSans-30"/>
       <use xlink:href="#DejaVuSans-2e" x="63.623047"/>
       <use xlink:href="#DejaVuSans-30" x="95.410156"/>
       <use xlink:href="#DejaVuSans-30" x="159.033203"/>
      </g>
     </g>
    </g>
    <g id="ytick_2">
     <g id="line2d_9">
      <g>
       <use xlink:href="#m4fadb2f99f" x="36.465625" y="125.689981" style="stroke: #000000; stroke-width: 0.8"/>
      </g>
     </g>
     <g id="text_2">
      <!-- 0.05 -->
      <g transform="translate(7.2 129.4892) scale(0.1 -0.1)">
       <defs>
        <path id="DejaVuSans-35" d="M 691 4666 
L 3169 4666 
L 3169 4134 
L 1269 4134 
L 1269 2991 
Q 1406 3038 1543 3061 
Q 1681 3084 1819 3084 
Q 2600 3084 3056 2656 
Q 3513 2228 3513 1497 
Q 3513 744 3044 326 
Q 2575 -91 1722 -91 
Q 1428 -91 1123 -41 
Q 819 9 494 109 
L 494 744 
Q 775 591 1075 516 
Q 1375 441 1709 441 
Q 2250 441 2565 725 
Q 2881 1009 2881 1497 
Q 2881 1984 2565 2268 
Q 2250 2553 1709 2553 
Q 1456 2553 1204 2497 
Q 953 2441 691 2322 
L 691 4666 
z
" transform="scale(0.015625)"/>
       </defs>
       <use xlink:href="#DejaVuSans-30"/>
       <use xlink:href="#DejaVuSans-2e" x="63.623047"/>
       <use xlink:href="#DejaVuSans-30" x="95.410156"/>
       <use xlink:href="#DejaVuSans-35" x="159.033203"/>
      </g>
     </g>
    </g>
    <g id="ytick_3">
     <g id="line2d_10">
      <g>
       <use xlink:href="#m4fadb2f99f" x="36.465625" y="88.532903" style="stroke: #000000; stroke-width: 0.8"/>
      </g>
     </g>
     <g id="text_3">
      <!-- 0.10 -->
      <g transform="translate(7.2 92.332122) scale(0.1 -0.1)">
       <defs>
        <path id="DejaVuSans-31" d="M 794 531 
L 1825 531 
L 1825 4091 
L 703 3866 
L 703 4441 
L 1819 4666 
L 2450 4666 
L 2450 531 
L 3481 531 
L 3481 0 
L 794 0 
L 794 531 
z
" transform="scale(0.015625)"/>
       </defs>
       <use xlink:href="#DejaVuSans-30"/>
       <use xlink:href="#DejaVuSans-2e" x="63.623047"/>
       <use xlink:href="#DejaVuSans-31" x="95.410156"/>
       <use xlink:href="#DejaVuSans-30" x="159.033203"/>
      </g>
     </g>
    </g>
    <g id="ytick_4">
     <g id="line2d_11">
      <g>
       <use xlink:href="#m4fadb2f99f" x="36.465625" y="51.375825" style="stroke: #000000; stroke-width: 0.8"/>
      </g>
     </g>
     <g id="text_4">
      <!-- 0.15 -->
      <g transform="translate(7.2 55.175044) scale(0.1 -0.1)">
       <use xlink:href="#DejaVuSans-30"/>
       <use xlink:href="#DejaVuSans-2e" x="63.623047"/>
       <use xlink:href="#DejaVuSans-31" x="95.410156"/>
       <use xlink:href="#DejaVuSans-35" x="159.033203"/>
      </g>
     </g>
    </g>
    <g id="ytick_5">
     <g id="line2d_12">
      <g>
       <use xlink:href="#m4fadb2f99f" x="36.465625" y="14.218747" style="stroke: #000000; stroke-width: 0.8"/>
      </g>
     </g>
     <g id="text_5">
      <!-- 0.20 -->
      <g transform="translate(7.2 18.017966) scale(0.1 -0.1)">
       <defs>
        <path id="DejaVuSans-32" d="M 1228 531 
L 3431 531 
L 3431 0 
L 469 0 
L 469 531 
Q 828 903 1448 1529 
Q 2069 2156 2228 2338 
Q 2531 2678 2651 2914 
Q 2772 3150 2772 3378 
Q 2772 3750 2511 3984 
Q 2250 4219 1831 4219 
Q 1534 4219 1204 4116 
Q 875 4013 500 3803 
L 500 4441 
Q 881 4594 1212 4672 
Q 1544 4750 1819 4750 
Q 2544 4750 2975 4387 
Q 3406 4025 3406 3419 
Q 3406 3131 3298 2873 
Q 3191 2616 2906 2266 
Q 2828 2175 2409 1742 
Q 1991 1309 1228 531 
z
" transform="scale(0.015625)"/>
       </defs>
       <use xlink:href="#DejaVuSans-30"/>
       <use xlink:href="#DejaVuSans-2e" x="63.623047"/>
       <use xlink:href="#DejaVuSans-32" x="95.410156"/>
       <use xlink:href="#DejaVuSans-30" x="159.033203"/>
      </g>
     </g>
    </g>
   </g>
   <g id="line2d_13">
    <path d="M 66.901989 162.847019 
L 136.177461 162.735658 
L 149.224951 162.488927 
L 157.889458 162.112497 
L 164.585681 161.606606 
L 170.145576 160.969762 
L 174.974973 160.197174 
L 179.276789 159.287558 
L 183.193065 158.235778 
L 186.825259 157.032945 
L 190.254537 155.663674 
L 193.50119 154.128877 
L 196.626095 152.406013 
L 199.649541 150.485639 
L 202.612112 148.340036 
L 205.534101 145.947748 
L 208.435797 143.282441 
L 211.337494 140.312269 
L 214.259482 136.999392 
L 217.222054 133.299745 
L 220.2455 129.163168 
L 223.350113 124.534094 
L 226.576475 119.319002 
L 229.96517 113.41304 
L 233.597363 106.627051 
L 237.594806 98.674041 
L 242.241579 88.911735 
L 248.674011 74.825626 
L 257.926974 54.604315 
L 262.188207 45.852335 
L 265.658068 39.216505 
L 268.681515 33.899109 
L 271.400587 29.555309 
L 273.876161 26.008636 
L 276.16911 23.104102 
L 278.299726 20.757105 
L 280.288302 18.889455 
L 282.155127 17.431897 
L 283.940787 16.314326 
L 285.64528 15.505881 
L 287.288899 14.96934 
L 288.891934 14.678456 
L 290.474677 14.617768 
L 292.03713 14.778898 
L 293.619873 15.165295 
L 295.2432 15.793082 
L 296.90711 16.67671 
L 298.652186 17.859823 
L 300.478429 19.372072 
L 302.40613 21.262612 
L 304.45558 23.590259 
L 306.647071 26.422373 
L 309.021187 29.863855 
L 311.598218 34.00134 
L 314.43904 38.993398 
L 317.64511 45.090467 
L 321.399054 52.725995 
L 326.208159 63.044311 
L 342.502303 98.424727 
L 346.743244 106.861672 
L 350.53777 113.924416 
L 354.048215 119.99727 
L 357.376035 125.316792 
L 360.561814 129.997023 
L 363.646135 134.140408 
L 366.669581 137.834959 
L 369.652444 141.132112 
L 372.615015 144.077125 
L 375.557295 146.69196 
L 378.519867 149.030473 
L 381.523021 151.119721 
L 384.587051 152.981904 
L 387.752538 154.645019 
L 391.039775 156.119473 
L 394.489345 157.421023 
L 398.14183 158.559666 
L 402.078398 159.550892 
L 406.380214 160.400486 
L 411.169028 161.114401 
L 416.627464 161.697478 
L 423.080189 162.155582 
L 431.115656 162.492639 
L 442.032529 162.712815 
L 459.970291 162.823784 
L 515.995358 162.847031 
L 675.629261 162.847059 
L 675.629261 162.847059 
" clip-path="url(#pc4c735dadb)" style="fill: none; stroke-dasharray: 1.5,2.475; stroke-dashoffset: 0; stroke: #ff0000; stroke-width: 1.5"/>
   </g>
   <g id="line2d_14">
    <path d="M 66.901989 162.847059 
L 298.469562 162.73608 
L 311.537343 162.489549 
L 320.20185 162.113693 
L 326.918365 161.606606 
L 332.478259 160.969762 
L 337.307657 160.197174 
L 341.609473 159.287558 
L 345.525749 158.235778 
L 349.157943 157.032945 
L 352.587221 155.663674 
L 355.833874 154.128877 
L 358.958778 152.406013 
L 361.982225 150.485639 
L 364.944796 148.340036 
L 367.866784 145.947748 
L 370.768481 143.282441 
L 373.670178 140.312269 
L 376.592166 136.999392 
L 379.554738 133.299745 
L 382.578184 129.163168 
L 385.682796 124.534094 
L 388.909159 119.319002 
L 392.297853 113.41304 
L 395.930047 106.627051 
L 399.927489 98.674041 
L 404.574263 88.911735 
L 411.006695 74.825626 
L 420.259658 54.604315 
L 424.520891 45.852335 
L 427.990752 39.216505 
L 431.014198 33.899109 
L 433.733271 29.555309 
L 436.208844 26.008636 
L 438.501793 23.104102 
L 440.63241 20.757105 
L 442.620985 18.889455 
L 444.487811 17.431897 
L 446.273471 16.314326 
L 447.977964 15.505881 
L 449.621582 14.96934 
L 451.224618 14.678456 
L 452.807361 14.617768 
L 454.369813 14.778898 
L 455.952557 15.165295 
L 457.575884 15.793082 
L 459.239794 16.67671 
L 460.98487 17.859823 
L 462.811113 19.372072 
L 464.738814 21.262612 
L 466.788264 23.590259 
L 468.979755 26.422373 
L 471.35387 29.863855 
L 473.930902 34.00134 
L 476.771724 38.993398 
L 479.977794 45.090467 
L 483.731738 52.725995 
L 488.540843 63.044311 
L 504.834986 98.424727 
L 509.075928 106.861672 
L 512.870454 113.924416 
L 516.380899 119.99727 
L 519.708719 125.316792 
L 522.894497 129.997023 
L 525.978818 134.140408 
L 529.002265 137.834959 
L 531.985128 141.132112 
L 534.947699 144.077125 
L 537.889979 146.69196 
L 540.852551 149.030473 
L 543.855705 151.119721 
L 546.919735 152.981904 
L 550.085222 154.645019 
L 553.372459 156.119473 
L 556.822028 157.421023 
L 560.474514 158.559666 
L 564.411081 159.550892 
L 568.712897 160.400486 
L 573.501712 161.114401 
L 578.960148 161.697478 
L 585.412872 162.155582 
L 593.44834 162.492639 
L 604.365213 162.712815 
L 622.302975 162.823784 
L 675.629261 162.847019 
L 675.629261 162.847019 
" clip-path="url(#pc4c735dadb)" style="fill: none; stroke-dasharray: 1.5,2.475; stroke-dashoffset: 0; stroke: #0000ff; stroke-width: 1.5"/>
   </g>
   <g id="patch_3">
    <path d="M 36.465625 170.258824 
L 36.465625 7.2 
" style="fill: none; stroke: #000000; stroke-width: 0.8; stroke-linejoin: miter; stroke-linecap: square"/>
   </g>
   <g id="patch_4">
    <path d="M 706.065625 170.258824 
L 706.065625 7.2 
" style="fill: none; stroke: #000000; stroke-width: 0.8; stroke-linejoin: miter; stroke-linecap: square"/>
   </g>
   <g id="patch_5">
    <path d="M 36.465625 170.258824 
L 706.065625 170.258824 
" style="fill: none; stroke: #000000; stroke-width: 0.8; stroke-linejoin: miter; stroke-linecap: square"/>
   </g>
   <g id="patch_6">
    <path d="M 36.465625 7.2 
L 706.065625 7.2 
" style="fill: none; stroke: #000000; stroke-width: 0.8; stroke-linejoin: miter; stroke-linecap: square"/>
   </g>
   <g id="legend_1">
    <g id="patch_7">
     <path d="M 611.648438 44.55625 
L 699.065625 44.55625 
Q 701.065625 44.55625 701.065625 42.55625 
L 701.065625 14.2 
Q 701.065625 12.2 699.065625 12.2 
L 611.648438 12.2 
Q 609.648438 12.2 609.648438 14.2 
L 609.648438 42.55625 
Q 609.648438 44.55625 611.648438 44.55625 
z
" style="fill: #ffffff; opacity: 0.8; stroke: #cccccc; stroke-linejoin: miter"/>
    </g>
    <g id="line2d_15">
     <path d="M 613.648438 20.298438 
L 623.648438 20.298438 
L 633.648438 20.298438 
" style="fill: none; stroke-dasharray: 1.5,2.475; stroke-dashoffset: 0; stroke: #ff0000; stroke-width: 1.5"/>
    </g>
    <g id="text_6">
     <!-- Gaussian 1 -->
     <g transform="translate(641.648438 23.798438) scale(0.1 -0.1)">
      <defs>
       <path id="DejaVuSans-47" d="M 3809 666 
L 3809 1919 
L 2778 1919 
L 2778 2438 
L 4434 2438 
L 4434 434 
Q 4069 175 3628 42 
Q 3188 -91 2688 -91 
Q 1594 -91 976 548 
Q 359 1188 359 2328 
Q 359 3472 976 4111 
Q 1594 4750 2688 4750 
Q 3144 4750 3555 4637 
Q 3966 4525 4313 4306 
L 4313 3634 
Q 3963 3931 3569 4081 
Q 3175 4231 2741 4231 
Q 1884 4231 1454 3753 
Q 1025 3275 1025 2328 
Q 1025 1384 1454 906 
Q 1884 428 2741 428 
Q 3075 428 3337 486 
Q 3600 544 3809 666 
z
" transform="scale(0.015625)"/>
       <path id="DejaVuSans-61" d="M 2194 1759 
Q 1497 1759 1228 1600 
Q 959 1441 959 1056 
Q 959 750 1161 570 
Q 1363 391 1709 391 
Q 2188 391 2477 730 
Q 2766 1069 2766 1631 
L 2766 1759 
L 2194 1759 
z
M 3341 1997 
L 3341 0 
L 2766 0 
L 2766 531 
Q 2569 213 2275 61 
Q 1981 -91 1556 -91 
Q 1019 -91 701 211 
Q 384 513 384 1019 
Q 384 1609 779 1909 
Q 1175 2209 1959 2209 
L 2766 2209 
L 2766 2266 
Q 2766 2663 2505 2880 
Q 2244 3097 1772 3097 
Q 1472 3097 1187 3025 
Q 903 2953 641 2809 
L 641 3341 
Q 956 3463 1253 3523 
Q 1550 3584 1831 3584 
Q 2591 3584 2966 3190 
Q 3341 2797 3341 1997 
z
" transform="scale(0.015625)"/>
       <path id="DejaVuSans-75" d="M 544 1381 
L 544 3500 
L 1119 3500 
L 1119 1403 
Q 1119 906 1312 657 
Q 1506 409 1894 409 
Q 2359 409 2629 706 
Q 2900 1003 2900 1516 
L 2900 3500 
L 3475 3500 
L 3475 0 
L 2900 0 
L 2900 538 
Q 2691 219 2414 64 
Q 2138 -91 1772 -91 
Q 1169 -91 856 284 
Q 544 659 544 1381 
z
M 1991 3584 
L 1991 3584 
z
" transform="scale(0.015625)"/>
       <path id="DejaVuSans-73" d="M 2834 3397 
L 2834 2853 
Q 2591 2978 2328 3040 
Q 2066 3103 1784 3103 
Q 1356 3103 1142 2972 
Q 928 2841 928 2578 
Q 928 2378 1081 2264 
Q 1234 2150 1697 2047 
L 1894 2003 
Q 2506 1872 2764 1633 
Q 3022 1394 3022 966 
Q 3022 478 2636 193 
Q 2250 -91 1575 -91 
Q 1294 -91 989 -36 
Q 684 19 347 128 
L 347 722 
Q 666 556 975 473 
Q 1284 391 1588 391 
Q 1994 391 2212 530 
Q 2431 669 2431 922 
Q 2431 1156 2273 1281 
Q 2116 1406 1581 1522 
L 1381 1569 
Q 847 1681 609 1914 
Q 372 2147 372 2553 
Q 372 3047 722 3315 
Q 1072 3584 1716 3584 
Q 2034 3584 2315 3537 
Q 2597 3491 2834 3397 
z
" transform="scale(0.015625)"/>
       <path id="DejaVuSans-69" d="M 603 3500 
L 1178 3500 
L 1178 0 
L 603 0 
L 603 3500 
z
M 603 4863 
L 1178 4863 
L 1178 4134 
L 603 4134 
L 603 4863 
z
" transform="scale(0.015625)"/>
       <path id="DejaVuSans-6e" d="M 3513 2113 
L 3513 0 
L 2938 0 
L 2938 2094 
Q 2938 2591 2744 2837 
Q 2550 3084 2163 3084 
Q 1697 3084 1428 2787 
Q 1159 2491 1159 1978 
L 1159 0 
L 581 0 
L 581 3500 
L 1159 3500 
L 1159 2956 
Q 1366 3272 1645 3428 
Q 1925 3584 2291 3584 
Q 2894 3584 3203 3211 
Q 3513 2838 3513 2113 
z
" transform="scale(0.015625)"/>
       <path id="DejaVuSans-20" transform="scale(0.015625)"/>
      </defs>
      <use xlink:href="#DejaVuSans-47"/>
      <use xlink:href="#DejaVuSans-61" x="77.490234"/>
      <use xlink:href="#DejaVuSans-75" x="138.769531"/>
      <use xlink:href="#DejaVuSans-73" x="202.148438"/>
      <use xlink:href="#DejaVuSans-73" x="254.248047"/>
      <use xlink:href="#DejaVuSans-69" x="306.347656"/>
      <use xlink:href="#DejaVuSans-61" x="334.130859"/>
      <use xlink:href="#DejaVuSans-6e" x="395.410156"/>
      <use xlink:href="#DejaVuSans-20" x="458.789062"/>
      <use xlink:href="#DejaVuSans-31" x="490.576172"/>
     </g>
    </g>
    <g id="line2d_16">
     <path d="M 613.648438 34.976563 
L 623.648438 34.976563 
L 633.648438 34.976563 
" style="fill: none; stroke-dasharray: 1.5,2.475; stroke-dashoffset: 0; stroke: #0000ff; stroke-width: 1.5"/>
    </g>
    <g id="text_7">
     <!-- Gaussian 2 -->
     <g transform="translate(641.648438 38.476563) scale(0.1 -0.1)">
      <use xlink:href="#DejaVuSans-47"/>
      <use xlink:href="#DejaVuSans-61" x="77.490234"/>
      <use xlink:href="#DejaVuSans-75" x="138.769531"/>
      <use xlink:href="#DejaVuSans-73" x="202.148438"/>
      <use xlink:href="#DejaVuSans-73" x="254.248047"/>
      <use xlink:href="#DejaVuSans-69" x="306.347656"/>
      <use xlink:href="#DejaVuSans-61" x="334.130859"/>
      <use xlink:href="#DejaVuSans-6e" x="395.410156"/>
      <use xlink:href="#DejaVuSans-20" x="458.789062"/>
      <use xlink:href="#DejaVuSans-32" x="490.576172"/>
     </g>
    </g>
   </g>
  </g>
  <g id="axes_2">
   <g id="patch_8">
    <path d="M 36.465625 365.929412 
L 706.065625 365.929412 
L 706.065625 202.870588 
L 36.465625 202.870588 
z
" style="fill: #ffffff"/>
   </g>
   <g id="matplotlib.axis_3">
    <g id="xtick_8">
     <g id="line2d_17">
      <g>
       <use xlink:href="#m7997c499c1" x="66.901989" y="365.929412" style="stroke: #000000; stroke-width: 0.8"/>
      </g>
     </g>
    </g>
    <g id="xtick_9">
     <g id="line2d_18">
      <g>
       <use xlink:href="#m7997c499c1" x="168.359916" y="365.929412" style="stroke: #000000; stroke-width: 0.8"/>
      </g>
     </g>
    </g>
    <g id="xtick_10">
     <g id="line2d_19">
      <g>
       <use xlink:href="#m7997c499c1" x="269.817843" y="365.929412" style="stroke: #000000; stroke-width: 0.8"/>
      </g>
     </g>
    </g>
    <g id="xtick_11">
     <g id="line2d_20">
      <g>
       <use xlink:href="#m7997c499c1" x="371.275771" y="365.929412" style="stroke: #000000; stroke-width: 0.8"/>
      </g>
     </g>
    </g>
    <g id="xtick_12">
     <g id="line2d_21">
      <g>
       <use xlink:href="#m7997c499c1" x="472.733698" y="365.929412" style="stroke: #000000; stroke-width: 0.8"/>
      </g>
     </g>
    </g>
    <g id="xtick_13">
     <g id="line2d_22">
      <g>
       <use xlink:href="#m7997c499c1" x="574.191626" y="365.929412" style="stroke: #000000; stroke-width: 0.8"/>
      </g>
     </g>
    </g>
    <g id="xtick_14">
     <g id="line2d_23">
      <g>
       <use xlink:href="#m7997c499c1" x="675.649553" y="365.929412" style="stroke: #000000; stroke-width: 0.8"/>
      </g>
     </g>
    </g>
   </g>
   <g id="matplotlib.axis_4">
    <g id="ytick_6">
     <g id="line2d_24">
      <g>
       <use xlink:href="#m4fadb2f99f" x="36.465625" y="358.517687" style="stroke: #000000; stroke-width: 0.8"/>
      </g>
     </g>
     <g id="text_8">
      <!-- 0.00 -->
      <g transform="translate(7.2 362.316906) scale(0.1 -0.1)">
       <use xlink:href="#DejaVuSans-30"/>
       <use xlink:href="#DejaVuSans-2e" x="63.623047"/>
       <use xlink:href="#DejaVuSans-30" x="95.410156"/>
       <use xlink:href="#DejaVuSans-30" x="159.033203"/>
      </g>
     </g>
    </g>
    <g id="ytick_7">
     <g id="line2d_25">
      <g>
       <use xlink:href="#m4fadb2f99f" x="36.465625" y="328.802012" style="stroke: #000000; stroke-width: 0.8"/>
      </g>
     </g>
     <g id="text_9">
      <!-- 0.02 -->
      <g transform="translate(7.2 332.60123) scale(0.1 -0.1)">
       <use xlink:href="#DejaVuSans-30"/>
       <use xlink:href="#DejaVuSans-2e" x="63.623047"/>
       <use xlink:href="#DejaVuSans-30" x="95.410156"/>
       <use xlink:href="#DejaVuSans-32" x="159.033203"/>
      </g>
     </g>
    </g>
    <g id="ytick_8">
     <g id="line2d_26">
      <g>
       <use xlink:href="#m4fadb2f99f" x="36.465625" y="299.086336" style="stroke: #000000; stroke-width: 0.8"/>
      </g>
     </g>
     <g id="text_10">
      <!-- 0.04 -->
      <g transform="translate(7.2 302.885555) scale(0.1 -0.1)">
       <defs>
        <path id="DejaVuSans-34" d="M 2419 4116 
L 825 1625 
L 2419 1625 
L 2419 4116 
z
M 2253 4666 
L 3047 4666 
L 3047 1625 
L 3713 1625 
L 3713 1100 
L 3047 1100 
L 3047 0 
L 2419 0 
L 2419 1100 
L 313 1100 
L 313 1709 
L 2253 4666 
z
" transform="scale(0.015625)"/>
       </defs>
       <use xlink:href="#DejaVuSans-30"/>
       <use xlink:href="#DejaVuSans-2e" x="63.623047"/>
       <use xlink:href="#DejaVuSans-30" x="95.410156"/>
       <use xlink:href="#DejaVuSans-34" x="159.033203"/>
      </g>
     </g>
    </g>
    <g id="ytick_9">
     <g id="line2d_27">
      <g>
       <use xlink:href="#m4fadb2f99f" x="36.465625" y="269.370661" style="stroke: #000000; stroke-width: 0.8"/>
      </g>
     </g>
     <g id="text_11">
      <!-- 0.06 -->
      <g transform="translate(7.2 273.16988) scale(0.1 -0.1)">
       <defs>
        <path id="DejaVuSans-36" d="M 2113 2584 
Q 1688 2584 1439 2293 
Q 1191 2003 1191 1497 
Q 1191 994 1439 701 
Q 1688 409 2113 409 
Q 2538 409 2786 701 
Q 3034 994 3034 1497 
Q 3034 2003 2786 2293 
Q 2538 2584 2113 2584 
z
M 3366 4563 
L 3366 3988 
Q 3128 4100 2886 4159 
Q 2644 4219 2406 4219 
Q 1781 4219 1451 3797 
Q 1122 3375 1075 2522 
Q 1259 2794 1537 2939 
Q 1816 3084 2150 3084 
Q 2853 3084 3261 2657 
Q 3669 2231 3669 1497 
Q 3669 778 3244 343 
Q 2819 -91 2113 -91 
Q 1303 -91 875 529 
Q 447 1150 447 2328 
Q 447 3434 972 4092 
Q 1497 4750 2381 4750 
Q 2619 4750 2861 4703 
Q 3103 4656 3366 4563 
z
" transform="scale(0.015625)"/>
       </defs>
       <use xlink:href="#DejaVuSans-30"/>
       <use xlink:href="#DejaVuSans-2e" x="63.623047"/>
       <use xlink:href="#DejaVuSans-30" x="95.410156"/>
       <use xlink:href="#DejaVuSans-36" x="159.033203"/>
      </g>
     </g>
    </g>
    <g id="ytick_10">
     <g id="line2d_28">
      <g>
       <use xlink:href="#m4fadb2f99f" x="36.465625" y="239.654986" style="stroke: #000000; stroke-width: 0.8"/>
      </g>
     </g>
     <g id="text_12">
      <!-- 0.08 -->
      <g transform="translate(7.2 243.454204) scale(0.1 -0.1)">
       <defs>
        <path id="DejaVuSans-38" d="M 2034 2216 
Q 1584 2216 1326 1975 
Q 1069 1734 1069 1313 
Q 1069 891 1326 650 
Q 1584 409 2034 409 
Q 2484 409 2743 651 
Q 3003 894 3003 1313 
Q 3003 1734 2745 1975 
Q 2488 2216 2034 2216 
z
M 1403 2484 
Q 997 2584 770 2862 
Q 544 3141 544 3541 
Q 544 4100 942 4425 
Q 1341 4750 2034 4750 
Q 2731 4750 3128 4425 
Q 3525 4100 3525 3541 
Q 3525 3141 3298 2862 
Q 3072 2584 2669 2484 
Q 3125 2378 3379 2068 
Q 3634 1759 3634 1313 
Q 3634 634 3220 271 
Q 2806 -91 2034 -91 
Q 1263 -91 848 271 
Q 434 634 434 1313 
Q 434 1759 690 2068 
Q 947 2378 1403 2484 
z
M 1172 3481 
Q 1172 3119 1398 2916 
Q 1625 2713 2034 2713 
Q 2441 2713 2670 2916 
Q 2900 3119 2900 3481 
Q 2900 3844 2670 4047 
Q 2441 4250 2034 4250 
Q 1625 4250 1398 4047 
Q 1172 3844 1172 3481 
z
" transform="scale(0.015625)"/>
       </defs>
       <use xlink:href="#DejaVuSans-30"/>
       <use xlink:href="#DejaVuSans-2e" x="63.623047"/>
       <use xlink:href="#DejaVuSans-30" x="95.410156"/>
       <use xlink:href="#DejaVuSans-38" x="159.033203"/>
      </g>
     </g>
    </g>
    <g id="ytick_11">
     <g id="line2d_29">
      <g>
       <use xlink:href="#m4fadb2f99f" x="36.465625" y="209.93931" style="stroke: #000000; stroke-width: 0.8"/>
      </g>
     </g>
     <g id="text_13">
      <!-- 0.10 -->
      <g transform="translate(7.2 213.738529) scale(0.1 -0.1)">
       <use xlink:href="#DejaVuSans-30"/>
       <use xlink:href="#DejaVuSans-2e" x="63.623047"/>
       <use xlink:href="#DejaVuSans-31" x="95.410156"/>
       <use xlink:href="#DejaVuSans-30" x="159.033203"/>
      </g>
     </g>
    </g>
   </g>
   <g id="line2d_30">
    <path d="M 66.901989 358.517647 
L 136.177461 358.406324 
L 149.224951 358.159676 
L 157.889458 357.783372 
L 164.585681 357.277651 
L 170.145576 356.641021 
L 174.974973 355.868692 
L 179.276789 354.959382 
L 183.193065 353.907955 
L 186.825259 352.705527 
L 190.254537 351.336715 
L 193.50119 349.802434 
L 196.626095 348.080149 
L 199.649541 346.16042 
L 202.612112 344.015538 
L 205.534101 341.624053 
L 208.435797 338.959641 
L 211.337494 335.990465 
L 214.259482 332.6787 
L 217.222054 328.980293 
L 220.2455 324.845101 
L 223.350113 320.217577 
L 226.576475 315.004227 
L 229.96517 309.100232 
L 233.597363 302.316495 
L 237.594806 294.366108 
L 242.241579 284.606982 
L 248.674011 270.52533 
L 257.926974 250.309788 
L 262.188207 241.559767 
L 265.658068 234.924946 
L 268.681515 229.607828 
L 271.400587 225.263649 
L 273.876161 221.715973 
L 276.16911 218.80982 
L 278.299726 216.460593 
L 280.288302 214.590112 
L 282.175419 213.114841 
L 283.961078 211.996261 
L 285.665572 211.186041 
L 287.30919 210.646901 
L 288.912225 210.352503 
L 290.494969 210.287249 
L 292.077713 210.446096 
L 293.660456 210.828111 
L 295.283783 211.449672 
L 296.967985 212.336975 
L 298.713061 213.511589 
L 300.559595 215.029761 
L 302.507588 216.9274 
L 304.577329 219.261695 
L 306.789112 222.097587 
L 309.183519 225.536077 
L 311.821425 229.725585 
L 314.743414 234.79583 
L 318.091525 241.065021 
L 322.190426 249.237911 
L 328.460525 262.30666 
L 336.090162 278.092819 
L 340.310811 286.308907 
L 343.821256 292.672557 
L 346.94616 297.889051 
L 349.786982 302.20887 
L 352.404596 305.795581 
L 354.859878 308.790376 
L 357.152827 311.245702 
L 359.324027 313.253424 
L 361.393769 314.870468 
L 363.362052 316.132609 
L 365.269461 317.094416 
L 367.095704 317.770896 
L 368.881364 318.198906 
L 370.646732 318.393782 
L 372.391808 318.362742 
L 374.136884 318.109412 
L 375.902252 317.627755 
L 377.708203 316.90206 
L 379.554738 315.918959 
L 381.482438 314.6363 
L 383.491305 313.026333 
L 385.60163 311.042114 
L 387.813413 308.650638 
L 390.167237 305.769308 
L 392.663102 302.355137 
L 395.361883 298.275777 
L 398.283871 293.445364 
L 401.530525 287.634869 
L 405.243885 280.515951 
L 409.850075 271.176671 
L 425.210805 239.622224 
L 428.680666 233.238706 
L 431.683821 228.165391 
L 434.36231 224.063849 
L 436.7973 220.728294 
L 439.049666 218.008932 
L 441.1397 215.823305 
L 443.107983 214.078838 
L 444.954518 212.730762 
L 446.719886 211.711425 
L 448.404087 210.990274 
L 450.027414 210.531314 
L 451.630449 210.30799 
L 453.213193 210.312877 
L 454.795937 210.541883 
L 456.398972 211.001372 
L 458.04259 211.70817 
L 459.747083 212.689653 
L 461.512451 213.967627 
L 463.379277 215.600718 
L 465.347561 217.625239 
L 467.437594 220.09995 
L 469.68996 223.120364 
L 472.124951 226.768435 
L 474.783148 231.162902 
L 477.725428 236.468021 
L 481.07354 242.977358 
L 485.070982 251.256135 
L 490.529419 263.117405 
L 502.562329 289.396956 
L 507.127936 298.742645 
L 511.105086 306.388202 
L 514.73728 312.897376 
L 518.146266 318.557453 
L 521.39292 323.524105 
L 524.517824 327.906146 
L 527.561562 331.798965 
L 530.564717 335.282857 
L 533.527288 338.38262 
L 536.469568 341.143601 
L 539.43214 343.620555 
L 542.415003 345.826341 
L 545.458741 347.80067 
L 548.563353 349.55053 
L 551.789715 351.113003 
L 555.158118 352.495296 
L 558.709146 353.710108 
L 562.503672 354.770547 
L 566.602573 355.682862 
L 571.127596 356.458905 
L 576.220784 357.102566 
L 582.145927 357.620726 
L 589.308857 358.015315 
L 598.582111 358.291215 
L 612.197765 358.453731 
L 639.875488 358.514228 
L 675.629261 358.517647 
L 675.629261 358.517647 
" clip-path="url(#paa52279f51)" style="fill: none; stroke: #008000; stroke-width: 1.5; stroke-linecap: square"/>
   </g>
   <g id="patch_9">
    <path d="M 36.465625 365.929412 
L 36.465625 202.870588 
" style="fill: none; stroke: #000000; stroke-width: 0.8; stroke-linejoin: miter; stroke-linecap: square"/>
   </g>
   <g id="patch_10">
    <path d="M 706.065625 365.929412 
L 706.065625 202.870588 
" style="fill: none; stroke: #000000; stroke-width: 0.8; stroke-linejoin: miter; stroke-linecap: square"/>
   </g>
   <g id="patch_11">
    <path d="M 36.465625 365.929412 
L 706.065625 365.929412 
" style="fill: none; stroke: #000000; stroke-width: 0.8; stroke-linejoin: miter; stroke-linecap: square"/>
   </g>
   <g id="patch_12">
    <path d="M 36.465625 202.870588 
L 706.065625 202.870588 
" style="fill: none; stroke: #000000; stroke-width: 0.8; stroke-linejoin: miter; stroke-linecap: square"/>
   </g>
   <g id="legend_2">
    <g id="patch_13">
     <path d="M 580.44375 225.548713 
L 699.065625 225.548713 
Q 701.065625 225.548713 701.065625 223.548713 
L 701.065625 209.870588 
Q 701.065625 207.870588 699.065625 207.870588 
L 580.44375 207.870588 
Q 578.44375 207.870588 578.44375 209.870588 
L 578.44375 223.548713 
Q 578.44375 225.548713 580.44375 225.548713 
z
" style="fill: #ffffff; opacity: 0.8; stroke: #cccccc; stroke-linejoin: miter"/>
    </g>
    <g id="line2d_31">
     <path d="M 582.44375 215.969026 
L 592.44375 215.969026 
L 602.44375 215.969026 
" style="fill: none; stroke: #008000; stroke-width: 1.5; stroke-linecap: square"/>
    </g>
    <g id="text_14">
     <!-- Gaussian Merged -->
     <g transform="translate(610.44375 219.469026) scale(0.1 -0.1)">
      <defs>
       <path id="DejaVuSans-4d" d="M 628 4666 
L 1569 4666 
L 2759 1491 
L 3956 4666 
L 4897 4666 
L 4897 0 
L 4281 0 
L 4281 4097 
L 3078 897 
L 2444 897 
L 1241 4097 
L 1241 0 
L 628 0 
L 628 4666 
z
" transform="scale(0.015625)"/>
       <path id="DejaVuSans-65" d="M 3597 1894 
L 3597 1613 
L 953 1613 
Q 991 1019 1311 708 
Q 1631 397 2203 397 
Q 2534 397 2845 478 
Q 3156 559 3463 722 
L 3463 178 
Q 3153 47 2828 -22 
Q 2503 -91 2169 -91 
Q 1331 -91 842 396 
Q 353 884 353 1716 
Q 353 2575 817 3079 
Q 1281 3584 2069 3584 
Q 2775 3584 3186 3129 
Q 3597 2675 3597 1894 
z
M 3022 2063 
Q 3016 2534 2758 2815 
Q 2500 3097 2075 3097 
Q 1594 3097 1305 2825 
Q 1016 2553 972 2059 
L 3022 2063 
z
" transform="scale(0.015625)"/>
       <path id="DejaVuSans-72" d="M 2631 2963 
Q 2534 3019 2420 3045 
Q 2306 3072 2169 3072 
Q 1681 3072 1420 2755 
Q 1159 2438 1159 1844 
L 1159 0 
L 581 0 
L 581 3500 
L 1159 3500 
L 1159 2956 
Q 1341 3275 1631 3429 
Q 1922 3584 2338 3584 
Q 2397 3584 2469 3576 
Q 2541 3569 2628 3553 
L 2631 2963 
z
" transform="scale(0.015625)"/>
       <path id="DejaVuSans-67" d="M 2906 1791 
Q 2906 2416 2648 2759 
Q 2391 3103 1925 3103 
Q 1463 3103 1205 2759 
Q 947 2416 947 1791 
Q 947 1169 1205 825 
Q 1463 481 1925 481 
Q 2391 481 2648 825 
Q 2906 1169 2906 1791 
z
M 3481 434 
Q 3481 -459 3084 -895 
Q 2688 -1331 1869 -1331 
Q 1566 -1331 1297 -1286 
Q 1028 -1241 775 -1147 
L 775 -588 
Q 1028 -725 1275 -790 
Q 1522 -856 1778 -856 
Q 2344 -856 2625 -561 
Q 2906 -266 2906 331 
L 2906 616 
Q 2728 306 2450 153 
Q 2172 0 1784 0 
Q 1141 0 747 490 
Q 353 981 353 1791 
Q 353 2603 747 3093 
Q 1141 3584 1784 3584 
Q 2172 3584 2450 3431 
Q 2728 3278 2906 2969 
L 2906 3500 
L 3481 3500 
L 3481 434 
z
" transform="scale(0.015625)"/>
       <path id="DejaVuSans-64" d="M 2906 2969 
L 2906 4863 
L 3481 4863 
L 3481 0 
L 2906 0 
L 2906 525 
Q 2725 213 2448 61 
Q 2172 -91 1784 -91 
Q 1150 -91 751 415 
Q 353 922 353 1747 
Q 353 2572 751 3078 
Q 1150 3584 1784 3584 
Q 2172 3584 2448 3432 
Q 2725 3281 2906 2969 
z
M 947 1747 
Q 947 1113 1208 752 
Q 1469 391 1925 391 
Q 2381 391 2643 752 
Q 2906 1113 2906 1747 
Q 2906 2381 2643 2742 
Q 2381 3103 1925 3103 
Q 1469 3103 1208 2742 
Q 947 2381 947 1747 
z
" transform="scale(0.015625)"/>
      </defs>
      <use xlink:href="#DejaVuSans-47"/>
      <use xlink:href="#DejaVuSans-61" x="77.490234"/>
      <use xlink:href="#DejaVuSans-75" x="138.769531"/>
      <use xlink:href="#DejaVuSans-73" x="202.148438"/>
      <use xlink:href="#DejaVuSans-73" x="254.248047"/>
      <use xlink:href="#DejaVuSans-69" x="306.347656"/>
      <use xlink:href="#DejaVuSans-61" x="334.130859"/>
      <use xlink:href="#DejaVuSans-6e" x="395.410156"/>
      <use xlink:href="#DejaVuSans-20" x="458.789062"/>
      <use xlink:href="#DejaVuSans-4d" x="490.576172"/>
      <use xlink:href="#DejaVuSans-65" x="576.855469"/>
      <use xlink:href="#DejaVuSans-72" x="638.378906"/>
      <use xlink:href="#DejaVuSans-67" x="677.742188"/>
      <use xlink:href="#DejaVuSans-65" x="741.21875"/>
      <use xlink:href="#DejaVuSans-64" x="802.742188"/>
     </g>
    </g>
   </g>
  </g>
  <g id="axes_3">
   <g id="patch_14">
    <path d="M 36.465625 561.6 
L 706.065625 561.6 
L 706.065625 398.541176 
L 36.465625 398.541176 
z
" style="fill: #ffffff"/>
   </g>
   <g id="matplotlib.axis_5">
    <g id="xtick_15">
     <g id="line2d_32">
      <g>
       <use xlink:href="#m7997c499c1" x="66.901989" y="561.6" style="stroke: #000000; stroke-width: 0.8"/>
      </g>
     </g>
     <g id="text_15">
      <!-- −15 -->
      <g transform="translate(56.349645 576.198438) scale(0.1 -0.1)">
       <defs>
        <path id="DejaVuSans-2212" d="M 678 2272 
L 4684 2272 
L 4684 1741 
L 678 1741 
L 678 2272 
z
" transform="scale(0.015625)"/>
       </defs>
       <use xlink:href="#DejaVuSans-2212"/>
       <use xlink:href="#DejaVuSans-31" x="83.789062"/>
       <use xlink:href="#DejaVuSans-35" x="147.412109"/>
      </g>
     </g>
    </g>
    <g id="xtick_16">
     <g id="line2d_33">
      <g>
       <use xlink:href="#m7997c499c1" x="168.359916" y="561.6" style="stroke: #000000; stroke-width: 0.8"/>
      </g>
     </g>
     <g id="text_16">
      <!-- −10 -->
      <g transform="translate(157.807572 576.198438) scale(0.1 -0.1)">
       <use xlink:href="#DejaVuSans-2212"/>
       <use xlink:href="#DejaVuSans-31" x="83.789062"/>
       <use xlink:href="#DejaVuSans-30" x="147.412109"/>
      </g>
     </g>
    </g>
    <g id="xtick_17">
     <g id="line2d_34">
      <g>
       <use xlink:href="#m7997c499c1" x="269.817843" y="561.6" style="stroke: #000000; stroke-width: 0.8"/>
      </g>
     </g>
     <g id="text_17">
      <!-- −5 -->
      <g transform="translate(262.44675 576.198438) scale(0.1 -0.1)">
       <use xlink:href="#DejaVuSans-2212"/>
       <use xlink:href="#DejaVuSans-35" x="83.789062"/>
      </g>
     </g>
    </g>
    <g id="xtick_18">
     <g id="line2d_35">
      <g>
       <use xlink:href="#m7997c499c1" x="371.275771" y="561.6" style="stroke: #000000; stroke-width: 0.8"/>
      </g>
     </g>
     <g id="text_18">
      <!-- 0 -->
      <g transform="translate(368.094521 576.198438) scale(0.1 -0.1)">
       <use xlink:href="#DejaVuSans-30"/>
      </g>
     </g>
    </g>
    <g id="xtick_19">
     <g id="line2d_36">
      <g>
       <use xlink:href="#m7997c499c1" x="472.733698" y="561.6" style="stroke: #000000; stroke-width: 0.8"/>
      </g>
     </g>
     <g id="text_19">
      <!-- 5 -->
      <g transform="translate(469.552448 576.198438) scale(0.1 -0.1)">
       <use xlink:href="#DejaVuSans-35"/>
      </g>
     </g>
    </g>
    <g id="xtick_20">
     <g id="line2d_37">
      <g>
       <use xlink:href="#m7997c499c1" x="574.191626" y="561.6" style="stroke: #000000; stroke-width: 0.8"/>
      </g>
     </g>
     <g id="text_20">
      <!-- 10 -->
      <g transform="translate(567.829126 576.198438) scale(0.1 -0.1)">
       <use xlink:href="#DejaVuSans-31"/>
       <use xlink:href="#DejaVuSans-30" x="63.623047"/>
      </g>
     </g>
    </g>
    <g id="xtick_21">
     <g id="line2d_38">
      <g>
       <use xlink:href="#m7997c499c1" x="675.649553" y="561.6" style="stroke: #000000; stroke-width: 0.8"/>
      </g>
     </g>
     <g id="text_21">
      <!-- 15 -->
      <g transform="translate(669.287053 576.198438) scale(0.1 -0.1)">
       <use xlink:href="#DejaVuSans-31"/>
       <use xlink:href="#DejaVuSans-35" x="63.623047"/>
      </g>
     </g>
    </g>
   </g>
   <g id="matplotlib.axis_6">
    <g id="ytick_12">
     <g id="line2d_39">
      <g>
       <use xlink:href="#m4fadb2f99f" x="36.465625" y="554.188235" style="stroke: #000000; stroke-width: 0.8"/>
      </g>
     </g>
     <g id="text_22">
      <!-- 0.00 -->
      <g transform="translate(7.2 557.987454) scale(0.1 -0.1)">
       <use xlink:href="#DejaVuSans-30"/>
       <use xlink:href="#DejaVuSans-2e" x="63.623047"/>
       <use xlink:href="#DejaVuSans-30" x="95.410156"/>
       <use xlink:href="#DejaVuSans-30" x="159.033203"/>
      </g>
     </g>
    </g>
    <g id="ytick_13">
     <g id="line2d_40">
      <g>
       <use xlink:href="#m4fadb2f99f" x="36.465625" y="517.031157" style="stroke: #000000; stroke-width: 0.8"/>
      </g>
     </g>
     <g id="text_23">
      <!-- 0.05 -->
      <g transform="translate(7.2 520.830376) scale(0.1 -0.1)">
       <use xlink:href="#DejaVuSans-30"/>
       <use xlink:href="#DejaVuSans-2e" x="63.623047"/>
       <use xlink:href="#DejaVuSans-30" x="95.410156"/>
       <use xlink:href="#DejaVuSans-35" x="159.033203"/>
      </g>
     </g>
    </g>
    <g id="ytick_14">
     <g id="line2d_41">
      <g>
       <use xlink:href="#m4fadb2f99f" x="36.465625" y="479.874079" style="stroke: #000000; stroke-width: 0.8"/>
      </g>
     </g>
     <g id="text_24">
      <!-- 0.10 -->
      <g transform="translate(7.2 483.673298) scale(0.1 -0.1)">
       <use xlink:href="#DejaVuSans-30"/>
       <use xlink:href="#DejaVuSans-2e" x="63.623047"/>
       <use xlink:href="#DejaVuSans-31" x="95.410156"/>
       <use xlink:href="#DejaVuSans-30" x="159.033203"/>
      </g>
     </g>
    </g>
    <g id="ytick_15">
     <g id="line2d_42">
      <g>
       <use xlink:href="#m4fadb2f99f" x="36.465625" y="442.717001" style="stroke: #000000; stroke-width: 0.8"/>
      </g>
     </g>
     <g id="text_25">
      <!-- 0.15 -->
      <g transform="translate(7.2 446.51622) scale(0.1 -0.1)">
       <use xlink:href="#DejaVuSans-30"/>
       <use xlink:href="#DejaVuSans-2e" x="63.623047"/>
       <use xlink:href="#DejaVuSans-31" x="95.410156"/>
       <use xlink:href="#DejaVuSans-35" x="159.033203"/>
      </g>
     </g>
    </g>
    <g id="ytick_16">
     <g id="line2d_43">
      <g>
       <use xlink:href="#m4fadb2f99f" x="36.465625" y="405.559923" style="stroke: #000000; stroke-width: 0.8"/>
      </g>
     </g>
     <g id="text_26">
      <!-- 0.20 -->
      <g transform="translate(7.2 409.359142) scale(0.1 -0.1)">
       <use xlink:href="#DejaVuSans-30"/>
       <use xlink:href="#DejaVuSans-2e" x="63.623047"/>
       <use xlink:href="#DejaVuSans-32" x="95.410156"/>
       <use xlink:href="#DejaVuSans-30" x="159.033203"/>
      </g>
     </g>
    </g>
   </g>
   <g id="line2d_44">
    <path d="M 66.901989 554.188195 
L 136.177461 554.076835 
L 149.224951 553.830104 
L 157.889458 553.453674 
L 164.585681 552.947783 
L 170.145576 552.310939 
L 174.974973 551.53835 
L 179.276789 550.628734 
L 183.193065 549.576954 
L 186.825259 548.374122 
L 190.254537 547.00485 
L 193.50119 545.470053 
L 196.626095 543.74719 
L 199.649541 541.826815 
L 202.612112 539.681213 
L 205.534101 537.288925 
L 208.435797 534.623618 
L 211.337494 531.653445 
L 214.259482 528.340569 
L 217.222054 524.640921 
L 220.2455 520.504344 
L 223.350113 515.875271 
L 226.576475 510.660179 
L 229.96517 504.754216 
L 233.597363 497.968227 
L 237.594806 490.015218 
L 242.241579 480.252911 
L 248.674011 466.166803 
L 257.926974 445.945491 
L 262.188207 437.193512 
L 265.658068 430.557682 
L 268.681515 425.240285 
L 271.400587 420.896485 
L 273.876161 417.349812 
L 276.16911 414.445279 
L 278.299726 412.098281 
L 280.288302 410.230632 
L 282.155127 408.773073 
L 283.940787 407.655502 
L 285.64528 406.847057 
L 287.288899 406.310516 
L 288.891934 406.019632 
L 290.474677 405.958945 
L 292.03713 406.120075 
L 293.619873 406.506472 
L 295.2432 407.134258 
L 296.90711 408.017887 
L 298.652186 409.200999 
L 300.478429 410.713249 
L 302.40613 412.603788 
L 304.45558 414.931435 
L 306.647071 417.763549 
L 309.021187 421.205031 
L 311.598218 425.342516 
L 314.43904 430.334575 
L 317.64511 436.431644 
L 321.399054 444.067172 
L 326.208159 454.385488 
L 342.502303 489.765904 
L 346.743244 498.202848 
L 350.53777 505.265592 
L 354.048215 511.338447 
L 357.376035 516.657969 
L 360.561814 521.338199 
L 363.646135 525.481584 
L 366.669581 529.176135 
L 369.652444 532.473288 
L 372.615015 535.418301 
L 375.557295 538.033137 
L 378.519867 540.37165 
L 381.523021 542.460897 
L 384.587051 544.32308 
L 387.752538 545.986196 
L 391.039775 547.46065 
L 394.489345 548.762199 
L 398.14183 549.900842 
L 402.078398 550.892068 
L 406.380214 551.741662 
L 411.169028 552.455578 
L 416.627464 553.038654 
L 423.080189 553.496758 
L 431.115656 553.833816 
L 442.032529 554.053991 
L 459.970291 554.164961 
L 515.995358 554.188208 
L 675.629261 554.188235 
L 675.629261 554.188235 
" clip-path="url(#p87029e7ebc)" style="fill: none; stroke-dasharray: 1.5,2.475; stroke-dashoffset: 0; stroke: #ff0000; stroke-width: 1.5"/>
   </g>
   <g id="line2d_45">
    <path d="M 66.901989 554.188235 
L 298.469562 554.077257 
L 311.537343 553.830725 
L 320.20185 553.454869 
L 326.918365 552.947783 
L 332.478259 552.310939 
L 337.307657 551.53835 
L 341.609473 550.628734 
L 345.525749 549.576954 
L 349.157943 548.374122 
L 352.587221 547.00485 
L 355.833874 545.470053 
L 358.958778 543.74719 
L 361.982225 541.826815 
L 364.944796 539.681213 
L 367.866784 537.288925 
L 370.768481 534.623618 
L 373.670178 531.653445 
L 376.592166 528.340569 
L 379.554738 524.640921 
L 382.578184 520.504344 
L 385.682796 515.875271 
L 388.909159 510.660179 
L 392.297853 504.754216 
L 395.930047 497.968227 
L 399.927489 490.015218 
L 404.574263 480.252911 
L 411.006695 466.166803 
L 420.259658 445.945491 
L 424.520891 437.193512 
L 427.990752 430.557682 
L 431.014198 425.240285 
L 433.733271 420.896485 
L 436.208844 417.349812 
L 438.501793 414.445279 
L 440.63241 412.098281 
L 442.620985 410.230632 
L 444.487811 408.773073 
L 446.273471 407.655502 
L 447.977964 406.847057 
L 449.621582 406.310516 
L 451.224618 406.019632 
L 452.807361 405.958945 
L 454.369813 406.120075 
L 455.952557 406.506472 
L 457.575884 407.134258 
L 459.239794 408.017887 
L 460.98487 409.200999 
L 462.811113 410.713249 
L 464.738814 412.603788 
L 466.788264 414.931435 
L 468.979755 417.763549 
L 471.35387 421.205031 
L 473.930902 425.342516 
L 476.771724 430.334575 
L 479.977794 436.431644 
L 483.731738 444.067172 
L 488.540843 454.385488 
L 504.834986 489.765904 
L 509.075928 498.202848 
L 512.870454 505.265592 
L 516.380899 511.338447 
L 519.708719 516.657969 
L 522.894497 521.338199 
L 525.978818 525.481584 
L 529.002265 529.176135 
L 531.985128 532.473288 
L 534.947699 535.418301 
L 537.889979 538.033137 
L 540.852551 540.37165 
L 543.855705 542.460897 
L 546.919735 544.32308 
L 550.085222 545.986196 
L 553.372459 547.46065 
L 556.822028 548.762199 
L 560.474514 549.900842 
L 564.411081 550.892068 
L 568.712897 551.741662 
L 573.501712 552.455578 
L 578.960148 553.038654 
L 585.412872 553.496758 
L 593.44834 553.833816 
L 604.365213 554.053991 
L 622.302975 554.164961 
L 675.629261 554.188195 
L 675.629261 554.188195 
" clip-path="url(#p87029e7ebc)" style="fill: none; stroke-dasharray: 1.5,2.475; stroke-dashoffset: 0; stroke: #0000ff; stroke-width: 1.5"/>
   </g>
   <g id="line2d_46">
    <path d="M 66.901989 554.188215 
L 143.766514 554.076984 
L 157.605376 553.829245 
L 166.898922 553.449632 
L 174.143018 552.938414 
L 180.230494 552.291042 
L 185.546889 551.506464 
L 190.335703 550.578832 
L 194.759269 549.497551 
L 198.898752 548.258227 
L 202.83532 546.848311 
L 206.629846 545.252761 
L 210.322915 543.457889 
L 213.955109 541.444654 
L 217.567011 539.187851 
L 221.219496 536.640921 
L 224.932856 533.778006 
L 228.788258 530.520945 
L 232.866866 526.77846 
L 237.310723 522.391774 
L 242.485078 516.958581 
L 250.114714 508.581517 
L 258.454556 499.509851 
L 263.040454 494.851272 
L 266.814689 491.325759 
L 270.122217 488.532674 
L 273.125372 486.280807 
L 275.905319 484.468294 
L 278.522934 483.022917 
L 280.998507 481.905148 
L 283.392914 481.066069 
L 285.706155 480.489558 
L 287.958521 480.154528 
L 290.190595 480.045673 
L 292.42267 480.159714 
L 294.675036 480.499385 
L 296.967985 481.073315 
L 299.321809 481.895724 
L 301.756799 482.985877 
L 304.313539 484.379224 
L 307.01232 486.107732 
L 309.914016 488.235296 
L 313.099795 490.854291 
L 316.691406 494.104547 
L 320.97293 498.29318 
L 327.040114 504.572844 
L 336.84095 514.711941 
L 341.386265 519.072377 
L 345.221375 522.451907 
L 348.670945 525.201034 
L 351.836432 527.445774 
L 354.819295 529.292978 
L 357.639825 530.783172 
L 360.358898 531.971265 
L 362.976512 532.875638 
L 365.533252 533.525934 
L 368.049409 533.936747 
L 370.524982 534.116471 
L 373.000556 534.072429 
L 375.476129 533.804895 
L 377.971994 533.310614 
L 380.508442 532.580548 
L 383.105765 531.600127 
L 385.784254 530.349675 
L 388.584493 528.792935 
L 391.526773 526.897185 
L 394.631386 524.628388 
L 397.999789 521.884807 
L 401.713149 518.565253 
L 405.994674 514.429125 
L 411.595151 508.686243 
L 423.770102 496.113633 
L 427.929877 492.196807 
L 431.440322 489.187051 
L 434.565226 486.792255 
L 437.426339 484.872202 
L 440.104829 483.3374 
L 442.641277 482.137283 
L 445.055976 481.23737 
L 447.389508 480.602194 
L 449.662165 480.211649 
L 451.89424 480.051101 
L 454.126314 480.113343 
L 456.358389 480.398064 
L 458.631046 480.914092 
L 460.944287 481.66887 
L 463.338694 482.686471 
L 465.834559 483.992099 
L 468.472465 485.628168 
L 471.272704 487.631278 
L 474.316442 490.089028 
L 477.664553 493.085877 
L 481.479372 496.80784 
L 486.126145 501.667094 
L 493.268783 509.503066 
L 502.257955 519.295523 
L 507.391726 524.552019 
L 511.815292 528.769917 
L 515.8939 532.355987 
L 519.749302 535.454181 
L 523.482953 538.173186 
L 527.15573 540.575397 
L 530.808216 542.700577 
L 534.480993 544.581902 
L 538.214645 546.245858 
L 542.070046 547.719908 
L 546.067488 549.009664 
L 550.288138 550.136306 
L 554.79287 551.10675 
L 559.703434 551.933733 
L 565.16187 552.62243 
L 571.391387 553.177909 
L 578.777524 553.60533 
L 588.091362 553.910337 
L 601.159143 554.098297 
L 624.819131 554.179275 
L 675.629261 554.188215 
L 675.629261 554.188215 
" clip-path="url(#p87029e7ebc)" style="fill: none; stroke: #008000; stroke-width: 1.5; stroke-linecap: square"/>
   </g>
   <g id="patch_15">
    <path d="M 36.465625 561.6 
L 36.465625 398.541176 
" style="fill: none; stroke: #000000; stroke-width: 0.8; stroke-linejoin: miter; stroke-linecap: square"/>
   </g>
   <g id="patch_16">
    <path d="M 706.065625 561.6 
L 706.065625 398.541176 
" style="fill: none; stroke: #000000; stroke-width: 0.8; stroke-linejoin: miter; stroke-linecap: square"/>
   </g>
   <g id="patch_17">
    <path d="M 36.465625 561.6 
L 706.065625 561.6 
" style="fill: none; stroke: #000000; stroke-width: 0.8; stroke-linejoin: miter; stroke-linecap: square"/>
   </g>
   <g id="patch_18">
    <path d="M 36.465625 398.541176 
L 706.065625 398.541176 
" style="fill: none; stroke: #000000; stroke-width: 0.8; stroke-linejoin: miter; stroke-linecap: square"/>
   </g>
   <g id="legend_3">
    <g id="patch_19">
     <path d="M 545.090625 450.575551 
L 699.065625 450.575551 
Q 701.065625 450.575551 701.065625 448.575551 
L 701.065625 405.541176 
Q 701.065625 403.541176 699.065625 403.541176 
L 545.090625 403.541176 
Q 543.090625 403.541176 543.090625 405.541176 
L 543.090625 448.575551 
Q 543.090625 450.575551 545.090625 450.575551 
z
" style="fill: #ffffff; opacity: 0.8; stroke: #cccccc; stroke-linejoin: miter"/>
    </g>
    <g id="line2d_47">
     <path d="M 547.090625 411.639614 
L 557.090625 411.639614 
L 567.090625 411.639614 
" style="fill: none; stroke-dasharray: 1.5,2.475; stroke-dashoffset: 0; stroke: #ff0000; stroke-width: 1.5"/>
    </g>
    <g id="text_27">
     <!-- Gaussian 1 (Dotted) -->
     <g transform="translate(575.090625 415.139614) scale(0.1 -0.1)">
      <defs>
       <path id="DejaVuSans-28" d="M 1984 4856 
Q 1566 4138 1362 3434 
Q 1159 2731 1159 2009 
Q 1159 1288 1364 580 
Q 1569 -128 1984 -844 
L 1484 -844 
Q 1016 -109 783 600 
Q 550 1309 550 2009 
Q 550 2706 781 3412 
Q 1013 4119 1484 4856 
L 1984 4856 
z
" transform="scale(0.015625)"/>
       <path id="DejaVuSans-44" d="M 1259 4147 
L 1259 519 
L 2022 519 
Q 2988 519 3436 956 
Q 3884 1394 3884 2338 
Q 3884 3275 3436 3711 
Q 2988 4147 2022 4147 
L 1259 4147 
z
M 628 4666 
L 1925 4666 
Q 3281 4666 3915 4102 
Q 4550 3538 4550 2338 
Q 4550 1131 3912 565 
Q 3275 0 1925 0 
L 628 0 
L 628 4666 
z
" transform="scale(0.015625)"/>
       <path id="DejaVuSans-6f" d="M 1959 3097 
Q 1497 3097 1228 2736 
Q 959 2375 959 1747 
Q 959 1119 1226 758 
Q 1494 397 1959 397 
Q 2419 397 2687 759 
Q 2956 1122 2956 1747 
Q 2956 2369 2687 2733 
Q 2419 3097 1959 3097 
z
M 1959 3584 
Q 2709 3584 3137 3096 
Q 3566 2609 3566 1747 
Q 3566 888 3137 398 
Q 2709 -91 1959 -91 
Q 1206 -91 779 398 
Q 353 888 353 1747 
Q 353 2609 779 3096 
Q 1206 3584 1959 3584 
z
" transform="scale(0.015625)"/>
       <path id="DejaVuSans-74" d="M 1172 4494 
L 1172 3500 
L 2356 3500 
L 2356 3053 
L 1172 3053 
L 1172 1153 
Q 1172 725 1289 603 
Q 1406 481 1766 481 
L 2356 481 
L 2356 0 
L 1766 0 
Q 1100 0 847 248 
Q 594 497 594 1153 
L 594 3053 
L 172 3053 
L 172 3500 
L 594 3500 
L 594 4494 
L 1172 4494 
z
" transform="scale(0.015625)"/>
       <path id="DejaVuSans-29" d="M 513 4856 
L 1013 4856 
Q 1481 4119 1714 3412 
Q 1947 2706 1947 2009 
Q 1947 1309 1714 600 
Q 1481 -109 1013 -844 
L 513 -844 
Q 928 -128 1133 580 
Q 1338 1288 1338 2009 
Q 1338 2731 1133 3434 
Q 928 4138 513 4856 
z
" transform="scale(0.015625)"/>
      </defs>
      <use xlink:href="#DejaVuSans-47"/>
      <use xlink:href="#DejaVuSans-61" x="77.490234"/>
      <use xlink:href="#DejaVuSans-75" x="138.769531"/>
      <use xlink:href="#DejaVuSans-73" x="202.148438"/>
      <use xlink:href="#DejaVuSans-73" x="254.248047"/>
      <use xlink:href="#DejaVuSans-69" x="306.347656"/>
      <use xlink:href="#DejaVuSans-61" x="334.130859"/>
      <use xlink:href="#DejaVuSans-6e" x="395.410156"/>
      <use xlink:href="#DejaVuSans-20" x="458.789062"/>
      <use xlink:href="#DejaVuSans-31" x="490.576172"/>
      <use xlink:href="#DejaVuSans-20" x="554.199219"/>
      <use xlink:href="#DejaVuSans-28" x="585.986328"/>
      <use xlink:href="#DejaVuSans-44" x="625"/>
      <use xlink:href="#DejaVuSans-6f" x="702.001953"/>
      <use xlink:href="#DejaVuSans-74" x="763.183594"/>
      <use xlink:href="#DejaVuSans-74" x="802.392578"/>
      <use xlink:href="#DejaVuSans-65" x="841.601562"/>
      <use xlink:href="#DejaVuSans-64" x="903.125"/>
      <use xlink:href="#DejaVuSans-29" x="966.601562"/>
     </g>
    </g>
    <g id="line2d_48">
     <path d="M 547.090625 426.317739 
L 557.090625 426.317739 
L 567.090625 426.317739 
" style="fill: none; stroke-dasharray: 1.5,2.475; stroke-dashoffset: 0; stroke: #0000ff; stroke-width: 1.5"/>
    </g>
    <g id="text_28">
     <!-- Gaussian 2 (Dotted) -->
     <g transform="translate(575.090625 429.817739) scale(0.1 -0.1)">
      <use xlink:href="#DejaVuSans-47"/>
      <use xlink:href="#DejaVuSans-61" x="77.490234"/>
      <use xlink:href="#DejaVuSans-75" x="138.769531"/>
      <use xlink:href="#DejaVuSans-73" x="202.148438"/>
      <use xlink:href="#DejaVuSans-73" x="254.248047"/>
      <use xlink:href="#DejaVuSans-69" x="306.347656"/>
      <use xlink:href="#DejaVuSans-61" x="334.130859"/>
      <use xlink:href="#DejaVuSans-6e" x="395.410156"/>
      <use xlink:href="#DejaVuSans-20" x="458.789062"/>
      <use xlink:href="#DejaVuSans-32" x="490.576172"/>
      <use xlink:href="#DejaVuSans-20" x="554.199219"/>
      <use xlink:href="#DejaVuSans-28" x="585.986328"/>
      <use xlink:href="#DejaVuSans-44" x="625"/>
      <use xlink:href="#DejaVuSans-6f" x="702.001953"/>
      <use xlink:href="#DejaVuSans-74" x="763.183594"/>
      <use xlink:href="#DejaVuSans-74" x="802.392578"/>
      <use xlink:href="#DejaVuSans-65" x="841.601562"/>
      <use xlink:href="#DejaVuSans-64" x="903.125"/>
      <use xlink:href="#DejaVuSans-29" x="966.601562"/>
     </g>
    </g>
    <g id="line2d_49">
     <path d="M 547.090625 440.995864 
L 557.090625 440.995864 
L 567.090625 440.995864 
" style="fill: none; stroke: #008000; stroke-width: 1.5; stroke-linecap: square"/>
    </g>
    <g id="text_29">
     <!-- Gaussian Merged (Solid) -->
     <g transform="translate(575.090625 444.495864) scale(0.1 -0.1)">
      <defs>
       <path id="DejaVuSans-53" d="M 3425 4513 
L 3425 3897 
Q 3066 4069 2747 4153 
Q 2428 4238 2131 4238 
Q 1616 4238 1336 4038 
Q 1056 3838 1056 3469 
Q 1056 3159 1242 3001 
Q 1428 2844 1947 2747 
L 2328 2669 
Q 3034 2534 3370 2195 
Q 3706 1856 3706 1288 
Q 3706 609 3251 259 
Q 2797 -91 1919 -91 
Q 1588 -91 1214 -16 
Q 841 59 441 206 
L 441 856 
Q 825 641 1194 531 
Q 1563 422 1919 422 
Q 2459 422 2753 634 
Q 3047 847 3047 1241 
Q 3047 1584 2836 1778 
Q 2625 1972 2144 2069 
L 1759 2144 
Q 1053 2284 737 2584 
Q 422 2884 422 3419 
Q 422 4038 858 4394 
Q 1294 4750 2059 4750 
Q 2388 4750 2728 4690 
Q 3069 4631 3425 4513 
z
" transform="scale(0.015625)"/>
       <path id="DejaVuSans-6c" d="M 603 4863 
L 1178 4863 
L 1178 0 
L 603 0 
L 603 4863 
z
" transform="scale(0.015625)"/>
      </defs>
      <use xlink:href="#DejaVuSans-47"/>
      <use xlink:href="#DejaVuSans-61" x="77.490234"/>
      <use xlink:href="#DejaVuSans-75" x="138.769531"/>
      <use xlink:href="#DejaVuSans-73" x="202.148438"/>
      <use xlink:href="#DejaVuSans-73" x="254.248047"/>
      <use xlink:href="#DejaVuSans-69" x="306.347656"/>
      <use xlink:href="#DejaVuSans-61" x="334.130859"/>
      <use xlink:href="#DejaVuSans-6e" x="395.410156"/>
      <use xlink:href="#DejaVuSans-20" x="458.789062"/>
      <use xlink:href="#DejaVuSans-4d" x="490.576172"/>
      <use xlink:href="#DejaVuSans-65" x="576.855469"/>
      <use xlink:href="#DejaVuSans-72" x="638.378906"/>
      <use xlink:href="#DejaVuSans-67" x="677.742188"/>
      <use xlink:href="#DejaVuSans-65" x="741.21875"/>
      <use xlink:href="#DejaVuSans-64" x="802.742188"/>
      <use xlink:href="#DejaVuSans-20" x="866.21875"/>
      <use xlink:href="#DejaVuSans-28" x="898.005859"/>
      <use xlink:href="#DejaVuSans-53" x="937.019531"/>
      <use xlink:href="#DejaVuSans-6f" x="1000.496094"/>
      <use xlink:href="#DejaVuSans-6c" x="1061.677734"/>
      <use xlink:href="#DejaVuSans-69" x="1089.460938"/>
      <use xlink:href="#DejaVuSans-64" x="1117.244141"/>
      <use xlink:href="#DejaVuSans-29" x="1180.720703"/>
     </g>
    </g>
   </g>
  </g>
 </g>
 <defs>
  <clipPath id="pc4c735dadb">
   <rect x="36.465625" y="7.2" width="669.6" height="163.058824"/>
  </clipPath>
  <clipPath id="paa52279f51">
   <rect x="36.465625" y="202.870588" width="669.6" height="163.058824"/>
  </clipPath>
  <clipPath id="p87029e7ebc">
   <rect x="36.465625" y="398.541176" width="669.6" height="163.058824"/>
  </clipPath>
 </defs>
</svg>