<?xml version="1.0" encoding="utf-8" standalone="no"?>
<!DOCTYPE svg PUBLIC "-//W3C//DTD SVG 1.1//EN"
  "http://www.w3.org/Graphics/SVG/1.1/DTD/svg11.dtd">
<svg xmlns:xlink="http://www.w3.org/1999/xlink" width="866.512358pt" height="337.074375pt" viewBox="0 0 866.512358 337.074375" xmlns="http://www.w3.org/2000/svg" version="1.1">
 <metadata>
  <rdf:RDF xmlns:dc="http://purl.org/dc/elements/1.1/" xmlns:cc="http://creativecommons.org/ns#" xmlns:rdf="http://www.w3.org/1999/02/22-rdf-syntax-ns#">
   <cc:Work>
    <dc:type rdf:resource="http://purl.org/dc/dcmitype/StillImage"/>
    <dc:date>2024-09-20T13:54:14.098763</dc:date>
    <dc:format>image/svg+xml</dc:format>
    <dc:creator>
     <cc:Agent>
      <dc:title>Matplotlib v3.9.0, https://matplotlib.org/</dc:title>
     </cc:Agent>
    </dc:creator>
   </cc:Work>
  </rdf:RDF>
 </metadata>
 <defs>
  <style type="text/css">*{stroke-linejoin: round; stroke-linecap: butt}</style>
 </defs>
 <g id="figure_1">
  <g id="patch_1">
   <path d="M 0 337.074375 
L 866.512358 337.074375 
L 866.512358 0 
L 0 0 
z
" style="fill: #ffffff"/>
  </g>
  <g id="axes_1">
   <g id="patch_2">
    <path d="M 50.14375 299.518125 
L 405.234659 299.518125 
L 405.234659 22.318125 
L 50.14375 22.318125 
z
" style="fill: #ffffff"/>
   </g>
   <g id="PathCollection_1">
    <defs>
     <path id="mdafa6edbd9" d="M 0 3 
C 0.795609 3 1.55874 2.683901 2.12132 2.12132 
C 2.683901 1.55874 3 0.795609 3 0 
C 3 -0.795609 2.683901 -1.55874 2.12132 -2.12132 
C 1.55874 -2.683901 0.795609 -3 0 -3 
C -0.795609 -3 -1.55874 -2.683901 -2.12132 -2.12132 
C -2.683901 -1.55874 -3 -0.795609 -3 0 
C -3 0.795609 -2.683901 1.55874 -2.12132 2.12132 
C -1.55874 2.683901 -0.795609 3 0 3 
z
" style="stroke: #000000"/>
    </defs>
    <g clip-path="url(#pe8837d4f83)">
     <use xlink:href="#mdafa6edbd9" x="130.846229" y="286.918125" style="stroke: #000000"/>
     <use xlink:href="#mdafa6edbd9" x="138.019783" y="286.918125" style="stroke: #000000"/>
     <use xlink:href="#mdafa6edbd9" x="159.540444" y="286.918125" style="stroke: #000000"/>
     <use xlink:href="#mdafa6edbd9" x="173.887552" y="286.918125" style="stroke: #000000"/>
     <use xlink:href="#mdafa6edbd9" x="202.581767" y="286.918125" style="stroke: #000000"/>
     <use xlink:href="#mdafa6edbd9" x="231.275981" y="286.918125" style="stroke: #000000"/>
     <use xlink:href="#mdafa6edbd9" x="245.623089" y="286.918125" style="stroke: #000000"/>
    </g>
   </g>
   <g id="matplotlib.axis_1">
    <g id="xtick_1">
     <g id="line2d_1">
      <defs>
       <path id="mdc69cd3347" d="M 0 0 
L 0 3.5 
" style="stroke: #000000; stroke-width: 0.8"/>
      </defs>
      <g>
       <use xlink:href="#mdc69cd3347" x="102.152014" y="299.518125" style="stroke: #000000; stroke-width: 0.8"/>
      </g>
     </g>
     <g id="text_1">
      <!-- −5 -->
      <g transform="translate(94.780921 314.116563) scale(0.1 -0.1)">
       <defs>
        <path id="DejaVuSans-2212" d="M 678 2272 
L 4684 2272 
L 4684 1741 
L 678 1741 
L 678 2272 
z
" transform="scale(0.015625)"/>
        <path id="DejaVuSans-35" d="M 691 4666 
L 3169 4666 
L 3169 4134 
L 1269 4134 
L 1269 2991 
Q 1406 3038 1543 3061 
Q 1681 3084 1819 3084 
Q 2600 3084 3056 2656 
Q 3513 2228 3513 1497 
Q 3513 744 3044 326 
Q 2575 -91 1722 -91 
Q 1428 -91 1123 -41 
Q 819 9 494 109 
L 494 744 
Q 775 591 1075 516 
Q 1375 441 1709 441 
Q 2250 441 2565 725 
Q 2881 1009 2881 1497 
Q 2881 1984 2565 2268 
Q 2250 2553 1709 2553 
Q 1456 2553 1204 2497 
Q 953 2441 691 2322 
L 691 4666 
z
" transform="scale(0.015625)"/>
       </defs>
       <use xlink:href="#DejaVuSans-2212"/>
       <use xlink:href="#DejaVuSans-35" x="83.789062"/>
      </g>
     </g>
    </g>
    <g id="xtick_2">
     <g id="line2d_2">
      <g>
       <use xlink:href="#mdc69cd3347" x="173.887552" y="299.518125" style="stroke: #000000; stroke-width: 0.8"/>
      </g>
     </g>
     <g id="text_2">
      <!-- 0 -->
      <g transform="translate(170.706302 314.116563) scale(0.1 -0.1)">
       <defs>
        <path id="DejaVuSans-30" d="M 2034 4250 
Q 1547 4250 1301 3770 
Q 1056 3291 1056 2328 
Q 1056 1369 1301 889 
Q 1547 409 2034 409 
Q 2525 409 2770 889 
Q 3016 1369 3016 2328 
Q 3016 3291 2770 3770 
Q 2525 4250 2034 4250 
z
M 2034 4750 
Q 2819 4750 3233 4129 
Q 3647 3509 3647 2328 
Q 3647 1150 3233 529 
Q 2819 -91 2034 -91 
Q 1250 -91 836 529 
Q 422 1150 422 2328 
Q 422 3509 836 4129 
Q 1250 4750 2034 4750 
z
" transform="scale(0.015625)"/>
       </defs>
       <use xlink:href="#DejaVuSans-30"/>
      </g>
     </g>
    </g>
    <g id="xtick_3">
     <g id="line2d_3">
      <g>
       <use xlink:href="#mdc69cd3347" x="245.623089" y="299.518125" style="stroke: #000000; stroke-width: 0.8"/>
      </g>
     </g>
     <g id="text_3">
      <!-- 5 -->
      <g transform="translate(242.441839 314.116563) scale(0.1 -0.1)">
       <use xlink:href="#DejaVuSans-35"/>
      </g>
     </g>
    </g>
    <g id="xtick_4">
     <g id="line2d_4">
      <g>
       <use xlink:href="#mdc69cd3347" x="317.358626" y="299.518125" style="stroke: #000000; stroke-width: 0.8"/>
      </g>
     </g>
     <g id="text_4">
      <!-- 10 -->
      <g transform="translate(310.996126 314.116563) scale(0.1 -0.1)">
       <defs>
        <path id="DejaVuSans-31" d="M 794 531 
L 1825 531 
L 1825 4091 
L 703 3866 
L 703 4441 
L 1819 4666 
L 2450 4666 
L 2450 531 
L 3481 531 
L 3481 0 
L 794 0 
L 794 531 
z
" transform="scale(0.015625)"/>
       </defs>
       <use xlink:href="#DejaVuSans-31"/>
       <use xlink:href="#DejaVuSans-30" x="63.623047"/>
      </g>
     </g>
    </g>
    <g id="xtick_5">
     <g id="line2d_5">
      <g>
       <use xlink:href="#mdc69cd3347" x="389.094163" y="299.518125" style="stroke: #000000; stroke-width: 0.8"/>
      </g>
     </g>
     <g id="text_5">
      <!-- 15 -->
      <g transform="translate(382.731663 314.116563) scale(0.1 -0.1)">
       <use xlink:href="#DejaVuSans-31"/>
       <use xlink:href="#DejaVuSans-35" x="63.623047"/>
      </g>
     </g>
    </g>
    <g id="text_6">
     <!-- x -->
     <g transform="translate(224.72983 327.794688) scale(0.1 -0.1)">
      <defs>
       <path id="DejaVuSans-78" d="M 3513 3500 
L 2247 1797 
L 3578 0 
L 2900 0 
L 1881 1375 
L 863 0 
L 184 0 
L 1544 1831 
L 300 3500 
L 978 3500 
L 1906 2253 
L 2834 3500 
L 3513 3500 
z
" transform="scale(0.015625)"/>
      </defs>
      <use xlink:href="#DejaVuSans-78"/>
     </g>
    </g>
   </g>
   <g id="matplotlib.axis_2">
    <g id="ytick_1">
     <g id="line2d_6">
      <defs>
       <path id="mabc89aaf25" d="M 0 0 
L -3.5 0 
" style="stroke: #000000; stroke-width: 0.8"/>
      </defs>
      <g>
       <use xlink:href="#mabc89aaf25" x="50.14375" y="286.918125" style="stroke: #000000; stroke-width: 0.8"/>
      </g>
     </g>
     <g id="text_7">
      <!-- 0.00 -->
      <g transform="translate(20.878125 290.717344) scale(0.1 -0.1)">
       <defs>
        <path id="DejaVuSans-2e" d="M 684 794 
L 1344 794 
L 1344 0 
L 684 0 
L 684 794 
z
" transform="scale(0.015625)"/>
       </defs>
       <use xlink:href="#DejaVuSans-30"/>
       <use xlink:href="#DejaVuSans-2e" x="63.623047"/>
       <use xlink:href="#DejaVuSans-30" x="95.410156"/>
       <use xlink:href="#DejaVuSans-30" x="159.033203"/>
      </g>
     </g>
    </g>
    <g id="ytick_2">
     <g id="line2d_7">
      <g>
       <use xlink:href="#mabc89aaf25" x="50.14375" y="251.513066" style="stroke: #000000; stroke-width: 0.8"/>
      </g>
     </g>
     <g id="text_8">
      <!-- 0.05 -->
      <g transform="translate(20.878125 255.312284) scale(0.1 -0.1)">
       <use xlink:href="#DejaVuSans-30"/>
       <use xlink:href="#DejaVuSans-2e" x="63.623047"/>
       <use xlink:href="#DejaVuSans-30" x="95.410156"/>
       <use xlink:href="#DejaVuSans-35" x="159.033203"/>
      </g>
     </g>
    </g>
    <g id="ytick_3">
     <g id="line2d_8">
      <g>
       <use xlink:href="#mabc89aaf25" x="50.14375" y="216.108006" style="stroke: #000000; stroke-width: 0.8"/>
      </g>
     </g>
     <g id="text_9">
      <!-- 0.10 -->
      <g transform="translate(20.878125 219.907225) scale(0.1 -0.1)">
       <use xlink:href="#DejaVuSans-30"/>
       <use xlink:href="#DejaVuSans-2e" x="63.623047"/>
       <use xlink:href="#DejaVuSans-31" x="95.410156"/>
       <use xlink:href="#DejaVuSans-30" x="159.033203"/>
      </g>
     </g>
    </g>
    <g id="ytick_4">
     <g id="line2d_9">
      <g>
       <use xlink:href="#mabc89aaf25" x="50.14375" y="180.702947" style="stroke: #000000; stroke-width: 0.8"/>
      </g>
     </g>
     <g id="text_10">
      <!-- 0.15 -->
      <g transform="translate(20.878125 184.502166) scale(0.1 -0.1)">
       <use xlink:href="#DejaVuSans-30"/>
       <use xlink:href="#DejaVuSans-2e" x="63.623047"/>
       <use xlink:href="#DejaVuSans-31" x="95.410156"/>
       <use xlink:href="#DejaVuSans-35" x="159.033203"/>
      </g>
     </g>
    </g>
    <g id="ytick_5">
     <g id="line2d_10">
      <g>
       <use xlink:href="#mabc89aaf25" x="50.14375" y="145.297888" style="stroke: #000000; stroke-width: 0.8"/>
      </g>
     </g>
     <g id="text_11">
      <!-- 0.20 -->
      <g transform="translate(20.878125 149.097107) scale(0.1 -0.1)">
       <defs>
        <path id="DejaVuSans-32" d="M 1228 531 
L 3431 531 
L 3431 0 
L 469 0 
L 469 531 
Q 828 903 1448 1529 
Q 2069 2156 2228 2338 
Q 2531 2678 2651 2914 
Q 2772 3150 2772 3378 
Q 2772 3750 2511 3984 
Q 2250 4219 1831 4219 
Q 1534 4219 1204 4116 
Q 875 4013 500 3803 
L 500 4441 
Q 881 4594 1212 4672 
Q 1544 4750 1819 4750 
Q 2544 4750 2975 4387 
Q 3406 4025 3406 3419 
Q 3406 3131 3298 2873 
Q 3191 2616 2906 2266 
Q 2828 2175 2409 1742 
Q 1991 1309 1228 531 
z
" transform="scale(0.015625)"/>
       </defs>
       <use xlink:href="#DejaVuSans-30"/>
       <use xlink:href="#DejaVuSans-2e" x="63.623047"/>
       <use xlink:href="#DejaVuSans-32" x="95.410156"/>
       <use xlink:href="#DejaVuSans-30" x="159.033203"/>
      </g>
     </g>
    </g>
    <g id="ytick_6">
     <g id="line2d_11">
      <g>
       <use xlink:href="#mabc89aaf25" x="50.14375" y="109.892829" style="stroke: #000000; stroke-width: 0.8"/>
      </g>
     </g>
     <g id="text_12">
      <!-- 0.25 -->
      <g transform="translate(20.878125 113.692047) scale(0.1 -0.1)">
       <use xlink:href="#DejaVuSans-30"/>
       <use xlink:href="#DejaVuSans-2e" x="63.623047"/>
       <use xlink:href="#DejaVuSans-32" x="95.410156"/>
       <use xlink:href="#DejaVuSans-35" x="159.033203"/>
      </g>
     </g>
    </g>
    <g id="ytick_7">
     <g id="line2d_12">
      <g>
       <use xlink:href="#mabc89aaf25" x="50.14375" y="74.487769" style="stroke: #000000; stroke-width: 0.8"/>
      </g>
     </g>
     <g id="text_13">
      <!-- 0.30 -->
      <g transform="translate(20.878125 78.286988) scale(0.1 -0.1)">
       <defs>
        <path id="DejaVuSans-33" d="M 2597 2516 
Q 3050 2419 3304 2112 
Q 3559 1806 3559 1356 
Q 3559 666 3084 287 
Q 2609 -91 1734 -91 
Q 1441 -91 1130 -33 
Q 819 25 488 141 
L 488 750 
Q 750 597 1062 519 
Q 1375 441 1716 441 
Q 2309 441 2620 675 
Q 2931 909 2931 1356 
Q 2931 1769 2642 2001 
Q 2353 2234 1838 2234 
L 1294 2234 
L 1294 2753 
L 1863 2753 
Q 2328 2753 2575 2939 
Q 2822 3125 2822 3475 
Q 2822 3834 2567 4026 
Q 2313 4219 1838 4219 
Q 1578 4219 1281 4162 
Q 984 4106 628 3988 
L 628 4550 
Q 988 4650 1302 4700 
Q 1616 4750 1894 4750 
Q 2613 4750 3031 4423 
Q 3450 4097 3450 3541 
Q 3450 3153 3228 2886 
Q 3006 2619 2597 2516 
z
" transform="scale(0.015625)"/>
       </defs>
       <use xlink:href="#DejaVuSans-30"/>
       <use xlink:href="#DejaVuSans-2e" x="63.623047"/>
       <use xlink:href="#DejaVuSans-33" x="95.410156"/>
       <use xlink:href="#DejaVuSans-30" x="159.033203"/>
      </g>
     </g>
    </g>
    <g id="ytick_8">
     <g id="line2d_13">
      <g>
       <use xlink:href="#mabc89aaf25" x="50.14375" y="39.08271" style="stroke: #000000; stroke-width: 0.8"/>
      </g>
     </g>
     <g id="text_14">
      <!-- 0.35 -->
      <g transform="translate(20.878125 42.881929) scale(0.1 -0.1)">
       <use xlink:href="#DejaVuSans-30"/>
       <use xlink:href="#DejaVuSans-2e" x="63.623047"/>
       <use xlink:href="#DejaVuSans-33" x="95.410156"/>
       <use xlink:href="#DejaVuSans-35" x="159.033203"/>
      </g>
     </g>
    </g>
    <g id="text_15">
     <!-- Density -->
     <g transform="translate(14.798438 179.926719) rotate(-90) scale(0.1 -0.1)">
      <defs>
       <path id="DejaVuSans-44" d="M 1259 4147 
L 1259 519 
L 2022 519 
Q 2988 519 3436 956 
Q 3884 1394 3884 2338 
Q 3884 3275 3436 3711 
Q 2988 4147 2022 4147 
L 1259 4147 
z
M 628 4666 
L 1925 4666 
Q 3281 4666 3915 4102 
Q 4550 3538 4550 2338 
Q 4550 1131 3912 565 
Q 3275 0 1925 0 
L 628 0 
L 628 4666 
z
" transform="scale(0.015625)"/>
       <path id="DejaVuSans-65" d="M 3597 1894 
L 3597 1613 
L 953 1613 
Q 991 1019 1311 708 
Q 1631 397 2203 397 
Q 2534 397 2845 478 
Q 3156 559 3463 722 
L 3463 178 
Q 3153 47 2828 -22 
Q 2503 -91 2169 -91 
Q 1331 -91 842 396 
Q 353 884 353 1716 
Q 353 2575 817 3079 
Q 1281 3584 2069 3584 
Q 2775 3584 3186 3129 
Q 3597 2675 3597 1894 
z
M 3022 2063 
Q 3016 2534 2758 2815 
Q 2500 3097 2075 3097 
Q 1594 3097 1305 2825 
Q 1016 2553 972 2059 
L 3022 2063 
z
" transform="scale(0.015625)"/>
       <path id="DejaVuSans-6e" d="M 3513 2113 
L 3513 0 
L 2938 0 
L 2938 2094 
Q 2938 2591 2744 2837 
Q 2550 3084 2163 3084 
Q 1697 3084 1428 2787 
Q 1159 2491 1159 1978 
L 1159 0 
L 581 0 
L 581 3500 
L 1159 3500 
L 1159 2956 
Q 1366 3272 1645 3428 
Q 1925 3584 2291 3584 
Q 2894 3584 3203 3211 
Q 3513 2838 3513 2113 
z
" transform="scale(0.015625)"/>
       <path id="DejaVuSans-73" d="M 2834 3397 
L 2834 2853 
Q 2591 2978 2328 3040 
Q 2066 3103 1784 3103 
Q 1356 3103 1142 2972 
Q 928 2841 928 2578 
Q 928 2378 1081 2264 
Q 1234 2150 1697 2047 
L 1894 2003 
Q 2506 1872 2764 1633 
Q 3022 1394 3022 966 
Q 3022 478 2636 193 
Q 2250 -91 1575 -91 
Q 1294 -91 989 -36 
Q 684 19 347 128 
L 347 722 
Q 666 556 975 473 
Q 1284 391 1588 391 
Q 1994 391 2212 530 
Q 2431 669 2431 922 
Q 2431 1156 2273 1281 
Q 2116 1406 1581 1522 
L 1381 1569 
Q 847 1681 609 1914 
Q 372 2147 372 2553 
Q 372 3047 722 3315 
Q 1072 3584 1716 3584 
Q 2034 3584 2315 3537 
Q 2597 3491 2834 3397 
z
" transform="scale(0.015625)"/>
       <path id="DejaVuSans-69" d="M 603 3500 
L 1178 3500 
L 1178 0 
L 603 0 
L 603 3500 
z
M 603 4863 
L 1178 4863 
L 1178 4134 
L 603 4134 
L 603 4863 
z
" transform="scale(0.015625)"/>
       <path id="DejaVuSans-74" d="M 1172 4494 
L 1172 3500 
L 2356 3500 
L 2356 3053 
L 1172 3053 
L 1172 1153 
Q 1172 725 1289 603 
Q 1406 481 1766 481 
L 2356 481 
L 2356 0 
L 1766 0 
Q 1100 0 847 248 
Q 594 497 594 1153 
L 594 3053 
L 172 3053 
L 172 3500 
L 594 3500 
L 594 4494 
L 1172 4494 
z
" transform="scale(0.015625)"/>
       <path id="DejaVuSans-79" d="M 2059 -325 
Q 1816 -950 1584 -1140 
Q 1353 -1331 966 -1331 
L 506 -1331 
L 506 -850 
L 844 -850 
Q 1081 -850 1212 -737 
Q 1344 -625 1503 -206 
L 1606 56 
L 191 3500 
L 800 3500 
L 1894 763 
L 2988 3500 
L 3597 3500 
L 2059 -325 
z
" transform="scale(0.015625)"/>
      </defs>
      <use xlink:href="#DejaVuSans-44"/>
      <use xlink:href="#DejaVuSans-65" x="77.001953"/>
      <use xlink:href="#DejaVuSans-6e" x="138.525391"/>
      <use xlink:href="#DejaVuSans-73" x="201.904297"/>
      <use xlink:href="#DejaVuSans-69" x="254.003906"/>
      <use xlink:href="#DejaVuSans-74" x="281.787109"/>
      <use xlink:href="#DejaVuSans-79" x="320.996094"/>
     </g>
    </g>
   </g>
   <g id="line2d_14">
    <path d="M 66.284246 286.918125 
L 113.784804 286.826697 
L 115.40047 286.628634 
L 116.693002 286.23617 
L 117.662401 285.66981 
L 118.308667 285.083691 
L 118.954933 284.261162 
L 119.601199 283.125198 
L 120.247465 281.581469 
L 120.893731 279.517481 
L 121.539997 276.8029 
L 122.186264 273.291535 
L 122.83253 268.825377 
L 123.478796 263.241079 
L 124.448195 252.422811 
L 125.417594 238.273998 
L 126.386993 220.522652 
L 127.679525 191.363363 
L 129.295191 148.086312 
L 131.880255 77.872439 
L 132.849654 57.338084 
L 133.49592 46.927202 
L 134.142186 39.653972 
L 134.46532 37.295496 
L 134.788453 35.82596 
L 135.111586 35.261258 
L 135.434719 35.607516 
L 135.757852 36.860976 
L 136.080985 39.00807 
L 136.727251 45.881456 
L 137.373517 55.93633 
L 138.342916 76.046661 
L 139.635448 109.400682 
L 142.866779 197.351111 
L 144.159311 225.36494 
L 145.12871 242.192676 
L 146.098109 255.462623 
L 147.067508 265.505187 
L 148.036908 272.80921 
L 149.006307 277.920068 
L 149.652573 280.370997 
L 150.298839 282.222876 
L 150.945105 283.599394 
L 151.591371 284.606107 
L 152.56077 285.609793 
L 153.530169 286.201516 
L 154.499569 286.538211 
L 155.792101 286.763175 
L 158.054032 286.890071 
L 164.839826 286.918068 
L 389.094163 286.918125 
L 389.094163 286.918125 
" clip-path="url(#pe8837d4f83)" style="fill: none; stroke: #1f77b4; stroke-width: 1.5; stroke-linecap: square"/>
   </g>
   <g id="line2d_15">
    <path d="M 66.284246 286.918125 
L 131.880255 286.818497 
L 135.111586 286.575107 
L 137.050384 286.236657 
L 138.666049 285.748311 
L 139.958581 285.15273 
L 141.251114 284.302619 
L 142.543646 283.113965 
L 143.513045 281.940423 
L 144.482444 280.472089 
L 145.451843 278.656786 
L 146.421242 276.439556 
L 147.390642 273.764443 
L 148.683174 269.391505 
L 149.975706 263.991609 
L 151.268238 257.476149 
L 152.56077 249.800099 
L 154.176436 238.60203 
L 155.792101 225.81244 
L 158.054032 206.038615 
L 161.608496 174.818845 
L 163.224161 162.748978 
L 164.516693 154.931464 
L 165.486092 150.409499 
L 166.132358 148.111552 
L 166.778625 146.424304 
L 167.424891 145.370798 
L 167.748024 145.086569 
L 168.071157 144.965517 
L 168.39429 145.008061 
L 168.717423 145.214053 
L 169.363689 146.112974 
L 170.009955 147.64991 
L 170.656221 149.803831 
L 171.62562 154.125589 
L 172.595019 159.638636 
L 173.887552 168.560795 
L 175.503217 181.606663 
L 178.411414 207.551618 
L 180.996479 229.849037 
L 182.612144 242.187401 
L 184.227809 252.854273 
L 185.520341 260.087446 
L 186.812874 266.170968 
L 188.105406 271.168343 
L 189.397938 275.180519 
L 190.69047 278.330491 
L 191.983002 280.749952 
L 193.275535 282.568733 
L 194.568067 283.907272 
L 195.860599 284.871965 
L 197.153131 285.55298 
L 198.768797 286.116055 
L 200.707595 286.510248 
L 203.292659 286.762917 
L 207.493389 286.890539 
L 219.772445 286.918067 
L 389.094163 286.918125 
L 389.094163 286.918125 
" clip-path="url(#pe8837d4f83)" style="fill: none; stroke: #ff7f0e; stroke-width: 1.5; stroke-linecap: square"/>
   </g>
   <g id="line2d_16">
    <path d="M 66.284246 286.918125 
L 162.577895 286.812815 
L 168.717423 286.570055 
L 172.918153 286.181992 
L 176.149483 285.6574 
L 178.734547 285.024978 
L 180.996479 284.262794 
L 183.25841 283.253771 
L 185.197208 282.150764 
L 187.136007 280.789332 
L 189.074805 279.132591 
L 191.013603 277.145342 
L 192.952402 274.796398 
L 194.8912 272.06126 
L 196.829998 268.925013 
L 198.768797 265.385259 
L 201.030728 260.763701 
L 203.615792 254.898774 
L 206.52399 247.721542 
L 215.248582 225.714519 
L 217.18738 221.525529 
L 219.126179 217.878795 
L 220.741844 215.340566 
L 222.034376 213.681327 
L 223.326908 212.380079 
L 224.296308 211.65147 
L 225.265707 211.142184 
L 226.235106 210.856752 
L 227.204505 210.797719 
L 228.173904 210.965614 
L 229.143303 211.358938 
L 230.112702 211.974184 
L 231.082102 212.805894 
L 232.374634 214.238637 
L 233.667166 216.020772 
L 235.282831 218.697925 
L 236.898496 221.815837 
L 238.837295 226.039539 
L 241.422359 232.272052 
L 245.946222 243.934803 
L 249.823818 253.692515 
L 252.408883 259.665862 
L 254.670814 264.400032 
L 256.932746 268.61163 
L 258.871544 271.785653 
L 260.810342 274.557768 
L 262.749141 276.941847 
L 264.687939 278.961617 
L 266.626737 280.647759 
L 268.565535 282.035204 
L 270.504334 283.160764 
L 272.766265 284.191857 
L 275.028196 284.971874 
L 277.613261 285.62011 
L 280.521458 286.11579 
L 284.075922 286.488425 
L 288.922918 286.746222 
L 296.354978 286.881627 
L 315.096695 286.917789 
L 389.094163 286.918125 
L 389.094163 286.918125 
" clip-path="url(#pe8837d4f83)" style="fill: none; stroke: #2ca02c; stroke-width: 1.5; stroke-linecap: square"/>
   </g>
   <g id="line2d_17">
    <path d="M 66.284246 286.918125 
L 113.784804 286.826686 
L 115.40047 286.628604 
L 116.693002 286.236106 
L 117.662401 285.669699 
L 118.308667 285.083533 
L 118.954933 284.260938 
L 119.601199 283.12488 
L 120.247465 281.581021 
L 120.893731 279.516851 
L 121.539997 276.80202 
L 122.186264 273.29031 
L 122.83253 268.823682 
L 123.478796 263.238742 
L 124.448195 252.419062 
L 125.417594 238.268045 
L 126.386993 220.513297 
L 127.679525 191.346543 
L 129.295191 148.05219 
L 131.880255 77.772767 
L 132.849654 57.191902 
L 133.49592 46.739585 
L 134.142186 39.414281 
L 134.46532 37.025045 
L 134.788453 35.521152 
L 135.111586 34.918125 
L 135.434719 35.221683 
L 135.757852 36.42763 
L 136.080985 38.52192 
L 136.727251 45.271722 
L 137.373517 55.175114 
L 138.342916 74.993961 
L 139.635448 107.804709 
L 142.543646 185.627875 
L 143.836178 213.512108 
L 144.805577 229.97668 
L 145.774976 242.46341 
L 146.421242 248.665664 
L 147.067508 253.294499 
L 147.713775 256.485139 
L 148.360041 258.384099 
L 148.683174 258.895488 
L 149.006307 259.138903 
L 149.32944 259.13169 
L 149.652573 258.890449 
L 149.975706 258.430931 
L 150.621972 256.915473 
L 151.268238 254.692603 
L 152.237637 250.230046 
L 153.207036 244.636161 
L 154.499569 235.763569 
L 156.115234 222.946079 
L 158.700298 200.134778 
L 161.608496 174.731262 
L 163.224161 162.628581 
L 164.516693 154.775772 
L 165.486092 150.221154 
L 166.132358 147.898039 
L 166.778625 146.182569 
L 167.424891 145.097468 
L 167.748024 144.796068 
L 168.071157 144.656869 
L 168.39429 144.680239 
L 168.717423 144.865982 
L 169.363689 145.720965 
L 170.009955 147.209002 
L 170.656221 149.308582 
L 171.62562 153.537478 
L 172.595019 158.942333 
L 173.887552 167.692699 
L 175.503217 180.471549 
L 181.965878 234.384114 
L 183.581543 244.96914 
L 184.874075 252.050047 
L 186.166608 257.856557 
L 187.136007 261.389917 
L 188.105406 264.250358 
L 189.074805 266.47782 
L 190.044204 268.119344 
L 191.013603 269.225888 
L 191.659869 269.692158 
L 192.306136 269.959175 
L 192.952402 270.041825 
L 193.598668 269.954403 
L 194.568067 269.533854 
L 195.537466 268.803313 
L 196.506865 267.800675 
L 197.799397 266.097784 
L 199.09193 264.038079 
L 200.707595 261.047 
L 202.646393 256.965357 
L 204.908324 251.689214 
L 208.139655 243.545629 
L 214.279183 227.970589 
L 216.541114 222.867553 
L 218.479913 219.02633 
L 220.095578 216.296612 
L 221.38811 214.467651 
L 222.680642 212.984549 
L 223.973174 211.870245 
L 224.942574 211.287254 
L 225.911973 210.926823 
L 226.881372 210.792166 
L 227.850771 210.884486 
L 228.82017 211.202958 
L 229.789569 211.744741 
L 230.758969 212.505021 
L 232.051501 213.846738 
L 233.344033 215.54389 
L 234.959698 218.125105 
L 236.575363 221.160279 
L 238.514162 225.304067 
L 240.776093 230.664659 
L 244.330557 239.736265 
L 249.500685 252.909911 
L 252.408883 259.665862 
L 254.670814 264.400032 
L 256.932746 268.61163 
L 258.871544 271.785653 
L 260.810342 274.557768 
L 262.749141 276.941847 
L 264.687939 278.961617 
L 266.626737 280.647759 
L 268.565535 282.035204 
L 270.504334 283.160764 
L 272.766265 284.191857 
L 275.028196 284.971874 
L 277.613261 285.62011 
L 280.521458 286.11579 
L 284.075922 286.488425 
L 288.922918 286.746222 
L 296.354978 286.881627 
L 315.096695 286.917789 
L 389.094163 286.918125 
L 389.094163 286.918125 
" clip-path="url(#pe8837d4f83)" style="fill: none; stroke-dasharray: 5.55,2.4; stroke-dashoffset: 0; stroke: #000000; stroke-width: 1.5"/>
   </g>
   <g id="patch_3">
    <path d="M 50.14375 299.518125 
L 50.14375 22.318125 
" style="fill: none; stroke: #000000; stroke-width: 0.8; stroke-linejoin: miter; stroke-linecap: square"/>
   </g>
   <g id="patch_4">
    <path d="M 405.234659 299.518125 
L 405.234659 22.318125 
" style="fill: none; stroke: #000000; stroke-width: 0.8; stroke-linejoin: miter; stroke-linecap: square"/>
   </g>
   <g id="patch_5">
    <path d="M 50.14375 299.518125 
L 405.234659 299.518125 
" style="fill: none; stroke: #000000; stroke-width: 0.8; stroke-linejoin: miter; stroke-linecap: square"/>
   </g>
   <g id="patch_6">
    <path d="M 50.14375 22.318125 
L 405.234659 22.318125 
" style="fill: none; stroke: #000000; stroke-width: 0.8; stroke-linejoin: miter; stroke-linecap: square"/>
   </g>
   <g id="text_16">
    <!-- Updated Gaussian Mixture Model and Data Points with New Variances -->
    <g transform="translate(18.378267 16.318125) scale(0.12 -0.12)">
     <defs>
      <path id="DejaVuSans-55" d="M 556 4666 
L 1191 4666 
L 1191 1831 
Q 1191 1081 1462 751 
Q 1734 422 2344 422 
Q 2950 422 3222 751 
Q 3494 1081 3494 1831 
L 3494 4666 
L 4128 4666 
L 4128 1753 
Q 4128 841 3676 375 
Q 3225 -91 2344 -91 
Q 1459 -91 1007 375 
Q 556 841 556 1753 
L 556 4666 
z
" transform="scale(0.015625)"/>
      <path id="DejaVuSans-70" d="M 1159 525 
L 1159 -1331 
L 581 -1331 
L 581 3500 
L 1159 3500 
L 1159 2969 
Q 1341 3281 1617 3432 
Q 1894 3584 2278 3584 
Q 2916 3584 3314 3078 
Q 3713 2572 3713 1747 
Q 3713 922 3314 415 
Q 2916 -91 2278 -91 
Q 1894 -91 1617 61 
Q 1341 213 1159 525 
z
M 3116 1747 
Q 3116 2381 2855 2742 
Q 2594 3103 2138 3103 
Q 1681 3103 1420 2742 
Q 1159 2381 1159 1747 
Q 1159 1113 1420 752 
Q 1681 391 2138 391 
Q 2594 391 2855 752 
Q 3116 1113 3116 1747 
z
" transform="scale(0.015625)"/>
      <path id="DejaVuSans-64" d="M 2906 2969 
L 2906 4863 
L 3481 4863 
L 3481 0 
L 2906 0 
L 2906 525 
Q 2725 213 2448 61 
Q 2172 -91 1784 -91 
Q 1150 -91 751 415 
Q 353 922 353 1747 
Q 353 2572 751 3078 
Q 1150 3584 1784 3584 
Q 2172 3584 2448 3432 
Q 2725 3281 2906 2969 
z
M 947 1747 
Q 947 1113 1208 752 
Q 1469 391 1925 391 
Q 2381 391 2643 752 
Q 2906 1113 2906 1747 
Q 2906 2381 2643 2742 
Q 2381 3103 1925 3103 
Q 1469 3103 1208 2742 
Q 947 2381 947 1747 
z
" transform="scale(0.015625)"/>
      <path id="DejaVuSans-61" d="M 2194 1759 
Q 1497 1759 1228 1600 
Q 959 1441 959 1056 
Q 959 750 1161 570 
Q 1363 391 1709 391 
Q 2188 391 2477 730 
Q 2766 1069 2766 1631 
L 2766 1759 
L 2194 1759 
z
M 3341 1997 
L 3341 0 
L 2766 0 
L 2766 531 
Q 2569 213 2275 61 
Q 1981 -91 1556 -91 
Q 1019 -91 701 211 
Q 384 513 384 1019 
Q 384 1609 779 1909 
Q 1175 2209 1959 2209 
L 2766 2209 
L 2766 2266 
Q 2766 2663 2505 2880 
Q 2244 3097 1772 3097 
Q 1472 3097 1187 3025 
Q 903 2953 641 2809 
L 641 3341 
Q 956 3463 1253 3523 
Q 1550 3584 1831 3584 
Q 2591 3584 2966 3190 
Q 3341 2797 3341 1997 
z
" transform="scale(0.015625)"/>
      <path id="DejaVuSans-20" transform="scale(0.015625)"/>
      <path id="DejaVuSans-47" d="M 3809 666 
L 3809 1919 
L 2778 1919 
L 2778 2438 
L 4434 2438 
L 4434 434 
Q 4069 175 3628 42 
Q 3188 -91 2688 -91 
Q 1594 -91 976 548 
Q 359 1188 359 2328 
Q 359 3472 976 4111 
Q 1594 4750 2688 4750 
Q 3144 4750 3555 4637 
Q 3966 4525 4313 4306 
L 4313 3634 
Q 3963 3931 3569 4081 
Q 3175 4231 2741 4231 
Q 1884 4231 1454 3753 
Q 1025 3275 1025 2328 
Q 1025 1384 1454 906 
Q 1884 428 2741 428 
Q 3075 428 3337 486 
Q 3600 544 3809 666 
z
" transform="scale(0.015625)"/>
      <path id="DejaVuSans-75" d="M 544 1381 
L 544 3500 
L 1119 3500 
L 1119 1403 
Q 1119 906 1312 657 
Q 1506 409 1894 409 
Q 2359 409 2629 706 
Q 2900 1003 2900 1516 
L 2900 3500 
L 3475 3500 
L 3475 0 
L 2900 0 
L 2900 538 
Q 2691 219 2414 64 
Q 2138 -91 1772 -91 
Q 1169 -91 856 284 
Q 544 659 544 1381 
z
M 1991 3584 
L 1991 3584 
z
" transform="scale(0.015625)"/>
      <path id="DejaVuSans-4d" d="M 628 4666 
L 1569 4666 
L 2759 1491 
L 3956 4666 
L 4897 4666 
L 4897 0 
L 4281 0 
L 4281 4097 
L 3078 897 
L 2444 897 
L 1241 4097 
L 1241 0 
L 628 0 
L 628 4666 
z
" transform="scale(0.015625)"/>
      <path id="DejaVuSans-72" d="M 2631 2963 
Q 2534 3019 2420 3045 
Q 2306 3072 2169 3072 
Q 1681 3072 1420 2755 
Q 1159 2438 1159 1844 
L 1159 0 
L 581 0 
L 581 3500 
L 1159 3500 
L 1159 2956 
Q 1341 3275 1631 3429 
Q 1922 3584 2338 3584 
Q 2397 3584 2469 3576 
Q 2541 3569 2628 3553 
L 2631 2963 
z
" transform="scale(0.015625)"/>
      <path id="DejaVuSans-6f" d="M 1959 3097 
Q 1497 3097 1228 2736 
Q 959 2375 959 1747 
Q 959 1119 1226 758 
Q 1494 397 1959 397 
Q 2419 397 2687 759 
Q 2956 1122 2956 1747 
Q 2956 2369 2687 2733 
Q 2419 3097 1959 3097 
z
M 1959 3584 
Q 2709 3584 3137 3096 
Q 3566 2609 3566 1747 
Q 3566 888 3137 398 
Q 2709 -91 1959 -91 
Q 1206 -91 779 398 
Q 353 888 353 1747 
Q 353 2609 779 3096 
Q 1206 3584 1959 3584 
z
" transform="scale(0.015625)"/>
      <path id="DejaVuSans-6c" d="M 603 4863 
L 1178 4863 
L 1178 0 
L 603 0 
L 603 4863 
z
" transform="scale(0.015625)"/>
      <path id="DejaVuSans-50" d="M 1259 4147 
L 1259 2394 
L 2053 2394 
Q 2494 2394 2734 2622 
Q 2975 2850 2975 3272 
Q 2975 3691 2734 3919 
Q 2494 4147 2053 4147 
L 1259 4147 
z
M 628 4666 
L 2053 4666 
Q 2838 4666 3239 4311 
Q 3641 3956 3641 3272 
Q 3641 2581 3239 2228 
Q 2838 1875 2053 1875 
L 1259 1875 
L 1259 0 
L 628 0 
L 628 4666 
z
" transform="scale(0.015625)"/>
      <path id="DejaVuSans-77" d="M 269 3500 
L 844 3500 
L 1563 769 
L 2278 3500 
L 2956 3500 
L 3675 769 
L 4391 3500 
L 4966 3500 
L 4050 0 
L 3372 0 
L 2619 2869 
L 1863 0 
L 1184 0 
L 269 3500 
z
" transform="scale(0.015625)"/>
      <path id="DejaVuSans-68" d="M 3513 2113 
L 3513 0 
L 2938 0 
L 2938 2094 
Q 2938 2591 2744 2837 
Q 2550 3084 2163 3084 
Q 1697 3084 1428 2787 
Q 1159 2491 1159 1978 
L 1159 0 
L 581 0 
L 581 4863 
L 1159 4863 
L 1159 2956 
Q 1366 3272 1645 3428 
Q 1925 3584 2291 3584 
Q 2894 3584 3203 3211 
Q 3513 2838 3513 2113 
z
" transform="scale(0.015625)"/>
      <path id="DejaVuSans-4e" d="M 628 4666 
L 1478 4666 
L 3547 763 
L 3547 4666 
L 4159 4666 
L 4159 0 
L 3309 0 
L 1241 3903 
L 1241 0 
L 628 0 
L 628 4666 
z
" transform="scale(0.015625)"/>
      <path id="DejaVuSans-56" d="M 1831 0 
L 50 4666 
L 709 4666 
L 2188 738 
L 3669 4666 
L 4325 4666 
L 2547 0 
L 1831 0 
z
" transform="scale(0.015625)"/>
      <path id="DejaVuSans-63" d="M 3122 3366 
L 3122 2828 
Q 2878 2963 2633 3030 
Q 2388 3097 2138 3097 
Q 1578 3097 1268 2742 
Q 959 2388 959 1747 
Q 959 1106 1268 751 
Q 1578 397 2138 397 
Q 2388 397 2633 464 
Q 2878 531 3122 666 
L 3122 134 
Q 2881 22 2623 -34 
Q 2366 -91 2075 -91 
Q 1284 -91 818 406 
Q 353 903 353 1747 
Q 353 2603 823 3093 
Q 1294 3584 2113 3584 
Q 2378 3584 2631 3529 
Q 2884 3475 3122 3366 
z
" transform="scale(0.015625)"/>
     </defs>
     <use xlink:href="#DejaVuSans-55"/>
     <use xlink:href="#DejaVuSans-70" x="73.193359"/>
     <use xlink:href="#DejaVuSans-64" x="136.669922"/>
     <use xlink:href="#DejaVuSans-61" x="200.146484"/>
     <use xlink:href="#DejaVuSans-74" x="261.425781"/>
     <use xlink:href="#DejaVuSans-65" x="300.634766"/>
     <use xlink:href="#DejaVuSans-64" x="362.158203"/>
     <use xlink:href="#DejaVuSans-20" x="425.634766"/>
     <use xlink:href="#DejaVuSans-47" x="457.421875"/>
     <use xlink:href="#DejaVuSans-61" x="534.912109"/>
     <use xlink:href="#DejaVuSans-75" x="596.191406"/>
     <use xlink:href="#DejaVuSans-73" x="659.570312"/>
     <use xlink:href="#DejaVuSans-73" x="711.669922"/>
     <use xlink:href="#DejaVuSans-69" x="763.769531"/>
     <use xlink:href="#DejaVuSans-61" x="791.552734"/>
     <use xlink:href="#DejaVuSans-6e" x="852.832031"/>
     <use xlink:href="#DejaVuSans-20" x="916.210938"/>
     <use xlink:href="#DejaVuSans-4d" x="947.998047"/>
     <use xlink:href="#DejaVuSans-69" x="1034.277344"/>
     <use xlink:href="#DejaVuSans-78" x="1062.060547"/>
     <use xlink:href="#DejaVuSans-74" x="1121.240234"/>
     <use xlink:href="#DejaVuSans-75" x="1160.449219"/>
     <use xlink:href="#DejaVuSans-72" x="1223.828125"/>
     <use xlink:href="#DejaVuSans-65" x="1262.691406"/>
     <use xlink:href="#DejaVuSans-20" x="1324.214844"/>
     <use xlink:href="#DejaVuSans-4d" x="1356.001953"/>
     <use xlink:href="#DejaVuSans-6f" x="1442.28125"/>
     <use xlink:href="#DejaVuSans-64" x="1503.462891"/>
     <use xlink:href="#DejaVuSans-65" x="1566.939453"/>
     <use xlink:href="#DejaVuSans-6c" x="1628.462891"/>
     <use xlink:href="#DejaVuSans-20" x="1656.246094"/>
     <use xlink:href="#DejaVuSans-61" x="1688.033203"/>
     <use xlink:href="#DejaVuSans-6e" x="1749.3125"/>
     <use xlink:href="#DejaVuSans-64" x="1812.691406"/>
     <use xlink:href="#DejaVuSans-20" x="1876.167969"/>
     <use xlink:href="#DejaVuSans-44" x="1907.955078"/>
     <use xlink:href="#DejaVuSans-61" x="1984.957031"/>
     <use xlink:href="#DejaVuSans-74" x="2046.236328"/>
     <use xlink:href="#DejaVuSans-61" x="2085.445312"/>
     <use xlink:href="#DejaVuSans-20" x="2146.724609"/>
     <use xlink:href="#DejaVuSans-50" x="2178.511719"/>
     <use xlink:href="#DejaVuSans-6f" x="2235.189453"/>
     <use xlink:href="#DejaVuSans-69" x="2296.371094"/>
     <use xlink:href="#DejaVuSans-6e" x="2324.154297"/>
     <use xlink:href="#DejaVuSans-74" x="2387.533203"/>
     <use xlink:href="#DejaVuSans-73" x="2426.742188"/>
     <use xlink:href="#DejaVuSans-20" x="2478.841797"/>
     <use xlink:href="#DejaVuSans-77" x="2510.628906"/>
     <use xlink:href="#DejaVuSans-69" x="2592.416016"/>
     <use xlink:href="#DejaVuSans-74" x="2620.199219"/>
     <use xlink:href="#DejaVuSans-68" x="2659.408203"/>
     <use xlink:href="#DejaVuSans-20" x="2722.787109"/>
     <use xlink:href="#DejaVuSans-4e" x="2754.574219"/>
     <use xlink:href="#DejaVuSans-65" x="2829.378906"/>
     <use xlink:href="#DejaVuSans-77" x="2890.902344"/>
     <use xlink:href="#DejaVuSans-20" x="2972.689453"/>
     <use xlink:href="#DejaVuSans-56" x="3004.476562"/>
     <use xlink:href="#DejaVuSans-61" x="3065.134766"/>
     <use xlink:href="#DejaVuSans-72" x="3126.414062"/>
     <use xlink:href="#DejaVuSans-69" x="3167.527344"/>
     <use xlink:href="#DejaVuSans-61" x="3195.310547"/>
     <use xlink:href="#DejaVuSans-6e" x="3256.589844"/>
     <use xlink:href="#DejaVuSans-63" x="3319.96875"/>
     <use xlink:href="#DejaVuSans-65" x="3374.949219"/>
     <use xlink:href="#DejaVuSans-73" x="3436.472656"/>
    </g>
   </g>
   <g id="legend_1">
    <g id="patch_7">
     <path d="M 184.634659 105.274375 
L 398.234659 105.274375 
Q 400.234659 105.274375 400.234659 103.274375 
L 400.234659 29.318125 
Q 400.234659 27.318125 398.234659 27.318125 
L 184.634659 27.318125 
Q 182.634659 27.318125 182.634659 29.318125 
L 182.634659 103.274375 
Q 182.634659 105.274375 184.634659 105.274375 
z
" style="fill: #ffffff; opacity: 0.8; stroke: #cccccc; stroke-linejoin: miter"/>
    </g>
    <g id="PathCollection_2">
     <g>
      <use xlink:href="#mdafa6edbd9" x="196.634659" y="36.291563" style="stroke: #000000"/>
     </g>
    </g>
    <g id="text_17">
     <!-- Data points -->
     <g transform="translate(214.634659 38.916563) scale(0.1 -0.1)">
      <use xlink:href="#DejaVuSans-44"/>
      <use xlink:href="#DejaVuSans-61" x="77.001953"/>
      <use xlink:href="#DejaVuSans-74" x="138.28125"/>
      <use xlink:href="#DejaVuSans-61" x="177.490234"/>
      <use xlink:href="#DejaVuSans-20" x="238.769531"/>
      <use xlink:href="#DejaVuSans-70" x="270.556641"/>
      <use xlink:href="#DejaVuSans-6f" x="334.033203"/>
      <use xlink:href="#DejaVuSans-69" x="395.214844"/>
      <use xlink:href="#DejaVuSans-6e" x="422.998047"/>
      <use xlink:href="#DejaVuSans-74" x="486.376953"/>
      <use xlink:href="#DejaVuSans-73" x="525.585938"/>
     </g>
    </g>
    <g id="line2d_18">
     <path d="M 186.634659 50.49625 
L 196.634659 50.49625 
L 206.634659 50.49625 
" style="fill: none; stroke: #1f77b4; stroke-width: 1.5; stroke-linecap: square"/>
    </g>
    <g id="text_18">
     <!-- $\mathcal{N}(x \mid -2.7, 0.37416573867739417)$ -->
     <g transform="translate(214.634659 53.99625) scale(0.1 -0.1)">
      <defs>
       <path id="STIXNonUnicode-Italic-e23a" d="M 4294 800 
L 4301 800 
Q 5293 4070 5408 4378 
Q 5472 4538 5523 4614 
Q 5830 5088 6253 5088 
Q 6490 5088 6650 4931 
Q 6810 4774 6810 4550 
Q 6810 4378 6720 4272 
Q 6630 4166 6470 4166 
Q 6368 4166 6297 4224 
Q 6227 4282 6198 4349 
Q 6170 4416 6118 4473 
Q 6067 4531 6003 4531 
Q 5939 4531 5881 4508 
Q 5824 4486 5785 4457 
Q 5747 4429 5705 4371 
Q 5664 4314 5638 4275 
Q 5613 4237 5584 4163 
Q 5555 4090 5545 4058 
Q 5536 4026 5510 3952 
Q 5485 3878 5485 3866 
L 4262 -154 
L 4134 -154 
Q 3078 1280 2483 2893 
L 2470 2893 
Q 2406 2579 2358 2361 
Q 2310 2144 2214 1792 
Q 2118 1440 2028 1190 
Q 1939 941 1804 653 
Q 1670 365 1529 185 
Q 1389 6 1203 -115 
Q 1018 -237 813 -237 
Q 576 -237 416 -80 
Q 256 77 256 301 
Q 256 474 345 579 
Q 435 685 595 685 
Q 698 685 768 627 
Q 838 570 867 502 
Q 896 435 947 377 
Q 998 320 1062 320 
Q 1222 320 1369 480 
Q 1517 640 1638 928 
Q 1760 1216 1862 1542 
Q 1965 1869 2057 2288 
Q 2150 2707 2214 3033 
Q 2278 3360 2348 3741 
Q 2419 4122 2458 4294 
L 2630 4294 
Q 2682 4166 2874 3680 
Q 3066 3194 3142 3008 
Q 3219 2822 3392 2422 
Q 3565 2022 3683 1798 
Q 3802 1574 3968 1292 
Q 4134 1011 4294 800 
z
" transform="scale(0.015625)"/>
       <path id="DejaVuSans-28" d="M 1984 4856 
Q 1566 4138 1362 3434 
Q 1159 2731 1159 2009 
Q 1159 1288 1364 580 
Q 1569 -128 1984 -844 
L 1484 -844 
Q 1016 -109 783 600 
Q 550 1309 550 2009 
Q 550 2706 781 3412 
Q 1013 4119 1484 4856 
L 1984 4856 
z
" transform="scale(0.015625)"/>
       <path id="DejaVuSans-Oblique-78" d="M 3841 3500 
L 2234 1784 
L 3219 0 
L 2559 0 
L 1819 1388 
L 531 0 
L -166 0 
L 1556 1844 
L 641 3500 
L 1300 3500 
L 1972 2234 
L 3144 3500 
L 3841 3500 
z
" transform="scale(0.015625)"/>
       <path id="DejaVuSans-2223" d="M 1350 4934 
L 1850 4934 
L 1850 -1369 
L 1350 -1369 
L 1350 4934 
z
" transform="scale(0.015625)"/>
       <path id="DejaVuSans-37" d="M 525 4666 
L 3525 4666 
L 3525 4397 
L 1831 0 
L 1172 0 
L 2766 4134 
L 525 4134 
L 525 4666 
z
" transform="scale(0.015625)"/>
       <path id="DejaVuSans-2c" d="M 750 794 
L 1409 794 
L 1409 256 
L 897 -744 
L 494 -744 
L 750 256 
L 750 794 
z
" transform="scale(0.015625)"/>
       <path id="DejaVuSans-34" d="M 2419 4116 
L 825 1625 
L 2419 1625 
L 2419 4116 
z
M 2253 4666 
L 3047 4666 
L 3047 1625 
L 3713 1625 
L 3713 1100 
L 3047 1100 
L 3047 0 
L 2419 0 
L 2419 1100 
L 313 1100 
L 313 1709 
L 2253 4666 
z
" transform="scale(0.015625)"/>
       <path id="DejaVuSans-36" d="M 2113 2584 
Q 1688 2584 1439 2293 
Q 1191 2003 1191 1497 
Q 1191 994 1439 701 
Q 1688 409 2113 409 
Q 2538 409 2786 701 
Q 3034 994 3034 1497 
Q 3034 2003 2786 2293 
Q 2538 2584 2113 2584 
z
M 3366 4563 
L 3366 3988 
Q 3128 4100 2886 4159 
Q 2644 4219 2406 4219 
Q 1781 4219 1451 3797 
Q 1122 3375 1075 2522 
Q 1259 2794 1537 2939 
Q 1816 3084 2150 3084 
Q 2853 3084 3261 2657 
Q 3669 2231 3669 1497 
Q 3669 778 3244 343 
Q 2819 -91 2113 -91 
Q 1303 -91 875 529 
Q 447 1150 447 2328 
Q 447 3434 972 4092 
Q 1497 4750 2381 4750 
Q 2619 4750 2861 4703 
Q 3103 4656 3366 4563 
z
" transform="scale(0.015625)"/>
       <path id="DejaVuSans-38" d="M 2034 2216 
Q 1584 2216 1326 1975 
Q 1069 1734 1069 1313 
Q 1069 891 1326 650 
Q 1584 409 2034 409 
Q 2484 409 2743 651 
Q 3003 894 3003 1313 
Q 3003 1734 2745 1975 
Q 2488 2216 2034 2216 
z
M 1403 2484 
Q 997 2584 770 2862 
Q 544 3141 544 3541 
Q 544 4100 942 4425 
Q 1341 4750 2034 4750 
Q 2731 4750 3128 4425 
Q 3525 4100 3525 3541 
Q 3525 3141 3298 2862 
Q 3072 2584 2669 2484 
Q 3125 2378 3379 2068 
Q 3634 1759 3634 1313 
Q 3634 634 3220 271 
Q 2806 -91 2034 -91 
Q 1263 -91 848 271 
Q 434 634 434 1313 
Q 434 1759 690 2068 
Q 947 2378 1403 2484 
z
M 1172 3481 
Q 1172 3119 1398 2916 
Q 1625 2713 2034 2713 
Q 2441 2713 2670 2916 
Q 2900 3119 2900 3481 
Q 2900 3844 2670 4047 
Q 2441 4250 2034 4250 
Q 1625 4250 1398 4047 
Q 1172 3844 1172 3481 
z
" transform="scale(0.015625)"/>
       <path id="DejaVuSans-39" d="M 703 97 
L 703 672 
Q 941 559 1184 500 
Q 1428 441 1663 441 
Q 2288 441 2617 861 
Q 2947 1281 2994 2138 
Q 2813 1869 2534 1725 
Q 2256 1581 1919 1581 
Q 1219 1581 811 2004 
Q 403 2428 403 3163 
Q 403 3881 828 4315 
Q 1253 4750 1959 4750 
Q 2769 4750 3195 4129 
Q 3622 3509 3622 2328 
Q 3622 1225 3098 567 
Q 2575 -91 1691 -91 
Q 1453 -91 1209 -44 
Q 966 3 703 97 
z
M 1959 2075 
Q 2384 2075 2632 2365 
Q 2881 2656 2881 3163 
Q 2881 3666 2632 3958 
Q 2384 4250 1959 4250 
Q 1534 4250 1286 3958 
Q 1038 3666 1038 3163 
Q 1038 2656 1286 2365 
Q 1534 2075 1959 2075 
z
" transform="scale(0.015625)"/>
       <path id="DejaVuSans-29" d="M 513 4856 
L 1013 4856 
Q 1481 4119 1714 3412 
Q 1947 2706 1947 2009 
Q 1947 1309 1714 600 
Q 1481 -109 1013 -844 
L 513 -844 
Q 928 -128 1133 580 
Q 1338 1288 1338 2009 
Q 1338 2731 1133 3434 
Q 928 4138 513 4856 
z
" transform="scale(0.015625)"/>
      </defs>
      <use xlink:href="#STIXNonUnicode-Italic-e23a" transform="translate(0 0.5)"/>
      <use xlink:href="#DejaVuSans-28" transform="translate(95.699982 0.5)"/>
      <use xlink:href="#DejaVuSans-Oblique-78" transform="translate(134.713654 0.5)"/>
      <use xlink:href="#DejaVuSans-2223" transform="translate(213.375763 0.5)"/>
      <use xlink:href="#DejaVuSans-2212" transform="translate(302.340607 0.5)"/>
      <use xlink:href="#DejaVuSans-32" transform="translate(405.612091 0.5)"/>
      <use xlink:href="#DejaVuSans-2e" transform="translate(469.235138 0.5)"/>
      <use xlink:href="#DejaVuSans-37" transform="translate(493.272247 0.5)"/>
      <use xlink:href="#DejaVuSans-2c" transform="translate(556.895294 0.5)"/>
      <use xlink:href="#DejaVuSans-30" transform="translate(608.164825 0.5)"/>
      <use xlink:href="#DejaVuSans-2e" transform="translate(671.787872 0.5)"/>
      <use xlink:href="#DejaVuSans-33" transform="translate(703.574982 0.5)"/>
      <use xlink:href="#DejaVuSans-37" transform="translate(767.198029 0.5)"/>
      <use xlink:href="#DejaVuSans-34" transform="translate(830.821075 0.5)"/>
      <use xlink:href="#DejaVuSans-31" transform="translate(894.444122 0.5)"/>
      <use xlink:href="#DejaVuSans-36" transform="translate(958.067169 0.5)"/>
      <use xlink:href="#DejaVuSans-35" transform="translate(1021.690216 0.5)"/>
      <use xlink:href="#DejaVuSans-37" transform="translate(1078.063263 0.5)"/>
      <use xlink:href="#DejaVuSans-33" transform="translate(1141.68631 0.5)"/>
      <use xlink:href="#DejaVuSans-38" transform="translate(1205.309357 0.5)"/>
      <use xlink:href="#DejaVuSans-36" transform="translate(1268.932404 0.5)"/>
      <use xlink:href="#DejaVuSans-37" transform="translate(1332.55545 0.5)"/>
      <use xlink:href="#DejaVuSans-37" transform="translate(1394.428497 0.5)"/>
      <use xlink:href="#DejaVuSans-33" transform="translate(1458.051544 0.5)"/>
      <use xlink:href="#DejaVuSans-39" transform="translate(1521.674591 0.5)"/>
      <use xlink:href="#DejaVuSans-34" transform="translate(1585.297638 0.5)"/>
      <use xlink:href="#DejaVuSans-31" transform="translate(1648.920685 0.5)"/>
      <use xlink:href="#DejaVuSans-37" transform="translate(1712.543732 0.5)"/>
      <use xlink:href="#DejaVuSans-29" transform="translate(1776.166779 0.5)"/>
     </g>
    </g>
    <g id="line2d_19">
     <path d="M 186.634659 65.69625 
L 196.634659 65.69625 
L 206.634659 65.69625 
" style="fill: none; stroke: #ff7f0e; stroke-width: 1.5; stroke-linecap: square"/>
    </g>
    <g id="text_19">
     <!-- $\mathcal{N}(x \mid -0.4, 0.6633249580710799)$ -->
     <g transform="translate(214.634659 69.19625) scale(0.1 -0.1)">
      <use xlink:href="#STIXNonUnicode-Italic-e23a" transform="translate(0 0.5)"/>
      <use xlink:href="#DejaVuSans-28" transform="translate(95.699982 0.5)"/>
      <use xlink:href="#DejaVuSans-Oblique-78" transform="translate(134.713654 0.5)"/>
      <use xlink:href="#DejaVuSans-2223" transform="translate(213.375763 0.5)"/>
      <use xlink:href="#DejaVuSans-2212" transform="translate(302.340607 0.5)"/>
      <use xlink:href="#DejaVuSans-30" transform="translate(405.612091 0.5)"/>
      <use xlink:href="#DejaVuSans-2e" transform="translate(469.235138 0.5)"/>
      <use xlink:href="#DejaVuSans-34" transform="translate(501.022247 0.5)"/>
      <use xlink:href="#DejaVuSans-2c" transform="translate(564.645294 0.5)"/>
      <use xlink:href="#DejaVuSans-30" transform="translate(615.914825 0.5)"/>
      <use xlink:href="#DejaVuSans-2e" transform="translate(679.537872 0.5)"/>
      <use xlink:href="#DejaVuSans-36" transform="translate(711.324982 0.5)"/>
      <use xlink:href="#DejaVuSans-36" transform="translate(774.948029 0.5)"/>
      <use xlink:href="#DejaVuSans-33" transform="translate(838.571075 0.5)"/>
      <use xlink:href="#DejaVuSans-33" transform="translate(902.194122 0.5)"/>
      <use xlink:href="#DejaVuSans-32" transform="translate(965.817169 0.5)"/>
      <use xlink:href="#DejaVuSans-34" transform="translate(1029.440216 0.5)"/>
      <use xlink:href="#DejaVuSans-39" transform="translate(1093.063263 0.5)"/>
      <use xlink:href="#DejaVuSans-35" transform="translate(1156.68631 0.5)"/>
      <use xlink:href="#DejaVuSans-38" transform="translate(1220.309357 0.5)"/>
      <use xlink:href="#DejaVuSans-30" transform="translate(1283.932404 0.5)"/>
      <use xlink:href="#DejaVuSans-37" transform="translate(1347.55545 0.5)"/>
      <use xlink:href="#DejaVuSans-31" transform="translate(1411.178497 0.5)"/>
      <use xlink:href="#DejaVuSans-30" transform="translate(1474.801544 0.5)"/>
      <use xlink:href="#DejaVuSans-37" transform="translate(1538.424591 0.5)"/>
      <use xlink:href="#DejaVuSans-39" transform="translate(1602.047638 0.5)"/>
      <use xlink:href="#DejaVuSans-39" transform="translate(1665.670685 0.5)"/>
      <use xlink:href="#DejaVuSans-29" transform="translate(1729.293732 0.5)"/>
     </g>
    </g>
    <g id="line2d_20">
     <path d="M 186.634659 80.89625 
L 196.634659 80.89625 
L 206.634659 80.89625 
" style="fill: none; stroke: #2ca02c; stroke-width: 1.5; stroke-linecap: square"/>
    </g>
    <g id="text_20">
     <!-- $\mathcal{N}(x \mid 3.7, 1.2369316876852983)$ -->
     <g transform="translate(214.634659 84.39625) scale(0.1 -0.1)">
      <use xlink:href="#STIXNonUnicode-Italic-e23a" transform="translate(0 0.5)"/>
      <use xlink:href="#DejaVuSans-28" transform="translate(95.699982 0.5)"/>
      <use xlink:href="#DejaVuSans-Oblique-78" transform="translate(134.713654 0.5)"/>
      <use xlink:href="#DejaVuSans-2223" transform="translate(213.375763 0.5)"/>
      <use xlink:href="#DejaVuSans-33" transform="translate(282.858185 0.5)"/>
      <use xlink:href="#DejaVuSans-2e" transform="translate(346.481232 0.5)"/>
      <use xlink:href="#DejaVuSans-37" transform="translate(370.518341 0.5)"/>
      <use xlink:href="#DejaVuSans-2c" transform="translate(434.141388 0.5)"/>
      <use xlink:href="#DejaVuSans-31" transform="translate(485.410919 0.5)"/>
      <use xlink:href="#DejaVuSans-2e" transform="translate(549.033966 0.5)"/>
      <use xlink:href="#DejaVuSans-32" transform="translate(575.321075 0.5)"/>
      <use xlink:href="#DejaVuSans-33" transform="translate(638.944122 0.5)"/>
      <use xlink:href="#DejaVuSans-36" transform="translate(702.567169 0.5)"/>
      <use xlink:href="#DejaVuSans-39" transform="translate(766.190216 0.5)"/>
      <use xlink:href="#DejaVuSans-33" transform="translate(829.813263 0.5)"/>
      <use xlink:href="#DejaVuSans-31" transform="translate(893.43631 0.5)"/>
      <use xlink:href="#DejaVuSans-36" transform="translate(957.059357 0.5)"/>
      <use xlink:href="#DejaVuSans-38" transform="translate(1020.682404 0.5)"/>
      <use xlink:href="#DejaVuSans-37" transform="translate(1084.30545 0.5)"/>
      <use xlink:href="#DejaVuSans-36" transform="translate(1147.928497 0.5)"/>
      <use xlink:href="#DejaVuSans-38" transform="translate(1211.551544 0.5)"/>
      <use xlink:href="#DejaVuSans-35" transform="translate(1275.174591 0.5)"/>
      <use xlink:href="#DejaVuSans-32" transform="translate(1338.797638 0.5)"/>
      <use xlink:href="#DejaVuSans-39" transform="translate(1400.670685 0.5)"/>
      <use xlink:href="#DejaVuSans-38" transform="translate(1464.293732 0.5)"/>
      <use xlink:href="#DejaVuSans-33" transform="translate(1527.916779 0.5)"/>
      <use xlink:href="#DejaVuSans-29" transform="translate(1591.539825 0.5)"/>
     </g>
    </g>
    <g id="line2d_21">
     <path d="M 186.634659 95.694688 
L 196.634659 95.694688 
L 206.634659 95.694688 
" style="fill: none; stroke-dasharray: 5.55,2.4; stroke-dashoffset: 0; stroke: #000000; stroke-width: 1.5"/>
    </g>
    <g id="text_21">
     <!-- GMM -->
     <g transform="translate(214.634659 99.194688) scale(0.1 -0.1)">
      <use xlink:href="#DejaVuSans-47"/>
      <use xlink:href="#DejaVuSans-4d" x="77.490234"/>
      <use xlink:href="#DejaVuSans-4d" x="163.769531"/>
     </g>
    </g>
   </g>
  </g>
  <g id="axes_2">
   <g id="patch_8">
    <path d="M 476.252841 299.518125 
L 831.34375 299.518125 
L 831.34375 22.318125 
L 476.252841 22.318125 
z
" style="fill: #ffffff"/>
   </g>
   <g id="PathCollection_3">
    <g clip-path="url(#p1758b7ab23)">
     <use xlink:href="#mdafa6edbd9" x="556.95532" y="286.918125" style="stroke: #000000"/>
     <use xlink:href="#mdafa6edbd9" x="564.128874" y="286.918125" style="stroke: #000000"/>
     <use xlink:href="#mdafa6edbd9" x="585.649535" y="286.918125" style="stroke: #000000"/>
     <use xlink:href="#mdafa6edbd9" x="599.996643" y="286.918125" style="stroke: #000000"/>
     <use xlink:href="#mdafa6edbd9" x="628.690857" y="286.918125" style="stroke: #000000"/>
     <use xlink:href="#mdafa6edbd9" x="657.385072" y="286.918125" style="stroke: #000000"/>
     <use xlink:href="#mdafa6edbd9" x="671.73218" y="286.918125" style="stroke: #000000"/>
    </g>
   </g>
   <g id="matplotlib.axis_3">
    <g id="xtick_6">
     <g id="line2d_22">
      <g>
       <use xlink:href="#mdc69cd3347" x="528.261105" y="299.518125" style="stroke: #000000; stroke-width: 0.8"/>
      </g>
     </g>
     <g id="text_22">
      <!-- −5 -->
      <g transform="translate(520.890012 314.116563) scale(0.1 -0.1)">
       <use xlink:href="#DejaVuSans-2212"/>
       <use xlink:href="#DejaVuSans-35" x="83.789062"/>
      </g>
     </g>
    </g>
    <g id="xtick_7">
     <g id="line2d_23">
      <g>
       <use xlink:href="#mdc69cd3347" x="599.996643" y="299.518125" style="stroke: #000000; stroke-width: 0.8"/>
      </g>
     </g>
     <g id="text_23">
      <!-- 0 -->
      <g transform="translate(596.815393 314.116563) scale(0.1 -0.1)">
       <use xlink:href="#DejaVuSans-30"/>
      </g>
     </g>
    </g>
    <g id="xtick_8">
     <g id="line2d_24">
      <g>
       <use xlink:href="#mdc69cd3347" x="671.73218" y="299.518125" style="stroke: #000000; stroke-width: 0.8"/>
      </g>
     </g>
     <g id="text_24">
      <!-- 5 -->
      <g transform="translate(668.55093 314.116563) scale(0.1 -0.1)">
       <use xlink:href="#DejaVuSans-35"/>
      </g>
     </g>
    </g>
    <g id="xtick_9">
     <g id="line2d_25">
      <g>
       <use xlink:href="#mdc69cd3347" x="743.467717" y="299.518125" style="stroke: #000000; stroke-width: 0.8"/>
      </g>
     </g>
     <g id="text_25">
      <!-- 10 -->
      <g transform="translate(737.105217 314.116563) scale(0.1 -0.1)">
       <use xlink:href="#DejaVuSans-31"/>
       <use xlink:href="#DejaVuSans-30" x="63.623047"/>
      </g>
     </g>
    </g>
    <g id="xtick_10">
     <g id="line2d_26">
      <g>
       <use xlink:href="#mdc69cd3347" x="815.203254" y="299.518125" style="stroke: #000000; stroke-width: 0.8"/>
      </g>
     </g>
     <g id="text_26">
      <!-- 15 -->
      <g transform="translate(808.840754 314.116563) scale(0.1 -0.1)">
       <use xlink:href="#DejaVuSans-31"/>
       <use xlink:href="#DejaVuSans-35" x="63.623047"/>
      </g>
     </g>
    </g>
    <g id="text_27">
     <!-- x -->
     <g transform="translate(650.83892 327.794688) scale(0.1 -0.1)">
      <use xlink:href="#DejaVuSans-78"/>
     </g>
    </g>
   </g>
   <g id="matplotlib.axis_4">
    <g id="ytick_9">
     <g id="line2d_27">
      <g>
       <use xlink:href="#mabc89aaf25" x="476.252841" y="286.918125" style="stroke: #000000; stroke-width: 0.8"/>
      </g>
     </g>
     <g id="text_28">
      <!-- 0.00 -->
      <g transform="translate(446.987216 290.717344) scale(0.1 -0.1)">
       <use xlink:href="#DejaVuSans-30"/>
       <use xlink:href="#DejaVuSans-2e" x="63.623047"/>
       <use xlink:href="#DejaVuSans-30" x="95.410156"/>
       <use xlink:href="#DejaVuSans-30" x="159.033203"/>
      </g>
     </g>
    </g>
    <g id="ytick_10">
     <g id="line2d_28">
      <g>
       <use xlink:href="#mabc89aaf25" x="476.252841" y="246.222663" style="stroke: #000000; stroke-width: 0.8"/>
      </g>
     </g>
     <g id="text_29">
      <!-- 0.05 -->
      <g transform="translate(446.987216 250.021882) scale(0.1 -0.1)">
       <use xlink:href="#DejaVuSans-30"/>
       <use xlink:href="#DejaVuSans-2e" x="63.623047"/>
       <use xlink:href="#DejaVuSans-30" x="95.410156"/>
       <use xlink:href="#DejaVuSans-35" x="159.033203"/>
      </g>
     </g>
    </g>
    <g id="ytick_11">
     <g id="line2d_29">
      <g>
       <use xlink:href="#mabc89aaf25" x="476.252841" y="205.527201" style="stroke: #000000; stroke-width: 0.8"/>
      </g>
     </g>
     <g id="text_30">
      <!-- 0.10 -->
      <g transform="translate(446.987216 209.32642) scale(0.1 -0.1)">
       <use xlink:href="#DejaVuSans-30"/>
       <use xlink:href="#DejaVuSans-2e" x="63.623047"/>
       <use xlink:href="#DejaVuSans-31" x="95.410156"/>
       <use xlink:href="#DejaVuSans-30" x="159.033203"/>
      </g>
     </g>
    </g>
    <g id="ytick_12">
     <g id="line2d_30">
      <g>
       <use xlink:href="#mabc89aaf25" x="476.252841" y="164.831739" style="stroke: #000000; stroke-width: 0.8"/>
      </g>
     </g>
     <g id="text_31">
      <!-- 0.15 -->
      <g transform="translate(446.987216 168.630958) scale(0.1 -0.1)">
       <use xlink:href="#DejaVuSans-30"/>
       <use xlink:href="#DejaVuSans-2e" x="63.623047"/>
       <use xlink:href="#DejaVuSans-31" x="95.410156"/>
       <use xlink:href="#DejaVuSans-35" x="159.033203"/>
      </g>
     </g>
    </g>
    <g id="ytick_13">
     <g id="line2d_31">
      <g>
       <use xlink:href="#mabc89aaf25" x="476.252841" y="124.136277" style="stroke: #000000; stroke-width: 0.8"/>
      </g>
     </g>
     <g id="text_32">
      <!-- 0.20 -->
      <g transform="translate(446.987216 127.935496) scale(0.1 -0.1)">
       <use xlink:href="#DejaVuSans-30"/>
       <use xlink:href="#DejaVuSans-2e" x="63.623047"/>
       <use xlink:href="#DejaVuSans-32" x="95.410156"/>
       <use xlink:href="#DejaVuSans-30" x="159.033203"/>
      </g>
     </g>
    </g>
    <g id="ytick_14">
     <g id="line2d_32">
      <g>
       <use xlink:href="#mabc89aaf25" x="476.252841" y="83.440815" style="stroke: #000000; stroke-width: 0.8"/>
      </g>
     </g>
     <g id="text_33">
      <!-- 0.25 -->
      <g transform="translate(446.987216 87.240033) scale(0.1 -0.1)">
       <use xlink:href="#DejaVuSans-30"/>
       <use xlink:href="#DejaVuSans-2e" x="63.623047"/>
       <use xlink:href="#DejaVuSans-32" x="95.410156"/>
       <use xlink:href="#DejaVuSans-35" x="159.033203"/>
      </g>
     </g>
    </g>
    <g id="ytick_15">
     <g id="line2d_33">
      <g>
       <use xlink:href="#mabc89aaf25" x="476.252841" y="42.745353" style="stroke: #000000; stroke-width: 0.8"/>
      </g>
     </g>
     <g id="text_34">
      <!-- 0.30 -->
      <g transform="translate(446.987216 46.544571) scale(0.1 -0.1)">
       <use xlink:href="#DejaVuSans-30"/>
       <use xlink:href="#DejaVuSans-2e" x="63.623047"/>
       <use xlink:href="#DejaVuSans-33" x="95.410156"/>
       <use xlink:href="#DejaVuSans-30" x="159.033203"/>
      </g>
     </g>
    </g>
    <g id="text_35">
     <!-- Density -->
     <g transform="translate(440.907528 179.926719) rotate(-90) scale(0.1 -0.1)">
      <use xlink:href="#DejaVuSans-44"/>
      <use xlink:href="#DejaVuSans-65" x="77.001953"/>
      <use xlink:href="#DejaVuSans-6e" x="138.525391"/>
      <use xlink:href="#DejaVuSans-73" x="201.904297"/>
      <use xlink:href="#DejaVuSans-69" x="254.003906"/>
      <use xlink:href="#DejaVuSans-74" x="281.787109"/>
      <use xlink:href="#DejaVuSans-79" x="320.996094"/>
     </g>
    </g>
   </g>
   <g id="line2d_34">
    <path d="M 492.393337 286.918125 
L 539.893895 286.826698 
L 541.50956 286.628635 
L 542.802093 286.23617 
L 543.771492 285.66981 
L 544.417758 285.083691 
L 545.064024 284.261163 
L 545.71029 283.125199 
L 546.356556 281.581471 
L 547.002822 279.517482 
L 547.649088 276.802902 
L 548.295354 273.291537 
L 548.941621 268.825381 
L 549.587887 263.241084 
L 550.557286 252.422818 
L 551.526685 238.274008 
L 552.496084 220.522666 
L 553.788616 191.363383 
L 555.404282 148.086341 
L 557.989346 77.872482 
L 558.958745 57.338131 
L 559.605011 46.927252 
L 560.251277 39.654023 
L 560.57441 37.295547 
L 560.897543 35.826011 
L 561.220677 35.26131 
L 561.54381 35.607568 
L 561.866943 36.861028 
L 562.190076 39.008121 
L 562.836342 45.881505 
L 563.482608 55.936377 
L 564.452007 76.046704 
L 565.744539 109.400719 
L 568.97587 197.351129 
L 570.268402 225.364953 
L 571.237801 242.192685 
L 572.2072 255.46263 
L 573.176599 265.505192 
L 574.145999 272.809213 
L 575.115398 277.92007 
L 575.761664 280.370998 
L 576.40793 282.222877 
L 577.054196 283.599394 
L 577.700462 284.606107 
L 578.669861 285.609793 
L 579.63926 286.201516 
L 580.60866 286.538212 
L 581.901192 286.763175 
L 584.163123 286.890071 
L 590.948917 286.918068 
L 815.203254 286.918125 
L 815.203254 286.918125 
" clip-path="url(#p1758b7ab23)" style="fill: none; stroke: #1f77b4; stroke-width: 1.5; stroke-linecap: square"/>
   </g>
   <g id="line2d_35">
    <path d="M 492.393337 286.918125 
L 557.989346 286.818497 
L 561.220677 286.575107 
L 563.159475 286.236658 
L 564.77514 285.748311 
L 566.067672 285.152731 
L 567.360204 284.302619 
L 568.652737 283.113965 
L 569.622136 281.940424 
L 570.591535 280.47209 
L 571.560934 278.656788 
L 572.530333 276.439558 
L 573.499732 273.764446 
L 574.792265 269.391508 
L 576.084797 263.991614 
L 577.377329 257.476155 
L 578.669861 249.800107 
L 580.285526 238.60204 
L 581.901192 225.812452 
L 584.163123 206.038632 
L 587.717587 174.818868 
L 589.333252 162.749004 
L 590.625784 154.931491 
L 591.595183 150.409527 
L 592.241449 148.11158 
L 592.887715 146.424333 
L 593.533982 145.370827 
L 593.857115 145.086598 
L 594.180248 144.965547 
L 594.503381 145.00809 
L 594.826514 145.214082 
L 595.47278 146.113003 
L 596.119046 147.649939 
L 596.765312 149.803859 
L 597.734711 154.125616 
L 598.70411 159.638662 
L 599.996643 168.560819 
L 601.612308 181.606685 
L 604.520505 207.551634 
L 607.10557 229.849048 
L 608.721235 242.187411 
L 610.3369 252.85428 
L 611.629432 260.087451 
L 612.921965 266.170972 
L 614.214497 271.168346 
L 615.507029 275.180522 
L 616.799561 278.330493 
L 618.092093 280.749954 
L 619.384626 282.568734 
L 620.677158 283.907272 
L 621.96969 284.871965 
L 623.262222 285.55298 
L 624.877887 286.116055 
L 626.816686 286.510248 
L 629.40175 286.762917 
L 633.60248 286.890539 
L 645.881536 286.918067 
L 815.203254 286.918125 
L 815.203254 286.918125 
" clip-path="url(#p1758b7ab23)" style="fill: none; stroke: #ff7f0e; stroke-width: 1.5; stroke-linecap: square"/>
   </g>
   <g id="line2d_36">
    <path d="M 492.393337 286.918125 
L 587.071321 286.808968 
L 592.887715 286.568037 
L 596.765312 286.200867 
L 599.67351 285.727727 
L 602.258574 285.092248 
L 604.520505 284.309155 
L 606.459304 283.421021 
L 608.398102 282.286168 
L 610.3369 280.855833 
L 611.952565 279.40067 
L 613.568231 277.673164 
L 615.183896 275.642527 
L 616.799561 273.279379 
L 618.415226 270.557135 
L 620.030892 267.453547 
L 621.96969 263.20352 
L 623.908488 258.368316 
L 625.847287 252.955053 
L 628.109218 245.951845 
L 630.694282 237.162959 
L 634.248746 224.132903 
L 640.065141 202.666024 
L 642.327072 195.158434 
L 644.26587 189.461421 
L 645.881536 185.374688 
L 647.174068 182.606626 
L 648.4666 180.330031 
L 649.435999 178.966495 
L 650.405398 177.911268 
L 651.374798 177.173682 
L 652.344197 176.760297 
L 653.313596 176.674801 
L 654.282995 176.91796 
L 655.252394 177.4876 
L 656.221793 178.378646 
L 657.191192 179.583192 
L 658.160592 181.090621 
L 659.453124 183.548565 
L 660.745656 186.483614 
L 662.361321 190.755543 
L 664.30012 196.635894 
L 666.562051 204.299175 
L 669.793381 216.154776 
L 675.609776 237.66486 
L 678.194841 246.412388 
L 680.456772 253.371141 
L 682.718703 259.582123 
L 684.657502 264.276707 
L 686.5963 268.38756 
L 688.535098 271.931973 
L 690.150764 274.475892 
L 691.766429 276.673246 
L 693.382094 278.552168 
L 694.997759 280.142884 
L 696.936558 281.715002 
L 698.875356 282.969737 
L 700.814154 283.957442 
L 703.076086 284.833756 
L 705.338017 285.474342 
L 707.923081 285.987857 
L 711.154412 286.396892 
L 715.355142 286.684534 
L 721.49467 286.852778 
L 734.096858 286.914838 
L 815.203254 286.918125 
L 815.203254 286.918125 
" clip-path="url(#p1758b7ab23)" style="fill: none; stroke: #2ca02c; stroke-width: 1.5; stroke-linecap: square"/>
   </g>
   <g id="line2d_37">
    <path d="M 492.393337 286.918125 
L 539.893895 286.826686 
L 541.50956 286.628604 
L 542.802093 286.236106 
L 543.771492 285.669699 
L 544.417758 285.083533 
L 545.064024 284.260938 
L 545.71029 283.12488 
L 546.356556 281.581021 
L 547.002822 279.516852 
L 547.649088 276.802022 
L 548.295354 273.290312 
L 548.941621 268.823684 
L 549.587887 263.238746 
L 550.557286 252.419067 
L 551.526685 238.268052 
L 552.496084 220.513307 
L 553.788616 191.346558 
L 555.404282 148.052209 
L 557.989346 77.77279 
L 558.958745 57.191922 
L 559.605011 46.739602 
L 560.251277 39.414293 
L 560.57441 37.025053 
L 560.897543 35.521156 
L 561.220677 34.918125 
L 561.54381 35.221678 
L 561.866943 36.427619 
L 562.190076 38.521902 
L 562.836342 45.271689 
L 563.482608 55.175062 
L 564.452007 74.993874 
L 565.744539 107.804558 
L 568.652737 185.62748 
L 569.945269 213.511538 
L 570.914668 229.975936 
L 571.884067 242.462448 
L 572.530333 248.664526 
L 573.176599 253.293155 
L 573.822865 256.483554 
L 574.469132 258.382234 
L 574.792265 258.893466 
L 575.115398 259.136712 
L 575.438531 259.129316 
L 575.761664 258.887878 
L 576.084797 258.428148 
L 576.731063 256.912215 
L 577.377329 254.688794 
L 578.346728 250.225244 
L 579.316127 244.630126 
L 580.60866 235.75542 
L 582.224325 222.934307 
L 584.809389 200.113935 
L 587.717587 174.692623 
L 589.333252 162.574765 
L 590.625784 154.706042 
L 591.595183 150.136765 
L 592.241449 147.802362 
L 592.887715 146.074237 
L 593.533982 144.974971 
L 593.857115 144.665874 
L 594.180248 144.518539 
L 594.503381 144.533314 
L 594.826514 144.70998 
L 595.47278 145.545267 
L 596.119046 147.011383 
L 596.765312 149.086602 
L 597.734711 153.27387 
L 598.70411 158.630224 
L 599.996643 167.303578 
L 601.612308 179.962727 
L 608.074969 233.014896 
L 609.690634 243.251441 
L 610.983166 250.002966 
L 612.275698 255.429843 
L 613.245098 258.642533 
L 614.214497 261.149197 
L 615.183896 262.987758 
L 615.830162 263.86437 
L 616.476428 264.478481 
L 617.122694 264.84499 
L 617.76896 264.9789 
L 618.415226 264.895062 
L 619.061493 264.607951 
L 619.707759 264.131498 
L 620.677158 263.090603 
L 621.646557 261.694869 
L 622.939089 259.346032 
L 624.231621 256.510088 
L 625.847287 252.380112 
L 627.786085 246.70839 
L 630.048016 239.307945 
L 632.956214 228.920264 
L 641.357673 198.277757 
L 643.296471 192.211383 
L 644.912137 187.748155 
L 646.527802 183.931656 
L 647.820334 181.404512 
L 649.112866 179.38728 
L 650.082265 178.228117 
L 651.051665 177.383784 
L 652.021064 176.86178 
L 652.990463 176.666759 
L 653.959862 176.800463 
L 654.929261 177.261698 
L 655.89866 178.04635 
L 656.868059 179.147444 
L 657.837459 180.555254 
L 659.129991 182.88776 
L 660.422523 185.707437 
L 662.038188 189.851604 
L 663.653853 194.594501 
L 665.915785 202.037988 
L 668.823982 212.530337 
L 676.579176 241.03315 
L 679.16424 249.481534 
L 681.426171 256.128139 
L 683.36497 261.212165 
L 685.303768 265.711352 
L 687.242566 269.630642 
L 689.181364 272.992799 
L 690.79703 275.394909 
L 692.412695 277.461366 
L 694.02836 279.221306 
L 695.644025 280.705424 
L 697.582824 282.165956 
L 699.521622 283.326262 
L 701.46042 284.235475 
L 703.722352 285.038241 
L 706.307416 285.690695 
L 709.215614 286.177317 
L 712.770077 286.532785 
L 717.617073 286.769981 
L 725.372266 286.890644 
L 747.99158 286.918057 
L 815.203254 286.918125 
L 815.203254 286.918125 
" clip-path="url(#p1758b7ab23)" style="fill: none; stroke-dasharray: 5.55,2.4; stroke-dashoffset: 0; stroke: #000000; stroke-width: 1.5"/>
   </g>
   <g id="patch_9">
    <path d="M 476.252841 299.518125 
L 476.252841 22.318125 
" style="fill: none; stroke: #000000; stroke-width: 0.8; stroke-linejoin: miter; stroke-linecap: square"/>
   </g>
   <g id="patch_10">
    <path d="M 831.34375 299.518125 
L 831.34375 22.318125 
" style="fill: none; stroke: #000000; stroke-width: 0.8; stroke-linejoin: miter; stroke-linecap: square"/>
   </g>
   <g id="patch_11">
    <path d="M 476.252841 299.518125 
L 831.34375 299.518125 
" style="fill: none; stroke: #000000; stroke-width: 0.8; stroke-linejoin: miter; stroke-linecap: square"/>
   </g>
   <g id="patch_12">
    <path d="M 476.252841 22.318125 
L 831.34375 22.318125 
" style="fill: none; stroke: #000000; stroke-width: 0.8; stroke-linejoin: miter; stroke-linecap: square"/>
   </g>
   <g id="text_36">
    <!-- Updated Gaussian Mixture Model and Data Points with new Weights. -->
    <g transform="translate(448.284233 16.318125) scale(0.12 -0.12)">
     <defs>
      <path id="DejaVuSans-57" d="M 213 4666 
L 850 4666 
L 1831 722 
L 2809 4666 
L 3519 4666 
L 4500 722 
L 5478 4666 
L 6119 4666 
L 4947 0 
L 4153 0 
L 3169 4050 
L 2175 0 
L 1381 0 
L 213 4666 
z
" transform="scale(0.015625)"/>
      <path id="DejaVuSans-67" d="M 2906 1791 
Q 2906 2416 2648 2759 
Q 2391 3103 1925 3103 
Q 1463 3103 1205 2759 
Q 947 2416 947 1791 
Q 947 1169 1205 825 
Q 1463 481 1925 481 
Q 2391 481 2648 825 
Q 2906 1169 2906 1791 
z
M 3481 434 
Q 3481 -459 3084 -895 
Q 2688 -1331 1869 -1331 
Q 1566 -1331 1297 -1286 
Q 1028 -1241 775 -1147 
L 775 -588 
Q 1028 -725 1275 -790 
Q 1522 -856 1778 -856 
Q 2344 -856 2625 -561 
Q 2906 -266 2906 331 
L 2906 616 
Q 2728 306 2450 153 
Q 2172 0 1784 0 
Q 1141 0 747 490 
Q 353 981 353 1791 
Q 353 2603 747 3093 
Q 1141 3584 1784 3584 
Q 2172 3584 2450 3431 
Q 2728 3278 2906 2969 
L 2906 3500 
L 3481 3500 
L 3481 434 
z
" transform="scale(0.015625)"/>
     </defs>
     <use xlink:href="#DejaVuSans-55"/>
     <use xlink:href="#DejaVuSans-70" x="73.193359"/>
     <use xlink:href="#DejaVuSans-64" x="136.669922"/>
     <use xlink:href="#DejaVuSans-61" x="200.146484"/>
     <use xlink:href="#DejaVuSans-74" x="261.425781"/>
     <use xlink:href="#DejaVuSans-65" x="300.634766"/>
     <use xlink:href="#DejaVuSans-64" x="362.158203"/>
     <use xlink:href="#DejaVuSans-20" x="425.634766"/>
     <use xlink:href="#DejaVuSans-47" x="457.421875"/>
     <use xlink:href="#DejaVuSans-61" x="534.912109"/>
     <use xlink:href="#DejaVuSans-75" x="596.191406"/>
     <use xlink:href="#DejaVuSans-73" x="659.570312"/>
     <use xlink:href="#DejaVuSans-73" x="711.669922"/>
     <use xlink:href="#DejaVuSans-69" x="763.769531"/>
     <use xlink:href="#DejaVuSans-61" x="791.552734"/>
     <use xlink:href="#DejaVuSans-6e" x="852.832031"/>
     <use xlink:href="#DejaVuSans-20" x="916.210938"/>
     <use xlink:href="#DejaVuSans-4d" x="947.998047"/>
     <use xlink:href="#DejaVuSans-69" x="1034.277344"/>
     <use xlink:href="#DejaVuSans-78" x="1062.060547"/>
     <use xlink:href="#DejaVuSans-74" x="1121.240234"/>
     <use xlink:href="#DejaVuSans-75" x="1160.449219"/>
     <use xlink:href="#DejaVuSans-72" x="1223.828125"/>
     <use xlink:href="#DejaVuSans-65" x="1262.691406"/>
     <use xlink:href="#DejaVuSans-20" x="1324.214844"/>
     <use xlink:href="#DejaVuSans-4d" x="1356.001953"/>
     <use xlink:href="#DejaVuSans-6f" x="1442.28125"/>
     <use xlink:href="#DejaVuSans-64" x="1503.462891"/>
     <use xlink:href="#DejaVuSans-65" x="1566.939453"/>
     <use xlink:href="#DejaVuSans-6c" x="1628.462891"/>
     <use xlink:href="#DejaVuSans-20" x="1656.246094"/>
     <use xlink:href="#DejaVuSans-61" x="1688.033203"/>
     <use xlink:href="#DejaVuSans-6e" x="1749.3125"/>
     <use xlink:href="#DejaVuSans-64" x="1812.691406"/>
     <use xlink:href="#DejaVuSans-20" x="1876.167969"/>
     <use xlink:href="#DejaVuSans-44" x="1907.955078"/>
     <use xlink:href="#DejaVuSans-61" x="1984.957031"/>
     <use xlink:href="#DejaVuSans-74" x="2046.236328"/>
     <use xlink:href="#DejaVuSans-61" x="2085.445312"/>
     <use xlink:href="#DejaVuSans-20" x="2146.724609"/>
     <use xlink:href="#DejaVuSans-50" x="2178.511719"/>
     <use xlink:href="#DejaVuSans-6f" x="2235.189453"/>
     <use xlink:href="#DejaVuSans-69" x="2296.371094"/>
     <use xlink:href="#DejaVuSans-6e" x="2324.154297"/>
     <use xlink:href="#DejaVuSans-74" x="2387.533203"/>
     <use xlink:href="#DejaVuSans-73" x="2426.742188"/>
     <use xlink:href="#DejaVuSans-20" x="2478.841797"/>
     <use xlink:href="#DejaVuSans-77" x="2510.628906"/>
     <use xlink:href="#DejaVuSans-69" x="2592.416016"/>
     <use xlink:href="#DejaVuSans-74" x="2620.199219"/>
     <use xlink:href="#DejaVuSans-68" x="2659.408203"/>
     <use xlink:href="#DejaVuSans-20" x="2722.787109"/>
     <use xlink:href="#DejaVuSans-6e" x="2754.574219"/>
     <use xlink:href="#DejaVuSans-65" x="2817.953125"/>
     <use xlink:href="#DejaVuSans-77" x="2879.476562"/>
     <use xlink:href="#DejaVuSans-20" x="2961.263672"/>
     <use xlink:href="#DejaVuSans-57" x="2993.050781"/>
     <use xlink:href="#DejaVuSans-65" x="3086.052734"/>
     <use xlink:href="#DejaVuSans-69" x="3147.576172"/>
     <use xlink:href="#DejaVuSans-67" x="3175.359375"/>
     <use xlink:href="#DejaVuSans-68" x="3238.835938"/>
     <use xlink:href="#DejaVuSans-74" x="3302.214844"/>
     <use xlink:href="#DejaVuSans-73" x="3341.423828"/>
     <use xlink:href="#DejaVuSans-2e" x="3393.523438"/>
    </g>
   </g>
   <g id="legend_2">
    <g id="patch_13">
     <path d="M 610.74375 105.274375 
L 824.34375 105.274375 
Q 826.34375 105.274375 826.34375 103.274375 
L 826.34375 29.318125 
Q 826.34375 27.318125 824.34375 27.318125 
L 610.74375 27.318125 
Q 608.74375 27.318125 608.74375 29.318125 
L 608.74375 103.274375 
Q 608.74375 105.274375 610.74375 105.274375 
z
" style="fill: #ffffff; opacity: 0.8; stroke: #cccccc; stroke-linejoin: miter"/>
    </g>
    <g id="PathCollection_4">
     <g>
      <use xlink:href="#mdafa6edbd9" x="622.74375" y="36.291563" style="stroke: #000000"/>
     </g>
    </g>
    <g id="text_37">
     <!-- Data points -->
     <g transform="translate(640.74375 38.916563) scale(0.1 -0.1)">
      <use xlink:href="#DejaVuSans-44"/>
      <use xlink:href="#DejaVuSans-61" x="77.001953"/>
      <use xlink:href="#DejaVuSans-74" x="138.28125"/>
      <use xlink:href="#DejaVuSans-61" x="177.490234"/>
      <use xlink:href="#DejaVuSans-20" x="238.769531"/>
      <use xlink:href="#DejaVuSans-70" x="270.556641"/>
      <use xlink:href="#DejaVuSans-6f" x="334.033203"/>
      <use xlink:href="#DejaVuSans-69" x="395.214844"/>
      <use xlink:href="#DejaVuSans-6e" x="422.998047"/>
      <use xlink:href="#DejaVuSans-74" x="486.376953"/>
      <use xlink:href="#DejaVuSans-73" x="525.585938"/>
     </g>
    </g>
    <g id="line2d_38">
     <path d="M 612.74375 50.49625 
L 622.74375 50.49625 
L 632.74375 50.49625 
" style="fill: none; stroke: #1f77b4; stroke-width: 1.5; stroke-linecap: square"/>
    </g>
    <g id="text_38">
     <!-- $\mathcal{N}(x \mid -2.7, 0.37416573867739417)$ -->
     <g transform="translate(640.74375 53.99625) scale(0.1 -0.1)">
      <use xlink:href="#STIXNonUnicode-Italic-e23a" transform="translate(0 0.5)"/>
      <use xlink:href="#DejaVuSans-28" transform="translate(95.699982 0.5)"/>
      <use xlink:href="#DejaVuSans-Oblique-78" transform="translate(134.713654 0.5)"/>
      <use xlink:href="#DejaVuSans-2223" transform="translate(213.375763 0.5)"/>
      <use xlink:href="#DejaVuSans-2212" transform="translate(302.340607 0.5)"/>
      <use xlink:href="#DejaVuSans-32" transform="translate(405.612091 0.5)"/>
      <use xlink:href="#DejaVuSans-2e" transform="translate(469.235138 0.5)"/>
      <use xlink:href="#DejaVuSans-37" transform="translate(493.272247 0.5)"/>
      <use xlink:href="#DejaVuSans-2c" transform="translate(556.895294 0.5)"/>
      <use xlink:href="#DejaVuSans-30" transform="translate(608.164825 0.5)"/>
      <use xlink:href="#DejaVuSans-2e" transform="translate(671.787872 0.5)"/>
      <use xlink:href="#DejaVuSans-33" transform="translate(703.574982 0.5)"/>
      <use xlink:href="#DejaVuSans-37" transform="translate(767.198029 0.5)"/>
      <use xlink:href="#DejaVuSans-34" transform="translate(830.821075 0.5)"/>
      <use xlink:href="#DejaVuSans-31" transform="translate(894.444122 0.5)"/>
      <use xlink:href="#DejaVuSans-36" transform="translate(958.067169 0.5)"/>
      <use xlink:href="#DejaVuSans-35" transform="translate(1021.690216 0.5)"/>
      <use xlink:href="#DejaVuSans-37" transform="translate(1078.063263 0.5)"/>
      <use xlink:href="#DejaVuSans-33" transform="translate(1141.68631 0.5)"/>
      <use xlink:href="#DejaVuSans-38" transform="translate(1205.309357 0.5)"/>
      <use xlink:href="#DejaVuSans-36" transform="translate(1268.932404 0.5)"/>
      <use xlink:href="#DejaVuSans-37" transform="translate(1332.55545 0.5)"/>
      <use xlink:href="#DejaVuSans-37" transform="translate(1394.428497 0.5)"/>
      <use xlink:href="#DejaVuSans-33" transform="translate(1458.051544 0.5)"/>
      <use xlink:href="#DejaVuSans-39" transform="translate(1521.674591 0.5)"/>
      <use xlink:href="#DejaVuSans-34" transform="translate(1585.297638 0.5)"/>
      <use xlink:href="#DejaVuSans-31" transform="translate(1648.920685 0.5)"/>
      <use xlink:href="#DejaVuSans-37" transform="translate(1712.543732 0.5)"/>
      <use xlink:href="#DejaVuSans-29" transform="translate(1776.166779 0.5)"/>
     </g>
    </g>
    <g id="line2d_39">
     <path d="M 612.74375 65.69625 
L 622.74375 65.69625 
L 632.74375 65.69625 
" style="fill: none; stroke: #ff7f0e; stroke-width: 1.5; stroke-linecap: square"/>
    </g>
    <g id="text_39">
     <!-- $\mathcal{N}(x \mid -0.4, 0.6633249580710799)$ -->
     <g transform="translate(640.74375 69.19625) scale(0.1 -0.1)">
      <use xlink:href="#STIXNonUnicode-Italic-e23a" transform="translate(0 0.5)"/>
      <use xlink:href="#DejaVuSans-28" transform="translate(95.699982 0.5)"/>
      <use xlink:href="#DejaVuSans-Oblique-78" transform="translate(134.713654 0.5)"/>
      <use xlink:href="#DejaVuSans-2223" transform="translate(213.375763 0.5)"/>
      <use xlink:href="#DejaVuSans-2212" transform="translate(302.340607 0.5)"/>
      <use xlink:href="#DejaVuSans-30" transform="translate(405.612091 0.5)"/>
      <use xlink:href="#DejaVuSans-2e" transform="translate(469.235138 0.5)"/>
      <use xlink:href="#DejaVuSans-34" transform="translate(501.022247 0.5)"/>
      <use xlink:href="#DejaVuSans-2c" transform="translate(564.645294 0.5)"/>
      <use xlink:href="#DejaVuSans-30" transform="translate(615.914825 0.5)"/>
      <use xlink:href="#DejaVuSans-2e" transform="translate(679.537872 0.5)"/>
      <use xlink:href="#DejaVuSans-36" transform="translate(711.324982 0.5)"/>
      <use xlink:href="#DejaVuSans-36" transform="translate(774.948029 0.5)"/>
      <use xlink:href="#DejaVuSans-33" transform="translate(838.571075 0.5)"/>
      <use xlink:href="#DejaVuSans-33" transform="translate(902.194122 0.5)"/>
      <use xlink:href="#DejaVuSans-32" transform="translate(965.817169 0.5)"/>
      <use xlink:href="#DejaVuSans-34" transform="translate(1029.440216 0.5)"/>
      <use xlink:href="#DejaVuSans-39" transform="translate(1093.063263 0.5)"/>
      <use xlink:href="#DejaVuSans-35" transform="translate(1156.68631 0.5)"/>
      <use xlink:href="#DejaVuSans-38" transform="translate(1220.309357 0.5)"/>
      <use xlink:href="#DejaVuSans-30" transform="translate(1283.932404 0.5)"/>
      <use xlink:href="#DejaVuSans-37" transform="translate(1347.55545 0.5)"/>
      <use xlink:href="#DejaVuSans-31" transform="translate(1411.178497 0.5)"/>
      <use xlink:href="#DejaVuSans-30" transform="translate(1474.801544 0.5)"/>
      <use xlink:href="#DejaVuSans-37" transform="translate(1538.424591 0.5)"/>
      <use xlink:href="#DejaVuSans-39" transform="translate(1602.047638 0.5)"/>
      <use xlink:href="#DejaVuSans-39" transform="translate(1665.670685 0.5)"/>
      <use xlink:href="#DejaVuSans-29" transform="translate(1729.293732 0.5)"/>
     </g>
    </g>
    <g id="line2d_40">
     <path d="M 612.74375 80.89625 
L 622.74375 80.89625 
L 632.74375 80.89625 
" style="fill: none; stroke: #2ca02c; stroke-width: 1.5; stroke-linecap: square"/>
    </g>
    <g id="text_40">
     <!-- $\mathcal{N}(x \mid 3.7, 1.2369316876852983)$ -->
     <g transform="translate(640.74375 84.39625) scale(0.1 -0.1)">
      <use xlink:href="#STIXNonUnicode-Italic-e23a" transform="translate(0 0.5)"/>
      <use xlink:href="#DejaVuSans-28" transform="translate(95.699982 0.5)"/>
      <use xlink:href="#DejaVuSans-Oblique-78" transform="translate(134.713654 0.5)"/>
      <use xlink:href="#DejaVuSans-2223" transform="translate(213.375763 0.5)"/>
      <use xlink:href="#DejaVuSans-33" transform="translate(282.858185 0.5)"/>
      <use xlink:href="#DejaVuSans-2e" transform="translate(346.481232 0.5)"/>
      <use xlink:href="#DejaVuSans-37" transform="translate(370.518341 0.5)"/>
      <use xlink:href="#DejaVuSans-2c" transform="translate(434.141388 0.5)"/>
      <use xlink:href="#DejaVuSans-31" transform="translate(485.410919 0.5)"/>
      <use xlink:href="#DejaVuSans-2e" transform="translate(549.033966 0.5)"/>
      <use xlink:href="#DejaVuSans-32" transform="translate(575.321075 0.5)"/>
      <use xlink:href="#DejaVuSans-33" transform="translate(638.944122 0.5)"/>
      <use xlink:href="#DejaVuSans-36" transform="translate(702.567169 0.5)"/>
      <use xlink:href="#DejaVuSans-39" transform="translate(766.190216 0.5)"/>
      <use xlink:href="#DejaVuSans-33" transform="translate(829.813263 0.5)"/>
      <use xlink:href="#DejaVuSans-31" transform="translate(893.43631 0.5)"/>
      <use xlink:href="#DejaVuSans-36" transform="translate(957.059357 0.5)"/>
      <use xlink:href="#DejaVuSans-38" transform="translate(1020.682404 0.5)"/>
      <use xlink:href="#DejaVuSans-37" transform="translate(1084.30545 0.5)"/>
      <use xlink:href="#DejaVuSans-36" transform="translate(1147.928497 0.5)"/>
      <use xlink:href="#DejaVuSans-38" transform="translate(1211.551544 0.5)"/>
      <use xlink:href="#DejaVuSans-35" transform="translate(1275.174591 0.5)"/>
      <use xlink:href="#DejaVuSans-32" transform="translate(1338.797638 0.5)"/>
      <use xlink:href="#DejaVuSans-39" transform="translate(1400.670685 0.5)"/>
      <use xlink:href="#DejaVuSans-38" transform="translate(1464.293732 0.5)"/>
      <use xlink:href="#DejaVuSans-33" transform="translate(1527.916779 0.5)"/>
      <use xlink:href="#DejaVuSans-29" transform="translate(1591.539825 0.5)"/>
     </g>
    </g>
    <g id="line2d_41">
     <path d="M 612.74375 95.694688 
L 622.74375 95.694688 
L 632.74375 95.694688 
" style="fill: none; stroke-dasharray: 5.55,2.4; stroke-dashoffset: 0; stroke: #000000; stroke-width: 1.5"/>
    </g>
    <g id="text_41">
     <!-- GMM -->
     <g transform="translate(640.74375 99.194688) scale(0.1 -0.1)">
      <use xlink:href="#DejaVuSans-47"/>
      <use xlink:href="#DejaVuSans-4d" x="77.490234"/>
      <use xlink:href="#DejaVuSans-4d" x="163.769531"/>
     </g>
    </g>
   </g>
  </g>
 </g>
 <defs>
  <clipPath id="pe8837d4f83">
   <rect x="50.14375" y="22.318125" width="355.090909" height="277.2"/>
  </clipPath>
  <clipPath id="p1758b7ab23">
   <rect x="476.252841" y="22.318125" width="355.090909" height="277.2"/>
  </clipPath>
 </defs>
</svg>