<?xml version="1.0" encoding="utf-8" standalone="no"?>
<!DOCTYPE svg PUBLIC "-//W3C//DTD SVG 1.1//EN"
  "http://www.w3.org/Graphics/SVG/1.1/DTD/svg11.dtd">
<svg xmlns:xlink="http://www.w3.org/1999/xlink" width="422.469062pt" height="325.986375pt" viewBox="0 0 422.469062 325.986375" xmlns="http://www.w3.org/2000/svg" version="1.1">
 <metadata>
  <rdf:RDF xmlns:dc="http://purl.org/dc/elements/1.1/" xmlns:cc="http://creativecommons.org/ns#" xmlns:rdf="http://www.w3.org/1999/02/22-rdf-syntax-ns#">
   <cc:Work>
    <dc:type rdf:resource="http://purl.org/dc/dcmitype/StillImage"/>
    <dc:date>2024-10-27T08:32:42.069021</dc:date>
    <dc:format>image/svg+xml</dc:format>
    <dc:creator>
     <cc:Agent>
      <dc:title>Matplotlib v3.9.0, https://matplotlib.org/</dc:title>
     </cc:Agent>
    </dc:creator>
   </cc:Work>
  </rdf:RDF>
 </metadata>
 <defs>
  <style type="text/css">*{stroke-linejoin: round; stroke-linecap: butt}</style>
 </defs>
 <g id="figure_1">
  <g id="patch_1">
   <path d="M 0 325.986375 
L 422.469062 325.986375 
L 422.469062 0 
L 0 0 
z
" style="fill: #ffffff"/>
  </g>
  <g id="axes_1">
   <g id="patch_2">
    <path d="M 50.14375 288.430125 
L 407.26375 288.430125 
L 407.26375 22.318125 
L 50.14375 22.318125 
z
" style="fill: #ffffff"/>
   </g>
   <g id="patch_3">
    <path d="M 84.454464 288.430125 
L 93.736876 288.430125 
L 93.736876 287.901023 
L 84.454464 287.901023 
z
" clip-path="url(#p7fcccdc26c)" style="fill: #1f77b4; opacity: 0.5"/>
   </g>
   <g id="patch_4">
    <path d="M 93.736876 288.430125 
L 103.019288 288.430125 
L 103.019288 284.99096 
L 93.736876 284.99096 
z
" clip-path="url(#p7fcccdc26c)" style="fill: #1f77b4; opacity: 0.5"/>
   </g>
   <g id="patch_5">
    <path d="M 103.019288 288.430125 
L 112.301699 288.430125 
L 112.301699 272.292505 
L 103.019288 272.292505 
z
" clip-path="url(#p7fcccdc26c)" style="fill: #1f77b4; opacity: 0.5"/>
   </g>
   <g id="patch_6">
    <path d="M 112.301699 288.430125 
L 121.584111 288.430125 
L 121.584111 244.250083 
L 112.301699 244.250083 
z
" clip-path="url(#p7fcccdc26c)" style="fill: #1f77b4; opacity: 0.5"/>
   </g>
   <g id="patch_7">
    <path d="M 121.584111 288.430125 
L 130.866523 288.430125 
L 130.866523 186.842484 
L 121.584111 186.842484 
z
" clip-path="url(#p7fcccdc26c)" style="fill: #1f77b4; opacity: 0.5"/>
   </g>
   <g id="patch_8">
    <path d="M 130.866523 288.430125 
L 140.148935 288.430125 
L 140.148935 113.032714 
L 130.866523 113.032714 
z
" clip-path="url(#p7fcccdc26c)" style="fill: #1f77b4; opacity: 0.5"/>
   </g>
   <g id="patch_9">
    <path d="M 140.148935 288.430125 
L 149.431346 288.430125 
L 149.431346 46.894927 
L 140.148935 46.894927 
z
" clip-path="url(#p7fcccdc26c)" style="fill: #1f77b4; opacity: 0.5"/>
   </g>
   <g id="patch_10">
    <path d="M 149.431346 288.430125 
L 158.713758 288.430125 
L 158.713758 69.381774 
L 149.431346 69.381774 
z
" clip-path="url(#p7fcccdc26c)" style="fill: #1f77b4; opacity: 0.5"/>
   </g>
   <g id="patch_11">
    <path d="M 158.713758 288.430125 
L 167.99617 288.430125 
L 167.99617 146.63071 
L 158.713758 146.63071 
z
" clip-path="url(#p7fcccdc26c)" style="fill: #1f77b4; opacity: 0.5"/>
   </g>
   <g id="patch_12">
    <path d="M 167.99617 288.430125 
L 177.278581 288.430125 
L 177.278581 216.207662 
L 167.99617 216.207662 
z
" clip-path="url(#p7fcccdc26c)" style="fill: #1f77b4; opacity: 0.5"/>
   </g>
   <g id="patch_13">
    <path d="M 177.278581 288.430125 
L 186.560993 288.430125 
L 186.560993 257.21309 
L 177.278581 257.21309 
z
" clip-path="url(#p7fcccdc26c)" style="fill: #1f77b4; opacity: 0.5"/>
   </g>
   <g id="patch_14">
    <path d="M 186.560993 288.430125 
L 195.843405 288.430125 
L 195.843405 263.562317 
L 186.560993 263.562317 
z
" clip-path="url(#p7fcccdc26c)" style="fill: #1f77b4; opacity: 0.5"/>
   </g>
   <g id="patch_15">
    <path d="M 195.843405 288.430125 
L 205.125816 288.430125 
L 205.125816 236.842651 
L 195.843405 236.842651 
z
" clip-path="url(#p7fcccdc26c)" style="fill: #1f77b4; opacity: 0.5"/>
   </g>
   <g id="patch_16">
    <path d="M 205.125816 288.430125 
L 214.408228 288.430125 
L 214.408228 166.207495 
L 205.125816 166.207495 
z
" clip-path="url(#p7fcccdc26c)" style="fill: #1f77b4; opacity: 0.5"/>
   </g>
   <g id="patch_17">
    <path d="M 214.408228 288.430125 
L 223.69064 288.430125 
L 223.69064 99.011503 
L 214.408228 99.011503 
z
" clip-path="url(#p7fcccdc26c)" style="fill: #1f77b4; opacity: 0.5"/>
   </g>
   <g id="patch_18">
    <path d="M 223.69064 288.430125 
L 232.973052 288.430125 
L 232.973052 34.990125 
L 223.69064 34.990125 
z
" clip-path="url(#p7fcccdc26c)" style="fill: #1f77b4; opacity: 0.5"/>
   </g>
   <g id="patch_19">
    <path d="M 232.973052 288.430125 
L 242.255463 288.430125 
L 242.255463 88.694008 
L 232.973052 88.694008 
z
" clip-path="url(#p7fcccdc26c)" style="fill: #1f77b4; opacity: 0.5"/>
   </g>
   <g id="patch_20">
    <path d="M 242.255463 288.430125 
L 251.537875 288.430125 
L 251.537875 152.979937 
L 242.255463 152.979937 
z
" clip-path="url(#p7fcccdc26c)" style="fill: #1f77b4; opacity: 0.5"/>
   </g>
   <g id="patch_21">
    <path d="M 251.537875 288.430125 
L 260.820287 288.430125 
L 260.820287 225.996054 
L 251.537875 225.996054 
z
" clip-path="url(#p7fcccdc26c)" style="fill: #1f77b4; opacity: 0.5"/>
   </g>
   <g id="patch_22">
    <path d="M 260.820287 288.430125 
L 270.102698 288.430125 
L 270.102698 265.414175 
L 260.820287 265.414175 
z
" clip-path="url(#p7fcccdc26c)" style="fill: #1f77b4; opacity: 0.5"/>
   </g>
   <g id="patch_23">
    <path d="M 270.102698 288.430125 
L 279.38511 288.430125 
L 279.38511 272.557056 
L 270.102698 272.557056 
z
" clip-path="url(#p7fcccdc26c)" style="fill: #1f77b4; opacity: 0.5"/>
   </g>
   <g id="patch_24">
    <path d="M 279.38511 288.430125 
L 288.667522 288.430125 
L 288.667522 258.006743 
L 279.38511 258.006743 
z
" clip-path="url(#p7fcccdc26c)" style="fill: #1f77b4; opacity: 0.5"/>
   </g>
   <g id="patch_25">
    <path d="M 288.667522 288.430125 
L 297.949934 288.430125 
L 297.949934 217.794968 
L 288.667522 217.794968 
z
" clip-path="url(#p7fcccdc26c)" style="fill: #1f77b4; opacity: 0.5"/>
   </g>
   <g id="patch_26">
    <path d="M 297.949934 288.430125 
L 307.232345 288.430125 
L 307.232345 178.90595 
L 297.949934 178.90595 
z
" clip-path="url(#p7fcccdc26c)" style="fill: #1f77b4; opacity: 0.5"/>
   </g>
   <g id="patch_27">
    <path d="M 307.232345 288.430125 
L 316.514757 288.430125 
L 316.514757 164.884739 
L 307.232345 164.884739 
z
" clip-path="url(#p7fcccdc26c)" style="fill: #1f77b4; opacity: 0.5"/>
   </g>
   <g id="patch_28">
    <path d="M 316.514757 288.430125 
L 325.797169 288.430125 
L 325.797169 190.281649 
L 316.514757 190.281649 
z
" clip-path="url(#p7fcccdc26c)" style="fill: #1f77b4; opacity: 0.5"/>
   </g>
   <g id="patch_29">
    <path d="M 325.797169 288.430125 
L 335.07958 288.430125 
L 335.07958 230.493424 
L 325.797169 230.493424 
z
" clip-path="url(#p7fcccdc26c)" style="fill: #1f77b4; opacity: 0.5"/>
   </g>
   <g id="patch_30">
    <path d="M 335.07958 288.430125 
L 344.361992 288.430125 
L 344.361992 267.001482 
L 335.07958 267.001482 
z
" clip-path="url(#p7fcccdc26c)" style="fill: #1f77b4; opacity: 0.5"/>
   </g>
   <g id="patch_31">
    <path d="M 344.361992 288.430125 
L 353.644404 288.430125 
L 353.644404 281.287244 
L 344.361992 281.287244 
z
" clip-path="url(#p7fcccdc26c)" style="fill: #1f77b4; opacity: 0.5"/>
   </g>
   <g id="patch_32">
    <path d="M 353.644404 288.430125 
L 362.926816 288.430125 
L 362.926816 286.842818 
L 353.644404 286.842818 
z
" clip-path="url(#p7fcccdc26c)" style="fill: #1f77b4; opacity: 0.5"/>
   </g>
   <g id="matplotlib.axis_1">
    <g id="xtick_1">
     <g id="line2d_1">
      <defs>
       <path id="md378ff3136" d="M 0 0 
L 0 3.5 
" style="stroke: #000000; stroke-width: 0.8"/>
      </defs>
      <g>
       <use xlink:href="#md378ff3136" x="66.376477" y="288.430125" style="stroke: #000000; stroke-width: 0.8"/>
      </g>
     </g>
     <g id="text_1">
      <!-- −5.0 -->
      <g transform="translate(54.235071 303.028562) scale(0.1 -0.1)">
       <defs>
        <path id="DejaVuSans-2212" d="M 678 2272 
L 4684 2272 
L 4684 1741 
L 678 1741 
L 678 2272 
z
" transform="scale(0.015625)"/>
        <path id="DejaVuSans-35" d="M 691 4666 
L 3169 4666 
L 3169 4134 
L 1269 4134 
L 1269 2991 
Q 1406 3038 1543 3061 
Q 1681 3084 1819 3084 
Q 2600 3084 3056 2656 
Q 3513 2228 3513 1497 
Q 3513 744 3044 326 
Q 2575 -91 1722 -91 
Q 1428 -91 1123 -41 
Q 819 9 494 109 
L 494 744 
Q 775 591 1075 516 
Q 1375 441 1709 441 
Q 2250 441 2565 725 
Q 2881 1009 2881 1497 
Q 2881 1984 2565 2268 
Q 2250 2553 1709 2553 
Q 1456 2553 1204 2497 
Q 953 2441 691 2322 
L 691 4666 
z
" transform="scale(0.015625)"/>
        <path id="DejaVuSans-2e" d="M 684 794 
L 1344 794 
L 1344 0 
L 684 0 
L 684 794 
z
" transform="scale(0.015625)"/>
        <path id="DejaVuSans-30" d="M 2034 4250 
Q 1547 4250 1301 3770 
Q 1056 3291 1056 2328 
Q 1056 1369 1301 889 
Q 1547 409 2034 409 
Q 2525 409 2770 889 
Q 3016 1369 3016 2328 
Q 3016 3291 2770 3770 
Q 2525 4250 2034 4250 
z
M 2034 4750 
Q 2819 4750 3233 4129 
Q 3647 3509 3647 2328 
Q 3647 1150 3233 529 
Q 2819 -91 2034 -91 
Q 1250 -91 836 529 
Q 422 1150 422 2328 
Q 422 3509 836 4129 
Q 1250 4750 2034 4750 
z
" transform="scale(0.015625)"/>
       </defs>
       <use xlink:href="#DejaVuSans-2212"/>
       <use xlink:href="#DejaVuSans-35" x="83.789062"/>
       <use xlink:href="#DejaVuSans-2e" x="147.412109"/>
       <use xlink:href="#DejaVuSans-30" x="179.199219"/>
      </g>
     </g>
    </g>
    <g id="xtick_2">
     <g id="line2d_2">
      <g>
       <use xlink:href="#md378ff3136" x="106.958295" y="288.430125" style="stroke: #000000; stroke-width: 0.8"/>
      </g>
     </g>
     <g id="text_2">
      <!-- −2.5 -->
      <g transform="translate(94.816889 303.028562) scale(0.1 -0.1)">
       <defs>
        <path id="DejaVuSans-32" d="M 1228 531 
L 3431 531 
L 3431 0 
L 469 0 
L 469 531 
Q 828 903 1448 1529 
Q 2069 2156 2228 2338 
Q 2531 2678 2651 2914 
Q 2772 3150 2772 3378 
Q 2772 3750 2511 3984 
Q 2250 4219 1831 4219 
Q 1534 4219 1204 4116 
Q 875 4013 500 3803 
L 500 4441 
Q 881 4594 1212 4672 
Q 1544 4750 1819 4750 
Q 2544 4750 2975 4387 
Q 3406 4025 3406 3419 
Q 3406 3131 3298 2873 
Q 3191 2616 2906 2266 
Q 2828 2175 2409 1742 
Q 1991 1309 1228 531 
z
" transform="scale(0.015625)"/>
       </defs>
       <use xlink:href="#DejaVuSans-2212"/>
       <use xlink:href="#DejaVuSans-32" x="83.789062"/>
       <use xlink:href="#DejaVuSans-2e" x="147.412109"/>
       <use xlink:href="#DejaVuSans-35" x="179.199219"/>
      </g>
     </g>
    </g>
    <g id="xtick_3">
     <g id="line2d_3">
      <g>
       <use xlink:href="#md378ff3136" x="147.540114" y="288.430125" style="stroke: #000000; stroke-width: 0.8"/>
      </g>
     </g>
     <g id="text_3">
      <!-- 0.0 -->
      <g transform="translate(139.588551 303.028562) scale(0.1 -0.1)">
       <use xlink:href="#DejaVuSans-30"/>
       <use xlink:href="#DejaVuSans-2e" x="63.623047"/>
       <use xlink:href="#DejaVuSans-30" x="95.410156"/>
      </g>
     </g>
    </g>
    <g id="xtick_4">
     <g id="line2d_4">
      <g>
       <use xlink:href="#md378ff3136" x="188.121932" y="288.430125" style="stroke: #000000; stroke-width: 0.8"/>
      </g>
     </g>
     <g id="text_4">
      <!-- 2.5 -->
      <g transform="translate(180.170369 303.028562) scale(0.1 -0.1)">
       <use xlink:href="#DejaVuSans-32"/>
       <use xlink:href="#DejaVuSans-2e" x="63.623047"/>
       <use xlink:href="#DejaVuSans-35" x="95.410156"/>
      </g>
     </g>
    </g>
    <g id="xtick_5">
     <g id="line2d_5">
      <g>
       <use xlink:href="#md378ff3136" x="228.70375" y="288.430125" style="stroke: #000000; stroke-width: 0.8"/>
      </g>
     </g>
     <g id="text_5">
      <!-- 5.0 -->
      <g transform="translate(220.752188 303.028562) scale(0.1 -0.1)">
       <use xlink:href="#DejaVuSans-35"/>
       <use xlink:href="#DejaVuSans-2e" x="63.623047"/>
       <use xlink:href="#DejaVuSans-30" x="95.410156"/>
      </g>
     </g>
    </g>
    <g id="xtick_6">
     <g id="line2d_6">
      <g>
       <use xlink:href="#md378ff3136" x="269.285568" y="288.430125" style="stroke: #000000; stroke-width: 0.8"/>
      </g>
     </g>
     <g id="text_6">
      <!-- 7.5 -->
      <g transform="translate(261.334006 303.028562) scale(0.1 -0.1)">
       <defs>
        <path id="DejaVuSans-37" d="M 525 4666 
L 3525 4666 
L 3525 4397 
L 1831 0 
L 1172 0 
L 2766 4134 
L 525 4134 
L 525 4666 
z
" transform="scale(0.015625)"/>
       </defs>
       <use xlink:href="#DejaVuSans-37"/>
       <use xlink:href="#DejaVuSans-2e" x="63.623047"/>
       <use xlink:href="#DejaVuSans-35" x="95.410156"/>
      </g>
     </g>
    </g>
    <g id="xtick_7">
     <g id="line2d_7">
      <g>
       <use xlink:href="#md378ff3136" x="309.867386" y="288.430125" style="stroke: #000000; stroke-width: 0.8"/>
      </g>
     </g>
     <g id="text_7">
      <!-- 10.0 -->
      <g transform="translate(298.734574 303.028562) scale(0.1 -0.1)">
       <defs>
        <path id="DejaVuSans-31" d="M 794 531 
L 1825 531 
L 1825 4091 
L 703 3866 
L 703 4441 
L 1819 4666 
L 2450 4666 
L 2450 531 
L 3481 531 
L 3481 0 
L 794 0 
L 794 531 
z
" transform="scale(0.015625)"/>
       </defs>
       <use xlink:href="#DejaVuSans-31"/>
       <use xlink:href="#DejaVuSans-30" x="63.623047"/>
       <use xlink:href="#DejaVuSans-2e" x="127.246094"/>
       <use xlink:href="#DejaVuSans-30" x="159.033203"/>
      </g>
     </g>
    </g>
    <g id="xtick_8">
     <g id="line2d_8">
      <g>
       <use xlink:href="#md378ff3136" x="350.449205" y="288.430125" style="stroke: #000000; stroke-width: 0.8"/>
      </g>
     </g>
     <g id="text_8">
      <!-- 12.5 -->
      <g transform="translate(339.316392 303.028562) scale(0.1 -0.1)">
       <use xlink:href="#DejaVuSans-31"/>
       <use xlink:href="#DejaVuSans-32" x="63.623047"/>
       <use xlink:href="#DejaVuSans-2e" x="127.246094"/>
       <use xlink:href="#DejaVuSans-35" x="159.033203"/>
      </g>
     </g>
    </g>
    <g id="xtick_9">
     <g id="line2d_9">
      <g>
       <use xlink:href="#md378ff3136" x="391.031023" y="288.430125" style="stroke: #000000; stroke-width: 0.8"/>
      </g>
     </g>
     <g id="text_9">
      <!-- 15.0 -->
      <g transform="translate(379.89821 303.028562) scale(0.1 -0.1)">
       <use xlink:href="#DejaVuSans-31"/>
       <use xlink:href="#DejaVuSans-35" x="63.623047"/>
       <use xlink:href="#DejaVuSans-2e" x="127.246094"/>
       <use xlink:href="#DejaVuSans-30" x="159.033203"/>
      </g>
     </g>
    </g>
    <g id="text_10">
     <!-- x -->
     <g transform="translate(225.744375 316.706687) scale(0.1 -0.1)">
      <defs>
       <path id="DejaVuSans-78" d="M 3513 3500 
L 2247 1797 
L 3578 0 
L 2900 0 
L 1881 1375 
L 863 0 
L 184 0 
L 1544 1831 
L 300 3500 
L 978 3500 
L 1906 2253 
L 2834 3500 
L 3513 3500 
z
" transform="scale(0.015625)"/>
      </defs>
      <use xlink:href="#DejaVuSans-78"/>
     </g>
    </g>
   </g>
   <g id="matplotlib.axis_2">
    <g id="ytick_1">
     <g id="line2d_10">
      <defs>
       <path id="m4dd7fd0d4a" d="M 0 0 
L -3.5 0 
" style="stroke: #000000; stroke-width: 0.8"/>
      </defs>
      <g>
       <use xlink:href="#m4dd7fd0d4a" x="50.14375" y="288.430125" style="stroke: #000000; stroke-width: 0.8"/>
      </g>
     </g>
     <g id="text_11">
      <!-- 0.00 -->
      <g transform="translate(20.878125 292.229344) scale(0.1 -0.1)">
       <use xlink:href="#DejaVuSans-30"/>
       <use xlink:href="#DejaVuSans-2e" x="63.623047"/>
       <use xlink:href="#DejaVuSans-30" x="95.410156"/>
       <use xlink:href="#DejaVuSans-30" x="159.033203"/>
      </g>
     </g>
    </g>
    <g id="ytick_2">
     <g id="line2d_11">
      <g>
       <use xlink:href="#m4dd7fd0d4a" x="50.14375" y="258.174301" style="stroke: #000000; stroke-width: 0.8"/>
      </g>
     </g>
     <g id="text_12">
      <!-- 0.02 -->
      <g transform="translate(20.878125 261.97352) scale(0.1 -0.1)">
       <use xlink:href="#DejaVuSans-30"/>
       <use xlink:href="#DejaVuSans-2e" x="63.623047"/>
       <use xlink:href="#DejaVuSans-30" x="95.410156"/>
       <use xlink:href="#DejaVuSans-32" x="159.033203"/>
      </g>
     </g>
    </g>
    <g id="ytick_3">
     <g id="line2d_12">
      <g>
       <use xlink:href="#m4dd7fd0d4a" x="50.14375" y="227.918478" style="stroke: #000000; stroke-width: 0.8"/>
      </g>
     </g>
     <g id="text_13">
      <!-- 0.04 -->
      <g transform="translate(20.878125 231.717696) scale(0.1 -0.1)">
       <defs>
        <path id="DejaVuSans-34" d="M 2419 4116 
L 825 1625 
L 2419 1625 
L 2419 4116 
z
M 2253 4666 
L 3047 4666 
L 3047 1625 
L 3713 1625 
L 3713 1100 
L 3047 1100 
L 3047 0 
L 2419 0 
L 2419 1100 
L 313 1100 
L 313 1709 
L 2253 4666 
z
" transform="scale(0.015625)"/>
       </defs>
       <use xlink:href="#DejaVuSans-30"/>
       <use xlink:href="#DejaVuSans-2e" x="63.623047"/>
       <use xlink:href="#DejaVuSans-30" x="95.410156"/>
       <use xlink:href="#DejaVuSans-34" x="159.033203"/>
      </g>
     </g>
    </g>
    <g id="ytick_4">
     <g id="line2d_13">
      <g>
       <use xlink:href="#m4dd7fd0d4a" x="50.14375" y="197.662654" style="stroke: #000000; stroke-width: 0.8"/>
      </g>
     </g>
     <g id="text_14">
      <!-- 0.06 -->
      <g transform="translate(20.878125 201.461873) scale(0.1 -0.1)">
       <defs>
        <path id="DejaVuSans-36" d="M 2113 2584 
Q 1688 2584 1439 2293 
Q 1191 2003 1191 1497 
Q 1191 994 1439 701 
Q 1688 409 2113 409 
Q 2538 409 2786 701 
Q 3034 994 3034 1497 
Q 3034 2003 2786 2293 
Q 2538 2584 2113 2584 
z
M 3366 4563 
L 3366 3988 
Q 3128 4100 2886 4159 
Q 2644 4219 2406 4219 
Q 1781 4219 1451 3797 
Q 1122 3375 1075 2522 
Q 1259 2794 1537 2939 
Q 1816 3084 2150 3084 
Q 2853 3084 3261 2657 
Q 3669 2231 3669 1497 
Q 3669 778 3244 343 
Q 2819 -91 2113 -91 
Q 1303 -91 875 529 
Q 447 1150 447 2328 
Q 447 3434 972 4092 
Q 1497 4750 2381 4750 
Q 2619 4750 2861 4703 
Q 3103 4656 3366 4563 
z
" transform="scale(0.015625)"/>
       </defs>
       <use xlink:href="#DejaVuSans-30"/>
       <use xlink:href="#DejaVuSans-2e" x="63.623047"/>
       <use xlink:href="#DejaVuSans-30" x="95.410156"/>
       <use xlink:href="#DejaVuSans-36" x="159.033203"/>
      </g>
     </g>
    </g>
    <g id="ytick_5">
     <g id="line2d_14">
      <g>
       <use xlink:href="#m4dd7fd0d4a" x="50.14375" y="167.40683" style="stroke: #000000; stroke-width: 0.8"/>
      </g>
     </g>
     <g id="text_15">
      <!-- 0.08 -->
      <g transform="translate(20.878125 171.206049) scale(0.1 -0.1)">
       <defs>
        <path id="DejaVuSans-38" d="M 2034 2216 
Q 1584 2216 1326 1975 
Q 1069 1734 1069 1313 
Q 1069 891 1326 650 
Q 1584 409 2034 409 
Q 2484 409 2743 651 
Q 3003 894 3003 1313 
Q 3003 1734 2745 1975 
Q 2488 2216 2034 2216 
z
M 1403 2484 
Q 997 2584 770 2862 
Q 544 3141 544 3541 
Q 544 4100 942 4425 
Q 1341 4750 2034 4750 
Q 2731 4750 3128 4425 
Q 3525 4100 3525 3541 
Q 3525 3141 3298 2862 
Q 3072 2584 2669 2484 
Q 3125 2378 3379 2068 
Q 3634 1759 3634 1313 
Q 3634 634 3220 271 
Q 2806 -91 2034 -91 
Q 1263 -91 848 271 
Q 434 634 434 1313 
Q 434 1759 690 2068 
Q 947 2378 1403 2484 
z
M 1172 3481 
Q 1172 3119 1398 2916 
Q 1625 2713 2034 2713 
Q 2441 2713 2670 2916 
Q 2900 3119 2900 3481 
Q 2900 3844 2670 4047 
Q 2441 4250 2034 4250 
Q 1625 4250 1398 4047 
Q 1172 3844 1172 3481 
z
" transform="scale(0.015625)"/>
       </defs>
       <use xlink:href="#DejaVuSans-30"/>
       <use xlink:href="#DejaVuSans-2e" x="63.623047"/>
       <use xlink:href="#DejaVuSans-30" x="95.410156"/>
       <use xlink:href="#DejaVuSans-38" x="159.033203"/>
      </g>
     </g>
    </g>
    <g id="ytick_6">
     <g id="line2d_15">
      <g>
       <use xlink:href="#m4dd7fd0d4a" x="50.14375" y="137.151006" style="stroke: #000000; stroke-width: 0.8"/>
      </g>
     </g>
     <g id="text_16">
      <!-- 0.10 -->
      <g transform="translate(20.878125 140.950225) scale(0.1 -0.1)">
       <use xlink:href="#DejaVuSans-30"/>
       <use xlink:href="#DejaVuSans-2e" x="63.623047"/>
       <use xlink:href="#DejaVuSans-31" x="95.410156"/>
       <use xlink:href="#DejaVuSans-30" x="159.033203"/>
      </g>
     </g>
    </g>
    <g id="ytick_7">
     <g id="line2d_16">
      <g>
       <use xlink:href="#m4dd7fd0d4a" x="50.14375" y="106.895183" style="stroke: #000000; stroke-width: 0.8"/>
      </g>
     </g>
     <g id="text_17">
      <!-- 0.12 -->
      <g transform="translate(20.878125 110.694401) scale(0.1 -0.1)">
       <use xlink:href="#DejaVuSans-30"/>
       <use xlink:href="#DejaVuSans-2e" x="63.623047"/>
       <use xlink:href="#DejaVuSans-31" x="95.410156"/>
       <use xlink:href="#DejaVuSans-32" x="159.033203"/>
      </g>
     </g>
    </g>
    <g id="ytick_8">
     <g id="line2d_17">
      <g>
       <use xlink:href="#m4dd7fd0d4a" x="50.14375" y="76.639359" style="stroke: #000000; stroke-width: 0.8"/>
      </g>
     </g>
     <g id="text_18">
      <!-- 0.14 -->
      <g transform="translate(20.878125 80.438578) scale(0.1 -0.1)">
       <use xlink:href="#DejaVuSans-30"/>
       <use xlink:href="#DejaVuSans-2e" x="63.623047"/>
       <use xlink:href="#DejaVuSans-31" x="95.410156"/>
       <use xlink:href="#DejaVuSans-34" x="159.033203"/>
      </g>
     </g>
    </g>
    <g id="ytick_9">
     <g id="line2d_18">
      <g>
       <use xlink:href="#m4dd7fd0d4a" x="50.14375" y="46.383535" style="stroke: #000000; stroke-width: 0.8"/>
      </g>
     </g>
     <g id="text_19">
      <!-- 0.16 -->
      <g transform="translate(20.878125 50.182754) scale(0.1 -0.1)">
       <use xlink:href="#DejaVuSans-30"/>
       <use xlink:href="#DejaVuSans-2e" x="63.623047"/>
       <use xlink:href="#DejaVuSans-31" x="95.410156"/>
       <use xlink:href="#DejaVuSans-36" x="159.033203"/>
      </g>
     </g>
    </g>
    <g id="text_20">
     <!-- density -->
     <g transform="translate(14.798438 173.706937) rotate(-90) scale(0.1 -0.1)">
      <defs>
       <path id="DejaVuSans-64" d="M 2906 2969 
L 2906 4863 
L 3481 4863 
L 3481 0 
L 2906 0 
L 2906 525 
Q 2725 213 2448 61 
Q 2172 -91 1784 -91 
Q 1150 -91 751 415 
Q 353 922 353 1747 
Q 353 2572 751 3078 
Q 1150 3584 1784 3584 
Q 2172 3584 2448 3432 
Q 2725 3281 2906 2969 
z
M 947 1747 
Q 947 1113 1208 752 
Q 1469 391 1925 391 
Q 2381 391 2643 752 
Q 2906 1113 2906 1747 
Q 2906 2381 2643 2742 
Q 2381 3103 1925 3103 
Q 1469 3103 1208 2742 
Q 947 2381 947 1747 
z
" transform="scale(0.015625)"/>
       <path id="DejaVuSans-65" d="M 3597 1894 
L 3597 1613 
L 953 1613 
Q 991 1019 1311 708 
Q 1631 397 2203 397 
Q 2534 397 2845 478 
Q 3156 559 3463 722 
L 3463 178 
Q 3153 47 2828 -22 
Q 2503 -91 2169 -91 
Q 1331 -91 842 396 
Q 353 884 353 1716 
Q 353 2575 817 3079 
Q 1281 3584 2069 3584 
Q 2775 3584 3186 3129 
Q 3597 2675 3597 1894 
z
M 3022 2063 
Q 3016 2534 2758 2815 
Q 2500 3097 2075 3097 
Q 1594 3097 1305 2825 
Q 1016 2553 972 2059 
L 3022 2063 
z
" transform="scale(0.015625)"/>
       <path id="DejaVuSans-6e" d="M 3513 2113 
L 3513 0 
L 2938 0 
L 2938 2094 
Q 2938 2591 2744 2837 
Q 2550 3084 2163 3084 
Q 1697 3084 1428 2787 
Q 1159 2491 1159 1978 
L 1159 0 
L 581 0 
L 581 3500 
L 1159 3500 
L 1159 2956 
Q 1366 3272 1645 3428 
Q 1925 3584 2291 3584 
Q 2894 3584 3203 3211 
Q 3513 2838 3513 2113 
z
" transform="scale(0.015625)"/>
       <path id="DejaVuSans-73" d="M 2834 3397 
L 2834 2853 
Q 2591 2978 2328 3040 
Q 2066 3103 1784 3103 
Q 1356 3103 1142 2972 
Q 928 2841 928 2578 
Q 928 2378 1081 2264 
Q 1234 2150 1697 2047 
L 1894 2003 
Q 2506 1872 2764 1633 
Q 3022 1394 3022 966 
Q 3022 478 2636 193 
Q 2250 -91 1575 -91 
Q 1294 -91 989 -36 
Q 684 19 347 128 
L 347 722 
Q 666 556 975 473 
Q 1284 391 1588 391 
Q 1994 391 2212 530 
Q 2431 669 2431 922 
Q 2431 1156 2273 1281 
Q 2116 1406 1581 1522 
L 1381 1569 
Q 847 1681 609 1914 
Q 372 2147 372 2553 
Q 372 3047 722 3315 
Q 1072 3584 1716 3584 
Q 2034 3584 2315 3537 
Q 2597 3491 2834 3397 
z
" transform="scale(0.015625)"/>
       <path id="DejaVuSans-69" d="M 603 3500 
L 1178 3500 
L 1178 0 
L 603 0 
L 603 3500 
z
M 603 4863 
L 1178 4863 
L 1178 4134 
L 603 4134 
L 603 4863 
z
" transform="scale(0.015625)"/>
       <path id="DejaVuSans-74" d="M 1172 4494 
L 1172 3500 
L 2356 3500 
L 2356 3053 
L 1172 3053 
L 1172 1153 
Q 1172 725 1289 603 
Q 1406 481 1766 481 
L 2356 481 
L 2356 0 
L 1766 0 
Q 1100 0 847 248 
Q 594 497 594 1153 
L 594 3053 
L 172 3053 
L 172 3500 
L 594 3500 
L 594 4494 
L 1172 4494 
z
" transform="scale(0.015625)"/>
       <path id="DejaVuSans-79" d="M 2059 -325 
Q 1816 -950 1584 -1140 
Q 1353 -1331 966 -1331 
L 506 -1331 
L 506 -850 
L 844 -850 
Q 1081 -850 1212 -737 
Q 1344 -625 1503 -206 
L 1606 56 
L 191 3500 
L 800 3500 
L 1894 763 
L 2988 3500 
L 3597 3500 
L 2059 -325 
z
" transform="scale(0.015625)"/>
      </defs>
      <use xlink:href="#DejaVuSans-64"/>
      <use xlink:href="#DejaVuSans-65" x="63.476562"/>
      <use xlink:href="#DejaVuSans-6e" x="125"/>
      <use xlink:href="#DejaVuSans-73" x="188.378906"/>
      <use xlink:href="#DejaVuSans-69" x="240.478516"/>
      <use xlink:href="#DejaVuSans-74" x="268.261719"/>
      <use xlink:href="#DejaVuSans-79" x="307.470703"/>
     </g>
    </g>
   </g>
   <g id="line2d_19">
    <path d="M 66.376477 288.428695 
L 82.950433 288.311494 
L 87.825126 288.071043 
L 91.074921 287.714292 
L 93.674757 287.22124 
L 95.949614 286.556543 
L 97.899491 285.743479 
L 99.524389 284.840669 
L 101.149286 283.680734 
L 102.774184 282.206575 
L 104.074102 280.757784 
L 105.37402 279.03021 
L 106.673938 276.984851 
L 107.973856 274.580605 
L 109.273775 271.774939 
L 110.573693 268.524742 
L 112.19859 263.772073 
L 113.823488 258.179245 
L 115.448386 251.675814 
L 117.073283 244.204947 
L 118.698181 235.728754 
L 120.648058 224.213294 
L 122.597935 211.266095 
L 124.872792 194.497828 
L 127.472628 173.531864 
L 131.697362 137.242046 
L 135.272137 107.22971 
L 137.546993 90.004721 
L 139.171891 79.155496 
L 140.796788 69.841811 
L 142.096707 63.667139 
L 143.071645 59.854225 
L 144.046584 56.786218 
L 145.021522 54.494625 
L 145.671481 53.410281 
L 146.32144 52.686734 
L 146.971399 52.327335 
L 147.621359 52.333751 
L 148.271318 52.705945 
L 148.921277 53.442183 
L 149.571236 54.539042 
L 150.221195 55.991438 
L 151.196133 58.821567 
L 152.171072 62.407007 
L 153.47099 68.298206 
L 154.770908 75.360887 
L 156.395806 85.646566 
L 158.345683 99.762057 
L 160.62054 118.018359 
L 164.845273 154.258184 
L 168.420048 184.205925 
L 171.019884 204.090789 
L 172.969761 217.507386 
L 174.919639 229.442156 
L 176.544536 238.178394 
L 178.169434 245.781148 
L 179.794331 252.240867 
L 181.09425 256.588876 
L 182.394168 260.215559 
L 183.694086 263.129553 
L 184.669024 264.85255 
L 185.643963 266.182624 
L 186.618902 267.122111 
L 187.59384 267.672343 
L 188.243799 267.823049 
L 188.893758 267.800602 
L 189.543717 267.604491 
L 190.193676 267.233959 
L 191.168615 266.348868 
L 192.143553 265.064705 
L 193.118492 263.376179 
L 194.093431 261.277267 
L 195.393349 257.829169 
L 196.693267 253.624744 
L 197.993185 248.650342 
L 199.293103 242.89598 
L 200.918001 234.600694 
L 202.542898 225.091441 
L 204.492775 212.13276 
L 206.442653 197.610011 
L 208.717509 178.974385 
L 211.967304 150.156621 
L 217.491956 100.749693 
L 219.766813 82.706396 
L 221.391711 71.426852 
L 222.691629 63.61103 
L 223.991547 57.024685 
L 224.966485 52.966674 
L 225.941424 49.713353 
L 226.916363 47.299871 
L 227.566322 46.170821 
L 228.216281 45.432406 
L 228.86624 45.088233 
L 229.516199 45.139988 
L 230.166158 45.587425 
L 230.816117 46.428365 
L 231.466076 47.658715 
L 232.116035 49.272503 
L 233.090974 52.394572 
L 234.065912 56.327673 
L 235.36583 62.759605 
L 236.665748 70.437424 
L 238.290646 81.571092 
L 240.240523 96.773908 
L 242.840359 119.217799 
L 250.964847 191.405123 
L 253.239704 209.021408 
L 255.189581 222.537409 
L 257.139458 234.450234 
L 258.764356 243.112273 
L 260.389254 250.625356 
L 262.014151 257.015636 
L 263.314069 261.347824 
L 264.613988 265.015501 
L 265.913906 268.047698 
L 267.213824 270.473853 
L 268.188762 271.912894 
L 269.163701 273.038217 
L 270.138639 273.860069 
L 271.113578 274.387612 
L 272.088517 274.628832 
L 273.063455 274.590502 
L 274.038394 274.278211 
L 275.013332 273.696441 
L 275.988271 272.848698 
L 276.963209 271.73769 
L 278.263128 269.850461 
L 279.563046 267.503276 
L 280.862964 264.70069 
L 282.487861 260.566683 
L 284.112759 255.749941 
L 285.737657 250.281059 
L 287.687534 242.923823 
L 289.96239 233.395836 
L 292.887206 220.066363 
L 299.061817 191.440709 
L 301.011694 183.43288 
L 302.636592 177.537509 
L 304.26149 172.528761 
L 305.561408 169.260034 
L 306.536346 167.281599 
L 307.511285 165.733365 
L 308.486223 164.632605 
L 309.136182 164.153682 
L 309.786141 163.881648 
L 310.436101 163.817875 
L 311.08606 163.962691 
L 311.736019 164.315374 
L 312.385978 164.874161 
L 313.360916 166.092407 
L 314.335855 167.754256 
L 315.310793 169.84127 
L 316.610712 173.245131 
L 317.91063 177.298333 
L 319.535527 183.161328 
L 321.485404 191.143728 
L 324.085241 202.8831 
L 331.884749 238.904358 
L 334.159606 248.078039 
L 336.109483 255.124487 
L 338.05936 261.35174 
L 339.684258 265.902819 
L 341.309155 269.884162 
L 342.934053 273.320866 
L 344.558951 276.248911 
L 346.183848 278.711796 
L 347.808746 280.75746 
L 349.433644 282.435603 
L 351.058541 283.79548 
L 352.683439 284.884179 
L 354.633316 285.89389 
L 356.583193 286.643225 
L 358.85805 287.264957 
L 361.457886 287.733122 
L 364.707681 288.077002 
L 369.257395 288.303084 
L 376.731924 288.410302 
L 391.031023 288.429819 
L 391.031023 288.429819 
" clip-path="url(#p7fcccdc26c)" style="fill: none; stroke: #ff0000; stroke-width: 1.5; stroke-linecap: square"/>
   </g>
   <g id="line2d_20">
    <path d="M 66.376477 288.429225 
L 84.102615 288.313612 
L 89.053597 288.063832 
L 92.348841 287.684489 
L 94.897379 287.174093 
L 97.023866 286.525642 
L 98.874397 285.732207 
L 100.546368 284.775586 
L 102.10471 283.626927 
L 103.581888 282.25919 
L 105.010368 280.628887 
L 106.406383 278.693404 
L 107.802397 276.367276 
L 109.198412 273.595553 
L 110.610659 270.280137 
L 112.039139 266.342932 
L 113.500085 261.646842 
L 115.009728 256.019885 
L 116.56807 249.325121 
L 118.191343 241.340607 
L 119.895779 231.809239 
L 121.713845 220.339337 
L 123.678005 206.486425 
L 125.885655 189.273127 
L 128.564055 166.530015 
L 137.492055 89.112014 
L 139.310121 76.139073 
L 140.835997 66.758217 
L 142.167081 59.892093 
L 143.319605 55.046527 
L 144.326034 51.709225 
L 145.202601 49.513118 
L 145.965539 48.156057 
L 146.614848 47.41475 
L 147.182994 47.081186 
L 147.686208 47.032414 
L 148.189423 47.215529 
L 148.725103 47.664658 
L 149.325714 48.478129 
L 150.007488 49.79436 
L 150.802892 51.848779 
L 151.695692 54.802657 
L 152.718354 58.995004 
L 153.88711 64.783274 
L 155.218194 72.56418 
L 156.760303 82.97365 
L 158.594601 96.963379 
L 160.948346 116.759767 
L 165.753234 159.656268 
L 168.951081 187.00468 
L 171.304826 205.296716 
L 173.35015 219.510278 
L 175.184448 230.756518 
L 176.872652 239.780121 
L 178.447226 247.024391 
L 179.908172 252.731588 
L 181.255488 257.136579 
L 182.505408 260.496397 
L 183.657932 262.983514 
L 184.713059 264.753438 
L 185.67079 265.945055 
L 186.531125 266.68163 
L 187.326528 267.083075 
L 188.073234 267.216297 
L 188.803706 267.118557 
L 189.550412 266.785333 
L 190.329583 266.185483 
L 191.173685 265.243728 
L 192.09895 263.860256 
L 193.105379 261.93457 
L 194.192972 259.35492 
L 195.377961 255.946878 
L 196.660346 251.547385 
L 198.023895 246.048957 
L 199.501074 239.131996 
L 201.091881 230.570373 
L 202.81255 220.038774 
L 204.695546 207.07613 
L 206.805801 190.940708 
L 209.338106 169.764625 
L 213.380055 133.754162 
L 217.016186 102.118839 
L 219.175139 85.214387 
L 220.912041 73.282661 
L 222.389219 64.60876 
L 223.671605 58.344763 
L 224.791663 53.930282 
L 225.765626 50.943361 
L 226.609728 49.021934 
L 227.340201 47.872101 
L 227.957045 47.277364 
L 228.492725 47.042595 
L 228.995939 47.061369 
L 229.499154 47.311936 
L 230.051066 47.852402 
L 230.684143 48.812151 
L 231.398383 50.325465 
L 232.226252 52.639389 
L 233.16775 55.979407 
L 234.23911 60.656365 
L 235.456565 67.030394 
L 236.852579 75.598011 
L 238.475852 87.025003 
L 240.440012 102.534149 
L 243.069714 125.222107 
L 250.471837 190.047704 
L 252.80935 208.032021 
L 254.854674 222.098066 
L 256.705205 233.338725 
L 258.425874 242.4744 
L 260.049146 249.926414 
L 261.575023 255.917512 
L 263.003503 260.663858 
L 264.350819 264.406108 
L 265.633205 267.333917 
L 266.834426 269.539662 
L 267.954485 271.148035 
L 268.993379 272.267906 
L 269.967343 273.003831 
L 270.892608 273.430049 
L 271.769175 273.595014 
L 272.645743 273.532991 
L 273.538543 273.24127 
L 274.463808 272.700067 
L 275.454005 271.856118 
L 276.525365 270.639562 
L 277.677888 268.984127 
L 278.927808 266.789025 
L 280.291357 263.928602 
L 281.768535 260.294458 
L 283.375575 255.730546 
L 285.144943 250.010214 
L 287.125335 242.82064 
L 289.41415 233.63584 
L 292.433437 220.519167 
L 298.536943 193.799838 
L 300.647197 185.695336 
L 302.351634 179.98696 
L 303.812579 175.832698 
L 305.078732 172.862562 
L 306.19879 170.76763 
L 307.188986 169.356767 
L 308.081786 168.453352 
L 308.87719 167.949993 
L 309.607663 167.741326 
L 310.30567 167.770054 
L 311.003677 168.02158 
L 311.750383 168.535717 
L 312.562019 169.37811 
L 313.454819 170.638495 
L 314.461248 172.464645 
L 315.581306 174.977593 
L 316.847459 178.385484 
L 318.308405 182.990786 
L 320.012841 189.142288 
L 322.09063 197.523678 
L 325.028754 210.395135 
L 331.01863 236.783195 
L 333.51847 246.671302 
L 335.677423 254.330539 
L 337.641583 260.503662 
L 339.475881 265.559639 
L 341.229015 269.758159 
L 342.917219 273.239367 
L 344.556725 276.125801 
L 346.179997 278.542829 
L 347.787037 280.545716 
L 349.41031 282.21934 
L 351.066048 283.610899 
L 352.786717 284.76828 
L 354.604783 285.723866 
L 356.585175 286.510954 
L 358.792826 287.14451 
L 361.341365 287.638989 
L 364.458048 288.007618 
L 368.564928 288.255374 
L 374.895692 288.390595 
L 390.30055 288.429562 
L 391.01479 288.429673 
L 391.01479 288.429673 
" clip-path="url(#p7fcccdc26c)" style="fill: none; stroke: #008000; stroke-width: 1.5; stroke-linecap: square"/>
   </g>
   <g id="patch_33">
    <path d="M 50.14375 288.430125 
L 50.14375 22.318125 
" style="fill: none; stroke: #000000; stroke-width: 0.8; stroke-linejoin: miter; stroke-linecap: square"/>
   </g>
   <g id="patch_34">
    <path d="M 407.26375 288.430125 
L 407.26375 22.318125 
" style="fill: none; stroke: #000000; stroke-width: 0.8; stroke-linejoin: miter; stroke-linecap: square"/>
   </g>
   <g id="patch_35">
    <path d="M 50.14375 288.430125 
L 407.26375 288.430125 
" style="fill: none; stroke: #000000; stroke-width: 0.8; stroke-linejoin: miter; stroke-linecap: square"/>
   </g>
   <g id="patch_36">
    <path d="M 50.14375 22.318125 
L 407.26375 22.318125 
" style="fill: none; stroke: #000000; stroke-width: 0.8; stroke-linejoin: miter; stroke-linecap: square"/>
   </g>
   <g id="text_21">
    <!-- Gaussian Mixture Model Approximation of Generated Samples -->
    <g transform="translate(42.138438 16.318125) scale(0.12 -0.12)">
     <defs>
      <path id="DejaVuSans-47" d="M 3809 666 
L 3809 1919 
L 2778 1919 
L 2778 2438 
L 4434 2438 
L 4434 434 
Q 4069 175 3628 42 
Q 3188 -91 2688 -91 
Q 1594 -91 976 548 
Q 359 1188 359 2328 
Q 359 3472 976 4111 
Q 1594 4750 2688 4750 
Q 3144 4750 3555 4637 
Q 3966 4525 4313 4306 
L 4313 3634 
Q 3963 3931 3569 4081 
Q 3175 4231 2741 4231 
Q 1884 4231 1454 3753 
Q 1025 3275 1025 2328 
Q 1025 1384 1454 906 
Q 1884 428 2741 428 
Q 3075 428 3337 486 
Q 3600 544 3809 666 
z
" transform="scale(0.015625)"/>
      <path id="DejaVuSans-61" d="M 2194 1759 
Q 1497 1759 1228 1600 
Q 959 1441 959 1056 
Q 959 750 1161 570 
Q 1363 391 1709 391 
Q 2188 391 2477 730 
Q 2766 1069 2766 1631 
L 2766 1759 
L 2194 1759 
z
M 3341 1997 
L 3341 0 
L 2766 0 
L 2766 531 
Q 2569 213 2275 61 
Q 1981 -91 1556 -91 
Q 1019 -91 701 211 
Q 384 513 384 1019 
Q 384 1609 779 1909 
Q 1175 2209 1959 2209 
L 2766 2209 
L 2766 2266 
Q 2766 2663 2505 2880 
Q 2244 3097 1772 3097 
Q 1472 3097 1187 3025 
Q 903 2953 641 2809 
L 641 3341 
Q 956 3463 1253 3523 
Q 1550 3584 1831 3584 
Q 2591 3584 2966 3190 
Q 3341 2797 3341 1997 
z
" transform="scale(0.015625)"/>
      <path id="DejaVuSans-75" d="M 544 1381 
L 544 3500 
L 1119 3500 
L 1119 1403 
Q 1119 906 1312 657 
Q 1506 409 1894 409 
Q 2359 409 2629 706 
Q 2900 1003 2900 1516 
L 2900 3500 
L 3475 3500 
L 3475 0 
L 2900 0 
L 2900 538 
Q 2691 219 2414 64 
Q 2138 -91 1772 -91 
Q 1169 -91 856 284 
Q 544 659 544 1381 
z
M 1991 3584 
L 1991 3584 
z
" transform="scale(0.015625)"/>
      <path id="DejaVuSans-20" transform="scale(0.015625)"/>
      <path id="DejaVuSans-4d" d="M 628 4666 
L 1569 4666 
L 2759 1491 
L 3956 4666 
L 4897 4666 
L 4897 0 
L 4281 0 
L 4281 4097 
L 3078 897 
L 2444 897 
L 1241 4097 
L 1241 0 
L 628 0 
L 628 4666 
z
" transform="scale(0.015625)"/>
      <path id="DejaVuSans-72" d="M 2631 2963 
Q 2534 3019 2420 3045 
Q 2306 3072 2169 3072 
Q 1681 3072 1420 2755 
Q 1159 2438 1159 1844 
L 1159 0 
L 581 0 
L 581 3500 
L 1159 3500 
L 1159 2956 
Q 1341 3275 1631 3429 
Q 1922 3584 2338 3584 
Q 2397 3584 2469 3576 
Q 2541 3569 2628 3553 
L 2631 2963 
z
" transform="scale(0.015625)"/>
      <path id="DejaVuSans-6f" d="M 1959 3097 
Q 1497 3097 1228 2736 
Q 959 2375 959 1747 
Q 959 1119 1226 758 
Q 1494 397 1959 397 
Q 2419 397 2687 759 
Q 2956 1122 2956 1747 
Q 2956 2369 2687 2733 
Q 2419 3097 1959 3097 
z
M 1959 3584 
Q 2709 3584 3137 3096 
Q 3566 2609 3566 1747 
Q 3566 888 3137 398 
Q 2709 -91 1959 -91 
Q 1206 -91 779 398 
Q 353 888 353 1747 
Q 353 2609 779 3096 
Q 1206 3584 1959 3584 
z
" transform="scale(0.015625)"/>
      <path id="DejaVuSans-6c" d="M 603 4863 
L 1178 4863 
L 1178 0 
L 603 0 
L 603 4863 
z
" transform="scale(0.015625)"/>
      <path id="DejaVuSans-41" d="M 2188 4044 
L 1331 1722 
L 3047 1722 
L 2188 4044 
z
M 1831 4666 
L 2547 4666 
L 4325 0 
L 3669 0 
L 3244 1197 
L 1141 1197 
L 716 0 
L 50 0 
L 1831 4666 
z
" transform="scale(0.015625)"/>
      <path id="DejaVuSans-70" d="M 1159 525 
L 1159 -1331 
L 581 -1331 
L 581 3500 
L 1159 3500 
L 1159 2969 
Q 1341 3281 1617 3432 
Q 1894 3584 2278 3584 
Q 2916 3584 3314 3078 
Q 3713 2572 3713 1747 
Q 3713 922 3314 415 
Q 2916 -91 2278 -91 
Q 1894 -91 1617 61 
Q 1341 213 1159 525 
z
M 3116 1747 
Q 3116 2381 2855 2742 
Q 2594 3103 2138 3103 
Q 1681 3103 1420 2742 
Q 1159 2381 1159 1747 
Q 1159 1113 1420 752 
Q 1681 391 2138 391 
Q 2594 391 2855 752 
Q 3116 1113 3116 1747 
z
" transform="scale(0.015625)"/>
      <path id="DejaVuSans-6d" d="M 3328 2828 
Q 3544 3216 3844 3400 
Q 4144 3584 4550 3584 
Q 5097 3584 5394 3201 
Q 5691 2819 5691 2113 
L 5691 0 
L 5113 0 
L 5113 2094 
Q 5113 2597 4934 2840 
Q 4756 3084 4391 3084 
Q 3944 3084 3684 2787 
Q 3425 2491 3425 1978 
L 3425 0 
L 2847 0 
L 2847 2094 
Q 2847 2600 2669 2842 
Q 2491 3084 2119 3084 
Q 1678 3084 1418 2786 
Q 1159 2488 1159 1978 
L 1159 0 
L 581 0 
L 581 3500 
L 1159 3500 
L 1159 2956 
Q 1356 3278 1631 3431 
Q 1906 3584 2284 3584 
Q 2666 3584 2933 3390 
Q 3200 3197 3328 2828 
z
" transform="scale(0.015625)"/>
      <path id="DejaVuSans-66" d="M 2375 4863 
L 2375 4384 
L 1825 4384 
Q 1516 4384 1395 4259 
Q 1275 4134 1275 3809 
L 1275 3500 
L 2222 3500 
L 2222 3053 
L 1275 3053 
L 1275 0 
L 697 0 
L 697 3053 
L 147 3053 
L 147 3500 
L 697 3500 
L 697 3744 
Q 697 4328 969 4595 
Q 1241 4863 1831 4863 
L 2375 4863 
z
" transform="scale(0.015625)"/>
      <path id="DejaVuSans-53" d="M 3425 4513 
L 3425 3897 
Q 3066 4069 2747 4153 
Q 2428 4238 2131 4238 
Q 1616 4238 1336 4038 
Q 1056 3838 1056 3469 
Q 1056 3159 1242 3001 
Q 1428 2844 1947 2747 
L 2328 2669 
Q 3034 2534 3370 2195 
Q 3706 1856 3706 1288 
Q 3706 609 3251 259 
Q 2797 -91 1919 -91 
Q 1588 -91 1214 -16 
Q 841 59 441 206 
L 441 856 
Q 825 641 1194 531 
Q 1563 422 1919 422 
Q 2459 422 2753 634 
Q 3047 847 3047 1241 
Q 3047 1584 2836 1778 
Q 2625 1972 2144 2069 
L 1759 2144 
Q 1053 2284 737 2584 
Q 422 2884 422 3419 
Q 422 4038 858 4394 
Q 1294 4750 2059 4750 
Q 2388 4750 2728 4690 
Q 3069 4631 3425 4513 
z
" transform="scale(0.015625)"/>
     </defs>
     <use xlink:href="#DejaVuSans-47"/>
     <use xlink:href="#DejaVuSans-61" x="77.490234"/>
     <use xlink:href="#DejaVuSans-75" x="138.769531"/>
     <use xlink:href="#DejaVuSans-73" x="202.148438"/>
     <use xlink:href="#DejaVuSans-73" x="254.248047"/>
     <use xlink:href="#DejaVuSans-69" x="306.347656"/>
     <use xlink:href="#DejaVuSans-61" x="334.130859"/>
     <use xlink:href="#DejaVuSans-6e" x="395.410156"/>
     <use xlink:href="#DejaVuSans-20" x="458.789062"/>
     <use xlink:href="#DejaVuSans-4d" x="490.576172"/>
     <use xlink:href="#DejaVuSans-69" x="576.855469"/>
     <use xlink:href="#DejaVuSans-78" x="604.638672"/>
     <use xlink:href="#DejaVuSans-74" x="663.818359"/>
     <use xlink:href="#DejaVuSans-75" x="703.027344"/>
     <use xlink:href="#DejaVuSans-72" x="766.40625"/>
     <use xlink:href="#DejaVuSans-65" x="805.269531"/>
     <use xlink:href="#DejaVuSans-20" x="866.792969"/>
     <use xlink:href="#DejaVuSans-4d" x="898.580078"/>
     <use xlink:href="#DejaVuSans-6f" x="984.859375"/>
     <use xlink:href="#DejaVuSans-64" x="1046.041016"/>
     <use xlink:href="#DejaVuSans-65" x="1109.517578"/>
     <use xlink:href="#DejaVuSans-6c" x="1171.041016"/>
     <use xlink:href="#DejaVuSans-20" x="1198.824219"/>
     <use xlink:href="#DejaVuSans-41" x="1230.611328"/>
     <use xlink:href="#DejaVuSans-70" x="1299.019531"/>
     <use xlink:href="#DejaVuSans-70" x="1362.496094"/>
     <use xlink:href="#DejaVuSans-72" x="1425.972656"/>
     <use xlink:href="#DejaVuSans-6f" x="1464.835938"/>
     <use xlink:href="#DejaVuSans-78" x="1522.892578"/>
     <use xlink:href="#DejaVuSans-69" x="1582.072266"/>
     <use xlink:href="#DejaVuSans-6d" x="1609.855469"/>
     <use xlink:href="#DejaVuSans-61" x="1707.267578"/>
     <use xlink:href="#DejaVuSans-74" x="1768.546875"/>
     <use xlink:href="#DejaVuSans-69" x="1807.755859"/>
     <use xlink:href="#DejaVuSans-6f" x="1835.539062"/>
     <use xlink:href="#DejaVuSans-6e" x="1896.720703"/>
     <use xlink:href="#DejaVuSans-20" x="1960.099609"/>
     <use xlink:href="#DejaVuSans-6f" x="1991.886719"/>
     <use xlink:href="#DejaVuSans-66" x="2053.068359"/>
     <use xlink:href="#DejaVuSans-20" x="2088.273438"/>
     <use xlink:href="#DejaVuSans-47" x="2120.060547"/>
     <use xlink:href="#DejaVuSans-65" x="2197.550781"/>
     <use xlink:href="#DejaVuSans-6e" x="2259.074219"/>
     <use xlink:href="#DejaVuSans-65" x="2322.453125"/>
     <use xlink:href="#DejaVuSans-72" x="2383.976562"/>
     <use xlink:href="#DejaVuSans-61" x="2425.089844"/>
     <use xlink:href="#DejaVuSans-74" x="2486.369141"/>
     <use xlink:href="#DejaVuSans-65" x="2525.578125"/>
     <use xlink:href="#DejaVuSans-64" x="2587.101562"/>
     <use xlink:href="#DejaVuSans-20" x="2650.578125"/>
     <use xlink:href="#DejaVuSans-53" x="2682.365234"/>
     <use xlink:href="#DejaVuSans-61" x="2745.841797"/>
     <use xlink:href="#DejaVuSans-6d" x="2807.121094"/>
     <use xlink:href="#DejaVuSans-70" x="2904.533203"/>
     <use xlink:href="#DejaVuSans-6c" x="2968.009766"/>
     <use xlink:href="#DejaVuSans-65" x="2995.792969"/>
     <use xlink:href="#DejaVuSans-73" x="3057.316406"/>
    </g>
   </g>
   <g id="legend_1">
    <g id="patch_37">
     <path d="M 267.130938 74.3525 
L 400.26375 74.3525 
Q 402.26375 74.3525 402.26375 72.3525 
L 402.26375 29.318125 
Q 402.26375 27.318125 400.26375 27.318125 
L 267.130938 27.318125 
Q 265.130938 27.318125 265.130938 29.318125 
L 265.130938 72.3525 
Q 265.130938 74.3525 267.130938 74.3525 
z
" style="fill: #ffffff; opacity: 0.8; stroke: #cccccc; stroke-linejoin: miter"/>
    </g>
    <g id="patch_38">
     <path d="M 269.130938 38.916562 
L 289.130938 38.916562 
L 289.130938 31.916562 
L 269.130938 31.916562 
z
" style="fill: #1f77b4; opacity: 0.5"/>
    </g>
    <g id="text_22">
     <!-- Generated Samples -->
     <g transform="translate(297.130938 38.916562) scale(0.1 -0.1)">
      <use xlink:href="#DejaVuSans-47"/>
      <use xlink:href="#DejaVuSans-65" x="77.490234"/>
      <use xlink:href="#DejaVuSans-6e" x="139.013672"/>
      <use xlink:href="#DejaVuSans-65" x="202.392578"/>
      <use xlink:href="#DejaVuSans-72" x="263.916016"/>
      <use xlink:href="#DejaVuSans-61" x="305.029297"/>
      <use xlink:href="#DejaVuSans-74" x="366.308594"/>
      <use xlink:href="#DejaVuSans-65" x="405.517578"/>
      <use xlink:href="#DejaVuSans-64" x="467.041016"/>
      <use xlink:href="#DejaVuSans-20" x="530.517578"/>
      <use xlink:href="#DejaVuSans-53" x="562.304688"/>
      <use xlink:href="#DejaVuSans-61" x="625.78125"/>
      <use xlink:href="#DejaVuSans-6d" x="687.060547"/>
      <use xlink:href="#DejaVuSans-70" x="784.472656"/>
      <use xlink:href="#DejaVuSans-6c" x="847.949219"/>
      <use xlink:href="#DejaVuSans-65" x="875.732422"/>
      <use xlink:href="#DejaVuSans-73" x="937.255859"/>
     </g>
    </g>
    <g id="line2d_21">
     <path d="M 269.130938 50.094688 
L 279.130938 50.094688 
L 289.130938 50.094688 
" style="fill: none; stroke: #ff0000; stroke-width: 1.5; stroke-linecap: square"/>
    </g>
    <g id="text_23">
     <!-- GMM Approximation -->
     <g transform="translate(297.130938 53.594688) scale(0.1 -0.1)">
      <use xlink:href="#DejaVuSans-47"/>
      <use xlink:href="#DejaVuSans-4d" x="77.490234"/>
      <use xlink:href="#DejaVuSans-4d" x="163.769531"/>
      <use xlink:href="#DejaVuSans-20" x="250.048828"/>
      <use xlink:href="#DejaVuSans-41" x="281.835938"/>
      <use xlink:href="#DejaVuSans-70" x="350.244141"/>
      <use xlink:href="#DejaVuSans-70" x="413.720703"/>
      <use xlink:href="#DejaVuSans-72" x="477.197266"/>
      <use xlink:href="#DejaVuSans-6f" x="516.060547"/>
      <use xlink:href="#DejaVuSans-78" x="574.117188"/>
      <use xlink:href="#DejaVuSans-69" x="633.296875"/>
      <use xlink:href="#DejaVuSans-6d" x="661.080078"/>
      <use xlink:href="#DejaVuSans-61" x="758.492188"/>
      <use xlink:href="#DejaVuSans-74" x="819.771484"/>
      <use xlink:href="#DejaVuSans-69" x="858.980469"/>
      <use xlink:href="#DejaVuSans-6f" x="886.763672"/>
      <use xlink:href="#DejaVuSans-6e" x="947.945312"/>
     </g>
    </g>
    <g id="line2d_22">
     <path d="M 269.130938 64.772812 
L 279.130938 64.772812 
L 289.130938 64.772812 
" style="fill: none; stroke: #008000; stroke-width: 1.5; stroke-linecap: square"/>
    </g>
    <g id="text_24">
     <!-- True Mixture PDF -->
     <g transform="translate(297.130938 68.272812) scale(0.1 -0.1)">
      <defs>
       <path id="DejaVuSans-54" d="M -19 4666 
L 3928 4666 
L 3928 4134 
L 2272 4134 
L 2272 0 
L 1638 0 
L 1638 4134 
L -19 4134 
L -19 4666 
z
" transform="scale(0.015625)"/>
       <path id="DejaVuSans-50" d="M 1259 4147 
L 1259 2394 
L 2053 2394 
Q 2494 2394 2734 2622 
Q 2975 2850 2975 3272 
Q 2975 3691 2734 3919 
Q 2494 4147 2053 4147 
L 1259 4147 
z
M 628 4666 
L 2053 4666 
Q 2838 4666 3239 4311 
Q 3641 3956 3641 3272 
Q 3641 2581 3239 2228 
Q 2838 1875 2053 1875 
L 1259 1875 
L 1259 0 
L 628 0 
L 628 4666 
z
" transform="scale(0.015625)"/>
       <path id="DejaVuSans-44" d="M 1259 4147 
L 1259 519 
L 2022 519 
Q 2988 519 3436 956 
Q 3884 1394 3884 2338 
Q 3884 3275 3436 3711 
Q 2988 4147 2022 4147 
L 1259 4147 
z
M 628 4666 
L 1925 4666 
Q 3281 4666 3915 4102 
Q 4550 3538 4550 2338 
Q 4550 1131 3912 565 
Q 3275 0 1925 0 
L 628 0 
L 628 4666 
z
" transform="scale(0.015625)"/>
       <path id="DejaVuSans-46" d="M 628 4666 
L 3309 4666 
L 3309 4134 
L 1259 4134 
L 1259 2759 
L 3109 2759 
L 3109 2228 
L 1259 2228 
L 1259 0 
L 628 0 
L 628 4666 
z
" transform="scale(0.015625)"/>
      </defs>
      <use xlink:href="#DejaVuSans-54"/>
      <use xlink:href="#DejaVuSans-72" x="46.333984"/>
      <use xlink:href="#DejaVuSans-75" x="87.447266"/>
      <use xlink:href="#DejaVuSans-65" x="150.826172"/>
      <use xlink:href="#DejaVuSans-20" x="212.349609"/>
      <use xlink:href="#DejaVuSans-4d" x="244.136719"/>
      <use xlink:href="#DejaVuSans-69" x="330.416016"/>
      <use xlink:href="#DejaVuSans-78" x="358.199219"/>
      <use xlink:href="#DejaVuSans-74" x="417.378906"/>
      <use xlink:href="#DejaVuSans-75" x="456.587891"/>
      <use xlink:href="#DejaVuSans-72" x="519.966797"/>
      <use xlink:href="#DejaVuSans-65" x="558.830078"/>
      <use xlink:href="#DejaVuSans-20" x="620.353516"/>
      <use xlink:href="#DejaVuSans-50" x="652.140625"/>
      <use xlink:href="#DejaVuSans-44" x="712.443359"/>
      <use xlink:href="#DejaVuSans-46" x="789.445312"/>
     </g>
    </g>
   </g>
  </g>
 </g>
 <defs>
  <clipPath id="p7fcccdc26c">
   <rect x="50.14375" y="22.318125" width="357.12" height="266.112"/>
  </clipPath>
 </defs>
</svg>