<?xml version="1.0" encoding="utf-8" standalone="no"?>
<!DOCTYPE svg PUBLIC "-//W3C//DTD SVG 1.1//EN"
  "http://www.w3.org/Graphics/SVG/1.1/DTD/svg11.dtd">
<svg xmlns:xlink="http://www.w3.org/1999/xlink" width="407.262969pt" height="326.630906pt" viewBox="0 0 407.262969 326.630906" xmlns="http://www.w3.org/2000/svg" version="1.1">
 <metadata>
  <rdf:RDF xmlns:dc="http://purl.org/dc/elements/1.1/" xmlns:cc="http://creativecommons.org/ns#" xmlns:rdf="http://www.w3.org/1999/02/22-rdf-syntax-ns#">
   <cc:Work>
    <dc:type rdf:resource="http://purl.org/dc/dcmitype/StillImage"/>
    <dc:date>2026-08-02T03:00:08.145834</dc:date>
    <dc:format>image/svg+xml</dc:format>
    <dc:creator>
     <cc:Agent>
      <dc:title>Matplotlib v3.11.0, https://matplotlib.org/</dc:title>
     </cc:Agent>
    </dc:creator>
   </cc:Work>
  </rdf:RDF>
 </metadata>
 <defs>
  <style type="text/css">*{stroke-linejoin: round; stroke-linecap: butt}</style>
 </defs>
 <g id="figure_1">
  <g id="patch_1">
   <path d="M -0 326.630906 
L 407.262969 326.630906 
L 407.262969 0 
L -0 0 
z
" style="fill: #ffffff"/>
  </g>
  <g id="axes_1">
   <g id="patch_2">
    <path d="M 42.942969 288.430125 
L 400.062969 288.430125 
L 400.062969 22.318125 
L 42.942969 22.318125 
z
" style="fill: #ffffff"/>
   </g>
   <g id="matplotlib.axis_1">
    <g id="xtick_1">
     <g id="line2d_1">
      <defs>
       <path id="m521c129c99" d="M 0 0 
L 0 3.5 
" style="stroke: #000000; stroke-width: 0.8"/>
      </defs>
      <g>
       <use xlink:href="#m521c129c99" x="71.948678" y="288.430125" style="stroke: #000000; stroke-width: 0.8"/>
      </g>
     </g>
     <g id="text_1">
      <!-- −2 -->
      <g transform="translate(64.577584 303.027781) scale(0.1 -0.1)">
       <defs>
        <path id="DejaVuSans-c9c" d="M 678 2272 
L 4684 2272 
L 4684 1741 
L 678 1741 
L 678 2272 
z
" transform="scale(0.015625)"/>
        <path id="DejaVuSans-15" d="M 1228 531 
L 3431 531 
L 3431 0 
L 469 0 
L 469 531 
Q 828 903 1448 1529 
Q 2069 2156 2228 2338 
Q 2531 2678 2651 2914 
Q 2772 3150 2772 3378 
Q 2772 3750 2511 3984 
Q 2250 4219 1831 4219 
Q 1534 4219 1204 4116 
Q 875 4013 500 3803 
L 500 4441 
Q 881 4594 1212 4672 
Q 1544 4750 1819 4750 
Q 2544 4750 2975 4387 
Q 3406 4025 3406 3419 
Q 3406 3131 3298 2873 
Q 3191 2616 2906 2266 
Q 2828 2175 2409 1742 
Q 1991 1309 1228 531 
z
" transform="scale(0.015625)"/>
       </defs>
       <use xlink:href="#DejaVuSans-c9c"/>
       <use xlink:href="#DejaVuSans-15" transform="translate(83.796875 0)"/>
      </g>
     </g>
    </g>
    <g id="xtick_2">
     <g id="line2d_2">
      <g>
       <use xlink:href="#m521c129c99" x="140.474398" y="288.430125" style="stroke: #000000; stroke-width: 0.8"/>
      </g>
     </g>
     <g id="text_2">
      <!-- −1 -->
      <g transform="translate(133.103305 303.027781) scale(0.1 -0.1)">
       <defs>
        <path id="DejaVuSans-14" d="M 794 531 
L 1825 531 
L 1825 4091 
L 703 3866 
L 703 4441 
L 1819 4666 
L 2450 4666 
L 2450 531 
L 3481 531 
L 3481 0 
L 794 0 
L 794 531 
z
" transform="scale(0.015625)"/>
       </defs>
       <use xlink:href="#DejaVuSans-c9c"/>
       <use xlink:href="#DejaVuSans-14" transform="translate(83.796875 0)"/>
      </g>
     </g>
    </g>
    <g id="xtick_3">
     <g id="line2d_3">
      <g>
       <use xlink:href="#m521c129c99" x="209.000119" y="288.430125" style="stroke: #000000; stroke-width: 0.8"/>
      </g>
     </g>
     <g id="text_3">
      <!-- 0 -->
      <g transform="translate(205.818869 303.027781) scale(0.1 -0.1)">
       <defs>
        <path id="DejaVuSans-13" d="M 2034 4250 
Q 1547 4250 1301 3770 
Q 1056 3291 1056 2328 
Q 1056 1369 1301 889 
Q 1547 409 2034 409 
Q 2525 409 2770 889 
Q 3016 1369 3016 2328 
Q 3016 3291 2770 3770 
Q 2525 4250 2034 4250 
z
M 2034 4750 
Q 2819 4750 3233 4129 
Q 3647 3509 3647 2328 
Q 3647 1150 3233 529 
Q 2819 -91 2034 -91 
Q 1250 -91 836 529 
Q 422 1150 422 2328 
Q 422 3509 836 4129 
Q 1250 4750 2034 4750 
z
" transform="scale(0.015625)"/>
       </defs>
       <use xlink:href="#DejaVuSans-13"/>
      </g>
     </g>
    </g>
    <g id="xtick_4">
     <g id="line2d_4">
      <g>
       <use xlink:href="#m521c129c99" x="277.525839" y="288.430125" style="stroke: #000000; stroke-width: 0.8"/>
      </g>
     </g>
     <g id="text_4">
      <!-- 1 -->
      <g transform="translate(274.344589 303.027781) scale(0.1 -0.1)">
       <use xlink:href="#DejaVuSans-14"/>
      </g>
     </g>
    </g>
    <g id="xtick_5">
     <g id="line2d_5">
      <g>
       <use xlink:href="#m521c129c99" x="346.051559" y="288.430125" style="stroke: #000000; stroke-width: 0.8"/>
      </g>
     </g>
     <g id="text_5">
      <!-- 2 -->
      <g transform="translate(342.870309 303.027781) scale(0.1 -0.1)">
       <use xlink:href="#DejaVuSans-15"/>
      </g>
     </g>
    </g>
    <g id="text_6">
     <!-- Theoretical Quantiles -->
     <g transform="translate(168.224844 317.028562) scale(0.1 -0.1)">
      <defs>
       <path id="DejaVuSans-37" d="M -19 4666 
L 3928 4666 
L 3928 4134 
L 2272 4134 
L 2272 0 
L 1638 0 
L 1638 4134 
L -19 4134 
L -19 4666 
z
" transform="scale(0.015625)"/>
       <path id="DejaVuSans-4b" d="M 3513 2113 
L 3513 0 
L 2938 0 
L 2938 2094 
Q 2938 2591 2744 2837 
Q 2550 3084 2163 3084 
Q 1697 3084 1428 2787 
Q 1159 2491 1159 1978 
L 1159 0 
L 581 0 
L 581 4863 
L 1159 4863 
L 1159 2956 
Q 1366 3272 1645 3428 
Q 1925 3584 2291 3584 
Q 2894 3584 3203 3211 
Q 3513 2838 3513 2113 
z
" transform="scale(0.015625)"/>
       <path id="DejaVuSans-48" d="M 3597 1894 
L 3597 1613 
L 953 1613 
Q 991 1019 1311 708 
Q 1631 397 2203 397 
Q 2534 397 2845 478 
Q 3156 559 3463 722 
L 3463 178 
Q 3153 47 2828 -22 
Q 2503 -91 2169 -91 
Q 1331 -91 842 396 
Q 353 884 353 1716 
Q 353 2575 817 3079 
Q 1281 3584 2069 3584 
Q 2775 3584 3186 3129 
Q 3597 2675 3597 1894 
z
M 3022 2063 
Q 3016 2534 2758 2815 
Q 2500 3097 2075 3097 
Q 1594 3097 1305 2825 
Q 1016 2553 972 2059 
L 3022 2063 
z
" transform="scale(0.015625)"/>
       <path id="DejaVuSans-52" d="M 1959 3097 
Q 1497 3097 1228 2736 
Q 959 2375 959 1747 
Q 959 1119 1226 758 
Q 1494 397 1959 397 
Q 2419 397 2687 759 
Q 2956 1122 2956 1747 
Q 2956 2369 2687 2733 
Q 2419 3097 1959 3097 
z
M 1959 3584 
Q 2709 3584 3137 3096 
Q 3566 2609 3566 1747 
Q 3566 888 3137 398 
Q 2709 -91 1959 -91 
Q 1206 -91 779 398 
Q 353 888 353 1747 
Q 353 2609 779 3096 
Q 1206 3584 1959 3584 
z
" transform="scale(0.015625)"/>
       <path id="DejaVuSans-55" d="M 2631 2963 
Q 2534 3019 2420 3045 
Q 2306 3072 2169 3072 
Q 1681 3072 1420 2755 
Q 1159 2438 1159 1844 
L 1159 0 
L 581 0 
L 581 3500 
L 1159 3500 
L 1159 2956 
Q 1341 3275 1631 3429 
Q 1922 3584 2338 3584 
Q 2397 3584 2469 3576 
Q 2541 3569 2628 3553 
L 2631 2963 
z
" transform="scale(0.015625)"/>
       <path id="DejaVuSans-57" d="M 1172 4494 
L 1172 3500 
L 2356 3500 
L 2356 3053 
L 1172 3053 
L 1172 1153 
Q 1172 725 1289 603 
Q 1406 481 1766 481 
L 2356 481 
L 2356 0 
L 1766 0 
Q 1100 0 847 248 
Q 594 497 594 1153 
L 594 3053 
L 172 3053 
L 172 3500 
L 594 3500 
L 594 4494 
L 1172 4494 
z
" transform="scale(0.015625)"/>
       <path id="DejaVuSans-4c" d="M 603 3500 
L 1178 3500 
L 1178 0 
L 603 0 
L 603 3500 
z
M 603 4863 
L 1178 4863 
L 1178 4134 
L 603 4134 
L 603 4863 
z
" transform="scale(0.015625)"/>
       <path id="DejaVuSans-46" d="M 3122 3366 
L 3122 2828 
Q 2878 2963 2633 3030 
Q 2388 3097 2138 3097 
Q 1578 3097 1268 2742 
Q 959 2388 959 1747 
Q 959 1106 1268 751 
Q 1578 397 2138 397 
Q 2388 397 2633 464 
Q 2878 531 3122 666 
L 3122 134 
Q 2881 22 2623 -34 
Q 2366 -91 2075 -91 
Q 1284 -91 818 406 
Q 353 903 353 1747 
Q 353 2603 823 3093 
Q 1294 3584 2113 3584 
Q 2378 3584 2631 3529 
Q 2884 3475 3122 3366 
z
" transform="scale(0.015625)"/>
       <path id="DejaVuSans-44" d="M 2194 1759 
Q 1497 1759 1228 1600 
Q 959 1441 959 1056 
Q 959 750 1161 570 
Q 1363 391 1709 391 
Q 2188 391 2477 730 
Q 2766 1069 2766 1631 
L 2766 1759 
L 2194 1759 
z
M 3341 1997 
L 3341 0 
L 2766 0 
L 2766 531 
Q 2569 213 2275 61 
Q 1981 -91 1556 -91 
Q 1019 -91 701 211 
Q 384 513 384 1019 
Q 384 1609 779 1909 
Q 1175 2209 1959 2209 
L 2766 2209 
L 2766 2266 
Q 2766 2663 2505 2880 
Q 2244 3097 1772 3097 
Q 1472 3097 1187 3025 
Q 903 2953 641 2809 
L 641 3341 
Q 956 3463 1253 3523 
Q 1550 3584 1831 3584 
Q 2591 3584 2966 3190 
Q 3341 2797 3341 1997 
z
" transform="scale(0.015625)"/>
       <path id="DejaVuSans-4f" d="M 603 4863 
L 1178 4863 
L 1178 0 
L 603 0 
L 603 4863 
z
" transform="scale(0.015625)"/>
       <path id="DejaVuSans-3" transform="scale(0.015625)"/>
       <path id="DejaVuSans-34" d="M 2522 4238 
Q 1834 4238 1429 3725 
Q 1025 3213 1025 2328 
Q 1025 1447 1429 934 
Q 1834 422 2522 422 
Q 3209 422 3611 934 
Q 4013 1447 4013 2328 
Q 4013 3213 3611 3725 
Q 3209 4238 2522 4238 
z
M 3406 84 
L 4238 -825 
L 3475 -825 
L 2784 -78 
Q 2681 -84 2626 -87 
Q 2572 -91 2522 -91 
Q 1538 -91 948 567 
Q 359 1225 359 2328 
Q 359 3434 948 4092 
Q 1538 4750 2522 4750 
Q 3503 4750 4090 4092 
Q 4678 3434 4678 2328 
Q 4678 1516 4351 937 
Q 4025 359 3406 84 
z
" transform="scale(0.015625)"/>
       <path id="DejaVuSans-58" d="M 544 1381 
L 544 3500 
L 1119 3500 
L 1119 1403 
Q 1119 906 1312 657 
Q 1506 409 1894 409 
Q 2359 409 2629 706 
Q 2900 1003 2900 1516 
L 2900 3500 
L 3475 3500 
L 3475 0 
L 2900 0 
L 2900 538 
Q 2691 219 2414 64 
Q 2138 -91 1772 -91 
Q 1169 -91 856 284 
Q 544 659 544 1381 
z
M 1991 3584 
L 1991 3584 
z
" transform="scale(0.015625)"/>
       <path id="DejaVuSans-51" d="M 3513 2113 
L 3513 0 
L 2938 0 
L 2938 2094 
Q 2938 2591 2744 2837 
Q 2550 3084 2163 3084 
Q 1697 3084 1428 2787 
Q 1159 2491 1159 1978 
L 1159 0 
L 581 0 
L 581 3500 
L 1159 3500 
L 1159 2956 
Q 1366 3272 1645 3428 
Q 1925 3584 2291 3584 
Q 2894 3584 3203 3211 
Q 3513 2838 3513 2113 
z
" transform="scale(0.015625)"/>
       <path id="DejaVuSans-56" d="M 2834 3397 
L 2834 2853 
Q 2591 2978 2328 3040 
Q 2066 3103 1784 3103 
Q 1356 3103 1142 2972 
Q 928 2841 928 2578 
Q 928 2378 1081 2264 
Q 1234 2150 1697 2047 
L 1894 2003 
Q 2506 1872 2764 1633 
Q 3022 1394 3022 966 
Q 3022 478 2636 193 
Q 2250 -91 1575 -91 
Q 1294 -91 989 -36 
Q 684 19 347 128 
L 347 722 
Q 666 556 975 473 
Q 1284 391 1588 391 
Q 1994 391 2212 530 
Q 2431 669 2431 922 
Q 2431 1156 2273 1281 
Q 2116 1406 1581 1522 
L 1381 1569 
Q 847 1681 609 1914 
Q 372 2147 372 2553 
Q 372 3047 722 3315 
Q 1072 3584 1716 3584 
Q 2034 3584 2315 3537 
Q 2597 3491 2834 3397 
z
" transform="scale(0.015625)"/>
      </defs>
      <use xlink:href="#DejaVuSans-37"/>
      <use xlink:href="#DejaVuSans-4b" transform="translate(61.078125 0)"/>
      <use xlink:href="#DejaVuSans-48" transform="translate(124.453125 0)"/>
      <use xlink:href="#DejaVuSans-52" transform="translate(185.984375 0)"/>
      <use xlink:href="#DejaVuSans-55" transform="translate(247.171875 0)"/>
      <use xlink:href="#DejaVuSans-48" transform="translate(286.078125 0)"/>
      <use xlink:href="#DejaVuSans-57" transform="translate(347.609375 0)"/>
      <use xlink:href="#DejaVuSans-4c" transform="translate(386.8125 0)"/>
      <use xlink:href="#DejaVuSans-46" transform="translate(414.59375 0)"/>
      <use xlink:href="#DejaVuSans-44" transform="translate(469.578125 0)"/>
      <use xlink:href="#DejaVuSans-4f" transform="translate(530.859375 0)"/>
      <use xlink:href="#DejaVuSans-3" transform="translate(558.640625 0)"/>
      <use xlink:href="#DejaVuSans-34" transform="translate(590.421875 0)"/>
      <use xlink:href="#DejaVuSans-58" transform="translate(669.140625 0)"/>
      <use xlink:href="#DejaVuSans-44" transform="translate(732.515625 0)"/>
      <use xlink:href="#DejaVuSans-51" transform="translate(793.796875 0)"/>
      <use xlink:href="#DejaVuSans-57" transform="translate(857.171875 0)"/>
      <use xlink:href="#DejaVuSans-4c" transform="translate(896.375 0)"/>
      <use xlink:href="#DejaVuSans-4f" transform="translate(924.15625 0)"/>
      <use xlink:href="#DejaVuSans-48" transform="translate(951.9375 0)"/>
      <use xlink:href="#DejaVuSans-56" transform="translate(1013.46875 0)"/>
     </g>
    </g>
   </g>
   <g id="matplotlib.axis_2">
    <g id="ytick_1">
     <g id="line2d_6">
      <defs>
       <path id="m1ad880c366" d="M 0 0 
L -3.5 0 
" style="stroke: #000000; stroke-width: 0.8"/>
      </defs>
      <g>
       <use xlink:href="#m1ad880c366" x="42.942969" y="266.816193" style="stroke: #000000; stroke-width: 0.8"/>
      </g>
     </g>
     <g id="text_7">
      <!-- −2 -->
      <g transform="translate(21.200781 270.615021) scale(0.1 -0.1)">
       <use xlink:href="#DejaVuSans-c9c"/>
       <use xlink:href="#DejaVuSans-15" transform="translate(83.796875 0)"/>
      </g>
     </g>
    </g>
    <g id="ytick_2">
     <g id="line2d_7">
      <g>
       <use xlink:href="#m1ad880c366" x="42.942969" y="215.753479" style="stroke: #000000; stroke-width: 0.8"/>
      </g>
     </g>
     <g id="text_8">
      <!-- −1 -->
      <g transform="translate(21.200781 219.552307) scale(0.1 -0.1)">
       <use xlink:href="#DejaVuSans-c9c"/>
       <use xlink:href="#DejaVuSans-14" transform="translate(83.796875 0)"/>
      </g>
     </g>
    </g>
    <g id="ytick_3">
     <g id="line2d_8">
      <g>
       <use xlink:href="#m1ad880c366" x="42.942969" y="164.690765" style="stroke: #000000; stroke-width: 0.8"/>
      </g>
     </g>
     <g id="text_9">
      <!-- 0 -->
      <g transform="translate(29.580469 168.489593) scale(0.1 -0.1)">
       <use xlink:href="#DejaVuSans-13"/>
      </g>
     </g>
    </g>
    <g id="ytick_4">
     <g id="line2d_9">
      <g>
       <use xlink:href="#m1ad880c366" x="42.942969" y="113.628051" style="stroke: #000000; stroke-width: 0.8"/>
      </g>
     </g>
     <g id="text_10">
      <!-- 1 -->
      <g transform="translate(29.580469 117.426879) scale(0.1 -0.1)">
       <use xlink:href="#DejaVuSans-14"/>
      </g>
     </g>
    </g>
    <g id="ytick_5">
     <g id="line2d_10">
      <g>
       <use xlink:href="#m1ad880c366" x="42.942969" y="62.565337" style="stroke: #000000; stroke-width: 0.8"/>
      </g>
     </g>
     <g id="text_11">
      <!-- 2 -->
      <g transform="translate(29.580469 66.364165) scale(0.1 -0.1)">
       <use xlink:href="#DejaVuSans-15"/>
      </g>
     </g>
    </g>
    <g id="text_12">
     <!-- Sample Quantiles -->
     <g transform="translate(14.798438 199.468656) rotate(-90) scale(0.1 -0.1)">
      <defs>
       <path id="DejaVuSans-36" d="M 3425 4513 
L 3425 3897 
Q 3066 4069 2747 4153 
Q 2428 4238 2131 4238 
Q 1616 4238 1336 4038 
Q 1056 3838 1056 3469 
Q 1056 3159 1242 3001 
Q 1428 2844 1947 2747 
L 2328 2669 
Q 3034 2534 3370 2195 
Q 3706 1856 3706 1288 
Q 3706 609 3251 259 
Q 2797 -91 1919 -91 
Q 1588 -91 1214 -16 
Q 841 59 441 206 
L 441 856 
Q 825 641 1194 531 
Q 1563 422 1919 422 
Q 2459 422 2753 634 
Q 3047 847 3047 1241 
Q 3047 1584 2836 1778 
Q 2625 1972 2144 2069 
L 1759 2144 
Q 1053 2284 737 2584 
Q 422 2884 422 3419 
Q 422 4038 858 4394 
Q 1294 4750 2059 4750 
Q 2388 4750 2728 4690 
Q 3069 4631 3425 4513 
z
" transform="scale(0.015625)"/>
       <path id="DejaVuSans-50" d="M 3328 2828 
Q 3544 3216 3844 3400 
Q 4144 3584 4550 3584 
Q 5097 3584 5394 3201 
Q 5691 2819 5691 2113 
L 5691 0 
L 5113 0 
L 5113 2094 
Q 5113 2597 4934 2840 
Q 4756 3084 4391 3084 
Q 3944 3084 3684 2787 
Q 3425 2491 3425 1978 
L 3425 0 
L 2847 0 
L 2847 2094 
Q 2847 2600 2669 2842 
Q 2491 3084 2119 3084 
Q 1678 3084 1418 2786 
Q 1159 2488 1159 1978 
L 1159 0 
L 581 0 
L 581 3500 
L 1159 3500 
L 1159 2956 
Q 1356 3278 1631 3431 
Q 1906 3584 2284 3584 
Q 2666 3584 2933 3390 
Q 3200 3197 3328 2828 
z
" transform="scale(0.015625)"/>
       <path id="DejaVuSans-53" d="M 1159 525 
L 1159 -1331 
L 581 -1331 
L 581 3500 
L 1159 3500 
L 1159 2969 
Q 1341 3281 1617 3432 
Q 1894 3584 2278 3584 
Q 2916 3584 3314 3078 
Q 3713 2572 3713 1747 
Q 3713 922 3314 415 
Q 2916 -91 2278 -91 
Q 1894 -91 1617 61 
Q 1341 213 1159 525 
z
M 3116 1747 
Q 3116 2381 2855 2742 
Q 2594 3103 2138 3103 
Q 1681 3103 1420 2742 
Q 1159 2381 1159 1747 
Q 1159 1113 1420 752 
Q 1681 391 2138 391 
Q 2594 391 2855 752 
Q 3116 1113 3116 1747 
z
" transform="scale(0.015625)"/>
      </defs>
      <use xlink:href="#DejaVuSans-36"/>
      <use xlink:href="#DejaVuSans-44" transform="translate(63.484375 0)"/>
      <use xlink:href="#DejaVuSans-50" transform="translate(124.765625 0)"/>
      <use xlink:href="#DejaVuSans-53" transform="translate(222.171875 0)"/>
      <use xlink:href="#DejaVuSans-4f" transform="translate(285.65625 0)"/>
      <use xlink:href="#DejaVuSans-48" transform="translate(313.4375 0)"/>
      <use xlink:href="#DejaVuSans-3" transform="translate(374.96875 0)"/>
      <use xlink:href="#DejaVuSans-34" transform="translate(406.75 0)"/>
      <use xlink:href="#DejaVuSans-58" transform="translate(485.46875 0)"/>
      <use xlink:href="#DejaVuSans-44" transform="translate(548.84375 0)"/>
      <use xlink:href="#DejaVuSans-51" transform="translate(610.125 0)"/>
      <use xlink:href="#DejaVuSans-57" transform="translate(673.5 0)"/>
      <use xlink:href="#DejaVuSans-4c" transform="translate(712.703125 0)"/>
      <use xlink:href="#DejaVuSans-4f" transform="translate(740.484375 0)"/>
      <use xlink:href="#DejaVuSans-48" transform="translate(768.265625 0)"/>
      <use xlink:href="#DejaVuSans-56" transform="translate(829.796875 0)"/>
     </g>
    </g>
   </g>
   <g id="line2d_11">
    <defs>
     <path id="m16b1c4cffd" d="M 0 3 
C 0.795609 3 1.55874 2.683901 2.12132 2.12132 
C 2.683901 1.55874 3 0.795609 3 0 
C 3 -0.795609 2.683901 -1.55874 2.12132 -2.12132 
C 1.55874 -2.683901 0.795609 -3 0 -3 
C -0.795609 -3 -1.55874 -2.683901 -2.12132 -2.12132 
C -2.683901 -1.55874 -3 -0.795609 -3 0 
C -3 0.795609 -2.683901 1.55874 -2.12132 2.12132 
C -1.55874 2.683901 -0.795609 3 0 3 
z
" style="stroke: #1f77b4"/>
    </defs>
    <g clip-path="url(#p632225dcbb)">
     <use xlink:href="#m16b1c4cffd" x="49.329782" y="274.276705" style="fill: #1f77b4; stroke: #1f77b4"/>
     <use xlink:href="#m16b1c4cffd" x="67.984055" y="264.632065" style="fill: #1f77b4; stroke: #1f77b4"/>
     <use xlink:href="#m16b1c4cffd" x="79.817005" y="260.772054" style="fill: #1f77b4; stroke: #1f77b4"/>
     <use xlink:href="#m16b1c4cffd" x="88.716888" y="252.51743" style="fill: #1f77b4; stroke: #1f77b4"/>
     <use xlink:href="#m16b1c4cffd" x="95.95511" y="249.455684" style="fill: #1f77b4; stroke: #1f77b4"/>
     <use xlink:href="#m16b1c4cffd" x="102.115071" y="246.802052" style="fill: #1f77b4; stroke: #1f77b4"/>
     <use xlink:href="#m16b1c4cffd" x="107.515401" y="245.471017" style="fill: #1f77b4; stroke: #1f77b4"/>
     <use xlink:href="#m16b1c4cffd" x="112.350104" y="243.029363" style="fill: #1f77b4; stroke: #1f77b4"/>
     <use xlink:href="#m16b1c4cffd" x="116.7465" y="237.576895" style="fill: #1f77b4; stroke: #1f77b4"/>
     <use xlink:href="#m16b1c4cffd" x="120.79287" y="236.003496" style="fill: #1f77b4; stroke: #1f77b4"/>
     <use xlink:href="#m16b1c4cffd" x="124.553073" y="235.005769" style="fill: #1f77b4; stroke: #1f77b4"/>
     <use xlink:href="#m16b1c4cffd" x="128.074872" y="230.422677" style="fill: #1f77b4; stroke: #1f77b4"/>
     <use xlink:href="#m16b1c4cffd" x="131.394978" y="228.013161" style="fill: #1f77b4; stroke: #1f77b4"/>
     <use xlink:href="#m16b1c4cffd" x="134.542256" y="227.061573" style="fill: #1f77b4; stroke: #1f77b4"/>
     <use xlink:href="#m16b1c4cffd" x="137.539837" y="224.207787" style="fill: #1f77b4; stroke: #1f77b4"/>
     <use xlink:href="#m16b1c4cffd" x="140.406564" y="214.506821" style="fill: #1f77b4; stroke: #1f77b4"/>
     <use xlink:href="#m16b1c4cffd" x="143.158007" y="211.305782" style="fill: #1f77b4; stroke: #1f77b4"/>
     <use xlink:href="#m16b1c4cffd" x="145.807195" y="211.292843" style="fill: #1f77b4; stroke: #1f77b4"/>
     <use xlink:href="#m16b1c4cffd" x="148.365146" y="210.396015" style="fill: #1f77b4; stroke: #1f77b4"/>
     <use xlink:href="#m16b1c4cffd" x="150.841276" y="209.092285" style="fill: #1f77b4; stroke: #1f77b4"/>
     <use xlink:href="#m16b1c4cffd" x="153.2437" y="208.883315" style="fill: #1f77b4; stroke: #1f77b4"/>
     <use xlink:href="#m16b1c4cffd" x="155.57947" y="207.892686" style="fill: #1f77b4; stroke: #1f77b4"/>
     <use xlink:href="#m16b1c4cffd" x="157.854759" y="207.341014" style="fill: #1f77b4; stroke: #1f77b4"/>
     <use xlink:href="#m16b1c4cffd" x="160.075009" y="207.174575" style="fill: #1f77b4; stroke: #1f77b4"/>
     <use xlink:href="#m16b1c4cffd" x="162.245045" y="206.914938" style="fill: #1f77b4; stroke: #1f77b4"/>
     <use xlink:href="#m16b1c4cffd" x="164.369172" y="205.102669" style="fill: #1f77b4; stroke: #1f77b4"/>
     <use xlink:href="#m16b1c4cffd" x="166.451254" y="195.422269" style="fill: #1f77b4; stroke: #1f77b4"/>
     <use xlink:href="#m16b1c4cffd" x="168.494773" y="191.186164" style="fill: #1f77b4; stroke: #1f77b4"/>
     <use xlink:href="#m16b1c4cffd" x="170.502885" y="188.855199" style="fill: #1f77b4; stroke: #1f77b4"/>
     <use xlink:href="#m16b1c4cffd" x="172.478466" y="188.138245" style="fill: #1f77b4; stroke: #1f77b4"/>
     <use xlink:href="#m16b1c4cffd" x="174.424145" y="187.922697" style="fill: #1f77b4; stroke: #1f77b4"/>
     <use xlink:href="#m16b1c4cffd" x="176.342337" y="186.938675" style="fill: #1f77b4; stroke: #1f77b4"/>
     <use xlink:href="#m16b1c4cffd" x="178.23527" y="185.3316" style="fill: #1f77b4; stroke: #1f77b4"/>
     <use xlink:href="#m16b1c4cffd" x="180.105012" y="185.279671" style="fill: #1f77b4; stroke: #1f77b4"/>
     <use xlink:href="#m16b1c4cffd" x="181.953481" y="183.744564" style="fill: #1f77b4; stroke: #1f77b4"/>
     <use xlink:href="#m16b1c4cffd" x="183.782475" y="182.154428" style="fill: #1f77b4; stroke: #1f77b4"/>
     <use xlink:href="#m16b1c4cffd" x="185.593674" y="181.832347" style="fill: #1f77b4; stroke: #1f77b4"/>
     <use xlink:href="#m16b1c4cffd" x="187.388666" y="180.681039" style="fill: #1f77b4; stroke: #1f77b4"/>
     <use xlink:href="#m16b1c4cffd" x="189.168948" y="180.311397" style="fill: #1f77b4; stroke: #1f77b4"/>
     <use xlink:href="#m16b1c4cffd" x="190.935943" y="175.703726" style="fill: #1f77b4; stroke: #1f77b4"/>
     <use xlink:href="#m16b1c4cffd" x="192.691005" y="170.984517" style="fill: #1f77b4; stroke: #1f77b4"/>
     <use xlink:href="#m16b1c4cffd" x="194.435433" y="170.604138" style="fill: #1f77b4; stroke: #1f77b4"/>
     <use xlink:href="#m16b1c4cffd" x="196.170471" y="169.970735" style="fill: #1f77b4; stroke: #1f77b4"/>
     <use xlink:href="#m16b1c4cffd" x="197.897322" y="169.068165" style="fill: #1f77b4; stroke: #1f77b4"/>
     <use xlink:href="#m16b1c4cffd" x="199.61715" y="168.992653" style="fill: #1f77b4; stroke: #1f77b4"/>
     <use xlink:href="#m16b1c4cffd" x="201.331087" y="167.639296" style="fill: #1f77b4; stroke: #1f77b4"/>
     <use xlink:href="#m16b1c4cffd" x="203.040239" y="166.647781" style="fill: #1f77b4; stroke: #1f77b4"/>
     <use xlink:href="#m16b1c4cffd" x="204.745691" y="165.532961" style="fill: #1f77b4; stroke: #1f77b4"/>
     <use xlink:href="#m16b1c4cffd" x="206.448512" y="162.536815" style="fill: #1f77b4; stroke: #1f77b4"/>
     <use xlink:href="#m16b1c4cffd" x="208.149758" y="162.180305" style="fill: #1f77b4; stroke: #1f77b4"/>
     <use xlink:href="#m16b1c4cffd" x="209.85048" y="161.779647" style="fill: #1f77b4; stroke: #1f77b4"/>
     <use xlink:href="#m16b1c4cffd" x="211.551726" y="160.576457" style="fill: #1f77b4; stroke: #1f77b4"/>
     <use xlink:href="#m16b1c4cffd" x="213.254546" y="160.524237" style="fill: #1f77b4; stroke: #1f77b4"/>
     <use xlink:href="#m16b1c4cffd" x="214.959998" y="160.19553" style="fill: #1f77b4; stroke: #1f77b4"/>
     <use xlink:href="#m16b1c4cffd" x="216.66915" y="158.431185" style="fill: #1f77b4; stroke: #1f77b4"/>
     <use xlink:href="#m16b1c4cffd" x="218.383087" y="157.295493" style="fill: #1f77b4; stroke: #1f77b4"/>
     <use xlink:href="#m16b1c4cffd" x="220.102915" y="156.64389" style="fill: #1f77b4; stroke: #1f77b4"/>
     <use xlink:href="#m16b1c4cffd" x="221.829766" y="156.348228" style="fill: #1f77b4; stroke: #1f77b4"/>
     <use xlink:href="#m16b1c4cffd" x="223.564804" y="152.73323" style="fill: #1f77b4; stroke: #1f77b4"/>
     <use xlink:href="#m16b1c4cffd" x="225.309232" y="152.568092" style="fill: #1f77b4; stroke: #1f77b4"/>
     <use xlink:href="#m16b1c4cffd" x="227.064294" y="152.538374" style="fill: #1f77b4; stroke: #1f77b4"/>
     <use xlink:href="#m16b1c4cffd" x="228.831289" y="150.886655" style="fill: #1f77b4; stroke: #1f77b4"/>
     <use xlink:href="#m16b1c4cffd" x="230.611571" y="148.923368" style="fill: #1f77b4; stroke: #1f77b4"/>
     <use xlink:href="#m16b1c4cffd" x="232.406563" y="148.269429" style="fill: #1f77b4; stroke: #1f77b4"/>
     <use xlink:href="#m16b1c4cffd" x="234.217763" y="147.100303" style="fill: #1f77b4; stroke: #1f77b4"/>
     <use xlink:href="#m16b1c4cffd" x="236.046756" y="146.695068" style="fill: #1f77b4; stroke: #1f77b4"/>
     <use xlink:href="#m16b1c4cffd" x="237.895226" y="146.347331" style="fill: #1f77b4; stroke: #1f77b4"/>
     <use xlink:href="#m16b1c4cffd" x="239.764967" y="145.452488" style="fill: #1f77b4; stroke: #1f77b4"/>
     <use xlink:href="#m16b1c4cffd" x="241.657901" y="144.870419" style="fill: #1f77b4; stroke: #1f77b4"/>
     <use xlink:href="#m16b1c4cffd" x="243.576092" y="144.200263" style="fill: #1f77b4; stroke: #1f77b4"/>
     <use xlink:href="#m16b1c4cffd" x="245.521771" y="144.089568" style="fill: #1f77b4; stroke: #1f77b4"/>
     <use xlink:href="#m16b1c4cffd" x="247.497352" y="142.187074" style="fill: #1f77b4; stroke: #1f77b4"/>
     <use xlink:href="#m16b1c4cffd" x="249.505465" y="141.106949" style="fill: #1f77b4; stroke: #1f77b4"/>
     <use xlink:href="#m16b1c4cffd" x="251.548983" y="138.717885" style="fill: #1f77b4; stroke: #1f77b4"/>
     <use xlink:href="#m16b1c4cffd" x="253.631065" y="138.165572" style="fill: #1f77b4; stroke: #1f77b4"/>
     <use xlink:href="#m16b1c4cffd" x="255.755192" y="137.929627" style="fill: #1f77b4; stroke: #1f77b4"/>
     <use xlink:href="#m16b1c4cffd" x="257.925228" y="133.686286" style="fill: #1f77b4; stroke: #1f77b4"/>
     <use xlink:href="#m16b1c4cffd" x="260.145478" y="132.874322" style="fill: #1f77b4; stroke: #1f77b4"/>
     <use xlink:href="#m16b1c4cffd" x="262.420767" y="129.262229" style="fill: #1f77b4; stroke: #1f77b4"/>
     <use xlink:href="#m16b1c4cffd" x="264.756537" y="127.069337" style="fill: #1f77b4; stroke: #1f77b4"/>
     <use xlink:href="#m16b1c4cffd" x="267.158961" y="127.054694" style="fill: #1f77b4; stroke: #1f77b4"/>
     <use xlink:href="#m16b1c4cffd" x="269.635091" y="125.180387" style="fill: #1f77b4; stroke: #1f77b4"/>
     <use xlink:href="#m16b1c4cffd" x="272.193042" y="124.335828" style="fill: #1f77b4; stroke: #1f77b4"/>
     <use xlink:href="#m16b1c4cffd" x="274.84223" y="123.668967" style="fill: #1f77b4; stroke: #1f77b4"/>
     <use xlink:href="#m16b1c4cffd" x="277.593674" y="117.05235" style="fill: #1f77b4; stroke: #1f77b4"/>
     <use xlink:href="#m16b1c4cffd" x="280.460401" y="111.044666" style="fill: #1f77b4; stroke: #1f77b4"/>
     <use xlink:href="#m16b1c4cffd" x="283.457981" y="110.397614" style="fill: #1f77b4; stroke: #1f77b4"/>
     <use xlink:href="#m16b1c4cffd" x="286.605259" y="109.002682" style="fill: #1f77b4; stroke: #1f77b4"/>
     <use xlink:href="#m16b1c4cffd" x="289.925365" y="106.670519" style="fill: #1f77b4; stroke: #1f77b4"/>
     <use xlink:href="#m16b1c4cffd" x="293.447164" y="98.953649" style="fill: #1f77b4; stroke: #1f77b4"/>
     <use xlink:href="#m16b1c4cffd" x="297.207367" y="91.974182" style="fill: #1f77b4; stroke: #1f77b4"/>
     <use xlink:href="#m16b1c4cffd" x="301.253737" y="91.374327" style="fill: #1f77b4; stroke: #1f77b4"/>
     <use xlink:href="#m16b1c4cffd" x="305.650133" y="89.014141" style="fill: #1f77b4; stroke: #1f77b4"/>
     <use xlink:href="#m16b1c4cffd" x="310.484836" y="88.414354" style="fill: #1f77b4; stroke: #1f77b4"/>
     <use xlink:href="#m16b1c4cffd" x="315.885166" y="80.292272" style="fill: #1f77b4; stroke: #1f77b4"/>
     <use xlink:href="#m16b1c4cffd" x="322.045127" y="53.796864" style="fill: #1f77b4; stroke: #1f77b4"/>
     <use xlink:href="#m16b1c4cffd" x="329.28335" y="50.430679" style="fill: #1f77b4; stroke: #1f77b4"/>
     <use xlink:href="#m16b1c4cffd" x="338.183232" y="48.276818" style="fill: #1f77b4; stroke: #1f77b4"/>
     <use xlink:href="#m16b1c4cffd" x="350.016182" y="47.54676" style="fill: #1f77b4; stroke: #1f77b4"/>
     <use xlink:href="#m16b1c4cffd" x="368.670455" y="34.316153" style="fill: #1f77b4; stroke: #1f77b4"/>
    </g>
   </g>
   <g id="line2d_12">
    <path d="M 42.942969 288.430125 
L 400.062969 22.318125 
" clip-path="url(#p632225dcbb)" style="fill: none; stroke: #ff0000; stroke-width: 1.5; stroke-linecap: square"/>
   </g>
   <g id="patch_3">
    <path d="M 42.942969 288.430125 
L 42.942969 22.318125 
" style="fill: none; stroke: #000000; stroke-width: 0.8; stroke-linejoin: miter; stroke-linecap: square"/>
   </g>
   <g id="patch_4">
    <path d="M 400.062969 288.430125 
L 400.062969 22.318125 
" style="fill: none; stroke: #000000; stroke-width: 0.8; stroke-linejoin: miter; stroke-linecap: square"/>
   </g>
   <g id="patch_5">
    <path d="M 42.942969 288.430125 
L 400.062969 288.430125 
" style="fill: none; stroke: #000000; stroke-width: 0.8; stroke-linejoin: miter; stroke-linecap: square"/>
   </g>
   <g id="patch_6">
    <path d="M 42.942969 22.318125 
L 400.062969 22.318125 
" style="fill: none; stroke: #000000; stroke-width: 0.8; stroke-linejoin: miter; stroke-linecap: square"/>
   </g>
   <g id="text_13">
    <!-- Normality Check - Q-Q Plot -->
    <g transform="translate(140.667969 16.318125) scale(0.12 -0.12)">
     <defs>
      <path id="DejaVuSans-31" d="M 628 4666 
L 1478 4666 
L 3547 763 
L 3547 4666 
L 4159 4666 
L 4159 0 
L 3309 0 
L 1241 3903 
L 1241 0 
L 628 0 
L 628 4666 
z
" transform="scale(0.015625)"/>
      <path id="DejaVuSans-5c" d="M 2059 -325 
Q 1816 -950 1584 -1140 
Q 1353 -1331 966 -1331 
L 506 -1331 
L 506 -850 
L 844 -850 
Q 1081 -850 1212 -737 
Q 1344 -625 1503 -206 
L 1606 56 
L 191 3500 
L 800 3500 
L 1894 763 
L 2988 3500 
L 3597 3500 
L 2059 -325 
z
" transform="scale(0.015625)"/>
      <path id="DejaVuSans-26" d="M 4122 4306 
L 4122 3641 
Q 3803 3938 3442 4084 
Q 3081 4231 2675 4231 
Q 1875 4231 1450 3742 
Q 1025 3253 1025 2328 
Q 1025 1406 1450 917 
Q 1875 428 2675 428 
Q 3081 428 3442 575 
Q 3803 722 4122 1019 
L 4122 359 
Q 3791 134 3420 21 
Q 3050 -91 2638 -91 
Q 1578 -91 968 557 
Q 359 1206 359 2328 
Q 359 3453 968 4101 
Q 1578 4750 2638 4750 
Q 3056 4750 3426 4639 
Q 3797 4528 4122 4306 
z
" transform="scale(0.015625)"/>
      <path id="DejaVuSans-4e" d="M 581 4863 
L 1159 4863 
L 1159 1991 
L 2875 3500 
L 3609 3500 
L 1753 1863 
L 3688 0 
L 2938 0 
L 1159 1709 
L 1159 0 
L 581 0 
L 581 4863 
z
" transform="scale(0.015625)"/>
      <path id="DejaVuSans-10" d="M 313 2009 
L 1997 2009 
L 1997 1497 
L 313 1497 
L 313 2009 
z
" transform="scale(0.015625)"/>
      <path id="DejaVuSans-33" d="M 1259 4147 
L 1259 2394 
L 2053 2394 
Q 2494 2394 2734 2622 
Q 2975 2850 2975 3272 
Q 2975 3691 2734 3919 
Q 2494 4147 2053 4147 
L 1259 4147 
z
M 628 4666 
L 2053 4666 
Q 2838 4666 3239 4311 
Q 3641 3956 3641 3272 
Q 3641 2581 3239 2228 
Q 2838 1875 2053 1875 
L 1259 1875 
L 1259 0 
L 628 0 
L 628 4666 
z
" transform="scale(0.015625)"/>
     </defs>
     <use xlink:href="#DejaVuSans-31"/>
     <use xlink:href="#DejaVuSans-52" transform="translate(74.8125 0)"/>
     <use xlink:href="#DejaVuSans-55" transform="translate(136 0)"/>
     <use xlink:href="#DejaVuSans-50" transform="translate(175.359375 0)"/>
     <use xlink:href="#DejaVuSans-44" transform="translate(272.765625 0)"/>
     <use xlink:href="#DejaVuSans-4f" transform="translate(334.046875 0)"/>
     <use xlink:href="#DejaVuSans-4c" transform="translate(361.828125 0)"/>
     <use xlink:href="#DejaVuSans-57" transform="translate(389.609375 0)"/>
     <use xlink:href="#DejaVuSans-5c" transform="translate(428.8125 0)"/>
     <use xlink:href="#DejaVuSans-3" transform="translate(488 0)"/>
     <use xlink:href="#DejaVuSans-26" transform="translate(519.78125 0)"/>
     <use xlink:href="#DejaVuSans-4b" transform="translate(589.609375 0)"/>
     <use xlink:href="#DejaVuSans-48" transform="translate(652.984375 0)"/>
     <use xlink:href="#DejaVuSans-46" transform="translate(714.515625 0)"/>
     <use xlink:href="#DejaVuSans-4e" transform="translate(769.5 0)"/>
     <use xlink:href="#DejaVuSans-3" transform="translate(827.40625 0)"/>
     <use xlink:href="#DejaVuSans-10" transform="translate(859.1875 0)"/>
     <use xlink:href="#DejaVuSans-3" transform="translate(895.265625 0)"/>
     <use xlink:href="#DejaVuSans-34" transform="translate(927.046875 0)"/>
     <use xlink:href="#DejaVuSans-10" transform="translate(1008.546875 0)"/>
     <use xlink:href="#DejaVuSans-34" transform="translate(1048.28125 0)"/>
     <use xlink:href="#DejaVuSans-3" transform="translate(1127 0)"/>
     <use xlink:href="#DejaVuSans-33" transform="translate(1158.78125 0)"/>
     <use xlink:href="#DejaVuSans-4f" transform="translate(1219.078125 0)"/>
     <use xlink:href="#DejaVuSans-52" transform="translate(1246.859375 0)"/>
     <use xlink:href="#DejaVuSans-57" transform="translate(1308.046875 0)"/>
    </g>
   </g>
  </g>
 </g>
 <defs>
  <clipPath id="p632225dcbb">
   <rect x="42.942969" y="22.318125" width="357.12" height="266.112"/>
  </clipPath>
 </defs>
</svg>