<?xml version="1.0" encoding="utf-8" standalone="no"?>
<!DOCTYPE svg PUBLIC "-//W3C//DTD SVG 1.1//EN"
  "http://www.w3.org/Graphics/SVG/1.1/DTD/svg11.dtd">
<svg xmlns:xlink="http://www.w3.org/1999/xlink" width="853.156108pt" height="337.074375pt" viewBox="0 0 853.156108 337.074375" xmlns="http://www.w3.org/2000/svg" version="1.1">
 <metadata>
  <rdf:RDF xmlns:dc="http://purl.org/dc/elements/1.1/" xmlns:cc="http://creativecommons.org/ns#" xmlns:rdf="http://www.w3.org/1999/02/22-rdf-syntax-ns#">
   <cc:Work>
    <dc:type rdf:resource="http://purl.org/dc/dcmitype/StillImage"/>
    <dc:date>2024-11-07T04:09:46.765211</dc:date>
    <dc:format>image/svg+xml</dc:format>
    <dc:creator>
     <cc:Agent>
      <dc:title>Matplotlib v3.9.0, https://matplotlib.org/</dc:title>
     </cc:Agent>
    </dc:creator>
   </cc:Work>
  </rdf:RDF>
 </metadata>
 <defs>
  <style type="text/css">*{stroke-linejoin: round; stroke-linecap: butt}</style>
 </defs>
 <g id="figure_1">
  <g id="patch_1">
   <path d="M 0 337.074375 
L 853.156108 337.074375 
L 853.156108 0 
L 0 0 
z
" style="fill: #ffffff"/>
  </g>
  <g id="axes_1">
   <g id="patch_2">
    <path d="M 43.78125 299.518125 
L 398.872159 299.518125 
L 398.872159 22.318125 
L 43.78125 22.318125 
z
" style="fill: #ffffff"/>
   </g>
   <g id="PathCollection_1">
    <defs>
     <path id="m658e34e6ee" d="M 0 3 
C 0.795609 3 1.55874 2.683901 2.12132 2.12132 
C 2.683901 1.55874 3 0.795609 3 0 
C 3 -0.795609 2.683901 -1.55874 2.12132 -2.12132 
C 1.55874 -2.683901 0.795609 -3 0 -3 
C -0.795609 -3 -1.55874 -2.683901 -2.12132 -2.12132 
C -2.683901 -1.55874 -3 -0.795609 -3 0 
C -3 0.795609 -2.683901 1.55874 -2.12132 2.12132 
C -1.55874 2.683901 -0.795609 3 0 3 
z
" style="stroke: #000000"/>
    </defs>
    <g clip-path="url(#pb49472268d)">
     <use xlink:href="#m658e34e6ee" x="124.483729" y="286.918125" style="stroke: #000000"/>
     <use xlink:href="#m658e34e6ee" x="131.657283" y="286.918125" style="stroke: #000000"/>
     <use xlink:href="#m658e34e6ee" x="153.177944" y="286.918125" style="stroke: #000000"/>
     <use xlink:href="#m658e34e6ee" x="167.525052" y="286.918125" style="stroke: #000000"/>
     <use xlink:href="#m658e34e6ee" x="196.219267" y="286.918125" style="stroke: #000000"/>
     <use xlink:href="#m658e34e6ee" x="224.913481" y="286.918125" style="stroke: #000000"/>
     <use xlink:href="#m658e34e6ee" x="239.260589" y="286.918125" style="stroke: #000000"/>
    </g>
   </g>
   <g id="matplotlib.axis_1">
    <g id="xtick_1">
     <g id="line2d_1">
      <defs>
       <path id="m9a8b93f1db" d="M 0 0 
L 0 3.5 
" style="stroke: #000000; stroke-width: 0.8"/>
      </defs>
      <g>
       <use xlink:href="#m9a8b93f1db" x="95.789514" y="299.518125" style="stroke: #000000; stroke-width: 0.8"/>
      </g>
     </g>
     <g id="text_1">
      <!-- −5 -->
      <g transform="translate(88.418421 314.116563) scale(0.1 -0.1)">
       <defs>
        <path id="DejaVuSans-2212" d="M 678 2272 
L 4684 2272 
L 4684 1741 
L 678 1741 
L 678 2272 
z
" transform="scale(0.015625)"/>
        <path id="DejaVuSans-35" d="M 691 4666 
L 3169 4666 
L 3169 4134 
L 1269 4134 
L 1269 2991 
Q 1406 3038 1543 3061 
Q 1681 3084 1819 3084 
Q 2600 3084 3056 2656 
Q 3513 2228 3513 1497 
Q 3513 744 3044 326 
Q 2575 -91 1722 -91 
Q 1428 -91 1123 -41 
Q 819 9 494 109 
L 494 744 
Q 775 591 1075 516 
Q 1375 441 1709 441 
Q 2250 441 2565 725 
Q 2881 1009 2881 1497 
Q 2881 1984 2565 2268 
Q 2250 2553 1709 2553 
Q 1456 2553 1204 2497 
Q 953 2441 691 2322 
L 691 4666 
z
" transform="scale(0.015625)"/>
       </defs>
       <use xlink:href="#DejaVuSans-2212"/>
       <use xlink:href="#DejaVuSans-35" x="83.789062"/>
      </g>
     </g>
    </g>
    <g id="xtick_2">
     <g id="line2d_2">
      <g>
       <use xlink:href="#m9a8b93f1db" x="167.525052" y="299.518125" style="stroke: #000000; stroke-width: 0.8"/>
      </g>
     </g>
     <g id="text_2">
      <!-- 0 -->
      <g transform="translate(164.343802 314.116563) scale(0.1 -0.1)">
       <defs>
        <path id="DejaVuSans-30" d="M 2034 4250 
Q 1547 4250 1301 3770 
Q 1056 3291 1056 2328 
Q 1056 1369 1301 889 
Q 1547 409 2034 409 
Q 2525 409 2770 889 
Q 3016 1369 3016 2328 
Q 3016 3291 2770 3770 
Q 2525 4250 2034 4250 
z
M 2034 4750 
Q 2819 4750 3233 4129 
Q 3647 3509 3647 2328 
Q 3647 1150 3233 529 
Q 2819 -91 2034 -91 
Q 1250 -91 836 529 
Q 422 1150 422 2328 
Q 422 3509 836 4129 
Q 1250 4750 2034 4750 
z
" transform="scale(0.015625)"/>
       </defs>
       <use xlink:href="#DejaVuSans-30"/>
      </g>
     </g>
    </g>
    <g id="xtick_3">
     <g id="line2d_3">
      <g>
       <use xlink:href="#m9a8b93f1db" x="239.260589" y="299.518125" style="stroke: #000000; stroke-width: 0.8"/>
      </g>
     </g>
     <g id="text_3">
      <!-- 5 -->
      <g transform="translate(236.079339 314.116563) scale(0.1 -0.1)">
       <use xlink:href="#DejaVuSans-35"/>
      </g>
     </g>
    </g>
    <g id="xtick_4">
     <g id="line2d_4">
      <g>
       <use xlink:href="#m9a8b93f1db" x="310.996126" y="299.518125" style="stroke: #000000; stroke-width: 0.8"/>
      </g>
     </g>
     <g id="text_4">
      <!-- 10 -->
      <g transform="translate(304.633626 314.116563) scale(0.1 -0.1)">
       <defs>
        <path id="DejaVuSans-31" d="M 794 531 
L 1825 531 
L 1825 4091 
L 703 3866 
L 703 4441 
L 1819 4666 
L 2450 4666 
L 2450 531 
L 3481 531 
L 3481 0 
L 794 0 
L 794 531 
z
" transform="scale(0.015625)"/>
       </defs>
       <use xlink:href="#DejaVuSans-31"/>
       <use xlink:href="#DejaVuSans-30" x="63.623047"/>
      </g>
     </g>
    </g>
    <g id="xtick_5">
     <g id="line2d_5">
      <g>
       <use xlink:href="#m9a8b93f1db" x="382.731663" y="299.518125" style="stroke: #000000; stroke-width: 0.8"/>
      </g>
     </g>
     <g id="text_5">
      <!-- 15 -->
      <g transform="translate(376.369163 314.116563) scale(0.1 -0.1)">
       <use xlink:href="#DejaVuSans-31"/>
       <use xlink:href="#DejaVuSans-35" x="63.623047"/>
      </g>
     </g>
    </g>
    <g id="text_6">
     <!-- x -->
     <g transform="translate(218.36733 327.794688) scale(0.1 -0.1)">
      <defs>
       <path id="DejaVuSans-78" d="M 3513 3500 
L 2247 1797 
L 3578 0 
L 2900 0 
L 1881 1375 
L 863 0 
L 184 0 
L 1544 1831 
L 300 3500 
L 978 3500 
L 1906 2253 
L 2834 3500 
L 3513 3500 
z
" transform="scale(0.015625)"/>
      </defs>
      <use xlink:href="#DejaVuSans-78"/>
     </g>
    </g>
   </g>
   <g id="matplotlib.axis_2">
    <g id="ytick_1">
     <g id="line2d_6">
      <defs>
       <path id="m4dab155874" d="M 0 0 
L -3.5 0 
" style="stroke: #000000; stroke-width: 0.8"/>
      </defs>
      <g>
       <use xlink:href="#m4dab155874" x="43.78125" y="286.918125" style="stroke: #000000; stroke-width: 0.8"/>
      </g>
     </g>
     <g id="text_7">
      <!-- 0.0 -->
      <g transform="translate(20.878125 290.717344) scale(0.1 -0.1)">
       <defs>
        <path id="DejaVuSans-2e" d="M 684 794 
L 1344 794 
L 1344 0 
L 684 0 
L 684 794 
z
" transform="scale(0.015625)"/>
       </defs>
       <use xlink:href="#DejaVuSans-30"/>
       <use xlink:href="#DejaVuSans-2e" x="63.623047"/>
       <use xlink:href="#DejaVuSans-30" x="95.410156"/>
      </g>
     </g>
    </g>
    <g id="ytick_2">
     <g id="line2d_7">
      <g>
       <use xlink:href="#m4dab155874" x="43.78125" y="249.092477" style="stroke: #000000; stroke-width: 0.8"/>
      </g>
     </g>
     <g id="text_8">
      <!-- 0.1 -->
      <g transform="translate(20.878125 252.891696) scale(0.1 -0.1)">
       <use xlink:href="#DejaVuSans-30"/>
       <use xlink:href="#DejaVuSans-2e" x="63.623047"/>
       <use xlink:href="#DejaVuSans-31" x="95.410156"/>
      </g>
     </g>
    </g>
    <g id="ytick_3">
     <g id="line2d_8">
      <g>
       <use xlink:href="#m4dab155874" x="43.78125" y="211.266829" style="stroke: #000000; stroke-width: 0.8"/>
      </g>
     </g>
     <g id="text_9">
      <!-- 0.2 -->
      <g transform="translate(20.878125 215.066048) scale(0.1 -0.1)">
       <defs>
        <path id="DejaVuSans-32" d="M 1228 531 
L 3431 531 
L 3431 0 
L 469 0 
L 469 531 
Q 828 903 1448 1529 
Q 2069 2156 2228 2338 
Q 2531 2678 2651 2914 
Q 2772 3150 2772 3378 
Q 2772 3750 2511 3984 
Q 2250 4219 1831 4219 
Q 1534 4219 1204 4116 
Q 875 4013 500 3803 
L 500 4441 
Q 881 4594 1212 4672 
Q 1544 4750 1819 4750 
Q 2544 4750 2975 4387 
Q 3406 4025 3406 3419 
Q 3406 3131 3298 2873 
Q 3191 2616 2906 2266 
Q 2828 2175 2409 1742 
Q 1991 1309 1228 531 
z
" transform="scale(0.015625)"/>
       </defs>
       <use xlink:href="#DejaVuSans-30"/>
       <use xlink:href="#DejaVuSans-2e" x="63.623047"/>
       <use xlink:href="#DejaVuSans-32" x="95.410156"/>
      </g>
     </g>
    </g>
    <g id="ytick_4">
     <g id="line2d_9">
      <g>
       <use xlink:href="#m4dab155874" x="43.78125" y="173.441182" style="stroke: #000000; stroke-width: 0.8"/>
      </g>
     </g>
     <g id="text_10">
      <!-- 0.3 -->
      <g transform="translate(20.878125 177.2404) scale(0.1 -0.1)">
       <defs>
        <path id="DejaVuSans-33" d="M 2597 2516 
Q 3050 2419 3304 2112 
Q 3559 1806 3559 1356 
Q 3559 666 3084 287 
Q 2609 -91 1734 -91 
Q 1441 -91 1130 -33 
Q 819 25 488 141 
L 488 750 
Q 750 597 1062 519 
Q 1375 441 1716 441 
Q 2309 441 2620 675 
Q 2931 909 2931 1356 
Q 2931 1769 2642 2001 
Q 2353 2234 1838 2234 
L 1294 2234 
L 1294 2753 
L 1863 2753 
Q 2328 2753 2575 2939 
Q 2822 3125 2822 3475 
Q 2822 3834 2567 4026 
Q 2313 4219 1838 4219 
Q 1578 4219 1281 4162 
Q 984 4106 628 3988 
L 628 4550 
Q 988 4650 1302 4700 
Q 1616 4750 1894 4750 
Q 2613 4750 3031 4423 
Q 3450 4097 3450 3541 
Q 3450 3153 3228 2886 
Q 3006 2619 2597 2516 
z
" transform="scale(0.015625)"/>
       </defs>
       <use xlink:href="#DejaVuSans-30"/>
       <use xlink:href="#DejaVuSans-2e" x="63.623047"/>
       <use xlink:href="#DejaVuSans-33" x="95.410156"/>
      </g>
     </g>
    </g>
    <g id="ytick_5">
     <g id="line2d_10">
      <g>
       <use xlink:href="#m4dab155874" x="43.78125" y="135.615534" style="stroke: #000000; stroke-width: 0.8"/>
      </g>
     </g>
     <g id="text_11">
      <!-- 0.4 -->
      <g transform="translate(20.878125 139.414753) scale(0.1 -0.1)">
       <defs>
        <path id="DejaVuSans-34" d="M 2419 4116 
L 825 1625 
L 2419 1625 
L 2419 4116 
z
M 2253 4666 
L 3047 4666 
L 3047 1625 
L 3713 1625 
L 3713 1100 
L 3047 1100 
L 3047 0 
L 2419 0 
L 2419 1100 
L 313 1100 
L 313 1709 
L 2253 4666 
z
" transform="scale(0.015625)"/>
       </defs>
       <use xlink:href="#DejaVuSans-30"/>
       <use xlink:href="#DejaVuSans-2e" x="63.623047"/>
       <use xlink:href="#DejaVuSans-34" x="95.410156"/>
      </g>
     </g>
    </g>
    <g id="ytick_6">
     <g id="line2d_11">
      <g>
       <use xlink:href="#m4dab155874" x="43.78125" y="97.789886" style="stroke: #000000; stroke-width: 0.8"/>
      </g>
     </g>
     <g id="text_12">
      <!-- 0.5 -->
      <g transform="translate(20.878125 101.589105) scale(0.1 -0.1)">
       <use xlink:href="#DejaVuSans-30"/>
       <use xlink:href="#DejaVuSans-2e" x="63.623047"/>
       <use xlink:href="#DejaVuSans-35" x="95.410156"/>
      </g>
     </g>
    </g>
    <g id="ytick_7">
     <g id="line2d_12">
      <g>
       <use xlink:href="#m4dab155874" x="43.78125" y="59.964238" style="stroke: #000000; stroke-width: 0.8"/>
      </g>
     </g>
     <g id="text_13">
      <!-- 0.6 -->
      <g transform="translate(20.878125 63.763457) scale(0.1 -0.1)">
       <defs>
        <path id="DejaVuSans-36" d="M 2113 2584 
Q 1688 2584 1439 2293 
Q 1191 2003 1191 1497 
Q 1191 994 1439 701 
Q 1688 409 2113 409 
Q 2538 409 2786 701 
Q 3034 994 3034 1497 
Q 3034 2003 2786 2293 
Q 2538 2584 2113 2584 
z
M 3366 4563 
L 3366 3988 
Q 3128 4100 2886 4159 
Q 2644 4219 2406 4219 
Q 1781 4219 1451 3797 
Q 1122 3375 1075 2522 
Q 1259 2794 1537 2939 
Q 1816 3084 2150 3084 
Q 2853 3084 3261 2657 
Q 3669 2231 3669 1497 
Q 3669 778 3244 343 
Q 2819 -91 2113 -91 
Q 1303 -91 875 529 
Q 447 1150 447 2328 
Q 447 3434 972 4092 
Q 1497 4750 2381 4750 
Q 2619 4750 2861 4703 
Q 3103 4656 3366 4563 
z
" transform="scale(0.015625)"/>
       </defs>
       <use xlink:href="#DejaVuSans-30"/>
       <use xlink:href="#DejaVuSans-2e" x="63.623047"/>
       <use xlink:href="#DejaVuSans-36" x="95.410156"/>
      </g>
     </g>
    </g>
    <g id="text_14">
     <!-- Density -->
     <g transform="translate(14.798438 179.926719) rotate(-90) scale(0.1 -0.1)">
      <defs>
       <path id="DejaVuSans-44" d="M 1259 4147 
L 1259 519 
L 2022 519 
Q 2988 519 3436 956 
Q 3884 1394 3884 2338 
Q 3884 3275 3436 3711 
Q 2988 4147 2022 4147 
L 1259 4147 
z
M 628 4666 
L 1925 4666 
Q 3281 4666 3915 4102 
Q 4550 3538 4550 2338 
Q 4550 1131 3912 565 
Q 3275 0 1925 0 
L 628 0 
L 628 4666 
z
" transform="scale(0.015625)"/>
       <path id="DejaVuSans-65" d="M 3597 1894 
L 3597 1613 
L 953 1613 
Q 991 1019 1311 708 
Q 1631 397 2203 397 
Q 2534 397 2845 478 
Q 3156 559 3463 722 
L 3463 178 
Q 3153 47 2828 -22 
Q 2503 -91 2169 -91 
Q 1331 -91 842 396 
Q 353 884 353 1716 
Q 353 2575 817 3079 
Q 1281 3584 2069 3584 
Q 2775 3584 3186 3129 
Q 3597 2675 3597 1894 
z
M 3022 2063 
Q 3016 2534 2758 2815 
Q 2500 3097 2075 3097 
Q 1594 3097 1305 2825 
Q 1016 2553 972 2059 
L 3022 2063 
z
" transform="scale(0.015625)"/>
       <path id="DejaVuSans-6e" d="M 3513 2113 
L 3513 0 
L 2938 0 
L 2938 2094 
Q 2938 2591 2744 2837 
Q 2550 3084 2163 3084 
Q 1697 3084 1428 2787 
Q 1159 2491 1159 1978 
L 1159 0 
L 581 0 
L 581 3500 
L 1159 3500 
L 1159 2956 
Q 1366 3272 1645 3428 
Q 1925 3584 2291 3584 
Q 2894 3584 3203 3211 
Q 3513 2838 3513 2113 
z
" transform="scale(0.015625)"/>
       <path id="DejaVuSans-73" d="M 2834 3397 
L 2834 2853 
Q 2591 2978 2328 3040 
Q 2066 3103 1784 3103 
Q 1356 3103 1142 2972 
Q 928 2841 928 2578 
Q 928 2378 1081 2264 
Q 1234 2150 1697 2047 
L 1894 2003 
Q 2506 1872 2764 1633 
Q 3022 1394 3022 966 
Q 3022 478 2636 193 
Q 2250 -91 1575 -91 
Q 1294 -91 989 -36 
Q 684 19 347 128 
L 347 722 
Q 666 556 975 473 
Q 1284 391 1588 391 
Q 1994 391 2212 530 
Q 2431 669 2431 922 
Q 2431 1156 2273 1281 
Q 2116 1406 1581 1522 
L 1381 1569 
Q 847 1681 609 1914 
Q 372 2147 372 2553 
Q 372 3047 722 3315 
Q 1072 3584 1716 3584 
Q 2034 3584 2315 3537 
Q 2597 3491 2834 3397 
z
" transform="scale(0.015625)"/>
       <path id="DejaVuSans-69" d="M 603 3500 
L 1178 3500 
L 1178 0 
L 603 0 
L 603 3500 
z
M 603 4863 
L 1178 4863 
L 1178 4134 
L 603 4134 
L 603 4863 
z
" transform="scale(0.015625)"/>
       <path id="DejaVuSans-74" d="M 1172 4494 
L 1172 3500 
L 2356 3500 
L 2356 3053 
L 1172 3053 
L 1172 1153 
Q 1172 725 1289 603 
Q 1406 481 1766 481 
L 2356 481 
L 2356 0 
L 1766 0 
Q 1100 0 847 248 
Q 594 497 594 1153 
L 594 3053 
L 172 3053 
L 172 3500 
L 594 3500 
L 594 4494 
L 1172 4494 
z
" transform="scale(0.015625)"/>
       <path id="DejaVuSans-79" d="M 2059 -325 
Q 1816 -950 1584 -1140 
Q 1353 -1331 966 -1331 
L 506 -1331 
L 506 -850 
L 844 -850 
Q 1081 -850 1212 -737 
Q 1344 -625 1503 -206 
L 1606 56 
L 191 3500 
L 800 3500 
L 1894 763 
L 2988 3500 
L 3597 3500 
L 2059 -325 
z
" transform="scale(0.015625)"/>
      </defs>
      <use xlink:href="#DejaVuSans-44"/>
      <use xlink:href="#DejaVuSans-65" x="77.001953"/>
      <use xlink:href="#DejaVuSans-6e" x="138.525391"/>
      <use xlink:href="#DejaVuSans-73" x="201.904297"/>
      <use xlink:href="#DejaVuSans-69" x="254.003906"/>
      <use xlink:href="#DejaVuSans-74" x="281.787109"/>
      <use xlink:href="#DejaVuSans-79" x="320.996094"/>
     </g>
    </g>
   </g>
   <g id="line2d_13">
    <path d="M 59.921746 286.808092 
L 65.091875 286.554142 
L 68.323205 286.198399 
L 70.90827 285.720904 
L 73.170201 285.098468 
L 75.108999 284.364016 
L 77.047798 283.397997 
L 78.986596 282.154402 
L 80.602261 280.873376 
L 82.217926 279.344523 
L 83.833592 277.548565 
L 85.77239 275.023542 
L 87.711188 272.091292 
L 89.649987 268.770629 
L 91.911918 264.469522 
L 95.143248 257.782487 
L 99.990244 247.746578 
L 101.929042 244.210032 
L 103.544708 241.65602 
L 104.83724 239.934234 
L 106.129772 238.541188 
L 107.422304 237.509481 
L 108.391703 236.987939 
L 109.361103 236.690723 
L 110.330502 236.621884 
L 111.299901 236.782362 
L 112.2693 237.169967 
L 113.238699 237.779424 
L 114.531231 238.922499 
L 115.823764 240.417925 
L 117.116296 242.230925 
L 118.731961 244.880637 
L 120.670759 248.502215 
L 123.578957 254.487725 
L 128.749086 265.235061 
L 131.33415 270.030995 
L 133.272948 273.213108 
L 135.211747 275.996874 
L 137.150545 278.372686 
L 139.089343 280.35266 
L 141.028142 281.965155 
L 142.96694 283.249232 
L 144.905738 284.249586 
L 146.844536 285.012308 
L 149.106468 285.660649 
L 151.691532 286.159717 
L 154.922863 286.53302 
L 159.123592 286.770206 
L 165.909386 286.891817 
L 185.943636 286.918081 
L 382.731663 286.918125 
L 382.731663 286.918125 
" clip-path="url(#pb49472268d)" style="fill: none; stroke: #1f77b4; stroke-width: 1.5; stroke-linecap: square"/>
   </g>
   <g id="line2d_14">
    <path d="M 59.921746 286.918125 
L 156.215395 286.811669 
L 157.184794 286.53734 
L 157.83106 286.082237 
L 158.477326 285.173967 
L 159.123592 283.458782 
L 159.769858 280.396271 
L 160.416125 275.230714 
L 161.062391 267.009771 
L 161.708657 254.683529 
L 162.354923 237.30702 
L 163.001189 214.340062 
L 163.970588 170.146192 
L 165.909386 72.282985 
L 166.555653 49.364742 
L 166.878786 41.71269 
L 167.201919 37.003648 
L 167.525052 35.413955 
L 167.848185 37.003648 
L 168.171318 41.71269 
L 168.494451 49.364742 
L 169.140717 72.282985 
L 170.110116 119.3067 
L 171.725781 200.787562 
L 172.69518 237.30702 
L 173.341447 254.683529 
L 173.987713 267.009771 
L 174.633979 275.230714 
L 175.280245 280.396271 
L 175.926511 283.458782 
L 176.572777 285.173967 
L 177.219043 286.082237 
L 177.865309 286.53734 
L 178.834708 286.811669 
L 180.450374 286.908251 
L 190.144365 286.918125 
L 382.731663 286.918125 
L 382.731663 286.918125 
" clip-path="url(#pb49472268d)" style="fill: none; stroke: #ff7f0e; stroke-width: 1.5; stroke-linecap: square"/>
   </g>
   <g id="line2d_15">
    <path d="M 59.921746 286.918098 
L 145.875137 286.807763 
L 163.001189 286.558233 
L 174.957112 286.170306 
L 184.651103 285.639541 
L 193.052563 284.964756 
L 200.807756 284.125617 
L 208.239816 283.103015 
L 215.671876 281.859053 
L 223.750202 280.271433 
L 233.121061 278.189627 
L 255.417241 273.122777 
L 261.879902 271.936172 
L 267.696297 271.089282 
L 272.866426 270.549264 
L 278.036555 270.23331 
L 282.883551 270.152711 
L 287.730546 270.284014 
L 292.900675 270.651902 
L 298.070804 271.239517 
L 303.887199 272.132469 
L 310.34986 273.358665 
L 318.428186 275.129158 
L 344.27883 280.972261 
L 352.034023 282.404887 
L 359.466084 283.556729 
L 366.898144 284.488147 
L 374.653337 285.240277 
L 382.731663 285.816058 
L 382.731663 285.816058 
" clip-path="url(#pb49472268d)" style="fill: none; stroke: #2ca02c; stroke-width: 1.5; stroke-linecap: square"/>
   </g>
   <g id="line2d_16">
    <path d="M 59.921746 286.808066 
L 65.091875 286.554092 
L 68.323205 286.198326 
L 70.90827 285.720807 
L 73.170201 285.098342 
L 75.108999 284.36386 
L 77.047798 283.397804 
L 78.986596 282.154162 
L 80.602261 280.87309 
L 82.217926 279.344182 
L 83.833592 277.54816 
L 85.77239 275.023044 
L 87.711188 272.090681 
L 89.649987 268.769881 
L 91.911918 264.468577 
L 95.143248 257.781173 
L 99.990244 247.744447 
L 101.929042 244.207456 
L 103.544708 241.653007 
L 104.83724 239.930823 
L 106.129772 238.537328 
L 107.422304 237.505119 
L 108.391703 236.98316 
L 109.361103 236.68549 
L 110.330502 236.616157 
L 111.299901 236.776097 
L 112.2693 237.163117 
L 113.238699 237.771939 
L 114.531231 238.914081 
L 115.823764 240.408466 
L 117.116296 242.220306 
L 118.731961 244.868381 
L 120.670759 248.487685 
L 123.578957 254.469042 
L 128.749086 265.206173 
L 131.33415 269.995269 
L 133.272948 273.171311 
L 135.211747 275.94807 
L 137.150545 278.315819 
L 139.089343 280.286531 
L 141.028142 281.888411 
L 142.96694 283.16035 
L 144.905738 284.146855 
L 146.844536 284.89381 
L 149.106468 285.521031 
L 151.691532 285.991824 
L 154.59973 286.289645 
L 156.215395 286.292536 
L 157.184794 286.059619 
L 157.83106 285.625738 
L 158.477326 284.734174 
L 159.123592 283.031633 
L 159.769858 279.97811 
L 160.416125 274.818252 
L 161.062391 266.600043 
L 161.708657 254.273862 
L 162.354923 236.894998 
L 163.001189 213.923495 
L 163.970588 169.719131 
L 165.909386 71.823648 
L 166.555653 48.89176 
L 166.878786 41.2324 
L 167.201919 36.515738 
L 167.525052 34.918125 
L 167.848185 36.499603 
L 168.171318 41.200146 
L 168.494451 48.843419 
L 169.140717 71.74329 
L 170.110116 118.737488 
L 171.725781 200.164168 
L 172.69518 236.648226 
L 173.341447 253.999951 
L 173.987713 266.300463 
L 174.633979 274.494731 
L 175.280245 279.632662 
L 175.926511 282.666589 
L 176.572777 284.352224 
L 177.219043 285.229967 
L 177.865309 285.653552 
L 178.834708 285.878716 
L 180.450374 285.888187 
L 186.266769 285.526822 
L 194.668228 284.808123 
L 202.423421 283.922033 
L 209.855481 282.851325 
L 217.287541 281.560138 
L 225.365868 279.928134 
L 235.382992 277.662225 
L 253.801576 273.451963 
L 260.58737 272.154787 
L 266.403765 271.256828 
L 271.897027 270.634014 
L 277.067156 270.27473 
L 281.914151 270.151861 
L 286.761147 270.240925 
L 291.931276 270.565585 
L 297.101405 271.113619 
L 302.594667 271.914877 
L 308.734195 273.032678 
L 316.489388 274.687321 
L 331.676641 278.234526 
L 342.016899 280.513711 
L 350.095225 282.068125 
L 357.527285 283.277708 
L 364.959345 284.265892 
L 372.714539 285.071891 
L 381.115998 285.716025 
L 382.731663 285.816058 
L 382.731663 285.816058 
" clip-path="url(#pb49472268d)" style="fill: none; stroke-dasharray: 5.55,2.4; stroke-dashoffset: 0; stroke: #000000; stroke-width: 1.5"/>
   </g>
   <g id="patch_3">
    <path d="M 43.78125 299.518125 
L 43.78125 22.318125 
" style="fill: none; stroke: #000000; stroke-width: 0.8; stroke-linejoin: miter; stroke-linecap: square"/>
   </g>
   <g id="patch_4">
    <path d="M 398.872159 299.518125 
L 398.872159 22.318125 
" style="fill: none; stroke: #000000; stroke-width: 0.8; stroke-linejoin: miter; stroke-linecap: square"/>
   </g>
   <g id="patch_5">
    <path d="M 43.78125 299.518125 
L 398.872159 299.518125 
" style="fill: none; stroke: #000000; stroke-width: 0.8; stroke-linejoin: miter; stroke-linecap: square"/>
   </g>
   <g id="patch_6">
    <path d="M 43.78125 22.318125 
L 398.872159 22.318125 
" style="fill: none; stroke: #000000; stroke-width: 0.8; stroke-linejoin: miter; stroke-linecap: square"/>
   </g>
   <g id="text_15">
    <!-- Initial Gaussian Mixture Model and Data Points -->
    <g transform="translate(81.535142 16.318125) scale(0.12 -0.12)">
     <defs>
      <path id="DejaVuSans-49" d="M 628 4666 
L 1259 4666 
L 1259 0 
L 628 0 
L 628 4666 
z
" transform="scale(0.015625)"/>
      <path id="DejaVuSans-61" d="M 2194 1759 
Q 1497 1759 1228 1600 
Q 959 1441 959 1056 
Q 959 750 1161 570 
Q 1363 391 1709 391 
Q 2188 391 2477 730 
Q 2766 1069 2766 1631 
L 2766 1759 
L 2194 1759 
z
M 3341 1997 
L 3341 0 
L 2766 0 
L 2766 531 
Q 2569 213 2275 61 
Q 1981 -91 1556 -91 
Q 1019 -91 701 211 
Q 384 513 384 1019 
Q 384 1609 779 1909 
Q 1175 2209 1959 2209 
L 2766 2209 
L 2766 2266 
Q 2766 2663 2505 2880 
Q 2244 3097 1772 3097 
Q 1472 3097 1187 3025 
Q 903 2953 641 2809 
L 641 3341 
Q 956 3463 1253 3523 
Q 1550 3584 1831 3584 
Q 2591 3584 2966 3190 
Q 3341 2797 3341 1997 
z
" transform="scale(0.015625)"/>
      <path id="DejaVuSans-6c" d="M 603 4863 
L 1178 4863 
L 1178 0 
L 603 0 
L 603 4863 
z
" transform="scale(0.015625)"/>
      <path id="DejaVuSans-20" transform="scale(0.015625)"/>
      <path id="DejaVuSans-47" d="M 3809 666 
L 3809 1919 
L 2778 1919 
L 2778 2438 
L 4434 2438 
L 4434 434 
Q 4069 175 3628 42 
Q 3188 -91 2688 -91 
Q 1594 -91 976 548 
Q 359 1188 359 2328 
Q 359 3472 976 4111 
Q 1594 4750 2688 4750 
Q 3144 4750 3555 4637 
Q 3966 4525 4313 4306 
L 4313 3634 
Q 3963 3931 3569 4081 
Q 3175 4231 2741 4231 
Q 1884 4231 1454 3753 
Q 1025 3275 1025 2328 
Q 1025 1384 1454 906 
Q 1884 428 2741 428 
Q 3075 428 3337 486 
Q 3600 544 3809 666 
z
" transform="scale(0.015625)"/>
      <path id="DejaVuSans-75" d="M 544 1381 
L 544 3500 
L 1119 3500 
L 1119 1403 
Q 1119 906 1312 657 
Q 1506 409 1894 409 
Q 2359 409 2629 706 
Q 2900 1003 2900 1516 
L 2900 3500 
L 3475 3500 
L 3475 0 
L 2900 0 
L 2900 538 
Q 2691 219 2414 64 
Q 2138 -91 1772 -91 
Q 1169 -91 856 284 
Q 544 659 544 1381 
z
M 1991 3584 
L 1991 3584 
z
" transform="scale(0.015625)"/>
      <path id="DejaVuSans-4d" d="M 628 4666 
L 1569 4666 
L 2759 1491 
L 3956 4666 
L 4897 4666 
L 4897 0 
L 4281 0 
L 4281 4097 
L 3078 897 
L 2444 897 
L 1241 4097 
L 1241 0 
L 628 0 
L 628 4666 
z
" transform="scale(0.015625)"/>
      <path id="DejaVuSans-72" d="M 2631 2963 
Q 2534 3019 2420 3045 
Q 2306 3072 2169 3072 
Q 1681 3072 1420 2755 
Q 1159 2438 1159 1844 
L 1159 0 
L 581 0 
L 581 3500 
L 1159 3500 
L 1159 2956 
Q 1341 3275 1631 3429 
Q 1922 3584 2338 3584 
Q 2397 3584 2469 3576 
Q 2541 3569 2628 3553 
L 2631 2963 
z
" transform="scale(0.015625)"/>
      <path id="DejaVuSans-6f" d="M 1959 3097 
Q 1497 3097 1228 2736 
Q 959 2375 959 1747 
Q 959 1119 1226 758 
Q 1494 397 1959 397 
Q 2419 397 2687 759 
Q 2956 1122 2956 1747 
Q 2956 2369 2687 2733 
Q 2419 3097 1959 3097 
z
M 1959 3584 
Q 2709 3584 3137 3096 
Q 3566 2609 3566 1747 
Q 3566 888 3137 398 
Q 2709 -91 1959 -91 
Q 1206 -91 779 398 
Q 353 888 353 1747 
Q 353 2609 779 3096 
Q 1206 3584 1959 3584 
z
" transform="scale(0.015625)"/>
      <path id="DejaVuSans-64" d="M 2906 2969 
L 2906 4863 
L 3481 4863 
L 3481 0 
L 2906 0 
L 2906 525 
Q 2725 213 2448 61 
Q 2172 -91 1784 -91 
Q 1150 -91 751 415 
Q 353 922 353 1747 
Q 353 2572 751 3078 
Q 1150 3584 1784 3584 
Q 2172 3584 2448 3432 
Q 2725 3281 2906 2969 
z
M 947 1747 
Q 947 1113 1208 752 
Q 1469 391 1925 391 
Q 2381 391 2643 752 
Q 2906 1113 2906 1747 
Q 2906 2381 2643 2742 
Q 2381 3103 1925 3103 
Q 1469 3103 1208 2742 
Q 947 2381 947 1747 
z
" transform="scale(0.015625)"/>
      <path id="DejaVuSans-50" d="M 1259 4147 
L 1259 2394 
L 2053 2394 
Q 2494 2394 2734 2622 
Q 2975 2850 2975 3272 
Q 2975 3691 2734 3919 
Q 2494 4147 2053 4147 
L 1259 4147 
z
M 628 4666 
L 2053 4666 
Q 2838 4666 3239 4311 
Q 3641 3956 3641 3272 
Q 3641 2581 3239 2228 
Q 2838 1875 2053 1875 
L 1259 1875 
L 1259 0 
L 628 0 
L 628 4666 
z
" transform="scale(0.015625)"/>
     </defs>
     <use xlink:href="#DejaVuSans-49"/>
     <use xlink:href="#DejaVuSans-6e" x="29.492188"/>
     <use xlink:href="#DejaVuSans-69" x="92.871094"/>
     <use xlink:href="#DejaVuSans-74" x="120.654297"/>
     <use xlink:href="#DejaVuSans-69" x="159.863281"/>
     <use xlink:href="#DejaVuSans-61" x="187.646484"/>
     <use xlink:href="#DejaVuSans-6c" x="248.925781"/>
     <use xlink:href="#DejaVuSans-20" x="276.708984"/>
     <use xlink:href="#DejaVuSans-47" x="308.496094"/>
     <use xlink:href="#DejaVuSans-61" x="385.986328"/>
     <use xlink:href="#DejaVuSans-75" x="447.265625"/>
     <use xlink:href="#DejaVuSans-73" x="510.644531"/>
     <use xlink:href="#DejaVuSans-73" x="562.744141"/>
     <use xlink:href="#DejaVuSans-69" x="614.84375"/>
     <use xlink:href="#DejaVuSans-61" x="642.626953"/>
     <use xlink:href="#DejaVuSans-6e" x="703.90625"/>
     <use xlink:href="#DejaVuSans-20" x="767.285156"/>
     <use xlink:href="#DejaVuSans-4d" x="799.072266"/>
     <use xlink:href="#DejaVuSans-69" x="885.351562"/>
     <use xlink:href="#DejaVuSans-78" x="913.134766"/>
     <use xlink:href="#DejaVuSans-74" x="972.314453"/>
     <use xlink:href="#DejaVuSans-75" x="1011.523438"/>
     <use xlink:href="#DejaVuSans-72" x="1074.902344"/>
     <use xlink:href="#DejaVuSans-65" x="1113.765625"/>
     <use xlink:href="#DejaVuSans-20" x="1175.289062"/>
     <use xlink:href="#DejaVuSans-4d" x="1207.076172"/>
     <use xlink:href="#DejaVuSans-6f" x="1293.355469"/>
     <use xlink:href="#DejaVuSans-64" x="1354.537109"/>
     <use xlink:href="#DejaVuSans-65" x="1418.013672"/>
     <use xlink:href="#DejaVuSans-6c" x="1479.537109"/>
     <use xlink:href="#DejaVuSans-20" x="1507.320312"/>
     <use xlink:href="#DejaVuSans-61" x="1539.107422"/>
     <use xlink:href="#DejaVuSans-6e" x="1600.386719"/>
     <use xlink:href="#DejaVuSans-64" x="1663.765625"/>
     <use xlink:href="#DejaVuSans-20" x="1727.242188"/>
     <use xlink:href="#DejaVuSans-44" x="1759.029297"/>
     <use xlink:href="#DejaVuSans-61" x="1836.03125"/>
     <use xlink:href="#DejaVuSans-74" x="1897.310547"/>
     <use xlink:href="#DejaVuSans-61" x="1936.519531"/>
     <use xlink:href="#DejaVuSans-20" x="1997.798828"/>
     <use xlink:href="#DejaVuSans-50" x="2029.585938"/>
     <use xlink:href="#DejaVuSans-6f" x="2086.263672"/>
     <use xlink:href="#DejaVuSans-69" x="2147.445312"/>
     <use xlink:href="#DejaVuSans-6e" x="2175.228516"/>
     <use xlink:href="#DejaVuSans-74" x="2238.607422"/>
     <use xlink:href="#DejaVuSans-73" x="2277.816406"/>
    </g>
   </g>
   <g id="legend_1">
    <g id="patch_7">
     <path d="M 287.972159 105.274375 
L 391.872159 105.274375 
Q 393.872159 105.274375 393.872159 103.274375 
L 393.872159 29.318125 
Q 393.872159 27.318125 391.872159 27.318125 
L 287.972159 27.318125 
Q 285.972159 27.318125 285.972159 29.318125 
L 285.972159 103.274375 
Q 285.972159 105.274375 287.972159 105.274375 
z
" style="fill: #ffffff; opacity: 0.8; stroke: #cccccc; stroke-linejoin: miter"/>
    </g>
    <g id="PathCollection_2">
     <g>
      <use xlink:href="#m658e34e6ee" x="299.972159" y="36.291563" style="stroke: #000000"/>
     </g>
    </g>
    <g id="text_16">
     <!-- Data points -->
     <g transform="translate(317.972159 38.916563) scale(0.1 -0.1)">
      <defs>
       <path id="DejaVuSans-70" d="M 1159 525 
L 1159 -1331 
L 581 -1331 
L 581 3500 
L 1159 3500 
L 1159 2969 
Q 1341 3281 1617 3432 
Q 1894 3584 2278 3584 
Q 2916 3584 3314 3078 
Q 3713 2572 3713 1747 
Q 3713 922 3314 415 
Q 2916 -91 2278 -91 
Q 1894 -91 1617 61 
Q 1341 213 1159 525 
z
M 3116 1747 
Q 3116 2381 2855 2742 
Q 2594 3103 2138 3103 
Q 1681 3103 1420 2742 
Q 1159 2381 1159 1747 
Q 1159 1113 1420 752 
Q 1681 391 2138 391 
Q 2594 391 2855 752 
Q 3116 1113 3116 1747 
z
" transform="scale(0.015625)"/>
      </defs>
      <use xlink:href="#DejaVuSans-44"/>
      <use xlink:href="#DejaVuSans-61" x="77.001953"/>
      <use xlink:href="#DejaVuSans-74" x="138.28125"/>
      <use xlink:href="#DejaVuSans-61" x="177.490234"/>
      <use xlink:href="#DejaVuSans-20" x="238.769531"/>
      <use xlink:href="#DejaVuSans-70" x="270.556641"/>
      <use xlink:href="#DejaVuSans-6f" x="334.033203"/>
      <use xlink:href="#DejaVuSans-69" x="395.214844"/>
      <use xlink:href="#DejaVuSans-6e" x="422.998047"/>
      <use xlink:href="#DejaVuSans-74" x="486.376953"/>
      <use xlink:href="#DejaVuSans-73" x="525.585938"/>
     </g>
    </g>
    <g id="line2d_17">
     <path d="M 289.972159 50.49625 
L 299.972159 50.49625 
L 309.972159 50.49625 
" style="fill: none; stroke: #1f77b4; stroke-width: 1.5; stroke-linecap: square"/>
    </g>
    <g id="text_17">
     <!-- $\mathcal{N}(x \mid -4, 1.0)$ -->
     <g transform="translate(317.972159 53.99625) scale(0.1 -0.1)">
      <defs>
       <path id="STIXNonUnicode-Italic-e23a" d="M 4294 800 
L 4301 800 
Q 5293 4070 5408 4378 
Q 5472 4538 5523 4614 
Q 5830 5088 6253 5088 
Q 6490 5088 6650 4931 
Q 6810 4774 6810 4550 
Q 6810 4378 6720 4272 
Q 6630 4166 6470 4166 
Q 6368 4166 6297 4224 
Q 6227 4282 6198 4349 
Q 6170 4416 6118 4473 
Q 6067 4531 6003 4531 
Q 5939 4531 5881 4508 
Q 5824 4486 5785 4457 
Q 5747 4429 5705 4371 
Q 5664 4314 5638 4275 
Q 5613 4237 5584 4163 
Q 5555 4090 5545 4058 
Q 5536 4026 5510 3952 
Q 5485 3878 5485 3866 
L 4262 -154 
L 4134 -154 
Q 3078 1280 2483 2893 
L 2470 2893 
Q 2406 2579 2358 2361 
Q 2310 2144 2214 1792 
Q 2118 1440 2028 1190 
Q 1939 941 1804 653 
Q 1670 365 1529 185 
Q 1389 6 1203 -115 
Q 1018 -237 813 -237 
Q 576 -237 416 -80 
Q 256 77 256 301 
Q 256 474 345 579 
Q 435 685 595 685 
Q 698 685 768 627 
Q 838 570 867 502 
Q 896 435 947 377 
Q 998 320 1062 320 
Q 1222 320 1369 480 
Q 1517 640 1638 928 
Q 1760 1216 1862 1542 
Q 1965 1869 2057 2288 
Q 2150 2707 2214 3033 
Q 2278 3360 2348 3741 
Q 2419 4122 2458 4294 
L 2630 4294 
Q 2682 4166 2874 3680 
Q 3066 3194 3142 3008 
Q 3219 2822 3392 2422 
Q 3565 2022 3683 1798 
Q 3802 1574 3968 1292 
Q 4134 1011 4294 800 
z
" transform="scale(0.015625)"/>
       <path id="DejaVuSans-28" d="M 1984 4856 
Q 1566 4138 1362 3434 
Q 1159 2731 1159 2009 
Q 1159 1288 1364 580 
Q 1569 -128 1984 -844 
L 1484 -844 
Q 1016 -109 783 600 
Q 550 1309 550 2009 
Q 550 2706 781 3412 
Q 1013 4119 1484 4856 
L 1984 4856 
z
" transform="scale(0.015625)"/>
       <path id="DejaVuSans-Oblique-78" d="M 3841 3500 
L 2234 1784 
L 3219 0 
L 2559 0 
L 1819 1388 
L 531 0 
L -166 0 
L 1556 1844 
L 641 3500 
L 1300 3500 
L 1972 2234 
L 3144 3500 
L 3841 3500 
z
" transform="scale(0.015625)"/>
       <path id="DejaVuSans-2223" d="M 1350 4934 
L 1850 4934 
L 1850 -1369 
L 1350 -1369 
L 1350 4934 
z
" transform="scale(0.015625)"/>
       <path id="DejaVuSans-2c" d="M 750 794 
L 1409 794 
L 1409 256 
L 897 -744 
L 494 -744 
L 750 256 
L 750 794 
z
" transform="scale(0.015625)"/>
       <path id="DejaVuSans-29" d="M 513 4856 
L 1013 4856 
Q 1481 4119 1714 3412 
Q 1947 2706 1947 2009 
Q 1947 1309 1714 600 
Q 1481 -109 1013 -844 
L 513 -844 
Q 928 -128 1133 580 
Q 1338 1288 1338 2009 
Q 1338 2731 1133 3434 
Q 928 4138 513 4856 
z
" transform="scale(0.015625)"/>
      </defs>
      <use xlink:href="#STIXNonUnicode-Italic-e23a" transform="translate(0 0.5)"/>
      <use xlink:href="#DejaVuSans-28" transform="translate(95.699982 0.5)"/>
      <use xlink:href="#DejaVuSans-Oblique-78" transform="translate(134.713654 0.5)"/>
      <use xlink:href="#DejaVuSans-2223" transform="translate(213.375763 0.5)"/>
      <use xlink:href="#DejaVuSans-2212" transform="translate(302.340607 0.5)"/>
      <use xlink:href="#DejaVuSans-34" transform="translate(405.612091 0.5)"/>
      <use xlink:href="#DejaVuSans-2c" transform="translate(469.235138 0.5)"/>
      <use xlink:href="#DejaVuSans-31" transform="translate(520.504669 0.5)"/>
      <use xlink:href="#DejaVuSans-2e" transform="translate(584.127716 0.5)"/>
      <use xlink:href="#DejaVuSans-30" transform="translate(615.914825 0.5)"/>
      <use xlink:href="#DejaVuSans-29" transform="translate(679.537872 0.5)"/>
     </g>
    </g>
    <g id="line2d_18">
     <path d="M 289.972159 65.69625 
L 299.972159 65.69625 
L 309.972159 65.69625 
" style="fill: none; stroke: #ff7f0e; stroke-width: 1.5; stroke-linecap: square"/>
    </g>
    <g id="text_18">
     <!-- $\mathcal{N}(x \mid 0, 0.2)$ -->
     <g transform="translate(317.972159 69.19625) scale(0.1 -0.1)">
      <use xlink:href="#STIXNonUnicode-Italic-e23a" transform="translate(0 0.5)"/>
      <use xlink:href="#DejaVuSans-28" transform="translate(95.699982 0.5)"/>
      <use xlink:href="#DejaVuSans-Oblique-78" transform="translate(134.713654 0.5)"/>
      <use xlink:href="#DejaVuSans-2223" transform="translate(213.375763 0.5)"/>
      <use xlink:href="#DejaVuSans-30" transform="translate(282.858185 0.5)"/>
      <use xlink:href="#DejaVuSans-2c" transform="translate(346.481232 0.5)"/>
      <use xlink:href="#DejaVuSans-30" transform="translate(397.750763 0.5)"/>
      <use xlink:href="#DejaVuSans-2e" transform="translate(461.37381 0.5)"/>
      <use xlink:href="#DejaVuSans-32" transform="translate(487.660919 0.5)"/>
      <use xlink:href="#DejaVuSans-29" transform="translate(551.283966 0.5)"/>
     </g>
    </g>
    <g id="line2d_19">
     <path d="M 289.972159 80.89625 
L 299.972159 80.89625 
L 309.972159 80.89625 
" style="fill: none; stroke: #2ca02c; stroke-width: 1.5; stroke-linecap: square"/>
    </g>
    <g id="text_19">
     <!-- $\mathcal{N}(x \mid 8, 3.0)$ -->
     <g transform="translate(317.972159 84.39625) scale(0.1 -0.1)">
      <defs>
       <path id="DejaVuSans-38" d="M 2034 2216 
Q 1584 2216 1326 1975 
Q 1069 1734 1069 1313 
Q 1069 891 1326 650 
Q 1584 409 2034 409 
Q 2484 409 2743 651 
Q 3003 894 3003 1313 
Q 3003 1734 2745 1975 
Q 2488 2216 2034 2216 
z
M 1403 2484 
Q 997 2584 770 2862 
Q 544 3141 544 3541 
Q 544 4100 942 4425 
Q 1341 4750 2034 4750 
Q 2731 4750 3128 4425 
Q 3525 4100 3525 3541 
Q 3525 3141 3298 2862 
Q 3072 2584 2669 2484 
Q 3125 2378 3379 2068 
Q 3634 1759 3634 1313 
Q 3634 634 3220 271 
Q 2806 -91 2034 -91 
Q 1263 -91 848 271 
Q 434 634 434 1313 
Q 434 1759 690 2068 
Q 947 2378 1403 2484 
z
M 1172 3481 
Q 1172 3119 1398 2916 
Q 1625 2713 2034 2713 
Q 2441 2713 2670 2916 
Q 2900 3119 2900 3481 
Q 2900 3844 2670 4047 
Q 2441 4250 2034 4250 
Q 1625 4250 1398 4047 
Q 1172 3844 1172 3481 
z
" transform="scale(0.015625)"/>
      </defs>
      <use xlink:href="#STIXNonUnicode-Italic-e23a" transform="translate(0 0.5)"/>
      <use xlink:href="#DejaVuSans-28" transform="translate(95.699982 0.5)"/>
      <use xlink:href="#DejaVuSans-Oblique-78" transform="translate(134.713654 0.5)"/>
      <use xlink:href="#DejaVuSans-2223" transform="translate(213.375763 0.5)"/>
      <use xlink:href="#DejaVuSans-38" transform="translate(282.858185 0.5)"/>
      <use xlink:href="#DejaVuSans-2c" transform="translate(346.481232 0.5)"/>
      <use xlink:href="#DejaVuSans-33" transform="translate(397.750763 0.5)"/>
      <use xlink:href="#DejaVuSans-2e" transform="translate(461.37381 0.5)"/>
      <use xlink:href="#DejaVuSans-30" transform="translate(493.160919 0.5)"/>
      <use xlink:href="#DejaVuSans-29" transform="translate(556.783966 0.5)"/>
     </g>
    </g>
    <g id="line2d_20">
     <path d="M 289.972159 95.694688 
L 299.972159 95.694688 
L 309.972159 95.694688 
" style="fill: none; stroke-dasharray: 5.55,2.4; stroke-dashoffset: 0; stroke: #000000; stroke-width: 1.5"/>
    </g>
    <g id="text_20">
     <!-- GMM -->
     <g transform="translate(317.972159 99.194688) scale(0.1 -0.1)">
      <use xlink:href="#DejaVuSans-47"/>
      <use xlink:href="#DejaVuSans-4d" x="77.490234"/>
      <use xlink:href="#DejaVuSans-4d" x="163.769531"/>
     </g>
    </g>
   </g>
  </g>
  <g id="axes_2">
   <g id="patch_8">
    <path d="M 469.890341 299.518125 
L 824.98125 299.518125 
L 824.98125 22.318125 
L 469.890341 22.318125 
z
" style="fill: #ffffff"/>
   </g>
   <g id="PathCollection_3">
    <g clip-path="url(#pe62b125e39)">
     <use xlink:href="#m658e34e6ee" x="550.59282" y="286.918125" style="stroke: #000000"/>
     <use xlink:href="#m658e34e6ee" x="557.766374" y="286.918125" style="stroke: #000000"/>
     <use xlink:href="#m658e34e6ee" x="579.287035" y="286.918125" style="stroke: #000000"/>
     <use xlink:href="#m658e34e6ee" x="593.634143" y="286.918125" style="stroke: #000000"/>
     <use xlink:href="#m658e34e6ee" x="622.328357" y="286.918125" style="stroke: #000000"/>
     <use xlink:href="#m658e34e6ee" x="651.022572" y="286.918125" style="stroke: #000000"/>
     <use xlink:href="#m658e34e6ee" x="665.36968" y="286.918125" style="stroke: #000000"/>
    </g>
   </g>
   <g id="matplotlib.axis_3">
    <g id="xtick_6">
     <g id="line2d_21">
      <g>
       <use xlink:href="#m9a8b93f1db" x="521.898605" y="299.518125" style="stroke: #000000; stroke-width: 0.8"/>
      </g>
     </g>
     <g id="text_21">
      <!-- −5 -->
      <g transform="translate(514.527512 314.116563) scale(0.1 -0.1)">
       <use xlink:href="#DejaVuSans-2212"/>
       <use xlink:href="#DejaVuSans-35" x="83.789062"/>
      </g>
     </g>
    </g>
    <g id="xtick_7">
     <g id="line2d_22">
      <g>
       <use xlink:href="#m9a8b93f1db" x="593.634143" y="299.518125" style="stroke: #000000; stroke-width: 0.8"/>
      </g>
     </g>
     <g id="text_22">
      <!-- 0 -->
      <g transform="translate(590.452893 314.116563) scale(0.1 -0.1)">
       <use xlink:href="#DejaVuSans-30"/>
      </g>
     </g>
    </g>
    <g id="xtick_8">
     <g id="line2d_23">
      <g>
       <use xlink:href="#m9a8b93f1db" x="665.36968" y="299.518125" style="stroke: #000000; stroke-width: 0.8"/>
      </g>
     </g>
     <g id="text_23">
      <!-- 5 -->
      <g transform="translate(662.18843 314.116563) scale(0.1 -0.1)">
       <use xlink:href="#DejaVuSans-35"/>
      </g>
     </g>
    </g>
    <g id="xtick_9">
     <g id="line2d_24">
      <g>
       <use xlink:href="#m9a8b93f1db" x="737.105217" y="299.518125" style="stroke: #000000; stroke-width: 0.8"/>
      </g>
     </g>
     <g id="text_24">
      <!-- 10 -->
      <g transform="translate(730.742717 314.116563) scale(0.1 -0.1)">
       <use xlink:href="#DejaVuSans-31"/>
       <use xlink:href="#DejaVuSans-30" x="63.623047"/>
      </g>
     </g>
    </g>
    <g id="xtick_10">
     <g id="line2d_25">
      <g>
       <use xlink:href="#m9a8b93f1db" x="808.840754" y="299.518125" style="stroke: #000000; stroke-width: 0.8"/>
      </g>
     </g>
     <g id="text_25">
      <!-- 15 -->
      <g transform="translate(802.478254 314.116563) scale(0.1 -0.1)">
       <use xlink:href="#DejaVuSans-31"/>
       <use xlink:href="#DejaVuSans-35" x="63.623047"/>
      </g>
     </g>
    </g>
    <g id="text_26">
     <!-- x -->
     <g transform="translate(644.47642 327.794688) scale(0.1 -0.1)">
      <use xlink:href="#DejaVuSans-78"/>
     </g>
    </g>
   </g>
   <g id="matplotlib.axis_4">
    <g id="ytick_8">
     <g id="line2d_26">
      <g>
       <use xlink:href="#m4dab155874" x="469.890341" y="286.918125" style="stroke: #000000; stroke-width: 0.8"/>
      </g>
     </g>
     <g id="text_27">
      <!-- 0.0 -->
      <g transform="translate(446.987216 290.717344) scale(0.1 -0.1)">
       <use xlink:href="#DejaVuSans-30"/>
       <use xlink:href="#DejaVuSans-2e" x="63.623047"/>
       <use xlink:href="#DejaVuSans-30" x="95.410156"/>
      </g>
     </g>
    </g>
    <g id="ytick_9">
     <g id="line2d_27">
      <g>
       <use xlink:href="#m4dab155874" x="469.890341" y="250.480874" style="stroke: #000000; stroke-width: 0.8"/>
      </g>
     </g>
     <g id="text_28">
      <!-- 0.1 -->
      <g transform="translate(446.987216 254.280093) scale(0.1 -0.1)">
       <use xlink:href="#DejaVuSans-30"/>
       <use xlink:href="#DejaVuSans-2e" x="63.623047"/>
       <use xlink:href="#DejaVuSans-31" x="95.410156"/>
      </g>
     </g>
    </g>
    <g id="ytick_10">
     <g id="line2d_28">
      <g>
       <use xlink:href="#m4dab155874" x="469.890341" y="214.043623" style="stroke: #000000; stroke-width: 0.8"/>
      </g>
     </g>
     <g id="text_29">
      <!-- 0.2 -->
      <g transform="translate(446.987216 217.842842) scale(0.1 -0.1)">
       <use xlink:href="#DejaVuSans-30"/>
       <use xlink:href="#DejaVuSans-2e" x="63.623047"/>
       <use xlink:href="#DejaVuSans-32" x="95.410156"/>
      </g>
     </g>
    </g>
    <g id="ytick_11">
     <g id="line2d_29">
      <g>
       <use xlink:href="#m4dab155874" x="469.890341" y="177.606372" style="stroke: #000000; stroke-width: 0.8"/>
      </g>
     </g>
     <g id="text_30">
      <!-- 0.3 -->
      <g transform="translate(446.987216 181.405591) scale(0.1 -0.1)">
       <use xlink:href="#DejaVuSans-30"/>
       <use xlink:href="#DejaVuSans-2e" x="63.623047"/>
       <use xlink:href="#DejaVuSans-33" x="95.410156"/>
      </g>
     </g>
    </g>
    <g id="ytick_12">
     <g id="line2d_30">
      <g>
       <use xlink:href="#m4dab155874" x="469.890341" y="141.169122" style="stroke: #000000; stroke-width: 0.8"/>
      </g>
     </g>
     <g id="text_31">
      <!-- 0.4 -->
      <g transform="translate(446.987216 144.96834) scale(0.1 -0.1)">
       <use xlink:href="#DejaVuSans-30"/>
       <use xlink:href="#DejaVuSans-2e" x="63.623047"/>
       <use xlink:href="#DejaVuSans-34" x="95.410156"/>
      </g>
     </g>
    </g>
    <g id="ytick_13">
     <g id="line2d_31">
      <g>
       <use xlink:href="#m4dab155874" x="469.890341" y="104.731871" style="stroke: #000000; stroke-width: 0.8"/>
      </g>
     </g>
     <g id="text_32">
      <!-- 0.5 -->
      <g transform="translate(446.987216 108.531089) scale(0.1 -0.1)">
       <use xlink:href="#DejaVuSans-30"/>
       <use xlink:href="#DejaVuSans-2e" x="63.623047"/>
       <use xlink:href="#DejaVuSans-35" x="95.410156"/>
      </g>
     </g>
    </g>
    <g id="ytick_14">
     <g id="line2d_32">
      <g>
       <use xlink:href="#m4dab155874" x="469.890341" y="68.29462" style="stroke: #000000; stroke-width: 0.8"/>
      </g>
     </g>
     <g id="text_33">
      <!-- 0.6 -->
      <g transform="translate(446.987216 72.093839) scale(0.1 -0.1)">
       <use xlink:href="#DejaVuSans-30"/>
       <use xlink:href="#DejaVuSans-2e" x="63.623047"/>
       <use xlink:href="#DejaVuSans-36" x="95.410156"/>
      </g>
     </g>
    </g>
    <g id="ytick_15">
     <g id="line2d_33">
      <g>
       <use xlink:href="#m4dab155874" x="469.890341" y="31.857369" style="stroke: #000000; stroke-width: 0.8"/>
      </g>
     </g>
     <g id="text_34">
      <!-- 0.7 -->
      <g transform="translate(446.987216 35.656588) scale(0.1 -0.1)">
       <defs>
        <path id="DejaVuSans-37" d="M 525 4666 
L 3525 4666 
L 3525 4397 
L 1831 0 
L 1172 0 
L 2766 4134 
L 525 4134 
L 525 4666 
z
" transform="scale(0.015625)"/>
       </defs>
       <use xlink:href="#DejaVuSans-30"/>
       <use xlink:href="#DejaVuSans-2e" x="63.623047"/>
       <use xlink:href="#DejaVuSans-37" x="95.410156"/>
      </g>
     </g>
    </g>
    <g id="text_35">
     <!-- Density -->
     <g transform="translate(440.907528 179.926719) rotate(-90) scale(0.1 -0.1)">
      <use xlink:href="#DejaVuSans-44"/>
      <use xlink:href="#DejaVuSans-65" x="77.001953"/>
      <use xlink:href="#DejaVuSans-6e" x="138.525391"/>
      <use xlink:href="#DejaVuSans-73" x="201.904297"/>
      <use xlink:href="#DejaVuSans-69" x="254.003906"/>
      <use xlink:href="#DejaVuSans-74" x="281.787109"/>
      <use xlink:href="#DejaVuSans-79" x="320.996094"/>
     </g>
    </g>
   </g>
   <g id="line2d_34">
    <path d="M 486.030837 286.917644 
L 504.772554 286.809768 
L 509.942683 286.560497 
L 513.497146 286.164361 
L 516.08221 285.670781 
L 518.344142 285.030883 
L 520.28294 284.279452 
L 522.221738 283.29559 
L 524.160537 282.034877 
L 525.776202 280.741793 
L 527.391867 279.204742 
L 529.330666 277.014548 
L 531.269464 274.432554 
L 533.208262 271.462241 
L 535.470193 267.544847 
L 538.055258 262.58993 
L 545.810451 247.268942 
L 547.749249 244.118678 
L 549.364915 241.934984 
L 550.657447 240.533544 
L 551.949979 239.475067 
L 552.919378 238.921713 
L 553.888777 238.583076 
L 554.858177 238.463769 
L 555.827576 238.56542 
L 556.796975 238.88664 
L 557.766374 239.423056 
L 559.058906 240.460074 
L 560.351438 241.841789 
L 561.643971 243.535942 
L 563.259636 246.03368 
L 565.198434 249.473957 
L 567.783499 254.547677 
L 573.923026 266.806045 
L 576.184958 270.802026 
L 578.123756 273.849992 
L 580.062554 276.513264 
L 582.001353 278.783676 
L 583.940151 280.673748 
L 585.878949 282.211395 
L 587.817748 283.434603 
L 589.756546 284.386573 
L 591.695344 285.111681 
L 593.957276 285.727401 
L 596.54234 286.200792 
L 599.773671 286.554394 
L 603.9744 286.778674 
L 610.760194 286.893397 
L 631.763843 286.918097 
L 808.840754 286.918125 
L 808.840754 286.918125 
" clip-path="url(#pe62b125e39)" style="fill: none; stroke: #1f77b4; stroke-width: 1.5; stroke-linecap: square"/>
   </g>
   <g id="line2d_35">
    <path d="M 486.030837 286.918125 
L 576.508091 286.825972 
L 577.47749 286.585479 
L 578.123756 286.183452 
L 578.770022 285.3758 
L 579.416288 283.840419 
L 580.062554 281.080339 
L 580.708821 276.392714 
L 581.355087 268.879653 
L 582.001353 257.532818 
L 582.647619 241.416121 
L 583.293885 219.944991 
L 584.263284 178.175666 
L 586.525215 70.746762 
L 587.171482 52.232181 
L 587.494615 46.996047 
L 587.817748 44.733928 
L 588.140881 45.531147 
L 588.464014 49.357573 
L 588.787147 56.069514 
L 589.433413 77.06739 
L 590.402812 121.539749 
L 592.018477 200.631903 
L 592.987876 236.761477 
L 593.634143 254.130085 
L 594.280409 266.544317 
L 594.926675 274.884436 
L 595.572941 280.16204 
L 596.219207 283.31266 
L 596.865473 285.089194 
L 597.511739 286.036258 
L 598.158005 286.513941 
L 599.127404 286.804091 
L 600.74307 286.907386 
L 609.790795 286.918125 
L 808.840754 286.918125 
L 808.840754 286.918125 
" clip-path="url(#pe62b125e39)" style="fill: none; stroke: #ff7f0e; stroke-width: 1.5; stroke-linecap: square"/>
   </g>
   <g id="line2d_36">
    <path d="M 486.030837 286.902931 
L 516.405344 286.753033 
L 531.592597 286.466632 
L 542.902254 286.037292 
L 552.273112 285.463788 
L 560.674571 284.728315 
L 568.429765 283.829331 
L 576.184958 282.700462 
L 583.940151 281.342987 
L 592.664743 279.577481 
L 605.266932 276.760056 
L 617.545988 274.081245 
L 624.654915 272.755198 
L 630.794443 271.835028 
L 636.287705 271.234005 
L 641.457834 270.886802 
L 646.627963 270.76665 
L 651.798092 270.878704 
L 656.96822 271.218156 
L 662.461482 271.811682 
L 668.277877 272.670891 
L 674.740538 273.851257 
L 683.141998 275.627788 
L 708.346375 281.123433 
L 716.424702 282.566315 
L 724.179895 283.720034 
L 731.935088 284.642963 
L 740.013414 285.376497 
L 748.738007 285.944839 
L 758.755131 286.372487 
L 771.35732 286.674178 
L 788.806505 286.848661 
L 808.840754 286.904717 
L 808.840754 286.904717 
" clip-path="url(#pe62b125e39)" style="fill: none; stroke: #2ca02c; stroke-width: 1.5; stroke-linecap: square"/>
   </g>
   <g id="line2d_37">
    <path d="M 486.030837 286.90245 
L 503.803155 286.767566 
L 509.296416 286.509117 
L 512.85088 286.128775 
L 515.759077 285.587076 
L 518.021009 284.951747 
L 519.959807 284.208373 
L 521.898605 283.2366 
L 523.837404 281.99174 
L 525.453069 280.714118 
L 527.068734 279.193611 
L 528.684399 277.411717 
L 530.623198 274.912009 
L 532.561996 272.014912 
L 534.500794 268.739262 
L 536.762726 264.501918 
L 539.994056 257.920239 
L 544.841052 248.035535 
L 546.77985 244.539581 
L 548.395516 242.003089 
L 550.011181 239.899124 
L 551.303713 238.575816 
L 552.596245 237.604167 
L 553.565644 237.119055 
L 554.535043 236.849161 
L 555.504443 236.797051 
L 556.473842 236.962281 
L 557.443241 237.341402 
L 558.41264 237.928041 
L 559.705172 239.016825 
L 560.997704 240.42923 
L 562.61337 242.594839 
L 564.552168 245.670994 
L 566.814099 249.717829 
L 574.569293 264.023216 
L 576.508091 266.97375 
L 577.47749 268.114592 
L 578.123756 268.579145 
L 578.446889 268.659208 
L 578.770022 268.593546 
L 579.093155 268.33743 
L 579.416288 267.835121 
L 579.739421 267.018587 
L 580.062554 265.806631 
L 580.385687 264.104638 
L 581.031954 258.79013 
L 581.67822 250.105992 
L 582.324486 237.051282 
L 582.970752 218.826694 
L 583.617018 195.148554 
L 584.586417 150.916564 
L 586.202082 72.865027 
L 586.848349 50.049916 
L 587.171482 42.170457 
L 587.494615 37.061312 
L 587.817748 34.918125 
L 588.140881 35.826427 
L 588.464014 39.756299 
L 588.787147 46.564262 
L 589.433413 67.73275 
L 590.402812 112.410613 
L 592.018477 191.724579 
L 592.987876 227.923564 
L 593.634143 245.31506 
L 594.280409 257.735134 
L 594.926675 266.065404 
L 595.572941 271.318755 
L 596.219207 274.431942 
L 596.865473 276.159015 
L 597.511739 277.045675 
L 598.158005 277.453031 
L 598.804271 277.60183 
L 599.773671 277.598031 
L 602.035602 277.274495 
L 607.528864 276.189506 
L 622.716117 273.091835 
L 629.178778 272.053454 
L 634.67204 271.386973 
L 639.842169 270.971422 
L 645.012298 270.779298 
L 650.182426 270.818837 
L 655.352555 271.08834 
L 660.522684 271.576301 
L 666.015946 272.311057 
L 672.155474 273.354678 
L 679.587534 274.851752 
L 691.543457 277.527485 
L 704.468779 280.3523 
L 712.870238 281.960504 
L 720.625431 283.220214 
L 728.380625 284.247947 
L 736.135818 285.051639 
L 744.537277 285.697341 
L 753.908136 286.191256 
L 765.217792 286.553145 
L 779.75878 286.782125 
L 803.024359 286.896021 
L 808.840754 286.904717 
L 808.840754 286.904717 
" clip-path="url(#pe62b125e39)" style="fill: none; stroke-dasharray: 5.55,2.4; stroke-dashoffset: 0; stroke: #000000; stroke-width: 1.5"/>
   </g>
   <g id="patch_9">
    <path d="M 469.890341 299.518125 
L 469.890341 22.318125 
" style="fill: none; stroke: #000000; stroke-width: 0.8; stroke-linejoin: miter; stroke-linecap: square"/>
   </g>
   <g id="patch_10">
    <path d="M 824.98125 299.518125 
L 824.98125 22.318125 
" style="fill: none; stroke: #000000; stroke-width: 0.8; stroke-linejoin: miter; stroke-linecap: square"/>
   </g>
   <g id="patch_11">
    <path d="M 469.890341 299.518125 
L 824.98125 299.518125 
" style="fill: none; stroke: #000000; stroke-width: 0.8; stroke-linejoin: miter; stroke-linecap: square"/>
   </g>
   <g id="patch_12">
    <path d="M 469.890341 22.318125 
L 824.98125 22.318125 
" style="fill: none; stroke: #000000; stroke-width: 0.8; stroke-linejoin: miter; stroke-linecap: square"/>
   </g>
   <g id="text_36">
    <!-- Updated Gaussian Mixture Model and Data Points with New Mean. -->
    <g transform="translate(448.915483 16.318125) scale(0.12 -0.12)">
     <defs>
      <path id="DejaVuSans-55" d="M 556 4666 
L 1191 4666 
L 1191 1831 
Q 1191 1081 1462 751 
Q 1734 422 2344 422 
Q 2950 422 3222 751 
Q 3494 1081 3494 1831 
L 3494 4666 
L 4128 4666 
L 4128 1753 
Q 4128 841 3676 375 
Q 3225 -91 2344 -91 
Q 1459 -91 1007 375 
Q 556 841 556 1753 
L 556 4666 
z
" transform="scale(0.015625)"/>
      <path id="DejaVuSans-77" d="M 269 3500 
L 844 3500 
L 1563 769 
L 2278 3500 
L 2956 3500 
L 3675 769 
L 4391 3500 
L 4966 3500 
L 4050 0 
L 3372 0 
L 2619 2869 
L 1863 0 
L 1184 0 
L 269 3500 
z
" transform="scale(0.015625)"/>
      <path id="DejaVuSans-68" d="M 3513 2113 
L 3513 0 
L 2938 0 
L 2938 2094 
Q 2938 2591 2744 2837 
Q 2550 3084 2163 3084 
Q 1697 3084 1428 2787 
Q 1159 2491 1159 1978 
L 1159 0 
L 581 0 
L 581 4863 
L 1159 4863 
L 1159 2956 
Q 1366 3272 1645 3428 
Q 1925 3584 2291 3584 
Q 2894 3584 3203 3211 
Q 3513 2838 3513 2113 
z
" transform="scale(0.015625)"/>
      <path id="DejaVuSans-4e" d="M 628 4666 
L 1478 4666 
L 3547 763 
L 3547 4666 
L 4159 4666 
L 4159 0 
L 3309 0 
L 1241 3903 
L 1241 0 
L 628 0 
L 628 4666 
z
" transform="scale(0.015625)"/>
     </defs>
     <use xlink:href="#DejaVuSans-55"/>
     <use xlink:href="#DejaVuSans-70" x="73.193359"/>
     <use xlink:href="#DejaVuSans-64" x="136.669922"/>
     <use xlink:href="#DejaVuSans-61" x="200.146484"/>
     <use xlink:href="#DejaVuSans-74" x="261.425781"/>
     <use xlink:href="#DejaVuSans-65" x="300.634766"/>
     <use xlink:href="#DejaVuSans-64" x="362.158203"/>
     <use xlink:href="#DejaVuSans-20" x="425.634766"/>
     <use xlink:href="#DejaVuSans-47" x="457.421875"/>
     <use xlink:href="#DejaVuSans-61" x="534.912109"/>
     <use xlink:href="#DejaVuSans-75" x="596.191406"/>
     <use xlink:href="#DejaVuSans-73" x="659.570312"/>
     <use xlink:href="#DejaVuSans-73" x="711.669922"/>
     <use xlink:href="#DejaVuSans-69" x="763.769531"/>
     <use xlink:href="#DejaVuSans-61" x="791.552734"/>
     <use xlink:href="#DejaVuSans-6e" x="852.832031"/>
     <use xlink:href="#DejaVuSans-20" x="916.210938"/>
     <use xlink:href="#DejaVuSans-4d" x="947.998047"/>
     <use xlink:href="#DejaVuSans-69" x="1034.277344"/>
     <use xlink:href="#DejaVuSans-78" x="1062.060547"/>
     <use xlink:href="#DejaVuSans-74" x="1121.240234"/>
     <use xlink:href="#DejaVuSans-75" x="1160.449219"/>
     <use xlink:href="#DejaVuSans-72" x="1223.828125"/>
     <use xlink:href="#DejaVuSans-65" x="1262.691406"/>
     <use xlink:href="#DejaVuSans-20" x="1324.214844"/>
     <use xlink:href="#DejaVuSans-4d" x="1356.001953"/>
     <use xlink:href="#DejaVuSans-6f" x="1442.28125"/>
     <use xlink:href="#DejaVuSans-64" x="1503.462891"/>
     <use xlink:href="#DejaVuSans-65" x="1566.939453"/>
     <use xlink:href="#DejaVuSans-6c" x="1628.462891"/>
     <use xlink:href="#DejaVuSans-20" x="1656.246094"/>
     <use xlink:href="#DejaVuSans-61" x="1688.033203"/>
     <use xlink:href="#DejaVuSans-6e" x="1749.3125"/>
     <use xlink:href="#DejaVuSans-64" x="1812.691406"/>
     <use xlink:href="#DejaVuSans-20" x="1876.167969"/>
     <use xlink:href="#DejaVuSans-44" x="1907.955078"/>
     <use xlink:href="#DejaVuSans-61" x="1984.957031"/>
     <use xlink:href="#DejaVuSans-74" x="2046.236328"/>
     <use xlink:href="#DejaVuSans-61" x="2085.445312"/>
     <use xlink:href="#DejaVuSans-20" x="2146.724609"/>
     <use xlink:href="#DejaVuSans-50" x="2178.511719"/>
     <use xlink:href="#DejaVuSans-6f" x="2235.189453"/>
     <use xlink:href="#DejaVuSans-69" x="2296.371094"/>
     <use xlink:href="#DejaVuSans-6e" x="2324.154297"/>
     <use xlink:href="#DejaVuSans-74" x="2387.533203"/>
     <use xlink:href="#DejaVuSans-73" x="2426.742188"/>
     <use xlink:href="#DejaVuSans-20" x="2478.841797"/>
     <use xlink:href="#DejaVuSans-77" x="2510.628906"/>
     <use xlink:href="#DejaVuSans-69" x="2592.416016"/>
     <use xlink:href="#DejaVuSans-74" x="2620.199219"/>
     <use xlink:href="#DejaVuSans-68" x="2659.408203"/>
     <use xlink:href="#DejaVuSans-20" x="2722.787109"/>
     <use xlink:href="#DejaVuSans-4e" x="2754.574219"/>
     <use xlink:href="#DejaVuSans-65" x="2829.378906"/>
     <use xlink:href="#DejaVuSans-77" x="2890.902344"/>
     <use xlink:href="#DejaVuSans-20" x="2972.689453"/>
     <use xlink:href="#DejaVuSans-4d" x="3004.476562"/>
     <use xlink:href="#DejaVuSans-65" x="3090.755859"/>
     <use xlink:href="#DejaVuSans-61" x="3152.279297"/>
     <use xlink:href="#DejaVuSans-6e" x="3213.558594"/>
     <use xlink:href="#DejaVuSans-2e" x="3276.9375"/>
    </g>
   </g>
   <g id="legend_2">
    <g id="patch_13">
     <path d="M 705.08125 105.274375 
L 817.98125 105.274375 
Q 819.98125 105.274375 819.98125 103.274375 
L 819.98125 29.318125 
Q 819.98125 27.318125 817.98125 27.318125 
L 705.08125 27.318125 
Q 703.08125 27.318125 703.08125 29.318125 
L 703.08125 103.274375 
Q 703.08125 105.274375 705.08125 105.274375 
z
" style="fill: #ffffff; opacity: 0.8; stroke: #cccccc; stroke-linejoin: miter"/>
    </g>
    <g id="PathCollection_4">
     <g>
      <use xlink:href="#m658e34e6ee" x="717.08125" y="36.291563" style="stroke: #000000"/>
     </g>
    </g>
    <g id="text_37">
     <!-- Data points -->
     <g transform="translate(735.08125 38.916563) scale(0.1 -0.1)">
      <use xlink:href="#DejaVuSans-44"/>
      <use xlink:href="#DejaVuSans-61" x="77.001953"/>
      <use xlink:href="#DejaVuSans-74" x="138.28125"/>
      <use xlink:href="#DejaVuSans-61" x="177.490234"/>
      <use xlink:href="#DejaVuSans-20" x="238.769531"/>
      <use xlink:href="#DejaVuSans-70" x="270.556641"/>
      <use xlink:href="#DejaVuSans-6f" x="334.033203"/>
      <use xlink:href="#DejaVuSans-69" x="395.214844"/>
      <use xlink:href="#DejaVuSans-6e" x="422.998047"/>
      <use xlink:href="#DejaVuSans-74" x="486.376953"/>
      <use xlink:href="#DejaVuSans-73" x="525.585938"/>
     </g>
    </g>
    <g id="line2d_38">
     <path d="M 707.08125 50.49625 
L 717.08125 50.49625 
L 727.08125 50.49625 
" style="fill: none; stroke: #1f77b4; stroke-width: 1.5; stroke-linecap: square"/>
    </g>
    <g id="text_38">
     <!-- $\mathcal{N}(x \mid -2.7, 1.0)$ -->
     <g transform="translate(735.08125 53.99625) scale(0.1 -0.1)">
      <use xlink:href="#STIXNonUnicode-Italic-e23a" transform="translate(0 0.5)"/>
      <use xlink:href="#DejaVuSans-28" transform="translate(95.699982 0.5)"/>
      <use xlink:href="#DejaVuSans-Oblique-78" transform="translate(134.713654 0.5)"/>
      <use xlink:href="#DejaVuSans-2223" transform="translate(213.375763 0.5)"/>
      <use xlink:href="#DejaVuSans-2212" transform="translate(302.340607 0.5)"/>
      <use xlink:href="#DejaVuSans-32" transform="translate(405.612091 0.5)"/>
      <use xlink:href="#DejaVuSans-2e" transform="translate(469.235138 0.5)"/>
      <use xlink:href="#DejaVuSans-37" transform="translate(493.272247 0.5)"/>
      <use xlink:href="#DejaVuSans-2c" transform="translate(556.895294 0.5)"/>
      <use xlink:href="#DejaVuSans-31" transform="translate(608.164825 0.5)"/>
      <use xlink:href="#DejaVuSans-2e" transform="translate(671.787872 0.5)"/>
      <use xlink:href="#DejaVuSans-30" transform="translate(703.574982 0.5)"/>
      <use xlink:href="#DejaVuSans-29" transform="translate(767.198029 0.5)"/>
     </g>
    </g>
    <g id="line2d_39">
     <path d="M 707.08125 65.69625 
L 717.08125 65.69625 
L 727.08125 65.69625 
" style="fill: none; stroke: #ff7f0e; stroke-width: 1.5; stroke-linecap: square"/>
    </g>
    <g id="text_39">
     <!-- $\mathcal{N}(x \mid -0.4, 0.2)$ -->
     <g transform="translate(735.08125 69.19625) scale(0.1 -0.1)">
      <use xlink:href="#STIXNonUnicode-Italic-e23a" transform="translate(0 0.5)"/>
      <use xlink:href="#DejaVuSans-28" transform="translate(95.699982 0.5)"/>
      <use xlink:href="#DejaVuSans-Oblique-78" transform="translate(134.713654 0.5)"/>
      <use xlink:href="#DejaVuSans-2223" transform="translate(213.375763 0.5)"/>
      <use xlink:href="#DejaVuSans-2212" transform="translate(302.340607 0.5)"/>
      <use xlink:href="#DejaVuSans-30" transform="translate(405.612091 0.5)"/>
      <use xlink:href="#DejaVuSans-2e" transform="translate(469.235138 0.5)"/>
      <use xlink:href="#DejaVuSans-34" transform="translate(501.022247 0.5)"/>
      <use xlink:href="#DejaVuSans-2c" transform="translate(564.645294 0.5)"/>
      <use xlink:href="#DejaVuSans-30" transform="translate(615.914825 0.5)"/>
      <use xlink:href="#DejaVuSans-2e" transform="translate(679.537872 0.5)"/>
      <use xlink:href="#DejaVuSans-32" transform="translate(705.824982 0.5)"/>
      <use xlink:href="#DejaVuSans-29" transform="translate(769.448029 0.5)"/>
     </g>
    </g>
    <g id="line2d_40">
     <path d="M 707.08125 80.89625 
L 717.08125 80.89625 
L 727.08125 80.89625 
" style="fill: none; stroke: #2ca02c; stroke-width: 1.5; stroke-linecap: square"/>
    </g>
    <g id="text_40">
     <!-- $\mathcal{N}(x \mid 3.7, 3.0)$ -->
     <g transform="translate(735.08125 84.39625) scale(0.1 -0.1)">
      <use xlink:href="#STIXNonUnicode-Italic-e23a" transform="translate(0 0.5)"/>
      <use xlink:href="#DejaVuSans-28" transform="translate(95.699982 0.5)"/>
      <use xlink:href="#DejaVuSans-Oblique-78" transform="translate(134.713654 0.5)"/>
      <use xlink:href="#DejaVuSans-2223" transform="translate(213.375763 0.5)"/>
      <use xlink:href="#DejaVuSans-33" transform="translate(282.858185 0.5)"/>
      <use xlink:href="#DejaVuSans-2e" transform="translate(346.481232 0.5)"/>
      <use xlink:href="#DejaVuSans-37" transform="translate(370.518341 0.5)"/>
      <use xlink:href="#DejaVuSans-2c" transform="translate(434.141388 0.5)"/>
      <use xlink:href="#DejaVuSans-33" transform="translate(485.410919 0.5)"/>
      <use xlink:href="#DejaVuSans-2e" transform="translate(549.033966 0.5)"/>
      <use xlink:href="#DejaVuSans-30" transform="translate(580.821075 0.5)"/>
      <use xlink:href="#DejaVuSans-29" transform="translate(644.444122 0.5)"/>
     </g>
    </g>
    <g id="line2d_41">
     <path d="M 707.08125 95.694688 
L 717.08125 95.694688 
L 727.08125 95.694688 
" style="fill: none; stroke-dasharray: 5.55,2.4; stroke-dashoffset: 0; stroke: #000000; stroke-width: 1.5"/>
    </g>
    <g id="text_41">
     <!-- GMM -->
     <g transform="translate(735.08125 99.194688) scale(0.1 -0.1)">
      <use xlink:href="#DejaVuSans-47"/>
      <use xlink:href="#DejaVuSans-4d" x="77.490234"/>
      <use xlink:href="#DejaVuSans-4d" x="163.769531"/>
     </g>
    </g>
   </g>
  </g>
 </g>
 <defs>
  <clipPath id="pb49472268d">
   <rect x="43.78125" y="22.318125" width="355.090909" height="277.2"/>
  </clipPath>
  <clipPath id="pe62b125e39">
   <rect x="469.890341" y="22.318125" width="355.090909" height="277.2"/>
  </clipPath>
 </defs>
</svg>