<?xml version="1.0" encoding="utf-8" standalone="no"?>
<!DOCTYPE svg PUBLIC "-//W3C//DTD SVG 1.1//EN"
  "http://www.w3.org/Graphics/SVG/1.1/DTD/svg11.dtd">
<svg xmlns:xlink="http://www.w3.org/1999/xlink" width="856.52375pt" height="711.034375pt" viewBox="0 0 856.52375 711.034375" xmlns="http://www.w3.org/2000/svg" version="1.1">
 <metadata>
  <rdf:RDF xmlns:dc="http://purl.org/dc/elements/1.1/" xmlns:cc="http://creativecommons.org/ns#" xmlns:rdf="http://www.w3.org/1999/02/22-rdf-syntax-ns#">
   <cc:Work>
    <dc:type rdf:resource="http://purl.org/dc/dcmitype/StillImage"/>
    <dc:date>2024-09-10T13:38:17.586936</dc:date>
    <dc:format>image/svg+xml</dc:format>
    <dc:creator>
     <cc:Agent>
      <dc:title>Matplotlib v3.9.0, https://matplotlib.org/</dc:title>
     </cc:Agent>
    </dc:creator>
   </cc:Work>
  </rdf:RDF>
 </metadata>
 <defs>
  <style type="text/css">*{stroke-linejoin: round; stroke-linecap: butt}</style>
 </defs>
 <g id="figure_1">
  <g id="patch_1">
   <path d="M 0 711.034375 
L 856.52375 711.034375 
L 856.52375 0 
L 0 0 
z
" style="fill: #ffffff"/>
  </g>
  <g id="axes_1">
   <g id="patch_2">
    <path d="M 50.14375 325.668125 
L 435.54375 325.668125 
L 435.54375 22.318125 
L 50.14375 22.318125 
z
" style="fill: #ffffff"/>
   </g>
   <g id="matplotlib.axis_1">
    <g id="xtick_1">
     <g id="line2d_1">
      <defs>
       <path id="m16f0f0c1c6" d="M 0 0 
L 0 3.5 
" style="stroke: #000000; stroke-width: 0.8"/>
      </defs>
      <g>
       <use xlink:href="#m16f0f0c1c6" x="67.661932" y="325.668125" style="stroke: #000000; stroke-width: 0.8"/>
      </g>
     </g>
    </g>
    <g id="xtick_2">
     <g id="line2d_2">
      <g>
       <use xlink:href="#m16f0f0c1c6" x="111.459576" y="325.668125" style="stroke: #000000; stroke-width: 0.8"/>
      </g>
     </g>
    </g>
    <g id="xtick_3">
     <g id="line2d_3">
      <g>
       <use xlink:href="#m16f0f0c1c6" x="155.257221" y="325.668125" style="stroke: #000000; stroke-width: 0.8"/>
      </g>
     </g>
    </g>
    <g id="xtick_4">
     <g id="line2d_4">
      <g>
       <use xlink:href="#m16f0f0c1c6" x="199.054865" y="325.668125" style="stroke: #000000; stroke-width: 0.8"/>
      </g>
     </g>
    </g>
    <g id="xtick_5">
     <g id="line2d_5">
      <g>
       <use xlink:href="#m16f0f0c1c6" x="242.85251" y="325.668125" style="stroke: #000000; stroke-width: 0.8"/>
      </g>
     </g>
    </g>
    <g id="xtick_6">
     <g id="line2d_6">
      <g>
       <use xlink:href="#m16f0f0c1c6" x="286.650154" y="325.668125" style="stroke: #000000; stroke-width: 0.8"/>
      </g>
     </g>
    </g>
    <g id="xtick_7">
     <g id="line2d_7">
      <g>
       <use xlink:href="#m16f0f0c1c6" x="330.447798" y="325.668125" style="stroke: #000000; stroke-width: 0.8"/>
      </g>
     </g>
    </g>
    <g id="xtick_8">
     <g id="line2d_8">
      <g>
       <use xlink:href="#m16f0f0c1c6" x="374.245443" y="325.668125" style="stroke: #000000; stroke-width: 0.8"/>
      </g>
     </g>
    </g>
    <g id="xtick_9">
     <g id="line2d_9">
      <g>
       <use xlink:href="#m16f0f0c1c6" x="418.043087" y="325.668125" style="stroke: #000000; stroke-width: 0.8"/>
      </g>
     </g>
    </g>
    <g id="text_1">
     <!-- X-axis -->
     <g transform="translate(227.847656 340.766562) scale(0.1 -0.1)">
      <defs>
       <path id="DejaVuSans-58" d="M 403 4666 
L 1081 4666 
L 2241 2931 
L 3406 4666 
L 4084 4666 
L 2584 2425 
L 4184 0 
L 3506 0 
L 2194 1984 
L 872 0 
L 191 0 
L 1856 2491 
L 403 4666 
z
" transform="scale(0.015625)"/>
       <path id="DejaVuSans-2d" d="M 313 2009 
L 1997 2009 
L 1997 1497 
L 313 1497 
L 313 2009 
z
" transform="scale(0.015625)"/>
       <path id="DejaVuSans-61" d="M 2194 1759 
Q 1497 1759 1228 1600 
Q 959 1441 959 1056 
Q 959 750 1161 570 
Q 1363 391 1709 391 
Q 2188 391 2477 730 
Q 2766 1069 2766 1631 
L 2766 1759 
L 2194 1759 
z
M 3341 1997 
L 3341 0 
L 2766 0 
L 2766 531 
Q 2569 213 2275 61 
Q 1981 -91 1556 -91 
Q 1019 -91 701 211 
Q 384 513 384 1019 
Q 384 1609 779 1909 
Q 1175 2209 1959 2209 
L 2766 2209 
L 2766 2266 
Q 2766 2663 2505 2880 
Q 2244 3097 1772 3097 
Q 1472 3097 1187 3025 
Q 903 2953 641 2809 
L 641 3341 
Q 956 3463 1253 3523 
Q 1550 3584 1831 3584 
Q 2591 3584 2966 3190 
Q 3341 2797 3341 1997 
z
" transform="scale(0.015625)"/>
       <path id="DejaVuSans-78" d="M 3513 3500 
L 2247 1797 
L 3578 0 
L 2900 0 
L 1881 1375 
L 863 0 
L 184 0 
L 1544 1831 
L 300 3500 
L 978 3500 
L 1906 2253 
L 2834 3500 
L 3513 3500 
z
" transform="scale(0.015625)"/>
       <path id="DejaVuSans-69" d="M 603 3500 
L 1178 3500 
L 1178 0 
L 603 0 
L 603 3500 
z
M 603 4863 
L 1178 4863 
L 1178 4134 
L 603 4134 
L 603 4863 
z
" transform="scale(0.015625)"/>
       <path id="DejaVuSans-73" d="M 2834 3397 
L 2834 2853 
Q 2591 2978 2328 3040 
Q 2066 3103 1784 3103 
Q 1356 3103 1142 2972 
Q 928 2841 928 2578 
Q 928 2378 1081 2264 
Q 1234 2150 1697 2047 
L 1894 2003 
Q 2506 1872 2764 1633 
Q 3022 1394 3022 966 
Q 3022 478 2636 193 
Q 2250 -91 1575 -91 
Q 1294 -91 989 -36 
Q 684 19 347 128 
L 347 722 
Q 666 556 975 473 
Q 1284 391 1588 391 
Q 1994 391 2212 530 
Q 2431 669 2431 922 
Q 2431 1156 2273 1281 
Q 2116 1406 1581 1522 
L 1381 1569 
Q 847 1681 609 1914 
Q 372 2147 372 2553 
Q 372 3047 722 3315 
Q 1072 3584 1716 3584 
Q 2034 3584 2315 3537 
Q 2597 3491 2834 3397 
z
" transform="scale(0.015625)"/>
      </defs>
      <use xlink:href="#DejaVuSans-58"/>
      <use xlink:href="#DejaVuSans-2d" x="63.505859"/>
      <use xlink:href="#DejaVuSans-61" x="99.589844"/>
      <use xlink:href="#DejaVuSans-78" x="160.869141"/>
      <use xlink:href="#DejaVuSans-69" x="220.048828"/>
      <use xlink:href="#DejaVuSans-73" x="247.832031"/>
     </g>
    </g>
   </g>
   <g id="matplotlib.axis_2">
    <g id="ytick_1">
     <g id="line2d_10">
      <defs>
       <path id="mdf2cc91a9f" d="M 0 0 
L -3.5 0 
" style="stroke: #000000; stroke-width: 0.8"/>
      </defs>
      <g>
       <use xlink:href="#mdf2cc91a9f" x="50.14375" y="325.668125" style="stroke: #000000; stroke-width: 0.8"/>
      </g>
     </g>
     <g id="text_2">
      <!-- 0.00 -->
      <g transform="translate(20.878125 329.467344) scale(0.1 -0.1)">
       <defs>
        <path id="DejaVuSans-30" d="M 2034 4250 
Q 1547 4250 1301 3770 
Q 1056 3291 1056 2328 
Q 1056 1369 1301 889 
Q 1547 409 2034 409 
Q 2525 409 2770 889 
Q 3016 1369 3016 2328 
Q 3016 3291 2770 3770 
Q 2525 4250 2034 4250 
z
M 2034 4750 
Q 2819 4750 3233 4129 
Q 3647 3509 3647 2328 
Q 3647 1150 3233 529 
Q 2819 -91 2034 -91 
Q 1250 -91 836 529 
Q 422 1150 422 2328 
Q 422 3509 836 4129 
Q 1250 4750 2034 4750 
z
" transform="scale(0.015625)"/>
        <path id="DejaVuSans-2e" d="M 684 794 
L 1344 794 
L 1344 0 
L 684 0 
L 684 794 
z
" transform="scale(0.015625)"/>
       </defs>
       <use xlink:href="#DejaVuSans-30"/>
       <use xlink:href="#DejaVuSans-2e" x="63.623047"/>
       <use xlink:href="#DejaVuSans-30" x="95.410156"/>
       <use xlink:href="#DejaVuSans-30" x="159.033203"/>
      </g>
     </g>
    </g>
    <g id="ytick_2">
     <g id="line2d_11">
      <g>
       <use xlink:href="#mdf2cc91a9f" x="50.14375" y="266.911194" style="stroke: #000000; stroke-width: 0.8"/>
      </g>
     </g>
     <g id="text_3">
      <!-- 0.05 -->
      <g transform="translate(20.878125 270.710412) scale(0.1 -0.1)">
       <defs>
        <path id="DejaVuSans-35" d="M 691 4666 
L 3169 4666 
L 3169 4134 
L 1269 4134 
L 1269 2991 
Q 1406 3038 1543 3061 
Q 1681 3084 1819 3084 
Q 2600 3084 3056 2656 
Q 3513 2228 3513 1497 
Q 3513 744 3044 326 
Q 2575 -91 1722 -91 
Q 1428 -91 1123 -41 
Q 819 9 494 109 
L 494 744 
Q 775 591 1075 516 
Q 1375 441 1709 441 
Q 2250 441 2565 725 
Q 2881 1009 2881 1497 
Q 2881 1984 2565 2268 
Q 2250 2553 1709 2553 
Q 1456 2553 1204 2497 
Q 953 2441 691 2322 
L 691 4666 
z
" transform="scale(0.015625)"/>
       </defs>
       <use xlink:href="#DejaVuSans-30"/>
       <use xlink:href="#DejaVuSans-2e" x="63.623047"/>
       <use xlink:href="#DejaVuSans-30" x="95.410156"/>
       <use xlink:href="#DejaVuSans-35" x="159.033203"/>
      </g>
     </g>
    </g>
    <g id="ytick_3">
     <g id="line2d_12">
      <g>
       <use xlink:href="#mdf2cc91a9f" x="50.14375" y="208.154262" style="stroke: #000000; stroke-width: 0.8"/>
      </g>
     </g>
     <g id="text_4">
      <!-- 0.10 -->
      <g transform="translate(20.878125 211.953481) scale(0.1 -0.1)">
       <defs>
        <path id="DejaVuSans-31" d="M 794 531 
L 1825 531 
L 1825 4091 
L 703 3866 
L 703 4441 
L 1819 4666 
L 2450 4666 
L 2450 531 
L 3481 531 
L 3481 0 
L 794 0 
L 794 531 
z
" transform="scale(0.015625)"/>
       </defs>
       <use xlink:href="#DejaVuSans-30"/>
       <use xlink:href="#DejaVuSans-2e" x="63.623047"/>
       <use xlink:href="#DejaVuSans-31" x="95.410156"/>
       <use xlink:href="#DejaVuSans-30" x="159.033203"/>
      </g>
     </g>
    </g>
    <g id="ytick_4">
     <g id="line2d_13">
      <g>
       <use xlink:href="#mdf2cc91a9f" x="50.14375" y="149.397331" style="stroke: #000000; stroke-width: 0.8"/>
      </g>
     </g>
     <g id="text_5">
      <!-- 0.15 -->
      <g transform="translate(20.878125 153.196549) scale(0.1 -0.1)">
       <use xlink:href="#DejaVuSans-30"/>
       <use xlink:href="#DejaVuSans-2e" x="63.623047"/>
       <use xlink:href="#DejaVuSans-31" x="95.410156"/>
       <use xlink:href="#DejaVuSans-35" x="159.033203"/>
      </g>
     </g>
    </g>
    <g id="ytick_5">
     <g id="line2d_14">
      <g>
       <use xlink:href="#mdf2cc91a9f" x="50.14375" y="90.640399" style="stroke: #000000; stroke-width: 0.8"/>
      </g>
     </g>
     <g id="text_6">
      <!-- 0.20 -->
      <g transform="translate(20.878125 94.439618) scale(0.1 -0.1)">
       <defs>
        <path id="DejaVuSans-32" d="M 1228 531 
L 3431 531 
L 3431 0 
L 469 0 
L 469 531 
Q 828 903 1448 1529 
Q 2069 2156 2228 2338 
Q 2531 2678 2651 2914 
Q 2772 3150 2772 3378 
Q 2772 3750 2511 3984 
Q 2250 4219 1831 4219 
Q 1534 4219 1204 4116 
Q 875 4013 500 3803 
L 500 4441 
Q 881 4594 1212 4672 
Q 1544 4750 1819 4750 
Q 2544 4750 2975 4387 
Q 3406 4025 3406 3419 
Q 3406 3131 3298 2873 
Q 3191 2616 2906 2266 
Q 2828 2175 2409 1742 
Q 1991 1309 1228 531 
z
" transform="scale(0.015625)"/>
       </defs>
       <use xlink:href="#DejaVuSans-30"/>
       <use xlink:href="#DejaVuSans-2e" x="63.623047"/>
       <use xlink:href="#DejaVuSans-32" x="95.410156"/>
       <use xlink:href="#DejaVuSans-30" x="159.033203"/>
      </g>
     </g>
    </g>
    <g id="ytick_6">
     <g id="line2d_15">
      <g>
       <use xlink:href="#mdf2cc91a9f" x="50.14375" y="31.883468" style="stroke: #000000; stroke-width: 0.8"/>
      </g>
     </g>
     <g id="text_7">
      <!-- 0.25 -->
      <g transform="translate(20.878125 35.682686) scale(0.1 -0.1)">
       <use xlink:href="#DejaVuSans-30"/>
       <use xlink:href="#DejaVuSans-2e" x="63.623047"/>
       <use xlink:href="#DejaVuSans-32" x="95.410156"/>
       <use xlink:href="#DejaVuSans-35" x="159.033203"/>
      </g>
     </g>
    </g>
    <g id="text_8">
     <!-- Density -->
     <g transform="translate(14.798438 193.001719) rotate(-90) scale(0.1 -0.1)">
      <defs>
       <path id="DejaVuSans-44" d="M 1259 4147 
L 1259 519 
L 2022 519 
Q 2988 519 3436 956 
Q 3884 1394 3884 2338 
Q 3884 3275 3436 3711 
Q 2988 4147 2022 4147 
L 1259 4147 
z
M 628 4666 
L 1925 4666 
Q 3281 4666 3915 4102 
Q 4550 3538 4550 2338 
Q 4550 1131 3912 565 
Q 3275 0 1925 0 
L 628 0 
L 628 4666 
z
" transform="scale(0.015625)"/>
       <path id="DejaVuSans-65" d="M 3597 1894 
L 3597 1613 
L 953 1613 
Q 991 1019 1311 708 
Q 1631 397 2203 397 
Q 2534 397 2845 478 
Q 3156 559 3463 722 
L 3463 178 
Q 3153 47 2828 -22 
Q 2503 -91 2169 -91 
Q 1331 -91 842 396 
Q 353 884 353 1716 
Q 353 2575 817 3079 
Q 1281 3584 2069 3584 
Q 2775 3584 3186 3129 
Q 3597 2675 3597 1894 
z
M 3022 2063 
Q 3016 2534 2758 2815 
Q 2500 3097 2075 3097 
Q 1594 3097 1305 2825 
Q 1016 2553 972 2059 
L 3022 2063 
z
" transform="scale(0.015625)"/>
       <path id="DejaVuSans-6e" d="M 3513 2113 
L 3513 0 
L 2938 0 
L 2938 2094 
Q 2938 2591 2744 2837 
Q 2550 3084 2163 3084 
Q 1697 3084 1428 2787 
Q 1159 2491 1159 1978 
L 1159 0 
L 581 0 
L 581 3500 
L 1159 3500 
L 1159 2956 
Q 1366 3272 1645 3428 
Q 1925 3584 2291 3584 
Q 2894 3584 3203 3211 
Q 3513 2838 3513 2113 
z
" transform="scale(0.015625)"/>
       <path id="DejaVuSans-74" d="M 1172 4494 
L 1172 3500 
L 2356 3500 
L 2356 3053 
L 1172 3053 
L 1172 1153 
Q 1172 725 1289 603 
Q 1406 481 1766 481 
L 2356 481 
L 2356 0 
L 1766 0 
Q 1100 0 847 248 
Q 594 497 594 1153 
L 594 3053 
L 172 3053 
L 172 3500 
L 594 3500 
L 594 4494 
L 1172 4494 
z
" transform="scale(0.015625)"/>
       <path id="DejaVuSans-79" d="M 2059 -325 
Q 1816 -950 1584 -1140 
Q 1353 -1331 966 -1331 
L 506 -1331 
L 506 -850 
L 844 -850 
Q 1081 -850 1212 -737 
Q 1344 -625 1503 -206 
L 1606 56 
L 191 3500 
L 800 3500 
L 1894 763 
L 2988 3500 
L 3597 3500 
L 2059 -325 
z
" transform="scale(0.015625)"/>
      </defs>
      <use xlink:href="#DejaVuSans-44"/>
      <use xlink:href="#DejaVuSans-65" x="77.001953"/>
      <use xlink:href="#DejaVuSans-6e" x="138.525391"/>
      <use xlink:href="#DejaVuSans-73" x="201.904297"/>
      <use xlink:href="#DejaVuSans-69" x="254.003906"/>
      <use xlink:href="#DejaVuSans-74" x="281.787109"/>
      <use xlink:href="#DejaVuSans-79" x="320.996094"/>
     </g>
    </g>
   </g>
   <g id="line2d_16">
    <path d="M 67.661932 325.667426 
L 87.896444 325.552581 
L 93.36239 325.30286 
L 97.006354 324.922774 
L 99.826922 324.411457 
L 102.174476 323.765067 
L 104.224205 322.973854 
L 106.081226 322.019729 
L 107.798093 320.887498 
L 109.427366 319.544317 
L 110.986562 317.969455 
L 112.51072 316.112671 
L 114.034878 313.897493 
L 115.559036 311.278116 
L 117.083194 308.20849 
L 118.64239 304.555691 
L 120.236624 300.238581 
L 121.883416 295.117057 
L 123.582764 289.088912 
L 125.369708 281.909264 
L 127.261766 273.362175 
L 129.311496 263.038924 
L 131.588974 250.380811 
L 134.286909 234.061129 
L 138.509001 206.927182 
L 142.450789 182.111188 
L 144.745786 169.034055 
L 146.585287 159.765677 
L 148.162002 152.908681 
L 149.528489 147.90563 
L 150.737304 144.281435 
L 151.805966 141.746626 
L 152.734476 140.077009 
L 153.557872 139.022842 
L 154.276153 138.436413 
L 154.924359 138.176341 
L 155.537526 138.166376 
L 156.150693 138.385948 
L 156.798898 138.866743 
L 157.517179 139.695639 
L 158.323056 140.991084 
L 159.216528 142.869402 
L 160.232633 145.552401 
L 161.371372 149.218932 
L 162.667782 154.186087 
L 164.139383 160.752389 
L 165.838732 169.398872 
L 167.888461 181.045365 
L 170.603915 197.861086 
L 178.750277 249.128411 
L 181.150388 262.38061 
L 183.252675 272.78689 
L 185.162252 281.15527 
L 186.931677 287.939236 
L 188.578469 293.396963 
L 190.102627 297.710959 
L 191.539189 301.133164 
L 192.870638 303.754136 
L 194.114491 305.730726 
L 195.270749 307.164774 
L 196.339411 308.148565 
L 197.337997 308.773859 
L 198.266508 309.101972 
L 199.159979 309.188021 
L 200.053451 309.049006 
L 200.964442 308.675213 
L 201.910472 308.038126 
L 202.909058 307.088836 
L 203.97772 305.755341 
L 205.116459 303.96916 
L 206.342793 301.618843 
L 207.656722 298.602976 
L 209.058247 294.811482 
L 210.564886 290.068171 
L 212.176639 284.227061 
L 213.893507 277.142907 
L 215.750527 268.511551 
L 217.800257 257.892742 
L 220.130292 244.603513 
L 223.038455 226.640798 
L 231.30745 174.72966 
L 233.339661 163.838506 
L 235.03901 155.890585 
L 236.493092 150.095842 
L 237.771983 145.862131 
L 238.893202 142.869292 
L 239.891789 140.8003 
L 240.767742 139.464763 
L 241.53858 138.668551 
L 242.221823 138.26348 
L 242.85251 138.142083 
L 243.448157 138.250486 
L 244.078844 138.601019 
L 244.762087 139.252819 
L 245.515406 140.295894 
L 246.356321 141.855192 
L 247.30235 144.094391 
L 248.371013 147.217954 
L 249.579828 151.469287 
L 250.946314 157.122029 
L 252.523029 164.638265 
L 254.38005 174.637853 
L 256.675046 188.288512 
L 260.196377 210.760886 
L 265.136751 242.072012 
L 267.782129 257.379894 
L 270.024568 269.099769 
L 272.056779 278.571445 
L 273.931318 286.27682 
L 275.683224 292.565997 
L 277.330015 297.680105 
L 278.889211 301.82664 
L 280.378331 305.176663 
L 281.797375 307.836482 
L 283.146342 309.903638 
L 284.425234 311.465962 
L 285.634049 312.601618 
L 286.790306 313.389534 
L 287.894007 313.878846 
L 288.96267 314.115519 
L 290.031332 314.125221 
L 291.099995 313.913364 
L 292.203695 313.466903 
L 293.359953 312.755741 
L 294.586287 311.733941 
L 295.900216 310.33851 
L 297.301741 308.512968 
L 298.80838 306.169943 
L 300.420133 303.238061 
L 302.172039 299.571227 
L 304.081616 295.038279 
L 306.201422 289.413978 
L 308.67161 282.202881 
L 311.982711 271.788362 
L 317.939191 252.983372 
L 320.216669 246.594835 
L 322.05617 242.061212 
L 323.650404 238.699726 
L 325.03441 236.273604 
L 326.278263 234.521684 
L 327.399482 233.312672 
L 328.415588 232.533105 
L 329.344098 232.09056 
L 330.220051 231.912805 
L 331.078484 231.965783 
L 331.936918 232.243279 
L 332.83039 232.768396 
L 333.793938 233.600135 
L 334.845082 234.812966 
L 336.00134 236.500147 
L 337.29775 238.805703 
L 338.751832 241.868574 
L 340.416142 245.91907 
L 342.378277 251.310613 
L 344.865983 258.841567 
L 349.438457 273.564372 
L 353.222573 285.391754 
L 355.850432 292.898076 
L 358.12791 298.756322 
L 360.212678 303.526386 
L 362.174812 307.477534 
L 364.049351 310.767503 
L 365.871333 313.527917 
L 367.658277 315.841683 
L 369.445221 317.796796 
L 371.232165 319.42817 
L 373.071666 320.808212 
L 374.981243 321.962385 
L 376.995935 322.919941 
L 379.185817 323.711927 
L 381.620966 324.352062 
L 384.424015 324.853898 
L 387.822713 325.228594 
L 392.272553 325.482895 
L 399.03491 325.624093 
L 414.731985 325.667242 
L 418.025568 325.667774 
L 418.025568 325.667774 
" clip-path="url(#pfc39d03afa)" style="fill: none; stroke: #1f77b4; stroke-width: 1.5; stroke-linecap: square"/>
   </g>
   <g id="patch_3">
    <path d="M 50.14375 325.668125 
L 50.14375 22.318125 
" style="fill: none; stroke: #000000; stroke-width: 0.8; stroke-linejoin: miter; stroke-linecap: square"/>
   </g>
   <g id="patch_4">
    <path d="M 435.54375 325.668125 
L 435.54375 22.318125 
" style="fill: none; stroke: #000000; stroke-width: 0.8; stroke-linejoin: miter; stroke-linecap: square"/>
   </g>
   <g id="patch_5">
    <path d="M 50.14375 325.668125 
L 435.54375 325.668125 
" style="fill: none; stroke: #000000; stroke-width: 0.8; stroke-linejoin: miter; stroke-linecap: square"/>
   </g>
   <g id="patch_6">
    <path d="M 50.14375 22.318125 
L 435.54375 22.318125 
" style="fill: none; stroke: #000000; stroke-width: 0.8; stroke-linejoin: miter; stroke-linecap: square"/>
   </g>
   <g id="text_9">
    <!-- Mixture PDF -->
    <g transform="translate(206.675 16.318125) scale(0.12 -0.12)">
     <defs>
      <path id="DejaVuSans-4d" d="M 628 4666 
L 1569 4666 
L 2759 1491 
L 3956 4666 
L 4897 4666 
L 4897 0 
L 4281 0 
L 4281 4097 
L 3078 897 
L 2444 897 
L 1241 4097 
L 1241 0 
L 628 0 
L 628 4666 
z
" transform="scale(0.015625)"/>
      <path id="DejaVuSans-75" d="M 544 1381 
L 544 3500 
L 1119 3500 
L 1119 1403 
Q 1119 906 1312 657 
Q 1506 409 1894 409 
Q 2359 409 2629 706 
Q 2900 1003 2900 1516 
L 2900 3500 
L 3475 3500 
L 3475 0 
L 2900 0 
L 2900 538 
Q 2691 219 2414 64 
Q 2138 -91 1772 -91 
Q 1169 -91 856 284 
Q 544 659 544 1381 
z
M 1991 3584 
L 1991 3584 
z
" transform="scale(0.015625)"/>
      <path id="DejaVuSans-72" d="M 2631 2963 
Q 2534 3019 2420 3045 
Q 2306 3072 2169 3072 
Q 1681 3072 1420 2755 
Q 1159 2438 1159 1844 
L 1159 0 
L 581 0 
L 581 3500 
L 1159 3500 
L 1159 2956 
Q 1341 3275 1631 3429 
Q 1922 3584 2338 3584 
Q 2397 3584 2469 3576 
Q 2541 3569 2628 3553 
L 2631 2963 
z
" transform="scale(0.015625)"/>
      <path id="DejaVuSans-20" transform="scale(0.015625)"/>
      <path id="DejaVuSans-50" d="M 1259 4147 
L 1259 2394 
L 2053 2394 
Q 2494 2394 2734 2622 
Q 2975 2850 2975 3272 
Q 2975 3691 2734 3919 
Q 2494 4147 2053 4147 
L 1259 4147 
z
M 628 4666 
L 2053 4666 
Q 2838 4666 3239 4311 
Q 3641 3956 3641 3272 
Q 3641 2581 3239 2228 
Q 2838 1875 2053 1875 
L 1259 1875 
L 1259 0 
L 628 0 
L 628 4666 
z
" transform="scale(0.015625)"/>
      <path id="DejaVuSans-46" d="M 628 4666 
L 3309 4666 
L 3309 4134 
L 1259 4134 
L 1259 2759 
L 3109 2759 
L 3109 2228 
L 1259 2228 
L 1259 0 
L 628 0 
L 628 4666 
z
" transform="scale(0.015625)"/>
     </defs>
     <use xlink:href="#DejaVuSans-4d"/>
     <use xlink:href="#DejaVuSans-69" x="86.279297"/>
     <use xlink:href="#DejaVuSans-78" x="114.0625"/>
     <use xlink:href="#DejaVuSans-74" x="173.242188"/>
     <use xlink:href="#DejaVuSans-75" x="212.451172"/>
     <use xlink:href="#DejaVuSans-72" x="275.830078"/>
     <use xlink:href="#DejaVuSans-65" x="314.693359"/>
     <use xlink:href="#DejaVuSans-20" x="376.216797"/>
     <use xlink:href="#DejaVuSans-50" x="408.003906"/>
     <use xlink:href="#DejaVuSans-44" x="468.306641"/>
     <use xlink:href="#DejaVuSans-46" x="545.308594"/>
    </g>
   </g>
   <g id="legend_1">
    <g id="patch_7">
     <path d="M 336.2625 44.99625 
L 428.54375 44.99625 
Q 430.54375 44.99625 430.54375 42.99625 
L 430.54375 29.318125 
Q 430.54375 27.318125 428.54375 27.318125 
L 336.2625 27.318125 
Q 334.2625 27.318125 334.2625 29.318125 
L 334.2625 42.99625 
Q 334.2625 44.99625 336.2625 44.99625 
z
" style="fill: #ffffff; opacity: 0.8; stroke: #cccccc; stroke-linejoin: miter"/>
    </g>
    <g id="line2d_17">
     <path d="M 338.2625 35.416562 
L 348.2625 35.416562 
L 358.2625 35.416562 
" style="fill: none; stroke: #1f77b4; stroke-width: 1.5; stroke-linecap: square"/>
    </g>
    <g id="text_10">
     <!-- Mixture PDF -->
     <g transform="translate(366.2625 38.916562) scale(0.1 -0.1)">
      <use xlink:href="#DejaVuSans-4d"/>
      <use xlink:href="#DejaVuSans-69" x="86.279297"/>
      <use xlink:href="#DejaVuSans-78" x="114.0625"/>
      <use xlink:href="#DejaVuSans-74" x="173.242188"/>
      <use xlink:href="#DejaVuSans-75" x="212.451172"/>
      <use xlink:href="#DejaVuSans-72" x="275.830078"/>
      <use xlink:href="#DejaVuSans-65" x="314.693359"/>
      <use xlink:href="#DejaVuSans-20" x="376.216797"/>
      <use xlink:href="#DejaVuSans-50" x="408.003906"/>
      <use xlink:href="#DejaVuSans-44" x="468.306641"/>
      <use xlink:href="#DejaVuSans-46" x="545.308594"/>
     </g>
    </g>
   </g>
  </g>
  <g id="axes_2">
   <g id="patch_8">
    <path d="M 463.92375 325.668125 
L 849.32375 325.668125 
L 849.32375 22.318125 
L 463.92375 22.318125 
z
" style="fill: #ffffff"/>
   </g>
   <g id="patch_9">
    <path d="M 521.988612 325.668125 
L 530.539798 325.668125 
L 530.539798 301.592728 
L 521.988612 301.592728 
z
" clip-path="url(#p64f4c0ece6)" style="fill: #1f77b4; opacity: 0.5"/>
   </g>
   <g id="patch_10">
    <path d="M 530.539798 325.668125 
L 539.090985 325.668125 
L 539.090985 277.517331 
L 530.539798 277.517331 
z
" clip-path="url(#p64f4c0ece6)" style="fill: #1f77b4; opacity: 0.5"/>
   </g>
   <g id="patch_11">
    <path d="M 539.090985 325.668125 
L 547.642172 325.668125 
L 547.642172 253.441935 
L 539.090985 253.441935 
z
" clip-path="url(#p64f4c0ece6)" style="fill: #1f77b4; opacity: 0.5"/>
   </g>
   <g id="patch_12">
    <path d="M 547.642172 325.668125 
L 556.193359 325.668125 
L 556.193359 277.517331 
L 547.642172 277.517331 
z
" clip-path="url(#p64f4c0ece6)" style="fill: #1f77b4; opacity: 0.5"/>
   </g>
   <g id="patch_13">
    <path d="M 556.193359 325.668125 
L 564.744546 325.668125 
L 564.744546 133.06495 
L 556.193359 133.06495 
z
" clip-path="url(#p64f4c0ece6)" style="fill: #1f77b4; opacity: 0.5"/>
   </g>
   <g id="patch_14">
    <path d="M 564.744546 325.668125 
L 573.295732 325.668125 
L 573.295732 108.989554 
L 564.744546 108.989554 
z
" clip-path="url(#p64f4c0ece6)" style="fill: #1f77b4; opacity: 0.5"/>
   </g>
   <g id="patch_15">
    <path d="M 573.295732 325.668125 
L 581.846919 325.668125 
L 581.846919 205.291141 
L 573.295732 205.291141 
z
" clip-path="url(#p64f4c0ece6)" style="fill: #1f77b4; opacity: 0.5"/>
   </g>
   <g id="patch_16">
    <path d="M 581.846919 325.668125 
L 590.398106 325.668125 
L 590.398106 301.592728 
L 581.846919 301.592728 
z
" clip-path="url(#p64f4c0ece6)" style="fill: #1f77b4; opacity: 0.5"/>
   </g>
   <g id="patch_17">
    <path d="M 590.398106 325.668125 
L 598.949293 325.668125 
L 598.949293 229.366538 
L 590.398106 229.366538 
z
" clip-path="url(#p64f4c0ece6)" style="fill: #1f77b4; opacity: 0.5"/>
   </g>
   <g id="patch_18">
    <path d="M 598.949293 325.668125 
L 607.50048 325.668125 
L 607.50048 301.592728 
L 598.949293 301.592728 
z
" clip-path="url(#p64f4c0ece6)" style="fill: #1f77b4; opacity: 0.5"/>
   </g>
   <g id="patch_19">
    <path d="M 607.50048 325.668125 
L 616.051666 325.668125 
L 616.051666 325.668125 
L 607.50048 325.668125 
z
" clip-path="url(#p64f4c0ece6)" style="fill: #1f77b4; opacity: 0.5"/>
   </g>
   <g id="patch_20">
    <path d="M 616.051666 325.668125 
L 624.602853 325.668125 
L 624.602853 253.441935 
L 616.051666 253.441935 
z
" clip-path="url(#p64f4c0ece6)" style="fill: #1f77b4; opacity: 0.5"/>
   </g>
   <g id="patch_21">
    <path d="M 624.602853 325.668125 
L 633.15404 325.668125 
L 633.15404 301.592728 
L 624.602853 301.592728 
z
" clip-path="url(#p64f4c0ece6)" style="fill: #1f77b4; opacity: 0.5"/>
   </g>
   <g id="patch_22">
    <path d="M 633.15404 325.668125 
L 641.705227 325.668125 
L 641.705227 277.517331 
L 633.15404 277.517331 
z
" clip-path="url(#p64f4c0ece6)" style="fill: #1f77b4; opacity: 0.5"/>
   </g>
   <g id="patch_23">
    <path d="M 641.705227 325.668125 
L 650.256413 325.668125 
L 650.256413 205.291141 
L 641.705227 205.291141 
z
" clip-path="url(#p64f4c0ece6)" style="fill: #1f77b4; opacity: 0.5"/>
   </g>
   <g id="patch_24">
    <path d="M 650.256413 325.668125 
L 658.8076 325.668125 
L 658.8076 36.763363 
L 650.256413 36.763363 
z
" clip-path="url(#p64f4c0ece6)" style="fill: #1f77b4; opacity: 0.5"/>
   </g>
   <g id="patch_25">
    <path d="M 658.8076 325.668125 
L 667.358787 325.668125 
L 667.358787 157.140347 
L 658.8076 157.140347 
z
" clip-path="url(#p64f4c0ece6)" style="fill: #1f77b4; opacity: 0.5"/>
   </g>
   <g id="patch_26">
    <path d="M 667.358787 325.668125 
L 675.909974 325.668125 
L 675.909974 205.291141 
L 667.358787 205.291141 
z
" clip-path="url(#p64f4c0ece6)" style="fill: #1f77b4; opacity: 0.5"/>
   </g>
   <g id="patch_27">
    <path d="M 675.909974 325.668125 
L 684.461161 325.668125 
L 684.461161 253.441935 
L 675.909974 253.441935 
z
" clip-path="url(#p64f4c0ece6)" style="fill: #1f77b4; opacity: 0.5"/>
   </g>
   <g id="patch_28">
    <path d="M 684.461161 325.668125 
L 693.012347 325.668125 
L 693.012347 325.668125 
L 684.461161 325.668125 
z
" clip-path="url(#p64f4c0ece6)" style="fill: #1f77b4; opacity: 0.5"/>
   </g>
   <g id="patch_29">
    <path d="M 693.012347 325.668125 
L 701.563534 325.668125 
L 701.563534 301.592728 
L 693.012347 301.592728 
z
" clip-path="url(#p64f4c0ece6)" style="fill: #1f77b4; opacity: 0.5"/>
   </g>
   <g id="patch_30">
    <path d="M 701.563534 325.668125 
L 710.114721 325.668125 
L 710.114721 301.592728 
L 701.563534 301.592728 
z
" clip-path="url(#p64f4c0ece6)" style="fill: #1f77b4; opacity: 0.5"/>
   </g>
   <g id="patch_31">
    <path d="M 710.114721 325.668125 
L 718.665908 325.668125 
L 718.665908 277.517331 
L 710.114721 277.517331 
z
" clip-path="url(#p64f4c0ece6)" style="fill: #1f77b4; opacity: 0.5"/>
   </g>
   <g id="patch_32">
    <path d="M 718.665908 325.668125 
L 727.217095 325.668125 
L 727.217095 253.441935 
L 718.665908 253.441935 
z
" clip-path="url(#p64f4c0ece6)" style="fill: #1f77b4; opacity: 0.5"/>
   </g>
   <g id="patch_33">
    <path d="M 727.217095 325.668125 
L 735.768281 325.668125 
L 735.768281 253.441935 
L 727.217095 253.441935 
z
" clip-path="url(#p64f4c0ece6)" style="fill: #1f77b4; opacity: 0.5"/>
   </g>
   <g id="patch_34">
    <path d="M 735.768281 325.668125 
L 744.319468 325.668125 
L 744.319468 229.366538 
L 735.768281 229.366538 
z
" clip-path="url(#p64f4c0ece6)" style="fill: #1f77b4; opacity: 0.5"/>
   </g>
   <g id="patch_35">
    <path d="M 744.319468 325.668125 
L 752.870655 325.668125 
L 752.870655 181.215744 
L 744.319468 181.215744 
z
" clip-path="url(#p64f4c0ece6)" style="fill: #1f77b4; opacity: 0.5"/>
   </g>
   <g id="patch_36">
    <path d="M 752.870655 325.668125 
L 761.421842 325.668125 
L 761.421842 253.441935 
L 752.870655 253.441935 
z
" clip-path="url(#p64f4c0ece6)" style="fill: #1f77b4; opacity: 0.5"/>
   </g>
   <g id="patch_37">
    <path d="M 761.421842 325.668125 
L 769.973029 325.668125 
L 769.973029 301.592728 
L 761.421842 301.592728 
z
" clip-path="url(#p64f4c0ece6)" style="fill: #1f77b4; opacity: 0.5"/>
   </g>
   <g id="patch_38">
    <path d="M 769.973029 325.668125 
L 778.524215 325.668125 
L 778.524215 277.517331 
L 769.973029 277.517331 
z
" clip-path="url(#p64f4c0ece6)" style="fill: #1f77b4; opacity: 0.5"/>
   </g>
   <g id="matplotlib.axis_3">
    <g id="xtick_10">
     <g id="line2d_18">
      <g>
       <use xlink:href="#m16f0f0c1c6" x="481.441932" y="325.668125" style="stroke: #000000; stroke-width: 0.8"/>
      </g>
     </g>
    </g>
    <g id="xtick_11">
     <g id="line2d_19">
      <g>
       <use xlink:href="#m16f0f0c1c6" x="525.239576" y="325.668125" style="stroke: #000000; stroke-width: 0.8"/>
      </g>
     </g>
    </g>
    <g id="xtick_12">
     <g id="line2d_20">
      <g>
       <use xlink:href="#m16f0f0c1c6" x="569.037221" y="325.668125" style="stroke: #000000; stroke-width: 0.8"/>
      </g>
     </g>
    </g>
    <g id="xtick_13">
     <g id="line2d_21">
      <g>
       <use xlink:href="#m16f0f0c1c6" x="612.834865" y="325.668125" style="stroke: #000000; stroke-width: 0.8"/>
      </g>
     </g>
    </g>
    <g id="xtick_14">
     <g id="line2d_22">
      <g>
       <use xlink:href="#m16f0f0c1c6" x="656.63251" y="325.668125" style="stroke: #000000; stroke-width: 0.8"/>
      </g>
     </g>
    </g>
    <g id="xtick_15">
     <g id="line2d_23">
      <g>
       <use xlink:href="#m16f0f0c1c6" x="700.430154" y="325.668125" style="stroke: #000000; stroke-width: 0.8"/>
      </g>
     </g>
    </g>
    <g id="xtick_16">
     <g id="line2d_24">
      <g>
       <use xlink:href="#m16f0f0c1c6" x="744.227798" y="325.668125" style="stroke: #000000; stroke-width: 0.8"/>
      </g>
     </g>
    </g>
    <g id="xtick_17">
     <g id="line2d_25">
      <g>
       <use xlink:href="#m16f0f0c1c6" x="788.025443" y="325.668125" style="stroke: #000000; stroke-width: 0.8"/>
      </g>
     </g>
    </g>
    <g id="xtick_18">
     <g id="line2d_26">
      <g>
       <use xlink:href="#m16f0f0c1c6" x="831.823087" y="325.668125" style="stroke: #000000; stroke-width: 0.8"/>
      </g>
     </g>
    </g>
    <g id="text_11">
     <!-- X-axis -->
     <g transform="translate(641.627656 340.766562) scale(0.1 -0.1)">
      <use xlink:href="#DejaVuSans-58"/>
      <use xlink:href="#DejaVuSans-2d" x="63.505859"/>
      <use xlink:href="#DejaVuSans-61" x="99.589844"/>
      <use xlink:href="#DejaVuSans-78" x="160.869141"/>
      <use xlink:href="#DejaVuSans-69" x="220.048828"/>
      <use xlink:href="#DejaVuSans-73" x="247.832031"/>
     </g>
    </g>
   </g>
   <g id="matplotlib.axis_4">
    <g id="ytick_7">
     <g id="line2d_27">
      <g>
       <use xlink:href="#mdf2cc91a9f" x="463.92375" y="325.668125" style="stroke: #000000; stroke-width: 0.8"/>
      </g>
     </g>
    </g>
    <g id="ytick_8">
     <g id="line2d_28">
      <g>
       <use xlink:href="#mdf2cc91a9f" x="463.92375" y="266.911194" style="stroke: #000000; stroke-width: 0.8"/>
      </g>
     </g>
    </g>
    <g id="ytick_9">
     <g id="line2d_29">
      <g>
       <use xlink:href="#mdf2cc91a9f" x="463.92375" y="208.154262" style="stroke: #000000; stroke-width: 0.8"/>
      </g>
     </g>
    </g>
    <g id="ytick_10">
     <g id="line2d_30">
      <g>
       <use xlink:href="#mdf2cc91a9f" x="463.92375" y="149.397331" style="stroke: #000000; stroke-width: 0.8"/>
      </g>
     </g>
    </g>
    <g id="ytick_11">
     <g id="line2d_31">
      <g>
       <use xlink:href="#mdf2cc91a9f" x="463.92375" y="90.640399" style="stroke: #000000; stroke-width: 0.8"/>
      </g>
     </g>
    </g>
    <g id="ytick_12">
     <g id="line2d_32">
      <g>
       <use xlink:href="#mdf2cc91a9f" x="463.92375" y="31.883468" style="stroke: #000000; stroke-width: 0.8"/>
      </g>
     </g>
    </g>
    <g id="text_12">
     <!-- Density -->
     <g transform="translate(454.344062 193.001719) rotate(-90) scale(0.1 -0.1)">
      <use xlink:href="#DejaVuSans-44"/>
      <use xlink:href="#DejaVuSans-65" x="77.001953"/>
      <use xlink:href="#DejaVuSans-6e" x="138.525391"/>
      <use xlink:href="#DejaVuSans-73" x="201.904297"/>
      <use xlink:href="#DejaVuSans-69" x="254.003906"/>
      <use xlink:href="#DejaVuSans-74" x="281.787109"/>
      <use xlink:href="#DejaVuSans-79" x="320.996094"/>
     </g>
    </g>
   </g>
   <g id="line2d_33">
    <path d="M 481.441932 325.667426 
L 501.676444 325.552581 
L 507.14239 325.30286 
L 510.786354 324.922774 
L 513.606922 324.411457 
L 515.954476 323.765067 
L 518.004205 322.973854 
L 519.861226 322.019729 
L 521.578093 320.887498 
L 523.207366 319.544317 
L 524.766562 317.969455 
L 526.29072 316.112671 
L 527.814878 313.897493 
L 529.339036 311.278116 
L 530.863194 308.20849 
L 532.42239 304.555691 
L 534.016624 300.238581 
L 535.663416 295.117057 
L 537.362764 289.088912 
L 539.149708 281.909264 
L 541.041766 273.362175 
L 543.091496 263.038924 
L 545.368974 250.380811 
L 548.066909 234.061129 
L 552.289001 206.927182 
L 556.230789 182.111188 
L 558.525786 169.034055 
L 560.365287 159.765677 
L 561.942002 152.908681 
L 563.308489 147.90563 
L 564.517304 144.281435 
L 565.585966 141.746626 
L 566.514476 140.077009 
L 567.337872 139.022842 
L 568.056153 138.436413 
L 568.704359 138.176341 
L 569.317526 138.166376 
L 569.930693 138.385948 
L 570.578898 138.866743 
L 571.297179 139.695639 
L 572.103056 140.991084 
L 572.996528 142.869402 
L 574.012633 145.552401 
L 575.151372 149.218932 
L 576.447782 154.186087 
L 577.919383 160.752389 
L 579.618732 169.398872 
L 581.668461 181.045365 
L 584.383915 197.861086 
L 592.530277 249.128411 
L 594.930388 262.38061 
L 597.032675 272.78689 
L 598.942252 281.15527 
L 600.711677 287.939236 
L 602.358469 293.396963 
L 603.882627 297.710959 
L 605.319189 301.133164 
L 606.650638 303.754136 
L 607.894491 305.730726 
L 609.050749 307.164774 
L 610.119411 308.148565 
L 611.117997 308.773859 
L 612.046508 309.101972 
L 612.939979 309.188021 
L 613.833451 309.049006 
L 614.744442 308.675213 
L 615.690472 308.038126 
L 616.689058 307.088836 
L 617.75772 305.755341 
L 618.896459 303.96916 
L 620.122793 301.618843 
L 621.436722 298.602976 
L 622.838247 294.811482 
L 624.344886 290.068171 
L 625.956639 284.227061 
L 627.673507 277.142907 
L 629.530527 268.511551 
L 631.580257 257.892742 
L 633.910292 244.603513 
L 636.818455 226.640798 
L 645.08745 174.72966 
L 647.119661 163.838506 
L 648.81901 155.890585 
L 650.273092 150.095842 
L 651.551983 145.862131 
L 652.673202 142.869292 
L 653.671789 140.8003 
L 654.547742 139.464763 
L 655.31858 138.668551 
L 656.001823 138.26348 
L 656.63251 138.142083 
L 657.228157 138.250486 
L 657.858844 138.601019 
L 658.542087 139.252819 
L 659.295406 140.295894 
L 660.136321 141.855192 
L 661.08235 144.094391 
L 662.151013 147.217954 
L 663.359828 151.469287 
L 664.726314 157.122029 
L 666.303029 164.638265 
L 668.16005 174.637853 
L 670.455046 188.288512 
L 673.976377 210.760886 
L 678.916751 242.072012 
L 681.562129 257.379894 
L 683.804568 269.099769 
L 685.836779 278.571445 
L 687.711318 286.27682 
L 689.463224 292.565997 
L 691.110015 297.680105 
L 692.669211 301.82664 
L 694.158331 305.176663 
L 695.577375 307.836482 
L 696.926342 309.903638 
L 698.205234 311.465962 
L 699.414049 312.601618 
L 700.570306 313.389534 
L 701.674007 313.878846 
L 702.74267 314.115519 
L 703.811332 314.125221 
L 704.879995 313.913364 
L 705.983695 313.466903 
L 707.139953 312.755741 
L 708.366287 311.733941 
L 709.680216 310.33851 
L 711.081741 308.512968 
L 712.58838 306.169943 
L 714.200133 303.238061 
L 715.952039 299.571227 
L 717.861616 295.038279 
L 719.981422 289.413978 
L 722.45161 282.202881 
L 725.762711 271.788362 
L 731.719191 252.983372 
L 733.996669 246.594835 
L 735.83617 242.061212 
L 737.430404 238.699726 
L 738.81441 236.273604 
L 740.058263 234.521684 
L 741.179482 233.312672 
L 742.195588 232.533105 
L 743.124098 232.09056 
L 744.000051 231.912805 
L 744.858484 231.965783 
L 745.716918 232.243279 
L 746.61039 232.768396 
L 747.573938 233.600135 
L 748.625082 234.812966 
L 749.78134 236.500147 
L 751.07775 238.805703 
L 752.531832 241.868574 
L 754.196142 245.91907 
L 756.158277 251.310613 
L 758.645983 258.841567 
L 763.218457 273.564372 
L 767.002573 285.391754 
L 769.630432 292.898076 
L 771.90791 298.756322 
L 773.992678 303.526386 
L 775.954812 307.477534 
L 777.829351 310.767503 
L 779.651333 313.527917 
L 781.438277 315.841683 
L 783.225221 317.796796 
L 785.012165 319.42817 
L 786.851666 320.808212 
L 788.761243 321.962385 
L 790.775935 322.919941 
L 792.965817 323.711927 
L 795.400966 324.352062 
L 798.204015 324.853898 
L 801.602713 325.228594 
L 806.052553 325.482895 
L 812.81491 325.624093 
L 828.511985 325.667242 
L 831.805568 325.667774 
L 831.805568 325.667774 
" clip-path="url(#p64f4c0ece6)" style="fill: none; stroke: #ff7f0e; stroke-width: 1.5; stroke-linecap: square"/>
   </g>
   <g id="patch_39">
    <path d="M 463.92375 325.668125 
L 463.92375 22.318125 
" style="fill: none; stroke: #000000; stroke-width: 0.8; stroke-linejoin: miter; stroke-linecap: square"/>
   </g>
   <g id="patch_40">
    <path d="M 849.32375 325.668125 
L 849.32375 22.318125 
" style="fill: none; stroke: #000000; stroke-width: 0.8; stroke-linejoin: miter; stroke-linecap: square"/>
   </g>
   <g id="patch_41">
    <path d="M 463.92375 325.668125 
L 849.32375 325.668125 
" style="fill: none; stroke: #000000; stroke-width: 0.8; stroke-linejoin: miter; stroke-linecap: square"/>
   </g>
   <g id="patch_42">
    <path d="M 463.92375 22.318125 
L 849.32375 22.318125 
" style="fill: none; stroke: #000000; stroke-width: 0.8; stroke-linejoin: miter; stroke-linecap: square"/>
   </g>
   <g id="text_13">
    <!-- Generated Samples (n = 100) -->
    <g transform="translate(566.575938 16.318125) scale(0.12 -0.12)">
     <defs>
      <path id="DejaVuSans-47" d="M 3809 666 
L 3809 1919 
L 2778 1919 
L 2778 2438 
L 4434 2438 
L 4434 434 
Q 4069 175 3628 42 
Q 3188 -91 2688 -91 
Q 1594 -91 976 548 
Q 359 1188 359 2328 
Q 359 3472 976 4111 
Q 1594 4750 2688 4750 
Q 3144 4750 3555 4637 
Q 3966 4525 4313 4306 
L 4313 3634 
Q 3963 3931 3569 4081 
Q 3175 4231 2741 4231 
Q 1884 4231 1454 3753 
Q 1025 3275 1025 2328 
Q 1025 1384 1454 906 
Q 1884 428 2741 428 
Q 3075 428 3337 486 
Q 3600 544 3809 666 
z
" transform="scale(0.015625)"/>
      <path id="DejaVuSans-64" d="M 2906 2969 
L 2906 4863 
L 3481 4863 
L 3481 0 
L 2906 0 
L 2906 525 
Q 2725 213 2448 61 
Q 2172 -91 1784 -91 
Q 1150 -91 751 415 
Q 353 922 353 1747 
Q 353 2572 751 3078 
Q 1150 3584 1784 3584 
Q 2172 3584 2448 3432 
Q 2725 3281 2906 2969 
z
M 947 1747 
Q 947 1113 1208 752 
Q 1469 391 1925 391 
Q 2381 391 2643 752 
Q 2906 1113 2906 1747 
Q 2906 2381 2643 2742 
Q 2381 3103 1925 3103 
Q 1469 3103 1208 2742 
Q 947 2381 947 1747 
z
" transform="scale(0.015625)"/>
      <path id="DejaVuSans-53" d="M 3425 4513 
L 3425 3897 
Q 3066 4069 2747 4153 
Q 2428 4238 2131 4238 
Q 1616 4238 1336 4038 
Q 1056 3838 1056 3469 
Q 1056 3159 1242 3001 
Q 1428 2844 1947 2747 
L 2328 2669 
Q 3034 2534 3370 2195 
Q 3706 1856 3706 1288 
Q 3706 609 3251 259 
Q 2797 -91 1919 -91 
Q 1588 -91 1214 -16 
Q 841 59 441 206 
L 441 856 
Q 825 641 1194 531 
Q 1563 422 1919 422 
Q 2459 422 2753 634 
Q 3047 847 3047 1241 
Q 3047 1584 2836 1778 
Q 2625 1972 2144 2069 
L 1759 2144 
Q 1053 2284 737 2584 
Q 422 2884 422 3419 
Q 422 4038 858 4394 
Q 1294 4750 2059 4750 
Q 2388 4750 2728 4690 
Q 3069 4631 3425 4513 
z
" transform="scale(0.015625)"/>
      <path id="DejaVuSans-6d" d="M 3328 2828 
Q 3544 3216 3844 3400 
Q 4144 3584 4550 3584 
Q 5097 3584 5394 3201 
Q 5691 2819 5691 2113 
L 5691 0 
L 5113 0 
L 5113 2094 
Q 5113 2597 4934 2840 
Q 4756 3084 4391 3084 
Q 3944 3084 3684 2787 
Q 3425 2491 3425 1978 
L 3425 0 
L 2847 0 
L 2847 2094 
Q 2847 2600 2669 2842 
Q 2491 3084 2119 3084 
Q 1678 3084 1418 2786 
Q 1159 2488 1159 1978 
L 1159 0 
L 581 0 
L 581 3500 
L 1159 3500 
L 1159 2956 
Q 1356 3278 1631 3431 
Q 1906 3584 2284 3584 
Q 2666 3584 2933 3390 
Q 3200 3197 3328 2828 
z
" transform="scale(0.015625)"/>
      <path id="DejaVuSans-70" d="M 1159 525 
L 1159 -1331 
L 581 -1331 
L 581 3500 
L 1159 3500 
L 1159 2969 
Q 1341 3281 1617 3432 
Q 1894 3584 2278 3584 
Q 2916 3584 3314 3078 
Q 3713 2572 3713 1747 
Q 3713 922 3314 415 
Q 2916 -91 2278 -91 
Q 1894 -91 1617 61 
Q 1341 213 1159 525 
z
M 3116 1747 
Q 3116 2381 2855 2742 
Q 2594 3103 2138 3103 
Q 1681 3103 1420 2742 
Q 1159 2381 1159 1747 
Q 1159 1113 1420 752 
Q 1681 391 2138 391 
Q 2594 391 2855 752 
Q 3116 1113 3116 1747 
z
" transform="scale(0.015625)"/>
      <path id="DejaVuSans-6c" d="M 603 4863 
L 1178 4863 
L 1178 0 
L 603 0 
L 603 4863 
z
" transform="scale(0.015625)"/>
      <path id="DejaVuSans-28" d="M 1984 4856 
Q 1566 4138 1362 3434 
Q 1159 2731 1159 2009 
Q 1159 1288 1364 580 
Q 1569 -128 1984 -844 
L 1484 -844 
Q 1016 -109 783 600 
Q 550 1309 550 2009 
Q 550 2706 781 3412 
Q 1013 4119 1484 4856 
L 1984 4856 
z
" transform="scale(0.015625)"/>
      <path id="DejaVuSans-3d" d="M 678 2906 
L 4684 2906 
L 4684 2381 
L 678 2381 
L 678 2906 
z
M 678 1631 
L 4684 1631 
L 4684 1100 
L 678 1100 
L 678 1631 
z
" transform="scale(0.015625)"/>
      <path id="DejaVuSans-29" d="M 513 4856 
L 1013 4856 
Q 1481 4119 1714 3412 
Q 1947 2706 1947 2009 
Q 1947 1309 1714 600 
Q 1481 -109 1013 -844 
L 513 -844 
Q 928 -128 1133 580 
Q 1338 1288 1338 2009 
Q 1338 2731 1133 3434 
Q 928 4138 513 4856 
z
" transform="scale(0.015625)"/>
     </defs>
     <use xlink:href="#DejaVuSans-47"/>
     <use xlink:href="#DejaVuSans-65" x="77.490234"/>
     <use xlink:href="#DejaVuSans-6e" x="139.013672"/>
     <use xlink:href="#DejaVuSans-65" x="202.392578"/>
     <use xlink:href="#DejaVuSans-72" x="263.916016"/>
     <use xlink:href="#DejaVuSans-61" x="305.029297"/>
     <use xlink:href="#DejaVuSans-74" x="366.308594"/>
     <use xlink:href="#DejaVuSans-65" x="405.517578"/>
     <use xlink:href="#DejaVuSans-64" x="467.041016"/>
     <use xlink:href="#DejaVuSans-20" x="530.517578"/>
     <use xlink:href="#DejaVuSans-53" x="562.304688"/>
     <use xlink:href="#DejaVuSans-61" x="625.78125"/>
     <use xlink:href="#DejaVuSans-6d" x="687.060547"/>
     <use xlink:href="#DejaVuSans-70" x="784.472656"/>
     <use xlink:href="#DejaVuSans-6c" x="847.949219"/>
     <use xlink:href="#DejaVuSans-65" x="875.732422"/>
     <use xlink:href="#DejaVuSans-73" x="937.255859"/>
     <use xlink:href="#DejaVuSans-20" x="989.355469"/>
     <use xlink:href="#DejaVuSans-28" x="1021.142578"/>
     <use xlink:href="#DejaVuSans-6e" x="1060.15625"/>
     <use xlink:href="#DejaVuSans-20" x="1123.535156"/>
     <use xlink:href="#DejaVuSans-3d" x="1155.322266"/>
     <use xlink:href="#DejaVuSans-20" x="1239.111328"/>
     <use xlink:href="#DejaVuSans-31" x="1270.898438"/>
     <use xlink:href="#DejaVuSans-30" x="1334.521484"/>
     <use xlink:href="#DejaVuSans-30" x="1398.144531"/>
     <use xlink:href="#DejaVuSans-29" x="1461.767578"/>
    </g>
   </g>
   <g id="legend_2">
    <g id="patch_43">
     <path d="M 750.0425 59.674375 
L 842.32375 59.674375 
Q 844.32375 59.674375 844.32375 57.674375 
L 844.32375 29.318125 
Q 844.32375 27.318125 842.32375 27.318125 
L 750.0425 27.318125 
Q 748.0425 27.318125 748.0425 29.318125 
L 748.0425 57.674375 
Q 748.0425 59.674375 750.0425 59.674375 
z
" style="fill: #ffffff; opacity: 0.8; stroke: #cccccc; stroke-linejoin: miter"/>
    </g>
    <g id="patch_44">
     <path d="M 752.0425 38.916562 
L 772.0425 38.916562 
L 772.0425 31.916562 
L 752.0425 31.916562 
z
" style="fill: #1f77b4; opacity: 0.5"/>
    </g>
    <g id="text_14">
     <!-- n = 100 -->
     <g transform="translate(780.0425 38.916562) scale(0.1 -0.1)">
      <use xlink:href="#DejaVuSans-6e"/>
      <use xlink:href="#DejaVuSans-20" x="63.378906"/>
      <use xlink:href="#DejaVuSans-3d" x="95.166016"/>
      <use xlink:href="#DejaVuSans-20" x="178.955078"/>
      <use xlink:href="#DejaVuSans-31" x="210.742188"/>
      <use xlink:href="#DejaVuSans-30" x="274.365234"/>
      <use xlink:href="#DejaVuSans-30" x="337.988281"/>
     </g>
    </g>
    <g id="line2d_34">
     <path d="M 752.0425 50.094687 
L 762.0425 50.094687 
L 772.0425 50.094687 
" style="fill: none; stroke: #ff7f0e; stroke-width: 1.5; stroke-linecap: square"/>
    </g>
    <g id="text_15">
     <!-- Mixture PDF -->
     <g transform="translate(780.0425 53.594687) scale(0.1 -0.1)">
      <use xlink:href="#DejaVuSans-4d"/>
      <use xlink:href="#DejaVuSans-69" x="86.279297"/>
      <use xlink:href="#DejaVuSans-78" x="114.0625"/>
      <use xlink:href="#DejaVuSans-74" x="173.242188"/>
      <use xlink:href="#DejaVuSans-75" x="212.451172"/>
      <use xlink:href="#DejaVuSans-72" x="275.830078"/>
      <use xlink:href="#DejaVuSans-65" x="314.693359"/>
      <use xlink:href="#DejaVuSans-20" x="376.216797"/>
      <use xlink:href="#DejaVuSans-50" x="408.003906"/>
      <use xlink:href="#DejaVuSans-44" x="468.306641"/>
      <use xlink:href="#DejaVuSans-46" x="545.308594"/>
     </g>
    </g>
   </g>
  </g>
  <g id="axes_3">
   <g id="patch_45">
    <path d="M 50.14375 673.478125 
L 435.54375 673.478125 
L 435.54375 370.128125 
L 50.14375 370.128125 
z
" style="fill: #ffffff"/>
   </g>
   <g id="patch_46">
    <path d="M 105.943623 673.478125 
L 114.901793 673.478125 
L 114.901793 668.881802 
L 105.943623 668.881802 
z
" clip-path="url(#p634ab1249b)" style="fill: #1f77b4; opacity: 0.5"/>
   </g>
   <g id="patch_47">
    <path d="M 114.901793 673.478125 
L 123.859962 673.478125 
L 123.859962 645.900185 
L 114.901793 645.900185 
z
" clip-path="url(#p634ab1249b)" style="fill: #1f77b4; opacity: 0.5"/>
   </g>
   <g id="patch_48">
    <path d="M 123.859962 673.478125 
L 132.818131 673.478125 
L 132.818131 613.725921 
L 123.859962 613.725921 
z
" clip-path="url(#p634ab1249b)" style="fill: #1f77b4; opacity: 0.5"/>
   </g>
   <g id="patch_49">
    <path d="M 132.818131 673.478125 
L 141.776301 673.478125 
L 141.776301 576.955335 
L 132.818131 576.955335 
z
" clip-path="url(#p634ab1249b)" style="fill: #1f77b4; opacity: 0.5"/>
   </g>
   <g id="patch_50">
    <path d="M 141.776301 673.478125 
L 150.73447 673.478125 
L 150.73447 489.625191 
L 141.776301 489.625191 
z
" clip-path="url(#p634ab1249b)" style="fill: #1f77b4; opacity: 0.5"/>
   </g>
   <g id="patch_51">
    <path d="M 150.73447 673.478125 
L 159.69264 673.478125 
L 159.69264 429.872987 
L 150.73447 429.872987 
z
" clip-path="url(#p634ab1249b)" style="fill: #1f77b4; opacity: 0.5"/>
   </g>
   <g id="patch_52">
    <path d="M 159.69264 673.478125 
L 168.650809 673.478125 
L 168.650809 471.239898 
L 159.69264 471.239898 
z
" clip-path="url(#p634ab1249b)" style="fill: #1f77b4; opacity: 0.5"/>
   </g>
   <g id="patch_53">
    <path d="M 168.650809 673.478125 
L 177.608978 673.478125 
L 177.608978 590.744305 
L 168.650809 590.744305 
z
" clip-path="url(#p634ab1249b)" style="fill: #1f77b4; opacity: 0.5"/>
   </g>
   <g id="patch_54">
    <path d="M 177.608978 673.478125 
L 186.567148 673.478125 
L 186.567148 627.514891 
L 177.608978 627.514891 
z
" clip-path="url(#p634ab1249b)" style="fill: #1f77b4; opacity: 0.5"/>
   </g>
   <g id="patch_55">
    <path d="M 186.567148 673.478125 
L 195.525317 673.478125 
L 195.525317 645.900185 
L 186.567148 645.900185 
z
" clip-path="url(#p634ab1249b)" style="fill: #1f77b4; opacity: 0.5"/>
   </g>
   <g id="patch_56">
    <path d="M 195.525317 673.478125 
L 204.483486 673.478125 
L 204.483486 641.303862 
L 195.525317 641.303862 
z
" clip-path="url(#p634ab1249b)" style="fill: #1f77b4; opacity: 0.5"/>
   </g>
   <g id="patch_57">
    <path d="M 204.483486 673.478125 
L 213.441656 673.478125 
L 213.441656 636.707538 
L 204.483486 636.707538 
z
" clip-path="url(#p634ab1249b)" style="fill: #1f77b4; opacity: 0.5"/>
   </g>
   <g id="patch_58">
    <path d="M 213.441656 673.478125 
L 222.399825 673.478125 
L 222.399825 622.918568 
L 213.441656 622.918568 
z
" clip-path="url(#p634ab1249b)" style="fill: #1f77b4; opacity: 0.5"/>
   </g>
   <g id="patch_59">
    <path d="M 222.399825 673.478125 
L 231.357994 673.478125 
L 231.357994 563.166365 
L 222.399825 563.166365 
z
" clip-path="url(#p634ab1249b)" style="fill: #1f77b4; opacity: 0.5"/>
   </g>
   <g id="patch_60">
    <path d="M 231.357994 673.478125 
L 240.316164 673.478125 
L 240.316164 535.588424 
L 231.357994 535.588424 
z
" clip-path="url(#p634ab1249b)" style="fill: #1f77b4; opacity: 0.5"/>
   </g>
   <g id="patch_61">
    <path d="M 240.316164 673.478125 
L 249.274333 673.478125 
L 249.274333 508.010484 
L 240.316164 508.010484 
z
" clip-path="url(#p634ab1249b)" style="fill: #1f77b4; opacity: 0.5"/>
   </g>
   <g id="patch_62">
    <path d="M 249.274333 673.478125 
L 258.232503 673.478125 
L 258.232503 512.606808 
L 249.274333 512.606808 
z
" clip-path="url(#p634ab1249b)" style="fill: #1f77b4; opacity: 0.5"/>
   </g>
   <g id="patch_63">
    <path d="M 258.232503 673.478125 
L 267.190672 673.478125 
L 267.190672 581.551658 
L 258.232503 581.551658 
z
" clip-path="url(#p634ab1249b)" style="fill: #1f77b4; opacity: 0.5"/>
   </g>
   <g id="patch_64">
    <path d="M 267.190672 673.478125 
L 276.148841 673.478125 
L 276.148841 604.533275 
L 267.190672 604.533275 
z
" clip-path="url(#p634ab1249b)" style="fill: #1f77b4; opacity: 0.5"/>
   </g>
   <g id="patch_65">
    <path d="M 276.148841 673.478125 
L 285.107011 673.478125 
L 285.107011 641.303862 
L 276.148841 641.303862 
z
" clip-path="url(#p634ab1249b)" style="fill: #1f77b4; opacity: 0.5"/>
   </g>
   <g id="patch_66">
    <path d="M 285.107011 673.478125 
L 294.06518 673.478125 
L 294.06518 655.092832 
L 285.107011 655.092832 
z
" clip-path="url(#p634ab1249b)" style="fill: #1f77b4; opacity: 0.5"/>
   </g>
   <g id="patch_67">
    <path d="M 294.06518 673.478125 
L 303.023349 673.478125 
L 303.023349 636.707538 
L 294.06518 636.707538 
z
" clip-path="url(#p634ab1249b)" style="fill: #1f77b4; opacity: 0.5"/>
   </g>
   <g id="patch_68">
    <path d="M 303.023349 673.478125 
L 311.981519 673.478125 
L 311.981519 636.707538 
L 303.023349 636.707538 
z
" clip-path="url(#p634ab1249b)" style="fill: #1f77b4; opacity: 0.5"/>
   </g>
   <g id="patch_69">
    <path d="M 311.981519 673.478125 
L 320.939688 673.478125 
L 320.939688 632.111215 
L 311.981519 632.111215 
z
" clip-path="url(#p634ab1249b)" style="fill: #1f77b4; opacity: 0.5"/>
   </g>
   <g id="patch_70">
    <path d="M 320.939688 673.478125 
L 329.897858 673.478125 
L 329.897858 586.147981 
L 320.939688 586.147981 
z
" clip-path="url(#p634ab1249b)" style="fill: #1f77b4; opacity: 0.5"/>
   </g>
   <g id="patch_71">
    <path d="M 329.897858 673.478125 
L 338.856027 673.478125 
L 338.856027 595.340628 
L 329.897858 595.340628 
z
" clip-path="url(#p634ab1249b)" style="fill: #1f77b4; opacity: 0.5"/>
   </g>
   <g id="patch_72">
    <path d="M 338.856027 673.478125 
L 347.814196 673.478125 
L 347.814196 609.129598 
L 338.856027 609.129598 
z
" clip-path="url(#p634ab1249b)" style="fill: #1f77b4; opacity: 0.5"/>
   </g>
   <g id="patch_73">
    <path d="M 347.814196 673.478125 
L 356.772366 673.478125 
L 356.772366 632.111215 
L 347.814196 632.111215 
z
" clip-path="url(#p634ab1249b)" style="fill: #1f77b4; opacity: 0.5"/>
   </g>
   <g id="patch_74">
    <path d="M 356.772366 673.478125 
L 365.730535 673.478125 
L 365.730535 655.092832 
L 356.772366 655.092832 
z
" clip-path="url(#p634ab1249b)" style="fill: #1f77b4; opacity: 0.5"/>
   </g>
   <g id="patch_75">
    <path d="M 365.730535 673.478125 
L 374.688704 673.478125 
L 374.688704 659.689155 
L 365.730535 659.689155 
z
" clip-path="url(#p634ab1249b)" style="fill: #1f77b4; opacity: 0.5"/>
   </g>
   <g id="matplotlib.axis_5">
    <g id="xtick_19">
     <g id="line2d_35">
      <g>
       <use xlink:href="#m16f0f0c1c6" x="67.661932" y="673.478125" style="stroke: #000000; stroke-width: 0.8"/>
      </g>
     </g>
     <g id="text_16">
      <!-- 5.0 -->
      <g transform="translate(55.520526 688.076562) scale(0.1 -0.1)">
       <defs>
        <path id="DejaVuSans-2212" d="M 678 2272 
L 4684 2272 
L 4684 1741 
L 678 1741 
L 678 2272 
z
" transform="scale(0.015625)"/>
       </defs>
       <use xlink:href="#DejaVuSans-2212"/>
       <use xlink:href="#DejaVuSans-35" x="83.789062"/>
       <use xlink:href="#DejaVuSans-2e" x="147.412109"/>
       <use xlink:href="#DejaVuSans-30" x="179.199219"/>
      </g>
     </g>
    </g>
    <g id="xtick_20">
     <g id="line2d_36">
      <g>
       <use xlink:href="#m16f0f0c1c6" x="111.459576" y="673.478125" style="stroke: #000000; stroke-width: 0.8"/>
      </g>
     </g>
     <g id="text_17">
      <!-- 2.5 -->
      <g transform="translate(99.31817 688.076562) scale(0.1 -0.1)">
       <use xlink:href="#DejaVuSans-2212"/>
       <use xlink:href="#DejaVuSans-32" x="83.789062"/>
       <use xlink:href="#DejaVuSans-2e" x="147.412109"/>
       <use xlink:href="#DejaVuSans-35" x="179.199219"/>
      </g>
     </g>
    </g>
    <g id="xtick_21">
     <g id="line2d_37">
      <g>
       <use xlink:href="#m16f0f0c1c6" x="155.257221" y="673.478125" style="stroke: #000000; stroke-width: 0.8"/>
      </g>
     </g>
     <g id="text_18">
      <!-- 0.0 -->
      <g transform="translate(147.305658 688.076562) scale(0.1 -0.1)">
       <use xlink:href="#DejaVuSans-30"/>
       <use xlink:href="#DejaVuSans-2e" x="63.623047"/>
       <use xlink:href="#DejaVuSans-30" x="95.410156"/>
      </g>
     </g>
    </g>
    <g id="xtick_22">
     <g id="line2d_38">
      <g>
       <use xlink:href="#m16f0f0c1c6" x="199.054865" y="673.478125" style="stroke: #000000; stroke-width: 0.8"/>
      </g>
     </g>
     <g id="text_19">
      <!-- 2.5 -->
      <g transform="translate(191.103303 688.076562) scale(0.1 -0.1)">
       <use xlink:href="#DejaVuSans-32"/>
       <use xlink:href="#DejaVuSans-2e" x="63.623047"/>
       <use xlink:href="#DejaVuSans-35" x="95.410156"/>
      </g>
     </g>
    </g>
    <g id="xtick_23">
     <g id="line2d_39">
      <g>
       <use xlink:href="#m16f0f0c1c6" x="242.85251" y="673.478125" style="stroke: #000000; stroke-width: 0.8"/>
      </g>
     </g>
     <g id="text_20">
      <!-- 5.0 -->
      <g transform="translate(234.900947 688.076562) scale(0.1 -0.1)">
       <use xlink:href="#DejaVuSans-35"/>
       <use xlink:href="#DejaVuSans-2e" x="63.623047"/>
       <use xlink:href="#DejaVuSans-30" x="95.410156"/>
      </g>
     </g>
    </g>
    <g id="xtick_24">
     <g id="line2d_40">
      <g>
       <use xlink:href="#m16f0f0c1c6" x="286.650154" y="673.478125" style="stroke: #000000; stroke-width: 0.8"/>
      </g>
     </g>
     <g id="text_21">
      <!-- 7.5 -->
      <g transform="translate(278.698591 688.076562) scale(0.1 -0.1)">
       <defs>
        <path id="DejaVuSans-37" d="M 525 4666 
L 3525 4666 
L 3525 4397 
L 1831 0 
L 1172 0 
L 2766 4134 
L 525 4134 
L 525 4666 
z
" transform="scale(0.015625)"/>
       </defs>
       <use xlink:href="#DejaVuSans-37"/>
       <use xlink:href="#DejaVuSans-2e" x="63.623047"/>
       <use xlink:href="#DejaVuSans-35" x="95.410156"/>
      </g>
     </g>
    </g>
    <g id="xtick_25">
     <g id="line2d_41">
      <g>
       <use xlink:href="#m16f0f0c1c6" x="330.447798" y="673.478125" style="stroke: #000000; stroke-width: 0.8"/>
      </g>
     </g>
     <g id="text_22">
      <!-- 10.0 -->
      <g transform="translate(319.314986 688.076562) scale(0.1 -0.1)">
       <use xlink:href="#DejaVuSans-31"/>
       <use xlink:href="#DejaVuSans-30" x="63.623047"/>
       <use xlink:href="#DejaVuSans-2e" x="127.246094"/>
       <use xlink:href="#DejaVuSans-30" x="159.033203"/>
      </g>
     </g>
    </g>
    <g id="xtick_26">
     <g id="line2d_42">
      <g>
       <use xlink:href="#m16f0f0c1c6" x="374.245443" y="673.478125" style="stroke: #000000; stroke-width: 0.8"/>
      </g>
     </g>
     <g id="text_23">
      <!-- 12.5 -->
      <g transform="translate(363.11263 688.076562) scale(0.1 -0.1)">
       <use xlink:href="#DejaVuSans-31"/>
       <use xlink:href="#DejaVuSans-32" x="63.623047"/>
       <use xlink:href="#DejaVuSans-2e" x="127.246094"/>
       <use xlink:href="#DejaVuSans-35" x="159.033203"/>
      </g>
     </g>
    </g>
    <g id="xtick_27">
     <g id="line2d_43">
      <g>
       <use xlink:href="#m16f0f0c1c6" x="418.043087" y="673.478125" style="stroke: #000000; stroke-width: 0.8"/>
      </g>
     </g>
     <g id="text_24">
      <!-- 15.0 -->
      <g transform="translate(406.910275 688.076562) scale(0.1 -0.1)">
       <use xlink:href="#DejaVuSans-31"/>
       <use xlink:href="#DejaVuSans-35" x="63.623047"/>
       <use xlink:href="#DejaVuSans-2e" x="127.246094"/>
       <use xlink:href="#DejaVuSans-30" x="159.033203"/>
      </g>
     </g>
    </g>
    <g id="text_25">
     <!-- X-axis -->
     <g transform="translate(227.847656 701.754687) scale(0.1 -0.1)">
      <use xlink:href="#DejaVuSans-58"/>
      <use xlink:href="#DejaVuSans-2d" x="63.505859"/>
      <use xlink:href="#DejaVuSans-61" x="99.589844"/>
      <use xlink:href="#DejaVuSans-78" x="160.869141"/>
      <use xlink:href="#DejaVuSans-69" x="220.048828"/>
      <use xlink:href="#DejaVuSans-73" x="247.832031"/>
     </g>
    </g>
   </g>
   <g id="matplotlib.axis_6">
    <g id="ytick_13">
     <g id="line2d_44">
      <g>
       <use xlink:href="#mdf2cc91a9f" x="50.14375" y="673.478125" style="stroke: #000000; stroke-width: 0.8"/>
      </g>
     </g>
     <g id="text_26">
      <!-- 0.00 -->
      <g transform="translate(20.878125 677.277344) scale(0.1 -0.1)">
       <use xlink:href="#DejaVuSans-30"/>
       <use xlink:href="#DejaVuSans-2e" x="63.623047"/>
       <use xlink:href="#DejaVuSans-30" x="95.410156"/>
       <use xlink:href="#DejaVuSans-30" x="159.033203"/>
      </g>
     </g>
    </g>
    <g id="ytick_14">
     <g id="line2d_45">
      <g>
       <use xlink:href="#mdf2cc91a9f" x="50.14375" y="614.721194" style="stroke: #000000; stroke-width: 0.8"/>
      </g>
     </g>
     <g id="text_27">
      <!-- 0.05 -->
      <g transform="translate(20.878125 618.520412) scale(0.1 -0.1)">
       <use xlink:href="#DejaVuSans-30"/>
       <use xlink:href="#DejaVuSans-2e" x="63.623047"/>
       <use xlink:href="#DejaVuSans-30" x="95.410156"/>
       <use xlink:href="#DejaVuSans-35" x="159.033203"/>
      </g>
     </g>
    </g>
    <g id="ytick_15">
     <g id="line2d_46">
      <g>
       <use xlink:href="#mdf2cc91a9f" x="50.14375" y="555.964262" style="stroke: #000000; stroke-width: 0.8"/>
      </g>
     </g>
     <g id="text_28">
      <!-- 0.10 -->
      <g transform="translate(20.878125 559.763481) scale(0.1 -0.1)">
       <use xlink:href="#DejaVuSans-30"/>
       <use xlink:href="#DejaVuSans-2e" x="63.623047"/>
       <use xlink:href="#DejaVuSans-31" x="95.410156"/>
       <use xlink:href="#DejaVuSans-30" x="159.033203"/>
      </g>
     </g>
    </g>
    <g id="ytick_16">
     <g id="line2d_47">
      <g>
       <use xlink:href="#mdf2cc91a9f" x="50.14375" y="497.207331" style="stroke: #000000; stroke-width: 0.8"/>
      </g>
     </g>
     <g id="text_29">
      <!-- 0.15 -->
      <g transform="translate(20.878125 501.006549) scale(0.1 -0.1)">
       <use xlink:href="#DejaVuSans-30"/>
       <use xlink:href="#DejaVuSans-2e" x="63.623047"/>
       <use xlink:href="#DejaVuSans-31" x="95.410156"/>
       <use xlink:href="#DejaVuSans-35" x="159.033203"/>
      </g>
     </g>
    </g>
    <g id="ytick_17">
     <g id="line2d_48">
      <g>
       <use xlink:href="#mdf2cc91a9f" x="50.14375" y="438.450399" style="stroke: #000000; stroke-width: 0.8"/>
      </g>
     </g>
     <g id="text_30">
      <!-- 0.20 -->
      <g transform="translate(20.878125 442.249618) scale(0.1 -0.1)">
       <use xlink:href="#DejaVuSans-30"/>
       <use xlink:href="#DejaVuSans-2e" x="63.623047"/>
       <use xlink:href="#DejaVuSans-32" x="95.410156"/>
       <use xlink:href="#DejaVuSans-30" x="159.033203"/>
      </g>
     </g>
    </g>
    <g id="ytick_18">
     <g id="line2d_49">
      <g>
       <use xlink:href="#mdf2cc91a9f" x="50.14375" y="379.693468" style="stroke: #000000; stroke-width: 0.8"/>
      </g>
     </g>
     <g id="text_31">
      <!-- 0.25 -->
      <g transform="translate(20.878125 383.492686) scale(0.1 -0.1)">
       <use xlink:href="#DejaVuSans-30"/>
       <use xlink:href="#DejaVuSans-2e" x="63.623047"/>
       <use xlink:href="#DejaVuSans-32" x="95.410156"/>
       <use xlink:href="#DejaVuSans-35" x="159.033203"/>
      </g>
     </g>
    </g>
    <g id="text_32">
     <!-- Density -->
     <g transform="translate(14.798438 540.811719) rotate(-90) scale(0.1 -0.1)">
      <use xlink:href="#DejaVuSans-44"/>
      <use xlink:href="#DejaVuSans-65" x="77.001953"/>
      <use xlink:href="#DejaVuSans-6e" x="138.525391"/>
      <use xlink:href="#DejaVuSans-73" x="201.904297"/>
      <use xlink:href="#DejaVuSans-69" x="254.003906"/>
      <use xlink:href="#DejaVuSans-74" x="281.787109"/>
      <use xlink:href="#DejaVuSans-79" x="320.996094"/>
     </g>
    </g>
   </g>
   <g id="line2d_50">
    <path d="M 67.661932 673.477426 
L 87.896444 673.362581 
L 93.36239 673.11286 
L 97.006354 672.732774 
L 99.826922 672.221457 
L 102.174476 671.575067 
L 104.224205 670.783854 
L 106.081226 669.829729 
L 107.798093 668.697498 
L 109.427366 667.354317 
L 110.986562 665.779455 
L 112.51072 663.922671 
L 114.034878 661.707493 
L 115.559036 659.088116 
L 117.083194 656.01849 
L 118.64239 652.365691 
L 120.236624 648.048581 
L 121.883416 642.927057 
L 123.582764 636.898912 
L 125.369708 629.719264 
L 127.261766 621.172175 
L 129.311496 610.848924 
L 131.588974 598.190811 
L 134.286909 581.871129 
L 138.509001 554.737182 
L 142.450789 529.921188 
L 144.745786 516.844055 
L 146.585287 507.575677 
L 148.162002 500.718681 
L 149.528489 495.71563 
L 150.737304 492.091435 
L 151.805966 489.556626 
L 152.734476 487.887009 
L 153.557872 486.832842 
L 154.276153 486.246413 
L 154.924359 485.986341 
L 155.537526 485.976376 
L 156.150693 486.195948 
L 156.798898 486.676743 
L 157.517179 487.505639 
L 158.323056 488.801084 
L 159.216528 490.679402 
L 160.232633 493.362401 
L 161.371372 497.028932 
L 162.667782 501.996087 
L 164.139383 508.562389 
L 165.838732 517.208872 
L 167.888461 528.855365 
L 170.603915 545.671086 
L 178.750277 596.938411 
L 181.150388 610.19061 
L 183.252675 620.59689 
L 185.162252 628.96527 
L 186.931677 635.749236 
L 188.578469 641.206963 
L 190.102627 645.520959 
L 191.539189 648.943164 
L 192.870638 651.564136 
L 194.114491 653.540726 
L 195.270749 654.974774 
L 196.339411 655.958565 
L 197.337997 656.583859 
L 198.266508 656.911972 
L 199.159979 656.998021 
L 200.053451 656.859006 
L 200.964442 656.485213 
L 201.910472 655.848126 
L 202.909058 654.898836 
L 203.97772 653.565341 
L 205.116459 651.77916 
L 206.342793 649.428843 
L 207.656722 646.412976 
L 209.058247 642.621482 
L 210.564886 637.878171 
L 212.176639 632.037061 
L 213.893507 624.952907 
L 215.750527 616.321551 
L 217.800257 605.702742 
L 220.130292 592.413513 
L 223.038455 574.450798 
L 231.30745 522.53966 
L 233.339661 511.648506 
L 235.03901 503.700585 
L 236.493092 497.905842 
L 237.771983 493.672131 
L 238.893202 490.679292 
L 239.891789 488.6103 
L 240.767742 487.274763 
L 241.53858 486.478551 
L 242.221823 486.07348 
L 242.85251 485.952083 
L 243.448157 486.060486 
L 244.078844 486.411019 
L 244.762087 487.062819 
L 245.515406 488.105894 
L 246.356321 489.665192 
L 247.30235 491.904391 
L 248.371013 495.027954 
L 249.579828 499.279287 
L 250.946314 504.932029 
L 252.523029 512.448265 
L 254.38005 522.447853 
L 256.675046 536.098512 
L 260.196377 558.570886 
L 265.136751 589.882012 
L 267.782129 605.189894 
L 270.024568 616.909769 
L 272.056779 626.381445 
L 273.931318 634.08682 
L 275.683224 640.375997 
L 277.330015 645.490105 
L 278.889211 649.63664 
L 280.378331 652.986663 
L 281.797375 655.646482 
L 283.146342 657.713638 
L 284.425234 659.275962 
L 285.634049 660.411618 
L 286.790306 661.199534 
L 287.894007 661.688846 
L 288.96267 661.925519 
L 290.031332 661.935221 
L 291.099995 661.723364 
L 292.203695 661.276903 
L 293.359953 660.565741 
L 294.586287 659.543941 
L 295.900216 658.14851 
L 297.301741 656.322968 
L 298.80838 653.979943 
L 300.420133 651.048061 
L 302.172039 647.381227 
L 304.081616 642.848279 
L 306.201422 637.223978 
L 308.67161 630.012881 
L 311.982711 619.598362 
L 317.939191 600.793372 
L 320.216669 594.404835 
L 322.05617 589.871212 
L 323.650404 586.509726 
L 325.03441 584.083604 
L 326.278263 582.331684 
L 327.399482 581.122672 
L 328.415588 580.343105 
L 329.344098 579.90056 
L 330.220051 579.722805 
L 331.078484 579.775783 
L 331.936918 580.053279 
L 332.83039 580.578396 
L 333.793938 581.410135 
L 334.845082 582.622966 
L 336.00134 584.310147 
L 337.29775 586.615703 
L 338.751832 589.678574 
L 340.416142 593.72907 
L 342.378277 599.120613 
L 344.865983 606.651567 
L 349.438457 621.374372 
L 353.222573 633.201754 
L 355.850432 640.708076 
L 358.12791 646.566322 
L 360.212678 651.336386 
L 362.174812 655.287534 
L 364.049351 658.577503 
L 365.871333 661.337917 
L 367.658277 663.651683 
L 369.445221 665.606796 
L 371.232165 667.23817 
L 373.071666 668.618212 
L 374.981243 669.772385 
L 376.995935 670.729941 
L 379.185817 671.521927 
L 381.620966 672.162062 
L 384.424015 672.663898 
L 387.822713 673.038594 
L 392.272553 673.292895 
L 399.03491 673.434093 
L 414.731985 673.477242 
L 418.025568 673.477774 
L 418.025568 673.477774 
" clip-path="url(#p634ab1249b)" style="fill: none; stroke: #ff7f0e; stroke-width: 1.5; stroke-linecap: square"/>
   </g>
   <g id="patch_76">
    <path d="M 50.14375 673.478125 
L 50.14375 370.128125 
" style="fill: none; stroke: #000000; stroke-width: 0.8; stroke-linejoin: miter; stroke-linecap: square"/>
   </g>
   <g id="patch_77">
    <path d="M 435.54375 673.478125 
L 435.54375 370.128125 
" style="fill: none; stroke: #000000; stroke-width: 0.8; stroke-linejoin: miter; stroke-linecap: square"/>
   </g>
   <g id="patch_78">
    <path d="M 50.14375 673.478125 
L 435.54375 673.478125 
" style="fill: none; stroke: #000000; stroke-width: 0.8; stroke-linejoin: miter; stroke-linecap: square"/>
   </g>
   <g id="patch_79">
    <path d="M 50.14375 370.128125 
L 435.54375 370.128125 
" style="fill: none; stroke: #000000; stroke-width: 0.8; stroke-linejoin: miter; stroke-linecap: square"/>
   </g>
   <g id="text_33">
    <!-- Generated Samples (n = 500) -->
    <g transform="translate(152.795938 364.128125) scale(0.12 -0.12)">
     <use xlink:href="#DejaVuSans-47"/>
     <use xlink:href="#DejaVuSans-65" x="77.490234"/>
     <use xlink:href="#DejaVuSans-6e" x="139.013672"/>
     <use xlink:href="#DejaVuSans-65" x="202.392578"/>
     <use xlink:href="#DejaVuSans-72" x="263.916016"/>
     <use xlink:href="#DejaVuSans-61" x="305.029297"/>
     <use xlink:href="#DejaVuSans-74" x="366.308594"/>
     <use xlink:href="#DejaVuSans-65" x="405.517578"/>
     <use xlink:href="#DejaVuSans-64" x="467.041016"/>
     <use xlink:href="#DejaVuSans-20" x="530.517578"/>
     <use xlink:href="#DejaVuSans-53" x="562.304688"/>
     <use xlink:href="#DejaVuSans-61" x="625.78125"/>
     <use xlink:href="#DejaVuSans-6d" x="687.060547"/>
     <use xlink:href="#DejaVuSans-70" x="784.472656"/>
     <use xlink:href="#DejaVuSans-6c" x="847.949219"/>
     <use xlink:href="#DejaVuSans-65" x="875.732422"/>
     <use xlink:href="#DejaVuSans-73" x="937.255859"/>
     <use xlink:href="#DejaVuSans-20" x="989.355469"/>
     <use xlink:href="#DejaVuSans-28" x="1021.142578"/>
     <use xlink:href="#DejaVuSans-6e" x="1060.15625"/>
     <use xlink:href="#DejaVuSans-20" x="1123.535156"/>
     <use xlink:href="#DejaVuSans-3d" x="1155.322266"/>
     <use xlink:href="#DejaVuSans-20" x="1239.111328"/>
     <use xlink:href="#DejaVuSans-35" x="1270.898438"/>
     <use xlink:href="#DejaVuSans-30" x="1334.521484"/>
     <use xlink:href="#DejaVuSans-30" x="1398.144531"/>
     <use xlink:href="#DejaVuSans-29" x="1461.767578"/>
    </g>
   </g>
   <g id="legend_3">
    <g id="patch_80">
     <path d="M 336.2625 407.484375 
L 428.54375 407.484375 
Q 430.54375 407.484375 430.54375 405.484375 
L 430.54375 377.128125 
Q 430.54375 375.128125 428.54375 375.128125 
L 336.2625 375.128125 
Q 334.2625 375.128125 334.2625 377.128125 
L 334.2625 405.484375 
Q 334.2625 407.484375 336.2625 407.484375 
z
" style="fill: #ffffff; opacity: 0.8; stroke: #cccccc; stroke-linejoin: miter"/>
    </g>
    <g id="patch_81">
     <path d="M 338.2625 386.726562 
L 358.2625 386.726562 
L 358.2625 379.726562 
L 338.2625 379.726562 
z
" style="fill: #1f77b4; opacity: 0.5"/>
    </g>
    <g id="text_34">
     <!-- n = 500 -->
     <g transform="translate(366.2625 386.726562) scale(0.1 -0.1)">
      <use xlink:href="#DejaVuSans-6e"/>
      <use xlink:href="#DejaVuSans-20" x="63.378906"/>
      <use xlink:href="#DejaVuSans-3d" x="95.166016"/>
      <use xlink:href="#DejaVuSans-20" x="178.955078"/>
      <use xlink:href="#DejaVuSans-35" x="210.742188"/>
      <use xlink:href="#DejaVuSans-30" x="274.365234"/>
      <use xlink:href="#DejaVuSans-30" x="337.988281"/>
     </g>
    </g>
    <g id="line2d_51">
     <path d="M 338.2625 397.904687 
L 348.2625 397.904687 
L 358.2625 397.904687 
" style="fill: none; stroke: #ff7f0e; stroke-width: 1.5; stroke-linecap: square"/>
    </g>
    <g id="text_35">
     <!-- Mixture PDF -->
     <g transform="translate(366.2625 401.404687) scale(0.1 -0.1)">
      <use xlink:href="#DejaVuSans-4d"/>
      <use xlink:href="#DejaVuSans-69" x="86.279297"/>
      <use xlink:href="#DejaVuSans-78" x="114.0625"/>
      <use xlink:href="#DejaVuSans-74" x="173.242188"/>
      <use xlink:href="#DejaVuSans-75" x="212.451172"/>
      <use xlink:href="#DejaVuSans-72" x="275.830078"/>
      <use xlink:href="#DejaVuSans-65" x="314.693359"/>
      <use xlink:href="#DejaVuSans-20" x="376.216797"/>
      <use xlink:href="#DejaVuSans-50" x="408.003906"/>
      <use xlink:href="#DejaVuSans-44" x="468.306641"/>
      <use xlink:href="#DejaVuSans-46" x="545.308594"/>
     </g>
    </g>
   </g>
  </g>
  <g id="axes_4">
   <g id="patch_82">
    <path d="M 463.92375 673.478125 
L 849.32375 673.478125 
L 849.32375 370.128125 
L 463.92375 370.128125 
z
" style="fill: #ffffff"/>
   </g>
   <g id="patch_83">
    <path d="M 507.421381 673.478125 
L 517.359598 673.478125 
L 517.359598 672.649513 
L 507.421381 672.649513 
z
" clip-path="url(#p11286b013e)" style="fill: #1f77b4; opacity: 0.5"/>
   </g>
   <g id="patch_84">
    <path d="M 517.359598 673.478125 
L 527.297816 673.478125 
L 527.297816 666.642074 
L 517.359598 666.642074 
z
" clip-path="url(#p11286b013e)" style="fill: #1f77b4; opacity: 0.5"/>
   </g>
   <g id="patch_85">
    <path d="M 527.297816 673.478125 
L 537.236033 673.478125 
L 537.236033 655.248656 
L 527.297816 655.248656 
z
" clip-path="url(#p11286b013e)" style="fill: #1f77b4; opacity: 0.5"/>
   </g>
   <g id="patch_86">
    <path d="M 537.236033 673.478125 
L 547.174251 673.478125 
L 547.174251 614.232351 
L 537.236033 614.232351 
z
" clip-path="url(#p11286b013e)" style="fill: #1f77b4; opacity: 0.5"/>
   </g>
   <g id="patch_87">
    <path d="M 547.174251 673.478125 
L 557.112469 673.478125 
L 557.112469 559.129637 
L 547.174251 559.129637 
z
" clip-path="url(#p11286b013e)" style="fill: #1f77b4; opacity: 0.5"/>
   </g>
   <g id="patch_88">
    <path d="M 557.112469 673.478125 
L 567.050686 673.478125 
L 567.050686 497.812332 
L 557.112469 497.812332 
z
" clip-path="url(#p11286b013e)" style="fill: #1f77b4; opacity: 0.5"/>
   </g>
   <g id="patch_89">
    <path d="M 567.050686 673.478125 
L 576.988904 673.478125 
L 576.988904 492.840659 
L 567.050686 492.840659 
z
" clip-path="url(#p11286b013e)" style="fill: #1f77b4; opacity: 0.5"/>
   </g>
   <g id="patch_90">
    <path d="M 576.988904 673.478125 
L 586.927121 673.478125 
L 586.927121 531.371127 
L 576.988904 531.371127 
z
" clip-path="url(#p11286b013e)" style="fill: #1f77b4; opacity: 0.5"/>
   </g>
   <g id="patch_91">
    <path d="M 586.927121 673.478125 
L 596.865339 673.478125 
L 596.865339 586.266688 
L 586.927121 586.266688 
z
" clip-path="url(#p11286b013e)" style="fill: #1f77b4; opacity: 0.5"/>
   </g>
   <g id="patch_92">
    <path d="M 596.865339 673.478125 
L 606.803556 673.478125 
L 606.803556 647.791146 
L 596.865339 647.791146 
z
" clip-path="url(#p11286b013e)" style="fill: #1f77b4; opacity: 0.5"/>
   </g>
   <g id="patch_93">
    <path d="M 606.803556 673.478125 
L 616.741774 673.478125 
L 616.741774 652.555666 
L 606.803556 652.555666 
z
" clip-path="url(#p11286b013e)" style="fill: #1f77b4; opacity: 0.5"/>
   </g>
   <g id="patch_94">
    <path d="M 616.741774 673.478125 
L 626.679991 673.478125 
L 626.679991 641.576554 
L 616.741774 641.576554 
z
" clip-path="url(#p11286b013e)" style="fill: #1f77b4; opacity: 0.5"/>
   </g>
   <g id="patch_95">
    <path d="M 626.679991 673.478125 
L 636.618209 673.478125 
L 636.618209 601.803167 
L 626.679991 601.803167 
z
" clip-path="url(#p11286b013e)" style="fill: #1f77b4; opacity: 0.5"/>
   </g>
   <g id="patch_96">
    <path d="M 636.618209 673.478125 
L 646.556427 673.478125 
L 646.556427 534.892729 
L 636.618209 534.892729 
z
" clip-path="url(#p11286b013e)" style="fill: #1f77b4; opacity: 0.5"/>
   </g>
   <g id="patch_97">
    <path d="M 646.556427 673.478125 
L 656.494644 673.478125 
L 656.494644 493.047812 
L 646.556427 493.047812 
z
" clip-path="url(#p11286b013e)" style="fill: #1f77b4; opacity: 0.5"/>
   </g>
   <g id="patch_98">
    <path d="M 656.494644 673.478125 
L 666.432862 673.478125 
L 666.432862 508.377138 
L 656.494644 508.377138 
z
" clip-path="url(#p11286b013e)" style="fill: #1f77b4; opacity: 0.5"/>
   </g>
   <g id="patch_99">
    <path d="M 666.432862 673.478125 
L 676.371079 673.478125 
L 676.371079 540.693015 
L 666.432862 540.693015 
z
" clip-path="url(#p11286b013e)" style="fill: #1f77b4; opacity: 0.5"/>
   </g>
   <g id="patch_100">
    <path d="M 676.371079 673.478125 
L 686.309297 673.478125 
L 686.309297 600.353096 
L 676.371079 600.353096 
z
" clip-path="url(#p11286b013e)" style="fill: #1f77b4; opacity: 0.5"/>
   </g>
   <g id="patch_101">
    <path d="M 686.309297 673.478125 
L 696.247514 673.478125 
L 696.247514 644.476697 
L 686.309297 644.476697 
z
" clip-path="url(#p11286b013e)" style="fill: #1f77b4; opacity: 0.5"/>
   </g>
   <g id="patch_102">
    <path d="M 696.247514 673.478125 
L 706.185732 673.478125 
L 706.185732 661.670401 
L 696.247514 661.670401 
z
" clip-path="url(#p11286b013e)" style="fill: #1f77b4; opacity: 0.5"/>
   </g>
   <g id="patch_103">
    <path d="M 706.185732 673.478125 
L 716.123949 673.478125 
L 716.123949 654.83435 
L 706.185732 654.83435 
z
" clip-path="url(#p11286b013e)" style="fill: #1f77b4; opacity: 0.5"/>
   </g>
   <g id="patch_104">
    <path d="M 716.123949 673.478125 
L 726.062167 673.478125 
L 726.062167 631.011748 
L 716.123949 631.011748 
z
" clip-path="url(#p11286b013e)" style="fill: #1f77b4; opacity: 0.5"/>
   </g>
   <g id="patch_105">
    <path d="M 726.062167 673.478125 
L 736.000385 673.478125 
L 736.000385 604.081851 
L 726.062167 604.081851 
z
" clip-path="url(#p11286b013e)" style="fill: #1f77b4; opacity: 0.5"/>
   </g>
   <g id="patch_106">
    <path d="M 736.000385 673.478125 
L 745.938602 673.478125 
L 745.938602 585.438076 
L 736.000385 585.438076 
z
" clip-path="url(#p11286b013e)" style="fill: #1f77b4; opacity: 0.5"/>
   </g>
   <g id="patch_107">
    <path d="M 745.938602 673.478125 
L 755.87682 673.478125 
L 755.87682 583.780851 
L 745.938602 583.780851 
z
" clip-path="url(#p11286b013e)" style="fill: #1f77b4; opacity: 0.5"/>
   </g>
   <g id="patch_108">
    <path d="M 755.87682 673.478125 
L 765.815037 673.478125 
L 765.815037 615.475269 
L 755.87682 615.475269 
z
" clip-path="url(#p11286b013e)" style="fill: #1f77b4; opacity: 0.5"/>
   </g>
   <g id="patch_109">
    <path d="M 765.815037 673.478125 
L 775.753255 673.478125 
L 775.753255 648.205452 
L 765.815037 648.205452 
z
" clip-path="url(#p11286b013e)" style="fill: #1f77b4; opacity: 0.5"/>
   </g>
   <g id="patch_110">
    <path d="M 775.753255 673.478125 
L 785.691472 673.478125 
L 785.691472 664.36339 
L 775.753255 664.36339 
z
" clip-path="url(#p11286b013e)" style="fill: #1f77b4; opacity: 0.5"/>
   </g>
   <g id="patch_111">
    <path d="M 785.691472 673.478125 
L 795.62969 673.478125 
L 795.62969 669.74937 
L 785.691472 669.74937 
z
" clip-path="url(#p11286b013e)" style="fill: #1f77b4; opacity: 0.5"/>
   </g>
   <g id="patch_112">
    <path d="M 795.62969 673.478125 
L 805.567907 673.478125 
L 805.567907 672.44236 
L 795.62969 672.44236 
z
" clip-path="url(#p11286b013e)" style="fill: #1f77b4; opacity: 0.5"/>
   </g>
   <g id="matplotlib.axis_7">
    <g id="xtick_28">
     <g id="line2d_52">
      <g>
       <use xlink:href="#m16f0f0c1c6" x="481.441932" y="673.478125" style="stroke: #000000; stroke-width: 0.8"/>
      </g>
     </g>
     <g id="text_36">
      <!-- 5.0 -->
      <g transform="translate(469.300526 688.076562) scale(0.1 -0.1)">
       <use xlink:href="#DejaVuSans-2212"/>
       <use xlink:href="#DejaVuSans-35" x="83.789062"/>
       <use xlink:href="#DejaVuSans-2e" x="147.412109"/>
       <use xlink:href="#DejaVuSans-30" x="179.199219"/>
      </g>
     </g>
    </g>
    <g id="xtick_29">
     <g id="line2d_53">
      <g>
       <use xlink:href="#m16f0f0c1c6" x="525.239576" y="673.478125" style="stroke: #000000; stroke-width: 0.8"/>
      </g>
     </g>
     <g id="text_37">
      <!-- 2.5 -->
      <g transform="translate(513.09817 688.076562) scale(0.1 -0.1)">
       <use xlink:href="#DejaVuSans-2212"/>
       <use xlink:href="#DejaVuSans-32" x="83.789062"/>
       <use xlink:href="#DejaVuSans-2e" x="147.412109"/>
       <use xlink:href="#DejaVuSans-35" x="179.199219"/>
      </g>
     </g>
    </g>
    <g id="xtick_30">
     <g id="line2d_54">
      <g>
       <use xlink:href="#m16f0f0c1c6" x="569.037221" y="673.478125" style="stroke: #000000; stroke-width: 0.8"/>
      </g>
     </g>
     <g id="text_38">
      <!-- 0.0 -->
      <g transform="translate(561.085658 688.076562) scale(0.1 -0.1)">
       <use xlink:href="#DejaVuSans-30"/>
       <use xlink:href="#DejaVuSans-2e" x="63.623047"/>
       <use xlink:href="#DejaVuSans-30" x="95.410156"/>
      </g>
     </g>
    </g>
    <g id="xtick_31">
     <g id="line2d_55">
      <g>
       <use xlink:href="#m16f0f0c1c6" x="612.834865" y="673.478125" style="stroke: #000000; stroke-width: 0.8"/>
      </g>
     </g>
     <g id="text_39">
      <!-- 2.5 -->
      <g transform="translate(604.883303 688.076562) scale(0.1 -0.1)">
       <use xlink:href="#DejaVuSans-32"/>
       <use xlink:href="#DejaVuSans-2e" x="63.623047"/>
       <use xlink:href="#DejaVuSans-35" x="95.410156"/>
      </g>
     </g>
    </g>
    <g id="xtick_32">
     <g id="line2d_56">
      <g>
       <use xlink:href="#m16f0f0c1c6" x="656.63251" y="673.478125" style="stroke: #000000; stroke-width: 0.8"/>
      </g>
     </g>
     <g id="text_40">
      <!-- 5.0 -->
      <g transform="translate(648.680947 688.076562) scale(0.1 -0.1)">
       <use xlink:href="#DejaVuSans-35"/>
       <use xlink:href="#DejaVuSans-2e" x="63.623047"/>
       <use xlink:href="#DejaVuSans-30" x="95.410156"/>
      </g>
     </g>
    </g>
    <g id="xtick_33">
     <g id="line2d_57">
      <g>
       <use xlink:href="#m16f0f0c1c6" x="700.430154" y="673.478125" style="stroke: #000000; stroke-width: 0.8"/>
      </g>
     </g>
     <g id="text_41">
      <!-- 7.5 -->
      <g transform="translate(692.478591 688.076562) scale(0.1 -0.1)">
       <use xlink:href="#DejaVuSans-37"/>
       <use xlink:href="#DejaVuSans-2e" x="63.623047"/>
       <use xlink:href="#DejaVuSans-35" x="95.410156"/>
      </g>
     </g>
    </g>
    <g id="xtick_34">
     <g id="line2d_58">
      <g>
       <use xlink:href="#m16f0f0c1c6" x="744.227798" y="673.478125" style="stroke: #000000; stroke-width: 0.8"/>
      </g>
     </g>
     <g id="text_42">
      <!-- 10.0 -->
      <g transform="translate(733.094986 688.076562) scale(0.1 -0.1)">
       <use xlink:href="#DejaVuSans-31"/>
       <use xlink:href="#DejaVuSans-30" x="63.623047"/>
       <use xlink:href="#DejaVuSans-2e" x="127.246094"/>
       <use xlink:href="#DejaVuSans-30" x="159.033203"/>
      </g>
     </g>
    </g>
    <g id="xtick_35">
     <g id="line2d_59">
      <g>
       <use xlink:href="#m16f0f0c1c6" x="788.025443" y="673.478125" style="stroke: #000000; stroke-width: 0.8"/>
      </g>
     </g>
     <g id="text_43">
      <!-- 12.5 -->
      <g transform="translate(776.89263 688.076562) scale(0.1 -0.1)">
       <use xlink:href="#DejaVuSans-31"/>
       <use xlink:href="#DejaVuSans-32" x="63.623047"/>
       <use xlink:href="#DejaVuSans-2e" x="127.246094"/>
       <use xlink:href="#DejaVuSans-35" x="159.033203"/>
      </g>
     </g>
    </g>
    <g id="xtick_36">
     <g id="line2d_60">
      <g>
       <use xlink:href="#m16f0f0c1c6" x="831.823087" y="673.478125" style="stroke: #000000; stroke-width: 0.8"/>
      </g>
     </g>
     <g id="text_44">
      <!-- 15.0 -->
      <g transform="translate(820.690275 688.076562) scale(0.1 -0.1)">
       <use xlink:href="#DejaVuSans-31"/>
       <use xlink:href="#DejaVuSans-35" x="63.623047"/>
       <use xlink:href="#DejaVuSans-2e" x="127.246094"/>
       <use xlink:href="#DejaVuSans-30" x="159.033203"/>
      </g>
     </g>
    </g>
    <g id="text_45">
     <!-- X-axis -->
     <g transform="translate(641.627656 701.754687) scale(0.1 -0.1)">
      <use xlink:href="#DejaVuSans-58"/>
      <use xlink:href="#DejaVuSans-2d" x="63.505859"/>
      <use xlink:href="#DejaVuSans-61" x="99.589844"/>
      <use xlink:href="#DejaVuSans-78" x="160.869141"/>
      <use xlink:href="#DejaVuSans-69" x="220.048828"/>
      <use xlink:href="#DejaVuSans-73" x="247.832031"/>
     </g>
    </g>
   </g>
   <g id="matplotlib.axis_8">
    <g id="ytick_19">
     <g id="line2d_61">
      <g>
       <use xlink:href="#mdf2cc91a9f" x="463.92375" y="673.478125" style="stroke: #000000; stroke-width: 0.8"/>
      </g>
     </g>
    </g>
    <g id="ytick_20">
     <g id="line2d_62">
      <g>
       <use xlink:href="#mdf2cc91a9f" x="463.92375" y="614.721194" style="stroke: #000000; stroke-width: 0.8"/>
      </g>
     </g>
    </g>
    <g id="ytick_21">
     <g id="line2d_63">
      <g>
       <use xlink:href="#mdf2cc91a9f" x="463.92375" y="555.964262" style="stroke: #000000; stroke-width: 0.8"/>
      </g>
     </g>
    </g>
    <g id="ytick_22">
     <g id="line2d_64">
      <g>
       <use xlink:href="#mdf2cc91a9f" x="463.92375" y="497.207331" style="stroke: #000000; stroke-width: 0.8"/>
      </g>
     </g>
    </g>
    <g id="ytick_23">
     <g id="line2d_65">
      <g>
       <use xlink:href="#mdf2cc91a9f" x="463.92375" y="438.450399" style="stroke: #000000; stroke-width: 0.8"/>
      </g>
     </g>
    </g>
    <g id="ytick_24">
     <g id="line2d_66">
      <g>
       <use xlink:href="#mdf2cc91a9f" x="463.92375" y="379.693468" style="stroke: #000000; stroke-width: 0.8"/>
      </g>
     </g>
    </g>
    <g id="text_46">
     <!-- Density -->
     <g transform="translate(454.344062 540.811719) rotate(-90) scale(0.1 -0.1)">
      <use xlink:href="#DejaVuSans-44"/>
      <use xlink:href="#DejaVuSans-65" x="77.001953"/>
      <use xlink:href="#DejaVuSans-6e" x="138.525391"/>
      <use xlink:href="#DejaVuSans-73" x="201.904297"/>
      <use xlink:href="#DejaVuSans-69" x="254.003906"/>
      <use xlink:href="#DejaVuSans-74" x="281.787109"/>
      <use xlink:href="#DejaVuSans-79" x="320.996094"/>
     </g>
    </g>
   </g>
   <g id="line2d_67">
    <path d="M 481.441932 673.477426 
L 501.676444 673.362581 
L 507.14239 673.11286 
L 510.786354 672.732774 
L 513.606922 672.221457 
L 515.954476 671.575067 
L 518.004205 670.783854 
L 519.861226 669.829729 
L 521.578093 668.697498 
L 523.207366 667.354317 
L 524.766562 665.779455 
L 526.29072 663.922671 
L 527.814878 661.707493 
L 529.339036 659.088116 
L 530.863194 656.01849 
L 532.42239 652.365691 
L 534.016624 648.048581 
L 535.663416 642.927057 
L 537.362764 636.898912 
L 539.149708 629.719264 
L 541.041766 621.172175 
L 543.091496 610.848924 
L 545.368974 598.190811 
L 548.066909 581.871129 
L 552.289001 554.737182 
L 556.230789 529.921188 
L 558.525786 516.844055 
L 560.365287 507.575677 
L 561.942002 500.718681 
L 563.308489 495.71563 
L 564.517304 492.091435 
L 565.585966 489.556626 
L 566.514476 487.887009 
L 567.337872 486.832842 
L 568.056153 486.246413 
L 568.704359 485.986341 
L 569.317526 485.976376 
L 569.930693 486.195948 
L 570.578898 486.676743 
L 571.297179 487.505639 
L 572.103056 488.801084 
L 572.996528 490.679402 
L 574.012633 493.362401 
L 575.151372 497.028932 
L 576.447782 501.996087 
L 577.919383 508.562389 
L 579.618732 517.208872 
L 581.668461 528.855365 
L 584.383915 545.671086 
L 592.530277 596.938411 
L 594.930388 610.19061 
L 597.032675 620.59689 
L 598.942252 628.96527 
L 600.711677 635.749236 
L 602.358469 641.206963 
L 603.882627 645.520959 
L 605.319189 648.943164 
L 606.650638 651.564136 
L 607.894491 653.540726 
L 609.050749 654.974774 
L 610.119411 655.958565 
L 611.117997 656.583859 
L 612.046508 656.911972 
L 612.939979 656.998021 
L 613.833451 656.859006 
L 614.744442 656.485213 
L 615.690472 655.848126 
L 616.689058 654.898836 
L 617.75772 653.565341 
L 618.896459 651.77916 
L 620.122793 649.428843 
L 621.436722 646.412976 
L 622.838247 642.621482 
L 624.344886 637.878171 
L 625.956639 632.037061 
L 627.673507 624.952907 
L 629.530527 616.321551 
L 631.580257 605.702742 
L 633.910292 592.413513 
L 636.818455 574.450798 
L 645.08745 522.53966 
L 647.119661 511.648506 
L 648.81901 503.700585 
L 650.273092 497.905842 
L 651.551983 493.672131 
L 652.673202 490.679292 
L 653.671789 488.6103 
L 654.547742 487.274763 
L 655.31858 486.478551 
L 656.001823 486.07348 
L 656.63251 485.952083 
L 657.228157 486.060486 
L 657.858844 486.411019 
L 658.542087 487.062819 
L 659.295406 488.105894 
L 660.136321 489.665192 
L 661.08235 491.904391 
L 662.151013 495.027954 
L 663.359828 499.279287 
L 664.726314 504.932029 
L 666.303029 512.448265 
L 668.16005 522.447853 
L 670.455046 536.098512 
L 673.976377 558.570886 
L 678.916751 589.882012 
L 681.562129 605.189894 
L 683.804568 616.909769 
L 685.836779 626.381445 
L 687.711318 634.08682 
L 689.463224 640.375997 
L 691.110015 645.490105 
L 692.669211 649.63664 
L 694.158331 652.986663 
L 695.577375 655.646482 
L 696.926342 657.713638 
L 698.205234 659.275962 
L 699.414049 660.411618 
L 700.570306 661.199534 
L 701.674007 661.688846 
L 702.74267 661.925519 
L 703.811332 661.935221 
L 704.879995 661.723364 
L 705.983695 661.276903 
L 707.139953 660.565741 
L 708.366287 659.543941 
L 709.680216 658.14851 
L 711.081741 656.322968 
L 712.58838 653.979943 
L 714.200133 651.048061 
L 715.952039 647.381227 
L 717.861616 642.848279 
L 719.981422 637.223978 
L 722.45161 630.012881 
L 725.762711 619.598362 
L 731.719191 600.793372 
L 733.996669 594.404835 
L 735.83617 589.871212 
L 737.430404 586.509726 
L 738.81441 584.083604 
L 740.058263 582.331684 
L 741.179482 581.122672 
L 742.195588 580.343105 
L 743.124098 579.90056 
L 744.000051 579.722805 
L 744.858484 579.775783 
L 745.716918 580.053279 
L 746.61039 580.578396 
L 747.573938 581.410135 
L 748.625082 582.622966 
L 749.78134 584.310147 
L 751.07775 586.615703 
L 752.531832 589.678574 
L 754.196142 593.72907 
L 756.158277 599.120613 
L 758.645983 606.651567 
L 763.218457 621.374372 
L 767.002573 633.201754 
L 769.630432 640.708076 
L 771.90791 646.566322 
L 773.992678 651.336386 
L 775.954812 655.287534 
L 777.829351 658.577503 
L 779.651333 661.337917 
L 781.438277 663.651683 
L 783.225221 665.606796 
L 785.012165 667.23817 
L 786.851666 668.618212 
L 788.761243 669.772385 
L 790.775935 670.729941 
L 792.965817 671.521927 
L 795.400966 672.162062 
L 798.204015 672.663898 
L 801.602713 673.038594 
L 806.052553 673.292895 
L 812.81491 673.434093 
L 828.511985 673.477242 
L 831.805568 673.477774 
L 831.805568 673.477774 
" clip-path="url(#p11286b013e)" style="fill: none; stroke: #ff7f0e; stroke-width: 1.5; stroke-linecap: square"/>
   </g>
   <g id="patch_113">
    <path d="M 463.92375 673.478125 
L 463.92375 370.128125 
" style="fill: none; stroke: #000000; stroke-width: 0.8; stroke-linejoin: miter; stroke-linecap: square"/>
   </g>
   <g id="patch_114">
    <path d="M 849.32375 673.478125 
L 849.32375 370.128125 
" style="fill: none; stroke: #000000; stroke-width: 0.8; stroke-linejoin: miter; stroke-linecap: square"/>
   </g>
   <g id="patch_115">
    <path d="M 463.92375 673.478125 
L 849.32375 673.478125 
" style="fill: none; stroke: #000000; stroke-width: 0.8; stroke-linejoin: miter; stroke-linecap: square"/>
   </g>
   <g id="patch_116">
    <path d="M 463.92375 370.128125 
L 849.32375 370.128125 
" style="fill: none; stroke: #000000; stroke-width: 0.8; stroke-linejoin: miter; stroke-linecap: square"/>
   </g>
   <g id="text_47">
    <!-- Generated Samples (n = 10000) -->
    <g transform="translate(558.940938 364.128125) scale(0.12 -0.12)">
     <use xlink:href="#DejaVuSans-47"/>
     <use xlink:href="#DejaVuSans-65" x="77.490234"/>
     <use xlink:href="#DejaVuSans-6e" x="139.013672"/>
     <use xlink:href="#DejaVuSans-65" x="202.392578"/>
     <use xlink:href="#DejaVuSans-72" x="263.916016"/>
     <use xlink:href="#DejaVuSans-61" x="305.029297"/>
     <use xlink:href="#DejaVuSans-74" x="366.308594"/>
     <use xlink:href="#DejaVuSans-65" x="405.517578"/>
     <use xlink:href="#DejaVuSans-64" x="467.041016"/>
     <use xlink:href="#DejaVuSans-20" x="530.517578"/>
     <use xlink:href="#DejaVuSans-53" x="562.304688"/>
     <use xlink:href="#DejaVuSans-61" x="625.78125"/>
     <use xlink:href="#DejaVuSans-6d" x="687.060547"/>
     <use xlink:href="#DejaVuSans-70" x="784.472656"/>
     <use xlink:href="#DejaVuSans-6c" x="847.949219"/>
     <use xlink:href="#DejaVuSans-65" x="875.732422"/>
     <use xlink:href="#DejaVuSans-73" x="937.255859"/>
     <use xlink:href="#DejaVuSans-20" x="989.355469"/>
     <use xlink:href="#DejaVuSans-28" x="1021.142578"/>
     <use xlink:href="#DejaVuSans-6e" x="1060.15625"/>
     <use xlink:href="#DejaVuSans-20" x="1123.535156"/>
     <use xlink:href="#DejaVuSans-3d" x="1155.322266"/>
     <use xlink:href="#DejaVuSans-20" x="1239.111328"/>
     <use xlink:href="#DejaVuSans-31" x="1270.898438"/>
     <use xlink:href="#DejaVuSans-30" x="1334.521484"/>
     <use xlink:href="#DejaVuSans-30" x="1398.144531"/>
     <use xlink:href="#DejaVuSans-30" x="1461.767578"/>
     <use xlink:href="#DejaVuSans-30" x="1525.390625"/>
     <use xlink:href="#DejaVuSans-29" x="1589.013672"/>
    </g>
   </g>
   <g id="legend_4">
    <g id="patch_117">
     <path d="M 750.0425 407.484375 
L 842.32375 407.484375 
Q 844.32375 407.484375 844.32375 405.484375 
L 844.32375 377.128125 
Q 844.32375 375.128125 842.32375 375.128125 
L 750.0425 375.128125 
Q 748.0425 375.128125 748.0425 377.128125 
L 748.0425 405.484375 
Q 748.0425 407.484375 750.0425 407.484375 
z
" style="fill: #ffffff; opacity: 0.8; stroke: #cccccc; stroke-linejoin: miter"/>
    </g>
    <g id="patch_118">
     <path d="M 752.0425 386.726562 
L 772.0425 386.726562 
L 772.0425 379.726562 
L 752.0425 379.726562 
z
" style="fill: #1f77b4; opacity: 0.5"/>
    </g>
    <g id="text_48">
     <!-- n = 10000 -->
     <g transform="translate(780.0425 386.726562) scale(0.1 -0.1)">
      <use xlink:href="#DejaVuSans-6e"/>
      <use xlink:href="#DejaVuSans-20" x="63.378906"/>
      <use xlink:href="#DejaVuSans-3d" x="95.166016"/>
      <use xlink:href="#DejaVuSans-20" x="178.955078"/>
      <use xlink:href="#DejaVuSans-31" x="210.742188"/>
      <use xlink:href="#DejaVuSans-30" x="274.365234"/>
      <use xlink:href="#DejaVuSans-30" x="337.988281"/>
      <use xlink:href="#DejaVuSans-30" x="401.611328"/>
      <use xlink:href="#DejaVuSans-30" x="465.234375"/>
     </g>
    </g>
    <g id="line2d_68">
     <path d="M 752.0425 397.904687 
L 762.0425 397.904687 
L 772.0425 397.904687 
" style="fill: none; stroke: #ff7f0e; stroke-width: 1.5; stroke-linecap: square"/>
    </g>
    <g id="text_49">
     <!-- Mixture PDF -->
     <g transform="translate(780.0425 401.404687) scale(0.1 -0.1)">
      <use xlink:href="#DejaVuSans-4d"/>
      <use xlink:href="#DejaVuSans-69" x="86.279297"/>
      <use xlink:href="#DejaVuSans-78" x="114.0625"/>
      <use xlink:href="#DejaVuSans-74" x="173.242188"/>
      <use xlink:href="#DejaVuSans-75" x="212.451172"/>
      <use xlink:href="#DejaVuSans-72" x="275.830078"/>
      <use xlink:href="#DejaVuSans-65" x="314.693359"/>
      <use xlink:href="#DejaVuSans-20" x="376.216797"/>
      <use xlink:href="#DejaVuSans-50" x="408.003906"/>
      <use xlink:href="#DejaVuSans-44" x="468.306641"/>
      <use xlink:href="#DejaVuSans-46" x="545.308594"/>
     </g>
    </g>
   </g>
  </g>
 </g>
 <defs>
  <clipPath id="pfc39d03afa">
   <rect x="50.14375" y="22.318125" width="385.4" height="303.35"/>
  </clipPath>
  <clipPath id="p64f4c0ece6">
   <rect x="463.92375" y="22.318125" width="385.4" height="303.35"/>
  </clipPath>
  <clipPath id="p634ab1249b">
   <rect x="50.14375" y="370.128125" width="385.4" height="303.35"/>
  </clipPath>
  <clipPath id="p11286b013e">
   <rect x="463.92375" y="370.128125" width="385.4" height="303.35"/>
  </clipPath>
 </defs>
</svg>