<?xml version="1.0" encoding="utf-8" standalone="no"?>
<!DOCTYPE svg PUBLIC "-//W3C//DTD SVG 1.1//EN"
  "http://www.w3.org/Graphics/SVG/1.1/DTD/svg11.dtd">
<svg xmlns:xlink="http://www.w3.org/1999/xlink" width="406.940312pt" height="325.986375pt" viewBox="0 0 406.940312 325.986375" xmlns="http://www.w3.org/2000/svg" version="1.1">
 <metadata>
  <rdf:RDF xmlns:dc="http://purl.org/dc/elements/1.1/" xmlns:cc="http://creativecommons.org/ns#" xmlns:rdf="http://www.w3.org/1999/02/22-rdf-syntax-ns#">
   <cc:Work>
    <dc:type rdf:resource="http://purl.org/dc/dcmitype/StillImage"/>
    <dc:date>2024-09-22T13:48:46.143848</dc:date>
    <dc:format>image/svg+xml</dc:format>
    <dc:creator>
     <cc:Agent>
      <dc:title>Matplotlib v3.9.0, https://matplotlib.org/</dc:title>
     </cc:Agent>
    </dc:creator>
   </cc:Work>
  </rdf:RDF>
 </metadata>
 <defs>
  <style type="text/css">*{stroke-linejoin: round; stroke-linecap: butt}</style>
 </defs>
 <g id="figure_1">
  <g id="patch_1">
   <path d="M 0 325.986375 
L 406.940312 325.986375 
L 406.940312 0 
L 0 0 
z
" style="fill: #ffffff"/>
  </g>
  <g id="axes_1">
   <g id="patch_2">
    <path d="M 42.620313 288.430125 
L 399.740313 288.430125 
L 399.740313 22.318125 
L 42.620313 22.318125 
z
" style="fill: #ffffff"/>
   </g>
   <g id="matplotlib.axis_1">
    <g id="xtick_1">
     <g id="line2d_1">
      <defs>
       <path id="ma6cdfacc74" d="M 0 0 
L 0 3.5 
" style="stroke: #000000; stroke-width: 0.8"/>
      </defs>
      <g>
       <use xlink:href="#ma6cdfacc74" x="71.626022" y="288.430125" style="stroke: #000000; stroke-width: 0.8"/>
      </g>
     </g>
     <g id="text_1">
      <!-- −2 -->
      <g transform="translate(64.254928 303.028562) scale(0.1 -0.1)">
       <defs>
        <path id="DejaVuSans-2212" d="M 678 2272 
L 4684 2272 
L 4684 1741 
L 678 1741 
L 678 2272 
z
" transform="scale(0.015625)"/>
        <path id="DejaVuSans-32" d="M 1228 531 
L 3431 531 
L 3431 0 
L 469 0 
L 469 531 
Q 828 903 1448 1529 
Q 2069 2156 2228 2338 
Q 2531 2678 2651 2914 
Q 2772 3150 2772 3378 
Q 2772 3750 2511 3984 
Q 2250 4219 1831 4219 
Q 1534 4219 1204 4116 
Q 875 4013 500 3803 
L 500 4441 
Q 881 4594 1212 4672 
Q 1544 4750 1819 4750 
Q 2544 4750 2975 4387 
Q 3406 4025 3406 3419 
Q 3406 3131 3298 2873 
Q 3191 2616 2906 2266 
Q 2828 2175 2409 1742 
Q 1991 1309 1228 531 
z
" transform="scale(0.015625)"/>
       </defs>
       <use xlink:href="#DejaVuSans-2212"/>
       <use xlink:href="#DejaVuSans-32" x="83.789062"/>
      </g>
     </g>
    </g>
    <g id="xtick_2">
     <g id="line2d_2">
      <g>
       <use xlink:href="#ma6cdfacc74" x="140.151742" y="288.430125" style="stroke: #000000; stroke-width: 0.8"/>
      </g>
     </g>
     <g id="text_2">
      <!-- −1 -->
      <g transform="translate(132.780648 303.028562) scale(0.1 -0.1)">
       <defs>
        <path id="DejaVuSans-31" d="M 794 531 
L 1825 531 
L 1825 4091 
L 703 3866 
L 703 4441 
L 1819 4666 
L 2450 4666 
L 2450 531 
L 3481 531 
L 3481 0 
L 794 0 
L 794 531 
z
" transform="scale(0.015625)"/>
       </defs>
       <use xlink:href="#DejaVuSans-2212"/>
       <use xlink:href="#DejaVuSans-31" x="83.789062"/>
      </g>
     </g>
    </g>
    <g id="xtick_3">
     <g id="line2d_3">
      <g>
       <use xlink:href="#ma6cdfacc74" x="208.677462" y="288.430125" style="stroke: #000000; stroke-width: 0.8"/>
      </g>
     </g>
     <g id="text_3">
      <!-- 0 -->
      <g transform="translate(205.496212 303.028562) scale(0.1 -0.1)">
       <defs>
        <path id="DejaVuSans-30" d="M 2034 4250 
Q 1547 4250 1301 3770 
Q 1056 3291 1056 2328 
Q 1056 1369 1301 889 
Q 1547 409 2034 409 
Q 2525 409 2770 889 
Q 3016 1369 3016 2328 
Q 3016 3291 2770 3770 
Q 2525 4250 2034 4250 
z
M 2034 4750 
Q 2819 4750 3233 4129 
Q 3647 3509 3647 2328 
Q 3647 1150 3233 529 
Q 2819 -91 2034 -91 
Q 1250 -91 836 529 
Q 422 1150 422 2328 
Q 422 3509 836 4129 
Q 1250 4750 2034 4750 
z
" transform="scale(0.015625)"/>
       </defs>
       <use xlink:href="#DejaVuSans-30"/>
      </g>
     </g>
    </g>
    <g id="xtick_4">
     <g id="line2d_4">
      <g>
       <use xlink:href="#ma6cdfacc74" x="277.203183" y="288.430125" style="stroke: #000000; stroke-width: 0.8"/>
      </g>
     </g>
     <g id="text_4">
      <!-- 1 -->
      <g transform="translate(274.021933 303.028562) scale(0.1 -0.1)">
       <use xlink:href="#DejaVuSans-31"/>
      </g>
     </g>
    </g>
    <g id="xtick_5">
     <g id="line2d_5">
      <g>
       <use xlink:href="#ma6cdfacc74" x="345.728903" y="288.430125" style="stroke: #000000; stroke-width: 0.8"/>
      </g>
     </g>
     <g id="text_5">
      <!-- 2 -->
      <g transform="translate(342.547653 303.028562) scale(0.1 -0.1)">
       <use xlink:href="#DejaVuSans-32"/>
      </g>
     </g>
    </g>
    <g id="text_6">
     <!-- Theoretical Quantiles -->
     <g transform="translate(167.904531 316.706687) scale(0.1 -0.1)">
      <defs>
       <path id="DejaVuSans-54" d="M -19 4666 
L 3928 4666 
L 3928 4134 
L 2272 4134 
L 2272 0 
L 1638 0 
L 1638 4134 
L -19 4134 
L -19 4666 
z
" transform="scale(0.015625)"/>
       <path id="DejaVuSans-68" d="M 3513 2113 
L 3513 0 
L 2938 0 
L 2938 2094 
Q 2938 2591 2744 2837 
Q 2550 3084 2163 3084 
Q 1697 3084 1428 2787 
Q 1159 2491 1159 1978 
L 1159 0 
L 581 0 
L 581 4863 
L 1159 4863 
L 1159 2956 
Q 1366 3272 1645 3428 
Q 1925 3584 2291 3584 
Q 2894 3584 3203 3211 
Q 3513 2838 3513 2113 
z
" transform="scale(0.015625)"/>
       <path id="DejaVuSans-65" d="M 3597 1894 
L 3597 1613 
L 953 1613 
Q 991 1019 1311 708 
Q 1631 397 2203 397 
Q 2534 397 2845 478 
Q 3156 559 3463 722 
L 3463 178 
Q 3153 47 2828 -22 
Q 2503 -91 2169 -91 
Q 1331 -91 842 396 
Q 353 884 353 1716 
Q 353 2575 817 3079 
Q 1281 3584 2069 3584 
Q 2775 3584 3186 3129 
Q 3597 2675 3597 1894 
z
M 3022 2063 
Q 3016 2534 2758 2815 
Q 2500 3097 2075 3097 
Q 1594 3097 1305 2825 
Q 1016 2553 972 2059 
L 3022 2063 
z
" transform="scale(0.015625)"/>
       <path id="DejaVuSans-6f" d="M 1959 3097 
Q 1497 3097 1228 2736 
Q 959 2375 959 1747 
Q 959 1119 1226 758 
Q 1494 397 1959 397 
Q 2419 397 2687 759 
Q 2956 1122 2956 1747 
Q 2956 2369 2687 2733 
Q 2419 3097 1959 3097 
z
M 1959 3584 
Q 2709 3584 3137 3096 
Q 3566 2609 3566 1747 
Q 3566 888 3137 398 
Q 2709 -91 1959 -91 
Q 1206 -91 779 398 
Q 353 888 353 1747 
Q 353 2609 779 3096 
Q 1206 3584 1959 3584 
z
" transform="scale(0.015625)"/>
       <path id="DejaVuSans-72" d="M 2631 2963 
Q 2534 3019 2420 3045 
Q 2306 3072 2169 3072 
Q 1681 3072 1420 2755 
Q 1159 2438 1159 1844 
L 1159 0 
L 581 0 
L 581 3500 
L 1159 3500 
L 1159 2956 
Q 1341 3275 1631 3429 
Q 1922 3584 2338 3584 
Q 2397 3584 2469 3576 
Q 2541 3569 2628 3553 
L 2631 2963 
z
" transform="scale(0.015625)"/>
       <path id="DejaVuSans-74" d="M 1172 4494 
L 1172 3500 
L 2356 3500 
L 2356 3053 
L 1172 3053 
L 1172 1153 
Q 1172 725 1289 603 
Q 1406 481 1766 481 
L 2356 481 
L 2356 0 
L 1766 0 
Q 1100 0 847 248 
Q 594 497 594 1153 
L 594 3053 
L 172 3053 
L 172 3500 
L 594 3500 
L 594 4494 
L 1172 4494 
z
" transform="scale(0.015625)"/>
       <path id="DejaVuSans-69" d="M 603 3500 
L 1178 3500 
L 1178 0 
L 603 0 
L 603 3500 
z
M 603 4863 
L 1178 4863 
L 1178 4134 
L 603 4134 
L 603 4863 
z
" transform="scale(0.015625)"/>
       <path id="DejaVuSans-63" d="M 3122 3366 
L 3122 2828 
Q 2878 2963 2633 3030 
Q 2388 3097 2138 3097 
Q 1578 3097 1268 2742 
Q 959 2388 959 1747 
Q 959 1106 1268 751 
Q 1578 397 2138 397 
Q 2388 397 2633 464 
Q 2878 531 3122 666 
L 3122 134 
Q 2881 22 2623 -34 
Q 2366 -91 2075 -91 
Q 1284 -91 818 406 
Q 353 903 353 1747 
Q 353 2603 823 3093 
Q 1294 3584 2113 3584 
Q 2378 3584 2631 3529 
Q 2884 3475 3122 3366 
z
" transform="scale(0.015625)"/>
       <path id="DejaVuSans-61" d="M 2194 1759 
Q 1497 1759 1228 1600 
Q 959 1441 959 1056 
Q 959 750 1161 570 
Q 1363 391 1709 391 
Q 2188 391 2477 730 
Q 2766 1069 2766 1631 
L 2766 1759 
L 2194 1759 
z
M 3341 1997 
L 3341 0 
L 2766 0 
L 2766 531 
Q 2569 213 2275 61 
Q 1981 -91 1556 -91 
Q 1019 -91 701 211 
Q 384 513 384 1019 
Q 384 1609 779 1909 
Q 1175 2209 1959 2209 
L 2766 2209 
L 2766 2266 
Q 2766 2663 2505 2880 
Q 2244 3097 1772 3097 
Q 1472 3097 1187 3025 
Q 903 2953 641 2809 
L 641 3341 
Q 956 3463 1253 3523 
Q 1550 3584 1831 3584 
Q 2591 3584 2966 3190 
Q 3341 2797 3341 1997 
z
" transform="scale(0.015625)"/>
       <path id="DejaVuSans-6c" d="M 603 4863 
L 1178 4863 
L 1178 0 
L 603 0 
L 603 4863 
z
" transform="scale(0.015625)"/>
       <path id="DejaVuSans-20" transform="scale(0.015625)"/>
       <path id="DejaVuSans-51" d="M 2522 4238 
Q 1834 4238 1429 3725 
Q 1025 3213 1025 2328 
Q 1025 1447 1429 934 
Q 1834 422 2522 422 
Q 3209 422 3611 934 
Q 4013 1447 4013 2328 
Q 4013 3213 3611 3725 
Q 3209 4238 2522 4238 
z
M 3406 84 
L 4238 -825 
L 3475 -825 
L 2784 -78 
Q 2681 -84 2626 -87 
Q 2572 -91 2522 -91 
Q 1538 -91 948 567 
Q 359 1225 359 2328 
Q 359 3434 948 4092 
Q 1538 4750 2522 4750 
Q 3503 4750 4090 4092 
Q 4678 3434 4678 2328 
Q 4678 1516 4351 937 
Q 4025 359 3406 84 
z
" transform="scale(0.015625)"/>
       <path id="DejaVuSans-75" d="M 544 1381 
L 544 3500 
L 1119 3500 
L 1119 1403 
Q 1119 906 1312 657 
Q 1506 409 1894 409 
Q 2359 409 2629 706 
Q 2900 1003 2900 1516 
L 2900 3500 
L 3475 3500 
L 3475 0 
L 2900 0 
L 2900 538 
Q 2691 219 2414 64 
Q 2138 -91 1772 -91 
Q 1169 -91 856 284 
Q 544 659 544 1381 
z
M 1991 3584 
L 1991 3584 
z
" transform="scale(0.015625)"/>
       <path id="DejaVuSans-6e" d="M 3513 2113 
L 3513 0 
L 2938 0 
L 2938 2094 
Q 2938 2591 2744 2837 
Q 2550 3084 2163 3084 
Q 1697 3084 1428 2787 
Q 1159 2491 1159 1978 
L 1159 0 
L 581 0 
L 581 3500 
L 1159 3500 
L 1159 2956 
Q 1366 3272 1645 3428 
Q 1925 3584 2291 3584 
Q 2894 3584 3203 3211 
Q 3513 2838 3513 2113 
z
" transform="scale(0.015625)"/>
       <path id="DejaVuSans-73" d="M 2834 3397 
L 2834 2853 
Q 2591 2978 2328 3040 
Q 2066 3103 1784 3103 
Q 1356 3103 1142 2972 
Q 928 2841 928 2578 
Q 928 2378 1081 2264 
Q 1234 2150 1697 2047 
L 1894 2003 
Q 2506 1872 2764 1633 
Q 3022 1394 3022 966 
Q 3022 478 2636 193 
Q 2250 -91 1575 -91 
Q 1294 -91 989 -36 
Q 684 19 347 128 
L 347 722 
Q 666 556 975 473 
Q 1284 391 1588 391 
Q 1994 391 2212 530 
Q 2431 669 2431 922 
Q 2431 1156 2273 1281 
Q 2116 1406 1581 1522 
L 1381 1569 
Q 847 1681 609 1914 
Q 372 2147 372 2553 
Q 372 3047 722 3315 
Q 1072 3584 1716 3584 
Q 2034 3584 2315 3537 
Q 2597 3491 2834 3397 
z
" transform="scale(0.015625)"/>
      </defs>
      <use xlink:href="#DejaVuSans-54"/>
      <use xlink:href="#DejaVuSans-68" x="61.083984"/>
      <use xlink:href="#DejaVuSans-65" x="124.462891"/>
      <use xlink:href="#DejaVuSans-6f" x="185.986328"/>
      <use xlink:href="#DejaVuSans-72" x="247.167969"/>
      <use xlink:href="#DejaVuSans-65" x="286.03125"/>
      <use xlink:href="#DejaVuSans-74" x="347.554688"/>
      <use xlink:href="#DejaVuSans-69" x="386.763672"/>
      <use xlink:href="#DejaVuSans-63" x="414.546875"/>
      <use xlink:href="#DejaVuSans-61" x="469.527344"/>
      <use xlink:href="#DejaVuSans-6c" x="530.806641"/>
      <use xlink:href="#DejaVuSans-20" x="558.589844"/>
      <use xlink:href="#DejaVuSans-51" x="590.376953"/>
      <use xlink:href="#DejaVuSans-75" x="669.087891"/>
      <use xlink:href="#DejaVuSans-61" x="732.466797"/>
      <use xlink:href="#DejaVuSans-6e" x="793.746094"/>
      <use xlink:href="#DejaVuSans-74" x="857.125"/>
      <use xlink:href="#DejaVuSans-69" x="896.333984"/>
      <use xlink:href="#DejaVuSans-6c" x="924.117188"/>
      <use xlink:href="#DejaVuSans-65" x="951.900391"/>
      <use xlink:href="#DejaVuSans-73" x="1013.423828"/>
     </g>
    </g>
   </g>
   <g id="matplotlib.axis_2">
    <g id="ytick_1">
     <g id="line2d_6">
      <defs>
       <path id="mf40edc6009" d="M 0 0 
L -3.5 0 
" style="stroke: #000000; stroke-width: 0.8"/>
      </defs>
      <g>
       <use xlink:href="#mf40edc6009" x="42.620313" y="266.816193" style="stroke: #000000; stroke-width: 0.8"/>
      </g>
     </g>
     <g id="text_7">
      <!-- −2 -->
      <g transform="translate(20.878125 270.615412) scale(0.1 -0.1)">
       <use xlink:href="#DejaVuSans-2212"/>
       <use xlink:href="#DejaVuSans-32" x="83.789062"/>
      </g>
     </g>
    </g>
    <g id="ytick_2">
     <g id="line2d_7">
      <g>
       <use xlink:href="#mf40edc6009" x="42.620313" y="215.753479" style="stroke: #000000; stroke-width: 0.8"/>
      </g>
     </g>
     <g id="text_8">
      <!-- −1 -->
      <g transform="translate(20.878125 219.552698) scale(0.1 -0.1)">
       <use xlink:href="#DejaVuSans-2212"/>
       <use xlink:href="#DejaVuSans-31" x="83.789062"/>
      </g>
     </g>
    </g>
    <g id="ytick_3">
     <g id="line2d_8">
      <g>
       <use xlink:href="#mf40edc6009" x="42.620313" y="164.690765" style="stroke: #000000; stroke-width: 0.8"/>
      </g>
     </g>
     <g id="text_9">
      <!-- 0 -->
      <g transform="translate(29.257813 168.489984) scale(0.1 -0.1)">
       <use xlink:href="#DejaVuSans-30"/>
      </g>
     </g>
    </g>
    <g id="ytick_4">
     <g id="line2d_9">
      <g>
       <use xlink:href="#mf40edc6009" x="42.620313" y="113.628051" style="stroke: #000000; stroke-width: 0.8"/>
      </g>
     </g>
     <g id="text_10">
      <!-- 1 -->
      <g transform="translate(29.257813 117.42727) scale(0.1 -0.1)">
       <use xlink:href="#DejaVuSans-31"/>
      </g>
     </g>
    </g>
    <g id="ytick_5">
     <g id="line2d_10">
      <g>
       <use xlink:href="#mf40edc6009" x="42.620313" y="62.565337" style="stroke: #000000; stroke-width: 0.8"/>
      </g>
     </g>
     <g id="text_11">
      <!-- 2 -->
      <g transform="translate(29.257813 66.364556) scale(0.1 -0.1)">
       <use xlink:href="#DejaVuSans-32"/>
      </g>
     </g>
    </g>
    <g id="text_12">
     <!-- Sample Quantiles -->
     <g transform="translate(14.798438 199.468656) rotate(-90) scale(0.1 -0.1)">
      <defs>
       <path id="DejaVuSans-53" d="M 3425 4513 
L 3425 3897 
Q 3066 4069 2747 4153 
Q 2428 4238 2131 4238 
Q 1616 4238 1336 4038 
Q 1056 3838 1056 3469 
Q 1056 3159 1242 3001 
Q 1428 2844 1947 2747 
L 2328 2669 
Q 3034 2534 3370 2195 
Q 3706 1856 3706 1288 
Q 3706 609 3251 259 
Q 2797 -91 1919 -91 
Q 1588 -91 1214 -16 
Q 841 59 441 206 
L 441 856 
Q 825 641 1194 531 
Q 1563 422 1919 422 
Q 2459 422 2753 634 
Q 3047 847 3047 1241 
Q 3047 1584 2836 1778 
Q 2625 1972 2144 2069 
L 1759 2144 
Q 1053 2284 737 2584 
Q 422 2884 422 3419 
Q 422 4038 858 4394 
Q 1294 4750 2059 4750 
Q 2388 4750 2728 4690 
Q 3069 4631 3425 4513 
z
" transform="scale(0.015625)"/>
       <path id="DejaVuSans-6d" d="M 3328 2828 
Q 3544 3216 3844 3400 
Q 4144 3584 4550 3584 
Q 5097 3584 5394 3201 
Q 5691 2819 5691 2113 
L 5691 0 
L 5113 0 
L 5113 2094 
Q 5113 2597 4934 2840 
Q 4756 3084 4391 3084 
Q 3944 3084 3684 2787 
Q 3425 2491 3425 1978 
L 3425 0 
L 2847 0 
L 2847 2094 
Q 2847 2600 2669 2842 
Q 2491 3084 2119 3084 
Q 1678 3084 1418 2786 
Q 1159 2488 1159 1978 
L 1159 0 
L 581 0 
L 581 3500 
L 1159 3500 
L 1159 2956 
Q 1356 3278 1631 3431 
Q 1906 3584 2284 3584 
Q 2666 3584 2933 3390 
Q 3200 3197 3328 2828 
z
" transform="scale(0.015625)"/>
       <path id="DejaVuSans-70" d="M 1159 525 
L 1159 -1331 
L 581 -1331 
L 581 3500 
L 1159 3500 
L 1159 2969 
Q 1341 3281 1617 3432 
Q 1894 3584 2278 3584 
Q 2916 3584 3314 3078 
Q 3713 2572 3713 1747 
Q 3713 922 3314 415 
Q 2916 -91 2278 -91 
Q 1894 -91 1617 61 
Q 1341 213 1159 525 
z
M 3116 1747 
Q 3116 2381 2855 2742 
Q 2594 3103 2138 3103 
Q 1681 3103 1420 2742 
Q 1159 2381 1159 1747 
Q 1159 1113 1420 752 
Q 1681 391 2138 391 
Q 2594 391 2855 752 
Q 3116 1113 3116 1747 
z
" transform="scale(0.015625)"/>
      </defs>
      <use xlink:href="#DejaVuSans-53"/>
      <use xlink:href="#DejaVuSans-61" x="63.476562"/>
      <use xlink:href="#DejaVuSans-6d" x="124.755859"/>
      <use xlink:href="#DejaVuSans-70" x="222.167969"/>
      <use xlink:href="#DejaVuSans-6c" x="285.644531"/>
      <use xlink:href="#DejaVuSans-65" x="313.427734"/>
      <use xlink:href="#DejaVuSans-20" x="374.951172"/>
      <use xlink:href="#DejaVuSans-51" x="406.738281"/>
      <use xlink:href="#DejaVuSans-75" x="485.449219"/>
      <use xlink:href="#DejaVuSans-61" x="548.828125"/>
      <use xlink:href="#DejaVuSans-6e" x="610.107422"/>
      <use xlink:href="#DejaVuSans-74" x="673.486328"/>
      <use xlink:href="#DejaVuSans-69" x="712.695312"/>
      <use xlink:href="#DejaVuSans-6c" x="740.478516"/>
      <use xlink:href="#DejaVuSans-65" x="768.261719"/>
      <use xlink:href="#DejaVuSans-73" x="829.785156"/>
     </g>
    </g>
   </g>
   <g id="line2d_11">
    <defs>
     <path id="m16575a7438" d="M 0 3 
C 0.795609 3 1.55874 2.683901 2.12132 2.12132 
C 2.683901 1.55874 3 0.795609 3 0 
C 3 -0.795609 2.683901 -1.55874 2.12132 -2.12132 
C 1.55874 -2.683901 0.795609 -3 0 -3 
C -0.795609 -3 -1.55874 -2.683901 -2.12132 -2.12132 
C -2.683901 -1.55874 -3 -0.795609 -3 0 
C -3 0.795609 -2.683901 1.55874 -2.12132 2.12132 
C -1.55874 2.683901 -0.795609 3 0 3 
z
" style="stroke: #1f77b4"/>
    </defs>
    <g clip-path="url(#paa625e03e7)">
     <use xlink:href="#m16575a7438" x="49.007126" y="274.276705" style="fill: #1f77b4; stroke: #1f77b4"/>
     <use xlink:href="#m16575a7438" x="67.661399" y="264.632065" style="fill: #1f77b4; stroke: #1f77b4"/>
     <use xlink:href="#m16575a7438" x="79.494348" y="260.772054" style="fill: #1f77b4; stroke: #1f77b4"/>
     <use xlink:href="#m16575a7438" x="88.394231" y="252.51743" style="fill: #1f77b4; stroke: #1f77b4"/>
     <use xlink:href="#m16575a7438" x="95.632454" y="249.455684" style="fill: #1f77b4; stroke: #1f77b4"/>
     <use xlink:href="#m16575a7438" x="101.792415" y="246.802052" style="fill: #1f77b4; stroke: #1f77b4"/>
     <use xlink:href="#m16575a7438" x="107.192745" y="245.471017" style="fill: #1f77b4; stroke: #1f77b4"/>
     <use xlink:href="#m16575a7438" x="112.027448" y="243.029363" style="fill: #1f77b4; stroke: #1f77b4"/>
     <use xlink:href="#m16575a7438" x="116.423844" y="237.576895" style="fill: #1f77b4; stroke: #1f77b4"/>
     <use xlink:href="#m16575a7438" x="120.470214" y="236.003496" style="fill: #1f77b4; stroke: #1f77b4"/>
     <use xlink:href="#m16575a7438" x="124.230417" y="235.005769" style="fill: #1f77b4; stroke: #1f77b4"/>
     <use xlink:href="#m16575a7438" x="127.752216" y="230.422677" style="fill: #1f77b4; stroke: #1f77b4"/>
     <use xlink:href="#m16575a7438" x="131.072322" y="228.013161" style="fill: #1f77b4; stroke: #1f77b4"/>
     <use xlink:href="#m16575a7438" x="134.2196" y="227.061573" style="fill: #1f77b4; stroke: #1f77b4"/>
     <use xlink:href="#m16575a7438" x="137.21718" y="224.207787" style="fill: #1f77b4; stroke: #1f77b4"/>
     <use xlink:href="#m16575a7438" x="140.083907" y="214.506821" style="fill: #1f77b4; stroke: #1f77b4"/>
     <use xlink:href="#m16575a7438" x="142.835351" y="211.305782" style="fill: #1f77b4; stroke: #1f77b4"/>
     <use xlink:href="#m16575a7438" x="145.484538" y="211.292843" style="fill: #1f77b4; stroke: #1f77b4"/>
     <use xlink:href="#m16575a7438" x="148.04249" y="210.396015" style="fill: #1f77b4; stroke: #1f77b4"/>
     <use xlink:href="#m16575a7438" x="150.51862" y="209.092285" style="fill: #1f77b4; stroke: #1f77b4"/>
     <use xlink:href="#m16575a7438" x="152.921044" y="208.883315" style="fill: #1f77b4; stroke: #1f77b4"/>
     <use xlink:href="#m16575a7438" x="155.256814" y="207.892686" style="fill: #1f77b4; stroke: #1f77b4"/>
     <use xlink:href="#m16575a7438" x="157.532103" y="207.341014" style="fill: #1f77b4; stroke: #1f77b4"/>
     <use xlink:href="#m16575a7438" x="159.752353" y="207.174575" style="fill: #1f77b4; stroke: #1f77b4"/>
     <use xlink:href="#m16575a7438" x="161.922389" y="206.914938" style="fill: #1f77b4; stroke: #1f77b4"/>
     <use xlink:href="#m16575a7438" x="164.046516" y="205.102669" style="fill: #1f77b4; stroke: #1f77b4"/>
     <use xlink:href="#m16575a7438" x="166.128598" y="195.422269" style="fill: #1f77b4; stroke: #1f77b4"/>
     <use xlink:href="#m16575a7438" x="168.172116" y="191.186164" style="fill: #1f77b4; stroke: #1f77b4"/>
     <use xlink:href="#m16575a7438" x="170.180229" y="188.855199" style="fill: #1f77b4; stroke: #1f77b4"/>
     <use xlink:href="#m16575a7438" x="172.15581" y="188.138245" style="fill: #1f77b4; stroke: #1f77b4"/>
     <use xlink:href="#m16575a7438" x="174.101489" y="187.922697" style="fill: #1f77b4; stroke: #1f77b4"/>
     <use xlink:href="#m16575a7438" x="176.01968" y="186.938675" style="fill: #1f77b4; stroke: #1f77b4"/>
     <use xlink:href="#m16575a7438" x="177.912614" y="185.3316" style="fill: #1f77b4; stroke: #1f77b4"/>
     <use xlink:href="#m16575a7438" x="179.782355" y="185.279671" style="fill: #1f77b4; stroke: #1f77b4"/>
     <use xlink:href="#m16575a7438" x="181.630825" y="183.744564" style="fill: #1f77b4; stroke: #1f77b4"/>
     <use xlink:href="#m16575a7438" x="183.459818" y="182.154428" style="fill: #1f77b4; stroke: #1f77b4"/>
     <use xlink:href="#m16575a7438" x="185.271018" y="181.832347" style="fill: #1f77b4; stroke: #1f77b4"/>
     <use xlink:href="#m16575a7438" x="187.06601" y="180.681039" style="fill: #1f77b4; stroke: #1f77b4"/>
     <use xlink:href="#m16575a7438" x="188.846292" y="180.311397" style="fill: #1f77b4; stroke: #1f77b4"/>
     <use xlink:href="#m16575a7438" x="190.613287" y="175.703726" style="fill: #1f77b4; stroke: #1f77b4"/>
     <use xlink:href="#m16575a7438" x="192.368349" y="170.984517" style="fill: #1f77b4; stroke: #1f77b4"/>
     <use xlink:href="#m16575a7438" x="194.112777" y="170.604138" style="fill: #1f77b4; stroke: #1f77b4"/>
     <use xlink:href="#m16575a7438" x="195.847815" y="169.970735" style="fill: #1f77b4; stroke: #1f77b4"/>
     <use xlink:href="#m16575a7438" x="197.574666" y="169.068165" style="fill: #1f77b4; stroke: #1f77b4"/>
     <use xlink:href="#m16575a7438" x="199.294494" y="168.992653" style="fill: #1f77b4; stroke: #1f77b4"/>
     <use xlink:href="#m16575a7438" x="201.008431" y="167.639296" style="fill: #1f77b4; stroke: #1f77b4"/>
     <use xlink:href="#m16575a7438" x="202.717583" y="166.647781" style="fill: #1f77b4; stroke: #1f77b4"/>
     <use xlink:href="#m16575a7438" x="204.423035" y="165.532961" style="fill: #1f77b4; stroke: #1f77b4"/>
     <use xlink:href="#m16575a7438" x="206.125855" y="162.536815" style="fill: #1f77b4; stroke: #1f77b4"/>
     <use xlink:href="#m16575a7438" x="207.827101" y="162.180305" style="fill: #1f77b4; stroke: #1f77b4"/>
     <use xlink:href="#m16575a7438" x="209.527823" y="161.779647" style="fill: #1f77b4; stroke: #1f77b4"/>
     <use xlink:href="#m16575a7438" x="211.229069" y="160.576457" style="fill: #1f77b4; stroke: #1f77b4"/>
     <use xlink:href="#m16575a7438" x="212.93189" y="160.524237" style="fill: #1f77b4; stroke: #1f77b4"/>
     <use xlink:href="#m16575a7438" x="214.637342" y="160.19553" style="fill: #1f77b4; stroke: #1f77b4"/>
     <use xlink:href="#m16575a7438" x="216.346494" y="158.431185" style="fill: #1f77b4; stroke: #1f77b4"/>
     <use xlink:href="#m16575a7438" x="218.060431" y="157.295493" style="fill: #1f77b4; stroke: #1f77b4"/>
     <use xlink:href="#m16575a7438" x="219.780258" y="156.64389" style="fill: #1f77b4; stroke: #1f77b4"/>
     <use xlink:href="#m16575a7438" x="221.507109" y="156.348228" style="fill: #1f77b4; stroke: #1f77b4"/>
     <use xlink:href="#m16575a7438" x="223.242148" y="152.73323" style="fill: #1f77b4; stroke: #1f77b4"/>
     <use xlink:href="#m16575a7438" x="224.986575" y="152.568092" style="fill: #1f77b4; stroke: #1f77b4"/>
     <use xlink:href="#m16575a7438" x="226.741638" y="152.538374" style="fill: #1f77b4; stroke: #1f77b4"/>
     <use xlink:href="#m16575a7438" x="228.508633" y="150.886655" style="fill: #1f77b4; stroke: #1f77b4"/>
     <use xlink:href="#m16575a7438" x="230.288915" y="148.923368" style="fill: #1f77b4; stroke: #1f77b4"/>
     <use xlink:href="#m16575a7438" x="232.083906" y="148.269429" style="fill: #1f77b4; stroke: #1f77b4"/>
     <use xlink:href="#m16575a7438" x="233.895106" y="147.100303" style="fill: #1f77b4; stroke: #1f77b4"/>
     <use xlink:href="#m16575a7438" x="235.724099" y="146.695068" style="fill: #1f77b4; stroke: #1f77b4"/>
     <use xlink:href="#m16575a7438" x="237.572569" y="146.347331" style="fill: #1f77b4; stroke: #1f77b4"/>
     <use xlink:href="#m16575a7438" x="239.44231" y="145.452488" style="fill: #1f77b4; stroke: #1f77b4"/>
     <use xlink:href="#m16575a7438" x="241.335244" y="144.870419" style="fill: #1f77b4; stroke: #1f77b4"/>
     <use xlink:href="#m16575a7438" x="243.253436" y="144.200263" style="fill: #1f77b4; stroke: #1f77b4"/>
     <use xlink:href="#m16575a7438" x="245.199115" y="144.089568" style="fill: #1f77b4; stroke: #1f77b4"/>
     <use xlink:href="#m16575a7438" x="247.174696" y="142.187074" style="fill: #1f77b4; stroke: #1f77b4"/>
     <use xlink:href="#m16575a7438" x="249.182808" y="141.106949" style="fill: #1f77b4; stroke: #1f77b4"/>
     <use xlink:href="#m16575a7438" x="251.226327" y="138.717885" style="fill: #1f77b4; stroke: #1f77b4"/>
     <use xlink:href="#m16575a7438" x="253.308409" y="138.165572" style="fill: #1f77b4; stroke: #1f77b4"/>
     <use xlink:href="#m16575a7438" x="255.432536" y="137.929627" style="fill: #1f77b4; stroke: #1f77b4"/>
     <use xlink:href="#m16575a7438" x="257.602572" y="133.686286" style="fill: #1f77b4; stroke: #1f77b4"/>
     <use xlink:href="#m16575a7438" x="259.822822" y="132.874322" style="fill: #1f77b4; stroke: #1f77b4"/>
     <use xlink:href="#m16575a7438" x="262.098111" y="129.262229" style="fill: #1f77b4; stroke: #1f77b4"/>
     <use xlink:href="#m16575a7438" x="264.433881" y="127.069337" style="fill: #1f77b4; stroke: #1f77b4"/>
     <use xlink:href="#m16575a7438" x="266.836305" y="127.054694" style="fill: #1f77b4; stroke: #1f77b4"/>
     <use xlink:href="#m16575a7438" x="269.312435" y="125.180387" style="fill: #1f77b4; stroke: #1f77b4"/>
     <use xlink:href="#m16575a7438" x="271.870386" y="124.335828" style="fill: #1f77b4; stroke: #1f77b4"/>
     <use xlink:href="#m16575a7438" x="274.519574" y="123.668967" style="fill: #1f77b4; stroke: #1f77b4"/>
     <use xlink:href="#m16575a7438" x="277.271017" y="117.05235" style="fill: #1f77b4; stroke: #1f77b4"/>
     <use xlink:href="#m16575a7438" x="280.137744" y="111.044666" style="fill: #1f77b4; stroke: #1f77b4"/>
     <use xlink:href="#m16575a7438" x="283.135325" y="110.397614" style="fill: #1f77b4; stroke: #1f77b4"/>
     <use xlink:href="#m16575a7438" x="286.282603" y="109.002682" style="fill: #1f77b4; stroke: #1f77b4"/>
     <use xlink:href="#m16575a7438" x="289.602709" y="106.670519" style="fill: #1f77b4; stroke: #1f77b4"/>
     <use xlink:href="#m16575a7438" x="293.124507" y="98.953649" style="fill: #1f77b4; stroke: #1f77b4"/>
     <use xlink:href="#m16575a7438" x="296.88471" y="91.974182" style="fill: #1f77b4; stroke: #1f77b4"/>
     <use xlink:href="#m16575a7438" x="300.931081" y="91.374327" style="fill: #1f77b4; stroke: #1f77b4"/>
     <use xlink:href="#m16575a7438" x="305.327476" y="89.014141" style="fill: #1f77b4; stroke: #1f77b4"/>
     <use xlink:href="#m16575a7438" x="310.16218" y="88.414354" style="fill: #1f77b4; stroke: #1f77b4"/>
     <use xlink:href="#m16575a7438" x="315.56251" y="80.292272" style="fill: #1f77b4; stroke: #1f77b4"/>
     <use xlink:href="#m16575a7438" x="321.722471" y="53.796864" style="fill: #1f77b4; stroke: #1f77b4"/>
     <use xlink:href="#m16575a7438" x="328.960693" y="50.430679" style="fill: #1f77b4; stroke: #1f77b4"/>
     <use xlink:href="#m16575a7438" x="337.860576" y="48.276818" style="fill: #1f77b4; stroke: #1f77b4"/>
     <use xlink:href="#m16575a7438" x="349.693525" y="47.54676" style="fill: #1f77b4; stroke: #1f77b4"/>
     <use xlink:href="#m16575a7438" x="368.347799" y="34.316153" style="fill: #1f77b4; stroke: #1f77b4"/>
    </g>
   </g>
   <g id="line2d_12">
    <path d="M 42.620312 288.430125 
L 399.740312 22.318125 
" clip-path="url(#paa625e03e7)" style="fill: none; stroke: #ff0000; stroke-width: 1.5; stroke-linecap: square"/>
   </g>
   <g id="patch_3">
    <path d="M 42.620313 288.430125 
L 42.620313 22.318125 
" style="fill: none; stroke: #000000; stroke-width: 0.8; stroke-linejoin: miter; stroke-linecap: square"/>
   </g>
   <g id="patch_4">
    <path d="M 399.740313 288.430125 
L 399.740313 22.318125 
" style="fill: none; stroke: #000000; stroke-width: 0.8; stroke-linejoin: miter; stroke-linecap: square"/>
   </g>
   <g id="patch_5">
    <path d="M 42.620312 288.430125 
L 399.740312 288.430125 
" style="fill: none; stroke: #000000; stroke-width: 0.8; stroke-linejoin: miter; stroke-linecap: square"/>
   </g>
   <g id="patch_6">
    <path d="M 42.620312 22.318125 
L 399.740312 22.318125 
" style="fill: none; stroke: #000000; stroke-width: 0.8; stroke-linejoin: miter; stroke-linecap: square"/>
   </g>
   <g id="text_13">
    <!-- Normality Check - Q-Q Plot -->
    <g transform="translate(140.349063 16.318125) scale(0.12 -0.12)">
     <defs>
      <path id="DejaVuSans-4e" d="M 628 4666 
L 1478 4666 
L 3547 763 
L 3547 4666 
L 4159 4666 
L 4159 0 
L 3309 0 
L 1241 3903 
L 1241 0 
L 628 0 
L 628 4666 
z
" transform="scale(0.015625)"/>
      <path id="DejaVuSans-79" d="M 2059 -325 
Q 1816 -950 1584 -1140 
Q 1353 -1331 966 -1331 
L 506 -1331 
L 506 -850 
L 844 -850 
Q 1081 -850 1212 -737 
Q 1344 -625 1503 -206 
L 1606 56 
L 191 3500 
L 800 3500 
L 1894 763 
L 2988 3500 
L 3597 3500 
L 2059 -325 
z
" transform="scale(0.015625)"/>
      <path id="DejaVuSans-43" d="M 4122 4306 
L 4122 3641 
Q 3803 3938 3442 4084 
Q 3081 4231 2675 4231 
Q 1875 4231 1450 3742 
Q 1025 3253 1025 2328 
Q 1025 1406 1450 917 
Q 1875 428 2675 428 
Q 3081 428 3442 575 
Q 3803 722 4122 1019 
L 4122 359 
Q 3791 134 3420 21 
Q 3050 -91 2638 -91 
Q 1578 -91 968 557 
Q 359 1206 359 2328 
Q 359 3453 968 4101 
Q 1578 4750 2638 4750 
Q 3056 4750 3426 4639 
Q 3797 4528 4122 4306 
z
" transform="scale(0.015625)"/>
      <path id="DejaVuSans-6b" d="M 581 4863 
L 1159 4863 
L 1159 1991 
L 2875 3500 
L 3609 3500 
L 1753 1863 
L 3688 0 
L 2938 0 
L 1159 1709 
L 1159 0 
L 581 0 
L 581 4863 
z
" transform="scale(0.015625)"/>
      <path id="DejaVuSans-2d" d="M 313 2009 
L 1997 2009 
L 1997 1497 
L 313 1497 
L 313 2009 
z
" transform="scale(0.015625)"/>
      <path id="DejaVuSans-50" d="M 1259 4147 
L 1259 2394 
L 2053 2394 
Q 2494 2394 2734 2622 
Q 2975 2850 2975 3272 
Q 2975 3691 2734 3919 
Q 2494 4147 2053 4147 
L 1259 4147 
z
M 628 4666 
L 2053 4666 
Q 2838 4666 3239 4311 
Q 3641 3956 3641 3272 
Q 3641 2581 3239 2228 
Q 2838 1875 2053 1875 
L 1259 1875 
L 1259 0 
L 628 0 
L 628 4666 
z
" transform="scale(0.015625)"/>
     </defs>
     <use xlink:href="#DejaVuSans-4e"/>
     <use xlink:href="#DejaVuSans-6f" x="74.804688"/>
     <use xlink:href="#DejaVuSans-72" x="135.986328"/>
     <use xlink:href="#DejaVuSans-6d" x="175.349609"/>
     <use xlink:href="#DejaVuSans-61" x="272.761719"/>
     <use xlink:href="#DejaVuSans-6c" x="334.041016"/>
     <use xlink:href="#DejaVuSans-69" x="361.824219"/>
     <use xlink:href="#DejaVuSans-74" x="389.607422"/>
     <use xlink:href="#DejaVuSans-79" x="428.816406"/>
     <use xlink:href="#DejaVuSans-20" x="487.996094"/>
     <use xlink:href="#DejaVuSans-43" x="519.783203"/>
     <use xlink:href="#DejaVuSans-68" x="589.607422"/>
     <use xlink:href="#DejaVuSans-65" x="652.986328"/>
     <use xlink:href="#DejaVuSans-63" x="714.509766"/>
     <use xlink:href="#DejaVuSans-6b" x="769.490234"/>
     <use xlink:href="#DejaVuSans-20" x="827.400391"/>
     <use xlink:href="#DejaVuSans-2d" x="859.1875"/>
     <use xlink:href="#DejaVuSans-20" x="895.271484"/>
     <use xlink:href="#DejaVuSans-51" x="927.058594"/>
     <use xlink:href="#DejaVuSans-2d" x="1008.519531"/>
     <use xlink:href="#DejaVuSans-51" x="1048.228516"/>
     <use xlink:href="#DejaVuSans-20" x="1126.939453"/>
     <use xlink:href="#DejaVuSans-50" x="1158.726562"/>
     <use xlink:href="#DejaVuSans-6c" x="1219.029297"/>
     <use xlink:href="#DejaVuSans-6f" x="1246.8125"/>
     <use xlink:href="#DejaVuSans-74" x="1307.994141"/>
    </g>
   </g>
  </g>
 </g>
 <defs>
  <clipPath id="paa625e03e7">
   <rect x="42.620313" y="22.318125" width="357.12" height="266.112"/>
  </clipPath>
 </defs>
</svg>