<?xml version="1.0" encoding="utf-8" standalone="no"?>
<!DOCTYPE svg PUBLIC "-//W3C//DTD SVG 1.1//EN"
  "http://www.w3.org/Graphics/SVG/1.1/DTD/svg11.dtd">
<svg xmlns:xlink="http://www.w3.org/1999/xlink" width="568.811414pt" height="568.8pt" viewBox="0 0 568.811414 568.8" xmlns="http://www.w3.org/2000/svg" version="1.1">
 <metadata>
  <rdf:RDF xmlns:dc="http://purl.org/dc/elements/1.1/" xmlns:cc="http://creativecommons.org/ns#" xmlns:rdf="http://www.w3.org/1999/02/22-rdf-syntax-ns#">
   <cc:Work>
    <dc:type rdf:resource="http://purl.org/dc/dcmitype/StillImage"/>
    <dc:date>2024-02-03T05:24:05.795424</dc:date>
    <dc:format>image/svg+xml</dc:format>
    <dc:creator>
     <cc:Agent>
      <dc:title>Matplotlib v3.8.2, https://matplotlib.org/</dc:title>
     </cc:Agent>
    </dc:creator>
   </cc:Work>
  </rdf:RDF>
 </metadata>
 <defs>
  <style type="text/css">*{stroke-linejoin: round; stroke-linecap: butt}</style>
 </defs>
 <g id="figure_1">
  <g id="patch_1">
   <path d="M 0 568.8 
L 568.811414 568.8 
L 568.811414 0 
L 0 0 
z
" style="fill: #ffffff"/>
  </g>
  <g id="patch_2">
   <path d="M 7.2 561.6 
L 561.6 561.6 
L 561.6 7.2 
L 7.2 7.2 
z
" style="fill: #ffffff"/>
  </g>
  <g id="pane3d_1">
   <g id="patch_3">
    <path d="M 49.061023 424.902727 
L 232.142009 271.440614 
L 229.597008 50.120814 
L 37.754653 190.118627 
" style="fill: #f2f2f2; opacity: 0.5; stroke: #f2f2f2; stroke-linejoin: miter"/>
   </g>
  </g>
  <g id="pane3d_2">
   <g id="patch_4">
    <path d="M 232.142009 271.440614 
L 525.921668 356.830763 
L 536.405628 127.887856 
L 229.597008 50.120814 
" style="fill: #e6e6e6; opacity: 0.5; stroke: #e6e6e6; stroke-linejoin: miter"/>
   </g>
  </g>
  <g id="pane3d_3">
   <g id="patch_5">
    <path d="M 49.061023 424.902727 
L 360.48181 526.612756 
L 525.921668 356.830763 
L 232.142009 271.440614 
" style="fill: #ececec; opacity: 0.5; stroke: #ececec; stroke-linejoin: miter"/>
   </g>
  </g>
  <g id="grid3d_1">
   <g id="Line3DCollection_1">
    <path d="M 54.975551 426.834412 
L 237.745713 273.06939 
L 235.437126 51.601114 
" style="fill: none; stroke: #b0b0b0; stroke-width: 0.8"/>
    <path d="M 112.380203 445.582771 
L 292.084707 288.86359 
L 292.093007 65.961728 
" style="fill: none; stroke: #b0b0b0; stroke-width: 0.8"/>
    <path d="M 170.941262 464.708813 
L 347.427173 304.94946 
L 349.840611 80.599063 
" style="fill: none; stroke: #b0b0b0; stroke-width: 0.8"/>
    <path d="M 230.694028 484.224066 
L 403.801164 321.335154 
L 408.711802 95.521194 
" style="fill: none; stroke: #b0b0b0; stroke-width: 0.8"/>
    <path d="M 291.67525 504.140533 
L 461.235792 338.029133 
L 468.739694 110.736514 
" style="fill: none; stroke: #b0b0b0; stroke-width: 0.8"/>
    <path d="M 353.923206 524.470715 
L 519.761275 355.04018 
L 529.958715 126.253751 
" style="fill: none; stroke: #b0b0b0; stroke-width: 0.8"/>
   </g>
  </g>
  <g id="grid3d_2">
   <g id="Line3DCollection_2">
    <path d="M 41.940996 187.063625 
L 53.041365 421.566326 
L 364.094186 522.905569 
" style="fill: none; stroke: #b0b0b0; stroke-width: 0.8"/>
    <path d="M 81.351848 158.30338 
L 90.545194 390.129872 
L 398.096851 488.01047 
" style="fill: none; stroke: #b0b0b0; stroke-width: 0.8"/>
    <path d="M 119.404519 130.534274 
L 126.812068 359.730259 
L 430.919522 454.326335 
" style="fill: none; stroke: #b0b0b0; stroke-width: 0.8"/>
    <path d="M 156.168029 103.705939 
L 161.90219 330.317024 
L 462.622574 421.791205 
" style="fill: none; stroke: #b0b0b0; stroke-width: 0.8"/>
    <path d="M 191.706798 77.771364 
L 195.871919 301.842924 
L 493.262335 390.347273 
" style="fill: none; stroke: #b0b0b0; stroke-width: 0.8"/>
    <path d="M 226.081026 52.686618 
L 228.77407 274.263688 
L 522.891415 359.940548 
" style="fill: none; stroke: #b0b0b0; stroke-width: 0.8"/>
   </g>
  </g>
  <g id="grid3d_3">
   <g id="Line3DCollection_3">
    <path d="M 526.122529 352.44447 
L 232.093149 267.191583 
L 48.844764 420.411957 
" style="fill: none; stroke: #b0b0b0; stroke-width: 0.8"/>
    <path d="M 528.068484 309.949787 
L 231.61999 226.044504 
L 46.748904 376.890073 
" style="fill: none; stroke: #b0b0b0; stroke-width: 0.8"/>
    <path d="M 530.047043 266.743109 
L 231.139284 184.241077 
L 44.616584 332.61106 
" style="fill: none; stroke: #b0b0b0; stroke-width: 0.8"/>
    <path d="M 532.059033 222.806392 
L 230.650849 141.765473 
L 42.446843 287.554985 
" style="fill: none; stroke: #b0b0b0; stroke-width: 0.8"/>
    <path d="M 534.105308 178.120974 
L 230.154496 98.601347 
L 40.238688 241.701213 
" style="fill: none; stroke: #b0b0b0; stroke-width: 0.8"/>
    <path d="M 536.186752 132.667553 
L 229.650031 54.731821 
L 37.991089 195.028371 
" style="fill: none; stroke: #b0b0b0; stroke-width: 0.8"/>
   </g>
  </g>
  <g id="axis3d_1">
   <g id="line2d_1">
    <path d="M 49.061023 424.902727 
L 360.48181 526.612756 
" style="fill: none; stroke: #000000; stroke-width: 0.8; stroke-linecap: square"/>
   </g>
   <g id="xtick_1">
    <g id="line2d_2">
     <path d="M 56.566813 425.495679 
L 51.786214 429.51761 
" style="fill: none; stroke: #000000; stroke-width: 0.8; stroke-linecap: square"/>
    </g>
    <g id="text_1">
     <!-- 0 -->
     <g transform="translate(44.273665 450.070489) scale(0.1 -0.1)">
      <defs>
       <path id="DejaVuSans-30" d="M 2034 4250 
Q 1547 4250 1301 3770 
Q 1056 3291 1056 2328 
Q 1056 1369 1301 889 
Q 1547 409 2034 409 
Q 2525 409 2770 889 
Q 3016 1369 3016 2328 
Q 3016 3291 2770 3770 
Q 2525 4250 2034 4250 
z
M 2034 4750 
Q 2819 4750 3233 4129 
Q 3647 3509 3647 2328 
Q 3647 1150 3233 529 
Q 2819 -91 2034 -91 
Q 1250 -91 836 529 
Q 422 1150 422 2328 
Q 422 3509 836 4129 
Q 1250 4750 2034 4750 
z
" transform="scale(0.015625)"/>
      </defs>
      <use xlink:href="#DejaVuSans-30"/>
     </g>
    </g>
   </g>
   <g id="xtick_2">
    <g id="line2d_3">
     <path d="M 113.946039 444.217215 
L 109.241759 448.319788 
" style="fill: none; stroke: #000000; stroke-width: 0.8; stroke-linecap: square"/>
    </g>
    <g id="text_2">
     <!-- 2 -->
     <g transform="translate(101.706205 469.008712) scale(0.1 -0.1)">
      <defs>
       <path id="DejaVuSans-32" d="M 1228 531 
L 3431 531 
L 3431 0 
L 469 0 
L 469 531 
Q 828 903 1448 1529 
Q 2069 2156 2228 2338 
Q 2531 2678 2651 2914 
Q 2772 3150 2772 3378 
Q 2772 3750 2511 3984 
Q 2250 4219 1831 4219 
Q 1534 4219 1204 4116 
Q 875 4013 500 3803 
L 500 4441 
Q 881 4594 1212 4672 
Q 1544 4750 1819 4750 
Q 2544 4750 2975 4387 
Q 3406 4025 3406 3419 
Q 3406 3131 3298 2873 
Q 3191 2616 2906 2266 
Q 2828 2175 2409 1742 
Q 1991 1309 1228 531 
z
" transform="scale(0.015625)"/>
      </defs>
      <use xlink:href="#DejaVuSans-32"/>
     </g>
    </g>
   </g>
   <g id="xtick_3">
    <g id="line2d_4">
     <path d="M 172.480321 463.315619 
L 167.856423 467.501285 
" style="fill: none; stroke: #000000; stroke-width: 0.8; stroke-linecap: square"/>
    </g>
    <g id="text_3">
     <!-- 4 -->
     <g transform="translate(160.29781 488.329133) scale(0.1 -0.1)">
      <defs>
       <path id="DejaVuSans-34" d="M 2419 4116 
L 825 1625 
L 2419 1625 
L 2419 4116 
z
M 2253 4666 
L 3047 4666 
L 3047 1625 
L 3713 1625 
L 3713 1100 
L 3047 1100 
L 3047 0 
L 2419 0 
L 2419 1100 
L 313 1100 
L 313 1709 
L 2253 4666 
z
" transform="scale(0.015625)"/>
      </defs>
      <use xlink:href="#DejaVuSans-34"/>
     </g>
    </g>
   </g>
   <g id="xtick_4">
    <g id="line2d_5">
     <path d="M 232.20489 482.802388 
L 227.665637 487.073696 
" style="fill: none; stroke: #000000; stroke-width: 0.8; stroke-linecap: square"/>
    </g>
    <g id="text_4">
     <!-- 6 -->
     <g transform="translate(220.083928 508.043442) scale(0.1 -0.1)">
      <defs>
       <path id="DejaVuSans-36" d="M 2113 2584 
Q 1688 2584 1439 2293 
Q 1191 2003 1191 1497 
Q 1191 994 1439 701 
Q 1688 409 2113 409 
Q 2538 409 2786 701 
Q 3034 994 3034 1497 
Q 3034 2003 2786 2293 
Q 2538 2584 2113 2584 
z
M 3366 4563 
L 3366 3988 
Q 3128 4100 2886 4159 
Q 2644 4219 2406 4219 
Q 1781 4219 1451 3797 
Q 1122 3375 1075 2522 
Q 1259 2794 1537 2939 
Q 1816 3084 2150 3084 
Q 2853 3084 3261 2657 
Q 3669 2231 3669 1497 
Q 3669 778 3244 343 
Q 2819 -91 2113 -91 
Q 1303 -91 875 529 
Q 447 1150 447 2328 
Q 447 3434 972 4092 
Q 1497 4750 2381 4750 
Q 2619 4750 2861 4703 
Q 3103 4656 3366 4563 
z
" transform="scale(0.015625)"/>
      </defs>
      <use xlink:href="#DejaVuSans-36"/>
     </g>
    </g>
   </g>
   <g id="xtick_5">
    <g id="line2d_6">
     <path d="M 293.156425 502.689487 
L 288.706296 507.049093 
" style="fill: none; stroke: #000000; stroke-width: 0.8; stroke-linecap: square"/>
    </g>
    <g id="text_5">
     <!-- 8 -->
     <g transform="translate(281.101461 528.163807) scale(0.1 -0.1)">
      <defs>
       <path id="DejaVuSans-38" d="M 2034 2216 
Q 1584 2216 1326 1975 
Q 1069 1734 1069 1313 
Q 1069 891 1326 650 
Q 1584 409 2034 409 
Q 2484 409 2743 651 
Q 3003 894 3003 1313 
Q 3003 1734 2745 1975 
Q 2488 2216 2034 2216 
z
M 1403 2484 
Q 997 2584 770 2862 
Q 544 3141 544 3541 
Q 544 4100 942 4425 
Q 1341 4750 2034 4750 
Q 2731 4750 3128 4425 
Q 3525 4100 3525 3541 
Q 3525 3141 3298 2862 
Q 3072 2584 2669 2484 
Q 3125 2378 3379 2068 
Q 3634 1759 3634 1313 
Q 3634 634 3220 271 
Q 2806 -91 2034 -91 
Q 1263 -91 848 271 
Q 434 634 434 1313 
Q 434 1759 690 2068 
Q 947 2378 1403 2484 
z
M 1172 3481 
Q 1172 3119 1398 2916 
Q 1625 2713 2034 2713 
Q 2441 2713 2670 2916 
Q 2900 3119 2900 3481 
Q 2900 3844 2670 4047 
Q 2441 4250 2034 4250 
Q 1625 4250 1398 4047 
Q 1172 3844 1172 3481 
z
" transform="scale(0.015625)"/>
      </defs>
      <use xlink:href="#DejaVuSans-38"/>
     </g>
    </g>
   </g>
   <g id="xtick_6">
    <g id="line2d_7">
     <path d="M 355.37313 522.989382 
L 351.016828 527.440053 
" style="fill: none; stroke: #000000; stroke-width: 0.8; stroke-linecap: square"/>
    </g>
    <g id="text_6">
     <!-- 10 -->
     <g transform="translate(340.207602 548.702904) scale(0.1 -0.1)">
      <defs>
       <path id="DejaVuSans-31" d="M 794 531 
L 1825 531 
L 1825 4091 
L 703 3866 
L 703 4441 
L 1819 4666 
L 2450 4666 
L 2450 531 
L 3481 531 
L 3481 0 
L 794 0 
L 794 531 
z
" transform="scale(0.015625)"/>
      </defs>
      <use xlink:href="#DejaVuSans-31"/>
      <use xlink:href="#DejaVuSans-30" x="63.623047"/>
     </g>
    </g>
   </g>
  </g>
  <g id="axis3d_2">
   <g id="line2d_8">
    <path d="M 525.921668 356.830763 
L 360.48181 526.612756 
" style="fill: none; stroke: #000000; stroke-width: 0.8; stroke-linecap: square"/>
   </g>
   <g id="xtick_7">
    <g id="line2d_9">
     <path d="M 361.472392 522.051404 
L 369.344582 524.616119 
" style="fill: none; stroke: #000000; stroke-width: 0.8; stroke-linecap: square"/>
    </g>
    <g id="text_7">
     <!-- 0 -->
     <g transform="translate(373.839921 543.980278) scale(0.1 -0.1)">
      <use xlink:href="#DejaVuSans-30"/>
     </g>
    </g>
   </g>
   <g id="xtick_8">
    <g id="line2d_10">
     <path d="M 395.506896 487.186197 
L 403.283369 489.661118 
" style="fill: none; stroke: #000000; stroke-width: 0.8; stroke-linecap: square"/>
    </g>
    <g id="text_8">
     <!-- 2 -->
     <g transform="translate(407.623894 508.837259) scale(0.1 -0.1)">
      <use xlink:href="#DejaVuSans-32"/>
     </g>
    </g>
   </g>
   <g id="xtick_9">
    <g id="line2d_11">
     <path d="M 428.360792 453.530414 
L 436.043395 455.920174 
" style="fill: none; stroke: #000000; stroke-width: 0.8; stroke-linecap: square"/>
    </g>
    <g id="text_9">
     <!-- 4 -->
     <g transform="translate(440.235136 474.914148) scale(0.1 -0.1)">
      <use xlink:href="#DejaVuSans-34"/>
     </g>
    </g>
   </g>
   <g id="xtick_10">
    <g id="line2d_12">
     <path d="M 460.094465 421.022195 
L 467.685022 423.331118 
" style="fill: none; stroke: #000000; stroke-width: 0.8; stroke-linecap: square"/>
    </g>
    <g id="text_10">
     <!-- 6 -->
     <g transform="translate(471.733667 442.14851) scale(0.1 -0.1)">
      <use xlink:href="#DejaVuSans-36"/>
     </g>
    </g>
   </g>
   <g id="xtick_11">
    <g id="line2d_13">
     <path d="M 490.764249 389.603834 
L 498.26456 391.835951 
" style="fill: none; stroke: #000000; stroke-width: 0.8; stroke-linecap: square"/>
    </g>
    <g id="text_11">
     <!-- 8 -->
     <g transform="translate(502.175482 410.482097) scale(0.1 -0.1)">
      <use xlink:href="#DejaVuSans-38"/>
     </g>
    </g>
   </g>
   <g id="xtick_12">
    <g id="line2d_14">
     <path d="M 520.422762 359.221425 
L 527.834602 361.380507 
" style="fill: none; stroke: #000000; stroke-width: 0.8; stroke-linecap: square"/>
    </g>
    <g id="text_12">
     <!-- 10 -->
     <g transform="translate(528.431629 379.860507) scale(0.1 -0.1)">
      <use xlink:href="#DejaVuSans-31"/>
      <use xlink:href="#DejaVuSans-30" x="63.623047"/>
     </g>
    </g>
   </g>
  </g>
  <g id="axis3d_3">
   <g id="line2d_15">
    <path d="M 525.921668 356.830763 
L 536.405628 127.887856 
" style="fill: none; stroke: #000000; stroke-width: 0.8; stroke-linecap: square"/>
   </g>
   <g id="xtick_13">
    <g id="line2d_16">
     <path d="M 523.654713 351.728935 
L 531.064034 353.877244 
" style="fill: none; stroke: #000000; stroke-width: 0.8; stroke-linecap: square"/>
    </g>
    <g id="text_13">
     <!-- 0 -->
     <g transform="translate(541.233788 357.437934) scale(0.1 -0.1)">
      <use xlink:href="#DejaVuSans-30"/>
     </g>
    </g>
   </g>
   <g id="xtick_14">
    <g id="line2d_17">
     <path d="M 525.579397 309.245288 
L 533.052632 311.360475 
" style="fill: none; stroke: #000000; stroke-width: 0.8; stroke-linecap: square"/>
    </g>
    <g id="text_14">
     <!-- 2 -->
     <g transform="translate(543.328663 314.983454) scale(0.1 -0.1)">
      <use xlink:href="#DejaVuSans-32"/>
     </g>
    </g>
   </g>
   <g id="xtick_15">
    <g id="line2d_18">
     <path d="M 527.536315 266.050119 
L 535.074576 268.130767 
" style="fill: none; stroke: #000000; stroke-width: 0.8; stroke-linecap: square"/>
    </g>
    <g id="text_15">
     <!-- 4 -->
     <g transform="translate(545.458586 271.818695) scale(0.1 -0.1)">
      <use xlink:href="#DejaVuSans-34"/>
     </g>
    </g>
   </g>
   <g id="xtick_16">
    <g id="line2d_19">
     <path d="M 529.526285 222.125401 
L 537.130711 224.170036 
" style="fill: none; stroke: #000000; stroke-width: 0.8; stroke-linecap: square"/>
    </g>
    <g id="text_16">
     <!-- 6 -->
     <g transform="translate(547.624443 227.925684) scale(0.1 -0.1)">
      <use xlink:href="#DejaVuSans-36"/>
     </g>
    </g>
   </g>
   <g id="xtick_17">
    <g id="line2d_20">
     <path d="M 531.550151 177.452493 
L 539.221912 179.45958 
" style="fill: none; stroke: #000000; stroke-width: 0.8; stroke-linecap: square"/>
    </g>
    <g id="text_17">
     <!-- 8 -->
     <g transform="translate(549.827153 183.285832) scale(0.1 -0.1)">
      <use xlink:href="#DejaVuSans-38"/>
     </g>
    </g>
   </g>
   <g id="xtick_18">
    <g id="line2d_21">
     <path d="M 533.608786 132.012116 
L 541.349085 133.980056 
" style="fill: none; stroke: #000000; stroke-width: 0.8; stroke-linecap: square"/>
    </g>
    <g id="text_18">
     <!-- 10 -->
     <g transform="translate(548.886414 137.879916) scale(0.1 -0.1)">
      <use xlink:href="#DejaVuSans-31"/>
      <use xlink:href="#DejaVuSans-30" x="63.623047"/>
     </g>
    </g>
   </g>
  </g>
  <g id="axes_1">
   <g id="Line3DCollection_4">
    <path d="M 404.356335 147.818189 
L 250.80677 289.113934 
" clip-path="url(#p97d4983492)" style="fill: none; stroke: #ff0000; stroke-opacity: 0.6; stroke-width: 3"/>
    <path d="M 404.356335 147.818189 
L 395.564622 160.419462 
" clip-path="url(#p97d4983492)" style="fill: none; stroke: #ff0000; stroke-opacity: 0.6; stroke-width: 3"/>
    <path d="M 404.356335 147.818189 
L 389.369654 157.090254 
" clip-path="url(#p97d4983492)" style="fill: none; stroke: #ff0000; stroke-opacity: 0.6; stroke-width: 3"/>
   </g>
   <g id="text_19">
    <!-- (3, 4, 5) -->
    <g transform="translate(215.5484 274.616922) scale(0.12 -0.12)">
     <defs>
      <path id="DejaVuSans-28" d="M 1984 4856 
Q 1566 4138 1362 3434 
Q 1159 2731 1159 2009 
Q 1159 1288 1364 580 
Q 1569 -128 1984 -844 
L 1484 -844 
Q 1016 -109 783 600 
Q 550 1309 550 2009 
Q 550 2706 781 3412 
Q 1013 4119 1484 4856 
L 1984 4856 
z
" transform="scale(0.015625)"/>
      <path id="DejaVuSans-33" d="M 2597 2516 
Q 3050 2419 3304 2112 
Q 3559 1806 3559 1356 
Q 3559 666 3084 287 
Q 2609 -91 1734 -91 
Q 1441 -91 1130 -33 
Q 819 25 488 141 
L 488 750 
Q 750 597 1062 519 
Q 1375 441 1716 441 
Q 2309 441 2620 675 
Q 2931 909 2931 1356 
Q 2931 1769 2642 2001 
Q 2353 2234 1838 2234 
L 1294 2234 
L 1294 2753 
L 1863 2753 
Q 2328 2753 2575 2939 
Q 2822 3125 2822 3475 
Q 2822 3834 2567 4026 
Q 2313 4219 1838 4219 
Q 1578 4219 1281 4162 
Q 984 4106 628 3988 
L 628 4550 
Q 988 4650 1302 4700 
Q 1616 4750 1894 4750 
Q 2613 4750 3031 4423 
Q 3450 4097 3450 3541 
Q 3450 3153 3228 2886 
Q 3006 2619 2597 2516 
z
" transform="scale(0.015625)"/>
      <path id="DejaVuSans-2c" d="M 750 794 
L 1409 794 
L 1409 256 
L 897 -744 
L 494 -744 
L 750 256 
L 750 794 
z
" transform="scale(0.015625)"/>
      <path id="DejaVuSans-20" transform="scale(0.015625)"/>
      <path id="DejaVuSans-35" d="M 691 4666 
L 3169 4666 
L 3169 4134 
L 1269 4134 
L 1269 2991 
Q 1406 3038 1543 3061 
Q 1681 3084 1819 3084 
Q 2600 3084 3056 2656 
Q 3513 2228 3513 1497 
Q 3513 744 3044 326 
Q 2575 -91 1722 -91 
Q 1428 -91 1123 -41 
Q 819 9 494 109 
L 494 744 
Q 775 591 1075 516 
Q 1375 441 1709 441 
Q 2250 441 2565 725 
Q 2881 1009 2881 1497 
Q 2881 1984 2565 2268 
Q 2250 2553 1709 2553 
Q 1456 2553 1204 2497 
Q 953 2441 691 2322 
L 691 4666 
z
" transform="scale(0.015625)"/>
      <path id="DejaVuSans-29" d="M 513 4856 
L 1013 4856 
Q 1481 4119 1714 3412 
Q 1947 2706 1947 2009 
Q 1947 1309 1714 600 
Q 1481 -109 1013 -844 
L 513 -844 
Q 928 -128 1133 580 
Q 1338 1288 1338 2009 
Q 1338 2731 1133 3434 
Q 928 4138 513 4856 
z
" transform="scale(0.015625)"/>
     </defs>
     <use xlink:href="#DejaVuSans-28"/>
     <use xlink:href="#DejaVuSans-33" x="39.013672"/>
     <use xlink:href="#DejaVuSans-2c" x="102.636719"/>
     <use xlink:href="#DejaVuSans-20" x="134.423828"/>
     <use xlink:href="#DejaVuSans-34" x="166.210938"/>
     <use xlink:href="#DejaVuSans-2c" x="229.833984"/>
     <use xlink:href="#DejaVuSans-20" x="261.621094"/>
     <use xlink:href="#DejaVuSans-35" x="293.408203"/>
     <use xlink:href="#DejaVuSans-29" x="357.03125"/>
    </g>
   </g>
   <g id="text_20">
    <!-- $\mathbf{u}$ -->
    <g transform="translate(137.067491 346.881341) scale(0.12 -0.12)">
     <defs>
      <path id="DejaVuSans-Bold-75" d="M 500 1363 
L 500 3500 
L 1625 3500 
L 1625 3150 
Q 1625 2866 1622 2436 
Q 1619 2006 1619 1863 
Q 1619 1441 1641 1255 
Q 1663 1069 1716 984 
Q 1784 875 1895 815 
Q 2006 756 2150 756 
Q 2500 756 2700 1025 
Q 2900 1294 2900 1772 
L 2900 3500 
L 4019 3500 
L 4019 0 
L 2900 0 
L 2900 506 
Q 2647 200 2364 54 
Q 2081 -91 1741 -91 
Q 1134 -91 817 281 
Q 500 653 500 1363 
z
" transform="scale(0.015625)"/>
     </defs>
     <use xlink:href="#DejaVuSans-Bold-75" transform="translate(0 0.3125)"/>
    </g>
   </g>
   <g id="text_21">
    <!-- (3, 6, 3) -->
    <g transform="translate(250.80677 289.113934) scale(0.12 -0.12)">
     <use xlink:href="#DejaVuSans-28"/>
     <use xlink:href="#DejaVuSans-33" x="39.013672"/>
     <use xlink:href="#DejaVuSans-2c" x="102.636719"/>
     <use xlink:href="#DejaVuSans-20" x="134.423828"/>
     <use xlink:href="#DejaVuSans-36" x="166.210938"/>
     <use xlink:href="#DejaVuSans-2c" x="229.833984"/>
     <use xlink:href="#DejaVuSans-20" x="261.621094"/>
     <use xlink:href="#DejaVuSans-33" x="293.408203"/>
     <use xlink:href="#DejaVuSans-29" x="357.03125"/>
    </g>
   </g>
   <g id="text_22">
    <!-- $\mathbf{v}$ -->
    <g transform="translate(155.896632 353.299326) scale(0.12 -0.12)">
     <defs>
      <path id="DejaVuSans-Bold-76" d="M 97 3500 
L 1216 3500 
L 2088 1081 
L 2956 3500 
L 4078 3500 
L 2700 0 
L 1472 0 
L 97 3500 
z
" transform="scale(0.015625)"/>
     </defs>
     <use xlink:href="#DejaVuSans-Bold-76" transform="translate(0 0.3125)"/>
    </g>
   </g>
   <g id="text_23">
    <!-- (6, 10, 8) -->
    <g transform="translate(404.356335 147.818189) scale(0.12 -0.12)">
     <use xlink:href="#DejaVuSans-28"/>
     <use xlink:href="#DejaVuSans-36" x="39.013672"/>
     <use xlink:href="#DejaVuSans-2c" x="102.636719"/>
     <use xlink:href="#DejaVuSans-20" x="134.423828"/>
     <use xlink:href="#DejaVuSans-31" x="166.210938"/>
     <use xlink:href="#DejaVuSans-30" x="229.833984"/>
     <use xlink:href="#DejaVuSans-2c" x="293.457031"/>
     <use xlink:href="#DejaVuSans-20" x="325.244141"/>
     <use xlink:href="#DejaVuSans-38" x="357.03125"/>
     <use xlink:href="#DejaVuSans-29" x="420.654297"/>
    </g>
   </g>
   <g id="text_24">
    <!-- $\mathbf{u} + \mathbf{v}$ -->
    <g transform="translate(233.401076 281.95732) scale(0.12 -0.12)">
     <defs>
      <path id="DejaVuSans-2b" d="M 2944 4013 
L 2944 2272 
L 4684 2272 
L 4684 1741 
L 2944 1741 
L 2944 0 
L 2419 0 
L 2419 1741 
L 678 1741 
L 678 2272 
L 2419 2272 
L 2419 4013 
L 2944 4013 
z
" transform="scale(0.015625)"/>
     </defs>
     <use xlink:href="#DejaVuSans-Bold-75" transform="translate(0 0.296875)"/>
     <use xlink:href="#DejaVuSans-2b" transform="translate(90.673828 0.296875)"/>
     <use xlink:href="#DejaVuSans-Bold-76" transform="translate(193.945312 0.296875)"/>
    </g>
   </g>
   <g id="text_25">
    <!-- (6, 10, 8) -->
    <g transform="translate(404.356335 147.818189) scale(0.12 -0.12)">
     <use xlink:href="#DejaVuSans-28"/>
     <use xlink:href="#DejaVuSans-36" x="39.013672"/>
     <use xlink:href="#DejaVuSans-2c" x="102.636719"/>
     <use xlink:href="#DejaVuSans-20" x="134.423828"/>
     <use xlink:href="#DejaVuSans-31" x="166.210938"/>
     <use xlink:href="#DejaVuSans-30" x="229.833984"/>
     <use xlink:href="#DejaVuSans-2c" x="293.457031"/>
     <use xlink:href="#DejaVuSans-20" x="325.244141"/>
     <use xlink:href="#DejaVuSans-38" x="357.03125"/>
     <use xlink:href="#DejaVuSans-29" x="420.654297"/>
    </g>
   </g>
   <g id="text_26">
    <!-- $\mathbf{u}$ -->
    <g transform="translate(327.507138 218.534538) scale(0.12 -0.12)">
     <use xlink:href="#DejaVuSans-Bold-75" transform="translate(0 0.3125)"/>
    </g>
   </g>
   <g id="text_27">
    <!-- (6, 10, 8) -->
    <g transform="translate(404.356335 147.818189) scale(0.12 -0.12)">
     <use xlink:href="#DejaVuSans-28"/>
     <use xlink:href="#DejaVuSans-36" x="39.013672"/>
     <use xlink:href="#DejaVuSans-2c" x="102.636719"/>
     <use xlink:href="#DejaVuSans-20" x="134.423828"/>
     <use xlink:href="#DejaVuSans-31" x="166.210938"/>
     <use xlink:href="#DejaVuSans-30" x="229.833984"/>
     <use xlink:href="#DejaVuSans-2c" x="293.457031"/>
     <use xlink:href="#DejaVuSans-20" x="325.244141"/>
     <use xlink:href="#DejaVuSans-38" x="357.03125"/>
     <use xlink:href="#DejaVuSans-29" x="420.654297"/>
    </g>
   </g>
   <g id="text_28">
    <!-- $\mathbf{v}$ -->
    <g transform="translate(311.05767 210.475262) scale(0.12 -0.12)">
     <use xlink:href="#DejaVuSans-Bold-76" transform="translate(0 0.3125)"/>
    </g>
   </g>
   <g id="Line3DCollection_5">
    <path d="M 250.80677 289.113934 
L 58.742165 419.002502 
" clip-path="url(#p97d4983492)" style="fill: none; stroke: #008000; stroke-opacity: 0.6; stroke-width: 3"/>
    <path d="M 250.80677 289.113934 
L 238.062818 301.356484 
" clip-path="url(#p97d4983492)" style="fill: none; stroke: #008000; stroke-opacity: 0.6; stroke-width: 3"/>
    <path d="M 250.80677 289.113934 
L 234.498094 296.512353 
" clip-path="url(#p97d4983492)" style="fill: none; stroke: #008000; stroke-opacity: 0.6; stroke-width: 3"/>
   </g>
   <g id="Line3DCollection_6">
    <path d="M 404.356335 147.818189 
L 58.742165 419.002502 
" clip-path="url(#p97d4983492)" style="fill: none; stroke: #0000ff; stroke-opacity: 0.6; stroke-width: 3"/>
    <path d="M 404.356335 147.818189 
L 382.856804 172.453312 
" clip-path="url(#p97d4983492)" style="fill: none; stroke: #0000ff; stroke-opacity: 0.6; stroke-width: 3"/>
    <path d="M 404.356335 147.818189 
L 373.471892 164.25804 
" clip-path="url(#p97d4983492)" style="fill: none; stroke: #0000ff; stroke-opacity: 0.6; stroke-width: 3"/>
   </g>
   <g id="Line3DCollection_7">
    <path d="M 404.356335 147.818189 
L 215.5484 274.616922 
" clip-path="url(#p97d4983492)" style="fill: none; stroke: #008000; stroke-opacity: 0.6; stroke-width: 3"/>
    <path d="M 404.356335 147.818189 
L 391.722468 159.96044 
" clip-path="url(#p97d4983492)" style="fill: none; stroke: #008000; stroke-opacity: 0.6; stroke-width: 3"/>
    <path d="M 404.356335 147.818189 
L 388.431593 154.848509 
" clip-path="url(#p97d4983492)" style="fill: none; stroke: #008000; stroke-opacity: 0.6; stroke-width: 3"/>
   </g>
   <g id="Line3DCollection_8">
    <path d="M 215.5484 274.616922 
L 58.742165 419.002502 
" clip-path="url(#p97d4983492)" style="fill: none; stroke: #ff0000; stroke-opacity: 0.6; stroke-width: 3"/>
    <path d="M 215.5484 274.616922 
L 206.736935 287.389979 
" clip-path="url(#p97d4983492)" style="fill: none; stroke: #ff0000; stroke-opacity: 0.6; stroke-width: 3"/>
    <path d="M 215.5484 274.616922 
L 200.075714 284.196582 
" clip-path="url(#p97d4983492)" style="fill: none; stroke: #ff0000; stroke-opacity: 0.6; stroke-width: 3"/>
   </g>
  </g>
 </g>
 <defs>
  <clipPath id="p97d4983492">
   <rect x="7.2" y="7.2" width="554.4" height="554.4"/>
  </clipPath>
 </defs>
</svg>