<?xml version="1.0" encoding="utf-8" standalone="no"?>
<!DOCTYPE svg PUBLIC "-//W3C//DTD SVG 1.1//EN"
  "http://www.w3.org/Graphics/SVG/1.1/DTD/svg11.dtd">
<svg xmlns:xlink="http://www.w3.org/1999/xlink" width="708.513437pt" height="419.796139pt" viewBox="0 0 708.513437 419.796139" xmlns="http://www.w3.org/2000/svg" version="1.1">
 <metadata>
  <rdf:RDF xmlns:dc="http://purl.org/dc/elements/1.1/" xmlns:cc="http://creativecommons.org/ns#" xmlns:rdf="http://www.w3.org/1999/02/22-rdf-syntax-ns#">
   <cc:Work>
    <dc:type rdf:resource="http://purl.org/dc/dcmitype/StillImage"/>
    <dc:date>2024-06-18T11:57:43.918035</dc:date>
    <dc:format>image/svg+xml</dc:format>
    <dc:creator>
     <cc:Agent>
      <dc:title>Matplotlib v3.9.0, https://matplotlib.org/</dc:title>
     </cc:Agent>
    </dc:creator>
   </cc:Work>
  </rdf:RDF>
 </metadata>
 <defs>
  <style type="text/css">*{stroke-linejoin: round; stroke-linecap: butt}</style>
 </defs>
 <g id="figure_1">
  <g id="patch_1">
   <path d="M 0 419.796139 
L 708.513437 419.796139 
L 708.513437 0 
L 0 0 
z
" style="fill: #ffffff"/>
  </g>
  <g id="axes_1">
   <g id="patch_2">
    <path d="M 34.193438 392.450201 
L 701.313437 392.450201 
L 701.313437 8.470201 
L 34.193438 8.470201 
z
" style="fill: #eaeaf2"/>
   </g>
   <g id="matplotlib.axis_1">
    <g id="xtick_1">
     <g id="text_1">
      <!-- 4.5 -->
      <g style="fill: #262626" transform="translate(89.463284 410.308482) scale(0.11 -0.11)">
       <defs>
        <path id="DejaVuSans-34" d="M 2419 4116 
L 825 1625 
L 2419 1625 
L 2419 4116 
z
M 2253 4666 
L 3047 4666 
L 3047 1625 
L 3713 1625 
L 3713 1100 
L 3047 1100 
L 3047 0 
L 2419 0 
L 2419 1100 
L 313 1100 
L 313 1709 
L 2253 4666 
z
" transform="scale(0.015625)"/>
        <path id="DejaVuSans-2e" d="M 684 794 
L 1344 794 
L 1344 0 
L 684 0 
L 684 794 
z
" transform="scale(0.015625)"/>
        <path id="DejaVuSans-35" d="M 691 4666 
L 3169 4666 
L 3169 4134 
L 1269 4134 
L 1269 2991 
Q 1406 3038 1543 3061 
Q 1681 3084 1819 3084 
Q 2600 3084 3056 2656 
Q 3513 2228 3513 1497 
Q 3513 744 3044 326 
Q 2575 -91 1722 -91 
Q 1428 -91 1123 -41 
Q 819 9 494 109 
L 494 744 
Q 775 591 1075 516 
Q 1375 441 1709 441 
Q 2250 441 2565 725 
Q 2881 1009 2881 1497 
Q 2881 1984 2565 2268 
Q 2250 2553 1709 2553 
Q 1456 2553 1204 2497 
Q 953 2441 691 2322 
L 691 4666 
z
" transform="scale(0.015625)"/>
       </defs>
       <use xlink:href="#DejaVuSans-34"/>
       <use xlink:href="#DejaVuSans-2e" x="63.623047"/>
       <use xlink:href="#DejaVuSans-35" x="95.410156"/>
      </g>
     </g>
    </g>
    <g id="xtick_2">
     <g id="text_2">
      <!-- 5.0 -->
      <g style="fill: #262626" transform="translate(173.695608 410.308482) scale(0.11 -0.11)">
       <defs>
        <path id="DejaVuSans-30" d="M 2034 4250 
Q 1547 4250 1301 3770 
Q 1056 3291 1056 2328 
Q 1056 1369 1301 889 
Q 1547 409 2034 409 
Q 2525 409 2770 889 
Q 3016 1369 3016 2328 
Q 3016 3291 2770 3770 
Q 2525 4250 2034 4250 
z
M 2034 4750 
Q 2819 4750 3233 4129 
Q 3647 3509 3647 2328 
Q 3647 1150 3233 529 
Q 2819 -91 2034 -91 
Q 1250 -91 836 529 
Q 422 1150 422 2328 
Q 422 3509 836 4129 
Q 1250 4750 2034 4750 
z
" transform="scale(0.015625)"/>
       </defs>
       <use xlink:href="#DejaVuSans-35"/>
       <use xlink:href="#DejaVuSans-2e" x="63.623047"/>
       <use xlink:href="#DejaVuSans-30" x="95.410156"/>
      </g>
     </g>
    </g>
    <g id="xtick_3">
     <g id="text_3">
      <!-- 5.5 -->
      <g style="fill: #262626" transform="translate(257.927931 410.308482) scale(0.11 -0.11)">
       <use xlink:href="#DejaVuSans-35"/>
       <use xlink:href="#DejaVuSans-2e" x="63.623047"/>
       <use xlink:href="#DejaVuSans-35" x="95.410156"/>
      </g>
     </g>
    </g>
    <g id="xtick_4">
     <g id="text_4">
      <!-- 6.0 -->
      <g style="fill: #262626" transform="translate(342.160254 410.308482) scale(0.11 -0.11)">
       <defs>
        <path id="DejaVuSans-36" d="M 2113 2584 
Q 1688 2584 1439 2293 
Q 1191 2003 1191 1497 
Q 1191 994 1439 701 
Q 1688 409 2113 409 
Q 2538 409 2786 701 
Q 3034 994 3034 1497 
Q 3034 2003 2786 2293 
Q 2538 2584 2113 2584 
z
M 3366 4563 
L 3366 3988 
Q 3128 4100 2886 4159 
Q 2644 4219 2406 4219 
Q 1781 4219 1451 3797 
Q 1122 3375 1075 2522 
Q 1259 2794 1537 2939 
Q 1816 3084 2150 3084 
Q 2853 3084 3261 2657 
Q 3669 2231 3669 1497 
Q 3669 778 3244 343 
Q 2819 -91 2113 -91 
Q 1303 -91 875 529 
Q 447 1150 447 2328 
Q 447 3434 972 4092 
Q 1497 4750 2381 4750 
Q 2619 4750 2861 4703 
Q 3103 4656 3366 4563 
z
" transform="scale(0.015625)"/>
       </defs>
       <use xlink:href="#DejaVuSans-36"/>
       <use xlink:href="#DejaVuSans-2e" x="63.623047"/>
       <use xlink:href="#DejaVuSans-30" x="95.410156"/>
      </g>
     </g>
    </g>
    <g id="xtick_5">
     <g id="text_5">
      <!-- 6.5 -->
      <g style="fill: #262626" transform="translate(426.392577 410.308482) scale(0.11 -0.11)">
       <use xlink:href="#DejaVuSans-36"/>
       <use xlink:href="#DejaVuSans-2e" x="63.623047"/>
       <use xlink:href="#DejaVuSans-35" x="95.410156"/>
      </g>
     </g>
    </g>
    <g id="xtick_6">
     <g id="text_6">
      <!-- 7.0 -->
      <g style="fill: #262626" transform="translate(510.624901 410.308482) scale(0.11 -0.11)">
       <defs>
        <path id="DejaVuSans-37" d="M 525 4666 
L 3525 4666 
L 3525 4397 
L 1831 0 
L 1172 0 
L 2766 4134 
L 525 4134 
L 525 4666 
z
" transform="scale(0.015625)"/>
       </defs>
       <use xlink:href="#DejaVuSans-37"/>
       <use xlink:href="#DejaVuSans-2e" x="63.623047"/>
       <use xlink:href="#DejaVuSans-30" x="95.410156"/>
      </g>
     </g>
    </g>
    <g id="xtick_7">
     <g id="text_7">
      <!-- 7.5 -->
      <g style="fill: #262626" transform="translate(594.857224 410.308482) scale(0.11 -0.11)">
       <use xlink:href="#DejaVuSans-37"/>
       <use xlink:href="#DejaVuSans-2e" x="63.623047"/>
       <use xlink:href="#DejaVuSans-35" x="95.410156"/>
      </g>
     </g>
    </g>
    <g id="xtick_8">
     <g id="text_8">
      <!-- 8.0 -->
      <g style="fill: #262626" transform="translate(679.089547 410.308482) scale(0.11 -0.11)">
       <defs>
        <path id="DejaVuSans-38" d="M 2034 2216 
Q 1584 2216 1326 1975 
Q 1069 1734 1069 1313 
Q 1069 891 1326 650 
Q 1584 409 2034 409 
Q 2484 409 2743 651 
Q 3003 894 3003 1313 
Q 3003 1734 2745 1975 
Q 2488 2216 2034 2216 
z
M 1403 2484 
Q 997 2584 770 2862 
Q 544 3141 544 3541 
Q 544 4100 942 4425 
Q 1341 4750 2034 4750 
Q 2731 4750 3128 4425 
Q 3525 4100 3525 3541 
Q 3525 3141 3298 2862 
Q 3072 2584 2669 2484 
Q 3125 2378 3379 2068 
Q 3634 1759 3634 1313 
Q 3634 634 3220 271 
Q 2806 -91 2034 -91 
Q 1263 -91 848 271 
Q 434 634 434 1313 
Q 434 1759 690 2068 
Q 947 2378 1403 2484 
z
M 1172 3481 
Q 1172 3119 1398 2916 
Q 1625 2713 2034 2713 
Q 2441 2713 2670 2916 
Q 2900 3119 2900 3481 
Q 2900 3844 2670 4047 
Q 2441 4250 2034 4250 
Q 1625 4250 1398 4047 
Q 1172 3844 1172 3481 
z
" transform="scale(0.015625)"/>
       </defs>
       <use xlink:href="#DejaVuSans-38"/>
       <use xlink:href="#DejaVuSans-2e" x="63.623047"/>
       <use xlink:href="#DejaVuSans-30" x="95.410156"/>
      </g>
     </g>
    </g>
   </g>
   <g id="matplotlib.axis_2">
    <g id="ytick_1">
     <g id="text_9">
      <!-- 2.0 -->
      <g style="fill: #262626" transform="translate(7.2 379.175705) scale(0.11 -0.11)">
       <defs>
        <path id="DejaVuSans-32" d="M 1228 531 
L 3431 531 
L 3431 0 
L 469 0 
L 469 531 
Q 828 903 1448 1529 
Q 2069 2156 2228 2338 
Q 2531 2678 2651 2914 
Q 2772 3150 2772 3378 
Q 2772 3750 2511 3984 
Q 2250 4219 1831 4219 
Q 1534 4219 1204 4116 
Q 875 4013 500 3803 
L 500 4441 
Q 881 4594 1212 4672 
Q 1544 4750 1819 4750 
Q 2544 4750 2975 4387 
Q 3406 4025 3406 3419 
Q 3406 3131 3298 2873 
Q 3191 2616 2906 2266 
Q 2828 2175 2409 1742 
Q 1991 1309 1228 531 
z
" transform="scale(0.015625)"/>
       </defs>
       <use xlink:href="#DejaVuSans-32"/>
       <use xlink:href="#DejaVuSans-2e" x="63.623047"/>
       <use xlink:href="#DejaVuSans-30" x="95.410156"/>
      </g>
     </g>
    </g>
    <g id="ytick_2">
     <g id="text_10">
      <!-- 2.5 -->
      <g style="fill: #262626" transform="translate(7.2 306.452221) scale(0.11 -0.11)">
       <use xlink:href="#DejaVuSans-32"/>
       <use xlink:href="#DejaVuSans-2e" x="63.623047"/>
       <use xlink:href="#DejaVuSans-35" x="95.410156"/>
      </g>
     </g>
    </g>
    <g id="ytick_3">
     <g id="text_11">
      <!-- 3.0 -->
      <g style="fill: #262626" transform="translate(7.2 233.728736) scale(0.11 -0.11)">
       <defs>
        <path id="DejaVuSans-33" d="M 2597 2516 
Q 3050 2419 3304 2112 
Q 3559 1806 3559 1356 
Q 3559 666 3084 287 
Q 2609 -91 1734 -91 
Q 1441 -91 1130 -33 
Q 819 25 488 141 
L 488 750 
Q 750 597 1062 519 
Q 1375 441 1716 441 
Q 2309 441 2620 675 
Q 2931 909 2931 1356 
Q 2931 1769 2642 2001 
Q 2353 2234 1838 2234 
L 1294 2234 
L 1294 2753 
L 1863 2753 
Q 2328 2753 2575 2939 
Q 2822 3125 2822 3475 
Q 2822 3834 2567 4026 
Q 2313 4219 1838 4219 
Q 1578 4219 1281 4162 
Q 984 4106 628 3988 
L 628 4550 
Q 988 4650 1302 4700 
Q 1616 4750 1894 4750 
Q 2613 4750 3031 4423 
Q 3450 4097 3450 3541 
Q 3450 3153 3228 2886 
Q 3006 2619 2597 2516 
z
" transform="scale(0.015625)"/>
       </defs>
       <use xlink:href="#DejaVuSans-33"/>
       <use xlink:href="#DejaVuSans-2e" x="63.623047"/>
       <use xlink:href="#DejaVuSans-30" x="95.410156"/>
      </g>
     </g>
    </g>
    <g id="ytick_4">
     <g id="text_12">
      <!-- 3.5 -->
      <g style="fill: #262626" transform="translate(7.2 161.005251) scale(0.11 -0.11)">
       <use xlink:href="#DejaVuSans-33"/>
       <use xlink:href="#DejaVuSans-2e" x="63.623047"/>
       <use xlink:href="#DejaVuSans-35" x="95.410156"/>
      </g>
     </g>
    </g>
    <g id="ytick_5">
     <g id="text_13">
      <!-- 4.0 -->
      <g style="fill: #262626" transform="translate(7.2 88.281766) scale(0.11 -0.11)">
       <use xlink:href="#DejaVuSans-34"/>
       <use xlink:href="#DejaVuSans-2e" x="63.623047"/>
       <use xlink:href="#DejaVuSans-30" x="95.410156"/>
      </g>
     </g>
    </g>
    <g id="ytick_6">
     <g id="text_14">
      <!-- 4.5 -->
      <g style="fill: #262626" transform="translate(7.2 15.558281) scale(0.11 -0.11)">
       <use xlink:href="#DejaVuSans-34"/>
       <use xlink:href="#DejaVuSans-2e" x="63.623047"/>
       <use xlink:href="#DejaVuSans-35" x="95.410156"/>
      </g>
     </g>
    </g>
   </g>
   <g id="PathCollection_1">
    <defs>
     <path id="m6cdb133f50" d="M -3.535534 3.535534 
L 3.535534 3.535534 
L 3.535534 -3.535534 
L -3.535534 -3.535534 
z
" style="stroke: #000000"/>
    </defs>
    <g clip-path="url(#p988b5ad4bd)">
     <use xlink:href="#m6cdb133f50" x="569.911013" y="244.094292" style="fill: #90ee90; stroke: #000000"/>
     <use xlink:href="#m6cdb133f50" x="670.989801" y="113.192019" style="fill: #90ee90; stroke: #000000"/>
     <use xlink:href="#m6cdb133f50" x="468.832225" y="215.004898" style="fill: #90ee90; stroke: #000000"/>
     <use xlink:href="#m6cdb133f50" x="637.296872" y="229.549595" style="fill: #90ee90; stroke: #000000"/>
     <use xlink:href="#m6cdb133f50" x="502.525155" y="215.004898" style="fill: #90ee90; stroke: #000000"/>
     <use xlink:href="#m6cdb133f50" x="637.296872" y="113.192019" style="fill: #90ee90; stroke: #000000"/>
     <use xlink:href="#m6cdb133f50" x="519.371619" y="200.460201" style="fill: #90ee90; stroke: #000000"/>
     <use xlink:href="#m6cdb133f50" x="468.832225" y="215.004898" style="fill: #90ee90; stroke: #000000"/>
     <use xlink:href="#m6cdb133f50" x="485.67869" y="229.549595" style="fill: #90ee90; stroke: #000000"/>
     <use xlink:href="#m6cdb133f50" x="620.450407" y="229.549595" style="fill: #90ee90; stroke: #000000"/>
     <use xlink:href="#m6cdb133f50" x="485.67869" y="258.638989" style="fill: #90ee90; stroke: #000000"/>
     <use xlink:href="#m6cdb133f50" x="451.985761" y="244.094292" style="fill: #90ee90; stroke: #000000"/>
     <use xlink:href="#m6cdb133f50" x="468.832225" y="185.915504" style="fill: #90ee90; stroke: #000000"/>
     <use xlink:href="#m6cdb133f50" x="536.218084" y="229.549595" style="fill: #90ee90; stroke: #000000"/>
     <use xlink:href="#m6cdb133f50" x="451.985761" y="229.549595" style="fill: #90ee90; stroke: #000000"/>
     <use xlink:href="#m6cdb133f50" x="468.832225" y="229.549595" style="fill: #90ee90; stroke: #000000"/>
     <use xlink:href="#m6cdb133f50" x="468.832225" y="215.004898" style="fill: #90ee90; stroke: #000000"/>
     <use xlink:href="#m6cdb133f50" x="502.525155" y="215.004898" style="fill: #90ee90; stroke: #000000"/>
     <use xlink:href="#m6cdb133f50" x="468.832225" y="302.27308" style="fill: #90ee90; stroke: #000000"/>
     <use xlink:href="#m6cdb133f50" x="553.064549" y="142.281413" style="fill: #90ee90; stroke: #000000"/>
     <use xlink:href="#m6cdb133f50" x="502.525155" y="200.460201" style="fill: #90ee90; stroke: #000000"/>
     <use xlink:href="#m6cdb133f50" x="637.296872" y="287.728383" style="fill: #90ee90; stroke: #000000"/>
     <use xlink:href="#m6cdb133f50" x="553.064549" y="200.460201" style="fill: #90ee90; stroke: #000000"/>
     <use xlink:href="#m6cdb133f50" x="586.757478" y="258.638989" style="fill: #90ee90; stroke: #000000"/>
     <use xlink:href="#m6cdb133f50" x="502.525155" y="215.004898" style="fill: #90ee90; stroke: #000000"/>
     <use xlink:href="#m6cdb133f50" x="553.064549" y="229.549595" style="fill: #90ee90; stroke: #000000"/>
    </g>
   </g>
   <g id="PathCollection_2">
    <defs>
     <path id="m648a2650ca" d="M 0 3.535534 
C 0.937635 3.535534 1.836992 3.163008 2.5 2.5 
C 3.163008 1.836992 3.535534 0.937635 3.535534 0 
C 3.535534 -0.937635 3.163008 -1.836992 2.5 -2.5 
C 1.836992 -3.163008 0.937635 -3.535534 0 -3.535534 
C -0.937635 -3.535534 -1.836992 -3.163008 -2.5 -2.5 
C -3.163008 -1.836992 -3.535534 -0.937635 -3.535534 0 
C -3.535534 0.937635 -3.163008 1.836992 -2.5 2.5 
C -1.836992 3.163008 -0.937635 3.535534 0 3.535534 
z
" style="stroke: #000000"/>
    </defs>
    <g clip-path="url(#p988b5ad4bd)">
     <use xlink:href="#m648a2650ca" x="216.135256" y="171.370807" style="fill: #ffa500; stroke: #000000"/>
     <use xlink:href="#m648a2650ca" x="148.749397" y="171.370807" style="fill: #ffa500; stroke: #000000"/>
     <use xlink:href="#m648a2650ca" x="182.442326" y="171.370807" style="fill: #ffa500; stroke: #000000"/>
     <use xlink:href="#m648a2650ca" x="115.056468" y="200.460201" style="fill: #ffa500; stroke: #000000"/>
     <use xlink:href="#m648a2650ca" x="249.828185" y="171.370807" style="fill: #ffa500; stroke: #000000"/>
     <use xlink:href="#m648a2650ca" x="131.902932" y="200.460201" style="fill: #ffa500; stroke: #000000"/>
     <use xlink:href="#m648a2650ca" x="216.135256" y="273.183686" style="fill: #ffa500; stroke: #000000"/>
     <use xlink:href="#m648a2650ca" x="182.442326" y="200.460201" style="fill: #ffa500; stroke: #000000"/>
     <use xlink:href="#m648a2650ca" x="216.135256" y="156.82611" style="fill: #ffa500; stroke: #000000"/>
     <use xlink:href="#m648a2650ca" x="249.828185" y="171.370807" style="fill: #ffa500; stroke: #000000"/>
     <use xlink:href="#m648a2650ca" x="182.442326" y="374.996565" style="fill: #ffa500; stroke: #000000"/>
     <use xlink:href="#m648a2650ca" x="182.442326" y="185.915504" style="fill: #ffa500; stroke: #000000"/>
     <use xlink:href="#m648a2650ca" x="199.288791" y="302.27308" style="fill: #ffa500; stroke: #000000"/>
     <use xlink:href="#m648a2650ca" x="165.595862" y="229.549595" style="fill: #ffa500; stroke: #000000"/>
     <use xlink:href="#m648a2650ca" x="199.288791" y="156.82611" style="fill: #ffa500; stroke: #000000"/>
     <use xlink:href="#m648a2650ca" x="81.363539" y="200.460201" style="fill: #ffa500; stroke: #000000"/>
     <use xlink:href="#m648a2650ca" x="199.288791" y="171.370807" style="fill: #ffa500; stroke: #000000"/>
     <use xlink:href="#m648a2650ca" x="148.749397" y="229.549595" style="fill: #ffa500; stroke: #000000"/>
     <use xlink:href="#m648a2650ca" x="199.288791" y="127.736716" style="fill: #ffa500; stroke: #000000"/>
     <use xlink:href="#m648a2650ca" x="249.828185" y="98.647322" style="fill: #ffa500; stroke: #000000"/>
     <use xlink:href="#m648a2650ca" x="182.442326" y="142.281413" style="fill: #ffa500; stroke: #000000"/>
     <use xlink:href="#m648a2650ca" x="232.98172" y="127.736716" style="fill: #ffa500; stroke: #000000"/>
     <use xlink:href="#m648a2650ca" x="216.135256" y="69.557929" style="fill: #ffa500; stroke: #000000"/>
     <use xlink:href="#m648a2650ca" x="266.67465" y="55.013232" style="fill: #ffa500; stroke: #000000"/>
     <use xlink:href="#m648a2650ca" x="199.288791" y="113.192019" style="fill: #ffa500; stroke: #000000"/>
     <use xlink:href="#m648a2650ca" x="165.595862" y="316.817777" style="fill: #ffa500; stroke: #000000"/>
     <use xlink:href="#m648a2650ca" x="115.056468" y="215.004898" style="fill: #ffa500; stroke: #000000"/>
     <use xlink:href="#m648a2650ca" x="81.363539" y="229.549595" style="fill: #ffa500; stroke: #000000"/>
     <use xlink:href="#m648a2650ca" x="199.288791" y="113.192019" style="fill: #ffa500; stroke: #000000"/>
     <use xlink:href="#m648a2650ca" x="115.056468" y="142.281413" style="fill: #ffa500; stroke: #000000"/>
     <use xlink:href="#m648a2650ca" x="148.749397" y="171.370807" style="fill: #ffa500; stroke: #000000"/>
     <use xlink:href="#m648a2650ca" x="300.367579" y="25.923838" style="fill: #ffa500; stroke: #000000"/>
     <use xlink:href="#m648a2650ca" x="199.288791" y="113.192019" style="fill: #ffa500; stroke: #000000"/>
     <use xlink:href="#m648a2650ca" x="249.828185" y="127.736716" style="fill: #ffa500; stroke: #000000"/>
     <use xlink:href="#m648a2650ca" x="249.828185" y="229.549595" style="fill: #ffa500; stroke: #000000"/>
     <use xlink:href="#m648a2650ca" x="199.288791" y="185.915504" style="fill: #ffa500; stroke: #000000"/>
     <use xlink:href="#m648a2650ca" x="199.288791" y="156.82611" style="fill: #ffa500; stroke: #000000"/>
     <use xlink:href="#m648a2650ca" x="165.595862" y="142.281413" style="fill: #ffa500; stroke: #000000"/>
     <use xlink:href="#m648a2650ca" x="148.749397" y="229.549595" style="fill: #ffa500; stroke: #000000"/>
     <use xlink:href="#m648a2650ca" x="131.902932" y="200.460201" style="fill: #ffa500; stroke: #000000"/>
     <use xlink:href="#m648a2650ca" x="182.442326" y="331.362474" style="fill: #ffa500; stroke: #000000"/>
     <use xlink:href="#m648a2650ca" x="182.442326" y="229.549595" style="fill: #ffa500; stroke: #000000"/>
     <use xlink:href="#m648a2650ca" x="165.595862" y="215.004898" style="fill: #ffa500; stroke: #000000"/>
     <use xlink:href="#m648a2650ca" x="249.828185" y="98.647322" style="fill: #ffa500; stroke: #000000"/>
     <use xlink:href="#m648a2650ca" x="115.056468" y="171.370807" style="fill: #ffa500; stroke: #000000"/>
     <use xlink:href="#m648a2650ca" x="266.67465" y="156.82611" style="fill: #ffa500; stroke: #000000"/>
     <use xlink:href="#m648a2650ca" x="182.442326" y="171.370807" style="fill: #ffa500; stroke: #000000"/>
     <use xlink:href="#m648a2650ca" x="98.210003" y="331.362474" style="fill: #ffa500; stroke: #000000"/>
     <use xlink:href="#m648a2650ca" x="81.363539" y="244.094292" style="fill: #ffa500; stroke: #000000"/>
     <use xlink:href="#m648a2650ca" x="182.442326" y="156.82611" style="fill: #ffa500; stroke: #000000"/>
     <use xlink:href="#m648a2650ca" x="64.517074" y="229.549595" style="fill: #ffa500; stroke: #000000"/>
     <use xlink:href="#m648a2650ca" x="182.442326" y="156.82611" style="fill: #ffa500; stroke: #000000"/>
    </g>
   </g>
   <g id="PathCollection_3">
    <defs>
     <path id="m82009b471a" d="M -0 3.535534 
L 3.535534 -3.535534 
L -3.535534 -3.535534 
z
" style="stroke: #000000"/>
    </defs>
    <g clip-path="url(#p988b5ad4bd)">
     <use xlink:href="#m82009b471a" x="300.367579" y="258.638989" style="fill: #add8e6; stroke: #000000"/>
     <use xlink:href="#m82009b471a" x="401.446367" y="302.27308" style="fill: #add8e6; stroke: #000000"/>
     <use xlink:href="#m82009b471a" x="418.292831" y="200.460201" style="fill: #add8e6; stroke: #000000"/>
     <use xlink:href="#m82009b471a" x="418.292831" y="258.638989" style="fill: #add8e6; stroke: #000000"/>
     <use xlink:href="#m82009b471a" x="317.214044" y="258.638989" style="fill: #add8e6; stroke: #000000"/>
     <use xlink:href="#m82009b471a" x="350.906973" y="273.183686" style="fill: #add8e6; stroke: #000000"/>
     <use xlink:href="#m82009b471a" x="283.521114" y="258.638989" style="fill: #add8e6; stroke: #000000"/>
     <use xlink:href="#m82009b471a" x="350.906973" y="171.370807" style="fill: #add8e6; stroke: #000000"/>
     <use xlink:href="#m82009b471a" x="401.446367" y="185.915504" style="fill: #add8e6; stroke: #000000"/>
     <use xlink:href="#m82009b471a" x="401.446367" y="185.915504" style="fill: #add8e6; stroke: #000000"/>
     <use xlink:href="#m82009b471a" x="350.906973" y="244.094292" style="fill: #add8e6; stroke: #000000"/>
     <use xlink:href="#m82009b471a" x="300.367579" y="244.094292" style="fill: #add8e6; stroke: #000000"/>
     <use xlink:href="#m82009b471a" x="283.521114" y="244.094292" style="fill: #add8e6; stroke: #000000"/>
     <use xlink:href="#m82009b471a" x="334.060508" y="229.549595" style="fill: #add8e6; stroke: #000000"/>
     <use xlink:href="#m82009b471a" x="401.446367" y="244.094292" style="fill: #add8e6; stroke: #000000"/>
     <use xlink:href="#m82009b471a" x="283.521114" y="229.549595" style="fill: #add8e6; stroke: #000000"/>
     <use xlink:href="#m82009b471a" x="350.906973" y="345.907171" style="fill: #add8e6; stroke: #000000"/>
     <use xlink:href="#m82009b471a" x="367.753437" y="258.638989" style="fill: #add8e6; stroke: #000000"/>
     <use xlink:href="#m82009b471a" x="317.214044" y="273.183686" style="fill: #add8e6; stroke: #000000"/>
     <use xlink:href="#m82009b471a" x="334.060508" y="200.460201" style="fill: #add8e6; stroke: #000000"/>
     <use xlink:href="#m82009b471a" x="283.521114" y="229.549595" style="fill: #add8e6; stroke: #000000"/>
     <use xlink:href="#m82009b471a" x="283.521114" y="273.183686" style="fill: #add8e6; stroke: #000000"/>
     <use xlink:href="#m82009b471a" x="367.753437" y="244.094292" style="fill: #add8e6; stroke: #000000"/>
     <use xlink:href="#m82009b471a" x="266.67465" y="331.362474" style="fill: #add8e6; stroke: #000000"/>
     <use xlink:href="#m82009b471a" x="401.446367" y="302.27308" style="fill: #add8e6; stroke: #000000"/>
     <use xlink:href="#m82009b471a" x="367.753437" y="229.549595" style="fill: #add8e6; stroke: #000000"/>
     <use xlink:href="#m82009b471a" x="435.139296" y="229.549595" style="fill: #add8e6; stroke: #000000"/>
     <use xlink:href="#m82009b471a" x="418.292831" y="200.460201" style="fill: #add8e6; stroke: #000000"/>
     <use xlink:href="#m82009b471a" x="317.214044" y="273.183686" style="fill: #add8e6; stroke: #000000"/>
     <use xlink:href="#m82009b471a" x="317.214044" y="273.183686" style="fill: #add8e6; stroke: #000000"/>
     <use xlink:href="#m82009b471a" x="384.599902" y="171.370807" style="fill: #add8e6; stroke: #000000"/>
     <use xlink:href="#m82009b471a" x="401.446367" y="258.638989" style="fill: #add8e6; stroke: #000000"/>
     <use xlink:href="#m82009b471a" x="418.292831" y="244.094292" style="fill: #add8e6; stroke: #000000"/>
     <use xlink:href="#m82009b471a" x="350.906973" y="229.549595" style="fill: #add8e6; stroke: #000000"/>
     <use xlink:href="#m82009b471a" x="384.599902" y="258.638989" style="fill: #add8e6; stroke: #000000"/>
     <use xlink:href="#m82009b471a" x="401.446367" y="273.183686" style="fill: #add8e6; stroke: #000000"/>
     <use xlink:href="#m82009b471a" x="317.214044" y="273.183686" style="fill: #add8e6; stroke: #000000"/>
     <use xlink:href="#m82009b471a" x="300.367579" y="229.549595" style="fill: #add8e6; stroke: #000000"/>
     <use xlink:href="#m82009b471a" x="317.214044" y="287.728383" style="fill: #add8e6; stroke: #000000"/>
     <use xlink:href="#m82009b471a" x="300.367579" y="258.638989" style="fill: #add8e6; stroke: #000000"/>
     <use xlink:href="#m82009b471a" x="435.139296" y="258.638989" style="fill: #add8e6; stroke: #000000"/>
     <use xlink:href="#m82009b471a" x="401.446367" y="171.370807" style="fill: #add8e6; stroke: #000000"/>
    </g>
   </g>
   <g id="PathCollection_4">
    <defs>
     <path id="m5d5351d51f" d="M 0 -7.905694 
L -1.774939 -2.442994 
L -7.518762 -2.442994 
L -2.871911 0.933141 
L -4.64685 6.395841 
L -0 3.019706 
L 4.64685 6.395841 
L 2.871911 0.933141 
L 7.518762 -2.442994 
L 1.774939 -2.442994 
z
" style="stroke: #000000"/>
    </defs>
    <g clip-path="url(#p988b5ad4bd)">
     <use xlink:href="#m5d5351d51f" x="529.738674" y="217.242544" style="fill: #ff0000; stroke: #000000"/>
     <use xlink:href="#m5d5351d51f" x="181.470415" y="183.957564" style="fill: #ff0000; stroke: #000000"/>
     <use xlink:href="#m5d5351d51f" x="353.313611" y="246.864711" style="fill: #ff0000; stroke: #000000"/>
    </g>
   </g>
   <g id="patch_3">
    <path d="M 34.193438 392.450201 
L 34.193438 8.470201 
" style="fill: none; stroke: #ffffff; stroke-width: 1.25; stroke-linejoin: miter; stroke-linecap: square"/>
   </g>
   <g id="patch_4">
    <path d="M 701.313437 392.450201 
L 701.313437 8.470201 
" style="fill: none; stroke: #ffffff; stroke-width: 1.25; stroke-linejoin: miter; stroke-linecap: square"/>
   </g>
   <g id="patch_5">
    <path d="M 34.193437 392.450201 
L 701.313438 392.450201 
" style="fill: none; stroke: #ffffff; stroke-width: 1.25; stroke-linejoin: miter; stroke-linecap: square"/>
   </g>
   <g id="patch_6">
    <path d="M 34.193437 8.470201 
L 701.313438 8.470201 
" style="fill: none; stroke: #ffffff; stroke-width: 1.25; stroke-linejoin: miter; stroke-linecap: square"/>
   </g>
   <g id="legend_1">
    <g id="patch_7">
     <path d="M 608.877344 65.708014 
L 693.613437 65.708014 
Q 695.813437 65.708014 695.813437 63.508014 
L 695.813437 16.170201 
Q 695.813437 13.970201 693.613437 13.970201 
L 608.877344 13.970201 
Q 606.677344 13.970201 606.677344 16.170201 
L 606.677344 63.508014 
Q 606.677344 65.708014 608.877344 65.708014 
z
" style="fill: #eaeaf2; opacity: 0.8; stroke: #cccccc; stroke-linejoin: miter"/>
    </g>
    <g id="PathCollection_5">
     <g>
      <use xlink:href="#m6cdb133f50" x="622.077344" y="23.840982" style="fill: #90ee90; stroke: #000000"/>
     </g>
    </g>
    <g id="text_15">
     <!-- Cluster 1 -->
     <g style="fill: #262626" transform="translate(641.877344 26.728482) scale(0.11 -0.11)">
      <defs>
       <path id="DejaVuSans-43" d="M 4122 4306 
L 4122 3641 
Q 3803 3938 3442 4084 
Q 3081 4231 2675 4231 
Q 1875 4231 1450 3742 
Q 1025 3253 1025 2328 
Q 1025 1406 1450 917 
Q 1875 428 2675 428 
Q 3081 428 3442 575 
Q 3803 722 4122 1019 
L 4122 359 
Q 3791 134 3420 21 
Q 3050 -91 2638 -91 
Q 1578 -91 968 557 
Q 359 1206 359 2328 
Q 359 3453 968 4101 
Q 1578 4750 2638 4750 
Q 3056 4750 3426 4639 
Q 3797 4528 4122 4306 
z
" transform="scale(0.015625)"/>
       <path id="DejaVuSans-6c" d="M 603 4863 
L 1178 4863 
L 1178 0 
L 603 0 
L 603 4863 
z
" transform="scale(0.015625)"/>
       <path id="DejaVuSans-75" d="M 544 1381 
L 544 3500 
L 1119 3500 
L 1119 1403 
Q 1119 906 1312 657 
Q 1506 409 1894 409 
Q 2359 409 2629 706 
Q 2900 1003 2900 1516 
L 2900 3500 
L 3475 3500 
L 3475 0 
L 2900 0 
L 2900 538 
Q 2691 219 2414 64 
Q 2138 -91 1772 -91 
Q 1169 -91 856 284 
Q 544 659 544 1381 
z
M 1991 3584 
L 1991 3584 
z
" transform="scale(0.015625)"/>
       <path id="DejaVuSans-73" d="M 2834 3397 
L 2834 2853 
Q 2591 2978 2328 3040 
Q 2066 3103 1784 3103 
Q 1356 3103 1142 2972 
Q 928 2841 928 2578 
Q 928 2378 1081 2264 
Q 1234 2150 1697 2047 
L 1894 2003 
Q 2506 1872 2764 1633 
Q 3022 1394 3022 966 
Q 3022 478 2636 193 
Q 2250 -91 1575 -91 
Q 1294 -91 989 -36 
Q 684 19 347 128 
L 347 722 
Q 666 556 975 473 
Q 1284 391 1588 391 
Q 1994 391 2212 530 
Q 2431 669 2431 922 
Q 2431 1156 2273 1281 
Q 2116 1406 1581 1522 
L 1381 1569 
Q 847 1681 609 1914 
Q 372 2147 372 2553 
Q 372 3047 722 3315 
Q 1072 3584 1716 3584 
Q 2034 3584 2315 3537 
Q 2597 3491 2834 3397 
z
" transform="scale(0.015625)"/>
       <path id="DejaVuSans-74" d="M 1172 4494 
L 1172 3500 
L 2356 3500 
L 2356 3053 
L 1172 3053 
L 1172 1153 
Q 1172 725 1289 603 
Q 1406 481 1766 481 
L 2356 481 
L 2356 0 
L 1766 0 
Q 1100 0 847 248 
Q 594 497 594 1153 
L 594 3053 
L 172 3053 
L 172 3500 
L 594 3500 
L 594 4494 
L 1172 4494 
z
" transform="scale(0.015625)"/>
       <path id="DejaVuSans-65" d="M 3597 1894 
L 3597 1613 
L 953 1613 
Q 991 1019 1311 708 
Q 1631 397 2203 397 
Q 2534 397 2845 478 
Q 3156 559 3463 722 
L 3463 178 
Q 3153 47 2828 -22 
Q 2503 -91 2169 -91 
Q 1331 -91 842 396 
Q 353 884 353 1716 
Q 353 2575 817 3079 
Q 1281 3584 2069 3584 
Q 2775 3584 3186 3129 
Q 3597 2675 3597 1894 
z
M 3022 2063 
Q 3016 2534 2758 2815 
Q 2500 3097 2075 3097 
Q 1594 3097 1305 2825 
Q 1016 2553 972 2059 
L 3022 2063 
z
" transform="scale(0.015625)"/>
       <path id="DejaVuSans-72" d="M 2631 2963 
Q 2534 3019 2420 3045 
Q 2306 3072 2169 3072 
Q 1681 3072 1420 2755 
Q 1159 2438 1159 1844 
L 1159 0 
L 581 0 
L 581 3500 
L 1159 3500 
L 1159 2956 
Q 1341 3275 1631 3429 
Q 1922 3584 2338 3584 
Q 2397 3584 2469 3576 
Q 2541 3569 2628 3553 
L 2631 2963 
z
" transform="scale(0.015625)"/>
       <path id="DejaVuSans-20" transform="scale(0.015625)"/>
       <path id="DejaVuSans-31" d="M 794 531 
L 1825 531 
L 1825 4091 
L 703 3866 
L 703 4441 
L 1819 4666 
L 2450 4666 
L 2450 531 
L 3481 531 
L 3481 0 
L 794 0 
L 794 531 
z
" transform="scale(0.015625)"/>
      </defs>
      <use xlink:href="#DejaVuSans-43"/>
      <use xlink:href="#DejaVuSans-6c" x="69.824219"/>
      <use xlink:href="#DejaVuSans-75" x="97.607422"/>
      <use xlink:href="#DejaVuSans-73" x="160.986328"/>
      <use xlink:href="#DejaVuSans-74" x="213.085938"/>
      <use xlink:href="#DejaVuSans-65" x="252.294922"/>
      <use xlink:href="#DejaVuSans-72" x="313.818359"/>
      <use xlink:href="#DejaVuSans-20" x="354.931641"/>
      <use xlink:href="#DejaVuSans-31" x="386.71875"/>
     </g>
    </g>
    <g id="PathCollection_6">
     <g>
      <use xlink:href="#m648a2650ca" x="622.077344" y="39.98692" style="fill: #ffa500; stroke: #000000"/>
     </g>
    </g>
    <g id="text_16">
     <!-- Cluster 2 -->
     <g style="fill: #262626" transform="translate(641.877344 42.87442) scale(0.11 -0.11)">
      <use xlink:href="#DejaVuSans-43"/>
      <use xlink:href="#DejaVuSans-6c" x="69.824219"/>
      <use xlink:href="#DejaVuSans-75" x="97.607422"/>
      <use xlink:href="#DejaVuSans-73" x="160.986328"/>
      <use xlink:href="#DejaVuSans-74" x="213.085938"/>
      <use xlink:href="#DejaVuSans-65" x="252.294922"/>
      <use xlink:href="#DejaVuSans-72" x="313.818359"/>
      <use xlink:href="#DejaVuSans-20" x="354.931641"/>
      <use xlink:href="#DejaVuSans-32" x="386.71875"/>
     </g>
    </g>
    <g id="PathCollection_7">
     <g>
      <use xlink:href="#m82009b471a" x="622.077344" y="56.132857" style="fill: #add8e6; stroke: #000000"/>
     </g>
    </g>
    <g id="text_17">
     <!-- Cluster 3 -->
     <g style="fill: #262626" transform="translate(641.877344 59.020357) scale(0.11 -0.11)">
      <use xlink:href="#DejaVuSans-43"/>
      <use xlink:href="#DejaVuSans-6c" x="69.824219"/>
      <use xlink:href="#DejaVuSans-75" x="97.607422"/>
      <use xlink:href="#DejaVuSans-73" x="160.986328"/>
      <use xlink:href="#DejaVuSans-74" x="213.085938"/>
      <use xlink:href="#DejaVuSans-65" x="252.294922"/>
      <use xlink:href="#DejaVuSans-72" x="313.818359"/>
      <use xlink:href="#DejaVuSans-20" x="354.931641"/>
      <use xlink:href="#DejaVuSans-33" x="386.71875"/>
     </g>
    </g>
   </g>
  </g>
 </g>
 <defs>
  <clipPath id="p988b5ad4bd">
   <rect x="34.193438" y="8.470201" width="667.12" height="383.98"/>
  </clipPath>
 </defs>
</svg>