<?xml version="1.0" encoding="utf-8" standalone="no"?>
<!DOCTYPE svg PUBLIC "-//W3C//DTD SVG 1.1//EN"
  "http://www.w3.org/Graphics/SVG/1.1/DTD/svg11.dtd">
<svg xmlns:xlink="http://www.w3.org/1999/xlink" width="1000.46125pt" height="351.034375pt" viewBox="0 0 1000.46125 351.034375" xmlns="http://www.w3.org/2000/svg" version="1.1">
 <metadata>
  <rdf:RDF xmlns:dc="http://purl.org/dc/elements/1.1/" xmlns:cc="http://creativecommons.org/ns#" xmlns:rdf="http://www.w3.org/1999/02/22-rdf-syntax-ns#">
   <cc:Work>
    <dc:type rdf:resource="http://purl.org/dc/dcmitype/StillImage"/>
    <dc:date>2024-09-23T12:49:21.186996</dc:date>
    <dc:format>image/svg+xml</dc:format>
    <dc:creator>
     <cc:Agent>
      <dc:title>Matplotlib v3.9.0, https://matplotlib.org/</dc:title>
     </cc:Agent>
    </dc:creator>
   </cc:Work>
  </rdf:RDF>
 </metadata>
 <defs>
  <style type="text/css">*{stroke-linejoin: round; stroke-linecap: butt}</style>
 </defs>
 <g id="figure_1">
  <g id="patch_1">
   <path d="M -0 351.034375 
L 1000.46125 351.034375 
L 1000.46125 0 
L -0 0 
z
" style="fill: #ffffff"/>
  </g>
  <g id="axes_1">
   <g id="patch_2">
    <path d="M 43.78125 313.478125 
L 491.51125 313.478125 
L 491.51125 22.318125 
L 43.78125 22.318125 
z
" style="fill: #ffffff"/>
   </g>
   <g id="PathCollection_1">
    <defs>
     <path id="me080052733" d="M 0 3 
C 0.795609 3 1.55874 2.683901 2.12132 2.12132 
C 2.683901 1.55874 3 0.795609 3 0 
C 3 -0.795609 2.683901 -1.55874 2.12132 -2.12132 
C 1.55874 -2.683901 0.795609 -3 0 -3 
C -0.795609 -3 -1.55874 -2.683901 -2.12132 -2.12132 
C -2.683901 -1.55874 -3 -0.795609 -3 0 
C -3 0.795609 -2.683901 1.55874 -2.12132 2.12132 
C -1.55874 2.683901 -0.795609 3 0 3 
z
" style="stroke: #000000"/>
    </defs>
    <g clip-path="url(#p8e961811bf)">
     <use xlink:href="#me080052733" x="145.538068" y="300.24358" style="stroke: #000000"/>
     <use xlink:href="#me080052733" x="154.583119" y="300.24358" style="stroke: #000000"/>
     <use xlink:href="#me080052733" x="181.71827" y="300.24358" style="stroke: #000000"/>
     <use xlink:href="#me080052733" x="199.808371" y="300.24358" style="stroke: #000000"/>
     <use xlink:href="#me080052733" x="235.988573" y="300.24358" style="stroke: #000000"/>
     <use xlink:href="#me080052733" x="272.168775" y="300.24358" style="stroke: #000000"/>
     <use xlink:href="#me080052733" x="290.258876" y="300.24358" style="stroke: #000000"/>
    </g>
   </g>
   <g id="matplotlib.axis_1">
    <g id="xtick_1">
     <g id="line2d_1">
      <defs>
       <path id="m66f2aa701f" d="M 0 0 
L 0 3.5 
" style="stroke: #000000; stroke-width: 0.8"/>
      </defs>
      <g>
       <use xlink:href="#m66f2aa701f" x="109.357866" y="313.478125" style="stroke: #000000; stroke-width: 0.8"/>
      </g>
     </g>
     <g id="text_1">
      <!-- −5 -->
      <g transform="translate(101.986772 328.076563) scale(0.1 -0.1)">
       <defs>
        <path id="DejaVuSans-2212" d="M 678 2272 
L 4684 2272 
L 4684 1741 
L 678 1741 
L 678 2272 
z
" transform="scale(0.015625)"/>
        <path id="DejaVuSans-35" d="M 691 4666 
L 3169 4666 
L 3169 4134 
L 1269 4134 
L 1269 2991 
Q 1406 3038 1543 3061 
Q 1681 3084 1819 3084 
Q 2600 3084 3056 2656 
Q 3513 2228 3513 1497 
Q 3513 744 3044 326 
Q 2575 -91 1722 -91 
Q 1428 -91 1123 -41 
Q 819 9 494 109 
L 494 744 
Q 775 591 1075 516 
Q 1375 441 1709 441 
Q 2250 441 2565 725 
Q 2881 1009 2881 1497 
Q 2881 1984 2565 2268 
Q 2250 2553 1709 2553 
Q 1456 2553 1204 2497 
Q 953 2441 691 2322 
L 691 4666 
z
" transform="scale(0.015625)"/>
       </defs>
       <use xlink:href="#DejaVuSans-2212"/>
       <use xlink:href="#DejaVuSans-35" x="83.789062"/>
      </g>
     </g>
    </g>
    <g id="xtick_2">
     <g id="line2d_2">
      <g>
       <use xlink:href="#m66f2aa701f" x="199.808371" y="313.478125" style="stroke: #000000; stroke-width: 0.8"/>
      </g>
     </g>
     <g id="text_2">
      <!-- 0 -->
      <g transform="translate(196.627121 328.076563) scale(0.1 -0.1)">
       <defs>
        <path id="DejaVuSans-30" d="M 2034 4250 
Q 1547 4250 1301 3770 
Q 1056 3291 1056 2328 
Q 1056 1369 1301 889 
Q 1547 409 2034 409 
Q 2525 409 2770 889 
Q 3016 1369 3016 2328 
Q 3016 3291 2770 3770 
Q 2525 4250 2034 4250 
z
M 2034 4750 
Q 2819 4750 3233 4129 
Q 3647 3509 3647 2328 
Q 3647 1150 3233 529 
Q 2819 -91 2034 -91 
Q 1250 -91 836 529 
Q 422 1150 422 2328 
Q 422 3509 836 4129 
Q 1250 4750 2034 4750 
z
" transform="scale(0.015625)"/>
       </defs>
       <use xlink:href="#DejaVuSans-30"/>
      </g>
     </g>
    </g>
    <g id="xtick_3">
     <g id="line2d_3">
      <g>
       <use xlink:href="#m66f2aa701f" x="290.258876" y="313.478125" style="stroke: #000000; stroke-width: 0.8"/>
      </g>
     </g>
     <g id="text_3">
      <!-- 5 -->
      <g transform="translate(287.077626 328.076563) scale(0.1 -0.1)">
       <use xlink:href="#DejaVuSans-35"/>
      </g>
     </g>
    </g>
    <g id="xtick_4">
     <g id="line2d_4">
      <g>
       <use xlink:href="#m66f2aa701f" x="380.709381" y="313.478125" style="stroke: #000000; stroke-width: 0.8"/>
      </g>
     </g>
     <g id="text_4">
      <!-- 10 -->
      <g transform="translate(374.346881 328.076563) scale(0.1 -0.1)">
       <defs>
        <path id="DejaVuSans-31" d="M 794 531 
L 1825 531 
L 1825 4091 
L 703 3866 
L 703 4441 
L 1819 4666 
L 2450 4666 
L 2450 531 
L 3481 531 
L 3481 0 
L 794 0 
L 794 531 
z
" transform="scale(0.015625)"/>
       </defs>
       <use xlink:href="#DejaVuSans-31"/>
       <use xlink:href="#DejaVuSans-30" x="63.623047"/>
      </g>
     </g>
    </g>
    <g id="xtick_5">
     <g id="line2d_5">
      <g>
       <use xlink:href="#m66f2aa701f" x="471.159886" y="313.478125" style="stroke: #000000; stroke-width: 0.8"/>
      </g>
     </g>
     <g id="text_5">
      <!-- 15 -->
      <g transform="translate(464.797386 328.076563) scale(0.1 -0.1)">
       <use xlink:href="#DejaVuSans-31"/>
       <use xlink:href="#DejaVuSans-35" x="63.623047"/>
      </g>
     </g>
    </g>
    <g id="text_6">
     <!-- x -->
     <g transform="translate(264.686875 341.754687) scale(0.1 -0.1)">
      <defs>
       <path id="DejaVuSans-78" d="M 3513 3500 
L 2247 1797 
L 3578 0 
L 2900 0 
L 1881 1375 
L 863 0 
L 184 0 
L 1544 1831 
L 300 3500 
L 978 3500 
L 1906 2253 
L 2834 3500 
L 3513 3500 
z
" transform="scale(0.015625)"/>
      </defs>
      <use xlink:href="#DejaVuSans-78"/>
     </g>
    </g>
   </g>
   <g id="matplotlib.axis_2">
    <g id="ytick_1">
     <g id="line2d_6">
      <defs>
       <path id="m824c8a5779" d="M 0 0 
L -3.5 0 
" style="stroke: #000000; stroke-width: 0.8"/>
      </defs>
      <g>
       <use xlink:href="#m824c8a5779" x="43.78125" y="300.24358" style="stroke: #000000; stroke-width: 0.8"/>
      </g>
     </g>
     <g id="text_7">
      <!-- 0.0 -->
      <g transform="translate(20.878125 304.042798) scale(0.1 -0.1)">
       <defs>
        <path id="DejaVuSans-2e" d="M 684 794 
L 1344 794 
L 1344 0 
L 684 0 
L 684 794 
z
" transform="scale(0.015625)"/>
       </defs>
       <use xlink:href="#DejaVuSans-30"/>
       <use xlink:href="#DejaVuSans-2e" x="63.623047"/>
       <use xlink:href="#DejaVuSans-30" x="95.410156"/>
      </g>
     </g>
    </g>
    <g id="ytick_2">
     <g id="line2d_7">
      <g>
       <use xlink:href="#m824c8a5779" x="43.78125" y="261.971321" style="stroke: #000000; stroke-width: 0.8"/>
      </g>
     </g>
     <g id="text_8">
      <!-- 0.1 -->
      <g transform="translate(20.878125 265.77054) scale(0.1 -0.1)">
       <use xlink:href="#DejaVuSans-30"/>
       <use xlink:href="#DejaVuSans-2e" x="63.623047"/>
       <use xlink:href="#DejaVuSans-31" x="95.410156"/>
      </g>
     </g>
    </g>
    <g id="ytick_3">
     <g id="line2d_8">
      <g>
       <use xlink:href="#m824c8a5779" x="43.78125" y="223.699063" style="stroke: #000000; stroke-width: 0.8"/>
      </g>
     </g>
     <g id="text_9">
      <!-- 0.2 -->
      <g transform="translate(20.878125 227.498282) scale(0.1 -0.1)">
       <defs>
        <path id="DejaVuSans-32" d="M 1228 531 
L 3431 531 
L 3431 0 
L 469 0 
L 469 531 
Q 828 903 1448 1529 
Q 2069 2156 2228 2338 
Q 2531 2678 2651 2914 
Q 2772 3150 2772 3378 
Q 2772 3750 2511 3984 
Q 2250 4219 1831 4219 
Q 1534 4219 1204 4116 
Q 875 4013 500 3803 
L 500 4441 
Q 881 4594 1212 4672 
Q 1544 4750 1819 4750 
Q 2544 4750 2975 4387 
Q 3406 4025 3406 3419 
Q 3406 3131 3298 2873 
Q 3191 2616 2906 2266 
Q 2828 2175 2409 1742 
Q 1991 1309 1228 531 
z
" transform="scale(0.015625)"/>
       </defs>
       <use xlink:href="#DejaVuSans-30"/>
       <use xlink:href="#DejaVuSans-2e" x="63.623047"/>
       <use xlink:href="#DejaVuSans-32" x="95.410156"/>
      </g>
     </g>
    </g>
    <g id="ytick_4">
     <g id="line2d_9">
      <g>
       <use xlink:href="#m824c8a5779" x="43.78125" y="185.426805" style="stroke: #000000; stroke-width: 0.8"/>
      </g>
     </g>
     <g id="text_10">
      <!-- 0.3 -->
      <g transform="translate(20.878125 189.226024) scale(0.1 -0.1)">
       <defs>
        <path id="DejaVuSans-33" d="M 2597 2516 
Q 3050 2419 3304 2112 
Q 3559 1806 3559 1356 
Q 3559 666 3084 287 
Q 2609 -91 1734 -91 
Q 1441 -91 1130 -33 
Q 819 25 488 141 
L 488 750 
Q 750 597 1062 519 
Q 1375 441 1716 441 
Q 2309 441 2620 675 
Q 2931 909 2931 1356 
Q 2931 1769 2642 2001 
Q 2353 2234 1838 2234 
L 1294 2234 
L 1294 2753 
L 1863 2753 
Q 2328 2753 2575 2939 
Q 2822 3125 2822 3475 
Q 2822 3834 2567 4026 
Q 2313 4219 1838 4219 
Q 1578 4219 1281 4162 
Q 984 4106 628 3988 
L 628 4550 
Q 988 4650 1302 4700 
Q 1616 4750 1894 4750 
Q 2613 4750 3031 4423 
Q 3450 4097 3450 3541 
Q 3450 3153 3228 2886 
Q 3006 2619 2597 2516 
z
" transform="scale(0.015625)"/>
       </defs>
       <use xlink:href="#DejaVuSans-30"/>
       <use xlink:href="#DejaVuSans-2e" x="63.623047"/>
       <use xlink:href="#DejaVuSans-33" x="95.410156"/>
      </g>
     </g>
    </g>
    <g id="ytick_5">
     <g id="line2d_10">
      <g>
       <use xlink:href="#m824c8a5779" x="43.78125" y="147.154547" style="stroke: #000000; stroke-width: 0.8"/>
      </g>
     </g>
     <g id="text_11">
      <!-- 0.4 -->
      <g transform="translate(20.878125 150.953766) scale(0.1 -0.1)">
       <defs>
        <path id="DejaVuSans-34" d="M 2419 4116 
L 825 1625 
L 2419 1625 
L 2419 4116 
z
M 2253 4666 
L 3047 4666 
L 3047 1625 
L 3713 1625 
L 3713 1100 
L 3047 1100 
L 3047 0 
L 2419 0 
L 2419 1100 
L 313 1100 
L 313 1709 
L 2253 4666 
z
" transform="scale(0.015625)"/>
       </defs>
       <use xlink:href="#DejaVuSans-30"/>
       <use xlink:href="#DejaVuSans-2e" x="63.623047"/>
       <use xlink:href="#DejaVuSans-34" x="95.410156"/>
      </g>
     </g>
    </g>
    <g id="ytick_6">
     <g id="line2d_11">
      <g>
       <use xlink:href="#m824c8a5779" x="43.78125" y="108.882289" style="stroke: #000000; stroke-width: 0.8"/>
      </g>
     </g>
     <g id="text_12">
      <!-- 0.5 -->
      <g transform="translate(20.878125 112.681508) scale(0.1 -0.1)">
       <use xlink:href="#DejaVuSans-30"/>
       <use xlink:href="#DejaVuSans-2e" x="63.623047"/>
       <use xlink:href="#DejaVuSans-35" x="95.410156"/>
      </g>
     </g>
    </g>
    <g id="ytick_7">
     <g id="line2d_12">
      <g>
       <use xlink:href="#m824c8a5779" x="43.78125" y="70.610031" style="stroke: #000000; stroke-width: 0.8"/>
      </g>
     </g>
     <g id="text_13">
      <!-- 0.6 -->
      <g transform="translate(20.878125 74.409249) scale(0.1 -0.1)">
       <defs>
        <path id="DejaVuSans-36" d="M 2113 2584 
Q 1688 2584 1439 2293 
Q 1191 2003 1191 1497 
Q 1191 994 1439 701 
Q 1688 409 2113 409 
Q 2538 409 2786 701 
Q 3034 994 3034 1497 
Q 3034 2003 2786 2293 
Q 2538 2584 2113 2584 
z
M 3366 4563 
L 3366 3988 
Q 3128 4100 2886 4159 
Q 2644 4219 2406 4219 
Q 1781 4219 1451 3797 
Q 1122 3375 1075 2522 
Q 1259 2794 1537 2939 
Q 1816 3084 2150 3084 
Q 2853 3084 3261 2657 
Q 3669 2231 3669 1497 
Q 3669 778 3244 343 
Q 2819 -91 2113 -91 
Q 1303 -91 875 529 
Q 447 1150 447 2328 
Q 447 3434 972 4092 
Q 1497 4750 2381 4750 
Q 2619 4750 2861 4703 
Q 3103 4656 3366 4563 
z
" transform="scale(0.015625)"/>
       </defs>
       <use xlink:href="#DejaVuSans-30"/>
       <use xlink:href="#DejaVuSans-2e" x="63.623047"/>
       <use xlink:href="#DejaVuSans-36" x="95.410156"/>
      </g>
     </g>
    </g>
    <g id="ytick_8">
     <g id="line2d_13">
      <g>
       <use xlink:href="#m824c8a5779" x="43.78125" y="32.337772" style="stroke: #000000; stroke-width: 0.8"/>
      </g>
     </g>
     <g id="text_14">
      <!-- 0.7 -->
      <g transform="translate(20.878125 36.136991) scale(0.1 -0.1)">
       <defs>
        <path id="DejaVuSans-37" d="M 525 4666 
L 3525 4666 
L 3525 4397 
L 1831 0 
L 1172 0 
L 2766 4134 
L 525 4134 
L 525 4666 
z
" transform="scale(0.015625)"/>
       </defs>
       <use xlink:href="#DejaVuSans-30"/>
       <use xlink:href="#DejaVuSans-2e" x="63.623047"/>
       <use xlink:href="#DejaVuSans-37" x="95.410156"/>
      </g>
     </g>
    </g>
    <g id="text_15">
     <!-- Density -->
     <g transform="translate(14.798438 186.906719) rotate(-90) scale(0.1 -0.1)">
      <defs>
       <path id="DejaVuSans-44" d="M 1259 4147 
L 1259 519 
L 2022 519 
Q 2988 519 3436 956 
Q 3884 1394 3884 2338 
Q 3884 3275 3436 3711 
Q 2988 4147 2022 4147 
L 1259 4147 
z
M 628 4666 
L 1925 4666 
Q 3281 4666 3915 4102 
Q 4550 3538 4550 2338 
Q 4550 1131 3912 565 
Q 3275 0 1925 0 
L 628 0 
L 628 4666 
z
" transform="scale(0.015625)"/>
       <path id="DejaVuSans-65" d="M 3597 1894 
L 3597 1613 
L 953 1613 
Q 991 1019 1311 708 
Q 1631 397 2203 397 
Q 2534 397 2845 478 
Q 3156 559 3463 722 
L 3463 178 
Q 3153 47 2828 -22 
Q 2503 -91 2169 -91 
Q 1331 -91 842 396 
Q 353 884 353 1716 
Q 353 2575 817 3079 
Q 1281 3584 2069 3584 
Q 2775 3584 3186 3129 
Q 3597 2675 3597 1894 
z
M 3022 2063 
Q 3016 2534 2758 2815 
Q 2500 3097 2075 3097 
Q 1594 3097 1305 2825 
Q 1016 2553 972 2059 
L 3022 2063 
z
" transform="scale(0.015625)"/>
       <path id="DejaVuSans-6e" d="M 3513 2113 
L 3513 0 
L 2938 0 
L 2938 2094 
Q 2938 2591 2744 2837 
Q 2550 3084 2163 3084 
Q 1697 3084 1428 2787 
Q 1159 2491 1159 1978 
L 1159 0 
L 581 0 
L 581 3500 
L 1159 3500 
L 1159 2956 
Q 1366 3272 1645 3428 
Q 1925 3584 2291 3584 
Q 2894 3584 3203 3211 
Q 3513 2838 3513 2113 
z
" transform="scale(0.015625)"/>
       <path id="DejaVuSans-73" d="M 2834 3397 
L 2834 2853 
Q 2591 2978 2328 3040 
Q 2066 3103 1784 3103 
Q 1356 3103 1142 2972 
Q 928 2841 928 2578 
Q 928 2378 1081 2264 
Q 1234 2150 1697 2047 
L 1894 2003 
Q 2506 1872 2764 1633 
Q 3022 1394 3022 966 
Q 3022 478 2636 193 
Q 2250 -91 1575 -91 
Q 1294 -91 989 -36 
Q 684 19 347 128 
L 347 722 
Q 666 556 975 473 
Q 1284 391 1588 391 
Q 1994 391 2212 530 
Q 2431 669 2431 922 
Q 2431 1156 2273 1281 
Q 2116 1406 1581 1522 
L 1381 1569 
Q 847 1681 609 1914 
Q 372 2147 372 2553 
Q 372 3047 722 3315 
Q 1072 3584 1716 3584 
Q 2034 3584 2315 3537 
Q 2597 3491 2834 3397 
z
" transform="scale(0.015625)"/>
       <path id="DejaVuSans-69" d="M 603 3500 
L 1178 3500 
L 1178 0 
L 603 0 
L 603 3500 
z
M 603 4863 
L 1178 4863 
L 1178 4134 
L 603 4134 
L 603 4863 
z
" transform="scale(0.015625)"/>
       <path id="DejaVuSans-74" d="M 1172 4494 
L 1172 3500 
L 2356 3500 
L 2356 3053 
L 1172 3053 
L 1172 1153 
Q 1172 725 1289 603 
Q 1406 481 1766 481 
L 2356 481 
L 2356 0 
L 1766 0 
Q 1100 0 847 248 
Q 594 497 594 1153 
L 594 3053 
L 172 3053 
L 172 3500 
L 594 3500 
L 594 4494 
L 1172 4494 
z
" transform="scale(0.015625)"/>
       <path id="DejaVuSans-79" d="M 2059 -325 
Q 1816 -950 1584 -1140 
Q 1353 -1331 966 -1331 
L 506 -1331 
L 506 -850 
L 844 -850 
Q 1081 -850 1212 -737 
Q 1344 -625 1503 -206 
L 1606 56 
L 191 3500 
L 800 3500 
L 1894 763 
L 2988 3500 
L 3597 3500 
L 2059 -325 
z
" transform="scale(0.015625)"/>
      </defs>
      <use xlink:href="#DejaVuSans-44"/>
      <use xlink:href="#DejaVuSans-65" x="77.001953"/>
      <use xlink:href="#DejaVuSans-6e" x="138.525391"/>
      <use xlink:href="#DejaVuSans-73" x="201.904297"/>
      <use xlink:href="#DejaVuSans-69" x="254.003906"/>
      <use xlink:href="#DejaVuSans-74" x="281.787109"/>
      <use xlink:href="#DejaVuSans-79" x="320.996094"/>
     </g>
    </g>
   </g>
   <g id="line2d_14">
    <path d="M 64.132614 300.243074 
L 87.763827 300.129765 
L 93.875347 299.893626 
L 98.357129 299.501862 
L 101.616607 299.011179 
L 104.46865 298.372314 
L 106.913258 297.61927 
L 109.357866 296.629781 
L 111.39504 295.590972 
L 113.432213 294.329036 
L 115.469387 292.819569 
L 117.50656 291.042298 
L 119.543734 288.983264 
L 121.580907 286.637118 
L 124.025516 283.451331 
L 126.470124 279.894648 
L 129.322167 275.363253 
L 134.618818 266.408104 
L 138.28573 260.433165 
L 140.730339 256.875914 
L 142.767512 254.315087 
L 144.397251 252.59503 
L 146.02699 251.210143 
L 147.249294 250.411254 
L 148.471598 249.830032 
L 149.693902 249.474342 
L 150.916206 249.349026 
L 152.13851 249.455796 
L 153.360815 249.793193 
L 154.583119 250.356623 
L 155.805423 251.138456 
L 157.435162 252.502126 
L 159.0649 254.203121 
L 160.694639 256.202413 
L 162.731813 259.052707 
L 165.176421 262.861658 
L 169.250768 269.708068 
L 174.139985 277.84102 
L 176.992028 282.164147 
L 179.436636 285.493919 
L 181.881244 288.428181 
L 183.918418 290.558302 
L 185.955591 292.404444 
L 187.992765 293.978642 
L 190.029938 295.299815 
L 192.067112 296.391536 
L 194.51172 297.435681 
L 196.956328 298.233836 
L 199.808371 298.914137 
L 203.067849 299.439421 
L 206.734761 299.80417 
L 211.623978 300.059439 
L 218.957802 300.20002 
L 236.477495 300.242864 
L 471.159886 300.24358 
L 471.159886 300.24358 
" clip-path="url(#p8e961811bf)" style="fill: none; stroke: #1f77b4; stroke-width: 1.5; stroke-linecap: square"/>
   </g>
   <g id="line2d_15">
    <path d="M 64.132614 300.24358 
L 178.214332 300.146786 
L 179.436636 299.894181 
L 180.251505 299.471907 
L 181.066375 298.623582 
L 181.473809 297.940581 
L 181.881244 297.010878 
L 182.288679 295.763044 
L 182.696113 294.111798 
L 183.103548 291.957752 
L 183.918418 285.67854 
L 184.733287 275.907129 
L 185.548156 261.59152 
L 186.363026 241.891299 
L 187.177895 216.50746 
L 188.400199 169.358931 
L 190.437373 86.432177 
L 191.252242 62.15702 
L 191.659677 53.738676 
L 192.067112 48.238846 
L 192.474546 45.862805 
L 192.881981 46.700172 
L 193.289416 50.7193 
L 193.696851 57.76926 
L 194.51172 79.824604 
L 195.326589 109.784354 
L 198.178632 223.639864 
L 198.993502 247.561006 
L 199.808371 265.804309 
L 200.623241 278.843731 
L 201.43811 287.603865 
L 202.252979 293.147253 
L 203.067849 296.45654 
L 203.882718 298.322542 
L 204.697588 299.317301 
L 205.512457 299.819041 
L 206.327327 300.058626 
L 207.957065 300.213431 
L 212.846282 300.243541 
L 471.159886 300.24358 
L 471.159886 300.24358 
" clip-path="url(#p8e961811bf)" style="fill: none; stroke: #ff7f0e; stroke-width: 1.5; stroke-linecap: square"/>
   </g>
   <g id="line2d_16">
    <path d="M 64.132614 300.227621 
L 101.616607 300.077898 
L 120.766038 299.788069 
L 134.618818 299.367529 
L 146.434425 298.790029 
L 156.620292 298.078483 
L 166.398725 297.173077 
L 175.769723 296.080745 
L 185.140722 294.765605 
L 195.326589 293.106312 
L 207.957065 290.807842 
L 230.365974 286.691823 
L 238.922103 285.367397 
L 246.255928 284.445274 
L 253.182318 283.800005 
L 259.701273 283.420825 
L 265.812794 283.281151 
L 271.924314 283.355845 
L 278.035835 283.642084 
L 284.55479 284.168336 
L 291.48118 284.952876 
L 299.22244 286.060537 
L 308.593438 287.642345 
L 323.668522 290.457114 
L 339.151041 293.277471 
L 349.744344 294.976005 
L 359.115342 296.258443 
L 368.48634 297.317226 
L 378.264773 298.189706 
L 388.450641 298.871367 
L 399.858813 299.40588 
L 413.304158 299.80115 
L 430.416416 300.063926 
L 455.677367 300.203977 
L 471.159886 300.229496 
L 471.159886 300.229496 
" clip-path="url(#p8e961811bf)" style="fill: none; stroke: #2ca02c; stroke-width: 1.5; stroke-linecap: square"/>
   </g>
   <g id="line2d_17">
    <path d="M 64.132614 300.227115 
L 86.134088 300.094058 
L 93.060478 299.839022 
L 97.54226 299.462113 
L 101.209172 298.922977 
L 104.061215 298.288186 
L 106.505823 297.542907 
L 108.950431 296.565415 
L 110.987605 295.539716 
L 113.024779 294.29327 
L 115.061952 292.800871 
L 117.099126 291.04101 
L 119.136299 288.998037 
L 121.173473 286.664437 
L 123.618081 283.485378 
L 126.062689 279.921422 
L 128.914732 275.356333 
L 133.396514 267.655587 
L 137.878296 260.054462 
L 140.322904 256.310604 
L 142.360077 253.565751 
L 143.989816 251.680973 
L 145.619555 250.11723 
L 147.249294 248.908677 
L 148.471598 248.251464 
L 149.693902 247.81678 
L 150.916206 247.609401 
L 152.13851 247.630971 
L 153.360815 247.879966 
L 154.583119 248.351728 
L 155.805423 249.038567 
L 157.435162 250.270301 
L 159.0649 251.833209 
L 160.694639 253.68814 
L 162.731813 256.348985 
L 165.176421 259.917141 
L 169.250768 266.328907 
L 173.73255 273.284525 
L 176.584593 277.290345 
L 178.214332 279.29479 
L 179.436636 280.493087 
L 180.251505 280.981035 
L 180.65894 281.06513 
L 181.066375 280.996161 
L 181.473809 280.727147 
L 181.881244 280.199541 
L 182.288679 279.341886 
L 182.696113 278.068894 
L 183.103548 276.281188 
L 183.510983 273.86599 
L 183.918418 270.699037 
L 184.733287 261.57756 
L 185.548156 247.865405 
L 186.363026 228.723013 
L 187.177895 203.852424 
L 188.400199 157.392877 
L 190.437373 75.410607 
L 191.252242 51.44651 
L 191.659677 43.170235 
L 192.067112 37.80379 
L 192.474546 35.55267 
L 192.881981 36.506715 
L 193.289416 40.634498 
L 193.696851 47.785315 
L 194.51172 70.019865 
L 195.326589 100.130285 
L 198.178632 214.313432 
L 198.993502 238.278008 
L 199.808371 256.545353 
L 200.623241 269.590912 
L 201.43811 278.3407 
L 202.252979 283.858614 
L 203.067849 287.128583 
L 203.882718 288.942632 
L 204.697588 289.873946 
L 205.512457 290.301817 
L 206.327327 290.458109 
L 207.549631 290.454118 
L 209.994239 290.172778 
L 216.10576 289.188003 
L 237.699799 285.541371 
L 245.441058 284.536273 
L 252.367448 283.863416 
L 258.886404 283.455454 
L 264.997924 283.287422 
L 271.109445 283.333519 
L 277.220966 283.592004 
L 283.739921 284.090737 
L 290.666311 284.849593 
L 298.40757 285.93412 
L 307.371134 287.424817 
L 320.816479 289.91676 
L 338.743606 293.20754 
L 349.336909 294.915323 
L 358.707907 296.207306 
L 368.078905 297.275831 
L 377.857338 298.157833 
L 388.043206 298.848107 
L 399.451378 299.390335 
L 412.489288 299.782893 
L 429.194111 300.051348 
L 453.640194 300.19848 
L 471.159886 300.229496 
L 471.159886 300.229496 
" clip-path="url(#p8e961811bf)" style="fill: none; stroke-dasharray: 5.55,2.4; stroke-dashoffset: 0; stroke: #000000; stroke-width: 1.5"/>
   </g>
   <g id="patch_3">
    <path d="M 43.78125 313.478125 
L 43.78125 22.318125 
" style="fill: none; stroke: #000000; stroke-width: 0.8; stroke-linejoin: miter; stroke-linecap: square"/>
   </g>
   <g id="patch_4">
    <path d="M 491.51125 313.478125 
L 491.51125 22.318125 
" style="fill: none; stroke: #000000; stroke-width: 0.8; stroke-linejoin: miter; stroke-linecap: square"/>
   </g>
   <g id="patch_5">
    <path d="M 43.78125 313.478125 
L 491.51125 313.478125 
" style="fill: none; stroke: #000000; stroke-width: 0.8; stroke-linejoin: miter; stroke-linecap: square"/>
   </g>
   <g id="patch_6">
    <path d="M 43.78125 22.318125 
L 491.51125 22.318125 
" style="fill: none; stroke: #000000; stroke-width: 0.8; stroke-linejoin: miter; stroke-linecap: square"/>
   </g>
   <g id="text_16">
    <!-- Updated Gaussian Mixture Model and Data Points with New Mean. -->
    <g transform="translate(69.125938 16.318125) scale(0.12 -0.12)">
     <defs>
      <path id="DejaVuSans-55" d="M 556 4666 
L 1191 4666 
L 1191 1831 
Q 1191 1081 1462 751 
Q 1734 422 2344 422 
Q 2950 422 3222 751 
Q 3494 1081 3494 1831 
L 3494 4666 
L 4128 4666 
L 4128 1753 
Q 4128 841 3676 375 
Q 3225 -91 2344 -91 
Q 1459 -91 1007 375 
Q 556 841 556 1753 
L 556 4666 
z
" transform="scale(0.015625)"/>
      <path id="DejaVuSans-70" d="M 1159 525 
L 1159 -1331 
L 581 -1331 
L 581 3500 
L 1159 3500 
L 1159 2969 
Q 1341 3281 1617 3432 
Q 1894 3584 2278 3584 
Q 2916 3584 3314 3078 
Q 3713 2572 3713 1747 
Q 3713 922 3314 415 
Q 2916 -91 2278 -91 
Q 1894 -91 1617 61 
Q 1341 213 1159 525 
z
M 3116 1747 
Q 3116 2381 2855 2742 
Q 2594 3103 2138 3103 
Q 1681 3103 1420 2742 
Q 1159 2381 1159 1747 
Q 1159 1113 1420 752 
Q 1681 391 2138 391 
Q 2594 391 2855 752 
Q 3116 1113 3116 1747 
z
" transform="scale(0.015625)"/>
      <path id="DejaVuSans-64" d="M 2906 2969 
L 2906 4863 
L 3481 4863 
L 3481 0 
L 2906 0 
L 2906 525 
Q 2725 213 2448 61 
Q 2172 -91 1784 -91 
Q 1150 -91 751 415 
Q 353 922 353 1747 
Q 353 2572 751 3078 
Q 1150 3584 1784 3584 
Q 2172 3584 2448 3432 
Q 2725 3281 2906 2969 
z
M 947 1747 
Q 947 1113 1208 752 
Q 1469 391 1925 391 
Q 2381 391 2643 752 
Q 2906 1113 2906 1747 
Q 2906 2381 2643 2742 
Q 2381 3103 1925 3103 
Q 1469 3103 1208 2742 
Q 947 2381 947 1747 
z
" transform="scale(0.015625)"/>
      <path id="DejaVuSans-61" d="M 2194 1759 
Q 1497 1759 1228 1600 
Q 959 1441 959 1056 
Q 959 750 1161 570 
Q 1363 391 1709 391 
Q 2188 391 2477 730 
Q 2766 1069 2766 1631 
L 2766 1759 
L 2194 1759 
z
M 3341 1997 
L 3341 0 
L 2766 0 
L 2766 531 
Q 2569 213 2275 61 
Q 1981 -91 1556 -91 
Q 1019 -91 701 211 
Q 384 513 384 1019 
Q 384 1609 779 1909 
Q 1175 2209 1959 2209 
L 2766 2209 
L 2766 2266 
Q 2766 2663 2505 2880 
Q 2244 3097 1772 3097 
Q 1472 3097 1187 3025 
Q 903 2953 641 2809 
L 641 3341 
Q 956 3463 1253 3523 
Q 1550 3584 1831 3584 
Q 2591 3584 2966 3190 
Q 3341 2797 3341 1997 
z
" transform="scale(0.015625)"/>
      <path id="DejaVuSans-20" transform="scale(0.015625)"/>
      <path id="DejaVuSans-47" d="M 3809 666 
L 3809 1919 
L 2778 1919 
L 2778 2438 
L 4434 2438 
L 4434 434 
Q 4069 175 3628 42 
Q 3188 -91 2688 -91 
Q 1594 -91 976 548 
Q 359 1188 359 2328 
Q 359 3472 976 4111 
Q 1594 4750 2688 4750 
Q 3144 4750 3555 4637 
Q 3966 4525 4313 4306 
L 4313 3634 
Q 3963 3931 3569 4081 
Q 3175 4231 2741 4231 
Q 1884 4231 1454 3753 
Q 1025 3275 1025 2328 
Q 1025 1384 1454 906 
Q 1884 428 2741 428 
Q 3075 428 3337 486 
Q 3600 544 3809 666 
z
" transform="scale(0.015625)"/>
      <path id="DejaVuSans-75" d="M 544 1381 
L 544 3500 
L 1119 3500 
L 1119 1403 
Q 1119 906 1312 657 
Q 1506 409 1894 409 
Q 2359 409 2629 706 
Q 2900 1003 2900 1516 
L 2900 3500 
L 3475 3500 
L 3475 0 
L 2900 0 
L 2900 538 
Q 2691 219 2414 64 
Q 2138 -91 1772 -91 
Q 1169 -91 856 284 
Q 544 659 544 1381 
z
M 1991 3584 
L 1991 3584 
z
" transform="scale(0.015625)"/>
      <path id="DejaVuSans-4d" d="M 628 4666 
L 1569 4666 
L 2759 1491 
L 3956 4666 
L 4897 4666 
L 4897 0 
L 4281 0 
L 4281 4097 
L 3078 897 
L 2444 897 
L 1241 4097 
L 1241 0 
L 628 0 
L 628 4666 
z
" transform="scale(0.015625)"/>
      <path id="DejaVuSans-72" d="M 2631 2963 
Q 2534 3019 2420 3045 
Q 2306 3072 2169 3072 
Q 1681 3072 1420 2755 
Q 1159 2438 1159 1844 
L 1159 0 
L 581 0 
L 581 3500 
L 1159 3500 
L 1159 2956 
Q 1341 3275 1631 3429 
Q 1922 3584 2338 3584 
Q 2397 3584 2469 3576 
Q 2541 3569 2628 3553 
L 2631 2963 
z
" transform="scale(0.015625)"/>
      <path id="DejaVuSans-6f" d="M 1959 3097 
Q 1497 3097 1228 2736 
Q 959 2375 959 1747 
Q 959 1119 1226 758 
Q 1494 397 1959 397 
Q 2419 397 2687 759 
Q 2956 1122 2956 1747 
Q 2956 2369 2687 2733 
Q 2419 3097 1959 3097 
z
M 1959 3584 
Q 2709 3584 3137 3096 
Q 3566 2609 3566 1747 
Q 3566 888 3137 398 
Q 2709 -91 1959 -91 
Q 1206 -91 779 398 
Q 353 888 353 1747 
Q 353 2609 779 3096 
Q 1206 3584 1959 3584 
z
" transform="scale(0.015625)"/>
      <path id="DejaVuSans-6c" d="M 603 4863 
L 1178 4863 
L 1178 0 
L 603 0 
L 603 4863 
z
" transform="scale(0.015625)"/>
      <path id="DejaVuSans-50" d="M 1259 4147 
L 1259 2394 
L 2053 2394 
Q 2494 2394 2734 2622 
Q 2975 2850 2975 3272 
Q 2975 3691 2734 3919 
Q 2494 4147 2053 4147 
L 1259 4147 
z
M 628 4666 
L 2053 4666 
Q 2838 4666 3239 4311 
Q 3641 3956 3641 3272 
Q 3641 2581 3239 2228 
Q 2838 1875 2053 1875 
L 1259 1875 
L 1259 0 
L 628 0 
L 628 4666 
z
" transform="scale(0.015625)"/>
      <path id="DejaVuSans-77" d="M 269 3500 
L 844 3500 
L 1563 769 
L 2278 3500 
L 2956 3500 
L 3675 769 
L 4391 3500 
L 4966 3500 
L 4050 0 
L 3372 0 
L 2619 2869 
L 1863 0 
L 1184 0 
L 269 3500 
z
" transform="scale(0.015625)"/>
      <path id="DejaVuSans-68" d="M 3513 2113 
L 3513 0 
L 2938 0 
L 2938 2094 
Q 2938 2591 2744 2837 
Q 2550 3084 2163 3084 
Q 1697 3084 1428 2787 
Q 1159 2491 1159 1978 
L 1159 0 
L 581 0 
L 581 4863 
L 1159 4863 
L 1159 2956 
Q 1366 3272 1645 3428 
Q 1925 3584 2291 3584 
Q 2894 3584 3203 3211 
Q 3513 2838 3513 2113 
z
" transform="scale(0.015625)"/>
      <path id="DejaVuSans-4e" d="M 628 4666 
L 1478 4666 
L 3547 763 
L 3547 4666 
L 4159 4666 
L 4159 0 
L 3309 0 
L 1241 3903 
L 1241 0 
L 628 0 
L 628 4666 
z
" transform="scale(0.015625)"/>
     </defs>
     <use xlink:href="#DejaVuSans-55"/>
     <use xlink:href="#DejaVuSans-70" x="73.193359"/>
     <use xlink:href="#DejaVuSans-64" x="136.669922"/>
     <use xlink:href="#DejaVuSans-61" x="200.146484"/>
     <use xlink:href="#DejaVuSans-74" x="261.425781"/>
     <use xlink:href="#DejaVuSans-65" x="300.634766"/>
     <use xlink:href="#DejaVuSans-64" x="362.158203"/>
     <use xlink:href="#DejaVuSans-20" x="425.634766"/>
     <use xlink:href="#DejaVuSans-47" x="457.421875"/>
     <use xlink:href="#DejaVuSans-61" x="534.912109"/>
     <use xlink:href="#DejaVuSans-75" x="596.191406"/>
     <use xlink:href="#DejaVuSans-73" x="659.570312"/>
     <use xlink:href="#DejaVuSans-73" x="711.669922"/>
     <use xlink:href="#DejaVuSans-69" x="763.769531"/>
     <use xlink:href="#DejaVuSans-61" x="791.552734"/>
     <use xlink:href="#DejaVuSans-6e" x="852.832031"/>
     <use xlink:href="#DejaVuSans-20" x="916.210938"/>
     <use xlink:href="#DejaVuSans-4d" x="947.998047"/>
     <use xlink:href="#DejaVuSans-69" x="1034.277344"/>
     <use xlink:href="#DejaVuSans-78" x="1062.060547"/>
     <use xlink:href="#DejaVuSans-74" x="1121.240234"/>
     <use xlink:href="#DejaVuSans-75" x="1160.449219"/>
     <use xlink:href="#DejaVuSans-72" x="1223.828125"/>
     <use xlink:href="#DejaVuSans-65" x="1262.691406"/>
     <use xlink:href="#DejaVuSans-20" x="1324.214844"/>
     <use xlink:href="#DejaVuSans-4d" x="1356.001953"/>
     <use xlink:href="#DejaVuSans-6f" x="1442.28125"/>
     <use xlink:href="#DejaVuSans-64" x="1503.462891"/>
     <use xlink:href="#DejaVuSans-65" x="1566.939453"/>
     <use xlink:href="#DejaVuSans-6c" x="1628.462891"/>
     <use xlink:href="#DejaVuSans-20" x="1656.246094"/>
     <use xlink:href="#DejaVuSans-61" x="1688.033203"/>
     <use xlink:href="#DejaVuSans-6e" x="1749.3125"/>
     <use xlink:href="#DejaVuSans-64" x="1812.691406"/>
     <use xlink:href="#DejaVuSans-20" x="1876.167969"/>
     <use xlink:href="#DejaVuSans-44" x="1907.955078"/>
     <use xlink:href="#DejaVuSans-61" x="1984.957031"/>
     <use xlink:href="#DejaVuSans-74" x="2046.236328"/>
     <use xlink:href="#DejaVuSans-61" x="2085.445312"/>
     <use xlink:href="#DejaVuSans-20" x="2146.724609"/>
     <use xlink:href="#DejaVuSans-50" x="2178.511719"/>
     <use xlink:href="#DejaVuSans-6f" x="2235.189453"/>
     <use xlink:href="#DejaVuSans-69" x="2296.371094"/>
     <use xlink:href="#DejaVuSans-6e" x="2324.154297"/>
     <use xlink:href="#DejaVuSans-74" x="2387.533203"/>
     <use xlink:href="#DejaVuSans-73" x="2426.742188"/>
     <use xlink:href="#DejaVuSans-20" x="2478.841797"/>
     <use xlink:href="#DejaVuSans-77" x="2510.628906"/>
     <use xlink:href="#DejaVuSans-69" x="2592.416016"/>
     <use xlink:href="#DejaVuSans-74" x="2620.199219"/>
     <use xlink:href="#DejaVuSans-68" x="2659.408203"/>
     <use xlink:href="#DejaVuSans-20" x="2722.787109"/>
     <use xlink:href="#DejaVuSans-4e" x="2754.574219"/>
     <use xlink:href="#DejaVuSans-65" x="2829.378906"/>
     <use xlink:href="#DejaVuSans-77" x="2890.902344"/>
     <use xlink:href="#DejaVuSans-20" x="2972.689453"/>
     <use xlink:href="#DejaVuSans-4d" x="3004.476562"/>
     <use xlink:href="#DejaVuSans-65" x="3090.755859"/>
     <use xlink:href="#DejaVuSans-61" x="3152.279297"/>
     <use xlink:href="#DejaVuSans-6e" x="3213.558594"/>
     <use xlink:href="#DejaVuSans-2e" x="3276.9375"/>
    </g>
   </g>
   <g id="legend_1">
    <g id="patch_7">
     <path d="M 371.61125 105.274375 
L 484.51125 105.274375 
Q 486.51125 105.274375 486.51125 103.274375 
L 486.51125 29.318125 
Q 486.51125 27.318125 484.51125 27.318125 
L 371.61125 27.318125 
Q 369.61125 27.318125 369.61125 29.318125 
L 369.61125 103.274375 
Q 369.61125 105.274375 371.61125 105.274375 
z
" style="fill: #ffffff; opacity: 0.8; stroke: #cccccc; stroke-linejoin: miter"/>
    </g>
    <g id="PathCollection_2">
     <g>
      <use xlink:href="#me080052733" x="383.61125" y="36.291563" style="stroke: #000000"/>
     </g>
    </g>
    <g id="text_17">
     <!-- Data points -->
     <g transform="translate(401.61125 38.916563) scale(0.1 -0.1)">
      <use xlink:href="#DejaVuSans-44"/>
      <use xlink:href="#DejaVuSans-61" x="77.001953"/>
      <use xlink:href="#DejaVuSans-74" x="138.28125"/>
      <use xlink:href="#DejaVuSans-61" x="177.490234"/>
      <use xlink:href="#DejaVuSans-20" x="238.769531"/>
      <use xlink:href="#DejaVuSans-70" x="270.556641"/>
      <use xlink:href="#DejaVuSans-6f" x="334.033203"/>
      <use xlink:href="#DejaVuSans-69" x="395.214844"/>
      <use xlink:href="#DejaVuSans-6e" x="422.998047"/>
      <use xlink:href="#DejaVuSans-74" x="486.376953"/>
      <use xlink:href="#DejaVuSans-73" x="525.585938"/>
     </g>
    </g>
    <g id="line2d_18">
     <path d="M 373.61125 50.49625 
L 383.61125 50.49625 
L 393.61125 50.49625 
" style="fill: none; stroke: #1f77b4; stroke-width: 1.5; stroke-linecap: square"/>
    </g>
    <g id="text_18">
     <!-- $\mathcal{N}(x \mid -2.7, 1.0)$ -->
     <g transform="translate(401.61125 53.99625) scale(0.1 -0.1)">
      <defs>
       <path id="STIXNonUnicode-Italic-e23a" d="M 4294 800 
L 4301 800 
Q 5293 4070 5408 4378 
Q 5472 4538 5523 4614 
Q 5830 5088 6253 5088 
Q 6490 5088 6650 4931 
Q 6810 4774 6810 4550 
Q 6810 4378 6720 4272 
Q 6630 4166 6470 4166 
Q 6368 4166 6297 4224 
Q 6227 4282 6198 4349 
Q 6170 4416 6118 4473 
Q 6067 4531 6003 4531 
Q 5939 4531 5881 4508 
Q 5824 4486 5785 4457 
Q 5747 4429 5705 4371 
Q 5664 4314 5638 4275 
Q 5613 4237 5584 4163 
Q 5555 4090 5545 4058 
Q 5536 4026 5510 3952 
Q 5485 3878 5485 3866 
L 4262 -154 
L 4134 -154 
Q 3078 1280 2483 2893 
L 2470 2893 
Q 2406 2579 2358 2361 
Q 2310 2144 2214 1792 
Q 2118 1440 2028 1190 
Q 1939 941 1804 653 
Q 1670 365 1529 185 
Q 1389 6 1203 -115 
Q 1018 -237 813 -237 
Q 576 -237 416 -80 
Q 256 77 256 301 
Q 256 474 345 579 
Q 435 685 595 685 
Q 698 685 768 627 
Q 838 570 867 502 
Q 896 435 947 377 
Q 998 320 1062 320 
Q 1222 320 1369 480 
Q 1517 640 1638 928 
Q 1760 1216 1862 1542 
Q 1965 1869 2057 2288 
Q 2150 2707 2214 3033 
Q 2278 3360 2348 3741 
Q 2419 4122 2458 4294 
L 2630 4294 
Q 2682 4166 2874 3680 
Q 3066 3194 3142 3008 
Q 3219 2822 3392 2422 
Q 3565 2022 3683 1798 
Q 3802 1574 3968 1292 
Q 4134 1011 4294 800 
z
" transform="scale(0.015625)"/>
       <path id="DejaVuSans-28" d="M 1984 4856 
Q 1566 4138 1362 3434 
Q 1159 2731 1159 2009 
Q 1159 1288 1364 580 
Q 1569 -128 1984 -844 
L 1484 -844 
Q 1016 -109 783 600 
Q 550 1309 550 2009 
Q 550 2706 781 3412 
Q 1013 4119 1484 4856 
L 1984 4856 
z
" transform="scale(0.015625)"/>
       <path id="DejaVuSans-Oblique-78" d="M 3841 3500 
L 2234 1784 
L 3219 0 
L 2559 0 
L 1819 1388 
L 531 0 
L -166 0 
L 1556 1844 
L 641 3500 
L 1300 3500 
L 1972 2234 
L 3144 3500 
L 3841 3500 
z
" transform="scale(0.015625)"/>
       <path id="DejaVuSans-2223" d="M 1350 4934 
L 1850 4934 
L 1850 -1369 
L 1350 -1369 
L 1350 4934 
z
" transform="scale(0.015625)"/>
       <path id="DejaVuSans-2c" d="M 750 794 
L 1409 794 
L 1409 256 
L 897 -744 
L 494 -744 
L 750 256 
L 750 794 
z
" transform="scale(0.015625)"/>
       <path id="DejaVuSans-29" d="M 513 4856 
L 1013 4856 
Q 1481 4119 1714 3412 
Q 1947 2706 1947 2009 
Q 1947 1309 1714 600 
Q 1481 -109 1013 -844 
L 513 -844 
Q 928 -128 1133 580 
Q 1338 1288 1338 2009 
Q 1338 2731 1133 3434 
Q 928 4138 513 4856 
z
" transform="scale(0.015625)"/>
      </defs>
      <use xlink:href="#STIXNonUnicode-Italic-e23a" transform="translate(0 0.5)"/>
      <use xlink:href="#DejaVuSans-28" transform="translate(95.699982 0.5)"/>
      <use xlink:href="#DejaVuSans-Oblique-78" transform="translate(134.713654 0.5)"/>
      <use xlink:href="#DejaVuSans-2223" transform="translate(213.375763 0.5)"/>
      <use xlink:href="#DejaVuSans-2212" transform="translate(302.340607 0.5)"/>
      <use xlink:href="#DejaVuSans-32" transform="translate(405.612091 0.5)"/>
      <use xlink:href="#DejaVuSans-2e" transform="translate(469.235138 0.5)"/>
      <use xlink:href="#DejaVuSans-37" transform="translate(493.272247 0.5)"/>
      <use xlink:href="#DejaVuSans-2c" transform="translate(556.895294 0.5)"/>
      <use xlink:href="#DejaVuSans-31" transform="translate(608.164825 0.5)"/>
      <use xlink:href="#DejaVuSans-2e" transform="translate(671.787872 0.5)"/>
      <use xlink:href="#DejaVuSans-30" transform="translate(703.574982 0.5)"/>
      <use xlink:href="#DejaVuSans-29" transform="translate(767.198029 0.5)"/>
     </g>
    </g>
    <g id="line2d_19">
     <path d="M 373.61125 65.69625 
L 383.61125 65.69625 
L 393.61125 65.69625 
" style="fill: none; stroke: #ff7f0e; stroke-width: 1.5; stroke-linecap: square"/>
    </g>
    <g id="text_19">
     <!-- $\mathcal{N}(x \mid -0.4, 0.2)$ -->
     <g transform="translate(401.61125 69.19625) scale(0.1 -0.1)">
      <use xlink:href="#STIXNonUnicode-Italic-e23a" transform="translate(0 0.5)"/>
      <use xlink:href="#DejaVuSans-28" transform="translate(95.699982 0.5)"/>
      <use xlink:href="#DejaVuSans-Oblique-78" transform="translate(134.713654 0.5)"/>
      <use xlink:href="#DejaVuSans-2223" transform="translate(213.375763 0.5)"/>
      <use xlink:href="#DejaVuSans-2212" transform="translate(302.340607 0.5)"/>
      <use xlink:href="#DejaVuSans-30" transform="translate(405.612091 0.5)"/>
      <use xlink:href="#DejaVuSans-2e" transform="translate(469.235138 0.5)"/>
      <use xlink:href="#DejaVuSans-34" transform="translate(501.022247 0.5)"/>
      <use xlink:href="#DejaVuSans-2c" transform="translate(564.645294 0.5)"/>
      <use xlink:href="#DejaVuSans-30" transform="translate(615.914825 0.5)"/>
      <use xlink:href="#DejaVuSans-2e" transform="translate(679.537872 0.5)"/>
      <use xlink:href="#DejaVuSans-32" transform="translate(705.824982 0.5)"/>
      <use xlink:href="#DejaVuSans-29" transform="translate(769.448029 0.5)"/>
     </g>
    </g>
    <g id="line2d_20">
     <path d="M 373.61125 80.89625 
L 383.61125 80.89625 
L 393.61125 80.89625 
" style="fill: none; stroke: #2ca02c; stroke-width: 1.5; stroke-linecap: square"/>
    </g>
    <g id="text_20">
     <!-- $\mathcal{N}(x \mid 3.7, 3.0)$ -->
     <g transform="translate(401.61125 84.39625) scale(0.1 -0.1)">
      <use xlink:href="#STIXNonUnicode-Italic-e23a" transform="translate(0 0.5)"/>
      <use xlink:href="#DejaVuSans-28" transform="translate(95.699982 0.5)"/>
      <use xlink:href="#DejaVuSans-Oblique-78" transform="translate(134.713654 0.5)"/>
      <use xlink:href="#DejaVuSans-2223" transform="translate(213.375763 0.5)"/>
      <use xlink:href="#DejaVuSans-33" transform="translate(282.858185 0.5)"/>
      <use xlink:href="#DejaVuSans-2e" transform="translate(346.481232 0.5)"/>
      <use xlink:href="#DejaVuSans-37" transform="translate(370.518341 0.5)"/>
      <use xlink:href="#DejaVuSans-2c" transform="translate(434.141388 0.5)"/>
      <use xlink:href="#DejaVuSans-33" transform="translate(485.410919 0.5)"/>
      <use xlink:href="#DejaVuSans-2e" transform="translate(549.033966 0.5)"/>
      <use xlink:href="#DejaVuSans-30" transform="translate(580.821075 0.5)"/>
      <use xlink:href="#DejaVuSans-29" transform="translate(644.444122 0.5)"/>
     </g>
    </g>
    <g id="line2d_21">
     <path d="M 373.61125 95.694688 
L 383.61125 95.694688 
L 393.61125 95.694688 
" style="fill: none; stroke-dasharray: 5.55,2.4; stroke-dashoffset: 0; stroke: #000000; stroke-width: 1.5"/>
    </g>
    <g id="text_21">
     <!-- GMM -->
     <g transform="translate(401.61125 99.194688) scale(0.1 -0.1)">
      <use xlink:href="#DejaVuSans-47"/>
      <use xlink:href="#DejaVuSans-4d" x="77.490234"/>
      <use xlink:href="#DejaVuSans-4d" x="163.769531"/>
     </g>
    </g>
   </g>
  </g>
  <g id="axes_2">
   <g id="patch_8">
    <path d="M 545.53125 313.478125 
L 993.26125 313.478125 
L 993.26125 22.318125 
L 545.53125 22.318125 
z
" style="fill: #ffffff"/>
   </g>
   <g id="PathCollection_3">
    <g clip-path="url(#pdf188b5556)">
     <use xlink:href="#me080052733" x="647.288068" y="300.24358" style="stroke: #000000"/>
     <use xlink:href="#me080052733" x="656.333119" y="300.24358" style="stroke: #000000"/>
     <use xlink:href="#me080052733" x="683.46827" y="300.24358" style="stroke: #000000"/>
     <use xlink:href="#me080052733" x="701.558371" y="300.24358" style="stroke: #000000"/>
     <use xlink:href="#me080052733" x="737.738573" y="300.24358" style="stroke: #000000"/>
     <use xlink:href="#me080052733" x="773.918775" y="300.24358" style="stroke: #000000"/>
     <use xlink:href="#me080052733" x="792.008876" y="300.24358" style="stroke: #000000"/>
    </g>
   </g>
   <g id="matplotlib.axis_3">
    <g id="xtick_6">
     <g id="line2d_22">
      <g>
       <use xlink:href="#m66f2aa701f" x="611.107866" y="313.478125" style="stroke: #000000; stroke-width: 0.8"/>
      </g>
     </g>
     <g id="text_22">
      <!-- −5 -->
      <g transform="translate(603.736772 328.076563) scale(0.1 -0.1)">
       <use xlink:href="#DejaVuSans-2212"/>
       <use xlink:href="#DejaVuSans-35" x="83.789062"/>
      </g>
     </g>
    </g>
    <g id="xtick_7">
     <g id="line2d_23">
      <g>
       <use xlink:href="#m66f2aa701f" x="701.558371" y="313.478125" style="stroke: #000000; stroke-width: 0.8"/>
      </g>
     </g>
     <g id="text_23">
      <!-- 0 -->
      <g transform="translate(698.377121 328.076563) scale(0.1 -0.1)">
       <use xlink:href="#DejaVuSans-30"/>
      </g>
     </g>
    </g>
    <g id="xtick_8">
     <g id="line2d_24">
      <g>
       <use xlink:href="#m66f2aa701f" x="792.008876" y="313.478125" style="stroke: #000000; stroke-width: 0.8"/>
      </g>
     </g>
     <g id="text_24">
      <!-- 5 -->
      <g transform="translate(788.827626 328.076563) scale(0.1 -0.1)">
       <use xlink:href="#DejaVuSans-35"/>
      </g>
     </g>
    </g>
    <g id="xtick_9">
     <g id="line2d_25">
      <g>
       <use xlink:href="#m66f2aa701f" x="882.459381" y="313.478125" style="stroke: #000000; stroke-width: 0.8"/>
      </g>
     </g>
     <g id="text_25">
      <!-- 10 -->
      <g transform="translate(876.096881 328.076563) scale(0.1 -0.1)">
       <use xlink:href="#DejaVuSans-31"/>
       <use xlink:href="#DejaVuSans-30" x="63.623047"/>
      </g>
     </g>
    </g>
    <g id="xtick_10">
     <g id="line2d_26">
      <g>
       <use xlink:href="#m66f2aa701f" x="972.909886" y="313.478125" style="stroke: #000000; stroke-width: 0.8"/>
      </g>
     </g>
     <g id="text_26">
      <!-- 15 -->
      <g transform="translate(966.547386 328.076563) scale(0.1 -0.1)">
       <use xlink:href="#DejaVuSans-31"/>
       <use xlink:href="#DejaVuSans-35" x="63.623047"/>
      </g>
     </g>
    </g>
    <g id="text_27">
     <!-- x -->
     <g transform="translate(766.436875 341.754687) scale(0.1 -0.1)">
      <use xlink:href="#DejaVuSans-78"/>
     </g>
    </g>
   </g>
   <g id="matplotlib.axis_4">
    <g id="ytick_9">
     <g id="line2d_27">
      <g>
       <use xlink:href="#m824c8a5779" x="545.53125" y="300.24358" style="stroke: #000000; stroke-width: 0.8"/>
      </g>
     </g>
     <g id="text_28">
      <!-- 0.00 -->
      <g transform="translate(516.265625 304.042798) scale(0.1 -0.1)">
       <use xlink:href="#DejaVuSans-30"/>
       <use xlink:href="#DejaVuSans-2e" x="63.623047"/>
       <use xlink:href="#DejaVuSans-30" x="95.410156"/>
       <use xlink:href="#DejaVuSans-30" x="159.033203"/>
      </g>
     </g>
    </g>
    <g id="ytick_10">
     <g id="line2d_28">
      <g>
       <use xlink:href="#m824c8a5779" x="545.53125" y="263.055495" style="stroke: #000000; stroke-width: 0.8"/>
      </g>
     </g>
     <g id="text_29">
      <!-- 0.05 -->
      <g transform="translate(516.265625 266.854714) scale(0.1 -0.1)">
       <use xlink:href="#DejaVuSans-30"/>
       <use xlink:href="#DejaVuSans-2e" x="63.623047"/>
       <use xlink:href="#DejaVuSans-30" x="95.410156"/>
       <use xlink:href="#DejaVuSans-35" x="159.033203"/>
      </g>
     </g>
    </g>
    <g id="ytick_11">
     <g id="line2d_29">
      <g>
       <use xlink:href="#m824c8a5779" x="545.53125" y="225.86741" style="stroke: #000000; stroke-width: 0.8"/>
      </g>
     </g>
     <g id="text_30">
      <!-- 0.10 -->
      <g transform="translate(516.265625 229.666629) scale(0.1 -0.1)">
       <use xlink:href="#DejaVuSans-30"/>
       <use xlink:href="#DejaVuSans-2e" x="63.623047"/>
       <use xlink:href="#DejaVuSans-31" x="95.410156"/>
       <use xlink:href="#DejaVuSans-30" x="159.033203"/>
      </g>
     </g>
    </g>
    <g id="ytick_12">
     <g id="line2d_30">
      <g>
       <use xlink:href="#m824c8a5779" x="545.53125" y="188.679326" style="stroke: #000000; stroke-width: 0.8"/>
      </g>
     </g>
     <g id="text_31">
      <!-- 0.15 -->
      <g transform="translate(516.265625 192.478544) scale(0.1 -0.1)">
       <use xlink:href="#DejaVuSans-30"/>
       <use xlink:href="#DejaVuSans-2e" x="63.623047"/>
       <use xlink:href="#DejaVuSans-31" x="95.410156"/>
       <use xlink:href="#DejaVuSans-35" x="159.033203"/>
      </g>
     </g>
    </g>
    <g id="ytick_13">
     <g id="line2d_31">
      <g>
       <use xlink:href="#m824c8a5779" x="545.53125" y="151.491241" style="stroke: #000000; stroke-width: 0.8"/>
      </g>
     </g>
     <g id="text_32">
      <!-- 0.20 -->
      <g transform="translate(516.265625 155.29046) scale(0.1 -0.1)">
       <use xlink:href="#DejaVuSans-30"/>
       <use xlink:href="#DejaVuSans-2e" x="63.623047"/>
       <use xlink:href="#DejaVuSans-32" x="95.410156"/>
       <use xlink:href="#DejaVuSans-30" x="159.033203"/>
      </g>
     </g>
    </g>
    <g id="ytick_14">
     <g id="line2d_32">
      <g>
       <use xlink:href="#m824c8a5779" x="545.53125" y="114.303156" style="stroke: #000000; stroke-width: 0.8"/>
      </g>
     </g>
     <g id="text_33">
      <!-- 0.25 -->
      <g transform="translate(516.265625 118.102375) scale(0.1 -0.1)">
       <use xlink:href="#DejaVuSans-30"/>
       <use xlink:href="#DejaVuSans-2e" x="63.623047"/>
       <use xlink:href="#DejaVuSans-32" x="95.410156"/>
       <use xlink:href="#DejaVuSans-35" x="159.033203"/>
      </g>
     </g>
    </g>
    <g id="ytick_15">
     <g id="line2d_33">
      <g>
       <use xlink:href="#m824c8a5779" x="545.53125" y="77.115072" style="stroke: #000000; stroke-width: 0.8"/>
      </g>
     </g>
     <g id="text_34">
      <!-- 0.30 -->
      <g transform="translate(516.265625 80.914291) scale(0.1 -0.1)">
       <use xlink:href="#DejaVuSans-30"/>
       <use xlink:href="#DejaVuSans-2e" x="63.623047"/>
       <use xlink:href="#DejaVuSans-33" x="95.410156"/>
       <use xlink:href="#DejaVuSans-30" x="159.033203"/>
      </g>
     </g>
    </g>
    <g id="ytick_16">
     <g id="line2d_34">
      <g>
       <use xlink:href="#m824c8a5779" x="545.53125" y="39.926987" style="stroke: #000000; stroke-width: 0.8"/>
      </g>
     </g>
     <g id="text_35">
      <!-- 0.35 -->
      <g transform="translate(516.265625 43.726206) scale(0.1 -0.1)">
       <use xlink:href="#DejaVuSans-30"/>
       <use xlink:href="#DejaVuSans-2e" x="63.623047"/>
       <use xlink:href="#DejaVuSans-33" x="95.410156"/>
       <use xlink:href="#DejaVuSans-35" x="159.033203"/>
      </g>
     </g>
    </g>
    <g id="text_36">
     <!-- Density -->
     <g transform="translate(510.185938 186.906719) rotate(-90) scale(0.1 -0.1)">
      <use xlink:href="#DejaVuSans-44"/>
      <use xlink:href="#DejaVuSans-65" x="77.001953"/>
      <use xlink:href="#DejaVuSans-6e" x="138.525391"/>
      <use xlink:href="#DejaVuSans-73" x="201.904297"/>
      <use xlink:href="#DejaVuSans-69" x="254.003906"/>
      <use xlink:href="#DejaVuSans-74" x="281.787109"/>
      <use xlink:href="#DejaVuSans-79" x="320.996094"/>
     </g>
    </g>
   </g>
   <g id="line2d_35">
    <path d="M 565.882614 300.24358 
L 625.775516 300.147548 
L 627.812689 299.93951 
L 629.034993 299.662247 
L 630.257297 299.167824 
L 631.072167 298.65123 
L 631.887036 297.920474 
L 632.701906 296.903128 
L 633.516775 295.509374 
L 634.331644 293.630639 
L 635.146514 291.139253 
L 635.961383 287.889607 
L 636.776253 283.721255 
L 637.591122 278.464411 
L 638.405992 271.948096 
L 639.220861 264.011056 
L 640.443165 249.149697 
L 641.665469 230.504381 
L 642.887773 208.108985 
L 644.517512 173.28748 
L 648.999294 72.881734 
L 649.814163 59.101715 
L 650.629033 48.166534 
L 651.443902 40.527018 
L 651.851337 38.049767 
L 652.258772 36.506224 
L 652.666206 35.913084 
L 653.073641 36.27678 
L 653.481076 37.593365 
L 653.88851 39.848589 
L 654.295945 43.018147 
L 655.110815 51.955589 
L 655.925684 64.030916 
L 657.147988 86.928046 
L 658.777727 123.252508 
L 662.037205 197.84899 
L 663.666943 228.847595 
L 664.889248 247.799228 
L 666.111552 262.956241 
L 667.333856 274.583277 
L 668.148725 280.601199 
L 668.963595 285.424129 
L 669.778464 289.223728 
L 670.593333 292.167045 
L 671.408203 294.409397 
L 672.223072 296.089827 
L 673.037942 297.328792 
L 673.852811 298.227634 
L 674.667681 298.869359 
L 675.889985 299.490881 
L 677.112289 299.844533 
L 678.742028 300.080826 
L 681.594071 300.214113 
L 689.742765 300.243496 
L 972.909886 300.24358 
L 972.909886 300.24358 
" clip-path="url(#pdf188b5556)" style="fill: none; stroke: #1f77b4; stroke-width: 1.5; stroke-linecap: square"/>
   </g>
   <g id="line2d_36">
    <path d="M 565.882614 300.24358 
L 648.591859 300.138934 
L 652.258772 299.923532 
L 654.70338 299.603333 
L 656.740553 299.138172 
L 658.370292 298.567672 
L 660.000031 297.749175 
L 661.222335 296.922746 
L 662.444639 295.868144 
L 663.666943 294.538137 
L 664.889248 292.880641 
L 666.111552 290.839706 
L 667.333856 288.357018 
L 668.55616 285.37397 
L 669.778464 281.834305 
L 671.000768 277.687293 
L 672.223072 272.891373 
L 673.852811 265.440653 
L 675.48255 256.76972 
L 677.112289 246.931007 
L 679.149462 233.206358 
L 682.001505 212.22627 
L 685.668418 185.280848 
L 687.298156 174.614583 
L 688.927895 165.467839 
L 690.150199 159.882759 
L 690.965069 156.860277 
L 691.779938 154.446603 
L 692.594808 152.674384 
L 693.409677 151.567823 
L 693.817112 151.26928 
L 694.224546 151.142132 
L 694.631981 151.186818 
L 695.039416 151.403184 
L 695.446851 151.790482 
L 696.26172 153.071948 
L 697.076589 155.013626 
L 697.891459 157.589056 
L 698.706328 160.763511 
L 699.928632 166.5542 
L 701.150937 173.427159 
L 702.780675 183.937078 
L 705.225284 201.564258 
L 710.1145 237.524978 
L 712.151674 250.800583 
L 713.781412 260.206797 
L 715.411151 268.416077 
L 717.04089 275.404529 
L 718.670629 281.212806 
L 719.892933 284.846431 
L 721.115237 287.914859 
L 722.337541 290.473693 
L 723.559845 292.581355 
L 724.78215 294.296359 
L 726.004454 295.675149 
L 727.226758 296.770507 
L 728.449062 297.630489 
L 730.078801 298.48404 
L 731.70854 299.080438 
L 733.745713 299.568027 
L 736.190321 299.90476 
L 739.449799 300.117006 
L 745.153885 300.224661 
L 765.933055 300.243577 
L 972.909886 300.24358 
L 972.909886 300.24358 
" clip-path="url(#pdf188b5556)" style="fill: none; stroke: #ff7f0e; stroke-width: 1.5; stroke-linecap: square"/>
   </g>
   <g id="line2d_37">
    <path d="M 565.882614 300.24358 
L 687.298156 300.132966 
L 694.631981 299.899249 
L 699.928632 299.512211 
L 704.002979 298.986854 
L 707.262457 298.351426 
L 710.1145 297.583476 
L 712.559108 296.727243 
L 715.003717 295.650553 
L 717.448325 294.315367 
L 719.892933 292.682827 
L 721.930107 291.067868 
L 723.96728 289.199875 
L 726.004454 287.061314 
L 728.041627 284.638511 
L 730.486235 281.34432 
L 732.930844 277.626303 
L 735.375452 273.497984 
L 738.227495 268.206856 
L 741.486973 261.642093 
L 746.376189 251.179987 
L 751.67284 239.960396 
L 754.524883 234.436093 
L 756.969491 230.211179 
L 759.006665 227.153389 
L 760.636404 225.061321 
L 762.266143 223.318521 
L 763.895881 221.951742 
L 765.118186 221.186439 
L 766.34049 220.651506 
L 767.562794 220.351698 
L 768.785098 220.289693 
L 770.007402 220.466044 
L 771.229706 220.879175 
L 772.45201 221.525405 
L 773.674314 222.399001 
L 775.304053 223.903898 
L 776.933792 225.775782 
L 778.563531 227.986092 
L 780.600704 231.174119 
L 782.637878 234.766461 
L 785.082486 239.499753 
L 788.749399 247.167135 
L 797.305527 265.344702 
L 800.565005 271.618872 
L 803.417048 276.591459 
L 805.861656 280.418165 
L 808.306265 283.822909 
L 810.750873 286.804301 
L 812.788046 288.974102 
L 814.82522 290.871587 
L 816.862393 292.513919 
L 819.307002 294.176175 
L 821.75161 295.537472 
L 824.196218 296.636653 
L 826.640826 297.511904 
L 829.492869 298.297989 
L 832.752347 298.949442 
L 836.419259 299.446025 
L 840.901041 299.817994 
L 847.012562 300.074168 
L 856.38356 300.207883 
L 880.422208 300.243285 
L 972.909886 300.24358 
L 972.909886 300.24358 
" clip-path="url(#pdf188b5556)" style="fill: none; stroke: #2ca02c; stroke-width: 1.5; stroke-linecap: square"/>
   </g>
   <g id="line2d_38">
    <path d="M 565.882614 300.24358 
L 625.775516 300.147535 
L 627.812689 299.939478 
L 629.034993 299.662191 
L 630.257297 299.167727 
L 631.072167 298.651091 
L 631.887036 297.920276 
L 632.701906 296.902847 
L 633.516775 295.508977 
L 634.331644 293.63008 
L 635.146514 291.138471 
L 635.961383 287.888516 
L 636.776253 283.719741 
L 637.591122 278.462319 
L 638.405992 271.94522 
L 639.220861 264.007118 
L 640.443165 249.143445 
L 641.665469 230.494555 
L 642.887773 208.093701 
L 644.517512 173.260379 
L 648.999294 72.76265 
L 649.814163 58.948171 
L 650.629033 47.969468 
L 651.443902 40.275257 
L 651.851337 37.765696 
L 652.258772 36.186066 
L 652.666206 35.55267 
L 653.073641 35.871516 
L 653.481076 37.138195 
L 653.88851 39.337955 
L 654.295945 42.445951 
L 655.110815 51.23959 
L 655.925684 63.139093 
L 657.147988 85.698983 
L 658.777727 121.397725 
L 661.62977 185.554215 
L 662.852074 209.333054 
L 664.074378 229.370178 
L 665.296682 245.266002 
L 666.111552 253.550092 
L 666.926421 260.064696 
L 667.74129 264.926643 
L 668.55616 268.277966 
L 669.371029 270.272559 
L 669.778464 270.809702 
L 670.185899 271.065375 
L 670.593333 271.057799 
L 671.000768 270.804409 
L 671.408203 270.321749 
L 672.223072 268.729972 
L 673.037942 266.395156 
L 673.852811 263.414271 
L 675.075115 257.908739 
L 676.297419 251.362046 
L 677.927158 241.333854 
L 679.964332 227.252142 
L 687.298156 174.503402 
L 688.927895 165.323986 
L 690.150199 159.708462 
L 691.372504 155.364442 
L 692.187373 153.239928 
L 693.002242 151.766693 
L 693.817112 150.964149 
L 694.224546 150.817939 
L 694.631981 150.842487 
L 695.039416 151.037584 
L 695.446851 151.402428 
L 696.26172 152.635199 
L 697.076589 154.522722 
L 697.891459 157.038014 
L 698.706328 160.145783 
L 699.928632 165.822831 
L 701.150937 172.563824 
L 702.780675 182.865013 
L 705.225284 200.095454 
L 709.707065 232.160337 
L 711.744239 245.063916 
L 713.373978 254.115988 
L 715.003717 261.885476 
L 716.226021 266.835809 
L 717.448325 271.036257 
L 718.670629 274.507906 
L 719.892933 277.285678 
L 721.115237 279.414411 
L 722.337541 280.945233 
L 723.152411 281.660348 
L 723.96728 282.1501 
L 724.78215 282.430564 
L 725.597019 282.517376 
L 726.411888 282.425551 
L 727.226758 282.169346 
L 728.449062 281.505894 
L 729.671366 280.543897 
L 730.89367 279.320036 
L 732.523409 277.335876 
L 734.153148 275.007991 
L 736.190321 271.696843 
L 738.63493 267.250505 
L 741.486973 261.576206 
L 745.56132 252.929507 
L 751.67284 239.958761 
L 754.524883 234.435583 
L 756.969491 230.211 
L 759.006665 227.153316 
L 760.636404 225.061286 
L 762.266143 223.318505 
L 763.895881 221.951734 
L 765.118186 221.186435 
L 766.34049 220.651503 
L 767.562794 220.351697 
L 768.785098 220.289692 
L 770.007402 220.466043 
L 771.229706 220.879175 
L 772.45201 221.525405 
L 773.674314 222.399001 
L 775.304053 223.903898 
L 776.933792 225.775782 
L 778.563531 227.986092 
L 780.600704 231.174119 
L 782.637878 234.766461 
L 785.082486 239.499753 
L 788.749399 247.167135 
L 797.305527 265.344702 
L 800.565005 271.618872 
L 803.417048 276.591459 
L 805.861656 280.418165 
L 808.306265 283.822909 
L 810.750873 286.804301 
L 812.788046 288.974102 
L 814.82522 290.871587 
L 816.862393 292.513919 
L 819.307002 294.176175 
L 821.75161 295.537472 
L 824.196218 296.636653 
L 826.640826 297.511904 
L 829.492869 298.297989 
L 832.752347 298.949442 
L 836.419259 299.446025 
L 840.901041 299.817994 
L 847.012562 300.074168 
L 856.38356 300.207883 
L 880.422208 300.243285 
L 972.909886 300.24358 
L 972.909886 300.24358 
" clip-path="url(#pdf188b5556)" style="fill: none; stroke-dasharray: 5.55,2.4; stroke-dashoffset: 0; stroke: #000000; stroke-width: 1.5"/>
   </g>
   <g id="patch_9">
    <path d="M 545.53125 313.478125 
L 545.53125 22.318125 
" style="fill: none; stroke: #000000; stroke-width: 0.8; stroke-linejoin: miter; stroke-linecap: square"/>
   </g>
   <g id="patch_10">
    <path d="M 993.26125 313.478125 
L 993.26125 22.318125 
" style="fill: none; stroke: #000000; stroke-width: 0.8; stroke-linejoin: miter; stroke-linecap: square"/>
   </g>
   <g id="patch_11">
    <path d="M 545.53125 313.478125 
L 993.26125 313.478125 
" style="fill: none; stroke: #000000; stroke-width: 0.8; stroke-linejoin: miter; stroke-linecap: square"/>
   </g>
   <g id="patch_12">
    <path d="M 545.53125 22.318125 
L 993.26125 22.318125 
" style="fill: none; stroke: #000000; stroke-width: 0.8; stroke-linejoin: miter; stroke-linecap: square"/>
   </g>
   <g id="text_37">
    <!-- Updated Gaussian Mixture Model and Data Points with New Variances -->
    <g transform="translate(560.085312 16.318125) scale(0.12 -0.12)">
     <defs>
      <path id="DejaVuSans-56" d="M 1831 0 
L 50 4666 
L 709 4666 
L 2188 738 
L 3669 4666 
L 4325 4666 
L 2547 0 
L 1831 0 
z
" transform="scale(0.015625)"/>
      <path id="DejaVuSans-63" d="M 3122 3366 
L 3122 2828 
Q 2878 2963 2633 3030 
Q 2388 3097 2138 3097 
Q 1578 3097 1268 2742 
Q 959 2388 959 1747 
Q 959 1106 1268 751 
Q 1578 397 2138 397 
Q 2388 397 2633 464 
Q 2878 531 3122 666 
L 3122 134 
Q 2881 22 2623 -34 
Q 2366 -91 2075 -91 
Q 1284 -91 818 406 
Q 353 903 353 1747 
Q 353 2603 823 3093 
Q 1294 3584 2113 3584 
Q 2378 3584 2631 3529 
Q 2884 3475 3122 3366 
z
" transform="scale(0.015625)"/>
     </defs>
     <use xlink:href="#DejaVuSans-55"/>
     <use xlink:href="#DejaVuSans-70" x="73.193359"/>
     <use xlink:href="#DejaVuSans-64" x="136.669922"/>
     <use xlink:href="#DejaVuSans-61" x="200.146484"/>
     <use xlink:href="#DejaVuSans-74" x="261.425781"/>
     <use xlink:href="#DejaVuSans-65" x="300.634766"/>
     <use xlink:href="#DejaVuSans-64" x="362.158203"/>
     <use xlink:href="#DejaVuSans-20" x="425.634766"/>
     <use xlink:href="#DejaVuSans-47" x="457.421875"/>
     <use xlink:href="#DejaVuSans-61" x="534.912109"/>
     <use xlink:href="#DejaVuSans-75" x="596.191406"/>
     <use xlink:href="#DejaVuSans-73" x="659.570312"/>
     <use xlink:href="#DejaVuSans-73" x="711.669922"/>
     <use xlink:href="#DejaVuSans-69" x="763.769531"/>
     <use xlink:href="#DejaVuSans-61" x="791.552734"/>
     <use xlink:href="#DejaVuSans-6e" x="852.832031"/>
     <use xlink:href="#DejaVuSans-20" x="916.210938"/>
     <use xlink:href="#DejaVuSans-4d" x="947.998047"/>
     <use xlink:href="#DejaVuSans-69" x="1034.277344"/>
     <use xlink:href="#DejaVuSans-78" x="1062.060547"/>
     <use xlink:href="#DejaVuSans-74" x="1121.240234"/>
     <use xlink:href="#DejaVuSans-75" x="1160.449219"/>
     <use xlink:href="#DejaVuSans-72" x="1223.828125"/>
     <use xlink:href="#DejaVuSans-65" x="1262.691406"/>
     <use xlink:href="#DejaVuSans-20" x="1324.214844"/>
     <use xlink:href="#DejaVuSans-4d" x="1356.001953"/>
     <use xlink:href="#DejaVuSans-6f" x="1442.28125"/>
     <use xlink:href="#DejaVuSans-64" x="1503.462891"/>
     <use xlink:href="#DejaVuSans-65" x="1566.939453"/>
     <use xlink:href="#DejaVuSans-6c" x="1628.462891"/>
     <use xlink:href="#DejaVuSans-20" x="1656.246094"/>
     <use xlink:href="#DejaVuSans-61" x="1688.033203"/>
     <use xlink:href="#DejaVuSans-6e" x="1749.3125"/>
     <use xlink:href="#DejaVuSans-64" x="1812.691406"/>
     <use xlink:href="#DejaVuSans-20" x="1876.167969"/>
     <use xlink:href="#DejaVuSans-44" x="1907.955078"/>
     <use xlink:href="#DejaVuSans-61" x="1984.957031"/>
     <use xlink:href="#DejaVuSans-74" x="2046.236328"/>
     <use xlink:href="#DejaVuSans-61" x="2085.445312"/>
     <use xlink:href="#DejaVuSans-20" x="2146.724609"/>
     <use xlink:href="#DejaVuSans-50" x="2178.511719"/>
     <use xlink:href="#DejaVuSans-6f" x="2235.189453"/>
     <use xlink:href="#DejaVuSans-69" x="2296.371094"/>
     <use xlink:href="#DejaVuSans-6e" x="2324.154297"/>
     <use xlink:href="#DejaVuSans-74" x="2387.533203"/>
     <use xlink:href="#DejaVuSans-73" x="2426.742188"/>
     <use xlink:href="#DejaVuSans-20" x="2478.841797"/>
     <use xlink:href="#DejaVuSans-77" x="2510.628906"/>
     <use xlink:href="#DejaVuSans-69" x="2592.416016"/>
     <use xlink:href="#DejaVuSans-74" x="2620.199219"/>
     <use xlink:href="#DejaVuSans-68" x="2659.408203"/>
     <use xlink:href="#DejaVuSans-20" x="2722.787109"/>
     <use xlink:href="#DejaVuSans-4e" x="2754.574219"/>
     <use xlink:href="#DejaVuSans-65" x="2829.378906"/>
     <use xlink:href="#DejaVuSans-77" x="2890.902344"/>
     <use xlink:href="#DejaVuSans-20" x="2972.689453"/>
     <use xlink:href="#DejaVuSans-56" x="3004.476562"/>
     <use xlink:href="#DejaVuSans-61" x="3065.134766"/>
     <use xlink:href="#DejaVuSans-72" x="3126.414062"/>
     <use xlink:href="#DejaVuSans-69" x="3167.527344"/>
     <use xlink:href="#DejaVuSans-61" x="3195.310547"/>
     <use xlink:href="#DejaVuSans-6e" x="3256.589844"/>
     <use xlink:href="#DejaVuSans-63" x="3319.96875"/>
     <use xlink:href="#DejaVuSans-65" x="3374.949219"/>
     <use xlink:href="#DejaVuSans-73" x="3436.472656"/>
    </g>
   </g>
   <g id="legend_2">
    <g id="patch_13">
     <path d="M 772.66125 105.274375 
L 986.26125 105.274375 
Q 988.26125 105.274375 988.26125 103.274375 
L 988.26125 29.318125 
Q 988.26125 27.318125 986.26125 27.318125 
L 772.66125 27.318125 
Q 770.66125 27.318125 770.66125 29.318125 
L 770.66125 103.274375 
Q 770.66125 105.274375 772.66125 105.274375 
z
" style="fill: #ffffff; opacity: 0.8; stroke: #cccccc; stroke-linejoin: miter"/>
    </g>
    <g id="PathCollection_4">
     <g>
      <use xlink:href="#me080052733" x="784.66125" y="36.291563" style="stroke: #000000"/>
     </g>
    </g>
    <g id="text_38">
     <!-- Data points -->
     <g transform="translate(802.66125 38.916563) scale(0.1 -0.1)">
      <use xlink:href="#DejaVuSans-44"/>
      <use xlink:href="#DejaVuSans-61" x="77.001953"/>
      <use xlink:href="#DejaVuSans-74" x="138.28125"/>
      <use xlink:href="#DejaVuSans-61" x="177.490234"/>
      <use xlink:href="#DejaVuSans-20" x="238.769531"/>
      <use xlink:href="#DejaVuSans-70" x="270.556641"/>
      <use xlink:href="#DejaVuSans-6f" x="334.033203"/>
      <use xlink:href="#DejaVuSans-69" x="395.214844"/>
      <use xlink:href="#DejaVuSans-6e" x="422.998047"/>
      <use xlink:href="#DejaVuSans-74" x="486.376953"/>
      <use xlink:href="#DejaVuSans-73" x="525.585938"/>
     </g>
    </g>
    <g id="line2d_39">
     <path d="M 774.66125 50.49625 
L 784.66125 50.49625 
L 794.66125 50.49625 
" style="fill: none; stroke: #1f77b4; stroke-width: 1.5; stroke-linecap: square"/>
    </g>
    <g id="text_39">
     <!-- $\mathcal{N}(x \mid -2.7, 0.37416573867739417)$ -->
     <g transform="translate(802.66125 53.99625) scale(0.1 -0.1)">
      <defs>
       <path id="DejaVuSans-38" d="M 2034 2216 
Q 1584 2216 1326 1975 
Q 1069 1734 1069 1313 
Q 1069 891 1326 650 
Q 1584 409 2034 409 
Q 2484 409 2743 651 
Q 3003 894 3003 1313 
Q 3003 1734 2745 1975 
Q 2488 2216 2034 2216 
z
M 1403 2484 
Q 997 2584 770 2862 
Q 544 3141 544 3541 
Q 544 4100 942 4425 
Q 1341 4750 2034 4750 
Q 2731 4750 3128 4425 
Q 3525 4100 3525 3541 
Q 3525 3141 3298 2862 
Q 3072 2584 2669 2484 
Q 3125 2378 3379 2068 
Q 3634 1759 3634 1313 
Q 3634 634 3220 271 
Q 2806 -91 2034 -91 
Q 1263 -91 848 271 
Q 434 634 434 1313 
Q 434 1759 690 2068 
Q 947 2378 1403 2484 
z
M 1172 3481 
Q 1172 3119 1398 2916 
Q 1625 2713 2034 2713 
Q 2441 2713 2670 2916 
Q 2900 3119 2900 3481 
Q 2900 3844 2670 4047 
Q 2441 4250 2034 4250 
Q 1625 4250 1398 4047 
Q 1172 3844 1172 3481 
z
" transform="scale(0.015625)"/>
       <path id="DejaVuSans-39" d="M 703 97 
L 703 672 
Q 941 559 1184 500 
Q 1428 441 1663 441 
Q 2288 441 2617 861 
Q 2947 1281 2994 2138 
Q 2813 1869 2534 1725 
Q 2256 1581 1919 1581 
Q 1219 1581 811 2004 
Q 403 2428 403 3163 
Q 403 3881 828 4315 
Q 1253 4750 1959 4750 
Q 2769 4750 3195 4129 
Q 3622 3509 3622 2328 
Q 3622 1225 3098 567 
Q 2575 -91 1691 -91 
Q 1453 -91 1209 -44 
Q 966 3 703 97 
z
M 1959 2075 
Q 2384 2075 2632 2365 
Q 2881 2656 2881 3163 
Q 2881 3666 2632 3958 
Q 2384 4250 1959 4250 
Q 1534 4250 1286 3958 
Q 1038 3666 1038 3163 
Q 1038 2656 1286 2365 
Q 1534 2075 1959 2075 
z
" transform="scale(0.015625)"/>
      </defs>
      <use xlink:href="#STIXNonUnicode-Italic-e23a" transform="translate(0 0.5)"/>
      <use xlink:href="#DejaVuSans-28" transform="translate(95.699982 0.5)"/>
      <use xlink:href="#DejaVuSans-Oblique-78" transform="translate(134.713654 0.5)"/>
      <use xlink:href="#DejaVuSans-2223" transform="translate(213.375763 0.5)"/>
      <use xlink:href="#DejaVuSans-2212" transform="translate(302.340607 0.5)"/>
      <use xlink:href="#DejaVuSans-32" transform="translate(405.612091 0.5)"/>
      <use xlink:href="#DejaVuSans-2e" transform="translate(469.235138 0.5)"/>
      <use xlink:href="#DejaVuSans-37" transform="translate(493.272247 0.5)"/>
      <use xlink:href="#DejaVuSans-2c" transform="translate(556.895294 0.5)"/>
      <use xlink:href="#DejaVuSans-30" transform="translate(608.164825 0.5)"/>
      <use xlink:href="#DejaVuSans-2e" transform="translate(671.787872 0.5)"/>
      <use xlink:href="#DejaVuSans-33" transform="translate(703.574982 0.5)"/>
      <use xlink:href="#DejaVuSans-37" transform="translate(767.198029 0.5)"/>
      <use xlink:href="#DejaVuSans-34" transform="translate(830.821075 0.5)"/>
      <use xlink:href="#DejaVuSans-31" transform="translate(894.444122 0.5)"/>
      <use xlink:href="#DejaVuSans-36" transform="translate(958.067169 0.5)"/>
      <use xlink:href="#DejaVuSans-35" transform="translate(1021.690216 0.5)"/>
      <use xlink:href="#DejaVuSans-37" transform="translate(1078.063263 0.5)"/>
      <use xlink:href="#DejaVuSans-33" transform="translate(1141.68631 0.5)"/>
      <use xlink:href="#DejaVuSans-38" transform="translate(1205.309357 0.5)"/>
      <use xlink:href="#DejaVuSans-36" transform="translate(1268.932404 0.5)"/>
      <use xlink:href="#DejaVuSans-37" transform="translate(1332.55545 0.5)"/>
      <use xlink:href="#DejaVuSans-37" transform="translate(1394.428497 0.5)"/>
      <use xlink:href="#DejaVuSans-33" transform="translate(1458.051544 0.5)"/>
      <use xlink:href="#DejaVuSans-39" transform="translate(1521.674591 0.5)"/>
      <use xlink:href="#DejaVuSans-34" transform="translate(1585.297638 0.5)"/>
      <use xlink:href="#DejaVuSans-31" transform="translate(1648.920685 0.5)"/>
      <use xlink:href="#DejaVuSans-37" transform="translate(1712.543732 0.5)"/>
      <use xlink:href="#DejaVuSans-29" transform="translate(1776.166779 0.5)"/>
     </g>
    </g>
    <g id="line2d_40">
     <path d="M 774.66125 65.69625 
L 784.66125 65.69625 
L 794.66125 65.69625 
" style="fill: none; stroke: #ff7f0e; stroke-width: 1.5; stroke-linecap: square"/>
    </g>
    <g id="text_40">
     <!-- $\mathcal{N}(x \mid -0.4, 0.6633249580710799)$ -->
     <g transform="translate(802.66125 69.19625) scale(0.1 -0.1)">
      <use xlink:href="#STIXNonUnicode-Italic-e23a" transform="translate(0 0.5)"/>
      <use xlink:href="#DejaVuSans-28" transform="translate(95.699982 0.5)"/>
      <use xlink:href="#DejaVuSans-Oblique-78" transform="translate(134.713654 0.5)"/>
      <use xlink:href="#DejaVuSans-2223" transform="translate(213.375763 0.5)"/>
      <use xlink:href="#DejaVuSans-2212" transform="translate(302.340607 0.5)"/>
      <use xlink:href="#DejaVuSans-30" transform="translate(405.612091 0.5)"/>
      <use xlink:href="#DejaVuSans-2e" transform="translate(469.235138 0.5)"/>
      <use xlink:href="#DejaVuSans-34" transform="translate(501.022247 0.5)"/>
      <use xlink:href="#DejaVuSans-2c" transform="translate(564.645294 0.5)"/>
      <use xlink:href="#DejaVuSans-30" transform="translate(615.914825 0.5)"/>
      <use xlink:href="#DejaVuSans-2e" transform="translate(679.537872 0.5)"/>
      <use xlink:href="#DejaVuSans-36" transform="translate(711.324982 0.5)"/>
      <use xlink:href="#DejaVuSans-36" transform="translate(774.948029 0.5)"/>
      <use xlink:href="#DejaVuSans-33" transform="translate(838.571075 0.5)"/>
      <use xlink:href="#DejaVuSans-33" transform="translate(902.194122 0.5)"/>
      <use xlink:href="#DejaVuSans-32" transform="translate(965.817169 0.5)"/>
      <use xlink:href="#DejaVuSans-34" transform="translate(1029.440216 0.5)"/>
      <use xlink:href="#DejaVuSans-39" transform="translate(1093.063263 0.5)"/>
      <use xlink:href="#DejaVuSans-35" transform="translate(1156.68631 0.5)"/>
      <use xlink:href="#DejaVuSans-38" transform="translate(1220.309357 0.5)"/>
      <use xlink:href="#DejaVuSans-30" transform="translate(1283.932404 0.5)"/>
      <use xlink:href="#DejaVuSans-37" transform="translate(1347.55545 0.5)"/>
      <use xlink:href="#DejaVuSans-31" transform="translate(1411.178497 0.5)"/>
      <use xlink:href="#DejaVuSans-30" transform="translate(1474.801544 0.5)"/>
      <use xlink:href="#DejaVuSans-37" transform="translate(1538.424591 0.5)"/>
      <use xlink:href="#DejaVuSans-39" transform="translate(1602.047638 0.5)"/>
      <use xlink:href="#DejaVuSans-39" transform="translate(1665.670685 0.5)"/>
      <use xlink:href="#DejaVuSans-29" transform="translate(1729.293732 0.5)"/>
     </g>
    </g>
    <g id="line2d_41">
     <path d="M 774.66125 80.89625 
L 784.66125 80.89625 
L 794.66125 80.89625 
" style="fill: none; stroke: #2ca02c; stroke-width: 1.5; stroke-linecap: square"/>
    </g>
    <g id="text_41">
     <!-- $\mathcal{N}(x \mid 3.7, 1.2369316876852983)$ -->
     <g transform="translate(802.66125 84.39625) scale(0.1 -0.1)">
      <use xlink:href="#STIXNonUnicode-Italic-e23a" transform="translate(0 0.5)"/>
      <use xlink:href="#DejaVuSans-28" transform="translate(95.699982 0.5)"/>
      <use xlink:href="#DejaVuSans-Oblique-78" transform="translate(134.713654 0.5)"/>
      <use xlink:href="#DejaVuSans-2223" transform="translate(213.375763 0.5)"/>
      <use xlink:href="#DejaVuSans-33" transform="translate(282.858185 0.5)"/>
      <use xlink:href="#DejaVuSans-2e" transform="translate(346.481232 0.5)"/>
      <use xlink:href="#DejaVuSans-37" transform="translate(370.518341 0.5)"/>
      <use xlink:href="#DejaVuSans-2c" transform="translate(434.141388 0.5)"/>
      <use xlink:href="#DejaVuSans-31" transform="translate(485.410919 0.5)"/>
      <use xlink:href="#DejaVuSans-2e" transform="translate(549.033966 0.5)"/>
      <use xlink:href="#DejaVuSans-32" transform="translate(575.321075 0.5)"/>
      <use xlink:href="#DejaVuSans-33" transform="translate(638.944122 0.5)"/>
      <use xlink:href="#DejaVuSans-36" transform="translate(702.567169 0.5)"/>
      <use xlink:href="#DejaVuSans-39" transform="translate(766.190216 0.5)"/>
      <use xlink:href="#DejaVuSans-33" transform="translate(829.813263 0.5)"/>
      <use xlink:href="#DejaVuSans-31" transform="translate(893.43631 0.5)"/>
      <use xlink:href="#DejaVuSans-36" transform="translate(957.059357 0.5)"/>
      <use xlink:href="#DejaVuSans-38" transform="translate(1020.682404 0.5)"/>
      <use xlink:href="#DejaVuSans-37" transform="translate(1084.30545 0.5)"/>
      <use xlink:href="#DejaVuSans-36" transform="translate(1147.928497 0.5)"/>
      <use xlink:href="#DejaVuSans-38" transform="translate(1211.551544 0.5)"/>
      <use xlink:href="#DejaVuSans-35" transform="translate(1275.174591 0.5)"/>
      <use xlink:href="#DejaVuSans-32" transform="translate(1338.797638 0.5)"/>
      <use xlink:href="#DejaVuSans-39" transform="translate(1400.670685 0.5)"/>
      <use xlink:href="#DejaVuSans-38" transform="translate(1464.293732 0.5)"/>
      <use xlink:href="#DejaVuSans-33" transform="translate(1527.916779 0.5)"/>
      <use xlink:href="#DejaVuSans-29" transform="translate(1591.539825 0.5)"/>
     </g>
    </g>
    <g id="line2d_42">
     <path d="M 774.66125 95.694688 
L 784.66125 95.694688 
L 794.66125 95.694688 
" style="fill: none; stroke-dasharray: 5.55,2.4; stroke-dashoffset: 0; stroke: #000000; stroke-width: 1.5"/>
    </g>
    <g id="text_42">
     <!-- GMM -->
     <g transform="translate(802.66125 99.194688) scale(0.1 -0.1)">
      <use xlink:href="#DejaVuSans-47"/>
      <use xlink:href="#DejaVuSans-4d" x="77.490234"/>
      <use xlink:href="#DejaVuSans-4d" x="163.769531"/>
     </g>
    </g>
   </g>
  </g>
 </g>
 <defs>
  <clipPath id="p8e961811bf">
   <rect x="43.78125" y="22.318125" width="447.73" height="291.16"/>
  </clipPath>
  <clipPath id="pdf188b5556">
   <rect x="545.53125" y="22.318125" width="447.73" height="291.16"/>
  </clipPath>
 </defs>
</svg>