<?xml version="1.0" encoding="utf-8" standalone="no"?>
<!DOCTYPE svg PUBLIC "-//W3C//DTD SVG 1.1//EN"
  "http://www.w3.org/Graphics/SVG/1.1/DTD/svg11.dtd">
<svg xmlns:xlink="http://www.w3.org/1999/xlink" width="1061.407614pt" height="565.700312pt" viewBox="0 0 1061.407614 565.700312" xmlns="http://www.w3.org/2000/svg" version="1.1">
 <metadata>
  <rdf:RDF xmlns:dc="http://purl.org/dc/elements/1.1/" xmlns:cc="http://creativecommons.org/ns#" xmlns:rdf="http://www.w3.org/1999/02/22-rdf-syntax-ns#">
   <cc:Work>
    <dc:type rdf:resource="http://purl.org/dc/dcmitype/StillImage"/>
    <dc:date>2024-01-19T12:47:52.836813</dc:date>
    <dc:format>image/svg+xml</dc:format>
    <dc:creator>
     <cc:Agent>
      <dc:title>Matplotlib v3.8.2, https://matplotlib.org/</dc:title>
     </cc:Agent>
    </dc:creator>
   </cc:Work>
  </rdf:RDF>
 </metadata>
 <defs>
  <style type="text/css">*{stroke-linejoin: round; stroke-linecap: butt}</style>
 </defs>
 <g id="figure_1">
  <g id="patch_1">
   <path d="M 0 565.700312 
L 1061.407614 565.700312 
L 1061.407614 0 
L 0 0 
z
" style="fill: #ffffff"/>
  </g>
  <g id="axes_1">
   <g id="patch_2">
    <path d="M 42.91 525.837188 
L 499.455455 525.837188 
L 499.455455 26.877188 
L 42.91 26.877188 
z
" style="fill: #ffffff"/>
   </g>
   <g id="Quiver_1">
    <path d="M 41.392821 525.043925 
L 155.998908 305.85054 
L 152.171286 305.781193 
L 164.655455 292.989188 
L 161.274363 310.540771 
L 159.033267 307.437065 
L 44.427179 526.63045 
L 41.392821 525.043925 
" clip-path="url(#p7e8af45750)" style="fill: #ff0000; fill-opacity: 0.6"/>
   </g>
   <g id="Quiver_2">
    <path d="M 42.089029 524.334821 
L 272.058636 398.667558 
L 268.914327 396.483795 
L 286.400909 392.781188 
L 273.840152 405.497997 
L 273.700577 401.672292 
L 43.730971 527.339554 
L 42.089029 524.334821 
" clip-path="url(#p7e8af45750)" style="fill: #0000ff; fill-opacity: 0.6"/>
   </g>
   <g id="Quiver_3">
    <path d="M 41.698296 524.627695 
L 396.049223 169.62903 
L 392.416322 168.421747 
L 408.146364 159.933188 
L 399.686545 175.678705 
L 398.472631 172.048016 
L 44.121704 527.04668 
L 41.698296 524.627695 
" clip-path="url(#p7e8af45750)" style="fill: #008000; fill-opacity: 0.6"/>
   </g>
   <g id="Quiver_4">
    <path d="M 163.834484 291.486821 
L 393.80409 165.819558 
L 390.659781 163.635795 
L 408.146364 159.933188 
L 395.585607 172.649997 
L 395.446032 168.824292 
L 165.476425 294.491554 
L 163.834484 291.486821 
" clip-path="url(#p7e8af45750)" style="fill: #0000ff; fill-opacity: 0.6"/>
   </g>
   <g id="Quiver_5">
    <path d="M 284.88373 391.987925 
L 399.489817 172.79454 
L 395.662195 172.725193 
L 408.146364 159.933187 
L 404.765272 177.484771 
L 402.524176 174.381065 
L 287.918089 393.57445 
L 284.88373 391.987925 
" clip-path="url(#p7e8af45750)" style="fill: #ff0000; fill-opacity: 0.6"/>
   </g>
   <g id="matplotlib.axis_1">
    <g id="xtick_1">
     <g id="line2d_1">
      <path d="M 42.91 525.837188 
L 42.91 26.877188 
" clip-path="url(#p7e8af45750)" style="fill: none; stroke: #b0b0b0; stroke-width: 0.8; stroke-linecap: square"/>
     </g>
     <g id="line2d_2"/>
     <g id="text_1">
      <!-- 0 -->
      <g transform="translate(39.72875 536.935625) scale(0.1 -0.1)">
       <defs>
        <path id="DejaVuSans-30" d="M 2034 4250 
Q 1547 4250 1301 3770 
Q 1056 3291 1056 2328 
Q 1056 1369 1301 889 
Q 1547 409 2034 409 
Q 2525 409 2770 889 
Q 3016 1369 3016 2328 
Q 3016 3291 2770 3770 
Q 2525 4250 2034 4250 
z
M 2034 4750 
Q 2819 4750 3233 4129 
Q 3647 3509 3647 2328 
Q 3647 1150 3233 529 
Q 2819 -91 2034 -91 
Q 1250 -91 836 529 
Q 422 1150 422 2328 
Q 422 3509 836 4129 
Q 1250 4750 2034 4750 
z
" transform="scale(0.015625)"/>
       </defs>
       <use xlink:href="#DejaVuSans-30"/>
      </g>
     </g>
    </g>
    <g id="xtick_2">
     <g id="line2d_3">
      <path d="M 103.782727 525.837188 
L 103.782727 26.877188 
" clip-path="url(#p7e8af45750)" style="fill: none; stroke: #b0b0b0; stroke-width: 0.8; stroke-linecap: square"/>
     </g>
     <g id="line2d_4"/>
     <g id="text_2">
      <!-- 2 -->
      <g transform="translate(100.601477 536.935625) scale(0.1 -0.1)">
       <defs>
        <path id="DejaVuSans-32" d="M 1228 531 
L 3431 531 
L 3431 0 
L 469 0 
L 469 531 
Q 828 903 1448 1529 
Q 2069 2156 2228 2338 
Q 2531 2678 2651 2914 
Q 2772 3150 2772 3378 
Q 2772 3750 2511 3984 
Q 2250 4219 1831 4219 
Q 1534 4219 1204 4116 
Q 875 4013 500 3803 
L 500 4441 
Q 881 4594 1212 4672 
Q 1544 4750 1819 4750 
Q 2544 4750 2975 4387 
Q 3406 4025 3406 3419 
Q 3406 3131 3298 2873 
Q 3191 2616 2906 2266 
Q 2828 2175 2409 1742 
Q 1991 1309 1228 531 
z
" transform="scale(0.015625)"/>
       </defs>
       <use xlink:href="#DejaVuSans-32"/>
      </g>
     </g>
    </g>
    <g id="xtick_3">
     <g id="line2d_5">
      <path d="M 164.655455 525.837188 
L 164.655455 26.877188 
" clip-path="url(#p7e8af45750)" style="fill: none; stroke: #b0b0b0; stroke-width: 0.8; stroke-linecap: square"/>
     </g>
     <g id="line2d_6"/>
     <g id="text_3">
      <!-- 4 -->
      <g transform="translate(161.474205 536.935625) scale(0.1 -0.1)">
       <defs>
        <path id="DejaVuSans-34" d="M 2419 4116 
L 825 1625 
L 2419 1625 
L 2419 4116 
z
M 2253 4666 
L 3047 4666 
L 3047 1625 
L 3713 1625 
L 3713 1100 
L 3047 1100 
L 3047 0 
L 2419 0 
L 2419 1100 
L 313 1100 
L 313 1709 
L 2253 4666 
z
" transform="scale(0.015625)"/>
       </defs>
       <use xlink:href="#DejaVuSans-34"/>
      </g>
     </g>
    </g>
    <g id="xtick_4">
     <g id="line2d_7">
      <path d="M 225.528182 525.837188 
L 225.528182 26.877188 
" clip-path="url(#p7e8af45750)" style="fill: none; stroke: #b0b0b0; stroke-width: 0.8; stroke-linecap: square"/>
     </g>
     <g id="line2d_8"/>
     <g id="text_4">
      <!-- 6 -->
      <g transform="translate(222.346932 536.935625) scale(0.1 -0.1)">
       <defs>
        <path id="DejaVuSans-36" d="M 2113 2584 
Q 1688 2584 1439 2293 
Q 1191 2003 1191 1497 
Q 1191 994 1439 701 
Q 1688 409 2113 409 
Q 2538 409 2786 701 
Q 3034 994 3034 1497 
Q 3034 2003 2786 2293 
Q 2538 2584 2113 2584 
z
M 3366 4563 
L 3366 3988 
Q 3128 4100 2886 4159 
Q 2644 4219 2406 4219 
Q 1781 4219 1451 3797 
Q 1122 3375 1075 2522 
Q 1259 2794 1537 2939 
Q 1816 3084 2150 3084 
Q 2853 3084 3261 2657 
Q 3669 2231 3669 1497 
Q 3669 778 3244 343 
Q 2819 -91 2113 -91 
Q 1303 -91 875 529 
Q 447 1150 447 2328 
Q 447 3434 972 4092 
Q 1497 4750 2381 4750 
Q 2619 4750 2861 4703 
Q 3103 4656 3366 4563 
z
" transform="scale(0.015625)"/>
       </defs>
       <use xlink:href="#DejaVuSans-36"/>
      </g>
     </g>
    </g>
    <g id="xtick_5">
     <g id="line2d_9">
      <path d="M 286.400909 525.837188 
L 286.400909 26.877188 
" clip-path="url(#p7e8af45750)" style="fill: none; stroke: #b0b0b0; stroke-width: 0.8; stroke-linecap: square"/>
     </g>
     <g id="line2d_10"/>
     <g id="text_5">
      <!-- 8 -->
      <g transform="translate(283.219659 536.935625) scale(0.1 -0.1)">
       <defs>
        <path id="DejaVuSans-38" d="M 2034 2216 
Q 1584 2216 1326 1975 
Q 1069 1734 1069 1313 
Q 1069 891 1326 650 
Q 1584 409 2034 409 
Q 2484 409 2743 651 
Q 3003 894 3003 1313 
Q 3003 1734 2745 1975 
Q 2488 2216 2034 2216 
z
M 1403 2484 
Q 997 2584 770 2862 
Q 544 3141 544 3541 
Q 544 4100 942 4425 
Q 1341 4750 2034 4750 
Q 2731 4750 3128 4425 
Q 3525 4100 3525 3541 
Q 3525 3141 3298 2862 
Q 3072 2584 2669 2484 
Q 3125 2378 3379 2068 
Q 3634 1759 3634 1313 
Q 3634 634 3220 271 
Q 2806 -91 2034 -91 
Q 1263 -91 848 271 
Q 434 634 434 1313 
Q 434 1759 690 2068 
Q 947 2378 1403 2484 
z
M 1172 3481 
Q 1172 3119 1398 2916 
Q 1625 2713 2034 2713 
Q 2441 2713 2670 2916 
Q 2900 3119 2900 3481 
Q 2900 3844 2670 4047 
Q 2441 4250 2034 4250 
Q 1625 4250 1398 4047 
Q 1172 3844 1172 3481 
z
" transform="scale(0.015625)"/>
       </defs>
       <use xlink:href="#DejaVuSans-38"/>
      </g>
     </g>
    </g>
    <g id="xtick_6">
     <g id="line2d_11">
      <path d="M 347.273636 525.837188 
L 347.273636 26.877188 
" clip-path="url(#p7e8af45750)" style="fill: none; stroke: #b0b0b0; stroke-width: 0.8; stroke-linecap: square"/>
     </g>
     <g id="line2d_12"/>
     <g id="text_6">
      <!-- 10 -->
      <g transform="translate(340.911136 536.935625) scale(0.1 -0.1)">
       <defs>
        <path id="DejaVuSans-31" d="M 794 531 
L 1825 531 
L 1825 4091 
L 703 3866 
L 703 4441 
L 1819 4666 
L 2450 4666 
L 2450 531 
L 3481 531 
L 3481 0 
L 794 0 
L 794 531 
z
" transform="scale(0.015625)"/>
       </defs>
       <use xlink:href="#DejaVuSans-31"/>
       <use xlink:href="#DejaVuSans-30" x="63.623047"/>
      </g>
     </g>
    </g>
    <g id="xtick_7">
     <g id="line2d_13">
      <path d="M 408.146364 525.837188 
L 408.146364 26.877188 
" clip-path="url(#p7e8af45750)" style="fill: none; stroke: #b0b0b0; stroke-width: 0.8; stroke-linecap: square"/>
     </g>
     <g id="line2d_14"/>
     <g id="text_7">
      <!-- 12 -->
      <g transform="translate(401.783864 536.935625) scale(0.1 -0.1)">
       <use xlink:href="#DejaVuSans-31"/>
       <use xlink:href="#DejaVuSans-32" x="63.623047"/>
      </g>
     </g>
    </g>
    <g id="xtick_8">
     <g id="line2d_15">
      <path d="M 469.019091 525.837188 
L 469.019091 26.877188 
" clip-path="url(#p7e8af45750)" style="fill: none; stroke: #b0b0b0; stroke-width: 0.8; stroke-linecap: square"/>
     </g>
     <g id="line2d_16"/>
     <g id="text_8">
      <!-- 14 -->
      <g transform="translate(462.656591 536.935625) scale(0.1 -0.1)">
       <use xlink:href="#DejaVuSans-31"/>
       <use xlink:href="#DejaVuSans-34" x="63.623047"/>
      </g>
     </g>
    </g>
    <g id="text_9">
     <!-- x-axis -->
     <g transform="translate(247.533977 555.172812) scale(0.16 -0.16)">
      <defs>
       <path id="DejaVuSans-78" d="M 3513 3500 
L 2247 1797 
L 3578 0 
L 2900 0 
L 1881 1375 
L 863 0 
L 184 0 
L 1544 1831 
L 300 3500 
L 978 3500 
L 1906 2253 
L 2834 3500 
L 3513 3500 
z
" transform="scale(0.015625)"/>
       <path id="DejaVuSans-2d" d="M 313 2009 
L 1997 2009 
L 1997 1497 
L 313 1497 
L 313 2009 
z
" transform="scale(0.015625)"/>
       <path id="DejaVuSans-61" d="M 2194 1759 
Q 1497 1759 1228 1600 
Q 959 1441 959 1056 
Q 959 750 1161 570 
Q 1363 391 1709 391 
Q 2188 391 2477 730 
Q 2766 1069 2766 1631 
L 2766 1759 
L 2194 1759 
z
M 3341 1997 
L 3341 0 
L 2766 0 
L 2766 531 
Q 2569 213 2275 61 
Q 1981 -91 1556 -91 
Q 1019 -91 701 211 
Q 384 513 384 1019 
Q 384 1609 779 1909 
Q 1175 2209 1959 2209 
L 2766 2209 
L 2766 2266 
Q 2766 2663 2505 2880 
Q 2244 3097 1772 3097 
Q 1472 3097 1187 3025 
Q 903 2953 641 2809 
L 641 3341 
Q 956 3463 1253 3523 
Q 1550 3584 1831 3584 
Q 2591 3584 2966 3190 
Q 3341 2797 3341 1997 
z
" transform="scale(0.015625)"/>
       <path id="DejaVuSans-69" d="M 603 3500 
L 1178 3500 
L 1178 0 
L 603 0 
L 603 3500 
z
M 603 4863 
L 1178 4863 
L 1178 4134 
L 603 4134 
L 603 4863 
z
" transform="scale(0.015625)"/>
       <path id="DejaVuSans-73" d="M 2834 3397 
L 2834 2853 
Q 2591 2978 2328 3040 
Q 2066 3103 1784 3103 
Q 1356 3103 1142 2972 
Q 928 2841 928 2578 
Q 928 2378 1081 2264 
Q 1234 2150 1697 2047 
L 1894 2003 
Q 2506 1872 2764 1633 
Q 3022 1394 3022 966 
Q 3022 478 2636 193 
Q 2250 -91 1575 -91 
Q 1294 -91 989 -36 
Q 684 19 347 128 
L 347 722 
Q 666 556 975 473 
Q 1284 391 1588 391 
Q 1994 391 2212 530 
Q 2431 669 2431 922 
Q 2431 1156 2273 1281 
Q 2116 1406 1581 1522 
L 1381 1569 
Q 847 1681 609 1914 
Q 372 2147 372 2553 
Q 372 3047 722 3315 
Q 1072 3584 1716 3584 
Q 2034 3584 2315 3537 
Q 2597 3491 2834 3397 
z
" transform="scale(0.015625)"/>
      </defs>
      <use xlink:href="#DejaVuSans-78"/>
      <use xlink:href="#DejaVuSans-2d" x="59.179688"/>
      <use xlink:href="#DejaVuSans-61" x="95.263672"/>
      <use xlink:href="#DejaVuSans-78" x="156.542969"/>
      <use xlink:href="#DejaVuSans-69" x="215.722656"/>
      <use xlink:href="#DejaVuSans-73" x="243.505859"/>
     </g>
    </g>
   </g>
   <g id="matplotlib.axis_2">
    <g id="ytick_1">
     <g id="line2d_17">
      <path d="M 42.91 525.837188 
L 499.455455 525.837188 
" clip-path="url(#p7e8af45750)" style="fill: none; stroke: #b0b0b0; stroke-width: 0.8; stroke-linecap: square"/>
     </g>
     <g id="line2d_18"/>
     <g id="text_10">
      <!-- 0 -->
      <g transform="translate(33.0475 529.636406) scale(0.1 -0.1)">
       <use xlink:href="#DejaVuSans-30"/>
      </g>
     </g>
    </g>
    <g id="ytick_2">
     <g id="line2d_19">
      <path d="M 42.91 459.309188 
L 499.455455 459.309188 
" clip-path="url(#p7e8af45750)" style="fill: none; stroke: #b0b0b0; stroke-width: 0.8; stroke-linecap: square"/>
     </g>
     <g id="line2d_20"/>
     <g id="text_11">
      <!-- 2 -->
      <g transform="translate(33.0475 463.108406) scale(0.1 -0.1)">
       <use xlink:href="#DejaVuSans-32"/>
      </g>
     </g>
    </g>
    <g id="ytick_3">
     <g id="line2d_21">
      <path d="M 42.91 392.781188 
L 499.455455 392.781188 
" clip-path="url(#p7e8af45750)" style="fill: none; stroke: #b0b0b0; stroke-width: 0.8; stroke-linecap: square"/>
     </g>
     <g id="line2d_22"/>
     <g id="text_12">
      <!-- 4 -->
      <g transform="translate(33.0475 396.580406) scale(0.1 -0.1)">
       <use xlink:href="#DejaVuSans-34"/>
      </g>
     </g>
    </g>
    <g id="ytick_4">
     <g id="line2d_23">
      <path d="M 42.91 326.253188 
L 499.455455 326.253188 
" clip-path="url(#p7e8af45750)" style="fill: none; stroke: #b0b0b0; stroke-width: 0.8; stroke-linecap: square"/>
     </g>
     <g id="line2d_24"/>
     <g id="text_13">
      <!-- 6 -->
      <g transform="translate(33.0475 330.052406) scale(0.1 -0.1)">
       <use xlink:href="#DejaVuSans-36"/>
      </g>
     </g>
    </g>
    <g id="ytick_5">
     <g id="line2d_25">
      <path d="M 42.91 259.725188 
L 499.455455 259.725188 
" clip-path="url(#p7e8af45750)" style="fill: none; stroke: #b0b0b0; stroke-width: 0.8; stroke-linecap: square"/>
     </g>
     <g id="line2d_26"/>
     <g id="text_14">
      <!-- 8 -->
      <g transform="translate(33.0475 263.524406) scale(0.1 -0.1)">
       <use xlink:href="#DejaVuSans-38"/>
      </g>
     </g>
    </g>
    <g id="ytick_6">
     <g id="line2d_27">
      <path d="M 42.91 193.197188 
L 499.455455 193.197188 
" clip-path="url(#p7e8af45750)" style="fill: none; stroke: #b0b0b0; stroke-width: 0.8; stroke-linecap: square"/>
     </g>
     <g id="line2d_28"/>
     <g id="text_15">
      <!-- 10 -->
      <g transform="translate(26.685 196.996406) scale(0.1 -0.1)">
       <use xlink:href="#DejaVuSans-31"/>
       <use xlink:href="#DejaVuSans-30" x="63.623047"/>
      </g>
     </g>
    </g>
    <g id="ytick_7">
     <g id="line2d_29">
      <path d="M 42.91 126.669188 
L 499.455455 126.669188 
" clip-path="url(#p7e8af45750)" style="fill: none; stroke: #b0b0b0; stroke-width: 0.8; stroke-linecap: square"/>
     </g>
     <g id="line2d_30"/>
     <g id="text_16">
      <!-- 12 -->
      <g transform="translate(26.685 130.468406) scale(0.1 -0.1)">
       <use xlink:href="#DejaVuSans-31"/>
       <use xlink:href="#DejaVuSans-32" x="63.623047"/>
      </g>
     </g>
    </g>
    <g id="ytick_8">
     <g id="line2d_31">
      <path d="M 42.91 60.141188 
L 499.455455 60.141188 
" clip-path="url(#p7e8af45750)" style="fill: none; stroke: #b0b0b0; stroke-width: 0.8; stroke-linecap: square"/>
     </g>
     <g id="line2d_32"/>
     <g id="text_17">
      <!-- 14 -->
      <g transform="translate(26.685 63.940406) scale(0.1 -0.1)">
       <use xlink:href="#DejaVuSans-31"/>
       <use xlink:href="#DejaVuSans-34" x="63.623047"/>
      </g>
     </g>
    </g>
    <g id="text_18">
     <!-- y-axis -->
     <g transform="translate(19.3575 299.865938) rotate(-90) scale(0.16 -0.16)">
      <defs>
       <path id="DejaVuSans-79" d="M 2059 -325 
Q 1816 -950 1584 -1140 
Q 1353 -1331 966 -1331 
L 506 -1331 
L 506 -850 
L 844 -850 
Q 1081 -850 1212 -737 
Q 1344 -625 1503 -206 
L 1606 56 
L 191 3500 
L 800 3500 
L 1894 763 
L 2988 3500 
L 3597 3500 
L 2059 -325 
z
" transform="scale(0.015625)"/>
      </defs>
      <use xlink:href="#DejaVuSans-79"/>
      <use xlink:href="#DejaVuSans-2d" x="57.429688"/>
      <use xlink:href="#DejaVuSans-61" x="93.513672"/>
      <use xlink:href="#DejaVuSans-78" x="154.792969"/>
      <use xlink:href="#DejaVuSans-69" x="213.972656"/>
      <use xlink:href="#DejaVuSans-73" x="241.755859"/>
     </g>
    </g>
   </g>
   <g id="patch_3">
    <path d="M 42.91 525.837188 
L 42.91 26.877188 
" style="fill: none; stroke: #000000; stroke-width: 0.8; stroke-linejoin: miter; stroke-linecap: square"/>
   </g>
   <g id="patch_4">
    <path d="M 499.455455 525.837188 
L 499.455455 26.877188 
" style="fill: none; stroke: #000000; stroke-width: 0.8; stroke-linejoin: miter; stroke-linecap: square"/>
   </g>
   <g id="patch_5">
    <path d="M 42.91 525.837188 
L 499.455455 525.837188 
" style="fill: none; stroke: #000000; stroke-width: 0.8; stroke-linejoin: miter; stroke-linecap: square"/>
   </g>
   <g id="patch_6">
    <path d="M 42.91 26.877188 
L 499.455455 26.877188 
" style="fill: none; stroke: #000000; stroke-width: 0.8; stroke-linejoin: miter; stroke-linecap: square"/>
   </g>
   <g id="text_19">
    <!-- (4, 7) -->
    <g transform="translate(164.655455 292.989188) scale(0.12 -0.12)">
     <defs>
      <path id="DejaVuSans-28" d="M 1984 4856 
Q 1566 4138 1362 3434 
Q 1159 2731 1159 2009 
Q 1159 1288 1364 580 
Q 1569 -128 1984 -844 
L 1484 -844 
Q 1016 -109 783 600 
Q 550 1309 550 2009 
Q 550 2706 781 3412 
Q 1013 4119 1484 4856 
L 1984 4856 
z
" transform="scale(0.015625)"/>
      <path id="DejaVuSans-2c" d="M 750 794 
L 1409 794 
L 1409 256 
L 897 -744 
L 494 -744 
L 750 256 
L 750 794 
z
" transform="scale(0.015625)"/>
      <path id="DejaVuSans-20" transform="scale(0.015625)"/>
      <path id="DejaVuSans-37" d="M 525 4666 
L 3525 4666 
L 3525 4397 
L 1831 0 
L 1172 0 
L 2766 4134 
L 525 4134 
L 525 4666 
z
" transform="scale(0.015625)"/>
      <path id="DejaVuSans-29" d="M 513 4856 
L 1013 4856 
Q 1481 4119 1714 3412 
Q 1947 2706 1947 2009 
Q 1947 1309 1714 600 
Q 1481 -109 1013 -844 
L 513 -844 
Q 928 -128 1133 580 
Q 1338 1288 1338 2009 
Q 1338 2731 1133 3434 
Q 928 4138 513 4856 
z
" transform="scale(0.015625)"/>
     </defs>
     <use xlink:href="#DejaVuSans-28"/>
     <use xlink:href="#DejaVuSans-34" x="39.013672"/>
     <use xlink:href="#DejaVuSans-2c" x="102.636719"/>
     <use xlink:href="#DejaVuSans-20" x="134.423828"/>
     <use xlink:href="#DejaVuSans-37" x="166.210938"/>
     <use xlink:href="#DejaVuSans-29" x="229.833984"/>
    </g>
   </g>
   <g id="text_20">
    <!-- $\mathbf{u}$ -->
    <g transform="translate(103.782727 409.413188) scale(0.12 -0.12)">
     <defs>
      <path id="DejaVuSans-Bold-75" d="M 500 1363 
L 500 3500 
L 1625 3500 
L 1625 3150 
Q 1625 2866 1622 2436 
Q 1619 2006 1619 1863 
Q 1619 1441 1641 1255 
Q 1663 1069 1716 984 
Q 1784 875 1895 815 
Q 2006 756 2150 756 
Q 2500 756 2700 1025 
Q 2900 1294 2900 1772 
L 2900 3500 
L 4019 3500 
L 4019 0 
L 2900 0 
L 2900 506 
Q 2647 200 2364 54 
Q 2081 -91 1741 -91 
Q 1134 -91 817 281 
Q 500 653 500 1363 
z
" transform="scale(0.015625)"/>
     </defs>
     <use xlink:href="#DejaVuSans-Bold-75" transform="translate(0 0.3125)"/>
    </g>
   </g>
   <g id="text_21">
    <!-- (8, 4) -->
    <g transform="translate(286.400909 392.781187) scale(0.12 -0.12)">
     <use xlink:href="#DejaVuSans-28"/>
     <use xlink:href="#DejaVuSans-38" x="39.013672"/>
     <use xlink:href="#DejaVuSans-2c" x="102.636719"/>
     <use xlink:href="#DejaVuSans-20" x="134.423828"/>
     <use xlink:href="#DejaVuSans-34" x="166.210938"/>
     <use xlink:href="#DejaVuSans-29" x="229.833984"/>
    </g>
   </g>
   <g id="text_22">
    <!-- $\mathbf{v}$ -->
    <g transform="translate(164.655455 459.309188) scale(0.12 -0.12)">
     <defs>
      <path id="DejaVuSans-Bold-76" d="M 97 3500 
L 1216 3500 
L 2088 1081 
L 2956 3500 
L 4078 3500 
L 2700 0 
L 1472 0 
L 97 3500 
z
" transform="scale(0.015625)"/>
     </defs>
     <use xlink:href="#DejaVuSans-Bold-76" transform="translate(0 0.3125)"/>
    </g>
   </g>
   <g id="text_23">
    <!-- (12, 11) -->
    <g transform="translate(408.146364 159.933188) scale(0.12 -0.12)">
     <use xlink:href="#DejaVuSans-28"/>
     <use xlink:href="#DejaVuSans-31" x="39.013672"/>
     <use xlink:href="#DejaVuSans-32" x="102.636719"/>
     <use xlink:href="#DejaVuSans-2c" x="166.259766"/>
     <use xlink:href="#DejaVuSans-20" x="198.046875"/>
     <use xlink:href="#DejaVuSans-31" x="229.833984"/>
     <use xlink:href="#DejaVuSans-31" x="293.457031"/>
     <use xlink:href="#DejaVuSans-29" x="357.080078"/>
    </g>
   </g>
   <g id="text_24">
    <!-- $\mathbf{u} + \mathbf{v}$ -->
    <g transform="translate(225.528182 342.885188) scale(0.12 -0.12)">
     <defs>
      <path id="DejaVuSans-2b" d="M 2944 4013 
L 2944 2272 
L 4684 2272 
L 4684 1741 
L 2944 1741 
L 2944 0 
L 2419 0 
L 2419 1741 
L 678 1741 
L 678 2272 
L 2419 2272 
L 2419 4013 
L 2944 4013 
z
" transform="scale(0.015625)"/>
     </defs>
     <use xlink:href="#DejaVuSans-Bold-75" transform="translate(0 0.296875)"/>
     <use xlink:href="#DejaVuSans-2b" transform="translate(90.673828 0.296875)"/>
     <use xlink:href="#DejaVuSans-Bold-76" transform="translate(193.945312 0.296875)"/>
    </g>
   </g>
   <g id="text_25">
    <!-- (12, 11) -->
    <g transform="translate(408.146364 159.933188) scale(0.12 -0.12)">
     <use xlink:href="#DejaVuSans-28"/>
     <use xlink:href="#DejaVuSans-31" x="39.013672"/>
     <use xlink:href="#DejaVuSans-32" x="102.636719"/>
     <use xlink:href="#DejaVuSans-2c" x="166.259766"/>
     <use xlink:href="#DejaVuSans-20" x="198.046875"/>
     <use xlink:href="#DejaVuSans-31" x="229.833984"/>
     <use xlink:href="#DejaVuSans-31" x="293.457031"/>
     <use xlink:href="#DejaVuSans-29" x="357.080078"/>
    </g>
   </g>
   <g id="text_26">
    <!-- $\mathbf{v}$ -->
    <g transform="translate(286.400909 226.461187) scale(0.12 -0.12)">
     <use xlink:href="#DejaVuSans-Bold-76" transform="translate(0 0.3125)"/>
    </g>
   </g>
   <g id="text_27">
    <!-- (12, 11) -->
    <g transform="translate(408.146364 159.933188) scale(0.12 -0.12)">
     <use xlink:href="#DejaVuSans-28"/>
     <use xlink:href="#DejaVuSans-31" x="39.013672"/>
     <use xlink:href="#DejaVuSans-32" x="102.636719"/>
     <use xlink:href="#DejaVuSans-2c" x="166.259766"/>
     <use xlink:href="#DejaVuSans-20" x="198.046875"/>
     <use xlink:href="#DejaVuSans-31" x="229.833984"/>
     <use xlink:href="#DejaVuSans-31" x="293.457031"/>
     <use xlink:href="#DejaVuSans-29" x="357.080078"/>
    </g>
   </g>
   <g id="text_28">
    <!-- $\mathbf{u}$ -->
    <g transform="translate(347.273636 276.357188) scale(0.12 -0.12)">
     <use xlink:href="#DejaVuSans-Bold-75" transform="translate(0 0.3125)"/>
    </g>
   </g>
   <g id="text_29">
    <!-- Vector Addition -->
    <g transform="translate(202.476165 20.877187) scale(0.18 -0.18)">
     <defs>
      <path id="DejaVuSans-56" d="M 1831 0 
L 50 4666 
L 709 4666 
L 2188 738 
L 3669 4666 
L 4325 4666 
L 2547 0 
L 1831 0 
z
" transform="scale(0.015625)"/>
      <path id="DejaVuSans-65" d="M 3597 1894 
L 3597 1613 
L 953 1613 
Q 991 1019 1311 708 
Q 1631 397 2203 397 
Q 2534 397 2845 478 
Q 3156 559 3463 722 
L 3463 178 
Q 3153 47 2828 -22 
Q 2503 -91 2169 -91 
Q 1331 -91 842 396 
Q 353 884 353 1716 
Q 353 2575 817 3079 
Q 1281 3584 2069 3584 
Q 2775 3584 3186 3129 
Q 3597 2675 3597 1894 
z
M 3022 2063 
Q 3016 2534 2758 2815 
Q 2500 3097 2075 3097 
Q 1594 3097 1305 2825 
Q 1016 2553 972 2059 
L 3022 2063 
z
" transform="scale(0.015625)"/>
      <path id="DejaVuSans-63" d="M 3122 3366 
L 3122 2828 
Q 2878 2963 2633 3030 
Q 2388 3097 2138 3097 
Q 1578 3097 1268 2742 
Q 959 2388 959 1747 
Q 959 1106 1268 751 
Q 1578 397 2138 397 
Q 2388 397 2633 464 
Q 2878 531 3122 666 
L 3122 134 
Q 2881 22 2623 -34 
Q 2366 -91 2075 -91 
Q 1284 -91 818 406 
Q 353 903 353 1747 
Q 353 2603 823 3093 
Q 1294 3584 2113 3584 
Q 2378 3584 2631 3529 
Q 2884 3475 3122 3366 
z
" transform="scale(0.015625)"/>
      <path id="DejaVuSans-74" d="M 1172 4494 
L 1172 3500 
L 2356 3500 
L 2356 3053 
L 1172 3053 
L 1172 1153 
Q 1172 725 1289 603 
Q 1406 481 1766 481 
L 2356 481 
L 2356 0 
L 1766 0 
Q 1100 0 847 248 
Q 594 497 594 1153 
L 594 3053 
L 172 3053 
L 172 3500 
L 594 3500 
L 594 4494 
L 1172 4494 
z
" transform="scale(0.015625)"/>
      <path id="DejaVuSans-6f" d="M 1959 3097 
Q 1497 3097 1228 2736 
Q 959 2375 959 1747 
Q 959 1119 1226 758 
Q 1494 397 1959 397 
Q 2419 397 2687 759 
Q 2956 1122 2956 1747 
Q 2956 2369 2687 2733 
Q 2419 3097 1959 3097 
z
M 1959 3584 
Q 2709 3584 3137 3096 
Q 3566 2609 3566 1747 
Q 3566 888 3137 398 
Q 2709 -91 1959 -91 
Q 1206 -91 779 398 
Q 353 888 353 1747 
Q 353 2609 779 3096 
Q 1206 3584 1959 3584 
z
" transform="scale(0.015625)"/>
      <path id="DejaVuSans-72" d="M 2631 2963 
Q 2534 3019 2420 3045 
Q 2306 3072 2169 3072 
Q 1681 3072 1420 2755 
Q 1159 2438 1159 1844 
L 1159 0 
L 581 0 
L 581 3500 
L 1159 3500 
L 1159 2956 
Q 1341 3275 1631 3429 
Q 1922 3584 2338 3584 
Q 2397 3584 2469 3576 
Q 2541 3569 2628 3553 
L 2631 2963 
z
" transform="scale(0.015625)"/>
      <path id="DejaVuSans-41" d="M 2188 4044 
L 1331 1722 
L 3047 1722 
L 2188 4044 
z
M 1831 4666 
L 2547 4666 
L 4325 0 
L 3669 0 
L 3244 1197 
L 1141 1197 
L 716 0 
L 50 0 
L 1831 4666 
z
" transform="scale(0.015625)"/>
      <path id="DejaVuSans-64" d="M 2906 2969 
L 2906 4863 
L 3481 4863 
L 3481 0 
L 2906 0 
L 2906 525 
Q 2725 213 2448 61 
Q 2172 -91 1784 -91 
Q 1150 -91 751 415 
Q 353 922 353 1747 
Q 353 2572 751 3078 
Q 1150 3584 1784 3584 
Q 2172 3584 2448 3432 
Q 2725 3281 2906 2969 
z
M 947 1747 
Q 947 1113 1208 752 
Q 1469 391 1925 391 
Q 2381 391 2643 752 
Q 2906 1113 2906 1747 
Q 2906 2381 2643 2742 
Q 2381 3103 1925 3103 
Q 1469 3103 1208 2742 
Q 947 2381 947 1747 
z
" transform="scale(0.015625)"/>
      <path id="DejaVuSans-6e" d="M 3513 2113 
L 3513 0 
L 2938 0 
L 2938 2094 
Q 2938 2591 2744 2837 
Q 2550 3084 2163 3084 
Q 1697 3084 1428 2787 
Q 1159 2491 1159 1978 
L 1159 0 
L 581 0 
L 581 3500 
L 1159 3500 
L 1159 2956 
Q 1366 3272 1645 3428 
Q 1925 3584 2291 3584 
Q 2894 3584 3203 3211 
Q 3513 2838 3513 2113 
z
" transform="scale(0.015625)"/>
     </defs>
     <use xlink:href="#DejaVuSans-56"/>
     <use xlink:href="#DejaVuSans-65" x="60.658203"/>
     <use xlink:href="#DejaVuSans-63" x="122.181641"/>
     <use xlink:href="#DejaVuSans-74" x="177.162109"/>
     <use xlink:href="#DejaVuSans-6f" x="216.371094"/>
     <use xlink:href="#DejaVuSans-72" x="277.552734"/>
     <use xlink:href="#DejaVuSans-20" x="318.666016"/>
     <use xlink:href="#DejaVuSans-41" x="350.453125"/>
     <use xlink:href="#DejaVuSans-64" x="417.111328"/>
     <use xlink:href="#DejaVuSans-64" x="480.587891"/>
     <use xlink:href="#DejaVuSans-69" x="544.064453"/>
     <use xlink:href="#DejaVuSans-74" x="571.847656"/>
     <use xlink:href="#DejaVuSans-69" x="611.056641"/>
     <use xlink:href="#DejaVuSans-6f" x="638.839844"/>
     <use xlink:href="#DejaVuSans-6e" x="700.021484"/>
    </g>
   </g>
  </g>
  <g id="axes_2">
   <g id="patch_7">
    <path d="M 590.764545 525.837188 
L 1047.31 525.837188 
L 1047.31 26.877188 
L 590.764545 26.877188 
z
" style="fill: #ffffff"/>
   </g>
   <g id="Quiver_6">
    <path d="M 817.520093 275.563925 
L 911.835272 95.17854 
L 908.00765 95.109193 
L 920.491818 82.317188 
L 917.110727 99.868771 
L 914.869631 96.765065 
L 820.554452 277.15045 
L 817.520093 275.563925 
" clip-path="url(#p31bd9f3ad0)" style="fill: #ff0000; fill-opacity: 0.6"/>
   </g>
   <g id="Quiver_7">
    <path d="M 818.216302 274.854821 
L 1007.60409 171.363558 
L 1004.459781 169.179795 
L 1021.946364 165.477188 
L 1009.385607 178.193997 
L 1009.246032 174.368292 
L 819.858244 277.859554 
L 818.216302 274.854821 
" clip-path="url(#p31bd9f3ad0)" style="fill: #0000ff; fill-opacity: 0.6"/>
   </g>
   <g id="Quiver_8">
    <path d="M 817.951955 277.681267 
L 728.414121 204.289125 
L 727.567564 208.022601 
L 717.582727 193.197188 
L 734.07947 200.078127 
L 730.584756 201.640967 
L 820.12259 275.033108 
L 817.951955 277.681267 
" clip-path="url(#p31bd9f3ad0)" style="fill: #008000; fill-opacity: 0.6"/>
   </g>
   <g id="Quiver_9">
    <path d="M 614.611002 386.443925 
L 708.926181 206.05854 
L 705.098559 205.989193 
L 717.582727 193.197188 
L 714.201636 210.748771 
L 711.96054 207.645065 
L 617.645361 388.03045 
L 614.611002 386.443925 
" clip-path="url(#p31bd9f3ad0)" style="fill: #ff0000; fill-opacity: 0.6"/>
   </g>
   <g id="Quiver_10">
    <path d="M 819.858244 277.859554 
L 630.470455 381.350817 
L 633.614764 383.53458 
L 616.128182 387.237187 
L 628.688939 374.520378 
L 628.828514 378.346083 
L 818.216302 274.854821 
L 819.858244 277.859554 
" clip-path="url(#p31bd9f3ad0)" style="fill: #0000ff; fill-opacity: 0.6"/>
   </g>
   <g id="Quiver_11">
    <path d="M 921.312789 83.819554 
L 731.925001 187.310817 
L 735.069309 189.49458 
L 717.582727 193.197187 
L 730.143484 180.480378 
L 730.283059 184.306083 
L 919.670847 80.814821 
L 921.312789 83.819554 
" clip-path="url(#p31bd9f3ad0)" style="fill: #0000ff; fill-opacity: 0.6"/>
   </g>
   <g id="Quiver_12">
    <path d="M 1020.861046 166.801267 
L 931.323212 93.409125 
L 930.476655 97.142601 
L 920.491818 82.317188 
L 936.988561 89.198127 
L 933.493847 90.760967 
L 1023.031681 164.153108 
L 1020.861046 166.801267 
" clip-path="url(#p31bd9f3ad0)" style="fill: #008000; fill-opacity: 0.6"/>
   </g>
   <g id="matplotlib.axis_3">
    <g id="xtick_9">
     <g id="line2d_33">
      <path d="M 616.128182 525.837188 
L 616.128182 26.877188 
" clip-path="url(#p31bd9f3ad0)" style="fill: none; stroke: #b0b0b0; stroke-width: 0.8; stroke-linecap: square"/>
     </g>
     <g id="line2d_34"/>
     <g id="text_30">
      <!-- −8 -->
      <g transform="translate(608.757088 536.935625) scale(0.1 -0.1)">
       <defs>
        <path id="DejaVuSans-2212" d="M 678 2272 
L 4684 2272 
L 4684 1741 
L 678 1741 
L 678 2272 
z
" transform="scale(0.015625)"/>
       </defs>
       <use xlink:href="#DejaVuSans-2212"/>
       <use xlink:href="#DejaVuSans-38" x="83.789062"/>
      </g>
     </g>
    </g>
    <g id="xtick_10">
     <g id="line2d_35">
      <path d="M 666.855455 525.837188 
L 666.855455 26.877188 
" clip-path="url(#p31bd9f3ad0)" style="fill: none; stroke: #b0b0b0; stroke-width: 0.8; stroke-linecap: square"/>
     </g>
     <g id="line2d_36"/>
     <g id="text_31">
      <!-- −6 -->
      <g transform="translate(659.484361 536.935625) scale(0.1 -0.1)">
       <use xlink:href="#DejaVuSans-2212"/>
       <use xlink:href="#DejaVuSans-36" x="83.789062"/>
      </g>
     </g>
    </g>
    <g id="xtick_11">
     <g id="line2d_37">
      <path d="M 717.582727 525.837188 
L 717.582727 26.877188 
" clip-path="url(#p31bd9f3ad0)" style="fill: none; stroke: #b0b0b0; stroke-width: 0.8; stroke-linecap: square"/>
     </g>
     <g id="line2d_38"/>
     <g id="text_32">
      <!-- −4 -->
      <g transform="translate(710.211634 536.935625) scale(0.1 -0.1)">
       <use xlink:href="#DejaVuSans-2212"/>
       <use xlink:href="#DejaVuSans-34" x="83.789062"/>
      </g>
     </g>
    </g>
    <g id="xtick_12">
     <g id="line2d_39">
      <path d="M 768.31 525.837188 
L 768.31 26.877188 
" clip-path="url(#p31bd9f3ad0)" style="fill: none; stroke: #b0b0b0; stroke-width: 0.8; stroke-linecap: square"/>
     </g>
     <g id="line2d_40"/>
     <g id="text_33">
      <!-- −2 -->
      <g transform="translate(760.938906 536.935625) scale(0.1 -0.1)">
       <use xlink:href="#DejaVuSans-2212"/>
       <use xlink:href="#DejaVuSans-32" x="83.789062"/>
      </g>
     </g>
    </g>
    <g id="xtick_13">
     <g id="line2d_41">
      <path d="M 819.037273 525.837188 
L 819.037273 26.877188 
" clip-path="url(#p31bd9f3ad0)" style="fill: none; stroke: #b0b0b0; stroke-width: 0.8; stroke-linecap: square"/>
     </g>
     <g id="line2d_42"/>
     <g id="text_34">
      <!-- 0 -->
      <g transform="translate(815.856023 536.935625) scale(0.1 -0.1)">
       <use xlink:href="#DejaVuSans-30"/>
      </g>
     </g>
    </g>
    <g id="xtick_14">
     <g id="line2d_43">
      <path d="M 869.764545 525.837188 
L 869.764545 26.877188 
" clip-path="url(#p31bd9f3ad0)" style="fill: none; stroke: #b0b0b0; stroke-width: 0.8; stroke-linecap: square"/>
     </g>
     <g id="line2d_44"/>
     <g id="text_35">
      <!-- 2 -->
      <g transform="translate(866.583295 536.935625) scale(0.1 -0.1)">
       <use xlink:href="#DejaVuSans-32"/>
      </g>
     </g>
    </g>
    <g id="xtick_15">
     <g id="line2d_45">
      <path d="M 920.491818 525.837188 
L 920.491818 26.877188 
" clip-path="url(#p31bd9f3ad0)" style="fill: none; stroke: #b0b0b0; stroke-width: 0.8; stroke-linecap: square"/>
     </g>
     <g id="line2d_46"/>
     <g id="text_36">
      <!-- 4 -->
      <g transform="translate(917.310568 536.935625) scale(0.1 -0.1)">
       <use xlink:href="#DejaVuSans-34"/>
      </g>
     </g>
    </g>
    <g id="xtick_16">
     <g id="line2d_47">
      <path d="M 971.219091 525.837188 
L 971.219091 26.877188 
" clip-path="url(#p31bd9f3ad0)" style="fill: none; stroke: #b0b0b0; stroke-width: 0.8; stroke-linecap: square"/>
     </g>
     <g id="line2d_48"/>
     <g id="text_37">
      <!-- 6 -->
      <g transform="translate(968.037841 536.935625) scale(0.1 -0.1)">
       <use xlink:href="#DejaVuSans-36"/>
      </g>
     </g>
    </g>
    <g id="xtick_17">
     <g id="line2d_49">
      <path d="M 1021.946364 525.837188 
L 1021.946364 26.877188 
" clip-path="url(#p31bd9f3ad0)" style="fill: none; stroke: #b0b0b0; stroke-width: 0.8; stroke-linecap: square"/>
     </g>
     <g id="line2d_50"/>
     <g id="text_38">
      <!-- 8 -->
      <g transform="translate(1018.765114 536.935625) scale(0.1 -0.1)">
       <use xlink:href="#DejaVuSans-38"/>
      </g>
     </g>
    </g>
    <g id="text_39">
     <!-- x-axis -->
     <g transform="translate(795.388523 555.172812) scale(0.16 -0.16)">
      <use xlink:href="#DejaVuSans-78"/>
      <use xlink:href="#DejaVuSans-2d" x="59.179688"/>
      <use xlink:href="#DejaVuSans-61" x="95.263672"/>
      <use xlink:href="#DejaVuSans-78" x="156.542969"/>
      <use xlink:href="#DejaVuSans-69" x="215.722656"/>
      <use xlink:href="#DejaVuSans-73" x="243.505859"/>
     </g>
    </g>
   </g>
   <g id="matplotlib.axis_4">
    <g id="ytick_9">
     <g id="line2d_51">
      <path d="M 590.764545 498.117188 
L 1047.31 498.117188 
" clip-path="url(#p31bd9f3ad0)" style="fill: none; stroke: #b0b0b0; stroke-width: 0.8; stroke-linecap: square"/>
     </g>
     <g id="line2d_52"/>
     <g id="text_40">
      <!-- −8 -->
      <g transform="translate(572.522358 501.916406) scale(0.1 -0.1)">
       <use xlink:href="#DejaVuSans-2212"/>
       <use xlink:href="#DejaVuSans-38" x="83.789062"/>
      </g>
     </g>
    </g>
    <g id="ytick_10">
     <g id="line2d_53">
      <path d="M 590.764545 442.677188 
L 1047.31 442.677188 
" clip-path="url(#p31bd9f3ad0)" style="fill: none; stroke: #b0b0b0; stroke-width: 0.8; stroke-linecap: square"/>
     </g>
     <g id="line2d_54"/>
     <g id="text_41">
      <!-- −6 -->
      <g transform="translate(572.522358 446.476406) scale(0.1 -0.1)">
       <use xlink:href="#DejaVuSans-2212"/>
       <use xlink:href="#DejaVuSans-36" x="83.789062"/>
      </g>
     </g>
    </g>
    <g id="ytick_11">
     <g id="line2d_55">
      <path d="M 590.764545 387.237188 
L 1047.31 387.237188 
" clip-path="url(#p31bd9f3ad0)" style="fill: none; stroke: #b0b0b0; stroke-width: 0.8; stroke-linecap: square"/>
     </g>
     <g id="line2d_56"/>
     <g id="text_42">
      <!-- −4 -->
      <g transform="translate(572.522358 391.036406) scale(0.1 -0.1)">
       <use xlink:href="#DejaVuSans-2212"/>
       <use xlink:href="#DejaVuSans-34" x="83.789062"/>
      </g>
     </g>
    </g>
    <g id="ytick_12">
     <g id="line2d_57">
      <path d="M 590.764545 331.797188 
L 1047.31 331.797188 
" clip-path="url(#p31bd9f3ad0)" style="fill: none; stroke: #b0b0b0; stroke-width: 0.8; stroke-linecap: square"/>
     </g>
     <g id="line2d_58"/>
     <g id="text_43">
      <!-- −2 -->
      <g transform="translate(572.522358 335.596406) scale(0.1 -0.1)">
       <use xlink:href="#DejaVuSans-2212"/>
       <use xlink:href="#DejaVuSans-32" x="83.789062"/>
      </g>
     </g>
    </g>
    <g id="ytick_13">
     <g id="line2d_59">
      <path d="M 590.764545 276.357188 
L 1047.31 276.357188 
" clip-path="url(#p31bd9f3ad0)" style="fill: none; stroke: #b0b0b0; stroke-width: 0.8; stroke-linecap: square"/>
     </g>
     <g id="line2d_60"/>
     <g id="text_44">
      <!-- 0 -->
      <g transform="translate(580.902045 280.156406) scale(0.1 -0.1)">
       <use xlink:href="#DejaVuSans-30"/>
      </g>
     </g>
    </g>
    <g id="ytick_14">
     <g id="line2d_61">
      <path d="M 590.764545 220.917188 
L 1047.31 220.917188 
" clip-path="url(#p31bd9f3ad0)" style="fill: none; stroke: #b0b0b0; stroke-width: 0.8; stroke-linecap: square"/>
     </g>
     <g id="line2d_62"/>
     <g id="text_45">
      <!-- 2 -->
      <g transform="translate(580.902045 224.716406) scale(0.1 -0.1)">
       <use xlink:href="#DejaVuSans-32"/>
      </g>
     </g>
    </g>
    <g id="ytick_15">
     <g id="line2d_63">
      <path d="M 590.764545 165.477188 
L 1047.31 165.477188 
" clip-path="url(#p31bd9f3ad0)" style="fill: none; stroke: #b0b0b0; stroke-width: 0.8; stroke-linecap: square"/>
     </g>
     <g id="line2d_64"/>
     <g id="text_46">
      <!-- 4 -->
      <g transform="translate(580.902045 169.276406) scale(0.1 -0.1)">
       <use xlink:href="#DejaVuSans-34"/>
      </g>
     </g>
    </g>
    <g id="ytick_16">
     <g id="line2d_65">
      <path d="M 590.764545 110.037188 
L 1047.31 110.037188 
" clip-path="url(#p31bd9f3ad0)" style="fill: none; stroke: #b0b0b0; stroke-width: 0.8; stroke-linecap: square"/>
     </g>
     <g id="line2d_66"/>
     <g id="text_47">
      <!-- 6 -->
      <g transform="translate(580.902045 113.836406) scale(0.1 -0.1)">
       <use xlink:href="#DejaVuSans-36"/>
      </g>
     </g>
    </g>
    <g id="ytick_17">
     <g id="line2d_67">
      <path d="M 590.764545 54.597188 
L 1047.31 54.597188 
" clip-path="url(#p31bd9f3ad0)" style="fill: none; stroke: #b0b0b0; stroke-width: 0.8; stroke-linecap: square"/>
     </g>
     <g id="line2d_68"/>
     <g id="text_48">
      <!-- 8 -->
      <g transform="translate(580.902045 58.396406) scale(0.1 -0.1)">
       <use xlink:href="#DejaVuSans-38"/>
      </g>
     </g>
    </g>
    <g id="text_49">
     <!-- y-axis -->
     <g transform="translate(565.194858 299.865938) rotate(-90) scale(0.16 -0.16)">
      <use xlink:href="#DejaVuSans-79"/>
      <use xlink:href="#DejaVuSans-2d" x="57.429688"/>
      <use xlink:href="#DejaVuSans-61" x="93.513672"/>
      <use xlink:href="#DejaVuSans-78" x="154.792969"/>
      <use xlink:href="#DejaVuSans-69" x="213.972656"/>
      <use xlink:href="#DejaVuSans-73" x="241.755859"/>
     </g>
    </g>
   </g>
   <g id="patch_8">
    <path d="M 590.764545 525.837188 
L 590.764545 26.877188 
" style="fill: none; stroke: #000000; stroke-width: 0.8; stroke-linejoin: miter; stroke-linecap: square"/>
   </g>
   <g id="patch_9">
    <path d="M 1047.31 525.837188 
L 1047.31 26.877188 
" style="fill: none; stroke: #000000; stroke-width: 0.8; stroke-linejoin: miter; stroke-linecap: square"/>
   </g>
   <g id="patch_10">
    <path d="M 590.764545 525.837188 
L 1047.31 525.837188 
" style="fill: none; stroke: #000000; stroke-width: 0.8; stroke-linejoin: miter; stroke-linecap: square"/>
   </g>
   <g id="patch_11">
    <path d="M 590.764545 26.877188 
L 1047.31 26.877188 
" style="fill: none; stroke: #000000; stroke-width: 0.8; stroke-linejoin: miter; stroke-linecap: square"/>
   </g>
   <g id="text_50">
    <!-- (4, 7) -->
    <g transform="translate(920.491818 82.317188) scale(0.12 -0.12)">
     <use xlink:href="#DejaVuSans-28"/>
     <use xlink:href="#DejaVuSans-34" x="39.013672"/>
     <use xlink:href="#DejaVuSans-2c" x="102.636719"/>
     <use xlink:href="#DejaVuSans-20" x="134.423828"/>
     <use xlink:href="#DejaVuSans-37" x="166.210938"/>
     <use xlink:href="#DejaVuSans-29" x="229.833984"/>
    </g>
   </g>
   <g id="text_51">
    <!-- $\mathbf{u}$ -->
    <g transform="translate(869.764545 179.337188) scale(0.12 -0.12)">
     <use xlink:href="#DejaVuSans-Bold-75" transform="translate(0 0.3125)"/>
    </g>
   </g>
   <g id="text_52">
    <!-- (8, 4) -->
    <g transform="translate(1021.946364 165.477188) scale(0.12 -0.12)">
     <use xlink:href="#DejaVuSans-28"/>
     <use xlink:href="#DejaVuSans-38" x="39.013672"/>
     <use xlink:href="#DejaVuSans-2c" x="102.636719"/>
     <use xlink:href="#DejaVuSans-20" x="134.423828"/>
     <use xlink:href="#DejaVuSans-34" x="166.210938"/>
     <use xlink:href="#DejaVuSans-29" x="229.833984"/>
    </g>
   </g>
   <g id="text_53">
    <!-- $\mathbf{v}$ -->
    <g transform="translate(920.491818 220.917188) scale(0.12 -0.12)">
     <use xlink:href="#DejaVuSans-Bold-76" transform="translate(0 0.3125)"/>
    </g>
   </g>
   <g id="text_54">
    <!-- (-4, 3) -->
    <g transform="translate(717.582727 193.197188) scale(0.12 -0.12)">
     <defs>
      <path id="DejaVuSans-33" d="M 2597 2516 
Q 3050 2419 3304 2112 
Q 3559 1806 3559 1356 
Q 3559 666 3084 287 
Q 2609 -91 1734 -91 
Q 1441 -91 1130 -33 
Q 819 25 488 141 
L 488 750 
Q 750 597 1062 519 
Q 1375 441 1716 441 
Q 2309 441 2620 675 
Q 2931 909 2931 1356 
Q 2931 1769 2642 2001 
Q 2353 2234 1838 2234 
L 1294 2234 
L 1294 2753 
L 1863 2753 
Q 2328 2753 2575 2939 
Q 2822 3125 2822 3475 
Q 2822 3834 2567 4026 
Q 2313 4219 1838 4219 
Q 1578 4219 1281 4162 
Q 984 4106 628 3988 
L 628 4550 
Q 988 4650 1302 4700 
Q 1616 4750 1894 4750 
Q 2613 4750 3031 4423 
Q 3450 4097 3450 3541 
Q 3450 3153 3228 2886 
Q 3006 2619 2597 2516 
z
" transform="scale(0.015625)"/>
     </defs>
     <use xlink:href="#DejaVuSans-28"/>
     <use xlink:href="#DejaVuSans-2d" x="39.013672"/>
     <use xlink:href="#DejaVuSans-34" x="75.097656"/>
     <use xlink:href="#DejaVuSans-2c" x="138.720703"/>
     <use xlink:href="#DejaVuSans-20" x="170.507812"/>
     <use xlink:href="#DejaVuSans-33" x="202.294922"/>
     <use xlink:href="#DejaVuSans-29" x="265.917969"/>
    </g>
   </g>
   <g id="text_55">
    <!-- $\mathbf{u} - \mathbf{v}$ -->
    <g transform="translate(768.31 234.777188) scale(0.12 -0.12)">
     <use xlink:href="#DejaVuSans-Bold-75" transform="translate(0 0.3125)"/>
     <use xlink:href="#DejaVuSans-2212" transform="translate(90.673828 0.3125)"/>
     <use xlink:href="#DejaVuSans-Bold-76" transform="translate(193.945312 0.3125)"/>
    </g>
   </g>
   <g id="text_56">
    <!-- (-4, 3) -->
    <g transform="translate(717.582727 193.197188) scale(0.12 -0.12)">
     <use xlink:href="#DejaVuSans-28"/>
     <use xlink:href="#DejaVuSans-2d" x="39.013672"/>
     <use xlink:href="#DejaVuSans-34" x="75.097656"/>
     <use xlink:href="#DejaVuSans-2c" x="138.720703"/>
     <use xlink:href="#DejaVuSans-20" x="170.507812"/>
     <use xlink:href="#DejaVuSans-33" x="202.294922"/>
     <use xlink:href="#DejaVuSans-29" x="265.917969"/>
    </g>
   </g>
   <g id="text_57">
    <!-- $\mathbf{u}$ -->
    <g transform="translate(666.855455 290.217188) scale(0.12 -0.12)">
     <use xlink:href="#DejaVuSans-Bold-75" transform="translate(0 0.3125)"/>
    </g>
   </g>
   <g id="text_58">
    <!-- (-8, -4) -->
    <g transform="translate(616.128182 387.237188) scale(0.12 -0.12)">
     <use xlink:href="#DejaVuSans-28"/>
     <use xlink:href="#DejaVuSans-2d" x="39.013672"/>
     <use xlink:href="#DejaVuSans-38" x="75.097656"/>
     <use xlink:href="#DejaVuSans-2c" x="138.720703"/>
     <use xlink:href="#DejaVuSans-20" x="170.507812"/>
     <use xlink:href="#DejaVuSans-2d" x="202.294922"/>
     <use xlink:href="#DejaVuSans-34" x="238.378906"/>
     <use xlink:href="#DejaVuSans-29" x="302.001953"/>
    </g>
   </g>
   <g id="text_59">
    <!-- $\mathbf{-v}$ -->
    <g transform="translate(717.582727 331.797188) scale(0.12 -0.12)">
     <defs>
      <path id="DejaVuSans-Bold-2212" d="M 678 2375 
L 4684 2375 
L 4684 1638 
L 678 1638 
L 678 2375 
z
" transform="scale(0.015625)"/>
     </defs>
     <use xlink:href="#DejaVuSans-Bold-2212" transform="translate(0 0.3125)"/>
     <use xlink:href="#DejaVuSans-Bold-76" transform="translate(83.789062 0.3125)"/>
    </g>
   </g>
   <g id="text_60">
    <!-- (-4, 3) -->
    <g transform="translate(717.582727 193.197188) scale(0.12 -0.12)">
     <use xlink:href="#DejaVuSans-28"/>
     <use xlink:href="#DejaVuSans-2d" x="39.013672"/>
     <use xlink:href="#DejaVuSans-34" x="75.097656"/>
     <use xlink:href="#DejaVuSans-2c" x="138.720703"/>
     <use xlink:href="#DejaVuSans-20" x="170.507812"/>
     <use xlink:href="#DejaVuSans-33" x="202.294922"/>
     <use xlink:href="#DejaVuSans-29" x="265.917969"/>
    </g>
   </g>
   <g id="text_61">
    <!-- $\mathbf{-v}$ -->
    <g transform="translate(819.037273 137.757187) scale(0.12 -0.12)">
     <use xlink:href="#DejaVuSans-Bold-2212" transform="translate(0 0.3125)"/>
     <use xlink:href="#DejaVuSans-Bold-76" transform="translate(83.789062 0.3125)"/>
    </g>
   </g>
   <g id="text_62">
    <!-- (4, 7) -->
    <g transform="translate(920.491818 82.317188) scale(0.12 -0.12)">
     <use xlink:href="#DejaVuSans-28"/>
     <use xlink:href="#DejaVuSans-34" x="39.013672"/>
     <use xlink:href="#DejaVuSans-2c" x="102.636719"/>
     <use xlink:href="#DejaVuSans-20" x="134.423828"/>
     <use xlink:href="#DejaVuSans-37" x="166.210938"/>
     <use xlink:href="#DejaVuSans-29" x="229.833984"/>
    </g>
   </g>
   <g id="text_63">
    <!-- $\mathbf{u} - \mathbf{v}$ -->
    <g transform="translate(971.219091 123.897188) scale(0.12 -0.12)">
     <use xlink:href="#DejaVuSans-Bold-75" transform="translate(0 0.3125)"/>
     <use xlink:href="#DejaVuSans-2212" transform="translate(90.673828 0.3125)"/>
     <use xlink:href="#DejaVuSans-Bold-76" transform="translate(193.945312 0.3125)"/>
    </g>
   </g>
   <g id="text_64">
    <!-- Vector Subtraction -->
    <g transform="translate(735.434304 20.877187) scale(0.18 -0.18)">
     <defs>
      <path id="DejaVuSans-53" d="M 3425 4513 
L 3425 3897 
Q 3066 4069 2747 4153 
Q 2428 4238 2131 4238 
Q 1616 4238 1336 4038 
Q 1056 3838 1056 3469 
Q 1056 3159 1242 3001 
Q 1428 2844 1947 2747 
L 2328 2669 
Q 3034 2534 3370 2195 
Q 3706 1856 3706 1288 
Q 3706 609 3251 259 
Q 2797 -91 1919 -91 
Q 1588 -91 1214 -16 
Q 841 59 441 206 
L 441 856 
Q 825 641 1194 531 
Q 1563 422 1919 422 
Q 2459 422 2753 634 
Q 3047 847 3047 1241 
Q 3047 1584 2836 1778 
Q 2625 1972 2144 2069 
L 1759 2144 
Q 1053 2284 737 2584 
Q 422 2884 422 3419 
Q 422 4038 858 4394 
Q 1294 4750 2059 4750 
Q 2388 4750 2728 4690 
Q 3069 4631 3425 4513 
z
" transform="scale(0.015625)"/>
      <path id="DejaVuSans-75" d="M 544 1381 
L 544 3500 
L 1119 3500 
L 1119 1403 
Q 1119 906 1312 657 
Q 1506 409 1894 409 
Q 2359 409 2629 706 
Q 2900 1003 2900 1516 
L 2900 3500 
L 3475 3500 
L 3475 0 
L 2900 0 
L 2900 538 
Q 2691 219 2414 64 
Q 2138 -91 1772 -91 
Q 1169 -91 856 284 
Q 544 659 544 1381 
z
M 1991 3584 
L 1991 3584 
z
" transform="scale(0.015625)"/>
      <path id="DejaVuSans-62" d="M 3116 1747 
Q 3116 2381 2855 2742 
Q 2594 3103 2138 3103 
Q 1681 3103 1420 2742 
Q 1159 2381 1159 1747 
Q 1159 1113 1420 752 
Q 1681 391 2138 391 
Q 2594 391 2855 752 
Q 3116 1113 3116 1747 
z
M 1159 2969 
Q 1341 3281 1617 3432 
Q 1894 3584 2278 3584 
Q 2916 3584 3314 3078 
Q 3713 2572 3713 1747 
Q 3713 922 3314 415 
Q 2916 -91 2278 -91 
Q 1894 -91 1617 61 
Q 1341 213 1159 525 
L 1159 0 
L 581 0 
L 581 4863 
L 1159 4863 
L 1159 2969 
z
" transform="scale(0.015625)"/>
     </defs>
     <use xlink:href="#DejaVuSans-56"/>
     <use xlink:href="#DejaVuSans-65" x="60.658203"/>
     <use xlink:href="#DejaVuSans-63" x="122.181641"/>
     <use xlink:href="#DejaVuSans-74" x="177.162109"/>
     <use xlink:href="#DejaVuSans-6f" x="216.371094"/>
     <use xlink:href="#DejaVuSans-72" x="277.552734"/>
     <use xlink:href="#DejaVuSans-20" x="318.666016"/>
     <use xlink:href="#DejaVuSans-53" x="350.453125"/>
     <use xlink:href="#DejaVuSans-75" x="413.929688"/>
     <use xlink:href="#DejaVuSans-62" x="477.308594"/>
     <use xlink:href="#DejaVuSans-74" x="540.785156"/>
     <use xlink:href="#DejaVuSans-72" x="579.994141"/>
     <use xlink:href="#DejaVuSans-61" x="621.107422"/>
     <use xlink:href="#DejaVuSans-63" x="682.386719"/>
     <use xlink:href="#DejaVuSans-74" x="737.367188"/>
     <use xlink:href="#DejaVuSans-69" x="776.576172"/>
     <use xlink:href="#DejaVuSans-6f" x="804.359375"/>
     <use xlink:href="#DejaVuSans-6e" x="865.541016"/>
    </g>
   </g>
  </g>
 </g>
 <defs>
  <clipPath id="p7e8af45750">
   <rect x="42.91" y="26.877187" width="456.545455" height="498.96"/>
  </clipPath>
  <clipPath id="p31bd9f3ad0">
   <rect x="590.764545" y="26.877187" width="456.545455" height="498.96"/>
  </clipPath>
 </defs>
</svg>