<?xml version="1.0" encoding="utf-8" standalone="no"?>
<!DOCTYPE svg PUBLIC "-//W3C//DTD SVG 1.1//EN"
  "http://www.w3.org/Graphics/SVG/1.1/DTD/svg11.dtd">
<svg xmlns:xlink="http://www.w3.org/1999/xlink" width="430.373125pt" height="310.86825pt" viewBox="0 0 430.373125 310.86825" xmlns="http://www.w3.org/2000/svg" version="1.1">
 <metadata>
  <rdf:RDF xmlns:dc="http://purl.org/dc/elements/1.1/" xmlns:cc="http://creativecommons.org/ns#" xmlns:rdf="http://www.w3.org/1999/02/22-rdf-syntax-ns#">
   <cc:Work>
    <dc:type rdf:resource="http://purl.org/dc/dcmitype/StillImage"/>
    <dc:date>2024-12-10T13:45:10.142514</dc:date>
    <dc:format>image/svg+xml</dc:format>
    <dc:creator>
     <cc:Agent>
      <dc:title>Matplotlib v3.9.0, https://matplotlib.org/</dc:title>
     </cc:Agent>
    </dc:creator>
   </cc:Work>
  </rdf:RDF>
 </metadata>
 <defs>
  <style type="text/css">*{stroke-linejoin: round; stroke-linecap: butt}</style>
 </defs>
 <g id="figure_1">
  <g id="patch_1">
   <path d="M 0 310.86825 
L 430.373125 310.86825 
L 430.373125 0 
L 0 0 
z
" style="fill: #ffffff"/>
  </g>
  <g id="axes_1">
   <g id="patch_2">
    <path d="M 66.053125 273.312 
L 423.173125 273.312 
L 423.173125 7.2 
L 66.053125 7.2 
z
" style="fill: #ffffff"/>
   </g>
   <g id="PathCollection_1">
    <defs>
     <path id="m3eafd4dfd7" d="M 0 3 
C 0.795609 3 1.55874 2.683901 2.12132 2.12132 
C 2.683901 1.55874 3 0.795609 3 0 
C 3 -0.795609 2.683901 -1.55874 2.12132 -2.12132 
C 1.55874 -2.683901 0.795609 -3 0 -3 
C -0.795609 -3 -1.55874 -2.683901 -2.12132 -2.12132 
C -2.683901 -1.55874 -3 -0.795609 -3 0 
C -3 0.795609 -2.683901 1.55874 -2.12132 2.12132 
C -1.55874 2.683901 -0.795609 3 0 3 
z
" style="stroke: #1f77b4"/>
    </defs>
    <g clip-path="url(#p34f0abdcf2)">
     <use xlink:href="#m3eafd4dfd7" x="247.925926" y="138.242986" style="fill: #1f77b4; stroke: #1f77b4"/>
     <use xlink:href="#m3eafd4dfd7" x="383.750787" y="61.541112" style="fill: #1f77b4; stroke: #1f77b4"/>
     <use xlink:href="#m3eafd4dfd7" x="125.352272" y="222.195736" style="fill: #1f77b4; stroke: #1f77b4"/>
     <use xlink:href="#m3eafd4dfd7" x="314.181956" y="91.456514" style="fill: #1f77b4; stroke: #1f77b4"/>
     <use xlink:href="#m3eafd4dfd7" x="277.74114" y="124.109614" style="fill: #1f77b4; stroke: #1f77b4"/>
     <use xlink:href="#m3eafd4dfd7" x="145.22908" y="227.971073" style="fill: #1f77b4; stroke: #1f77b4"/>
     <use xlink:href="#m3eafd4dfd7" x="350.622772" y="60.065573" style="fill: #1f77b4; stroke: #1f77b4"/>
     <use xlink:href="#m3eafd4dfd7" x="363.873978" y="84.920257" style="fill: #1f77b4; stroke: #1f77b4"/>
     <use xlink:href="#m3eafd4dfd7" x="324.120361" y="55.085376" style="fill: #1f77b4; stroke: #1f77b4"/>
     <use xlink:href="#m3eafd4dfd7" x="324.120361" y="107.657251" style="fill: #1f77b4; stroke: #1f77b4"/>
     <use xlink:href="#m3eafd4dfd7" x="367.18678" y="77.804253" style="fill: #1f77b4; stroke: #1f77b4"/>
     <use xlink:href="#m3eafd4dfd7" x="406.940398" y="45.233686" style="fill: #1f77b4; stroke: #1f77b4"/>
     <use xlink:href="#m3eafd4dfd7" x="155.167485" y="258.498431" style="fill: #1f77b4; stroke: #1f77b4"/>
     <use xlink:href="#m3eafd4dfd7" x="85.598654" y="219.401673" style="fill: #1f77b4; stroke: #1f77b4"/>
     <use xlink:href="#m3eafd4dfd7" x="148.541882" y="215.641362" style="fill: #1f77b4; stroke: #1f77b4"/>
     <use xlink:href="#m3eafd4dfd7" x="251.238728" y="88.761088" style="fill: #1f77b4; stroke: #1f77b4"/>
     <use xlink:href="#m3eafd4dfd7" x="82.285852" y="257.966995" style="fill: #1f77b4; stroke: #1f77b4"/>
     <use xlink:href="#m3eafd4dfd7" x="367.18678" y="68.86647" style="fill: #1f77b4; stroke: #1f77b4"/>
     <use xlink:href="#m3eafd4dfd7" x="175.044294" y="201.449613" style="fill: #1f77b4; stroke: #1f77b4"/>
     <use xlink:href="#m3eafd4dfd7" x="201.546706" y="180.995378" style="fill: #1f77b4; stroke: #1f77b4"/>
     <use xlink:href="#m3eafd4dfd7" x="82.285852" y="206.933064" style="fill: #1f77b4; stroke: #1f77b4"/>
     <use xlink:href="#m3eafd4dfd7" x="287.679544" y="92.00808" style="fill: #1f77b4; stroke: #1f77b4"/>
     <use xlink:href="#m3eafd4dfd7" x="274.428338" y="127.455244" style="fill: #1f77b4; stroke: #1f77b4"/>
     <use xlink:href="#m3eafd4dfd7" x="145.22908" y="202.951322" style="fill: #1f77b4; stroke: #1f77b4"/>
     <use xlink:href="#m3eafd4dfd7" x="184.982698" y="135.271777" style="fill: #1f77b4; stroke: #1f77b4"/>
     <use xlink:href="#m3eafd4dfd7" x="327.433162" y="103.156151" style="fill: #1f77b4; stroke: #1f77b4"/>
     <use xlink:href="#m3eafd4dfd7" x="267.802735" y="112.442185" style="fill: #1f77b4; stroke: #1f77b4"/>
     <use xlink:href="#m3eafd4dfd7" x="148.541882" y="173.766645" style="fill: #1f77b4; stroke: #1f77b4"/>
     <use xlink:href="#m3eafd4dfd7" x="370.499581" y="100.915667" style="fill: #1f77b4; stroke: #1f77b4"/>
     <use xlink:href="#m3eafd4dfd7" x="237.987522" y="173.901516" style="fill: #1f77b4; stroke: #1f77b4"/>
     <use xlink:href="#m3eafd4dfd7" x="377.125184" y="71.924239" style="fill: #1f77b4; stroke: #1f77b4"/>
     <use xlink:href="#m3eafd4dfd7" x="271.115537" y="126.338021" style="fill: #1f77b4; stroke: #1f77b4"/>
     <use xlink:href="#m3eafd4dfd7" x="214.797912" y="182.646049" style="fill: #1f77b4; stroke: #1f77b4"/>
     <use xlink:href="#m3eafd4dfd7" x="380.437986" y="34.30302" style="fill: #1f77b4; stroke: #1f77b4"/>
     <use xlink:href="#m3eafd4dfd7" x="274.428338" y="146.64732" style="fill: #1f77b4; stroke: #1f77b4"/>
     <use xlink:href="#m3eafd4dfd7" x="340.684368" y="74.462649" style="fill: #1f77b4; stroke: #1f77b4"/>
     <use xlink:href="#m3eafd4dfd7" x="125.352272" y="220.265256" style="fill: #1f77b4; stroke: #1f77b4"/>
     <use xlink:href="#m3eafd4dfd7" x="281.053941" y="77.957242" style="fill: #1f77b4; stroke: #1f77b4"/>
     <use xlink:href="#m3eafd4dfd7" x="281.053941" y="115.866322" style="fill: #1f77b4; stroke: #1f77b4"/>
     <use xlink:href="#m3eafd4dfd7" x="231.361919" y="140.80354" style="fill: #1f77b4; stroke: #1f77b4"/>
     <use xlink:href="#m3eafd4dfd7" x="281.053941" y="105.865668" style="fill: #1f77b4; stroke: #1f77b4"/>
     <use xlink:href="#m3eafd4dfd7" x="244.613125" y="164.130346" style="fill: #1f77b4; stroke: #1f77b4"/>
     <use xlink:href="#m3eafd4dfd7" x="257.864331" y="118.670451" style="fill: #1f77b4; stroke: #1f77b4"/>
     <use xlink:href="#m3eafd4dfd7" x="287.679544" y="113.04005" style="fill: #1f77b4; stroke: #1f77b4"/>
     <use xlink:href="#m3eafd4dfd7" x="85.598654" y="260.283975" style="fill: #1f77b4; stroke: #1f77b4"/>
     <use xlink:href="#m3eafd4dfd7" x="244.613125" y="125.571063" style="fill: #1f77b4; stroke: #1f77b4"/>
     <use xlink:href="#m3eafd4dfd7" x="98.84986" y="202.564823" style="fill: #1f77b4; stroke: #1f77b4"/>
     <use xlink:href="#m3eafd4dfd7" x="145.22908" y="197.089425" style="fill: #1f77b4; stroke: #1f77b4"/>
     <use xlink:href="#m3eafd4dfd7" x="317.494758" y="144.123" style="fill: #1f77b4; stroke: #1f77b4"/>
     <use xlink:href="#m3eafd4dfd7" x="204.859507" y="216.259358" style="fill: #1f77b4; stroke: #1f77b4"/>
     <use xlink:href="#m3eafd4dfd7" x="135.290676" y="217.418854" style="fill: #1f77b4; stroke: #1f77b4"/>
     <use xlink:href="#m3eafd4dfd7" x="88.911455" y="228.993684" style="fill: #1f77b4; stroke: #1f77b4"/>
     <use xlink:href="#m3eafd4dfd7" x="370.499581" y="70.901628" style="fill: #1f77b4; stroke: #1f77b4"/>
     <use xlink:href="#m3eafd4dfd7" x="274.428338" y="102.183866" style="fill: #1f77b4; stroke: #1f77b4"/>
     <use xlink:href="#m3eafd4dfd7" x="122.03947" y="227.524184" style="fill: #1f77b4; stroke: #1f77b4"/>
     <use xlink:href="#m3eafd4dfd7" x="105.475463" y="237.341654" style="fill: #1f77b4; stroke: #1f77b4"/>
     <use xlink:href="#m3eafd4dfd7" x="373.812383" y="67.024563" style="fill: #1f77b4; stroke: #1f77b4"/>
     <use xlink:href="#m3eafd4dfd7" x="251.238728" y="161.785185" style="fill: #1f77b4; stroke: #1f77b4"/>
     <use xlink:href="#m3eafd4dfd7" x="82.285852" y="201.439548" style="fill: #1f77b4; stroke: #1f77b4"/>
     <use xlink:href="#m3eafd4dfd7" x="353.935574" y="48.287428" style="fill: #1f77b4; stroke: #1f77b4"/>
     <use xlink:href="#m3eafd4dfd7" x="380.437986" y="94.892729" style="fill: #1f77b4; stroke: #1f77b4"/>
     <use xlink:href="#m3eafd4dfd7" x="274.428338" y="102.987058" style="fill: #1f77b4; stroke: #1f77b4"/>
     <use xlink:href="#m3eafd4dfd7" x="310.869155" y="106.63464" style="fill: #1f77b4; stroke: #1f77b4"/>
     <use xlink:href="#m3eafd4dfd7" x="221.423515" y="115.45768" style="fill: #1f77b4; stroke: #1f77b4"/>
     <use xlink:href="#m3eafd4dfd7" x="102.162661" y="197.558457" style="fill: #1f77b4; stroke: #1f77b4"/>
     <use xlink:href="#m3eafd4dfd7" x="231.361919" y="187.07468" style="fill: #1f77b4; stroke: #1f77b4"/>
     <use xlink:href="#m3eafd4dfd7" x="191.608301" y="149.149496" style="fill: #1f77b4; stroke: #1f77b4"/>
     <use xlink:href="#m3eafd4dfd7" x="334.058765" y="66.627999" style="fill: #1f77b4; stroke: #1f77b4"/>
     <use xlink:href="#m3eafd4dfd7" x="343.99717" y="66.440789" style="fill: #1f77b4; stroke: #1f77b4"/>
     <use xlink:href="#m3eafd4dfd7" x="194.921103" y="119.288446" style="fill: #1f77b4; stroke: #1f77b4"/>
     <use xlink:href="#m3eafd4dfd7" x="241.300324" y="128.187981" style="fill: #1f77b4; stroke: #1f77b4"/>
     <use xlink:href="#m3eafd4dfd7" x="88.911455" y="261.216" style="fill: #1f77b4; stroke: #1f77b4"/>
     <use xlink:href="#m3eafd4dfd7" x="82.285852" y="239.793505" style="fill: #1f77b4; stroke: #1f77b4"/>
     <use xlink:href="#m3eafd4dfd7" x="95.537058" y="244.348955" style="fill: #1f77b4; stroke: #1f77b4"/>
     <use xlink:href="#m3eafd4dfd7" x="254.551529" y="125.808598" style="fill: #1f77b4; stroke: #1f77b4"/>
     <use xlink:href="#m3eafd4dfd7" x="88.911455" y="241.188523" style="fill: #1f77b4; stroke: #1f77b4"/>
     <use xlink:href="#m3eafd4dfd7" x="254.551529" y="122.712583" style="fill: #1f77b4; stroke: #1f77b4"/>
     <use xlink:href="#m3eafd4dfd7" x="383.750787" y="58.286069" style="fill: #1f77b4; stroke: #1f77b4"/>
     <use xlink:href="#m3eafd4dfd7" x="284.366743" y="119.966832" style="fill: #1f77b4; stroke: #1f77b4"/>
     <use xlink:href="#m3eafd4dfd7" x="135.290676" y="175.515954" style="fill: #1f77b4; stroke: #1f77b4"/>
     <use xlink:href="#m3eafd4dfd7" x="373.812383" y="91.335733" style="fill: #1f77b4; stroke: #1f77b4"/>
     <use xlink:href="#m3eafd4dfd7" x="221.423515" y="83.589655" style="fill: #1f77b4; stroke: #1f77b4"/>
     <use xlink:href="#m3eafd4dfd7" x="188.2955" y="142.862853" style="fill: #1f77b4; stroke: #1f77b4"/>
     <use xlink:href="#m3eafd4dfd7" x="320.807559" y="131.445038" style="fill: #1f77b4; stroke: #1f77b4"/>
     <use xlink:href="#m3eafd4dfd7" x="281.053941" y="137.759863" style="fill: #1f77b4; stroke: #1f77b4"/>
     <use xlink:href="#m3eafd4dfd7" x="406.940398" y="29.997183" style="fill: #1f77b4; stroke: #1f77b4"/>
     <use xlink:href="#m3eafd4dfd7" x="122.03947" y="201.222143" style="fill: #1f77b4; stroke: #1f77b4"/>
     <use xlink:href="#m3eafd4dfd7" x="390.37639" y="19.296" style="fill: #1f77b4; stroke: #1f77b4"/>
     <use xlink:href="#m3eafd4dfd7" x="234.674721" y="142.911166" style="fill: #1f77b4; stroke: #1f77b4"/>
     <use xlink:href="#m3eafd4dfd7" x="125.352272" y="210.268628" style="fill: #1f77b4; stroke: #1f77b4"/>
     <use xlink:href="#m3eafd4dfd7" x="314.181956" y="130.229177" style="fill: #1f77b4; stroke: #1f77b4"/>
     <use xlink:href="#m3eafd4dfd7" x="334.058765" y="114.48942" style="fill: #1f77b4; stroke: #1f77b4"/>
     <use xlink:href="#m3eafd4dfd7" x="363.873978" y="77.886786" style="fill: #1f77b4; stroke: #1f77b4"/>
     <use xlink:href="#m3eafd4dfd7" x="281.053941" y="87.893479" style="fill: #1f77b4; stroke: #1f77b4"/>
     <use xlink:href="#m3eafd4dfd7" x="208.172309" y="151.148419" style="fill: #1f77b4; stroke: #1f77b4"/>
     <use xlink:href="#m3eafd4dfd7" x="357.248375" y="122.156991" style="fill: #1f77b4; stroke: #1f77b4"/>
     <use xlink:href="#m3eafd4dfd7" x="340.684368" y="77.490223" style="fill: #1f77b4; stroke: #1f77b4"/>
     <use xlink:href="#m3eafd4dfd7" x="347.309971" y="83.283677" style="fill: #1f77b4; stroke: #1f77b4"/>
     <use xlink:href="#m3eafd4dfd7" x="251.238728" y="139.028061" style="fill: #1f77b4; stroke: #1f77b4"/>
     <use xlink:href="#m3eafd4dfd7" x="155.167485" y="214.765701" style="fill: #1f77b4; stroke: #1f77b4"/>
    </g>
   </g>
   <g id="matplotlib.axis_1">
    <g id="xtick_1">
     <g id="line2d_1">
      <defs>
       <path id="ma103ae0bd0" d="M 0 0 
L 0 3.5 
" style="stroke: #000000; stroke-width: 0.8"/>
      </defs>
      <g>
       <use xlink:href="#ma103ae0bd0" x="78.973051" y="273.312" style="stroke: #000000; stroke-width: 0.8"/>
      </g>
     </g>
     <g id="text_1">
      <!-- 0 -->
      <g transform="translate(75.791801 287.910437) scale(0.1 -0.1)">
       <defs>
        <path id="DejaVuSans-30" d="M 2034 4250 
Q 1547 4250 1301 3770 
Q 1056 3291 1056 2328 
Q 1056 1369 1301 889 
Q 1547 409 2034 409 
Q 2525 409 2770 889 
Q 3016 1369 3016 2328 
Q 3016 3291 2770 3770 
Q 2525 4250 2034 4250 
z
M 2034 4750 
Q 2819 4750 3233 4129 
Q 3647 3509 3647 2328 
Q 3647 1150 3233 529 
Q 2819 -91 2034 -91 
Q 1250 -91 836 529 
Q 422 1150 422 2328 
Q 422 3509 836 4129 
Q 1250 4750 2034 4750 
z
" transform="scale(0.015625)"/>
       </defs>
       <use xlink:href="#DejaVuSans-30"/>
      </g>
     </g>
    </g>
    <g id="xtick_2">
     <g id="line2d_2">
      <g>
       <use xlink:href="#ma103ae0bd0" x="145.22908" y="273.312" style="stroke: #000000; stroke-width: 0.8"/>
      </g>
     </g>
     <g id="text_2">
      <!-- 20 -->
      <g transform="translate(138.86658 287.910437) scale(0.1 -0.1)">
       <defs>
        <path id="DejaVuSans-32" d="M 1228 531 
L 3431 531 
L 3431 0 
L 469 0 
L 469 531 
Q 828 903 1448 1529 
Q 2069 2156 2228 2338 
Q 2531 2678 2651 2914 
Q 2772 3150 2772 3378 
Q 2772 3750 2511 3984 
Q 2250 4219 1831 4219 
Q 1534 4219 1204 4116 
Q 875 4013 500 3803 
L 500 4441 
Q 881 4594 1212 4672 
Q 1544 4750 1819 4750 
Q 2544 4750 2975 4387 
Q 3406 4025 3406 3419 
Q 3406 3131 3298 2873 
Q 3191 2616 2906 2266 
Q 2828 2175 2409 1742 
Q 1991 1309 1228 531 
z
" transform="scale(0.015625)"/>
       </defs>
       <use xlink:href="#DejaVuSans-32"/>
       <use xlink:href="#DejaVuSans-30" x="63.623047"/>
      </g>
     </g>
    </g>
    <g id="xtick_3">
     <g id="line2d_3">
      <g>
       <use xlink:href="#ma103ae0bd0" x="211.48511" y="273.312" style="stroke: #000000; stroke-width: 0.8"/>
      </g>
     </g>
     <g id="text_3">
      <!-- 40 -->
      <g transform="translate(205.12261 287.910437) scale(0.1 -0.1)">
       <defs>
        <path id="DejaVuSans-34" d="M 2419 4116 
L 825 1625 
L 2419 1625 
L 2419 4116 
z
M 2253 4666 
L 3047 4666 
L 3047 1625 
L 3713 1625 
L 3713 1100 
L 3047 1100 
L 3047 0 
L 2419 0 
L 2419 1100 
L 313 1100 
L 313 1709 
L 2253 4666 
z
" transform="scale(0.015625)"/>
       </defs>
       <use xlink:href="#DejaVuSans-34"/>
       <use xlink:href="#DejaVuSans-30" x="63.623047"/>
      </g>
     </g>
    </g>
    <g id="xtick_4">
     <g id="line2d_4">
      <g>
       <use xlink:href="#ma103ae0bd0" x="277.74114" y="273.312" style="stroke: #000000; stroke-width: 0.8"/>
      </g>
     </g>
     <g id="text_4">
      <!-- 60 -->
      <g transform="translate(271.37864 287.910437) scale(0.1 -0.1)">
       <defs>
        <path id="DejaVuSans-36" d="M 2113 2584 
Q 1688 2584 1439 2293 
Q 1191 2003 1191 1497 
Q 1191 994 1439 701 
Q 1688 409 2113 409 
Q 2538 409 2786 701 
Q 3034 994 3034 1497 
Q 3034 2003 2786 2293 
Q 2538 2584 2113 2584 
z
M 3366 4563 
L 3366 3988 
Q 3128 4100 2886 4159 
Q 2644 4219 2406 4219 
Q 1781 4219 1451 3797 
Q 1122 3375 1075 2522 
Q 1259 2794 1537 2939 
Q 1816 3084 2150 3084 
Q 2853 3084 3261 2657 
Q 3669 2231 3669 1497 
Q 3669 778 3244 343 
Q 2819 -91 2113 -91 
Q 1303 -91 875 529 
Q 447 1150 447 2328 
Q 447 3434 972 4092 
Q 1497 4750 2381 4750 
Q 2619 4750 2861 4703 
Q 3103 4656 3366 4563 
z
" transform="scale(0.015625)"/>
       </defs>
       <use xlink:href="#DejaVuSans-36"/>
       <use xlink:href="#DejaVuSans-30" x="63.623047"/>
      </g>
     </g>
    </g>
    <g id="xtick_5">
     <g id="line2d_5">
      <g>
       <use xlink:href="#ma103ae0bd0" x="343.99717" y="273.312" style="stroke: #000000; stroke-width: 0.8"/>
      </g>
     </g>
     <g id="text_5">
      <!-- 80 -->
      <g transform="translate(337.63467 287.910437) scale(0.1 -0.1)">
       <defs>
        <path id="DejaVuSans-38" d="M 2034 2216 
Q 1584 2216 1326 1975 
Q 1069 1734 1069 1313 
Q 1069 891 1326 650 
Q 1584 409 2034 409 
Q 2484 409 2743 651 
Q 3003 894 3003 1313 
Q 3003 1734 2745 1975 
Q 2488 2216 2034 2216 
z
M 1403 2484 
Q 997 2584 770 2862 
Q 544 3141 544 3541 
Q 544 4100 942 4425 
Q 1341 4750 2034 4750 
Q 2731 4750 3128 4425 
Q 3525 4100 3525 3541 
Q 3525 3141 3298 2862 
Q 3072 2584 2669 2484 
Q 3125 2378 3379 2068 
Q 3634 1759 3634 1313 
Q 3634 634 3220 271 
Q 2806 -91 2034 -91 
Q 1263 -91 848 271 
Q 434 634 434 1313 
Q 434 1759 690 2068 
Q 947 2378 1403 2484 
z
M 1172 3481 
Q 1172 3119 1398 2916 
Q 1625 2713 2034 2713 
Q 2441 2713 2670 2916 
Q 2900 3119 2900 3481 
Q 2900 3844 2670 4047 
Q 2441 4250 2034 4250 
Q 1625 4250 1398 4047 
Q 1172 3844 1172 3481 
z
" transform="scale(0.015625)"/>
       </defs>
       <use xlink:href="#DejaVuSans-38"/>
       <use xlink:href="#DejaVuSans-30" x="63.623047"/>
      </g>
     </g>
    </g>
    <g id="xtick_6">
     <g id="line2d_6">
      <g>
       <use xlink:href="#ma103ae0bd0" x="410.253199" y="273.312" style="stroke: #000000; stroke-width: 0.8"/>
      </g>
     </g>
     <g id="text_6">
      <!-- 100 -->
      <g transform="translate(400.709449 287.910437) scale(0.1 -0.1)">
       <defs>
        <path id="DejaVuSans-31" d="M 794 531 
L 1825 531 
L 1825 4091 
L 703 3866 
L 703 4441 
L 1819 4666 
L 2450 4666 
L 2450 531 
L 3481 531 
L 3481 0 
L 794 0 
L 794 531 
z
" transform="scale(0.015625)"/>
       </defs>
       <use xlink:href="#DejaVuSans-31"/>
       <use xlink:href="#DejaVuSans-30" x="63.623047"/>
       <use xlink:href="#DejaVuSans-30" x="127.246094"/>
      </g>
     </g>
    </g>
    <g id="text_7">
     <!-- House Size (sqft) -->
     <g transform="translate(202.188125 301.588562) scale(0.1 -0.1)">
      <defs>
       <path id="DejaVuSans-48" d="M 628 4666 
L 1259 4666 
L 1259 2753 
L 3553 2753 
L 3553 4666 
L 4184 4666 
L 4184 0 
L 3553 0 
L 3553 2222 
L 1259 2222 
L 1259 0 
L 628 0 
L 628 4666 
z
" transform="scale(0.015625)"/>
       <path id="DejaVuSans-6f" d="M 1959 3097 
Q 1497 3097 1228 2736 
Q 959 2375 959 1747 
Q 959 1119 1226 758 
Q 1494 397 1959 397 
Q 2419 397 2687 759 
Q 2956 1122 2956 1747 
Q 2956 2369 2687 2733 
Q 2419 3097 1959 3097 
z
M 1959 3584 
Q 2709 3584 3137 3096 
Q 3566 2609 3566 1747 
Q 3566 888 3137 398 
Q 2709 -91 1959 -91 
Q 1206 -91 779 398 
Q 353 888 353 1747 
Q 353 2609 779 3096 
Q 1206 3584 1959 3584 
z
" transform="scale(0.015625)"/>
       <path id="DejaVuSans-75" d="M 544 1381 
L 544 3500 
L 1119 3500 
L 1119 1403 
Q 1119 906 1312 657 
Q 1506 409 1894 409 
Q 2359 409 2629 706 
Q 2900 1003 2900 1516 
L 2900 3500 
L 3475 3500 
L 3475 0 
L 2900 0 
L 2900 538 
Q 2691 219 2414 64 
Q 2138 -91 1772 -91 
Q 1169 -91 856 284 
Q 544 659 544 1381 
z
M 1991 3584 
L 1991 3584 
z
" transform="scale(0.015625)"/>
       <path id="DejaVuSans-73" d="M 2834 3397 
L 2834 2853 
Q 2591 2978 2328 3040 
Q 2066 3103 1784 3103 
Q 1356 3103 1142 2972 
Q 928 2841 928 2578 
Q 928 2378 1081 2264 
Q 1234 2150 1697 2047 
L 1894 2003 
Q 2506 1872 2764 1633 
Q 3022 1394 3022 966 
Q 3022 478 2636 193 
Q 2250 -91 1575 -91 
Q 1294 -91 989 -36 
Q 684 19 347 128 
L 347 722 
Q 666 556 975 473 
Q 1284 391 1588 391 
Q 1994 391 2212 530 
Q 2431 669 2431 922 
Q 2431 1156 2273 1281 
Q 2116 1406 1581 1522 
L 1381 1569 
Q 847 1681 609 1914 
Q 372 2147 372 2553 
Q 372 3047 722 3315 
Q 1072 3584 1716 3584 
Q 2034 3584 2315 3537 
Q 2597 3491 2834 3397 
z
" transform="scale(0.015625)"/>
       <path id="DejaVuSans-65" d="M 3597 1894 
L 3597 1613 
L 953 1613 
Q 991 1019 1311 708 
Q 1631 397 2203 397 
Q 2534 397 2845 478 
Q 3156 559 3463 722 
L 3463 178 
Q 3153 47 2828 -22 
Q 2503 -91 2169 -91 
Q 1331 -91 842 396 
Q 353 884 353 1716 
Q 353 2575 817 3079 
Q 1281 3584 2069 3584 
Q 2775 3584 3186 3129 
Q 3597 2675 3597 1894 
z
M 3022 2063 
Q 3016 2534 2758 2815 
Q 2500 3097 2075 3097 
Q 1594 3097 1305 2825 
Q 1016 2553 972 2059 
L 3022 2063 
z
" transform="scale(0.015625)"/>
       <path id="DejaVuSans-20" transform="scale(0.015625)"/>
       <path id="DejaVuSans-53" d="M 3425 4513 
L 3425 3897 
Q 3066 4069 2747 4153 
Q 2428 4238 2131 4238 
Q 1616 4238 1336 4038 
Q 1056 3838 1056 3469 
Q 1056 3159 1242 3001 
Q 1428 2844 1947 2747 
L 2328 2669 
Q 3034 2534 3370 2195 
Q 3706 1856 3706 1288 
Q 3706 609 3251 259 
Q 2797 -91 1919 -91 
Q 1588 -91 1214 -16 
Q 841 59 441 206 
L 441 856 
Q 825 641 1194 531 
Q 1563 422 1919 422 
Q 2459 422 2753 634 
Q 3047 847 3047 1241 
Q 3047 1584 2836 1778 
Q 2625 1972 2144 2069 
L 1759 2144 
Q 1053 2284 737 2584 
Q 422 2884 422 3419 
Q 422 4038 858 4394 
Q 1294 4750 2059 4750 
Q 2388 4750 2728 4690 
Q 3069 4631 3425 4513 
z
" transform="scale(0.015625)"/>
       <path id="DejaVuSans-69" d="M 603 3500 
L 1178 3500 
L 1178 0 
L 603 0 
L 603 3500 
z
M 603 4863 
L 1178 4863 
L 1178 4134 
L 603 4134 
L 603 4863 
z
" transform="scale(0.015625)"/>
       <path id="DejaVuSans-7a" d="M 353 3500 
L 3084 3500 
L 3084 2975 
L 922 459 
L 3084 459 
L 3084 0 
L 275 0 
L 275 525 
L 2438 3041 
L 353 3041 
L 353 3500 
z
" transform="scale(0.015625)"/>
       <path id="DejaVuSans-28" d="M 1984 4856 
Q 1566 4138 1362 3434 
Q 1159 2731 1159 2009 
Q 1159 1288 1364 580 
Q 1569 -128 1984 -844 
L 1484 -844 
Q 1016 -109 783 600 
Q 550 1309 550 2009 
Q 550 2706 781 3412 
Q 1013 4119 1484 4856 
L 1984 4856 
z
" transform="scale(0.015625)"/>
       <path id="DejaVuSans-71" d="M 947 1747 
Q 947 1113 1208 752 
Q 1469 391 1925 391 
Q 2381 391 2643 752 
Q 2906 1113 2906 1747 
Q 2906 2381 2643 2742 
Q 2381 3103 1925 3103 
Q 1469 3103 1208 2742 
Q 947 2381 947 1747 
z
M 2906 525 
Q 2725 213 2448 61 
Q 2172 -91 1784 -91 
Q 1150 -91 751 415 
Q 353 922 353 1747 
Q 353 2572 751 3078 
Q 1150 3584 1784 3584 
Q 2172 3584 2448 3432 
Q 2725 3281 2906 2969 
L 2906 3500 
L 3481 3500 
L 3481 -1331 
L 2906 -1331 
L 2906 525 
z
" transform="scale(0.015625)"/>
       <path id="DejaVuSans-66" d="M 2375 4863 
L 2375 4384 
L 1825 4384 
Q 1516 4384 1395 4259 
Q 1275 4134 1275 3809 
L 1275 3500 
L 2222 3500 
L 2222 3053 
L 1275 3053 
L 1275 0 
L 697 0 
L 697 3053 
L 147 3053 
L 147 3500 
L 697 3500 
L 697 3744 
Q 697 4328 969 4595 
Q 1241 4863 1831 4863 
L 2375 4863 
z
" transform="scale(0.015625)"/>
       <path id="DejaVuSans-74" d="M 1172 4494 
L 1172 3500 
L 2356 3500 
L 2356 3053 
L 1172 3053 
L 1172 1153 
Q 1172 725 1289 603 
Q 1406 481 1766 481 
L 2356 481 
L 2356 0 
L 1766 0 
Q 1100 0 847 248 
Q 594 497 594 1153 
L 594 3053 
L 172 3053 
L 172 3500 
L 594 3500 
L 594 4494 
L 1172 4494 
z
" transform="scale(0.015625)"/>
       <path id="DejaVuSans-29" d="M 513 4856 
L 1013 4856 
Q 1481 4119 1714 3412 
Q 1947 2706 1947 2009 
Q 1947 1309 1714 600 
Q 1481 -109 1013 -844 
L 513 -844 
Q 928 -128 1133 580 
Q 1338 1288 1338 2009 
Q 1338 2731 1133 3434 
Q 928 4138 513 4856 
z
" transform="scale(0.015625)"/>
      </defs>
      <use xlink:href="#DejaVuSans-48"/>
      <use xlink:href="#DejaVuSans-6f" x="75.195312"/>
      <use xlink:href="#DejaVuSans-75" x="136.376953"/>
      <use xlink:href="#DejaVuSans-73" x="199.755859"/>
      <use xlink:href="#DejaVuSans-65" x="251.855469"/>
      <use xlink:href="#DejaVuSans-20" x="313.378906"/>
      <use xlink:href="#DejaVuSans-53" x="345.166016"/>
      <use xlink:href="#DejaVuSans-69" x="408.642578"/>
      <use xlink:href="#DejaVuSans-7a" x="436.425781"/>
      <use xlink:href="#DejaVuSans-65" x="488.916016"/>
      <use xlink:href="#DejaVuSans-20" x="550.439453"/>
      <use xlink:href="#DejaVuSans-28" x="582.226562"/>
      <use xlink:href="#DejaVuSans-73" x="621.240234"/>
      <use xlink:href="#DejaVuSans-71" x="673.339844"/>
      <use xlink:href="#DejaVuSans-66" x="736.816406"/>
      <use xlink:href="#DejaVuSans-74" x="770.271484"/>
      <use xlink:href="#DejaVuSans-29" x="809.480469"/>
     </g>
    </g>
   </g>
   <g id="matplotlib.axis_2">
    <g id="ytick_1">
     <g id="line2d_7">
      <defs>
       <path id="mfcfad12b9e" d="M 0 0 
L -3.5 0 
" style="stroke: #000000; stroke-width: 0.8"/>
      </defs>
      <g>
       <use xlink:href="#mfcfad12b9e" x="66.053125" y="266.172041" style="stroke: #000000; stroke-width: 0.8"/>
      </g>
     </g>
     <g id="text_8">
      <!-- 100000 -->
      <g transform="translate(20.878125 269.971259) scale(0.1 -0.1)">
       <use xlink:href="#DejaVuSans-31"/>
       <use xlink:href="#DejaVuSans-30" x="63.623047"/>
       <use xlink:href="#DejaVuSans-30" x="127.246094"/>
       <use xlink:href="#DejaVuSans-30" x="190.869141"/>
       <use xlink:href="#DejaVuSans-30" x="254.492188"/>
       <use xlink:href="#DejaVuSans-30" x="318.115234"/>
      </g>
     </g>
    </g>
    <g id="ytick_2">
     <g id="line2d_8">
      <g>
       <use xlink:href="#mfcfad12b9e" x="66.053125" y="225.91176" style="stroke: #000000; stroke-width: 0.8"/>
      </g>
     </g>
     <g id="text_9">
      <!-- 120000 -->
      <g transform="translate(20.878125 229.710979) scale(0.1 -0.1)">
       <use xlink:href="#DejaVuSans-31"/>
       <use xlink:href="#DejaVuSans-32" x="63.623047"/>
       <use xlink:href="#DejaVuSans-30" x="127.246094"/>
       <use xlink:href="#DejaVuSans-30" x="190.869141"/>
       <use xlink:href="#DejaVuSans-30" x="254.492188"/>
       <use xlink:href="#DejaVuSans-30" x="318.115234"/>
      </g>
     </g>
    </g>
    <g id="ytick_3">
     <g id="line2d_9">
      <g>
       <use xlink:href="#mfcfad12b9e" x="66.053125" y="185.651479" style="stroke: #000000; stroke-width: 0.8"/>
      </g>
     </g>
     <g id="text_10">
      <!-- 140000 -->
      <g transform="translate(20.878125 189.450698) scale(0.1 -0.1)">
       <use xlink:href="#DejaVuSans-31"/>
       <use xlink:href="#DejaVuSans-34" x="63.623047"/>
       <use xlink:href="#DejaVuSans-30" x="127.246094"/>
       <use xlink:href="#DejaVuSans-30" x="190.869141"/>
       <use xlink:href="#DejaVuSans-30" x="254.492188"/>
       <use xlink:href="#DejaVuSans-30" x="318.115234"/>
      </g>
     </g>
    </g>
    <g id="ytick_4">
     <g id="line2d_10">
      <g>
       <use xlink:href="#mfcfad12b9e" x="66.053125" y="145.391199" style="stroke: #000000; stroke-width: 0.8"/>
      </g>
     </g>
     <g id="text_11">
      <!-- 160000 -->
      <g transform="translate(20.878125 149.190418) scale(0.1 -0.1)">
       <use xlink:href="#DejaVuSans-31"/>
       <use xlink:href="#DejaVuSans-36" x="63.623047"/>
       <use xlink:href="#DejaVuSans-30" x="127.246094"/>
       <use xlink:href="#DejaVuSans-30" x="190.869141"/>
       <use xlink:href="#DejaVuSans-30" x="254.492188"/>
       <use xlink:href="#DejaVuSans-30" x="318.115234"/>
      </g>
     </g>
    </g>
    <g id="ytick_5">
     <g id="line2d_11">
      <g>
       <use xlink:href="#mfcfad12b9e" x="66.053125" y="105.130918" style="stroke: #000000; stroke-width: 0.8"/>
      </g>
     </g>
     <g id="text_12">
      <!-- 180000 -->
      <g transform="translate(20.878125 108.930137) scale(0.1 -0.1)">
       <use xlink:href="#DejaVuSans-31"/>
       <use xlink:href="#DejaVuSans-38" x="63.623047"/>
       <use xlink:href="#DejaVuSans-30" x="127.246094"/>
       <use xlink:href="#DejaVuSans-30" x="190.869141"/>
       <use xlink:href="#DejaVuSans-30" x="254.492188"/>
       <use xlink:href="#DejaVuSans-30" x="318.115234"/>
      </g>
     </g>
    </g>
    <g id="ytick_6">
     <g id="line2d_12">
      <g>
       <use xlink:href="#mfcfad12b9e" x="66.053125" y="64.870638" style="stroke: #000000; stroke-width: 0.8"/>
      </g>
     </g>
     <g id="text_13">
      <!-- 200000 -->
      <g transform="translate(20.878125 68.669856) scale(0.1 -0.1)">
       <use xlink:href="#DejaVuSans-32"/>
       <use xlink:href="#DejaVuSans-30" x="63.623047"/>
       <use xlink:href="#DejaVuSans-30" x="127.246094"/>
       <use xlink:href="#DejaVuSans-30" x="190.869141"/>
       <use xlink:href="#DejaVuSans-30" x="254.492188"/>
       <use xlink:href="#DejaVuSans-30" x="318.115234"/>
      </g>
     </g>
    </g>
    <g id="ytick_7">
     <g id="line2d_13">
      <g>
       <use xlink:href="#mfcfad12b9e" x="66.053125" y="24.610357" style="stroke: #000000; stroke-width: 0.8"/>
      </g>
     </g>
     <g id="text_14">
      <!-- 220000 -->
      <g transform="translate(20.878125 28.409576) scale(0.1 -0.1)">
       <use xlink:href="#DejaVuSans-32"/>
       <use xlink:href="#DejaVuSans-32" x="63.623047"/>
       <use xlink:href="#DejaVuSans-30" x="127.246094"/>
       <use xlink:href="#DejaVuSans-30" x="190.869141"/>
       <use xlink:href="#DejaVuSans-30" x="254.492188"/>
       <use xlink:href="#DejaVuSans-30" x="318.115234"/>
      </g>
     </g>
    </g>
    <g id="text_15">
     <!-- Price ($) -->
     <g transform="translate(14.798438 161.125531) rotate(-90) scale(0.1 -0.1)">
      <defs>
       <path id="DejaVuSans-50" d="M 1259 4147 
L 1259 2394 
L 2053 2394 
Q 2494 2394 2734 2622 
Q 2975 2850 2975 3272 
Q 2975 3691 2734 3919 
Q 2494 4147 2053 4147 
L 1259 4147 
z
M 628 4666 
L 2053 4666 
Q 2838 4666 3239 4311 
Q 3641 3956 3641 3272 
Q 3641 2581 3239 2228 
Q 2838 1875 2053 1875 
L 1259 1875 
L 1259 0 
L 628 0 
L 628 4666 
z
" transform="scale(0.015625)"/>
       <path id="DejaVuSans-72" d="M 2631 2963 
Q 2534 3019 2420 3045 
Q 2306 3072 2169 3072 
Q 1681 3072 1420 2755 
Q 1159 2438 1159 1844 
L 1159 0 
L 581 0 
L 581 3500 
L 1159 3500 
L 1159 2956 
Q 1341 3275 1631 3429 
Q 1922 3584 2338 3584 
Q 2397 3584 2469 3576 
Q 2541 3569 2628 3553 
L 2631 2963 
z
" transform="scale(0.015625)"/>
       <path id="DejaVuSans-63" d="M 3122 3366 
L 3122 2828 
Q 2878 2963 2633 3030 
Q 2388 3097 2138 3097 
Q 1578 3097 1268 2742 
Q 959 2388 959 1747 
Q 959 1106 1268 751 
Q 1578 397 2138 397 
Q 2388 397 2633 464 
Q 2878 531 3122 666 
L 3122 134 
Q 2881 22 2623 -34 
Q 2366 -91 2075 -91 
Q 1284 -91 818 406 
Q 353 903 353 1747 
Q 353 2603 823 3093 
Q 1294 3584 2113 3584 
Q 2378 3584 2631 3529 
Q 2884 3475 3122 3366 
z
" transform="scale(0.015625)"/>
       <path id="DejaVuSans-24" d="M 2163 -941 
L 1850 -941 
L 1847 0 
Q 1519 6 1191 76 
Q 863 147 531 288 
L 531 850 
Q 850 650 1176 548 
Q 1503 447 1850 444 
L 1850 1869 
Q 1159 1981 845 2250 
Q 531 2519 531 2988 
Q 531 3497 872 3790 
Q 1213 4084 1850 4128 
L 1850 4863 
L 2163 4863 
L 2163 4138 
Q 2453 4125 2725 4076 
Q 2997 4028 3256 3944 
L 3256 3397 
Q 2997 3528 2723 3600 
Q 2450 3672 2163 3684 
L 2163 2350 
Q 2872 2241 3206 1959 
Q 3541 1678 3541 1191 
Q 3541 663 3186 358 
Q 2831 53 2163 6 
L 2163 -941 
z
M 1850 2406 
L 1850 3688 
Q 1488 3647 1297 3481 
Q 1106 3316 1106 3041 
Q 1106 2772 1282 2622 
Q 1459 2472 1850 2406 
z
M 2163 1806 
L 2163 453 
Q 2559 506 2761 678 
Q 2963 850 2963 1131 
Q 2963 1406 2770 1568 
Q 2578 1731 2163 1806 
z
" transform="scale(0.015625)"/>
      </defs>
      <use xlink:href="#DejaVuSans-50"/>
      <use xlink:href="#DejaVuSans-72" x="58.552734"/>
      <use xlink:href="#DejaVuSans-69" x="99.666016"/>
      <use xlink:href="#DejaVuSans-63" x="127.449219"/>
      <use xlink:href="#DejaVuSans-65" x="182.429688"/>
      <use xlink:href="#DejaVuSans-20" x="243.953125"/>
      <use xlink:href="#DejaVuSans-28" x="275.740234"/>
      <use xlink:href="#DejaVuSans-24" x="314.753906"/>
      <use xlink:href="#DejaVuSans-29" x="378.376953"/>
     </g>
    </g>
   </g>
   <g id="line2d_14">
    <path d="M 82.285852 235.211412 
L 85.598654 233.275488 
L 88.911455 231.339565 
L 95.537058 227.467718 
L 98.84986 225.531794 
L 102.162661 223.59587 
L 105.475463 221.659947 
L 122.03947 211.980329 
L 125.352272 210.044405 
L 135.290676 204.236634 
L 145.22908 198.428864 
L 148.541882 196.49294 
L 155.167485 192.621093 
L 175.044294 181.005551 
L 184.982698 175.19778 
L 188.2955 173.261857 
L 191.608301 171.325933 
L 194.921103 169.390009 
L 201.546706 165.518162 
L 204.859507 163.582239 
L 208.172309 161.646315 
L 214.797912 157.774468 
L 221.423515 153.902621 
L 231.361919 148.09485 
L 234.674721 146.158926 
L 237.987522 144.223003 
L 241.300324 142.287079 
L 244.613125 140.351155 
L 247.925926 138.415232 
L 251.238728 136.479308 
L 254.551529 134.543385 
L 257.864331 132.607461 
L 267.802735 126.79969 
L 271.115537 124.863767 
L 274.428338 122.927843 
L 277.74114 120.991919 
L 281.053941 119.055996 
L 284.366743 117.120072 
L 287.679544 115.184149 
L 310.869155 101.632683 
L 314.181956 99.69676 
L 317.494758 97.760836 
L 320.807559 95.824913 
L 324.120361 93.888989 
L 327.433162 91.953065 
L 334.058765 88.081218 
L 340.684368 84.209371 
L 343.99717 82.273447 
L 347.309971 80.337524 
L 350.622772 78.4016 
L 353.935574 76.465677 
L 357.248375 74.529753 
L 363.873978 70.657906 
L 367.18678 68.721982 
L 370.499581 66.786059 
L 373.812383 64.850135 
L 377.125184 62.914211 
L 380.437986 60.978288 
L 383.750787 59.042364 
L 390.37639 55.170517 
L 406.940398 45.490899 
" clip-path="url(#p34f0abdcf2)" style="fill: none; stroke: #ff0000; stroke-width: 1.5; stroke-linecap: square"/>
   </g>
   <g id="patch_3">
    <path d="M 66.053125 273.312 
L 66.053125 7.2 
" style="fill: none; stroke: #000000; stroke-width: 0.8; stroke-linejoin: miter; stroke-linecap: square"/>
   </g>
   <g id="patch_4">
    <path d="M 423.173125 273.312 
L 423.173125 7.2 
" style="fill: none; stroke: #000000; stroke-width: 0.8; stroke-linejoin: miter; stroke-linecap: square"/>
   </g>
   <g id="patch_5">
    <path d="M 66.053125 273.312 
L 423.173125 273.312 
" style="fill: none; stroke: #000000; stroke-width: 0.8; stroke-linejoin: miter; stroke-linecap: square"/>
   </g>
   <g id="patch_6">
    <path d="M 66.053125 7.2 
L 423.173125 7.2 
" style="fill: none; stroke: #000000; stroke-width: 0.8; stroke-linejoin: miter; stroke-linecap: square"/>
   </g>
  </g>
 </g>
 <defs>
  <clipPath id="p34f0abdcf2">
   <rect x="66.053125" y="7.2" width="357.12" height="266.112"/>
  </clipPath>
 </defs>
</svg>