<?xml version="1.0" encoding="utf-8" standalone="no"?>
<!DOCTYPE svg PUBLIC "-//W3C//DTD SVG 1.1//EN"
  "http://www.w3.org/Graphics/SVG/1.1/DTD/svg11.dtd">
<svg xmlns:xlink="http://www.w3.org/1999/xlink" width="408.10125pt" height="325.986375pt" viewBox="0 0 408.10125 325.986375" xmlns="http://www.w3.org/2000/svg" version="1.1">
 <metadata>
  <rdf:RDF xmlns:dc="http://purl.org/dc/elements/1.1/" xmlns:cc="http://creativecommons.org/ns#" xmlns:rdf="http://www.w3.org/1999/02/22-rdf-syntax-ns#">
   <cc:Work>
    <dc:type rdf:resource="http://purl.org/dc/dcmitype/StillImage"/>
    <dc:date>2024-10-27T08:34:14.225528</dc:date>
    <dc:format>image/svg+xml</dc:format>
    <dc:creator>
     <cc:Agent>
      <dc:title>Matplotlib v3.9.0, https://matplotlib.org/</dc:title>
     </cc:Agent>
    </dc:creator>
   </cc:Work>
  </rdf:RDF>
 </metadata>
 <defs>
  <style type="text/css">*{stroke-linejoin: round; stroke-linecap: butt}</style>
 </defs>
 <g id="figure_1">
  <g id="patch_1">
   <path d="M 0 325.986375 
L 408.10125 325.986375 
L 408.10125 0 
L 0 0 
z
" style="fill: #ffffff"/>
  </g>
  <g id="axes_1">
   <g id="patch_2">
    <path d="M 43.78125 288.430125 
L 400.90125 288.430125 
L 400.90125 22.318125 
L 43.78125 22.318125 
z
" style="fill: #ffffff"/>
   </g>
   <g id="PathCollection_1">
    <defs>
     <path id="m0f27efea30" d="M 0 3 
C 0.795609 3 1.55874 2.683901 2.12132 2.12132 
C 2.683901 1.55874 3 0.795609 3 0 
C 3 -0.795609 2.683901 -1.55874 2.12132 -2.12132 
C 1.55874 -2.683901 0.795609 -3 0 -3 
C -0.795609 -3 -1.55874 -2.683901 -2.12132 -2.12132 
C -2.683901 -1.55874 -3 -0.795609 -3 0 
C -3 0.795609 -2.683901 1.55874 -2.12132 2.12132 
C -1.55874 2.683901 -0.795609 3 0 3 
z
" style="stroke: #1f77b4"/>
    </defs>
    <g clip-path="url(#p62e4c8a86a)">
     <use xlink:href="#m0f27efea30" x="182.0923" y="186.882807" style="fill: #1f77b4; stroke: #1f77b4"/>
     <use xlink:href="#m0f27efea30" x="372.701914" y="55.670711" style="fill: #1f77b4; stroke: #1f77b4"/>
     <use xlink:href="#m0f27efea30" x="300.344969" y="102.602694" style="fill: #1f77b4; stroke: #1f77b4"/>
     <use xlink:href="#m0f27efea30" x="256.235009" y="158.516647" style="fill: #1f77b4; stroke: #1f77b4"/>
     <use xlink:href="#m0f27efea30" x="109.801151" y="241.98515" style="fill: #1f77b4; stroke: #1f77b4"/>
     <use xlink:href="#m0f27efea30" x="109.793171" y="235.19563" style="fill: #1f77b4; stroke: #1f77b4"/>
     <use xlink:href="#m0f27efea30" x="77.402341" y="245.061625" style="fill: #1f77b4; stroke: #1f77b4"/>
     <use xlink:href="#m0f27efea30" x="344.735048" y="78.173079" style="fill: #1f77b4; stroke: #1f77b4"/>
     <use xlink:href="#m0f27efea30" x="257.047676" y="144.046929" style="fill: #1f77b4; stroke: #1f77b4"/>
     <use xlink:href="#m0f27efea30" x="292.431317" y="115.231476" style="fill: #1f77b4; stroke: #1f77b4"/>
     <use xlink:href="#m0f27efea30" x="64.996904" y="260.524125" style="fill: #1f77b4; stroke: #1f77b4"/>
     <use xlink:href="#m0f27efea30" x="379.052173" y="43.752049" style="fill: #1f77b4; stroke: #1f77b4"/>
     <use xlink:href="#m0f27efea30" x="333.57535" y="86.256856" style="fill: #1f77b4; stroke: #1f77b4"/>
     <use xlink:href="#m0f27efea30" x="128.433056" y="220.079822" style="fill: #1f77b4; stroke: #1f77b4"/>
     <use xlink:href="#m0f27efea30" x="118.338385" y="232.172886" style="fill: #1f77b4; stroke: #1f77b4"/>
     <use xlink:href="#m0f27efea30" x="118.860928" y="221.532613" style="fill: #1f77b4; stroke: #1f77b4"/>
     <use xlink:href="#m0f27efea30" x="158.836398" y="212.743183" style="fill: #1f77b4; stroke: #1f77b4"/>
     <use xlink:href="#m0f27efea30" x="231.786775" y="156.374054" style="fill: #1f77b4; stroke: #1f77b4"/>
     <use xlink:href="#m0f27efea30" x="201.082956" y="179.001869" style="fill: #1f77b4; stroke: #1f77b4"/>
     <use xlink:href="#m0f27efea30" x="154.53141" y="224.7803" style="fill: #1f77b4; stroke: #1f77b4"/>
     <use xlink:href="#m0f27efea30" x="260.599977" y="128.503171" style="fill: #1f77b4; stroke: #1f77b4"/>
     <use xlink:href="#m0f27efea30" x="104.334432" y="240.215245" style="fill: #1f77b4; stroke: #1f77b4"/>
     <use xlink:href="#m0f27efea30" x="154.834278" y="207.262404" style="fill: #1f77b4; stroke: #1f77b4"/>
     <use xlink:href="#m0f27efea30" x="179.386768" y="192.599033" style="fill: #1f77b4; stroke: #1f77b4"/>
     <use xlink:href="#m0f27efea30" x="209.063964" y="185.372701" style="fill: #1f77b4; stroke: #1f77b4"/>
     <use xlink:href="#m0f27efea30" x="317.938614" y="96.108502" style="fill: #1f77b4; stroke: #1f77b4"/>
     <use xlink:href="#m0f27efea30" x="124.243119" y="233.148554" style="fill: #1f77b4; stroke: #1f77b4"/>
     <use xlink:href="#m0f27efea30" x="228.305895" y="164.444812" style="fill: #1f77b4; stroke: #1f77b4"/>
     <use xlink:href="#m0f27efea30" x="254.169401" y="138.472085" style="fill: #1f77b4; stroke: #1f77b4"/>
     <use xlink:href="#m0f27efea30" x="73.553852" y="260.453826" style="fill: #1f77b4; stroke: #1f77b4"/>
     <use xlink:href="#m0f27efea30" x="259.174792" y="110.785394" style="fill: #1f77b4; stroke: #1f77b4"/>
     <use xlink:href="#m0f27efea30" x="114.599846" y="233.922587" style="fill: #1f77b4; stroke: #1f77b4"/>
     <use xlink:href="#m0f27efea30" x="79.707484" y="257.796896" style="fill: #1f77b4; stroke: #1f77b4"/>
     <use xlink:href="#m0f27efea30" x="372.096922" y="53.456013" style="fill: #1f77b4; stroke: #1f77b4"/>
     <use xlink:href="#m0f27efea30" x="377.636988" y="71.238477" style="fill: #1f77b4; stroke: #1f77b4"/>
     <use xlink:href="#m0f27efea30" x="325.6207" y="85.993659" style="fill: #1f77b4; stroke: #1f77b4"/>
     <use xlink:href="#m0f27efea30" x="158.959306" y="203.675044" style="fill: #1f77b4; stroke: #1f77b4"/>
     <use xlink:href="#m0f27efea30" x="90.498986" y="224.125071" style="fill: #1f77b4; stroke: #1f77b4"/>
     <use xlink:href="#m0f27efea30" x="284.54473" y="117.203586" style="fill: #1f77b4; stroke: #1f77b4"/>
     <use xlink:href="#m0f27efea30" x="203.798149" y="168.895912" style="fill: #1f77b4; stroke: #1f77b4"/>
     <use xlink:href="#m0f27efea30" x="98.559772" y="247.812689" style="fill: #1f77b4; stroke: #1f77b4"/>
     <use xlink:href="#m0f27efea30" x="222.001294" y="173.251851" style="fill: #1f77b4; stroke: #1f77b4"/>
     <use xlink:href="#m0f27efea30" x="69.563544" y="254.592285" style="fill: #1f77b4; stroke: #1f77b4"/>
     <use xlink:href="#m0f27efea30" x="359.008006" y="53.042774" style="fill: #1f77b4; stroke: #1f77b4"/>
     <use xlink:href="#m0f27efea30" x="143.796598" y="205.86486" style="fill: #1f77b4; stroke: #1f77b4"/>
     <use xlink:href="#m0f27efea30" x="277.362395" y="130.766571" style="fill: #1f77b4; stroke: #1f77b4"/>
     <use xlink:href="#m0f27efea30" x="161.307233" y="186.185757" style="fill: #1f77b4; stroke: #1f77b4"/>
     <use xlink:href="#m0f27efea30" x="230.235757" y="170.133971" style="fill: #1f77b4; stroke: #1f77b4"/>
     <use xlink:href="#m0f27efea30" x="239.049534" y="140.427089" style="fill: #1f77b4; stroke: #1f77b4"/>
     <use xlink:href="#m0f27efea30" x="119.340598" y="206.796596" style="fill: #1f77b4; stroke: #1f77b4"/>
     <use xlink:href="#m0f27efea30" x="378.944583" y="59.371447" style="fill: #1f77b4; stroke: #1f77b4"/>
     <use xlink:href="#m0f27efea30" x="314.616149" y="100.190861" style="fill: #1f77b4; stroke: #1f77b4"/>
     <use xlink:href="#m0f27efea30" x="368.991653" y="53.616645" style="fill: #1f77b4; stroke: #1f77b4"/>
     <use xlink:href="#m0f27efea30" x="354.213423" y="71.247879" style="fill: #1f77b4; stroke: #1f77b4"/>
     <use xlink:href="#m0f27efea30" x="255.984081" y="153.548106" style="fill: #1f77b4; stroke: #1f77b4"/>
     <use xlink:href="#m0f27efea30" x="363.161058" y="58.135701" style="fill: #1f77b4; stroke: #1f77b4"/>
     <use xlink:href="#m0f27efea30" x="87.462192" y="267.823106" style="fill: #1f77b4; stroke: #1f77b4"/>
     <use xlink:href="#m0f27efea30" x="123.022092" y="224.40116" style="fill: #1f77b4; stroke: #1f77b4"/>
     <use xlink:href="#m0f27efea30" x="73.149219" y="276.334125" style="fill: #1f77b4; stroke: #1f77b4"/>
     <use xlink:href="#m0f27efea30" x="165.812747" y="181.243254" style="fill: #1f77b4; stroke: #1f77b4"/>
     <use xlink:href="#m0f27efea30" x="186.769151" y="193.804923" style="fill: #1f77b4; stroke: #1f77b4"/>
     <use xlink:href="#m0f27efea30" x="147.954684" y="216.016852" style="fill: #1f77b4; stroke: #1f77b4"/>
     <use xlink:href="#m0f27efea30" x="332.34962" y="71.304476" style="fill: #1f77b4; stroke: #1f77b4"/>
     <use xlink:href="#m0f27efea30" x="176.208084" y="206.600351" style="fill: #1f77b4; stroke: #1f77b4"/>
     <use xlink:href="#m0f27efea30" x="151.125747" y="207.284274" style="fill: #1f77b4; stroke: #1f77b4"/>
     <use xlink:href="#m0f27efea30" x="237.72156" y="132.887112" style="fill: #1f77b4; stroke: #1f77b4"/>
     <use xlink:href="#m0f27efea30" x="104.807625" y="261.891811" style="fill: #1f77b4; stroke: #1f77b4"/>
     <use xlink:href="#m0f27efea30" x="323.569498" y="84.967042" style="fill: #1f77b4; stroke: #1f77b4"/>
     <use xlink:href="#m0f27efea30" x="82.849955" y="255.531217" style="fill: #1f77b4; stroke: #1f77b4"/>
     <use xlink:href="#m0f27efea30" x="384.668523" y="34.414125" style="fill: #1f77b4; stroke: #1f77b4"/>
     <use xlink:href="#m0f27efea30" x="313.660724" y="108.77244" style="fill: #1f77b4; stroke: #1f77b4"/>
     <use xlink:href="#m0f27efea30" x="123.926161" y="244.893264" style="fill: #1f77b4; stroke: #1f77b4"/>
     <use xlink:href="#m0f27efea30" x="60.013977" y="268.708609" style="fill: #1f77b4; stroke: #1f77b4"/>
     <use xlink:href="#m0f27efea30" x="327.957635" y="80.517999" style="fill: #1f77b4; stroke: #1f77b4"/>
     <use xlink:href="#m0f27efea30" x="292.029294" y="106.65542" style="fill: #1f77b4; stroke: #1f77b4"/>
     <use xlink:href="#m0f27efea30" x="299.356886" y="100.30593" style="fill: #1f77b4; stroke: #1f77b4"/>
     <use xlink:href="#m0f27efea30" x="313.338366" y="102.44079" style="fill: #1f77b4; stroke: #1f77b4"/>
     <use xlink:href="#m0f27efea30" x="82.682563" y="255.975944" style="fill: #1f77b4; stroke: #1f77b4"/>
     <use xlink:href="#m0f27efea30" x="176.77458" y="188.24309" style="fill: #1f77b4; stroke: #1f77b4"/>
     <use xlink:href="#m0f27efea30" x="96.518889" y="257.273252" style="fill: #1f77b4; stroke: #1f77b4"/>
     <use xlink:href="#m0f27efea30" x="343.718533" y="50.810216" style="fill: #1f77b4; stroke: #1f77b4"/>
     <use xlink:href="#m0f27efea30" x="264.386282" y="123.712738" style="fill: #1f77b4; stroke: #1f77b4"/>
     <use xlink:href="#m0f27efea30" x="167.654648" y="212.226399" style="fill: #1f77b4; stroke: #1f77b4"/>
     <use xlink:href="#m0f27efea30" x="79.213491" y="253.448009" style="fill: #1f77b4; stroke: #1f77b4"/>
     <use xlink:href="#m0f27efea30" x="161.066147" y="214.366948" style="fill: #1f77b4; stroke: #1f77b4"/>
     <use xlink:href="#m0f27efea30" x="165.764113" y="190.265166" style="fill: #1f77b4; stroke: #1f77b4"/>
     <use xlink:href="#m0f27efea30" x="299.55505" y="90.596732" style="fill: #1f77b4; stroke: #1f77b4"/>
     <use xlink:href="#m0f27efea30" x="269.10355" y="135.603821" style="fill: #1f77b4; stroke: #1f77b4"/>
     <use xlink:href="#m0f27efea30" x="351.694363" y="55.760812" style="fill: #1f77b4; stroke: #1f77b4"/>
     <use xlink:href="#m0f27efea30" x="214.405024" y="160.030781" style="fill: #1f77b4; stroke: #1f77b4"/>
     <use xlink:href="#m0f27efea30" x="97.751253" y="238.294763" style="fill: #1f77b4; stroke: #1f77b4"/>
     <use xlink:href="#m0f27efea30" x="294.142384" y="85.755024" style="fill: #1f77b4; stroke: #1f77b4"/>
     <use xlink:href="#m0f27efea30" x="309.869626" y="99.790841" style="fill: #1f77b4; stroke: #1f77b4"/>
     <use xlink:href="#m0f27efea30" x="243.868554" y="152.788553" style="fill: #1f77b4; stroke: #1f77b4"/>
     <use xlink:href="#m0f27efea30" x="313.238073" y="104.98026" style="fill: #1f77b4; stroke: #1f77b4"/>
     <use xlink:href="#m0f27efea30" x="221.544329" y="169.420122" style="fill: #1f77b4; stroke: #1f77b4"/>
     <use xlink:href="#m0f27efea30" x="231.117328" y="153.898964" style="fill: #1f77b4; stroke: #1f77b4"/>
     <use xlink:href="#m0f27efea30" x="199.626028" y="171.400884" style="fill: #1f77b4; stroke: #1f77b4"/>
     <use xlink:href="#m0f27efea30" x="66.596295" y="266.909746" style="fill: #1f77b4; stroke: #1f77b4"/>
     <use xlink:href="#m0f27efea30" x="93.879734" y="240.991868" style="fill: #1f77b4; stroke: #1f77b4"/>
    </g>
   </g>
   <g id="matplotlib.axis_1">
    <g id="xtick_1">
     <g id="line2d_1">
      <defs>
       <path id="m9b5de14e45" d="M 0 0 
L 0 3.5 
" style="stroke: #000000; stroke-width: 0.8"/>
      </defs>
      <g>
       <use xlink:href="#m9b5de14e45" x="58.187154" y="288.430125" style="stroke: #000000; stroke-width: 0.8"/>
      </g>
     </g>
     <g id="text_1">
      <!-- 0.0 -->
      <g transform="translate(50.235591 303.028562) scale(0.1 -0.1)">
       <defs>
        <path id="DejaVuSans-30" d="M 2034 4250 
Q 1547 4250 1301 3770 
Q 1056 3291 1056 2328 
Q 1056 1369 1301 889 
Q 1547 409 2034 409 
Q 2525 409 2770 889 
Q 3016 1369 3016 2328 
Q 3016 3291 2770 3770 
Q 2525 4250 2034 4250 
z
M 2034 4750 
Q 2819 4750 3233 4129 
Q 3647 3509 3647 2328 
Q 3647 1150 3233 529 
Q 2819 -91 2034 -91 
Q 1250 -91 836 529 
Q 422 1150 422 2328 
Q 422 3509 836 4129 
Q 1250 4750 2034 4750 
z
" transform="scale(0.015625)"/>
        <path id="DejaVuSans-2e" d="M 684 794 
L 1344 794 
L 1344 0 
L 684 0 
L 684 794 
z
" transform="scale(0.015625)"/>
       </defs>
       <use xlink:href="#DejaVuSans-30"/>
       <use xlink:href="#DejaVuSans-2e" x="63.623047"/>
       <use xlink:href="#DejaVuSans-30" x="95.410156"/>
      </g>
     </g>
    </g>
    <g id="xtick_2">
     <g id="line2d_2">
      <g>
       <use xlink:href="#m9b5de14e45" x="124.351039" y="288.430125" style="stroke: #000000; stroke-width: 0.8"/>
      </g>
     </g>
     <g id="text_2">
      <!-- 0.2 -->
      <g transform="translate(116.399476 303.028562) scale(0.1 -0.1)">
       <defs>
        <path id="DejaVuSans-32" d="M 1228 531 
L 3431 531 
L 3431 0 
L 469 0 
L 469 531 
Q 828 903 1448 1529 
Q 2069 2156 2228 2338 
Q 2531 2678 2651 2914 
Q 2772 3150 2772 3378 
Q 2772 3750 2511 3984 
Q 2250 4219 1831 4219 
Q 1534 4219 1204 4116 
Q 875 4013 500 3803 
L 500 4441 
Q 881 4594 1212 4672 
Q 1544 4750 1819 4750 
Q 2544 4750 2975 4387 
Q 3406 4025 3406 3419 
Q 3406 3131 3298 2873 
Q 3191 2616 2906 2266 
Q 2828 2175 2409 1742 
Q 1991 1309 1228 531 
z
" transform="scale(0.015625)"/>
       </defs>
       <use xlink:href="#DejaVuSans-30"/>
       <use xlink:href="#DejaVuSans-2e" x="63.623047"/>
       <use xlink:href="#DejaVuSans-32" x="95.410156"/>
      </g>
     </g>
    </g>
    <g id="xtick_3">
     <g id="line2d_3">
      <g>
       <use xlink:href="#m9b5de14e45" x="190.514924" y="288.430125" style="stroke: #000000; stroke-width: 0.8"/>
      </g>
     </g>
     <g id="text_3">
      <!-- 0.4 -->
      <g transform="translate(182.563361 303.028562) scale(0.1 -0.1)">
       <defs>
        <path id="DejaVuSans-34" d="M 2419 4116 
L 825 1625 
L 2419 1625 
L 2419 4116 
z
M 2253 4666 
L 3047 4666 
L 3047 1625 
L 3713 1625 
L 3713 1100 
L 3047 1100 
L 3047 0 
L 2419 0 
L 2419 1100 
L 313 1100 
L 313 1709 
L 2253 4666 
z
" transform="scale(0.015625)"/>
       </defs>
       <use xlink:href="#DejaVuSans-30"/>
       <use xlink:href="#DejaVuSans-2e" x="63.623047"/>
       <use xlink:href="#DejaVuSans-34" x="95.410156"/>
      </g>
     </g>
    </g>
    <g id="xtick_4">
     <g id="line2d_4">
      <g>
       <use xlink:href="#m9b5de14e45" x="256.678809" y="288.430125" style="stroke: #000000; stroke-width: 0.8"/>
      </g>
     </g>
     <g id="text_4">
      <!-- 0.6 -->
      <g transform="translate(248.727246 303.028562) scale(0.1 -0.1)">
       <defs>
        <path id="DejaVuSans-36" d="M 2113 2584 
Q 1688 2584 1439 2293 
Q 1191 2003 1191 1497 
Q 1191 994 1439 701 
Q 1688 409 2113 409 
Q 2538 409 2786 701 
Q 3034 994 3034 1497 
Q 3034 2003 2786 2293 
Q 2538 2584 2113 2584 
z
M 3366 4563 
L 3366 3988 
Q 3128 4100 2886 4159 
Q 2644 4219 2406 4219 
Q 1781 4219 1451 3797 
Q 1122 3375 1075 2522 
Q 1259 2794 1537 2939 
Q 1816 3084 2150 3084 
Q 2853 3084 3261 2657 
Q 3669 2231 3669 1497 
Q 3669 778 3244 343 
Q 2819 -91 2113 -91 
Q 1303 -91 875 529 
Q 447 1150 447 2328 
Q 447 3434 972 4092 
Q 1497 4750 2381 4750 
Q 2619 4750 2861 4703 
Q 3103 4656 3366 4563 
z
" transform="scale(0.015625)"/>
       </defs>
       <use xlink:href="#DejaVuSans-30"/>
       <use xlink:href="#DejaVuSans-2e" x="63.623047"/>
       <use xlink:href="#DejaVuSans-36" x="95.410156"/>
      </g>
     </g>
    </g>
    <g id="xtick_5">
     <g id="line2d_5">
      <g>
       <use xlink:href="#m9b5de14e45" x="322.842694" y="288.430125" style="stroke: #000000; stroke-width: 0.8"/>
      </g>
     </g>
     <g id="text_5">
      <!-- 0.8 -->
      <g transform="translate(314.891131 303.028562) scale(0.1 -0.1)">
       <defs>
        <path id="DejaVuSans-38" d="M 2034 2216 
Q 1584 2216 1326 1975 
Q 1069 1734 1069 1313 
Q 1069 891 1326 650 
Q 1584 409 2034 409 
Q 2484 409 2743 651 
Q 3003 894 3003 1313 
Q 3003 1734 2745 1975 
Q 2488 2216 2034 2216 
z
M 1403 2484 
Q 997 2584 770 2862 
Q 544 3141 544 3541 
Q 544 4100 942 4425 
Q 1341 4750 2034 4750 
Q 2731 4750 3128 4425 
Q 3525 4100 3525 3541 
Q 3525 3141 3298 2862 
Q 3072 2584 2669 2484 
Q 3125 2378 3379 2068 
Q 3634 1759 3634 1313 
Q 3634 634 3220 271 
Q 2806 -91 2034 -91 
Q 1263 -91 848 271 
Q 434 634 434 1313 
Q 434 1759 690 2068 
Q 947 2378 1403 2484 
z
M 1172 3481 
Q 1172 3119 1398 2916 
Q 1625 2713 2034 2713 
Q 2441 2713 2670 2916 
Q 2900 3119 2900 3481 
Q 2900 3844 2670 4047 
Q 2441 4250 2034 4250 
Q 1625 4250 1398 4047 
Q 1172 3844 1172 3481 
z
" transform="scale(0.015625)"/>
       </defs>
       <use xlink:href="#DejaVuSans-30"/>
       <use xlink:href="#DejaVuSans-2e" x="63.623047"/>
       <use xlink:href="#DejaVuSans-38" x="95.410156"/>
      </g>
     </g>
    </g>
    <g id="xtick_6">
     <g id="line2d_6">
      <g>
       <use xlink:href="#m9b5de14e45" x="389.006579" y="288.430125" style="stroke: #000000; stroke-width: 0.8"/>
      </g>
     </g>
     <g id="text_6">
      <!-- 1.0 -->
      <g transform="translate(381.055016 303.028562) scale(0.1 -0.1)">
       <defs>
        <path id="DejaVuSans-31" d="M 794 531 
L 1825 531 
L 1825 4091 
L 703 3866 
L 703 4441 
L 1819 4666 
L 2450 4666 
L 2450 531 
L 3481 531 
L 3481 0 
L 794 0 
L 794 531 
z
" transform="scale(0.015625)"/>
       </defs>
       <use xlink:href="#DejaVuSans-31"/>
       <use xlink:href="#DejaVuSans-2e" x="63.623047"/>
       <use xlink:href="#DejaVuSans-30" x="95.410156"/>
      </g>
     </g>
    </g>
    <g id="text_7">
     <!-- X -->
     <g transform="translate(218.91625 316.706687) scale(0.1 -0.1)">
      <defs>
       <path id="DejaVuSans-58" d="M 403 4666 
L 1081 4666 
L 2241 2931 
L 3406 4666 
L 4084 4666 
L 2584 2425 
L 4184 0 
L 3506 0 
L 2194 1984 
L 872 0 
L 191 0 
L 1856 2491 
L 403 4666 
z
" transform="scale(0.015625)"/>
      </defs>
      <use xlink:href="#DejaVuSans-58"/>
     </g>
    </g>
   </g>
   <g id="matplotlib.axis_2">
    <g id="ytick_1">
     <g id="line2d_7">
      <defs>
       <path id="m5acff65fab" d="M 0 0 
L -3.5 0 
" style="stroke: #000000; stroke-width: 0.8"/>
      </defs>
      <g>
       <use xlink:href="#m5acff65fab" x="43.78125" y="276.158839" style="stroke: #000000; stroke-width: 0.8"/>
      </g>
     </g>
     <g id="text_8">
      <!-- 1.0 -->
      <g transform="translate(20.878125 279.958058) scale(0.1 -0.1)">
       <use xlink:href="#DejaVuSans-31"/>
       <use xlink:href="#DejaVuSans-2e" x="63.623047"/>
       <use xlink:href="#DejaVuSans-30" x="95.410156"/>
      </g>
     </g>
    </g>
    <g id="ytick_2">
     <g id="line2d_8">
      <g>
       <use xlink:href="#m5acff65fab" x="43.78125" y="217.252923" style="stroke: #000000; stroke-width: 0.8"/>
      </g>
     </g>
     <g id="text_9">
      <!-- 1.5 -->
      <g transform="translate(20.878125 221.052142) scale(0.1 -0.1)">
       <defs>
        <path id="DejaVuSans-35" d="M 691 4666 
L 3169 4666 
L 3169 4134 
L 1269 4134 
L 1269 2991 
Q 1406 3038 1543 3061 
Q 1681 3084 1819 3084 
Q 2600 3084 3056 2656 
Q 3513 2228 3513 1497 
Q 3513 744 3044 326 
Q 2575 -91 1722 -91 
Q 1428 -91 1123 -41 
Q 819 9 494 109 
L 494 744 
Q 775 591 1075 516 
Q 1375 441 1709 441 
Q 2250 441 2565 725 
Q 2881 1009 2881 1497 
Q 2881 1984 2565 2268 
Q 2250 2553 1709 2553 
Q 1456 2553 1204 2497 
Q 953 2441 691 2322 
L 691 4666 
z
" transform="scale(0.015625)"/>
       </defs>
       <use xlink:href="#DejaVuSans-31"/>
       <use xlink:href="#DejaVuSans-2e" x="63.623047"/>
       <use xlink:href="#DejaVuSans-35" x="95.410156"/>
      </g>
     </g>
    </g>
    <g id="ytick_3">
     <g id="line2d_9">
      <g>
       <use xlink:href="#m5acff65fab" x="43.78125" y="158.347007" style="stroke: #000000; stroke-width: 0.8"/>
      </g>
     </g>
     <g id="text_10">
      <!-- 2.0 -->
      <g transform="translate(20.878125 162.146226) scale(0.1 -0.1)">
       <use xlink:href="#DejaVuSans-32"/>
       <use xlink:href="#DejaVuSans-2e" x="63.623047"/>
       <use xlink:href="#DejaVuSans-30" x="95.410156"/>
      </g>
     </g>
    </g>
    <g id="ytick_4">
     <g id="line2d_10">
      <g>
       <use xlink:href="#m5acff65fab" x="43.78125" y="99.441091" style="stroke: #000000; stroke-width: 0.8"/>
      </g>
     </g>
     <g id="text_11">
      <!-- 2.5 -->
      <g transform="translate(20.878125 103.24031) scale(0.1 -0.1)">
       <use xlink:href="#DejaVuSans-32"/>
       <use xlink:href="#DejaVuSans-2e" x="63.623047"/>
       <use xlink:href="#DejaVuSans-35" x="95.410156"/>
      </g>
     </g>
    </g>
    <g id="ytick_5">
     <g id="line2d_11">
      <g>
       <use xlink:href="#m5acff65fab" x="43.78125" y="40.535175" style="stroke: #000000; stroke-width: 0.8"/>
      </g>
     </g>
     <g id="text_12">
      <!-- 3.0 -->
      <g transform="translate(20.878125 44.334394) scale(0.1 -0.1)">
       <defs>
        <path id="DejaVuSans-33" d="M 2597 2516 
Q 3050 2419 3304 2112 
Q 3559 1806 3559 1356 
Q 3559 666 3084 287 
Q 2609 -91 1734 -91 
Q 1441 -91 1130 -33 
Q 819 25 488 141 
L 488 750 
Q 750 597 1062 519 
Q 1375 441 1716 441 
Q 2309 441 2620 675 
Q 2931 909 2931 1356 
Q 2931 1769 2642 2001 
Q 2353 2234 1838 2234 
L 1294 2234 
L 1294 2753 
L 1863 2753 
Q 2328 2753 2575 2939 
Q 2822 3125 2822 3475 
Q 2822 3834 2567 4026 
Q 2313 4219 1838 4219 
Q 1578 4219 1281 4162 
Q 984 4106 628 3988 
L 628 4550 
Q 988 4650 1302 4700 
Q 1616 4750 1894 4750 
Q 2613 4750 3031 4423 
Q 3450 4097 3450 3541 
Q 3450 3153 3228 2886 
Q 3006 2619 2597 2516 
z
" transform="scale(0.015625)"/>
       </defs>
       <use xlink:href="#DejaVuSans-33"/>
       <use xlink:href="#DejaVuSans-2e" x="63.623047"/>
       <use xlink:href="#DejaVuSans-30" x="95.410156"/>
      </g>
     </g>
    </g>
    <g id="text_13">
     <!-- y -->
     <g transform="translate(14.798438 158.3335) rotate(-90) scale(0.1 -0.1)">
      <defs>
       <path id="DejaVuSans-79" d="M 2059 -325 
Q 1816 -950 1584 -1140 
Q 1353 -1331 966 -1331 
L 506 -1331 
L 506 -850 
L 844 -850 
Q 1081 -850 1212 -737 
Q 1344 -625 1503 -206 
L 1606 56 
L 191 3500 
L 800 3500 
L 1894 763 
L 2988 3500 
L 3597 3500 
L 2059 -325 
z
" transform="scale(0.015625)"/>
      </defs>
      <use xlink:href="#DejaVuSans-79"/>
     </g>
    </g>
   </g>
   <g id="line2d_12">
    <path d="M 182.0923 187.402998 
L 372.701914 54.763672 
L 300.344969 105.114629 
L 256.235009 135.809384 
L 109.801151 237.70817 
L 109.793171 237.713723 
L 77.402341 260.253498 
L 344.735048 74.224948 
L 257.047676 135.243874 
L 292.431317 110.621494 
L 64.996904 268.886057 
L 379.052173 50.344723 
L 333.57535 81.990636 
L 128.433056 224.742804 
L 118.338385 231.767373 
L 118.860928 231.403752 
L 158.836398 203.586061 
L 231.786775 152.822153 
L 201.082956 174.187989 
L 154.53141 206.581768 
L 260.599977 132.771938 
L 104.334432 241.51229 
L 154.834278 206.371011 
L 179.386768 189.285694 
L 209.063964 168.634253 
L 317.938614 92.871756 
L 124.243119 227.658451 
L 228.305895 155.244389 
L 254.169401 137.246777 
L 73.553852 262.931542 
L 259.174792 133.76368 
L 114.599846 234.368907 
L 79.707484 258.64942 
L 372.096922 55.184667 
L 377.636988 51.329507 
L 325.6207 87.526031 
L 158.959306 203.500533 
L 90.498986 251.139948 
L 284.54473 116.109526 
L 203.798149 172.298571 
L 98.559772 245.530697 
L 222.001294 159.631565 
L 69.563544 265.708274 
L 359.008006 64.292838 
L 143.796598 214.051791 
L 277.362395 121.10749 
L 161.307233 201.866683 
L 230.235757 153.901458 
L 239.049534 147.768224 
L 119.340598 231.069964 
L 378.944583 50.419592 
L 314.616149 95.183757 
L 368.991653 57.345527 
L 354.213423 67.62924 
L 255.984081 135.983997 
L 363.161058 61.402858 
L 87.462192 253.253159 
L 123.022092 228.508127 
L 73.149219 263.213114 
L 165.812747 198.731435 
L 186.769151 184.148523 
L 147.954684 211.158308 
L 332.34962 82.843584 
L 176.208084 191.497642 
L 151.125747 208.951664 
L 237.72156 148.69232 
L 104.807625 241.18301 
L 323.569498 88.953399 
L 82.849955 256.462673 
L 384.668523 46.43648 
L 313.660724 95.848607 
L 123.926161 227.879013 
L 60.013977 272.353522 
L 327.957635 85.89983 
L 292.029294 110.90125 
L 299.356886 105.802205 
L 313.338366 96.072926 
L 82.682563 256.579155 
L 176.77458 191.103435 
L 96.518889 246.950884 
L 343.718533 74.932309 
L 264.386282 130.137166 
L 167.654648 197.449713 
L 79.213491 258.993175 
L 161.066147 202.034447 
L 165.764113 198.765278 
L 299.55505 105.664309 
L 269.10355 126.854565 
L 351.694363 69.382176 
L 214.405024 164.917575 
L 97.751253 246.09332 
L 294.142384 109.430816 
L 309.869626 98.486715 
L 243.868554 144.414817 
L 313.238073 96.142717 
L 221.544329 159.949553 
L 231.117328 153.288 
L 199.626028 175.201821 
L 66.596295 267.773091 
L 93.879734 248.787391 
" clip-path="url(#p62e4c8a86a)" style="fill: none; stroke: #ff0000; stroke-width: 1.5; stroke-linecap: square"/>
   </g>
   <g id="patch_3">
    <path d="M 43.78125 288.430125 
L 43.78125 22.318125 
" style="fill: none; stroke: #000000; stroke-width: 0.8; stroke-linejoin: miter; stroke-linecap: square"/>
   </g>
   <g id="patch_4">
    <path d="M 400.90125 288.430125 
L 400.90125 22.318125 
" style="fill: none; stroke: #000000; stroke-width: 0.8; stroke-linejoin: miter; stroke-linecap: square"/>
   </g>
   <g id="patch_5">
    <path d="M 43.78125 288.430125 
L 400.90125 288.430125 
" style="fill: none; stroke: #000000; stroke-width: 0.8; stroke-linejoin: miter; stroke-linecap: square"/>
   </g>
   <g id="patch_6">
    <path d="M 43.78125 22.318125 
L 400.90125 22.318125 
" style="fill: none; stroke: #000000; stroke-width: 0.8; stroke-linejoin: miter; stroke-linecap: square"/>
   </g>
   <g id="text_14">
    <!-- Linearity Check -->
    <g transform="translate(175.75875 16.318125) scale(0.12 -0.12)">
     <defs>
      <path id="DejaVuSans-4c" d="M 628 4666 
L 1259 4666 
L 1259 531 
L 3531 531 
L 3531 0 
L 628 0 
L 628 4666 
z
" transform="scale(0.015625)"/>
      <path id="DejaVuSans-69" d="M 603 3500 
L 1178 3500 
L 1178 0 
L 603 0 
L 603 3500 
z
M 603 4863 
L 1178 4863 
L 1178 4134 
L 603 4134 
L 603 4863 
z
" transform="scale(0.015625)"/>
      <path id="DejaVuSans-6e" d="M 3513 2113 
L 3513 0 
L 2938 0 
L 2938 2094 
Q 2938 2591 2744 2837 
Q 2550 3084 2163 3084 
Q 1697 3084 1428 2787 
Q 1159 2491 1159 1978 
L 1159 0 
L 581 0 
L 581 3500 
L 1159 3500 
L 1159 2956 
Q 1366 3272 1645 3428 
Q 1925 3584 2291 3584 
Q 2894 3584 3203 3211 
Q 3513 2838 3513 2113 
z
" transform="scale(0.015625)"/>
      <path id="DejaVuSans-65" d="M 3597 1894 
L 3597 1613 
L 953 1613 
Q 991 1019 1311 708 
Q 1631 397 2203 397 
Q 2534 397 2845 478 
Q 3156 559 3463 722 
L 3463 178 
Q 3153 47 2828 -22 
Q 2503 -91 2169 -91 
Q 1331 -91 842 396 
Q 353 884 353 1716 
Q 353 2575 817 3079 
Q 1281 3584 2069 3584 
Q 2775 3584 3186 3129 
Q 3597 2675 3597 1894 
z
M 3022 2063 
Q 3016 2534 2758 2815 
Q 2500 3097 2075 3097 
Q 1594 3097 1305 2825 
Q 1016 2553 972 2059 
L 3022 2063 
z
" transform="scale(0.015625)"/>
      <path id="DejaVuSans-61" d="M 2194 1759 
Q 1497 1759 1228 1600 
Q 959 1441 959 1056 
Q 959 750 1161 570 
Q 1363 391 1709 391 
Q 2188 391 2477 730 
Q 2766 1069 2766 1631 
L 2766 1759 
L 2194 1759 
z
M 3341 1997 
L 3341 0 
L 2766 0 
L 2766 531 
Q 2569 213 2275 61 
Q 1981 -91 1556 -91 
Q 1019 -91 701 211 
Q 384 513 384 1019 
Q 384 1609 779 1909 
Q 1175 2209 1959 2209 
L 2766 2209 
L 2766 2266 
Q 2766 2663 2505 2880 
Q 2244 3097 1772 3097 
Q 1472 3097 1187 3025 
Q 903 2953 641 2809 
L 641 3341 
Q 956 3463 1253 3523 
Q 1550 3584 1831 3584 
Q 2591 3584 2966 3190 
Q 3341 2797 3341 1997 
z
" transform="scale(0.015625)"/>
      <path id="DejaVuSans-72" d="M 2631 2963 
Q 2534 3019 2420 3045 
Q 2306 3072 2169 3072 
Q 1681 3072 1420 2755 
Q 1159 2438 1159 1844 
L 1159 0 
L 581 0 
L 581 3500 
L 1159 3500 
L 1159 2956 
Q 1341 3275 1631 3429 
Q 1922 3584 2338 3584 
Q 2397 3584 2469 3576 
Q 2541 3569 2628 3553 
L 2631 2963 
z
" transform="scale(0.015625)"/>
      <path id="DejaVuSans-74" d="M 1172 4494 
L 1172 3500 
L 2356 3500 
L 2356 3053 
L 1172 3053 
L 1172 1153 
Q 1172 725 1289 603 
Q 1406 481 1766 481 
L 2356 481 
L 2356 0 
L 1766 0 
Q 1100 0 847 248 
Q 594 497 594 1153 
L 594 3053 
L 172 3053 
L 172 3500 
L 594 3500 
L 594 4494 
L 1172 4494 
z
" transform="scale(0.015625)"/>
      <path id="DejaVuSans-20" transform="scale(0.015625)"/>
      <path id="DejaVuSans-43" d="M 4122 4306 
L 4122 3641 
Q 3803 3938 3442 4084 
Q 3081 4231 2675 4231 
Q 1875 4231 1450 3742 
Q 1025 3253 1025 2328 
Q 1025 1406 1450 917 
Q 1875 428 2675 428 
Q 3081 428 3442 575 
Q 3803 722 4122 1019 
L 4122 359 
Q 3791 134 3420 21 
Q 3050 -91 2638 -91 
Q 1578 -91 968 557 
Q 359 1206 359 2328 
Q 359 3453 968 4101 
Q 1578 4750 2638 4750 
Q 3056 4750 3426 4639 
Q 3797 4528 4122 4306 
z
" transform="scale(0.015625)"/>
      <path id="DejaVuSans-68" d="M 3513 2113 
L 3513 0 
L 2938 0 
L 2938 2094 
Q 2938 2591 2744 2837 
Q 2550 3084 2163 3084 
Q 1697 3084 1428 2787 
Q 1159 2491 1159 1978 
L 1159 0 
L 581 0 
L 581 4863 
L 1159 4863 
L 1159 2956 
Q 1366 3272 1645 3428 
Q 1925 3584 2291 3584 
Q 2894 3584 3203 3211 
Q 3513 2838 3513 2113 
z
" transform="scale(0.015625)"/>
      <path id="DejaVuSans-63" d="M 3122 3366 
L 3122 2828 
Q 2878 2963 2633 3030 
Q 2388 3097 2138 3097 
Q 1578 3097 1268 2742 
Q 959 2388 959 1747 
Q 959 1106 1268 751 
Q 1578 397 2138 397 
Q 2388 397 2633 464 
Q 2878 531 3122 666 
L 3122 134 
Q 2881 22 2623 -34 
Q 2366 -91 2075 -91 
Q 1284 -91 818 406 
Q 353 903 353 1747 
Q 353 2603 823 3093 
Q 1294 3584 2113 3584 
Q 2378 3584 2631 3529 
Q 2884 3475 3122 3366 
z
" transform="scale(0.015625)"/>
      <path id="DejaVuSans-6b" d="M 581 4863 
L 1159 4863 
L 1159 1991 
L 2875 3500 
L 3609 3500 
L 1753 1863 
L 3688 0 
L 2938 0 
L 1159 1709 
L 1159 0 
L 581 0 
L 581 4863 
z
" transform="scale(0.015625)"/>
     </defs>
     <use xlink:href="#DejaVuSans-4c"/>
     <use xlink:href="#DejaVuSans-69" x="55.712891"/>
     <use xlink:href="#DejaVuSans-6e" x="83.496094"/>
     <use xlink:href="#DejaVuSans-65" x="146.875"/>
     <use xlink:href="#DejaVuSans-61" x="208.398438"/>
     <use xlink:href="#DejaVuSans-72" x="269.677734"/>
     <use xlink:href="#DejaVuSans-69" x="310.791016"/>
     <use xlink:href="#DejaVuSans-74" x="338.574219"/>
     <use xlink:href="#DejaVuSans-79" x="377.783203"/>
     <use xlink:href="#DejaVuSans-20" x="436.962891"/>
     <use xlink:href="#DejaVuSans-43" x="468.75"/>
     <use xlink:href="#DejaVuSans-68" x="538.574219"/>
     <use xlink:href="#DejaVuSans-65" x="601.953125"/>
     <use xlink:href="#DejaVuSans-63" x="663.476562"/>
     <use xlink:href="#DejaVuSans-6b" x="718.457031"/>
    </g>
   </g>
   <g id="legend_1">
    <g id="patch_7">
     <path d="M 50.78125 59.674375 
L 134.946875 59.674375 
Q 136.946875 59.674375 136.946875 57.674375 
L 136.946875 29.318125 
Q 136.946875 27.318125 134.946875 27.318125 
L 50.78125 27.318125 
Q 48.78125 27.318125 48.78125 29.318125 
L 48.78125 57.674375 
Q 48.78125 59.674375 50.78125 59.674375 
z
" style="fill: #ffffff; opacity: 0.8; stroke: #cccccc; stroke-linejoin: miter"/>
    </g>
    <g id="PathCollection_2">
     <g>
      <use xlink:href="#m0f27efea30" x="62.78125" y="36.291562" style="fill: #1f77b4; stroke: #1f77b4"/>
     </g>
    </g>
    <g id="text_15">
     <!-- Data -->
     <g transform="translate(80.78125 38.916562) scale(0.1 -0.1)">
      <defs>
       <path id="DejaVuSans-44" d="M 1259 4147 
L 1259 519 
L 2022 519 
Q 2988 519 3436 956 
Q 3884 1394 3884 2338 
Q 3884 3275 3436 3711 
Q 2988 4147 2022 4147 
L 1259 4147 
z
M 628 4666 
L 1925 4666 
Q 3281 4666 3915 4102 
Q 4550 3538 4550 2338 
Q 4550 1131 3912 565 
Q 3275 0 1925 0 
L 628 0 
L 628 4666 
z
" transform="scale(0.015625)"/>
      </defs>
      <use xlink:href="#DejaVuSans-44"/>
      <use xlink:href="#DejaVuSans-61" x="77.001953"/>
      <use xlink:href="#DejaVuSans-74" x="138.28125"/>
      <use xlink:href="#DejaVuSans-61" x="177.490234"/>
     </g>
    </g>
    <g id="line2d_13">
     <path d="M 52.78125 50.094687 
L 62.78125 50.094687 
L 72.78125 50.094687 
" style="fill: none; stroke: #ff0000; stroke-width: 1.5; stroke-linecap: square"/>
    </g>
    <g id="text_16">
     <!-- Fitted Line -->
     <g transform="translate(80.78125 53.594687) scale(0.1 -0.1)">
      <defs>
       <path id="DejaVuSans-46" d="M 628 4666 
L 3309 4666 
L 3309 4134 
L 1259 4134 
L 1259 2759 
L 3109 2759 
L 3109 2228 
L 1259 2228 
L 1259 0 
L 628 0 
L 628 4666 
z
" transform="scale(0.015625)"/>
       <path id="DejaVuSans-64" d="M 2906 2969 
L 2906 4863 
L 3481 4863 
L 3481 0 
L 2906 0 
L 2906 525 
Q 2725 213 2448 61 
Q 2172 -91 1784 -91 
Q 1150 -91 751 415 
Q 353 922 353 1747 
Q 353 2572 751 3078 
Q 1150 3584 1784 3584 
Q 2172 3584 2448 3432 
Q 2725 3281 2906 2969 
z
M 947 1747 
Q 947 1113 1208 752 
Q 1469 391 1925 391 
Q 2381 391 2643 752 
Q 2906 1113 2906 1747 
Q 2906 2381 2643 2742 
Q 2381 3103 1925 3103 
Q 1469 3103 1208 2742 
Q 947 2381 947 1747 
z
" transform="scale(0.015625)"/>
      </defs>
      <use xlink:href="#DejaVuSans-46"/>
      <use xlink:href="#DejaVuSans-69" x="50.269531"/>
      <use xlink:href="#DejaVuSans-74" x="78.052734"/>
      <use xlink:href="#DejaVuSans-74" x="117.261719"/>
      <use xlink:href="#DejaVuSans-65" x="156.470703"/>
      <use xlink:href="#DejaVuSans-64" x="217.994141"/>
      <use xlink:href="#DejaVuSans-20" x="281.470703"/>
      <use xlink:href="#DejaVuSans-4c" x="313.257812"/>
      <use xlink:href="#DejaVuSans-69" x="368.970703"/>
      <use xlink:href="#DejaVuSans-6e" x="396.753906"/>
      <use xlink:href="#DejaVuSans-65" x="460.132812"/>
     </g>
    </g>
   </g>
  </g>
 </g>
 <defs>
  <clipPath id="p62e4c8a86a">
   <rect x="43.78125" y="22.318125" width="357.12" height="266.112"/>
  </clipPath>
 </defs>
</svg>