<?xml version="1.0" encoding="utf-8" standalone="no"?>
<!DOCTYPE svg PUBLIC "-//W3C//DTD SVG 1.1//EN"
  "http://www.w3.org/Graphics/SVG/1.1/DTD/svg11.dtd">
<svg xmlns:xlink="http://www.w3.org/1999/xlink" width="856.52375pt" height="423.034375pt" viewBox="0 0 856.52375 423.034375" xmlns="http://www.w3.org/2000/svg" version="1.1">
 <metadata>
  <rdf:RDF xmlns:dc="http://purl.org/dc/elements/1.1/" xmlns:cc="http://creativecommons.org/ns#" xmlns:rdf="http://www.w3.org/1999/02/22-rdf-syntax-ns#">
   <cc:Work>
    <dc:type rdf:resource="http://purl.org/dc/dcmitype/StillImage"/>
    <dc:date>2024-09-22T06:26:33.044153</dc:date>
    <dc:format>image/svg+xml</dc:format>
    <dc:creator>
     <cc:Agent>
      <dc:title>Matplotlib v3.9.0, https://matplotlib.org/</dc:title>
     </cc:Agent>
    </dc:creator>
   </cc:Work>
  </rdf:RDF>
 </metadata>
 <defs>
  <style type="text/css">*{stroke-linejoin: round; stroke-linecap: butt}</style>
 </defs>
 <g id="figure_1">
  <g id="patch_1">
   <path d="M 0 423.034375 
L 856.52375 423.034375 
L 856.52375 0 
L 0 0 
z
" style="fill: #ffffff"/>
  </g>
  <g id="axes_1">
   <g id="patch_2">
    <path d="M 50.14375 385.478125 
L 849.32375 385.478125 
L 849.32375 22.318125 
L 50.14375 22.318125 
z
" style="fill: #ffffff"/>
   </g>
   <g id="matplotlib.axis_1">
    <g id="xtick_1">
     <g id="line2d_1">
      <path d="M 79.025076 385.478125 
L 79.025076 22.318125 
" clip-path="url(#p4121f8e636)" style="fill: none; stroke: #b0b0b0; stroke-opacity: 0.3; stroke-width: 0.8; stroke-linecap: square"/>
     </g>
     <g id="line2d_2">
      <defs>
       <path id="m6ba10a4d41" d="M 0 0 
L 0 3.5 
" style="stroke: #000000; stroke-width: 0.8"/>
      </defs>
      <g>
       <use xlink:href="#m6ba10a4d41" x="79.025076" y="385.478125" style="stroke: #000000; stroke-width: 0.8"/>
      </g>
     </g>
     <g id="text_1">
      <!-- −10 -->
      <g transform="translate(68.472733 400.076562) scale(0.1 -0.1)">
       <defs>
        <path id="DejaVuSans-2212" d="M 678 2272 
L 4684 2272 
L 4684 1741 
L 678 1741 
L 678 2272 
z
" transform="scale(0.015625)"/>
        <path id="DejaVuSans-31" d="M 794 531 
L 1825 531 
L 1825 4091 
L 703 3866 
L 703 4441 
L 1819 4666 
L 2450 4666 
L 2450 531 
L 3481 531 
L 3481 0 
L 794 0 
L 794 531 
z
" transform="scale(0.015625)"/>
        <path id="DejaVuSans-30" d="M 2034 4250 
Q 1547 4250 1301 3770 
Q 1056 3291 1056 2328 
Q 1056 1369 1301 889 
Q 1547 409 2034 409 
Q 2525 409 2770 889 
Q 3016 1369 3016 2328 
Q 3016 3291 2770 3770 
Q 2525 4250 2034 4250 
z
M 2034 4750 
Q 2819 4750 3233 4129 
Q 3647 3509 3647 2328 
Q 3647 1150 3233 529 
Q 2819 -91 2034 -91 
Q 1250 -91 836 529 
Q 422 1150 422 2328 
Q 422 3509 836 4129 
Q 1250 4750 2034 4750 
z
" transform="scale(0.015625)"/>
       </defs>
       <use xlink:href="#DejaVuSans-2212"/>
       <use xlink:href="#DejaVuSans-31" x="83.789062"/>
       <use xlink:href="#DejaVuSans-30" x="147.412109"/>
      </g>
     </g>
    </g>
    <g id="xtick_2">
     <g id="line2d_3">
      <path d="M 231.069226 385.478125 
L 231.069226 22.318125 
" clip-path="url(#p4121f8e636)" style="fill: none; stroke: #b0b0b0; stroke-opacity: 0.3; stroke-width: 0.8; stroke-linecap: square"/>
     </g>
     <g id="line2d_4">
      <g>
       <use xlink:href="#m6ba10a4d41" x="231.069226" y="385.478125" style="stroke: #000000; stroke-width: 0.8"/>
      </g>
     </g>
     <g id="text_2">
      <!-- −5 -->
      <g transform="translate(223.698132 400.076562) scale(0.1 -0.1)">
       <defs>
        <path id="DejaVuSans-35" d="M 691 4666 
L 3169 4666 
L 3169 4134 
L 1269 4134 
L 1269 2991 
Q 1406 3038 1543 3061 
Q 1681 3084 1819 3084 
Q 2600 3084 3056 2656 
Q 3513 2228 3513 1497 
Q 3513 744 3044 326 
Q 2575 -91 1722 -91 
Q 1428 -91 1123 -41 
Q 819 9 494 109 
L 494 744 
Q 775 591 1075 516 
Q 1375 441 1709 441 
Q 2250 441 2565 725 
Q 2881 1009 2881 1497 
Q 2881 1984 2565 2268 
Q 2250 2553 1709 2553 
Q 1456 2553 1204 2497 
Q 953 2441 691 2322 
L 691 4666 
z
" transform="scale(0.015625)"/>
       </defs>
       <use xlink:href="#DejaVuSans-2212"/>
       <use xlink:href="#DejaVuSans-35" x="83.789062"/>
      </g>
     </g>
    </g>
    <g id="xtick_3">
     <g id="line2d_5">
      <path d="M 383.113375 385.478125 
L 383.113375 22.318125 
" clip-path="url(#p4121f8e636)" style="fill: none; stroke: #b0b0b0; stroke-opacity: 0.3; stroke-width: 0.8; stroke-linecap: square"/>
     </g>
     <g id="line2d_6">
      <g>
       <use xlink:href="#m6ba10a4d41" x="383.113375" y="385.478125" style="stroke: #000000; stroke-width: 0.8"/>
      </g>
     </g>
     <g id="text_3">
      <!-- 0 -->
      <g transform="translate(379.932125 400.076562) scale(0.1 -0.1)">
       <use xlink:href="#DejaVuSans-30"/>
      </g>
     </g>
    </g>
    <g id="xtick_4">
     <g id="line2d_7">
      <path d="M 535.157525 385.478125 
L 535.157525 22.318125 
" clip-path="url(#p4121f8e636)" style="fill: none; stroke: #b0b0b0; stroke-opacity: 0.3; stroke-width: 0.8; stroke-linecap: square"/>
     </g>
     <g id="line2d_8">
      <g>
       <use xlink:href="#m6ba10a4d41" x="535.157525" y="385.478125" style="stroke: #000000; stroke-width: 0.8"/>
      </g>
     </g>
     <g id="text_4">
      <!-- 5 -->
      <g transform="translate(531.976275 400.076562) scale(0.1 -0.1)">
       <use xlink:href="#DejaVuSans-35"/>
      </g>
     </g>
    </g>
    <g id="xtick_5">
     <g id="line2d_9">
      <path d="M 687.201674 385.478125 
L 687.201674 22.318125 
" clip-path="url(#p4121f8e636)" style="fill: none; stroke: #b0b0b0; stroke-opacity: 0.3; stroke-width: 0.8; stroke-linecap: square"/>
     </g>
     <g id="line2d_10">
      <g>
       <use xlink:href="#m6ba10a4d41" x="687.201674" y="385.478125" style="stroke: #000000; stroke-width: 0.8"/>
      </g>
     </g>
     <g id="text_5">
      <!-- 10 -->
      <g transform="translate(680.839174 400.076562) scale(0.1 -0.1)">
       <use xlink:href="#DejaVuSans-31"/>
       <use xlink:href="#DejaVuSans-30" x="63.623047"/>
      </g>
     </g>
    </g>
    <g id="xtick_6">
     <g id="line2d_11">
      <path d="M 839.245824 385.478125 
L 839.245824 22.318125 
" clip-path="url(#p4121f8e636)" style="fill: none; stroke: #b0b0b0; stroke-opacity: 0.3; stroke-width: 0.8; stroke-linecap: square"/>
     </g>
     <g id="line2d_12">
      <g>
       <use xlink:href="#m6ba10a4d41" x="839.245824" y="385.478125" style="stroke: #000000; stroke-width: 0.8"/>
      </g>
     </g>
     <g id="text_6">
      <!-- 15 -->
      <g transform="translate(832.883324 400.076562) scale(0.1 -0.1)">
       <use xlink:href="#DejaVuSans-31"/>
       <use xlink:href="#DejaVuSans-35" x="63.623047"/>
      </g>
     </g>
    </g>
    <g id="text_7">
     <!-- Value -->
     <g transform="translate(436.0025 413.754687) scale(0.1 -0.1)">
      <defs>
       <path id="DejaVuSans-56" d="M 1831 0 
L 50 4666 
L 709 4666 
L 2188 738 
L 3669 4666 
L 4325 4666 
L 2547 0 
L 1831 0 
z
" transform="scale(0.015625)"/>
       <path id="DejaVuSans-61" d="M 2194 1759 
Q 1497 1759 1228 1600 
Q 959 1441 959 1056 
Q 959 750 1161 570 
Q 1363 391 1709 391 
Q 2188 391 2477 730 
Q 2766 1069 2766 1631 
L 2766 1759 
L 2194 1759 
z
M 3341 1997 
L 3341 0 
L 2766 0 
L 2766 531 
Q 2569 213 2275 61 
Q 1981 -91 1556 -91 
Q 1019 -91 701 211 
Q 384 513 384 1019 
Q 384 1609 779 1909 
Q 1175 2209 1959 2209 
L 2766 2209 
L 2766 2266 
Q 2766 2663 2505 2880 
Q 2244 3097 1772 3097 
Q 1472 3097 1187 3025 
Q 903 2953 641 2809 
L 641 3341 
Q 956 3463 1253 3523 
Q 1550 3584 1831 3584 
Q 2591 3584 2966 3190 
Q 3341 2797 3341 1997 
z
" transform="scale(0.015625)"/>
       <path id="DejaVuSans-6c" d="M 603 4863 
L 1178 4863 
L 1178 0 
L 603 0 
L 603 4863 
z
" transform="scale(0.015625)"/>
       <path id="DejaVuSans-75" d="M 544 1381 
L 544 3500 
L 1119 3500 
L 1119 1403 
Q 1119 906 1312 657 
Q 1506 409 1894 409 
Q 2359 409 2629 706 
Q 2900 1003 2900 1516 
L 2900 3500 
L 3475 3500 
L 3475 0 
L 2900 0 
L 2900 538 
Q 2691 219 2414 64 
Q 2138 -91 1772 -91 
Q 1169 -91 856 284 
Q 544 659 544 1381 
z
M 1991 3584 
L 1991 3584 
z
" transform="scale(0.015625)"/>
       <path id="DejaVuSans-65" d="M 3597 1894 
L 3597 1613 
L 953 1613 
Q 991 1019 1311 708 
Q 1631 397 2203 397 
Q 2534 397 2845 478 
Q 3156 559 3463 722 
L 3463 178 
Q 3153 47 2828 -22 
Q 2503 -91 2169 -91 
Q 1331 -91 842 396 
Q 353 884 353 1716 
Q 353 2575 817 3079 
Q 1281 3584 2069 3584 
Q 2775 3584 3186 3129 
Q 3597 2675 3597 1894 
z
M 3022 2063 
Q 3016 2534 2758 2815 
Q 2500 3097 2075 3097 
Q 1594 3097 1305 2825 
Q 1016 2553 972 2059 
L 3022 2063 
z
" transform="scale(0.015625)"/>
      </defs>
      <use xlink:href="#DejaVuSans-56"/>
      <use xlink:href="#DejaVuSans-61" x="60.658203"/>
      <use xlink:href="#DejaVuSans-6c" x="121.9375"/>
      <use xlink:href="#DejaVuSans-75" x="149.720703"/>
      <use xlink:href="#DejaVuSans-65" x="213.099609"/>
     </g>
    </g>
   </g>
   <g id="matplotlib.axis_2">
    <g id="ytick_1">
     <g id="line2d_13">
      <path d="M 50.14375 368.970852 
L 849.32375 368.970852 
" clip-path="url(#p4121f8e636)" style="fill: none; stroke: #b0b0b0; stroke-opacity: 0.3; stroke-width: 0.8; stroke-linecap: square"/>
     </g>
     <g id="line2d_14">
      <defs>
       <path id="m803093d6d5" d="M 0 0 
L -3.5 0 
" style="stroke: #000000; stroke-width: 0.8"/>
      </defs>
      <g>
       <use xlink:href="#m803093d6d5" x="50.14375" y="368.970852" style="stroke: #000000; stroke-width: 0.8"/>
      </g>
     </g>
     <g id="text_8">
      <!-- 0.00 -->
      <g transform="translate(20.878125 372.770071) scale(0.1 -0.1)">
       <defs>
        <path id="DejaVuSans-2e" d="M 684 794 
L 1344 794 
L 1344 0 
L 684 0 
L 684 794 
z
" transform="scale(0.015625)"/>
       </defs>
       <use xlink:href="#DejaVuSans-30"/>
       <use xlink:href="#DejaVuSans-2e" x="63.623047"/>
       <use xlink:href="#DejaVuSans-30" x="95.410156"/>
       <use xlink:href="#DejaVuSans-30" x="159.033203"/>
      </g>
     </g>
    </g>
    <g id="ytick_2">
     <g id="line2d_15">
      <path d="M 50.14375 325.738862 
L 849.32375 325.738862 
" clip-path="url(#p4121f8e636)" style="fill: none; stroke: #b0b0b0; stroke-opacity: 0.3; stroke-width: 0.8; stroke-linecap: square"/>
     </g>
     <g id="line2d_16">
      <g>
       <use xlink:href="#m803093d6d5" x="50.14375" y="325.738862" style="stroke: #000000; stroke-width: 0.8"/>
      </g>
     </g>
     <g id="text_9">
      <!-- 0.05 -->
      <g transform="translate(20.878125 329.538081) scale(0.1 -0.1)">
       <use xlink:href="#DejaVuSans-30"/>
       <use xlink:href="#DejaVuSans-2e" x="63.623047"/>
       <use xlink:href="#DejaVuSans-30" x="95.410156"/>
       <use xlink:href="#DejaVuSans-35" x="159.033203"/>
      </g>
     </g>
    </g>
    <g id="ytick_3">
     <g id="line2d_17">
      <path d="M 50.14375 282.506872 
L 849.32375 282.506872 
" clip-path="url(#p4121f8e636)" style="fill: none; stroke: #b0b0b0; stroke-opacity: 0.3; stroke-width: 0.8; stroke-linecap: square"/>
     </g>
     <g id="line2d_18">
      <g>
       <use xlink:href="#m803093d6d5" x="50.14375" y="282.506872" style="stroke: #000000; stroke-width: 0.8"/>
      </g>
     </g>
     <g id="text_10">
      <!-- 0.10 -->
      <g transform="translate(20.878125 286.306091) scale(0.1 -0.1)">
       <use xlink:href="#DejaVuSans-30"/>
       <use xlink:href="#DejaVuSans-2e" x="63.623047"/>
       <use xlink:href="#DejaVuSans-31" x="95.410156"/>
       <use xlink:href="#DejaVuSans-30" x="159.033203"/>
      </g>
     </g>
    </g>
    <g id="ytick_4">
     <g id="line2d_19">
      <path d="M 50.14375 239.274882 
L 849.32375 239.274882 
" clip-path="url(#p4121f8e636)" style="fill: none; stroke: #b0b0b0; stroke-opacity: 0.3; stroke-width: 0.8; stroke-linecap: square"/>
     </g>
     <g id="line2d_20">
      <g>
       <use xlink:href="#m803093d6d5" x="50.14375" y="239.274882" style="stroke: #000000; stroke-width: 0.8"/>
      </g>
     </g>
     <g id="text_11">
      <!-- 0.15 -->
      <g transform="translate(20.878125 243.0741) scale(0.1 -0.1)">
       <use xlink:href="#DejaVuSans-30"/>
       <use xlink:href="#DejaVuSans-2e" x="63.623047"/>
       <use xlink:href="#DejaVuSans-31" x="95.410156"/>
       <use xlink:href="#DejaVuSans-35" x="159.033203"/>
      </g>
     </g>
    </g>
    <g id="ytick_5">
     <g id="line2d_21">
      <path d="M 50.14375 196.042891 
L 849.32375 196.042891 
" clip-path="url(#p4121f8e636)" style="fill: none; stroke: #b0b0b0; stroke-opacity: 0.3; stroke-width: 0.8; stroke-linecap: square"/>
     </g>
     <g id="line2d_22">
      <g>
       <use xlink:href="#m803093d6d5" x="50.14375" y="196.042891" style="stroke: #000000; stroke-width: 0.8"/>
      </g>
     </g>
     <g id="text_12">
      <!-- 0.20 -->
      <g transform="translate(20.878125 199.84211) scale(0.1 -0.1)">
       <defs>
        <path id="DejaVuSans-32" d="M 1228 531 
L 3431 531 
L 3431 0 
L 469 0 
L 469 531 
Q 828 903 1448 1529 
Q 2069 2156 2228 2338 
Q 2531 2678 2651 2914 
Q 2772 3150 2772 3378 
Q 2772 3750 2511 3984 
Q 2250 4219 1831 4219 
Q 1534 4219 1204 4116 
Q 875 4013 500 3803 
L 500 4441 
Q 881 4594 1212 4672 
Q 1544 4750 1819 4750 
Q 2544 4750 2975 4387 
Q 3406 4025 3406 3419 
Q 3406 3131 3298 2873 
Q 3191 2616 2906 2266 
Q 2828 2175 2409 1742 
Q 1991 1309 1228 531 
z
" transform="scale(0.015625)"/>
       </defs>
       <use xlink:href="#DejaVuSans-30"/>
       <use xlink:href="#DejaVuSans-2e" x="63.623047"/>
       <use xlink:href="#DejaVuSans-32" x="95.410156"/>
       <use xlink:href="#DejaVuSans-30" x="159.033203"/>
      </g>
     </g>
    </g>
    <g id="ytick_6">
     <g id="line2d_23">
      <path d="M 50.14375 152.810901 
L 849.32375 152.810901 
" clip-path="url(#p4121f8e636)" style="fill: none; stroke: #b0b0b0; stroke-opacity: 0.3; stroke-width: 0.8; stroke-linecap: square"/>
     </g>
     <g id="line2d_24">
      <g>
       <use xlink:href="#m803093d6d5" x="50.14375" y="152.810901" style="stroke: #000000; stroke-width: 0.8"/>
      </g>
     </g>
     <g id="text_13">
      <!-- 0.25 -->
      <g transform="translate(20.878125 156.61012) scale(0.1 -0.1)">
       <use xlink:href="#DejaVuSans-30"/>
       <use xlink:href="#DejaVuSans-2e" x="63.623047"/>
       <use xlink:href="#DejaVuSans-32" x="95.410156"/>
       <use xlink:href="#DejaVuSans-35" x="159.033203"/>
      </g>
     </g>
    </g>
    <g id="ytick_7">
     <g id="line2d_25">
      <path d="M 50.14375 109.578911 
L 849.32375 109.578911 
" clip-path="url(#p4121f8e636)" style="fill: none; stroke: #b0b0b0; stroke-opacity: 0.3; stroke-width: 0.8; stroke-linecap: square"/>
     </g>
     <g id="line2d_26">
      <g>
       <use xlink:href="#m803093d6d5" x="50.14375" y="109.578911" style="stroke: #000000; stroke-width: 0.8"/>
      </g>
     </g>
     <g id="text_14">
      <!-- 0.30 -->
      <g transform="translate(20.878125 113.37813) scale(0.1 -0.1)">
       <defs>
        <path id="DejaVuSans-33" d="M 2597 2516 
Q 3050 2419 3304 2112 
Q 3559 1806 3559 1356 
Q 3559 666 3084 287 
Q 2609 -91 1734 -91 
Q 1441 -91 1130 -33 
Q 819 25 488 141 
L 488 750 
Q 750 597 1062 519 
Q 1375 441 1716 441 
Q 2309 441 2620 675 
Q 2931 909 2931 1356 
Q 2931 1769 2642 2001 
Q 2353 2234 1838 2234 
L 1294 2234 
L 1294 2753 
L 1863 2753 
Q 2328 2753 2575 2939 
Q 2822 3125 2822 3475 
Q 2822 3834 2567 4026 
Q 2313 4219 1838 4219 
Q 1578 4219 1281 4162 
Q 984 4106 628 3988 
L 628 4550 
Q 988 4650 1302 4700 
Q 1616 4750 1894 4750 
Q 2613 4750 3031 4423 
Q 3450 4097 3450 3541 
Q 3450 3153 3228 2886 
Q 3006 2619 2597 2516 
z
" transform="scale(0.015625)"/>
       </defs>
       <use xlink:href="#DejaVuSans-30"/>
       <use xlink:href="#DejaVuSans-2e" x="63.623047"/>
       <use xlink:href="#DejaVuSans-33" x="95.410156"/>
       <use xlink:href="#DejaVuSans-30" x="159.033203"/>
      </g>
     </g>
    </g>
    <g id="ytick_8">
     <g id="line2d_27">
      <path d="M 50.14375 66.34692 
L 849.32375 66.34692 
" clip-path="url(#p4121f8e636)" style="fill: none; stroke: #b0b0b0; stroke-opacity: 0.3; stroke-width: 0.8; stroke-linecap: square"/>
     </g>
     <g id="line2d_28">
      <g>
       <use xlink:href="#m803093d6d5" x="50.14375" y="66.34692" style="stroke: #000000; stroke-width: 0.8"/>
      </g>
     </g>
     <g id="text_15">
      <!-- 0.35 -->
      <g transform="translate(20.878125 70.146139) scale(0.1 -0.1)">
       <use xlink:href="#DejaVuSans-30"/>
       <use xlink:href="#DejaVuSans-2e" x="63.623047"/>
       <use xlink:href="#DejaVuSans-33" x="95.410156"/>
       <use xlink:href="#DejaVuSans-35" x="159.033203"/>
      </g>
     </g>
    </g>
    <g id="ytick_9">
     <g id="line2d_29">
      <path d="M 50.14375 23.11493 
L 849.32375 23.11493 
" clip-path="url(#p4121f8e636)" style="fill: none; stroke: #b0b0b0; stroke-opacity: 0.3; stroke-width: 0.8; stroke-linecap: square"/>
     </g>
     <g id="line2d_30">
      <g>
       <use xlink:href="#m803093d6d5" x="50.14375" y="23.11493" style="stroke: #000000; stroke-width: 0.8"/>
      </g>
     </g>
     <g id="text_16">
      <!-- 0.40 -->
      <g transform="translate(20.878125 26.914149) scale(0.1 -0.1)">
       <defs>
        <path id="DejaVuSans-34" d="M 2419 4116 
L 825 1625 
L 2419 1625 
L 2419 4116 
z
M 2253 4666 
L 3047 4666 
L 3047 1625 
L 3713 1625 
L 3713 1100 
L 3047 1100 
L 3047 0 
L 2419 0 
L 2419 1100 
L 313 1100 
L 313 1709 
L 2253 4666 
z
" transform="scale(0.015625)"/>
       </defs>
       <use xlink:href="#DejaVuSans-30"/>
       <use xlink:href="#DejaVuSans-2e" x="63.623047"/>
       <use xlink:href="#DejaVuSans-34" x="95.410156"/>
       <use xlink:href="#DejaVuSans-30" x="159.033203"/>
      </g>
     </g>
    </g>
    <g id="text_17">
     <!-- Density -->
     <g transform="translate(14.798438 222.906719) rotate(-90) scale(0.1 -0.1)">
      <defs>
       <path id="DejaVuSans-44" d="M 1259 4147 
L 1259 519 
L 2022 519 
Q 2988 519 3436 956 
Q 3884 1394 3884 2338 
Q 3884 3275 3436 3711 
Q 2988 4147 2022 4147 
L 1259 4147 
z
M 628 4666 
L 1925 4666 
Q 3281 4666 3915 4102 
Q 4550 3538 4550 2338 
Q 4550 1131 3912 565 
Q 3275 0 1925 0 
L 628 0 
L 628 4666 
z
" transform="scale(0.015625)"/>
       <path id="DejaVuSans-6e" d="M 3513 2113 
L 3513 0 
L 2938 0 
L 2938 2094 
Q 2938 2591 2744 2837 
Q 2550 3084 2163 3084 
Q 1697 3084 1428 2787 
Q 1159 2491 1159 1978 
L 1159 0 
L 581 0 
L 581 3500 
L 1159 3500 
L 1159 2956 
Q 1366 3272 1645 3428 
Q 1925 3584 2291 3584 
Q 2894 3584 3203 3211 
Q 3513 2838 3513 2113 
z
" transform="scale(0.015625)"/>
       <path id="DejaVuSans-73" d="M 2834 3397 
L 2834 2853 
Q 2591 2978 2328 3040 
Q 2066 3103 1784 3103 
Q 1356 3103 1142 2972 
Q 928 2841 928 2578 
Q 928 2378 1081 2264 
Q 1234 2150 1697 2047 
L 1894 2003 
Q 2506 1872 2764 1633 
Q 3022 1394 3022 966 
Q 3022 478 2636 193 
Q 2250 -91 1575 -91 
Q 1294 -91 989 -36 
Q 684 19 347 128 
L 347 722 
Q 666 556 975 473 
Q 1284 391 1588 391 
Q 1994 391 2212 530 
Q 2431 669 2431 922 
Q 2431 1156 2273 1281 
Q 2116 1406 1581 1522 
L 1381 1569 
Q 847 1681 609 1914 
Q 372 2147 372 2553 
Q 372 3047 722 3315 
Q 1072 3584 1716 3584 
Q 2034 3584 2315 3537 
Q 2597 3491 2834 3397 
z
" transform="scale(0.015625)"/>
       <path id="DejaVuSans-69" d="M 603 3500 
L 1178 3500 
L 1178 0 
L 603 0 
L 603 3500 
z
M 603 4863 
L 1178 4863 
L 1178 4134 
L 603 4134 
L 603 4863 
z
" transform="scale(0.015625)"/>
       <path id="DejaVuSans-74" d="M 1172 4494 
L 1172 3500 
L 2356 3500 
L 2356 3053 
L 1172 3053 
L 1172 1153 
Q 1172 725 1289 603 
Q 1406 481 1766 481 
L 2356 481 
L 2356 0 
L 1766 0 
Q 1100 0 847 248 
Q 594 497 594 1153 
L 594 3053 
L 172 3053 
L 172 3500 
L 594 3500 
L 594 4494 
L 1172 4494 
z
" transform="scale(0.015625)"/>
       <path id="DejaVuSans-79" d="M 2059 -325 
Q 1816 -950 1584 -1140 
Q 1353 -1331 966 -1331 
L 506 -1331 
L 506 -850 
L 844 -850 
Q 1081 -850 1212 -737 
Q 1344 -625 1503 -206 
L 1606 56 
L 191 3500 
L 800 3500 
L 1894 763 
L 2988 3500 
L 3597 3500 
L 2059 -325 
z
" transform="scale(0.015625)"/>
      </defs>
      <use xlink:href="#DejaVuSans-44"/>
      <use xlink:href="#DejaVuSans-65" x="77.001953"/>
      <use xlink:href="#DejaVuSans-6e" x="138.525391"/>
      <use xlink:href="#DejaVuSans-73" x="201.904297"/>
      <use xlink:href="#DejaVuSans-69" x="254.003906"/>
      <use xlink:href="#DejaVuSans-74" x="281.787109"/>
      <use xlink:href="#DejaVuSans-79" x="320.996094"/>
     </g>
    </g>
   </g>
   <g id="line2d_31">
    <path d="M 86.470114 368.802166 
L 109.015004 368.733688 
L 115.560295 368.681882 
L 149.741258 368.969441 
L 163.559094 368.848262 
L 183.194966 368.386815 
L 192.649275 367.806507 
L 197.740056 367.855139 
L 221.739456 368.339628 
L 225.375728 368.029427 
L 236.284546 366.878315 
L 242.829837 366.211112 
L 250.102382 365.456838 
L 256.647673 364.848664 
L 259.556691 364.387516 
L 262.465709 363.718782 
L 265.374727 362.821107 
L 273.374527 360.09094 
L 277.0108 359.294241 
L 279.919818 358.62726 
L 282.101581 357.902467 
L 284.283345 356.910728 
L 286.465109 355.67909 
L 290.101381 353.325559 
L 298.101181 347.88626 
L 300.282945 346.184858 
L 302.464708 344.19742 
L 304.646472 341.827836 
L 306.828235 339.048488 
L 309.009999 335.911276 
L 311.919017 331.321768 
L 314.828035 326.331562 
L 317.009799 322.212076 
L 319.191562 317.604891 
L 321.373326 312.397662 
L 323.55509 306.578866 
L 326.464108 298.005071 
L 329.373126 288.640742 
L 332.282144 278.363528 
L 334.463907 269.847203 
L 336.645671 260.496152 
L 338.827435 250.282761 
L 341.736453 235.47114 
L 345.372725 215.573572 
L 350.463507 186.251087 
L 356.281543 151.321639 
L 361.372325 121.212134 
L 365.008598 101.22606 
L 367.917616 86.477136 
L 370.099379 76.527047 
L 371.553888 70.671512 
L 373.008397 65.595286 
L 374.462906 61.385437 
L 375.917415 58.059151 
L 377.371925 55.558729 
L 378.826434 53.767517 
L 380.280943 52.541721 
L 381.735452 51.74909 
L 383.189961 51.304896 
L 384.64447 51.197503 
L 385.371724 51.289295 
L 386.098979 51.498416 
L 386.826233 51.845494 
L 387.553488 52.35438 
L 388.280742 53.050979 
L 389.007997 53.961902 
L 389.735252 55.113016 
L 390.462506 56.527962 
L 391.189761 58.226734 
L 392.64427 62.530107 
L 394.098779 68.068359 
L 395.553288 74.7774 
L 397.007797 82.491368 
L 399.18956 95.418368 
L 405.007597 132.39818 
L 411.552887 173.11934 
L 415.18916 194.724644 
L 418.098178 210.694305 
L 421.007196 225.386575 
L 424.643469 242.520919 
L 428.279741 258.654289 
L 431.18876 270.505372 
L 433.370523 278.553986 
L 435.552287 285.879145 
L 438.461305 294.767354 
L 442.097577 305.000383 
L 445.006596 312.627555 
L 447.915614 319.597399 
L 450.097377 324.299025 
L 452.279141 328.545814 
L 455.188159 333.611169 
L 458.824432 339.333433 
L 463.187959 345.789353 
L 466.096977 349.701821 
L 468.27874 352.177635 
L 469.733249 353.531456 
L 471.187759 354.631667 
L 472.642268 355.495636 
L 474.824031 356.446138 
L 477.733049 357.379971 
L 482.823831 359.006736 
L 487.914613 360.623315 
L 493.005394 361.948291 
L 500.27794 363.619745 
L 514.095776 366.377569 
L 517.732048 366.907938 
L 521.368321 367.196573 
L 526.459103 367.328727 
L 543.913211 367.627812 
L 558.458302 368.401092 
L 567.185356 368.47157 
L 581.003192 368.536054 
L 590.457501 368.736635 
L 629.729245 368.803918 
L 637.729045 368.636911 
L 644.274336 368.796563 
L 652.274136 368.953083 
L 672.637263 368.970852 
L 807.17935 368.861971 
L 812.997386 368.802251 
L 812.997386 368.802251 
" clip-path="url(#p4121f8e636)" style="fill: none; stroke: #ff0000; stroke-width: 1.5; stroke-linecap: square"/>
   </g>
   <g id="line2d_32">
    <path d="M 265.667358 368.658842 
L 269.836282 368.397227 
L 272.337637 368.039622 
L 274.838991 367.465879 
L 280.675485 365.99605 
L 283.732696 365.589999 
L 286.789907 365.141166 
L 289.013334 364.590313 
L 291.514688 363.731696 
L 294.016043 362.637448 
L 295.96154 361.566922 
L 297.907038 360.229241 
L 299.852536 358.5833 
L 301.798034 356.631919 
L 304.021461 354.058371 
L 306.244887 351.134449 
L 308.468313 347.853199 
L 310.969668 343.754848 
L 313.74895 338.783475 
L 316.528233 333.364419 
L 318.751659 328.522446 
L 320.697157 323.745483 
L 322.642655 318.383207 
L 324.866082 311.534101 
L 327.089508 303.896078 
L 329.035006 296.424382 
L 330.980504 288.004856 
L 332.926002 278.52025 
L 335.149428 266.542386 
L 339.874209 239.413227 
L 344.043133 214.666634 
L 346.266559 200.049662 
L 348.767914 181.898323 
L 353.492694 146.799422 
L 355.160264 136.100641 
L 356.827834 126.729035 
L 358.773332 117.05672 
L 363.498112 94.141259 
L 368.77875 67.298816 
L 370.446319 60.155736 
L 371.835961 55.058459 
L 373.225602 50.785236 
L 374.615243 47.321341 
L 375.726957 45.095123 
L 376.83867 43.304023 
L 377.950383 41.89156 
L 379.062096 40.798221 
L 380.173809 39.970905 
L 381.285522 39.372322 
L 382.397235 38.987665 
L 383.508948 38.827063 
L 384.620662 38.924197 
L 385.454446 39.197826 
L 386.288231 39.674899 
L 387.122016 40.387833 
L 387.955801 41.371399 
L 388.789586 42.66067 
L 389.623371 44.288178 
L 390.735084 47.028401 
L 391.846797 50.447234 
L 393.236438 55.642935 
L 394.904008 62.996062 
L 401.852215 95.362469 
L 407.41078 118.340146 
L 409.07835 126.703857 
L 410.74592 136.249724 
L 412.691418 148.802563 
L 415.192772 166.524096 
L 422.696836 220.65706 
L 425.476119 238.681195 
L 427.977473 253.46809 
L 430.478828 266.985672 
L 433.25811 280.835958 
L 436.037393 293.603794 
L 438.260819 302.754907 
L 439.928389 308.733739 
L 441.595959 313.823945 
L 442.9856 317.39724 
L 444.65317 321.012875 
L 446.598668 324.613046 
L 452.157233 334.451469 
L 454.936516 340.06153 
L 459.10544 348.556654 
L 461.050938 351.985277 
L 462.718508 354.471398 
L 464.386078 356.524915 
L 466.053647 358.20207 
L 467.999145 359.817038 
L 470.778428 361.796051 
L 474.391496 364.111034 
L 476.614922 365.281777 
L 478.282492 365.930017 
L 479.950061 366.342481 
L 481.617631 366.527126 
L 483.563129 366.518751 
L 490.511336 366.249413 
L 493.01269 366.526763 
L 496.903686 367.236274 
L 502.184324 368.146479 
L 506.075319 368.585233 
L 509.688387 368.757506 
L 516.080738 368.753762 
L 523.306873 368.897857 
L 531.366793 368.957118 
L 539.704641 368.80901 
L 543.317709 368.760358 
L 543.317709 368.760358 
" clip-path="url(#p4121f8e636)" style="fill: none; stroke: #0000ff; stroke-width: 1.5; stroke-linecap: square"/>
   </g>
   <g id="line2d_33">
    <path d="M 330.447381 245.085482 
L 332.977747 194.565661 
L 334.348361 171.761288 
L 335.40268 157.540916 
L 336.351568 147.388415 
L 337.195023 140.394671 
L 338.038478 135.12936 
L 338.776501 131.74486 
L 339.514525 129.30056 
L 340.252548 127.597984 
L 340.990571 126.446865 
L 341.728595 125.676341 
L 342.677482 125.017228 
L 344.891552 123.891037 
L 347.527349 122.373234 
L 349.21426 121.521914 
L 350.584875 121.077726 
L 351.955489 120.866757 
L 354.169559 120.798126 
L 359.652018 120.838425 
L 360.811769 121.203244 
L 361.866088 121.769582 
L 363.025839 122.649579 
L 364.607318 124.167008 
L 367.032252 126.51433 
L 368.086571 127.245525 
L 369.035458 127.64161 
L 369.878913 127.751868 
L 370.722368 127.623068 
L 371.565824 127.259413 
L 372.514711 126.590683 
L 373.56903 125.570071 
L 374.939645 123.910686 
L 377.153715 120.804299 
L 380.000376 116.872322 
L 381.687287 114.906523 
L 383.268765 113.406658 
L 384.63938 112.393269 
L 386.009995 111.658319 
L 387.275177 111.243329 
L 388.434928 111.097815 
L 389.594679 111.178666 
L 390.859862 111.507711 
L 392.230477 112.104134 
L 393.811956 113.034517 
L 395.498866 114.276424 
L 396.974913 115.61851 
L 398.345527 117.15482 
L 399.716142 119.025317 
L 401.297621 121.578406 
L 405.198601 128.110931 
L 406.147488 129.204862 
L 406.990944 129.83948 
L 407.623535 130.071576 
L 408.256126 130.077374 
L 408.888718 129.850358 
L 409.521309 129.393286 
L 410.259333 128.58622 
L 411.20822 127.17203 
L 412.473403 124.810153 
L 416.058087 117.812088 
L 417.217838 116.14995 
L 418.272157 115.02155 
L 419.221045 114.304144 
L 420.169932 113.836298 
L 421.224251 113.569155 
L 422.173138 113.540955 
L 423.122025 113.740417 
L 423.860048 114.104472 
L 424.598072 114.725011 
L 425.230663 115.53446 
L 425.863254 116.682352 
L 426.495846 118.261656 
L 427.233869 120.789861 
L 427.971893 124.227982 
L 428.709916 128.758628 
L 429.553371 135.492296 
L 430.396826 144.082515 
L 431.345714 156.117283 
L 432.400033 172.428205 
L 433.665215 195.639556 
L 435.56299 235.318308 
L 435.773854 239.879134 
L 435.773854 239.879134 
" clip-path="url(#p4121f8e636)" style="fill: none; stroke: #008000; stroke-width: 1.5; stroke-linecap: square"/>
   </g>
   <g id="patch_3">
    <path d="M 50.14375 385.478125 
L 50.14375 22.318125 
" style="fill: none; stroke: #000000; stroke-width: 0.8; stroke-linejoin: miter; stroke-linecap: square"/>
   </g>
   <g id="patch_4">
    <path d="M 849.32375 385.478125 
L 849.32375 22.318125 
" style="fill: none; stroke: #000000; stroke-width: 0.8; stroke-linejoin: miter; stroke-linecap: square"/>
   </g>
   <g id="patch_5">
    <path d="M 50.14375 385.478125 
L 849.32375 385.478125 
" style="fill: none; stroke: #000000; stroke-width: 0.8; stroke-linejoin: miter; stroke-linecap: square"/>
   </g>
   <g id="patch_6">
    <path d="M 50.14375 22.318125 
L 849.32375 22.318125 
" style="fill: none; stroke: #000000; stroke-width: 0.8; stroke-linejoin: miter; stroke-linecap: square"/>
   </g>
   <g id="text_18">
    <!-- Comparison of Kurtosis -->
    <g transform="translate(380.367188 16.318125) scale(0.12 -0.12)">
     <defs>
      <path id="DejaVuSans-43" d="M 4122 4306 
L 4122 3641 
Q 3803 3938 3442 4084 
Q 3081 4231 2675 4231 
Q 1875 4231 1450 3742 
Q 1025 3253 1025 2328 
Q 1025 1406 1450 917 
Q 1875 428 2675 428 
Q 3081 428 3442 575 
Q 3803 722 4122 1019 
L 4122 359 
Q 3791 134 3420 21 
Q 3050 -91 2638 -91 
Q 1578 -91 968 557 
Q 359 1206 359 2328 
Q 359 3453 968 4101 
Q 1578 4750 2638 4750 
Q 3056 4750 3426 4639 
Q 3797 4528 4122 4306 
z
" transform="scale(0.015625)"/>
      <path id="DejaVuSans-6f" d="M 1959 3097 
Q 1497 3097 1228 2736 
Q 959 2375 959 1747 
Q 959 1119 1226 758 
Q 1494 397 1959 397 
Q 2419 397 2687 759 
Q 2956 1122 2956 1747 
Q 2956 2369 2687 2733 
Q 2419 3097 1959 3097 
z
M 1959 3584 
Q 2709 3584 3137 3096 
Q 3566 2609 3566 1747 
Q 3566 888 3137 398 
Q 2709 -91 1959 -91 
Q 1206 -91 779 398 
Q 353 888 353 1747 
Q 353 2609 779 3096 
Q 1206 3584 1959 3584 
z
" transform="scale(0.015625)"/>
      <path id="DejaVuSans-6d" d="M 3328 2828 
Q 3544 3216 3844 3400 
Q 4144 3584 4550 3584 
Q 5097 3584 5394 3201 
Q 5691 2819 5691 2113 
L 5691 0 
L 5113 0 
L 5113 2094 
Q 5113 2597 4934 2840 
Q 4756 3084 4391 3084 
Q 3944 3084 3684 2787 
Q 3425 2491 3425 1978 
L 3425 0 
L 2847 0 
L 2847 2094 
Q 2847 2600 2669 2842 
Q 2491 3084 2119 3084 
Q 1678 3084 1418 2786 
Q 1159 2488 1159 1978 
L 1159 0 
L 581 0 
L 581 3500 
L 1159 3500 
L 1159 2956 
Q 1356 3278 1631 3431 
Q 1906 3584 2284 3584 
Q 2666 3584 2933 3390 
Q 3200 3197 3328 2828 
z
" transform="scale(0.015625)"/>
      <path id="DejaVuSans-70" d="M 1159 525 
L 1159 -1331 
L 581 -1331 
L 581 3500 
L 1159 3500 
L 1159 2969 
Q 1341 3281 1617 3432 
Q 1894 3584 2278 3584 
Q 2916 3584 3314 3078 
Q 3713 2572 3713 1747 
Q 3713 922 3314 415 
Q 2916 -91 2278 -91 
Q 1894 -91 1617 61 
Q 1341 213 1159 525 
z
M 3116 1747 
Q 3116 2381 2855 2742 
Q 2594 3103 2138 3103 
Q 1681 3103 1420 2742 
Q 1159 2381 1159 1747 
Q 1159 1113 1420 752 
Q 1681 391 2138 391 
Q 2594 391 2855 752 
Q 3116 1113 3116 1747 
z
" transform="scale(0.015625)"/>
      <path id="DejaVuSans-72" d="M 2631 2963 
Q 2534 3019 2420 3045 
Q 2306 3072 2169 3072 
Q 1681 3072 1420 2755 
Q 1159 2438 1159 1844 
L 1159 0 
L 581 0 
L 581 3500 
L 1159 3500 
L 1159 2956 
Q 1341 3275 1631 3429 
Q 1922 3584 2338 3584 
Q 2397 3584 2469 3576 
Q 2541 3569 2628 3553 
L 2631 2963 
z
" transform="scale(0.015625)"/>
      <path id="DejaVuSans-20" transform="scale(0.015625)"/>
      <path id="DejaVuSans-66" d="M 2375 4863 
L 2375 4384 
L 1825 4384 
Q 1516 4384 1395 4259 
Q 1275 4134 1275 3809 
L 1275 3500 
L 2222 3500 
L 2222 3053 
L 1275 3053 
L 1275 0 
L 697 0 
L 697 3053 
L 147 3053 
L 147 3500 
L 697 3500 
L 697 3744 
Q 697 4328 969 4595 
Q 1241 4863 1831 4863 
L 2375 4863 
z
" transform="scale(0.015625)"/>
      <path id="DejaVuSans-4b" d="M 628 4666 
L 1259 4666 
L 1259 2694 
L 3353 4666 
L 4166 4666 
L 1850 2491 
L 4331 0 
L 3500 0 
L 1259 2247 
L 1259 0 
L 628 0 
L 628 4666 
z
" transform="scale(0.015625)"/>
     </defs>
     <use xlink:href="#DejaVuSans-43"/>
     <use xlink:href="#DejaVuSans-6f" x="69.824219"/>
     <use xlink:href="#DejaVuSans-6d" x="131.005859"/>
     <use xlink:href="#DejaVuSans-70" x="228.417969"/>
     <use xlink:href="#DejaVuSans-61" x="291.894531"/>
     <use xlink:href="#DejaVuSans-72" x="353.173828"/>
     <use xlink:href="#DejaVuSans-69" x="394.287109"/>
     <use xlink:href="#DejaVuSans-73" x="422.070312"/>
     <use xlink:href="#DejaVuSans-6f" x="474.169922"/>
     <use xlink:href="#DejaVuSans-6e" x="535.351562"/>
     <use xlink:href="#DejaVuSans-20" x="598.730469"/>
     <use xlink:href="#DejaVuSans-6f" x="630.517578"/>
     <use xlink:href="#DejaVuSans-66" x="691.699219"/>
     <use xlink:href="#DejaVuSans-20" x="726.904297"/>
     <use xlink:href="#DejaVuSans-4b" x="758.691406"/>
     <use xlink:href="#DejaVuSans-75" x="819.267578"/>
     <use xlink:href="#DejaVuSans-72" x="882.646484"/>
     <use xlink:href="#DejaVuSans-74" x="923.759766"/>
     <use xlink:href="#DejaVuSans-6f" x="962.96875"/>
     <use xlink:href="#DejaVuSans-73" x="1024.150391"/>
     <use xlink:href="#DejaVuSans-69" x="1076.25"/>
     <use xlink:href="#DejaVuSans-73" x="1104.033203"/>
    </g>
   </g>
   <g id="legend_1">
    <g id="patch_7">
     <path d="M 642.564375 107.945938 
L 842.32375 107.945938 
Q 844.32375 107.945938 844.32375 105.945938 
L 844.32375 29.318125 
Q 844.32375 27.318125 842.32375 27.318125 
L 642.564375 27.318125 
Q 640.564375 27.318125 640.564375 29.318125 
L 640.564375 105.945938 
Q 640.564375 107.945938 642.564375 107.945938 
z
" style="fill: #ffffff; opacity: 0.8; stroke: #cccccc; stroke-linejoin: miter"/>
    </g>
    <g id="line2d_34">
     <path d="M 644.564375 42.055313 
L 654.564375 42.055313 
L 664.564375 42.055313 
" style="fill: none; stroke: #ff0000; stroke-width: 1.5; stroke-linecap: square"/>
    </g>
    <g id="text_19">
     <!-- Leptokurtic -->
     <g transform="translate(672.564375 38.916562) scale(0.1 -0.1)">
      <defs>
       <path id="DejaVuSans-4c" d="M 628 4666 
L 1259 4666 
L 1259 531 
L 3531 531 
L 3531 0 
L 628 0 
L 628 4666 
z
" transform="scale(0.015625)"/>
       <path id="DejaVuSans-6b" d="M 581 4863 
L 1159 4863 
L 1159 1991 
L 2875 3500 
L 3609 3500 
L 1753 1863 
L 3688 0 
L 2938 0 
L 1159 1709 
L 1159 0 
L 581 0 
L 581 4863 
z
" transform="scale(0.015625)"/>
       <path id="DejaVuSans-63" d="M 3122 3366 
L 3122 2828 
Q 2878 2963 2633 3030 
Q 2388 3097 2138 3097 
Q 1578 3097 1268 2742 
Q 959 2388 959 1747 
Q 959 1106 1268 751 
Q 1578 397 2138 397 
Q 2388 397 2633 464 
Q 2878 531 3122 666 
L 3122 134 
Q 2881 22 2623 -34 
Q 2366 -91 2075 -91 
Q 1284 -91 818 406 
Q 353 903 353 1747 
Q 353 2603 823 3093 
Q 1294 3584 2113 3584 
Q 2378 3584 2631 3529 
Q 2884 3475 3122 3366 
z
" transform="scale(0.015625)"/>
      </defs>
      <use xlink:href="#DejaVuSans-4c"/>
      <use xlink:href="#DejaVuSans-65" x="53.962891"/>
      <use xlink:href="#DejaVuSans-70" x="115.486328"/>
      <use xlink:href="#DejaVuSans-74" x="178.962891"/>
      <use xlink:href="#DejaVuSans-6f" x="218.171875"/>
      <use xlink:href="#DejaVuSans-6b" x="279.353516"/>
      <use xlink:href="#DejaVuSans-75" x="334.138672"/>
      <use xlink:href="#DejaVuSans-72" x="397.517578"/>
      <use xlink:href="#DejaVuSans-74" x="438.630859"/>
      <use xlink:href="#DejaVuSans-69" x="477.839844"/>
      <use xlink:href="#DejaVuSans-63" x="505.623047"/>
     </g>
     <!-- (Skewness: 0.01, Kurtosis: 4.45) -->
     <g transform="translate(672.564375 50.114375) scale(0.1 -0.1)">
      <defs>
       <path id="DejaVuSans-28" d="M 1984 4856 
Q 1566 4138 1362 3434 
Q 1159 2731 1159 2009 
Q 1159 1288 1364 580 
Q 1569 -128 1984 -844 
L 1484 -844 
Q 1016 -109 783 600 
Q 550 1309 550 2009 
Q 550 2706 781 3412 
Q 1013 4119 1484 4856 
L 1984 4856 
z
" transform="scale(0.015625)"/>
       <path id="DejaVuSans-53" d="M 3425 4513 
L 3425 3897 
Q 3066 4069 2747 4153 
Q 2428 4238 2131 4238 
Q 1616 4238 1336 4038 
Q 1056 3838 1056 3469 
Q 1056 3159 1242 3001 
Q 1428 2844 1947 2747 
L 2328 2669 
Q 3034 2534 3370 2195 
Q 3706 1856 3706 1288 
Q 3706 609 3251 259 
Q 2797 -91 1919 -91 
Q 1588 -91 1214 -16 
Q 841 59 441 206 
L 441 856 
Q 825 641 1194 531 
Q 1563 422 1919 422 
Q 2459 422 2753 634 
Q 3047 847 3047 1241 
Q 3047 1584 2836 1778 
Q 2625 1972 2144 2069 
L 1759 2144 
Q 1053 2284 737 2584 
Q 422 2884 422 3419 
Q 422 4038 858 4394 
Q 1294 4750 2059 4750 
Q 2388 4750 2728 4690 
Q 3069 4631 3425 4513 
z
" transform="scale(0.015625)"/>
       <path id="DejaVuSans-77" d="M 269 3500 
L 844 3500 
L 1563 769 
L 2278 3500 
L 2956 3500 
L 3675 769 
L 4391 3500 
L 4966 3500 
L 4050 0 
L 3372 0 
L 2619 2869 
L 1863 0 
L 1184 0 
L 269 3500 
z
" transform="scale(0.015625)"/>
       <path id="DejaVuSans-3a" d="M 750 794 
L 1409 794 
L 1409 0 
L 750 0 
L 750 794 
z
M 750 3309 
L 1409 3309 
L 1409 2516 
L 750 2516 
L 750 3309 
z
" transform="scale(0.015625)"/>
       <path id="DejaVuSans-2c" d="M 750 794 
L 1409 794 
L 1409 256 
L 897 -744 
L 494 -744 
L 750 256 
L 750 794 
z
" transform="scale(0.015625)"/>
       <path id="DejaVuSans-29" d="M 513 4856 
L 1013 4856 
Q 1481 4119 1714 3412 
Q 1947 2706 1947 2009 
Q 1947 1309 1714 600 
Q 1481 -109 1013 -844 
L 513 -844 
Q 928 -128 1133 580 
Q 1338 1288 1338 2009 
Q 1338 2731 1133 3434 
Q 928 4138 513 4856 
z
" transform="scale(0.015625)"/>
      </defs>
      <use xlink:href="#DejaVuSans-28"/>
      <use xlink:href="#DejaVuSans-53" x="39.013672"/>
      <use xlink:href="#DejaVuSans-6b" x="102.490234"/>
      <use xlink:href="#DejaVuSans-65" x="156.775391"/>
      <use xlink:href="#DejaVuSans-77" x="218.298828"/>
      <use xlink:href="#DejaVuSans-6e" x="300.085938"/>
      <use xlink:href="#DejaVuSans-65" x="363.464844"/>
      <use xlink:href="#DejaVuSans-73" x="424.988281"/>
      <use xlink:href="#DejaVuSans-73" x="477.087891"/>
      <use xlink:href="#DejaVuSans-3a" x="529.1875"/>
      <use xlink:href="#DejaVuSans-20" x="562.878906"/>
      <use xlink:href="#DejaVuSans-30" x="594.666016"/>
      <use xlink:href="#DejaVuSans-2e" x="658.289062"/>
      <use xlink:href="#DejaVuSans-30" x="690.076172"/>
      <use xlink:href="#DejaVuSans-31" x="753.699219"/>
      <use xlink:href="#DejaVuSans-2c" x="817.322266"/>
      <use xlink:href="#DejaVuSans-20" x="849.109375"/>
      <use xlink:href="#DejaVuSans-4b" x="880.896484"/>
      <use xlink:href="#DejaVuSans-75" x="941.472656"/>
      <use xlink:href="#DejaVuSans-72" x="1004.851562"/>
      <use xlink:href="#DejaVuSans-74" x="1045.964844"/>
      <use xlink:href="#DejaVuSans-6f" x="1085.173828"/>
      <use xlink:href="#DejaVuSans-73" x="1146.355469"/>
      <use xlink:href="#DejaVuSans-69" x="1198.455078"/>
      <use xlink:href="#DejaVuSans-73" x="1226.238281"/>
      <use xlink:href="#DejaVuSans-3a" x="1278.337891"/>
      <use xlink:href="#DejaVuSans-20" x="1312.029297"/>
      <use xlink:href="#DejaVuSans-34" x="1343.816406"/>
      <use xlink:href="#DejaVuSans-2e" x="1407.439453"/>
      <use xlink:href="#DejaVuSans-34" x="1439.226562"/>
      <use xlink:href="#DejaVuSans-35" x="1502.849609"/>
      <use xlink:href="#DejaVuSans-29" x="1566.472656"/>
     </g>
    </g>
    <g id="line2d_35">
     <path d="M 644.564375 67.93125 
L 654.564375 67.93125 
L 664.564375 67.93125 
" style="fill: none; stroke: #0000ff; stroke-width: 1.5; stroke-linecap: square"/>
    </g>
    <g id="text_20">
     <!-- Mesokurtic -->
     <g transform="translate(672.564375 64.7925) scale(0.1 -0.1)">
      <defs>
       <path id="DejaVuSans-4d" d="M 628 4666 
L 1569 4666 
L 2759 1491 
L 3956 4666 
L 4897 4666 
L 4897 0 
L 4281 0 
L 4281 4097 
L 3078 897 
L 2444 897 
L 1241 4097 
L 1241 0 
L 628 0 
L 628 4666 
z
" transform="scale(0.015625)"/>
      </defs>
      <use xlink:href="#DejaVuSans-4d"/>
      <use xlink:href="#DejaVuSans-65" x="86.279297"/>
      <use xlink:href="#DejaVuSans-73" x="147.802734"/>
      <use xlink:href="#DejaVuSans-6f" x="199.902344"/>
      <use xlink:href="#DejaVuSans-6b" x="261.083984"/>
      <use xlink:href="#DejaVuSans-75" x="315.869141"/>
      <use xlink:href="#DejaVuSans-72" x="379.248047"/>
      <use xlink:href="#DejaVuSans-74" x="420.361328"/>
      <use xlink:href="#DejaVuSans-69" x="459.570312"/>
      <use xlink:href="#DejaVuSans-63" x="487.353516"/>
     </g>
     <!-- (Skewness: 0.05, Kurtosis: 0.19) -->
     <g transform="translate(672.564375 75.990312) scale(0.1 -0.1)">
      <defs>
       <path id="DejaVuSans-39" d="M 703 97 
L 703 672 
Q 941 559 1184 500 
Q 1428 441 1663 441 
Q 2288 441 2617 861 
Q 2947 1281 2994 2138 
Q 2813 1869 2534 1725 
Q 2256 1581 1919 1581 
Q 1219 1581 811 2004 
Q 403 2428 403 3163 
Q 403 3881 828 4315 
Q 1253 4750 1959 4750 
Q 2769 4750 3195 4129 
Q 3622 3509 3622 2328 
Q 3622 1225 3098 567 
Q 2575 -91 1691 -91 
Q 1453 -91 1209 -44 
Q 966 3 703 97 
z
M 1959 2075 
Q 2384 2075 2632 2365 
Q 2881 2656 2881 3163 
Q 2881 3666 2632 3958 
Q 2384 4250 1959 4250 
Q 1534 4250 1286 3958 
Q 1038 3666 1038 3163 
Q 1038 2656 1286 2365 
Q 1534 2075 1959 2075 
z
" transform="scale(0.015625)"/>
      </defs>
      <use xlink:href="#DejaVuSans-28"/>
      <use xlink:href="#DejaVuSans-53" x="39.013672"/>
      <use xlink:href="#DejaVuSans-6b" x="102.490234"/>
      <use xlink:href="#DejaVuSans-65" x="156.775391"/>
      <use xlink:href="#DejaVuSans-77" x="218.298828"/>
      <use xlink:href="#DejaVuSans-6e" x="300.085938"/>
      <use xlink:href="#DejaVuSans-65" x="363.464844"/>
      <use xlink:href="#DejaVuSans-73" x="424.988281"/>
      <use xlink:href="#DejaVuSans-73" x="477.087891"/>
      <use xlink:href="#DejaVuSans-3a" x="529.1875"/>
      <use xlink:href="#DejaVuSans-20" x="562.878906"/>
      <use xlink:href="#DejaVuSans-30" x="594.666016"/>
      <use xlink:href="#DejaVuSans-2e" x="658.289062"/>
      <use xlink:href="#DejaVuSans-30" x="690.076172"/>
      <use xlink:href="#DejaVuSans-35" x="753.699219"/>
      <use xlink:href="#DejaVuSans-2c" x="817.322266"/>
      <use xlink:href="#DejaVuSans-20" x="849.109375"/>
      <use xlink:href="#DejaVuSans-4b" x="880.896484"/>
      <use xlink:href="#DejaVuSans-75" x="941.472656"/>
      <use xlink:href="#DejaVuSans-72" x="1004.851562"/>
      <use xlink:href="#DejaVuSans-74" x="1045.964844"/>
      <use xlink:href="#DejaVuSans-6f" x="1085.173828"/>
      <use xlink:href="#DejaVuSans-73" x="1146.355469"/>
      <use xlink:href="#DejaVuSans-69" x="1198.455078"/>
      <use xlink:href="#DejaVuSans-73" x="1226.238281"/>
      <use xlink:href="#DejaVuSans-3a" x="1278.337891"/>
      <use xlink:href="#DejaVuSans-20" x="1312.029297"/>
      <use xlink:href="#DejaVuSans-30" x="1343.816406"/>
      <use xlink:href="#DejaVuSans-2e" x="1407.439453"/>
      <use xlink:href="#DejaVuSans-31" x="1439.226562"/>
      <use xlink:href="#DejaVuSans-39" x="1502.849609"/>
      <use xlink:href="#DejaVuSans-29" x="1566.472656"/>
     </g>
    </g>
    <g id="line2d_36">
     <path d="M 644.564375 93.807187 
L 654.564375 93.807187 
L 664.564375 93.807187 
" style="fill: none; stroke: #008000; stroke-width: 1.5; stroke-linecap: square"/>
    </g>
    <g id="text_21">
     <!-- Platykurtic -->
     <g transform="translate(672.564375 90.668437) scale(0.1 -0.1)">
      <defs>
       <path id="DejaVuSans-50" d="M 1259 4147 
L 1259 2394 
L 2053 2394 
Q 2494 2394 2734 2622 
Q 2975 2850 2975 3272 
Q 2975 3691 2734 3919 
Q 2494 4147 2053 4147 
L 1259 4147 
z
M 628 4666 
L 2053 4666 
Q 2838 4666 3239 4311 
Q 3641 3956 3641 3272 
Q 3641 2581 3239 2228 
Q 2838 1875 2053 1875 
L 1259 1875 
L 1259 0 
L 628 0 
L 628 4666 
z
" transform="scale(0.015625)"/>
      </defs>
      <use xlink:href="#DejaVuSans-50"/>
      <use xlink:href="#DejaVuSans-6c" x="60.302734"/>
      <use xlink:href="#DejaVuSans-61" x="88.085938"/>
      <use xlink:href="#DejaVuSans-74" x="149.365234"/>
      <use xlink:href="#DejaVuSans-79" x="188.574219"/>
      <use xlink:href="#DejaVuSans-6b" x="247.753906"/>
      <use xlink:href="#DejaVuSans-75" x="302.539062"/>
      <use xlink:href="#DejaVuSans-72" x="365.917969"/>
      <use xlink:href="#DejaVuSans-74" x="407.03125"/>
      <use xlink:href="#DejaVuSans-69" x="446.240234"/>
      <use xlink:href="#DejaVuSans-63" x="474.023438"/>
     </g>
     <!-- (Skewness: -0.01, Kurtosis: -1.20) -->
     <g transform="translate(672.564375 101.86625) scale(0.1 -0.1)">
      <defs>
       <path id="DejaVuSans-2d" d="M 313 2009 
L 1997 2009 
L 1997 1497 
L 313 1497 
L 313 2009 
z
" transform="scale(0.015625)"/>
      </defs>
      <use xlink:href="#DejaVuSans-28"/>
      <use xlink:href="#DejaVuSans-53" x="39.013672"/>
      <use xlink:href="#DejaVuSans-6b" x="102.490234"/>
      <use xlink:href="#DejaVuSans-65" x="156.775391"/>
      <use xlink:href="#DejaVuSans-77" x="218.298828"/>
      <use xlink:href="#DejaVuSans-6e" x="300.085938"/>
      <use xlink:href="#DejaVuSans-65" x="363.464844"/>
      <use xlink:href="#DejaVuSans-73" x="424.988281"/>
      <use xlink:href="#DejaVuSans-73" x="477.087891"/>
      <use xlink:href="#DejaVuSans-3a" x="529.1875"/>
      <use xlink:href="#DejaVuSans-20" x="562.878906"/>
      <use xlink:href="#DejaVuSans-2d" x="594.666016"/>
      <use xlink:href="#DejaVuSans-30" x="630.75"/>
      <use xlink:href="#DejaVuSans-2e" x="694.373047"/>
      <use xlink:href="#DejaVuSans-30" x="726.160156"/>
      <use xlink:href="#DejaVuSans-31" x="789.783203"/>
      <use xlink:href="#DejaVuSans-2c" x="853.40625"/>
      <use xlink:href="#DejaVuSans-20" x="885.193359"/>
      <use xlink:href="#DejaVuSans-4b" x="916.980469"/>
      <use xlink:href="#DejaVuSans-75" x="977.556641"/>
      <use xlink:href="#DejaVuSans-72" x="1040.935547"/>
      <use xlink:href="#DejaVuSans-74" x="1082.048828"/>
      <use xlink:href="#DejaVuSans-6f" x="1121.257812"/>
      <use xlink:href="#DejaVuSans-73" x="1182.439453"/>
      <use xlink:href="#DejaVuSans-69" x="1234.539062"/>
      <use xlink:href="#DejaVuSans-73" x="1262.322266"/>
      <use xlink:href="#DejaVuSans-3a" x="1314.421875"/>
      <use xlink:href="#DejaVuSans-20" x="1348.113281"/>
      <use xlink:href="#DejaVuSans-2d" x="1379.900391"/>
      <use xlink:href="#DejaVuSans-31" x="1415.984375"/>
      <use xlink:href="#DejaVuSans-2e" x="1479.607422"/>
      <use xlink:href="#DejaVuSans-32" x="1511.394531"/>
      <use xlink:href="#DejaVuSans-30" x="1575.017578"/>
      <use xlink:href="#DejaVuSans-29" x="1638.640625"/>
     </g>
    </g>
   </g>
  </g>
 </g>
 <defs>
  <clipPath id="p4121f8e636">
   <rect x="50.14375" y="22.318125" width="799.18" height="363.16"/>
  </clipPath>
 </defs>
</svg>