<?xml version="1.0" encoding="utf-8" standalone="no"?>
<!DOCTYPE svg PUBLIC "-//W3C//DTD SVG 1.1//EN"
  "http://www.w3.org/Graphics/SVG/1.1/DTD/svg11.dtd">
<svg xmlns:xlink="http://www.w3.org/1999/xlink" width="419.861504pt" height="325.986375pt" viewBox="0 0 419.861504 325.986375" xmlns="http://www.w3.org/2000/svg" version="1.1">
 <metadata>
  <rdf:RDF xmlns:dc="http://purl.org/dc/elements/1.1/" xmlns:cc="http://creativecommons.org/ns#" xmlns:rdf="http://www.w3.org/1999/02/22-rdf-syntax-ns#">
   <cc:Work>
    <dc:type rdf:resource="http://purl.org/dc/dcmitype/StillImage"/>
    <dc:date>2024-10-30T07:00:06.562265</dc:date>
    <dc:format>image/svg+xml</dc:format>
    <dc:creator>
     <cc:Agent>
      <dc:title>Matplotlib v3.9.0, https://matplotlib.org/</dc:title>
     </cc:Agent>
    </dc:creator>
   </cc:Work>
  </rdf:RDF>
 </metadata>
 <defs>
  <style type="text/css">*{stroke-linejoin: round; stroke-linecap: butt}</style>
 </defs>
 <g id="figure_1">
  <g id="patch_1">
   <path d="M 0 325.986375 
L 419.861504 325.986375 
L 419.861504 0 
L 0 0 
z
" style="fill: #ffffff"/>
  </g>
  <g id="axes_1">
   <g id="patch_2">
    <path d="M 52.160938 288.430125 
L 409.280938 288.430125 
L 409.280938 22.318125 
L 52.160938 22.318125 
z
" style="fill: #ffffff"/>
   </g>
   <g id="PathCollection_1">
    <defs>
     <path id="ma9f4197521" d="M 0 3 
C 0.795609 3 1.55874 2.683901 2.12132 2.12132 
C 2.683901 1.55874 3 0.795609 3 0 
C 3 -0.795609 2.683901 -1.55874 2.12132 -2.12132 
C 1.55874 -2.683901 0.795609 -3 0 -3 
C -0.795609 -3 -1.55874 -2.683901 -2.12132 -2.12132 
C -2.683901 -1.55874 -3 -0.795609 -3 0 
C -3 0.795609 -2.683901 1.55874 -2.12132 2.12132 
C -1.55874 2.683901 -0.795609 3 0 3 
z
" style="stroke: #1f77b4"/>
    </defs>
    <g clip-path="url(#pa13590caba)">
     <use xlink:href="#ma9f4197521" x="190.471988" y="163.322379" style="fill: #1f77b4; stroke: #1f77b4"/>
     <use xlink:href="#ma9f4197521" x="381.081602" y="170.266483" style="fill: #1f77b4; stroke: #1f77b4"/>
     <use xlink:href="#ma9f4197521" x="308.724656" y="153.631675" style="fill: #1f77b4; stroke: #1f77b4"/>
     <use xlink:href="#ma9f4197521" x="264.614697" y="276.334125" style="fill: #1f77b4; stroke: #1f77b4"/>
     <use xlink:href="#ma9f4197521" x="118.180838" y="186.66272" style="fill: #1f77b4; stroke: #1f77b4"/>
     <use xlink:href="#ma9f4197521" x="118.172859" y="153.601715" style="fill: #1f77b4; stroke: #1f77b4"/>
     <use xlink:href="#ma9f4197521" x="85.782028" y="91.93822" style="fill: #1f77b4; stroke: #1f77b4"/>
     <use xlink:href="#ma9f4197521" x="353.114736" y="185.062726" style="fill: #1f77b4; stroke: #1f77b4"/>
     <use xlink:href="#ma9f4197521" x="265.427364" y="208.684059" style="fill: #1f77b4; stroke: #1f77b4"/>
     <use xlink:href="#ma9f4197521" x="300.811004" y="188.282918" style="fill: #1f77b4; stroke: #1f77b4"/>
     <use xlink:href="#ma9f4197521" x="73.376592" y="125.168874" style="fill: #1f77b4; stroke: #1f77b4"/>
     <use xlink:href="#ma9f4197521" x="387.431861" y="133.777091" style="fill: #1f77b4; stroke: #1f77b4"/>
     <use xlink:href="#ma9f4197521" x="341.955037" y="186.610368" style="fill: #1f77b4; stroke: #1f77b4"/>
     <use xlink:href="#ma9f4197521" x="136.812744" y="143.165889" style="fill: #1f77b4; stroke: #1f77b4"/>
     <use xlink:href="#ma9f4197521" x="126.718072" y="167.826335" style="fill: #1f77b4; stroke: #1f77b4"/>
     <use xlink:href="#ma9f4197521" x="127.240616" y="117.825922" style="fill: #1f77b4; stroke: #1f77b4"/>
     <use xlink:href="#ma9f4197521" x="167.216085" y="210.406752" style="fill: #1f77b4; stroke: #1f77b4"/>
     <use xlink:href="#ma9f4197521" x="240.166462" y="183.134894" style="fill: #1f77b4; stroke: #1f77b4"/>
     <use xlink:href="#ma9f4197521" x="209.462644" y="189.274976" style="fill: #1f77b4; stroke: #1f77b4"/>
     <use xlink:href="#ma9f4197521" x="162.911098" y="254.39717" style="fill: #1f77b4; stroke: #1f77b4"/>
     <use xlink:href="#ma9f4197521" x="268.979664" y="145.083918" style="fill: #1f77b4; stroke: #1f77b4"/>
     <use xlink:href="#ma9f4197521" x="112.71412" y="159.542645" style="fill: #1f77b4; stroke: #1f77b4"/>
     <use xlink:href="#ma9f4197521" x="163.213966" y="170.190355" style="fill: #1f77b4; stroke: #1f77b4"/>
     <use xlink:href="#ma9f4197521" x="187.766456" y="181.974185" style="fill: #1f77b4; stroke: #1f77b4"/>
     <use xlink:href="#ma9f4197521" x="217.443651" y="247.293219" style="fill: #1f77b4; stroke: #1f77b4"/>
     <use xlink:href="#ma9f4197521" x="326.318301" y="181.601524" style="fill: #1f77b4; stroke: #1f77b4"/>
     <use xlink:href="#ma9f4197521" x="132.622807" y="192.565091" style="fill: #1f77b4; stroke: #1f77b4"/>
     <use xlink:href="#ma9f4197521" x="236.685582" y="210.617428" style="fill: #1f77b4; stroke: #1f77b4"/>
     <use xlink:href="#ma9f4197521" x="262.549088" y="171.814999" style="fill: #1f77b4; stroke: #1f77b4"/>
     <use xlink:href="#ma9f4197521" x="81.93354" y="153.798162" style="fill: #1f77b4; stroke: #1f77b4"/>
     <use xlink:href="#ma9f4197521" x="267.55448" y="54.05391" style="fill: #1f77b4; stroke: #1f77b4"/>
     <use xlink:href="#ma9f4197521" x="122.979534" y="163.681799" style="fill: #1f77b4; stroke: #1f77b4"/>
     <use xlink:href="#ma9f4197521" x="88.087172" y="161.705434" style="fill: #1f77b4; stroke: #1f77b4"/>
     <use xlink:href="#ma9f4197521" x="380.476609" y="157.442679" style="fill: #1f77b4; stroke: #1f77b4"/>
     <use xlink:href="#ma9f4197521" x="386.016675" y="262.719199" style="fill: #1f77b4; stroke: #1f77b4"/>
     <use xlink:href="#ma9f4197521" x="334.000387" y="158.397679" style="fill: #1f77b4; stroke: #1f77b4"/>
     <use xlink:href="#ma9f4197521" x="167.338993" y="166.702411" style="fill: #1f77b4; stroke: #1f77b4"/>
     <use xlink:href="#ma9f4197521" x="98.878674" y="34.414125" style="fill: #1f77b4; stroke: #1f77b4"/>
     <use xlink:href="#ma9f4197521" x="292.924418" y="171.176423" style="fill: #1f77b4; stroke: #1f77b4"/>
     <use xlink:href="#ma9f4197521" x="212.177836" y="149.297911" style="fill: #1f77b4; stroke: #1f77b4"/>
     <use xlink:href="#ma9f4197521" x="106.93946" y="176.956228" style="fill: #1f77b4; stroke: #1f77b4"/>
     <use xlink:href="#ma9f4197521" x="230.380982" y="232.121998" style="fill: #1f77b4; stroke: #1f77b4"/>
     <use xlink:href="#ma9f4197521" x="77.943232" y="111.769182" style="fill: #1f77b4; stroke: #1f77b4"/>
     <use xlink:href="#ma9f4197521" x="367.387694" y="111.116846" style="fill: #1f77b4; stroke: #1f77b4"/>
     <use xlink:href="#ma9f4197521" x="152.176286" y="126.02033" style="fill: #1f77b4; stroke: #1f77b4"/>
     <use xlink:href="#ma9f4197521" x="285.742082" y="212.849" style="fill: #1f77b4; stroke: #1f77b4"/>
     <use xlink:href="#ma9f4197521" x="169.68692" y="89.558761" style="fill: #1f77b4; stroke: #1f77b4"/>
     <use xlink:href="#ma9f4197521" x="238.615445" y="244.831627" style="fill: #1f77b4; stroke: #1f77b4"/>
     <use xlink:href="#ma9f4197521" x="247.429222" y="130.135504" style="fill: #1f77b4; stroke: #1f77b4"/>
     <use xlink:href="#ma9f4197521" x="127.720286" y="47.752769" style="fill: #1f77b4; stroke: #1f77b4"/>
     <use xlink:href="#ma9f4197521" x="387.32427" y="209.408033" style="fill: #1f77b4; stroke: #1f77b4"/>
     <use xlink:href="#ma9f4197521" x="322.995836" y="190.215092" style="fill: #1f77b4; stroke: #1f77b4"/>
     <use xlink:href="#ma9f4197521" x="377.371341" y="147.710694" style="fill: #1f77b4; stroke: #1f77b4"/>
     <use xlink:href="#ma9f4197521" x="362.593111" y="183.459604" style="fill: #1f77b4; stroke: #1f77b4"/>
     <use xlink:href="#ma9f4197521" x="264.363768" y="251.310423" style="fill: #1f77b4; stroke: #1f77b4"/>
     <use xlink:href="#ma9f4197521" x="371.540746" y="149.95719" style="fill: #1f77b4; stroke: #1f77b4"/>
     <use xlink:href="#ma9f4197521" x="95.84188" y="236.742514" style="fill: #1f77b4; stroke: #1f77b4"/>
     <use xlink:href="#ma9f4197521" x="131.401779" y="145.871145" style="fill: #1f77b4; stroke: #1f77b4"/>
     <use xlink:href="#ma9f4197521" x="81.528907" y="229.692806" style="fill: #1f77b4; stroke: #1f77b4"/>
     <use xlink:href="#ma9f4197521" x="174.192434" y="80.765672" style="fill: #1f77b4; stroke: #1f77b4"/>
     <use xlink:href="#ma9f4197521" x="195.148839" y="212.835956" style="fill: #1f77b4; stroke: #1f77b4"/>
     <use xlink:href="#ma9f4197521" x="156.334372" y="189.492284" style="fill: #1f77b4; stroke: #1f77b4"/>
     <use xlink:href="#ma9f4197521" x="340.729308" y="109.710523" style="fill: #1f77b4; stroke: #1f77b4"/>
     <use xlink:href="#ma9f4197521" x="184.587772" y="239.334636" style="fill: #1f77b4; stroke: #1f77b4"/>
     <use xlink:href="#ma9f4197521" x="159.505434" y="157.740755" style="fill: #1f77b4; stroke: #1f77b4"/>
     <use xlink:href="#ma9f4197521" x="246.101247" y="88.954077" style="fill: #1f77b4; stroke: #1f77b4"/>
     <use xlink:href="#ma9f4197521" x="113.187312" y="266.61073" style="fill: #1f77b4; stroke: #1f77b4"/>
     <use xlink:href="#ma9f4197521" x="331.949185" y="146.457968" style="fill: #1f77b4; stroke: #1f77b4"/>
     <use xlink:href="#ma9f4197521" x="91.229642" y="161.321397" style="fill: #1f77b4; stroke: #1f77b4"/>
     <use xlink:href="#ma9f4197521" x="393.04821" y="107.359316" style="fill: #1f77b4; stroke: #1f77b4"/>
     <use xlink:href="#ma9f4197521" x="322.040412" y="228.733449" style="fill: #1f77b4; stroke: #1f77b4"/>
     <use xlink:href="#ma9f4197521" x="132.305849" y="248.635122" style="fill: #1f77b4; stroke: #1f77b4"/>
     <use xlink:href="#ma9f4197521" x="68.393665" y="148.119238" style="fill: #1f77b4; stroke: #1f77b4"/>
     <use xlink:href="#ma9f4197521" x="336.337322" y="139.668372" style="fill: #1f77b4; stroke: #1f77b4"/>
     <use xlink:href="#ma9f4197521" x="300.408981" y="145.195517" style="fill: #1f77b4; stroke: #1f77b4"/>
     <use xlink:href="#ma9f4197521" x="307.736573" y="139.111549" style="fill: #1f77b4; stroke: #1f77b4"/>
     <use xlink:href="#ma9f4197521" x="321.718054" y="196.835787" style="fill: #1f77b4; stroke: #1f77b4"/>
     <use xlink:href="#ma9f4197521" x="91.06225" y="162.918449" style="fill: #1f77b4; stroke: #1f77b4"/>
     <use xlink:href="#ma9f4197521" x="185.154267" y="151.936508" style="fill: #1f77b4; stroke: #1f77b4"/>
     <use xlink:href="#ma9f4197521" x="104.898577" y="216.076178" style="fill: #1f77b4; stroke: #1f77b4"/>
     <use xlink:href="#ma9f4197521" x="352.09822" y="48.488789" style="fill: #1f77b4; stroke: #1f77b4"/>
     <use xlink:href="#ma9f4197521" x="272.765969" y="134.595686" style="fill: #1f77b4; stroke: #1f77b4"/>
     <use xlink:href="#ma9f4197521" x="176.034336" y="237.748388" style="fill: #1f77b4; stroke: #1f77b4"/>
     <use xlink:href="#ma9f4197521" x="87.593178" y="138.873677" style="fill: #1f77b4; stroke: #1f77b4"/>
     <use xlink:href="#ma9f4197521" x="169.445834" y="225.85636" style="fill: #1f77b4; stroke: #1f77b4"/>
     <use xlink:href="#ma9f4197521" x="174.143801" y="124.496568" style="fill: #1f77b4; stroke: #1f77b4"/>
     <use xlink:href="#ma9f4197521" x="307.934738" y="92.542973" style="fill: #1f77b4; stroke: #1f77b4"/>
     <use xlink:href="#ma9f4197521" x="277.483237" y="208.422302" style="fill: #1f77b4; stroke: #1f77b4"/>
     <use xlink:href="#ma9f4197521" x="360.074051" y="99.579433" style="fill: #1f77b4; stroke: #1f77b4"/>
     <use xlink:href="#ma9f4197521" x="222.784711" y="142.076944" style="fill: #1f77b4; stroke: #1f77b4"/>
     <use xlink:href="#ma9f4197521" x="106.130941" y="127.909942" style="fill: #1f77b4; stroke: #1f77b4"/>
     <use xlink:href="#ma9f4197521" x="302.522072" y="50.660238" style="fill: #1f77b4; stroke: #1f77b4"/>
     <use xlink:href="#ma9f4197521" x="318.249314" y="172.198483" style="fill: #1f77b4; stroke: #1f77b4"/>
     <use xlink:href="#ma9f4197521" x="252.248241" y="206.595234" style="fill: #1f77b4; stroke: #1f77b4"/>
     <use xlink:href="#ma9f4197521" x="321.61776" y="208.851856" style="fill: #1f77b4; stroke: #1f77b4"/>
     <use xlink:href="#ma9f4197521" x="229.924016" y="211.931804" style="fill: #1f77b4; stroke: #1f77b4"/>
     <use xlink:href="#ma9f4197521" x="239.497015" y="168.825946" style="fill: #1f77b4; stroke: #1f77b4"/>
     <use xlink:href="#ma9f4197521" x="208.005715" y="147.360118" style="fill: #1f77b4; stroke: #1f77b4"/>
     <use xlink:href="#ma9f4197521" x="74.975982" y="161.652788" style="fill: #1f77b4; stroke: #1f77b4"/>
     <use xlink:href="#ma9f4197521" x="102.259421" y="127.924705" style="fill: #1f77b4; stroke: #1f77b4"/>
    </g>
   </g>
   <g id="matplotlib.axis_1">
    <g id="xtick_1">
     <g id="line2d_1">
      <defs>
       <path id="m4c7838c184" d="M 0 0 
L 0 3.5 
" style="stroke: #000000; stroke-width: 0.8"/>
      </defs>
      <g>
       <use xlink:href="#m4c7838c184" x="62.925226" y="288.430125" style="stroke: #000000; stroke-width: 0.8"/>
      </g>
     </g>
     <g id="text_1">
      <!-- 1.00 -->
      <g transform="translate(51.792413 303.028562) scale(0.1 -0.1)">
       <defs>
        <path id="DejaVuSans-31" d="M 794 531 
L 1825 531 
L 1825 4091 
L 703 3866 
L 703 4441 
L 1819 4666 
L 2450 4666 
L 2450 531 
L 3481 531 
L 3481 0 
L 794 0 
L 794 531 
z
" transform="scale(0.015625)"/>
        <path id="DejaVuSans-2e" d="M 684 794 
L 1344 794 
L 1344 0 
L 684 0 
L 684 794 
z
" transform="scale(0.015625)"/>
        <path id="DejaVuSans-30" d="M 2034 4250 
Q 1547 4250 1301 3770 
Q 1056 3291 1056 2328 
Q 1056 1369 1301 889 
Q 1547 409 2034 409 
Q 2525 409 2770 889 
Q 3016 1369 3016 2328 
Q 3016 3291 2770 3770 
Q 2525 4250 2034 4250 
z
M 2034 4750 
Q 2819 4750 3233 4129 
Q 3647 3509 3647 2328 
Q 3647 1150 3233 529 
Q 2819 -91 2034 -91 
Q 1250 -91 836 529 
Q 422 1150 422 2328 
Q 422 3509 836 4129 
Q 1250 4750 2034 4750 
z
" transform="scale(0.015625)"/>
       </defs>
       <use xlink:href="#DejaVuSans-31"/>
       <use xlink:href="#DejaVuSans-2e" x="63.623047"/>
       <use xlink:href="#DejaVuSans-30" x="95.410156"/>
       <use xlink:href="#DejaVuSans-30" x="159.033203"/>
      </g>
     </g>
    </g>
    <g id="xtick_2">
     <g id="line2d_2">
      <g>
       <use xlink:href="#m4c7838c184" x="105.250659" y="288.430125" style="stroke: #000000; stroke-width: 0.8"/>
      </g>
     </g>
     <g id="text_2">
      <!-- 1.25 -->
      <g transform="translate(94.117847 303.028562) scale(0.1 -0.1)">
       <defs>
        <path id="DejaVuSans-32" d="M 1228 531 
L 3431 531 
L 3431 0 
L 469 0 
L 469 531 
Q 828 903 1448 1529 
Q 2069 2156 2228 2338 
Q 2531 2678 2651 2914 
Q 2772 3150 2772 3378 
Q 2772 3750 2511 3984 
Q 2250 4219 1831 4219 
Q 1534 4219 1204 4116 
Q 875 4013 500 3803 
L 500 4441 
Q 881 4594 1212 4672 
Q 1544 4750 1819 4750 
Q 2544 4750 2975 4387 
Q 3406 4025 3406 3419 
Q 3406 3131 3298 2873 
Q 3191 2616 2906 2266 
Q 2828 2175 2409 1742 
Q 1991 1309 1228 531 
z
" transform="scale(0.015625)"/>
        <path id="DejaVuSans-35" d="M 691 4666 
L 3169 4666 
L 3169 4134 
L 1269 4134 
L 1269 2991 
Q 1406 3038 1543 3061 
Q 1681 3084 1819 3084 
Q 2600 3084 3056 2656 
Q 3513 2228 3513 1497 
Q 3513 744 3044 326 
Q 2575 -91 1722 -91 
Q 1428 -91 1123 -41 
Q 819 9 494 109 
L 494 744 
Q 775 591 1075 516 
Q 1375 441 1709 441 
Q 2250 441 2565 725 
Q 2881 1009 2881 1497 
Q 2881 1984 2565 2268 
Q 2250 2553 1709 2553 
Q 1456 2553 1204 2497 
Q 953 2441 691 2322 
L 691 4666 
z
" transform="scale(0.015625)"/>
       </defs>
       <use xlink:href="#DejaVuSans-31"/>
       <use xlink:href="#DejaVuSans-2e" x="63.623047"/>
       <use xlink:href="#DejaVuSans-32" x="95.410156"/>
       <use xlink:href="#DejaVuSans-35" x="159.033203"/>
      </g>
     </g>
    </g>
    <g id="xtick_3">
     <g id="line2d_3">
      <g>
       <use xlink:href="#m4c7838c184" x="147.576092" y="288.430125" style="stroke: #000000; stroke-width: 0.8"/>
      </g>
     </g>
     <g id="text_3">
      <!-- 1.50 -->
      <g transform="translate(136.44328 303.028562) scale(0.1 -0.1)">
       <use xlink:href="#DejaVuSans-31"/>
       <use xlink:href="#DejaVuSans-2e" x="63.623047"/>
       <use xlink:href="#DejaVuSans-35" x="95.410156"/>
       <use xlink:href="#DejaVuSans-30" x="159.033203"/>
      </g>
     </g>
    </g>
    <g id="xtick_4">
     <g id="line2d_4">
      <g>
       <use xlink:href="#m4c7838c184" x="189.901526" y="288.430125" style="stroke: #000000; stroke-width: 0.8"/>
      </g>
     </g>
     <g id="text_4">
      <!-- 1.75 -->
      <g transform="translate(178.768713 303.028562) scale(0.1 -0.1)">
       <defs>
        <path id="DejaVuSans-37" d="M 525 4666 
L 3525 4666 
L 3525 4397 
L 1831 0 
L 1172 0 
L 2766 4134 
L 525 4134 
L 525 4666 
z
" transform="scale(0.015625)"/>
       </defs>
       <use xlink:href="#DejaVuSans-31"/>
       <use xlink:href="#DejaVuSans-2e" x="63.623047"/>
       <use xlink:href="#DejaVuSans-37" x="95.410156"/>
       <use xlink:href="#DejaVuSans-35" x="159.033203"/>
      </g>
     </g>
    </g>
    <g id="xtick_5">
     <g id="line2d_5">
      <g>
       <use xlink:href="#m4c7838c184" x="232.226959" y="288.430125" style="stroke: #000000; stroke-width: 0.8"/>
      </g>
     </g>
     <g id="text_5">
      <!-- 2.00 -->
      <g transform="translate(221.094146 303.028562) scale(0.1 -0.1)">
       <use xlink:href="#DejaVuSans-32"/>
       <use xlink:href="#DejaVuSans-2e" x="63.623047"/>
       <use xlink:href="#DejaVuSans-30" x="95.410156"/>
       <use xlink:href="#DejaVuSans-30" x="159.033203"/>
      </g>
     </g>
    </g>
    <g id="xtick_6">
     <g id="line2d_6">
      <g>
       <use xlink:href="#m4c7838c184" x="274.552392" y="288.430125" style="stroke: #000000; stroke-width: 0.8"/>
      </g>
     </g>
     <g id="text_6">
      <!-- 2.25 -->
      <g transform="translate(263.419579 303.028562) scale(0.1 -0.1)">
       <use xlink:href="#DejaVuSans-32"/>
       <use xlink:href="#DejaVuSans-2e" x="63.623047"/>
       <use xlink:href="#DejaVuSans-32" x="95.410156"/>
       <use xlink:href="#DejaVuSans-35" x="159.033203"/>
      </g>
     </g>
    </g>
    <g id="xtick_7">
     <g id="line2d_7">
      <g>
       <use xlink:href="#m4c7838c184" x="316.877825" y="288.430125" style="stroke: #000000; stroke-width: 0.8"/>
      </g>
     </g>
     <g id="text_7">
      <!-- 2.50 -->
      <g transform="translate(305.745013 303.028562) scale(0.1 -0.1)">
       <use xlink:href="#DejaVuSans-32"/>
       <use xlink:href="#DejaVuSans-2e" x="63.623047"/>
       <use xlink:href="#DejaVuSans-35" x="95.410156"/>
       <use xlink:href="#DejaVuSans-30" x="159.033203"/>
      </g>
     </g>
    </g>
    <g id="xtick_8">
     <g id="line2d_8">
      <g>
       <use xlink:href="#m4c7838c184" x="359.203258" y="288.430125" style="stroke: #000000; stroke-width: 0.8"/>
      </g>
     </g>
     <g id="text_8">
      <!-- 2.75 -->
      <g transform="translate(348.070446 303.028562) scale(0.1 -0.1)">
       <use xlink:href="#DejaVuSans-32"/>
       <use xlink:href="#DejaVuSans-2e" x="63.623047"/>
       <use xlink:href="#DejaVuSans-37" x="95.410156"/>
       <use xlink:href="#DejaVuSans-35" x="159.033203"/>
      </g>
     </g>
    </g>
    <g id="xtick_9">
     <g id="line2d_9">
      <g>
       <use xlink:href="#m4c7838c184" x="401.528692" y="288.430125" style="stroke: #000000; stroke-width: 0.8"/>
      </g>
     </g>
     <g id="text_9">
      <!-- 3.00 -->
      <g transform="translate(390.395879 303.028562) scale(0.1 -0.1)">
       <defs>
        <path id="DejaVuSans-33" d="M 2597 2516 
Q 3050 2419 3304 2112 
Q 3559 1806 3559 1356 
Q 3559 666 3084 287 
Q 2609 -91 1734 -91 
Q 1441 -91 1130 -33 
Q 819 25 488 141 
L 488 750 
Q 750 597 1062 519 
Q 1375 441 1716 441 
Q 2309 441 2620 675 
Q 2931 909 2931 1356 
Q 2931 1769 2642 2001 
Q 2353 2234 1838 2234 
L 1294 2234 
L 1294 2753 
L 1863 2753 
Q 2328 2753 2575 2939 
Q 2822 3125 2822 3475 
Q 2822 3834 2567 4026 
Q 2313 4219 1838 4219 
Q 1578 4219 1281 4162 
Q 984 4106 628 3988 
L 628 4550 
Q 988 4650 1302 4700 
Q 1616 4750 1894 4750 
Q 2613 4750 3031 4423 
Q 3450 4097 3450 3541 
Q 3450 3153 3228 2886 
Q 3006 2619 2597 2516 
z
" transform="scale(0.015625)"/>
       </defs>
       <use xlink:href="#DejaVuSans-33"/>
       <use xlink:href="#DejaVuSans-2e" x="63.623047"/>
       <use xlink:href="#DejaVuSans-30" x="95.410156"/>
       <use xlink:href="#DejaVuSans-30" x="159.033203"/>
      </g>
     </g>
    </g>
    <g id="text_10">
     <!-- Fitted Values -->
     <g transform="translate(198.7225 316.706687) scale(0.1 -0.1)">
      <defs>
       <path id="DejaVuSans-46" d="M 628 4666 
L 3309 4666 
L 3309 4134 
L 1259 4134 
L 1259 2759 
L 3109 2759 
L 3109 2228 
L 1259 2228 
L 1259 0 
L 628 0 
L 628 4666 
z
" transform="scale(0.015625)"/>
       <path id="DejaVuSans-69" d="M 603 3500 
L 1178 3500 
L 1178 0 
L 603 0 
L 603 3500 
z
M 603 4863 
L 1178 4863 
L 1178 4134 
L 603 4134 
L 603 4863 
z
" transform="scale(0.015625)"/>
       <path id="DejaVuSans-74" d="M 1172 4494 
L 1172 3500 
L 2356 3500 
L 2356 3053 
L 1172 3053 
L 1172 1153 
Q 1172 725 1289 603 
Q 1406 481 1766 481 
L 2356 481 
L 2356 0 
L 1766 0 
Q 1100 0 847 248 
Q 594 497 594 1153 
L 594 3053 
L 172 3053 
L 172 3500 
L 594 3500 
L 594 4494 
L 1172 4494 
z
" transform="scale(0.015625)"/>
       <path id="DejaVuSans-65" d="M 3597 1894 
L 3597 1613 
L 953 1613 
Q 991 1019 1311 708 
Q 1631 397 2203 397 
Q 2534 397 2845 478 
Q 3156 559 3463 722 
L 3463 178 
Q 3153 47 2828 -22 
Q 2503 -91 2169 -91 
Q 1331 -91 842 396 
Q 353 884 353 1716 
Q 353 2575 817 3079 
Q 1281 3584 2069 3584 
Q 2775 3584 3186 3129 
Q 3597 2675 3597 1894 
z
M 3022 2063 
Q 3016 2534 2758 2815 
Q 2500 3097 2075 3097 
Q 1594 3097 1305 2825 
Q 1016 2553 972 2059 
L 3022 2063 
z
" transform="scale(0.015625)"/>
       <path id="DejaVuSans-64" d="M 2906 2969 
L 2906 4863 
L 3481 4863 
L 3481 0 
L 2906 0 
L 2906 525 
Q 2725 213 2448 61 
Q 2172 -91 1784 -91 
Q 1150 -91 751 415 
Q 353 922 353 1747 
Q 353 2572 751 3078 
Q 1150 3584 1784 3584 
Q 2172 3584 2448 3432 
Q 2725 3281 2906 2969 
z
M 947 1747 
Q 947 1113 1208 752 
Q 1469 391 1925 391 
Q 2381 391 2643 752 
Q 2906 1113 2906 1747 
Q 2906 2381 2643 2742 
Q 2381 3103 1925 3103 
Q 1469 3103 1208 2742 
Q 947 2381 947 1747 
z
" transform="scale(0.015625)"/>
       <path id="DejaVuSans-20" transform="scale(0.015625)"/>
       <path id="DejaVuSans-56" d="M 1831 0 
L 50 4666 
L 709 4666 
L 2188 738 
L 3669 4666 
L 4325 4666 
L 2547 0 
L 1831 0 
z
" transform="scale(0.015625)"/>
       <path id="DejaVuSans-61" d="M 2194 1759 
Q 1497 1759 1228 1600 
Q 959 1441 959 1056 
Q 959 750 1161 570 
Q 1363 391 1709 391 
Q 2188 391 2477 730 
Q 2766 1069 2766 1631 
L 2766 1759 
L 2194 1759 
z
M 3341 1997 
L 3341 0 
L 2766 0 
L 2766 531 
Q 2569 213 2275 61 
Q 1981 -91 1556 -91 
Q 1019 -91 701 211 
Q 384 513 384 1019 
Q 384 1609 779 1909 
Q 1175 2209 1959 2209 
L 2766 2209 
L 2766 2266 
Q 2766 2663 2505 2880 
Q 2244 3097 1772 3097 
Q 1472 3097 1187 3025 
Q 903 2953 641 2809 
L 641 3341 
Q 956 3463 1253 3523 
Q 1550 3584 1831 3584 
Q 2591 3584 2966 3190 
Q 3341 2797 3341 1997 
z
" transform="scale(0.015625)"/>
       <path id="DejaVuSans-6c" d="M 603 4863 
L 1178 4863 
L 1178 0 
L 603 0 
L 603 4863 
z
" transform="scale(0.015625)"/>
       <path id="DejaVuSans-75" d="M 544 1381 
L 544 3500 
L 1119 3500 
L 1119 1403 
Q 1119 906 1312 657 
Q 1506 409 1894 409 
Q 2359 409 2629 706 
Q 2900 1003 2900 1516 
L 2900 3500 
L 3475 3500 
L 3475 0 
L 2900 0 
L 2900 538 
Q 2691 219 2414 64 
Q 2138 -91 1772 -91 
Q 1169 -91 856 284 
Q 544 659 544 1381 
z
M 1991 3584 
L 1991 3584 
z
" transform="scale(0.015625)"/>
       <path id="DejaVuSans-73" d="M 2834 3397 
L 2834 2853 
Q 2591 2978 2328 3040 
Q 2066 3103 1784 3103 
Q 1356 3103 1142 2972 
Q 928 2841 928 2578 
Q 928 2378 1081 2264 
Q 1234 2150 1697 2047 
L 1894 2003 
Q 2506 1872 2764 1633 
Q 3022 1394 3022 966 
Q 3022 478 2636 193 
Q 2250 -91 1575 -91 
Q 1294 -91 989 -36 
Q 684 19 347 128 
L 347 722 
Q 666 556 975 473 
Q 1284 391 1588 391 
Q 1994 391 2212 530 
Q 2431 669 2431 922 
Q 2431 1156 2273 1281 
Q 2116 1406 1581 1522 
L 1381 1569 
Q 847 1681 609 1914 
Q 372 2147 372 2553 
Q 372 3047 722 3315 
Q 1072 3584 1716 3584 
Q 2034 3584 2315 3537 
Q 2597 3491 2834 3397 
z
" transform="scale(0.015625)"/>
      </defs>
      <use xlink:href="#DejaVuSans-46"/>
      <use xlink:href="#DejaVuSans-69" x="50.269531"/>
      <use xlink:href="#DejaVuSans-74" x="78.052734"/>
      <use xlink:href="#DejaVuSans-74" x="117.261719"/>
      <use xlink:href="#DejaVuSans-65" x="156.470703"/>
      <use xlink:href="#DejaVuSans-64" x="217.994141"/>
      <use xlink:href="#DejaVuSans-20" x="281.470703"/>
      <use xlink:href="#DejaVuSans-56" x="313.257812"/>
      <use xlink:href="#DejaVuSans-61" x="373.916016"/>
      <use xlink:href="#DejaVuSans-6c" x="435.195312"/>
      <use xlink:href="#DejaVuSans-75" x="462.978516"/>
      <use xlink:href="#DejaVuSans-65" x="526.357422"/>
      <use xlink:href="#DejaVuSans-73" x="587.880859"/>
     </g>
    </g>
   </g>
   <g id="matplotlib.axis_2">
    <g id="ytick_1">
     <g id="line2d_10">
      <defs>
       <path id="m38c5e3665d" d="M 0 0 
L -3.5 0 
" style="stroke: #000000; stroke-width: 0.8"/>
      </defs>
      <g>
       <use xlink:href="#m38c5e3665d" x="52.160938" y="280.494574" style="stroke: #000000; stroke-width: 0.8"/>
      </g>
     </g>
     <g id="text_11">
      <!-- −0.2 -->
      <g transform="translate(20.878125 284.293793) scale(0.1 -0.1)">
       <defs>
        <path id="DejaVuSans-2212" d="M 678 2272 
L 4684 2272 
L 4684 1741 
L 678 1741 
L 678 2272 
z
" transform="scale(0.015625)"/>
       </defs>
       <use xlink:href="#DejaVuSans-2212"/>
       <use xlink:href="#DejaVuSans-30" x="83.789062"/>
       <use xlink:href="#DejaVuSans-2e" x="147.412109"/>
       <use xlink:href="#DejaVuSans-32" x="179.199219"/>
      </g>
     </g>
    </g>
    <g id="ytick_2">
     <g id="line2d_11">
      <g>
       <use xlink:href="#m38c5e3665d" x="52.160938" y="223.173956" style="stroke: #000000; stroke-width: 0.8"/>
      </g>
     </g>
     <g id="text_12">
      <!-- −0.1 -->
      <g transform="translate(20.878125 226.973175) scale(0.1 -0.1)">
       <use xlink:href="#DejaVuSans-2212"/>
       <use xlink:href="#DejaVuSans-30" x="83.789062"/>
       <use xlink:href="#DejaVuSans-2e" x="147.412109"/>
       <use xlink:href="#DejaVuSans-31" x="179.199219"/>
      </g>
     </g>
    </g>
    <g id="ytick_3">
     <g id="line2d_12">
      <g>
       <use xlink:href="#m38c5e3665d" x="52.160938" y="165.853338" style="stroke: #000000; stroke-width: 0.8"/>
      </g>
     </g>
     <g id="text_13">
      <!-- 0.0 -->
      <g transform="translate(29.257812 169.652557) scale(0.1 -0.1)">
       <use xlink:href="#DejaVuSans-30"/>
       <use xlink:href="#DejaVuSans-2e" x="63.623047"/>
       <use xlink:href="#DejaVuSans-30" x="95.410156"/>
      </g>
     </g>
    </g>
    <g id="ytick_4">
     <g id="line2d_13">
      <g>
       <use xlink:href="#m38c5e3665d" x="52.160938" y="108.532721" style="stroke: #000000; stroke-width: 0.8"/>
      </g>
     </g>
     <g id="text_14">
      <!-- 0.1 -->
      <g transform="translate(29.257812 112.331939) scale(0.1 -0.1)">
       <use xlink:href="#DejaVuSans-30"/>
       <use xlink:href="#DejaVuSans-2e" x="63.623047"/>
       <use xlink:href="#DejaVuSans-31" x="95.410156"/>
      </g>
     </g>
    </g>
    <g id="ytick_5">
     <g id="line2d_14">
      <g>
       <use xlink:href="#m38c5e3665d" x="52.160938" y="51.212103" style="stroke: #000000; stroke-width: 0.8"/>
      </g>
     </g>
     <g id="text_15">
      <!-- 0.2 -->
      <g transform="translate(29.257812 55.011322) scale(0.1 -0.1)">
       <use xlink:href="#DejaVuSans-30"/>
       <use xlink:href="#DejaVuSans-2e" x="63.623047"/>
       <use xlink:href="#DejaVuSans-32" x="95.410156"/>
      </g>
     </g>
    </g>
    <g id="text_16">
     <!-- Residuals -->
     <g transform="translate(14.798437 179.094437) rotate(-90) scale(0.1 -0.1)">
      <defs>
       <path id="DejaVuSans-52" d="M 2841 2188 
Q 3044 2119 3236 1894 
Q 3428 1669 3622 1275 
L 4263 0 
L 3584 0 
L 2988 1197 
Q 2756 1666 2539 1819 
Q 2322 1972 1947 1972 
L 1259 1972 
L 1259 0 
L 628 0 
L 628 4666 
L 2053 4666 
Q 2853 4666 3247 4331 
Q 3641 3997 3641 3322 
Q 3641 2881 3436 2590 
Q 3231 2300 2841 2188 
z
M 1259 4147 
L 1259 2491 
L 2053 2491 
Q 2509 2491 2742 2702 
Q 2975 2913 2975 3322 
Q 2975 3731 2742 3939 
Q 2509 4147 2053 4147 
L 1259 4147 
z
" transform="scale(0.015625)"/>
      </defs>
      <use xlink:href="#DejaVuSans-52"/>
      <use xlink:href="#DejaVuSans-65" x="64.982422"/>
      <use xlink:href="#DejaVuSans-73" x="126.505859"/>
      <use xlink:href="#DejaVuSans-69" x="178.605469"/>
      <use xlink:href="#DejaVuSans-64" x="206.388672"/>
      <use xlink:href="#DejaVuSans-75" x="269.865234"/>
      <use xlink:href="#DejaVuSans-61" x="333.244141"/>
      <use xlink:href="#DejaVuSans-6c" x="394.523438"/>
      <use xlink:href="#DejaVuSans-73" x="422.306641"/>
     </g>
    </g>
   </g>
   <g id="line2d_15">
    <path d="M 52.160938 165.853338 
L 409.280938 165.853338 
" clip-path="url(#pa13590caba)" style="fill: none; stroke-dasharray: 5.55,2.4; stroke-dashoffset: 0; stroke: #ff0000; stroke-width: 1.5"/>
   </g>
   <g id="patch_3">
    <path d="M 52.160938 288.430125 
L 52.160938 22.318125 
" style="fill: none; stroke: #000000; stroke-width: 0.8; stroke-linejoin: miter; stroke-linecap: square"/>
   </g>
   <g id="patch_4">
    <path d="M 409.280938 288.430125 
L 409.280938 22.318125 
" style="fill: none; stroke: #000000; stroke-width: 0.8; stroke-linejoin: miter; stroke-linecap: square"/>
   </g>
   <g id="patch_5">
    <path d="M 52.160938 288.430125 
L 409.280937 288.430125 
" style="fill: none; stroke: #000000; stroke-width: 0.8; stroke-linejoin: miter; stroke-linecap: square"/>
   </g>
   <g id="patch_6">
    <path d="M 52.160938 22.318125 
L 409.280937 22.318125 
" style="fill: none; stroke: #000000; stroke-width: 0.8; stroke-linejoin: miter; stroke-linecap: square"/>
   </g>
   <g id="text_17">
    <!-- Homoscedasticity Check -->
    <g transform="translate(157.040938 16.318125) scale(0.12 -0.12)">
     <defs>
      <path id="DejaVuSans-48" d="M 628 4666 
L 1259 4666 
L 1259 2753 
L 3553 2753 
L 3553 4666 
L 4184 4666 
L 4184 0 
L 3553 0 
L 3553 2222 
L 1259 2222 
L 1259 0 
L 628 0 
L 628 4666 
z
" transform="scale(0.015625)"/>
      <path id="DejaVuSans-6f" d="M 1959 3097 
Q 1497 3097 1228 2736 
Q 959 2375 959 1747 
Q 959 1119 1226 758 
Q 1494 397 1959 397 
Q 2419 397 2687 759 
Q 2956 1122 2956 1747 
Q 2956 2369 2687 2733 
Q 2419 3097 1959 3097 
z
M 1959 3584 
Q 2709 3584 3137 3096 
Q 3566 2609 3566 1747 
Q 3566 888 3137 398 
Q 2709 -91 1959 -91 
Q 1206 -91 779 398 
Q 353 888 353 1747 
Q 353 2609 779 3096 
Q 1206 3584 1959 3584 
z
" transform="scale(0.015625)"/>
      <path id="DejaVuSans-6d" d="M 3328 2828 
Q 3544 3216 3844 3400 
Q 4144 3584 4550 3584 
Q 5097 3584 5394 3201 
Q 5691 2819 5691 2113 
L 5691 0 
L 5113 0 
L 5113 2094 
Q 5113 2597 4934 2840 
Q 4756 3084 4391 3084 
Q 3944 3084 3684 2787 
Q 3425 2491 3425 1978 
L 3425 0 
L 2847 0 
L 2847 2094 
Q 2847 2600 2669 2842 
Q 2491 3084 2119 3084 
Q 1678 3084 1418 2786 
Q 1159 2488 1159 1978 
L 1159 0 
L 581 0 
L 581 3500 
L 1159 3500 
L 1159 2956 
Q 1356 3278 1631 3431 
Q 1906 3584 2284 3584 
Q 2666 3584 2933 3390 
Q 3200 3197 3328 2828 
z
" transform="scale(0.015625)"/>
      <path id="DejaVuSans-63" d="M 3122 3366 
L 3122 2828 
Q 2878 2963 2633 3030 
Q 2388 3097 2138 3097 
Q 1578 3097 1268 2742 
Q 959 2388 959 1747 
Q 959 1106 1268 751 
Q 1578 397 2138 397 
Q 2388 397 2633 464 
Q 2878 531 3122 666 
L 3122 134 
Q 2881 22 2623 -34 
Q 2366 -91 2075 -91 
Q 1284 -91 818 406 
Q 353 903 353 1747 
Q 353 2603 823 3093 
Q 1294 3584 2113 3584 
Q 2378 3584 2631 3529 
Q 2884 3475 3122 3366 
z
" transform="scale(0.015625)"/>
      <path id="DejaVuSans-79" d="M 2059 -325 
Q 1816 -950 1584 -1140 
Q 1353 -1331 966 -1331 
L 506 -1331 
L 506 -850 
L 844 -850 
Q 1081 -850 1212 -737 
Q 1344 -625 1503 -206 
L 1606 56 
L 191 3500 
L 800 3500 
L 1894 763 
L 2988 3500 
L 3597 3500 
L 2059 -325 
z
" transform="scale(0.015625)"/>
      <path id="DejaVuSans-43" d="M 4122 4306 
L 4122 3641 
Q 3803 3938 3442 4084 
Q 3081 4231 2675 4231 
Q 1875 4231 1450 3742 
Q 1025 3253 1025 2328 
Q 1025 1406 1450 917 
Q 1875 428 2675 428 
Q 3081 428 3442 575 
Q 3803 722 4122 1019 
L 4122 359 
Q 3791 134 3420 21 
Q 3050 -91 2638 -91 
Q 1578 -91 968 557 
Q 359 1206 359 2328 
Q 359 3453 968 4101 
Q 1578 4750 2638 4750 
Q 3056 4750 3426 4639 
Q 3797 4528 4122 4306 
z
" transform="scale(0.015625)"/>
      <path id="DejaVuSans-68" d="M 3513 2113 
L 3513 0 
L 2938 0 
L 2938 2094 
Q 2938 2591 2744 2837 
Q 2550 3084 2163 3084 
Q 1697 3084 1428 2787 
Q 1159 2491 1159 1978 
L 1159 0 
L 581 0 
L 581 4863 
L 1159 4863 
L 1159 2956 
Q 1366 3272 1645 3428 
Q 1925 3584 2291 3584 
Q 2894 3584 3203 3211 
Q 3513 2838 3513 2113 
z
" transform="scale(0.015625)"/>
      <path id="DejaVuSans-6b" d="M 581 4863 
L 1159 4863 
L 1159 1991 
L 2875 3500 
L 3609 3500 
L 1753 1863 
L 3688 0 
L 2938 0 
L 1159 1709 
L 1159 0 
L 581 0 
L 581 4863 
z
" transform="scale(0.015625)"/>
     </defs>
     <use xlink:href="#DejaVuSans-48"/>
     <use xlink:href="#DejaVuSans-6f" x="75.195312"/>
     <use xlink:href="#DejaVuSans-6d" x="136.376953"/>
     <use xlink:href="#DejaVuSans-6f" x="233.789062"/>
     <use xlink:href="#DejaVuSans-73" x="294.970703"/>
     <use xlink:href="#DejaVuSans-63" x="347.070312"/>
     <use xlink:href="#DejaVuSans-65" x="402.050781"/>
     <use xlink:href="#DejaVuSans-64" x="463.574219"/>
     <use xlink:href="#DejaVuSans-61" x="527.050781"/>
     <use xlink:href="#DejaVuSans-73" x="588.330078"/>
     <use xlink:href="#DejaVuSans-74" x="640.429688"/>
     <use xlink:href="#DejaVuSans-69" x="679.638672"/>
     <use xlink:href="#DejaVuSans-63" x="707.421875"/>
     <use xlink:href="#DejaVuSans-69" x="762.402344"/>
     <use xlink:href="#DejaVuSans-74" x="790.185547"/>
     <use xlink:href="#DejaVuSans-79" x="829.394531"/>
     <use xlink:href="#DejaVuSans-20" x="888.574219"/>
     <use xlink:href="#DejaVuSans-43" x="920.361328"/>
     <use xlink:href="#DejaVuSans-68" x="990.185547"/>
     <use xlink:href="#DejaVuSans-65" x="1053.564453"/>
     <use xlink:href="#DejaVuSans-63" x="1115.087891"/>
     <use xlink:href="#DejaVuSans-6b" x="1170.068359"/>
    </g>
   </g>
  </g>
 </g>
 <defs>
  <clipPath id="pa13590caba">
   <rect x="52.160938" y="22.318125" width="357.12" height="266.112"/>
  </clipPath>
 </defs>
</svg>