<?xml version="1.0" encoding="utf-8" standalone="no"?>
<!DOCTYPE svg PUBLIC "-//W3C//DTD SVG 1.1//EN"
  "http://www.w3.org/Graphics/SVG/1.1/DTD/svg11.dtd">
<svg xmlns:xlink="http://www.w3.org/1999/xlink" width="568.8pt" height="568.8pt" viewBox="0 0 568.8 568.8" xmlns="http://www.w3.org/2000/svg" version="1.1">
 <metadata>
  <rdf:RDF xmlns:dc="http://purl.org/dc/elements/1.1/" xmlns:cc="http://creativecommons.org/ns#" xmlns:rdf="http://www.w3.org/1999/02/22-rdf-syntax-ns#">
   <cc:Work>
    <dc:type rdf:resource="http://purl.org/dc/dcmitype/StillImage"/>
    <dc:date>2023-12-09T08:05:48.091593</dc:date>
    <dc:format>image/svg+xml</dc:format>
    <dc:creator>
     <cc:Agent>
      <dc:title>Matplotlib v3.8.2, https://matplotlib.org/</dc:title>
     </cc:Agent>
    </dc:creator>
   </cc:Work>
  </rdf:RDF>
 </metadata>
 <defs>
  <style type="text/css">*{stroke-linejoin: round; stroke-linecap: butt}</style>
 </defs>
 <g id="figure_1">
  <g id="patch_1">
   <path d="M 0 568.8 
L 568.8 568.8 
L 568.8 0 
L 0 0 
z
" style="fill: #ffffff"/>
  </g>
  <g id="patch_2">
   <path d="M 7.2 561.6 
L 561.6 561.6 
L 561.6 7.2 
L 7.2 7.2 
z
" style="fill: #ffffff"/>
  </g>
  <g id="pane3d_1">
   <g id="patch_3">
    <path d="M 49.061023 424.902727 
L 232.142009 271.440614 
L 229.597008 50.120814 
L 37.754653 190.118627 
" style="fill: #f2f2f2; opacity: 0.5; stroke: #f2f2f2; stroke-linejoin: miter"/>
   </g>
  </g>
  <g id="pane3d_2">
   <g id="patch_4">
    <path d="M 232.142009 271.440614 
L 525.921668 356.830763 
L 536.405628 127.887856 
L 229.597008 50.120814 
" style="fill: #e6e6e6; opacity: 0.5; stroke: #e6e6e6; stroke-linejoin: miter"/>
   </g>
  </g>
  <g id="pane3d_3">
   <g id="patch_5">
    <path d="M 49.061023 424.902727 
L 360.48181 526.612756 
L 525.921668 356.830763 
L 232.142009 271.440614 
" style="fill: #ececec; opacity: 0.5; stroke: #ececec; stroke-linejoin: miter"/>
   </g>
  </g>
  <g id="grid3d_1">
   <g id="Line3DCollection_1">
    <path d="M 67.9223 431.06282 
L 250.008789 276.633782 
L 248.219208 54.840999 
" style="fill: none; stroke: #b0b0b0; stroke-width: 0.8"/>
    <path d="M 100.545393 441.717522 
L 280.889175 285.609491 
L 280.416508 63.002076 
" style="fill: none; stroke: #b0b0b0; stroke-width: 0.8"/>
    <path d="M 133.539508 452.4934 
L 312.091683 294.678828 
L 312.964171 71.25196 
" style="fill: none; stroke: #b0b0b0; stroke-width: 0.8"/>
    <path d="M 166.911013 463.392534 
L 343.621378 303.843266 
L 345.867949 79.592109 
" style="fill: none; stroke: #b0b0b0; stroke-width: 0.8"/>
    <path d="M 200.66642 474.417049 
L 375.483433 313.104307 
L 379.133719 88.024012 
" style="fill: none; stroke: #b0b0b0; stroke-width: 0.8"/>
    <path d="M 234.81239 485.569123 
L 407.683133 322.463489 
L 412.767487 96.549191 
" style="fill: none; stroke: #b0b0b0; stroke-width: 0.8"/>
    <path d="M 269.355743 496.850982 
L 440.225872 331.922378 
L 446.775393 105.169204 
" style="fill: none; stroke: #b0b0b0; stroke-width: 0.8"/>
    <path d="M 304.303455 508.264905 
L 473.117162 341.482578 
L 481.163715 113.885641 
" style="fill: none; stroke: #b0b0b0; stroke-width: 0.8"/>
    <path d="M 339.662668 519.813224 
L 506.362632 351.145723 
L 515.938873 122.70013 
" style="fill: none; stroke: #b0b0b0; stroke-width: 0.8"/>
   </g>
  </g>
  <g id="grid3d_2">
   <g id="Line3DCollection_2">
    <path d="M 65.992485 169.511944 
L 75.922095 402.387244 
L 384.846216 501.608882 
" style="fill: none; stroke: #b0b0b0; stroke-width: 0.8"/>
    <path d="M 102.559464 142.827028 
L 110.75081 373.193124 
L 416.390662 469.23652 
" style="fill: none; stroke: #b0b0b0; stroke-width: 0.8"/>
    <path d="M 137.94329 117.005523 
L 144.500614 344.903369 
L 446.907389 437.918851 
" style="fill: none; stroke: #b0b0b0; stroke-width: 0.8"/>
    <path d="M 172.20047 92.006193 
L 177.220876 317.476597 
L 476.445817 407.605157 
" style="fill: none; stroke: #b0b0b0; stroke-width: 0.8"/>
    <path d="M 205.383972 67.790385 
L 208.957996 290.873914 
L 505.052246 378.247924 
" style="fill: none; stroke: #b0b0b0; stroke-width: 0.8"/>
   </g>
  </g>
  <g id="grid3d_3">
   <g id="Line3DCollection_3">
    <path d="M 526.122529 352.44447 
L 232.093149 267.191583 
L 48.844764 420.411957 
" style="fill: none; stroke: #b0b0b0; stroke-width: 0.8"/>
    <path d="M 527.334973 325.96778 
L 231.7983 241.55074 
L 47.539074 393.298457 
" style="fill: none; stroke: #b0b0b0; stroke-width: 0.8"/>
    <path d="M 528.560035 299.215562 
L 231.500528 215.65579 
L 46.219279 365.892068 
" style="fill: none; stroke: #b0b0b0; stroke-width: 0.8"/>
    <path d="M 529.797912 272.183492 
L 231.199791 189.502936 
L 44.88515 338.188016 
" style="fill: none; stroke: #b0b0b0; stroke-width: 0.8"/>
    <path d="M 531.048806 244.867157 
L 230.896044 163.088307 
L 43.536452 310.181428 
" style="fill: none; stroke: #b0b0b0; stroke-width: 0.8"/>
    <path d="M 532.312924 217.262048 
L 230.589241 136.407952 
L 42.172945 281.867319 
" style="fill: none; stroke: #b0b0b0; stroke-width: 0.8"/>
    <path d="M 533.590477 189.363563 
L 230.279337 109.457841 
L 40.794384 253.240596 
" style="fill: none; stroke: #b0b0b0; stroke-width: 0.8"/>
    <path d="M 534.88168 161.166999 
L 229.966283 82.233863 
L 39.400517 224.296055 
" style="fill: none; stroke: #b0b0b0; stroke-width: 0.8"/>
    <path d="M 536.186752 132.667553 
L 229.650031 54.731821 
L 37.991089 195.028371 
" style="fill: none; stroke: #b0b0b0; stroke-width: 0.8"/>
   </g>
  </g>
  <g id="axis3d_1">
   <g id="line2d_1">
    <path d="M 49.061023 424.902727 
L 360.48181 526.612756 
" style="fill: none; stroke: #000000; stroke-width: 0.8; stroke-linecap: square"/>
   </g>
   <g id="xtick_1">
    <g id="line2d_2">
     <path d="M 69.507899 429.718061 
L 64.744299 433.758109 
" style="fill: none; stroke: #000000; stroke-width: 0.8; stroke-linecap: square"/>
    </g>
    <g id="text_1">
     <!-- −8 -->
     <g transform="translate(53.036682 454.341659) scale(0.1 -0.1)">
      <defs>
       <path id="DejaVuSans-2212" d="M 678 2272 
L 4684 2272 
L 4684 1741 
L 678 1741 
L 678 2272 
z
" transform="scale(0.015625)"/>
       <path id="DejaVuSans-38" d="M 2034 2216 
Q 1584 2216 1326 1975 
Q 1069 1734 1069 1313 
Q 1069 891 1326 650 
Q 1584 409 2034 409 
Q 2484 409 2743 651 
Q 3003 894 3003 1313 
Q 3003 1734 2745 1975 
Q 2488 2216 2034 2216 
z
M 1403 2484 
Q 997 2584 770 2862 
Q 544 3141 544 3541 
Q 544 4100 942 4425 
Q 1341 4750 2034 4750 
Q 2731 4750 3128 4425 
Q 3525 4100 3525 3541 
Q 3525 3141 3298 2862 
Q 3072 2584 2669 2484 
Q 3125 2378 3379 2068 
Q 3634 1759 3634 1313 
Q 3634 634 3220 271 
Q 2806 -91 2034 -91 
Q 1263 -91 848 271 
Q 434 634 434 1313 
Q 434 1759 690 2068 
Q 947 2378 1403 2484 
z
M 1172 3481 
Q 1172 3119 1398 2916 
Q 1625 2713 2034 2713 
Q 2441 2713 2670 2916 
Q 2900 3119 2900 3481 
Q 2900 3844 2670 4047 
Q 2441 4250 2034 4250 
Q 1625 4250 1398 4047 
Q 1172 3844 1172 3481 
z
" transform="scale(0.015625)"/>
      </defs>
      <use xlink:href="#DejaVuSans-2212"/>
      <use xlink:href="#DejaVuSans-38" x="83.789062"/>
     </g>
    </g>
   </g>
   <g id="xtick_2">
    <g id="line2d_3">
     <path d="M 102.116537 440.357518 
L 97.396323 444.4434 
" style="fill: none; stroke: #000000; stroke-width: 0.8; stroke-linecap: square"/>
    </g>
    <g id="text_2">
     <!-- −6 -->
     <g transform="translate(85.675634 465.104265) scale(0.1 -0.1)">
      <defs>
       <path id="DejaVuSans-36" d="M 2113 2584 
Q 1688 2584 1439 2293 
Q 1191 2003 1191 1497 
Q 1191 994 1439 701 
Q 1688 409 2113 409 
Q 2538 409 2786 701 
Q 3034 994 3034 1497 
Q 3034 2003 2786 2293 
Q 2538 2584 2113 2584 
z
M 3366 4563 
L 3366 3988 
Q 3128 4100 2886 4159 
Q 2644 4219 2406 4219 
Q 1781 4219 1451 3797 
Q 1122 3375 1075 2522 
Q 1259 2794 1537 2939 
Q 1816 3084 2150 3084 
Q 2853 3084 3261 2657 
Q 3669 2231 3669 1497 
Q 3669 778 3244 343 
Q 2819 -91 2113 -91 
Q 1303 -91 875 529 
Q 447 1150 447 2328 
Q 447 3434 972 4092 
Q 1497 4750 2381 4750 
Q 2619 4750 2861 4703 
Q 3103 4656 3366 4563 
z
" transform="scale(0.015625)"/>
      </defs>
      <use xlink:href="#DejaVuSans-2212"/>
      <use xlink:href="#DejaVuSans-36" x="83.789062"/>
     </g>
    </g>
   </g>
   <g id="xtick_3">
    <g id="line2d_4">
     <path d="M 135.095767 451.11789 
L 130.420237 455.25039 
" style="fill: none; stroke: #000000; stroke-width: 0.8; stroke-linecap: square"/>
    </g>
    <g id="text_3">
     <!-- −4 -->
     <g transform="translate(118.686459 475.989494) scale(0.1 -0.1)">
      <defs>
       <path id="DejaVuSans-34" d="M 2419 4116 
L 825 1625 
L 2419 1625 
L 2419 4116 
z
M 2253 4666 
L 3047 4666 
L 3047 1625 
L 3713 1625 
L 3713 1100 
L 3047 1100 
L 3047 0 
L 2419 0 
L 2419 1100 
L 313 1100 
L 313 1709 
L 2253 4666 
z
" transform="scale(0.015625)"/>
      </defs>
      <use xlink:href="#DejaVuSans-2212"/>
      <use xlink:href="#DejaVuSans-34" x="83.789062"/>
     </g>
    </g>
   </g>
   <g id="xtick_4">
    <g id="line2d_5">
     <path d="M 168.451942 462.001251 
L 163.82243 466.181171 
" style="fill: none; stroke: #000000; stroke-width: 0.8; stroke-linecap: square"/>
    </g>
    <g id="text_4">
     <!-- −2 -->
     <g transform="translate(152.075548 486.999454) scale(0.1 -0.1)">
      <defs>
       <path id="DejaVuSans-32" d="M 1228 531 
L 3431 531 
L 3431 0 
L 469 0 
L 469 531 
Q 828 903 1448 1529 
Q 2069 2156 2228 2338 
Q 2531 2678 2651 2914 
Q 2772 3150 2772 3378 
Q 2772 3750 2511 3984 
Q 2250 4219 1831 4219 
Q 1534 4219 1204 4116 
Q 875 4013 500 3803 
L 500 4441 
Q 881 4594 1212 4672 
Q 1544 4750 1819 4750 
Q 2544 4750 2975 4387 
Q 3406 4025 3406 3419 
Q 3406 3131 3298 2873 
Q 3191 2616 2906 2266 
Q 2828 2175 2409 1742 
Q 1991 1309 1228 531 
z
" transform="scale(0.015625)"/>
      </defs>
      <use xlink:href="#DejaVuSans-2212"/>
      <use xlink:href="#DejaVuSans-32" x="83.789062"/>
     </g>
    </g>
   </g>
   <g id="xtick_5">
    <g id="line2d_6">
     <path d="M 202.191562 473.009721 
L 197.60944 477.237883 
" style="fill: none; stroke: #000000; stroke-width: 0.8; stroke-linecap: square"/>
    </g>
    <g id="text_5">
     <!-- 0 -->
     <g transform="translate(190.039284 498.136303) scale(0.1 -0.1)">
      <defs>
       <path id="DejaVuSans-30" d="M 2034 4250 
Q 1547 4250 1301 3770 
Q 1056 3291 1056 2328 
Q 1056 1369 1301 889 
Q 1547 409 2034 409 
Q 2525 409 2770 889 
Q 3016 1369 3016 2328 
Q 3016 3291 2770 3770 
Q 2525 4250 2034 4250 
z
M 2034 4750 
Q 2819 4750 3233 4129 
Q 3647 3509 3647 2328 
Q 3647 1150 3233 529 
Q 2819 -91 2034 -91 
Q 1250 -91 836 529 
Q 422 1150 422 2328 
Q 422 3509 836 4129 
Q 1250 4750 2034 4750 
z
" transform="scale(0.015625)"/>
      </defs>
      <use xlink:href="#DejaVuSans-30"/>
     </g>
    </g>
   </g>
   <g id="xtick_6">
    <g id="line2d_7">
     <path d="M 236.321276 484.145471 
L 231.787956 488.422714 
" style="fill: none; stroke: #000000; stroke-width: 0.8; stroke-linecap: square"/>
    </g>
    <g id="text_6">
     <!-- 2 -->
     <g transform="translate(224.20467 509.402246) scale(0.1 -0.1)">
      <use xlink:href="#DejaVuSans-32"/>
     </g>
    </g>
   </g>
   <g id="xtick_7">
    <g id="line2d_8">
     <path d="M 270.84789 495.41072 
L 266.36482 499.737903 
" style="fill: none; stroke: #000000; stroke-width: 0.8; stroke-linecap: square"/>
    </g>
    <g id="text_7">
     <!-- 4 -->
     <g transform="translate(258.768397 520.79954) scale(0.1 -0.1)">
      <use xlink:href="#DejaVuSans-34"/>
     </g>
    </g>
   </g>
   <g id="xtick_8">
    <g id="line2d_9">
     <path d="M 305.778368 506.80774 
L 301.34704 511.185744 
" style="fill: none; stroke: #000000; stroke-width: 0.8; stroke-linecap: square"/>
    </g>
    <g id="text_8">
     <!-- 6 -->
     <g transform="translate(293.737472 532.330497) scale(0.1 -0.1)">
      <use xlink:href="#DejaVuSans-36"/>
     </g>
    </g>
   </g>
   <g id="xtick_9">
    <g id="line2d_10">
     <path d="M 341.119837 518.338857 
L 336.741785 522.768583 
" style="fill: none; stroke: #000000; stroke-width: 0.8; stroke-linecap: square"/>
    </g>
    <g id="text_9">
     <!-- 8 -->
     <g transform="translate(329.119069 543.997482) scale(0.1 -0.1)">
      <use xlink:href="#DejaVuSans-38"/>
     </g>
    </g>
   </g>
  </g>
  <g id="axis3d_2">
   <g id="line2d_11">
    <path d="M 525.921668 356.830763 
L 360.48181 526.612756 
" style="fill: none; stroke: #000000; stroke-width: 0.8; stroke-linecap: square"/>
   </g>
   <g id="xtick_10">
    <g id="line2d_12">
     <path d="M 382.243791 500.773023 
L 390.05775 503.282746 
" style="fill: none; stroke: #000000; stroke-width: 0.8; stroke-linecap: square"/>
    </g>
    <g id="text_10">
     <!-- −10 -->
     <g transform="translate(387.087429 522.532241) scale(0.1 -0.1)">
      <defs>
       <path id="DejaVuSans-31" d="M 794 531 
L 1825 531 
L 1825 4091 
L 703 3866 
L 703 4441 
L 1819 4666 
L 2450 4666 
L 2450 531 
L 3481 531 
L 3481 0 
L 794 0 
L 794 531 
z
" transform="scale(0.015625)"/>
      </defs>
      <use xlink:href="#DejaVuSans-2212"/>
      <use xlink:href="#DejaVuSans-31" x="83.789062"/>
      <use xlink:href="#DejaVuSans-30" x="147.412109"/>
     </g>
    </g>
   </g>
   <g id="xtick_11">
    <g id="line2d_13">
     <path d="M 413.818051 468.42811 
L 421.542384 470.855382 
" style="fill: none; stroke: #000000; stroke-width: 0.8; stroke-linecap: square"/>
    </g>
    <g id="text_11">
     <!-- −5 -->
     <g transform="translate(421.61006 489.930074) scale(0.1 -0.1)">
      <defs>
       <path id="DejaVuSans-35" d="M 691 4666 
L 3169 4666 
L 3169 4134 
L 1269 4134 
L 1269 2991 
Q 1406 3038 1543 3061 
Q 1681 3084 1819 3084 
Q 2600 3084 3056 2656 
Q 3513 2228 3513 1497 
Q 3513 744 3044 326 
Q 2575 -91 1722 -91 
Q 1428 -91 1123 -41 
Q 819 9 494 109 
L 494 744 
Q 775 591 1075 516 
Q 1375 441 1709 441 
Q 2250 441 2565 725 
Q 2881 1009 2881 1497 
Q 2881 1984 2565 2268 
Q 2250 2553 1709 2553 
Q 1456 2553 1204 2497 
Q 953 2441 691 2322 
L 691 4666 
z
" transform="scale(0.015625)"/>
      </defs>
      <use xlink:href="#DejaVuSans-2212"/>
      <use xlink:href="#DejaVuSans-35" x="83.789062"/>
     </g>
    </g>
   </g>
   <g id="xtick_12">
    <g id="line2d_14">
     <path d="M 444.364045 437.136559 
L 452.000398 439.485379 
" style="fill: none; stroke: #000000; stroke-width: 0.8; stroke-linecap: square"/>
    </g>
    <g id="text_12">
     <!-- 0 -->
     <g transform="translate(456.1199 458.39038) scale(0.1 -0.1)">
      <use xlink:href="#DejaVuSans-30"/>
     </g>
    </g>
   </g>
   <g id="xtick_13">
    <g id="line2d_15">
     <path d="M 473.9312 406.847738 
L 481.481199 409.121848 
" style="fill: none; stroke: #000000; stroke-width: 0.8; stroke-linecap: square"/>
    </g>
    <g id="text_13">
     <!-- 5 -->
     <g transform="translate(485.46764 427.862054) scale(0.1 -0.1)">
      <use xlink:href="#DejaVuSans-35"/>
     </g>
    </g>
   </g>
   <g id="xtick_14">
    <g id="line2d_16">
     <path d="M 502.565824 377.51421 
L 510.031073 379.717119 
" style="fill: none; stroke: #000000; stroke-width: 0.8; stroke-linecap: square"/>
    </g>
    <g id="text_14">
     <!-- 10 -->
     <g transform="translate(510.7079 398.297217) scale(0.1 -0.1)">
      <use xlink:href="#DejaVuSans-31"/>
      <use xlink:href="#DejaVuSans-30" x="63.623047"/>
     </g>
    </g>
   </g>
  </g>
  <g id="axis3d_3">
   <g id="line2d_17">
    <path d="M 525.921668 356.830763 
L 536.405628 127.887856 
" style="fill: none; stroke: #000000; stroke-width: 0.8; stroke-linecap: square"/>
   </g>
   <g id="xtick_15">
    <g id="line2d_18">
     <path d="M 523.654713 351.728935 
L 531.064034 353.877244 
" style="fill: none; stroke: #000000; stroke-width: 0.8; stroke-linecap: square"/>
    </g>
    <g id="text_15">
     <!-- −4 -->
     <g transform="translate(537.043944 357.437934) scale(0.1 -0.1)">
      <use xlink:href="#DejaVuSans-2212"/>
      <use xlink:href="#DejaVuSans-34" x="83.789062"/>
     </g>
    </g>
   </g>
   <g id="xtick_16">
    <g id="line2d_19">
     <path d="M 524.853906 325.259088 
L 532.303045 327.386859 
" style="fill: none; stroke: #000000; stroke-width: 0.8; stroke-linecap: square"/>
    </g>
    <g id="text_16">
     <!-- −3 -->
     <g transform="translate(538.34918 330.986173) scale(0.1 -0.1)">
      <defs>
       <path id="DejaVuSans-33" d="M 2597 2516 
Q 3050 2419 3304 2112 
Q 3559 1806 3559 1356 
Q 3559 666 3084 287 
Q 2609 -91 1734 -91 
Q 1441 -91 1130 -33 
Q 819 25 488 141 
L 488 750 
Q 750 597 1062 519 
Q 1375 441 1716 441 
Q 2309 441 2620 675 
Q 2931 909 2931 1356 
Q 2931 1769 2642 2001 
Q 2353 2234 1838 2234 
L 1294 2234 
L 1294 2753 
L 1863 2753 
Q 2328 2753 2575 2939 
Q 2822 3125 2822 3475 
Q 2822 3834 2567 4026 
Q 2313 4219 1838 4219 
Q 1578 4219 1281 4162 
Q 984 4106 628 3988 
L 628 4550 
Q 988 4650 1302 4700 
Q 1616 4750 1894 4750 
Q 2613 4750 3031 4423 
Q 3450 4097 3450 3541 
Q 3450 3153 3228 2886 
Q 3006 2619 2597 2516 
z
" transform="scale(0.015625)"/>
      </defs>
      <use xlink:href="#DejaVuSans-2212"/>
      <use xlink:href="#DejaVuSans-33" x="83.789062"/>
     </g>
    </g>
   </g>
   <g id="xtick_17">
    <g id="line2d_20">
     <path d="M 526.065573 298.513895 
L 533.554959 300.620582 
" style="fill: none; stroke: #000000; stroke-width: 0.8; stroke-linecap: square"/>
    </g>
    <g id="text_17">
     <!-- −2 -->
     <g transform="translate(539.66798 304.259544) scale(0.1 -0.1)">
      <use xlink:href="#DejaVuSans-2212"/>
      <use xlink:href="#DejaVuSans-32" x="83.789062"/>
     </g>
    </g>
   </g>
   <g id="xtick_18">
    <g id="line2d_21">
     <path d="M 527.28991 271.489037 
L 534.819981 273.574082 
" style="fill: none; stroke: #000000; stroke-width: 0.8; stroke-linecap: square"/>
    </g>
    <g id="text_18">
     <!-- −1 -->
     <g transform="translate(541.000555 277.253742) scale(0.1 -0.1)">
      <use xlink:href="#DejaVuSans-2212"/>
      <use xlink:href="#DejaVuSans-31" x="83.789062"/>
     </g>
    </g>
   </g>
   <g id="xtick_19">
    <g id="line2d_22">
     <path d="M 528.527116 244.180104 
L 536.098316 246.242933 
" style="fill: none; stroke: #000000; stroke-width: 0.8; stroke-linecap: square"/>
    </g>
    <g id="text_19">
     <!-- 0 -->
     <g transform="translate(546.536966 249.964368) scale(0.1 -0.1)">
      <use xlink:href="#DejaVuSans-30"/>
     </g>
    </g>
   </g>
   <g id="xtick_20">
    <g id="line2d_23">
     <path d="M 529.777397 216.582593 
L 537.390175 218.62262 
" style="fill: none; stroke: #000000; stroke-width: 0.8; stroke-linecap: square"/>
    </g>
    <g id="text_20">
     <!-- 1 -->
     <g transform="translate(547.897748 222.386933) scale(0.1 -0.1)">
      <use xlink:href="#DejaVuSans-31"/>
     </g>
    </g>
   </g>
   <g id="xtick_21">
    <g id="line2d_24">
     <path d="M 531.040959 188.691906 
L 538.695776 190.708527 
" style="fill: none; stroke: #000000; stroke-width: 0.8; stroke-linecap: square"/>
    </g>
    <g id="text_21">
     <!-- 2 -->
     <g transform="translate(549.27297 194.516852) scale(0.1 -0.1)">
      <use xlink:href="#DejaVuSans-32"/>
     </g>
    </g>
   </g>
   <g id="xtick_22">
    <g id="line2d_25">
     <path d="M 532.318017 160.503346 
L 540.015337 162.495944 
" style="fill: none; stroke: #000000; stroke-width: 0.8; stroke-linecap: square"/>
    </g>
    <g id="text_22">
     <!-- 3 -->
     <g transform="translate(550.662863 166.349441) scale(0.1 -0.1)">
      <use xlink:href="#DejaVuSans-33"/>
     </g>
    </g>
   </g>
   <g id="xtick_23">
    <g id="line2d_26">
     <path d="M 533.608786 132.012116 
L 541.349085 133.980056 
" style="fill: none; stroke: #000000; stroke-width: 0.8; stroke-linecap: square"/>
    </g>
    <g id="text_23">
     <!-- 4 -->
     <g transform="translate(552.067664 137.879916) scale(0.1 -0.1)">
      <use xlink:href="#DejaVuSans-34"/>
     </g>
    </g>
   </g>
  </g>
  <g id="axes_1">
   <g id="Line3DCollection_4">
    <path d="M 142.50439 326.224959 
L 156.360615 332.931837 
L 170.196376 339.628809 
L 184.01172 346.315899 
L 197.80669 352.993128 
L 211.581332 359.660517 
L 225.335692 366.318089 
L 239.069812 372.965864 
L 252.78374 379.603865 
L 266.477518 386.232113 
L 280.151191 392.85063 
L 293.804804 399.459437 
L 307.4384 406.058555 
L 321.052024 412.648006 
L 334.64572 419.227811 
L 348.21953 425.797991 
L 361.7735 432.358567 
L 375.307671 438.90956 
L 388.822088 445.450992 
L 402.316794 451.982882 
" clip-path="url(#pa18b5cfc13)" style="fill: none; stroke: #ff0000; stroke-width: 0.5"/>
    <path d="M 144.805939 314.201087 
L 158.629233 320.901712 
L 172.432158 327.592464 
L 186.21476 334.273364 
L 199.977082 340.944433 
L 213.719171 347.605695 
L 227.441069 354.25717 
L 241.142822 360.89888 
L 254.824475 367.530846 
L 268.48607 374.15309 
L 282.127653 380.765633 
L 295.749268 387.368497 
L 309.350957 393.961703 
L 322.932766 400.545271 
L 336.494737 407.119224 
L 350.036913 413.683581 
L 363.559339 420.238365 
L 377.062057 426.783595 
L 390.54511 433.319294 
L 404.008542 439.845481 
" clip-path="url(#pa18b5cfc13)" style="fill: none; stroke: #ff0000; stroke-width: 0.5"/>
    <path d="M 147.097128 302.231341 
L 160.887647 308.925701 
L 174.657891 315.610219 
L 188.407905 322.284917 
L 202.137734 328.949816 
L 215.847421 335.604938 
L 229.537011 342.250304 
L 243.206548 348.885936 
L 256.856077 355.511855 
L 270.485641 362.128082 
L 284.095284 368.734639 
L 297.685049 375.331547 
L 311.254981 381.918827 
L 324.805121 388.4965 
L 338.335515 395.064586 
L 351.846204 401.623108 
L 365.337233 408.172086 
L 378.808643 414.711541 
L 392.260477 421.241492 
L 405.692779 427.761962 
" clip-path="url(#pa18b5cfc13)" style="fill: none; stroke: #ff0000; stroke-width: 0.5"/>
    <path d="M 149.378026 290.315355 
L 163.135925 297.003439 
L 176.873642 303.681712 
L 190.591222 310.350196 
L 204.288709 317.008913 
L 217.966147 323.657883 
L 231.623581 330.297128 
L 245.261053 336.92667 
L 258.878608 343.546529 
L 272.47629 350.156727 
L 286.054141 356.757286 
L 299.612206 363.348225 
L 313.150527 369.929567 
L 326.669147 376.501331 
L 340.16811 383.06354 
L 353.647458 389.616213 
L 367.107234 396.159372 
L 380.547481 402.693037 
L 393.968241 409.217228 
L 407.369556 415.731968 
" clip-path="url(#pa18b5cfc13)" style="fill: none; stroke: #ff0000; stroke-width: 0.5"/>
    <path d="M 151.648703 278.452767 
L 165.374135 285.134564 
L 179.079478 291.806582 
L 192.764776 298.468841 
L 206.430073 305.121363 
L 220.075414 311.76417 
L 233.700841 318.397283 
L 247.306398 325.020723 
L 260.892129 331.634511 
L 274.458077 338.238668 
L 288.004284 344.833216 
L 301.530795 351.418174 
L 315.037653 357.993565 
L 328.524899 364.559409 
L 341.992576 371.115726 
L 355.440728 377.662538 
L 368.869396 384.199865 
L 382.278623 390.727728 
L 395.668451 397.246147 
L 409.038923 403.755142 
" clip-path="url(#pa18b5cfc13)" style="fill: none; stroke: #ff0000; stroke-width: 0.5"/>
    <path d="M 153.909227 266.64322 
L 167.602344 273.31872 
L 181.275465 279.98447 
L 194.928633 286.640494 
L 208.561891 293.286811 
L 222.175284 299.923444 
L 235.768854 306.550413 
L 249.342644 313.16774 
L 262.896699 319.775445 
L 276.43106 326.373549 
L 289.945771 332.962074 
L 303.440875 339.54104 
L 316.916414 346.110468 
L 330.372431 352.670379 
L 343.808967 359.220793 
L 357.226066 365.761732 
L 370.62377 372.293214 
L 384.00212 378.815262 
L 397.361158 385.327896 
L 410.700927 391.831135 
" clip-path="url(#pa18b5cfc13)" style="fill: none; stroke: #ff0000; stroke-width: 0.5"/>
    <path d="M 156.159666 254.886359 
L 169.820621 261.55555 
L 183.46167 268.215024 
L 197.082857 274.864801 
L 210.684226 281.504903 
L 224.26582 288.135351 
L 237.827681 294.756165 
L 251.369852 301.367367 
L 264.892378 307.968978 
L 278.395299 314.561019 
L 291.878659 321.14351 
L 305.342501 327.716472 
L 318.786866 334.279925 
L 332.211798 340.833892 
L 345.617337 347.378391 
L 359.003526 353.913443 
L 372.370407 360.43907 
L 385.718022 366.95529 
L 399.046412 373.462126 
L 412.355618 379.959596 
" clip-path="url(#pa18b5cfc13)" style="fill: none; stroke: #ff0000; stroke-width: 0.5"/>
    <path d="M 158.400088 243.181831 
L 172.02903 249.844705 
L 185.638157 256.497891 
L 199.227514 263.141412 
L 212.797141 269.775288 
L 226.347083 276.39954 
L 239.877383 283.014189 
L 253.388082 289.619256 
L 266.879224 296.214762 
L 280.350851 302.800728 
L 293.803006 309.377173 
L 307.23573 315.94412 
L 320.649065 322.501588 
L 334.043054 329.049598 
L 347.417738 335.588171 
L 360.773159 342.117326 
L 374.109359 348.637084 
L 387.426379 355.147466 
L 400.72426 361.648491 
L 414.003044 368.14018 
" clip-path="url(#pa18b5cfc13)" style="fill: none; stroke: #ff0000; stroke-width: 0.5"/>
    <path d="M 160.630559 231.529289 
L 174.227638 238.185835 
L 187.804992 244.832724 
L 201.362665 251.469978 
L 214.900699 258.097618 
L 228.419137 264.715664 
L 241.918021 271.324138 
L 255.397394 277.923059 
L 268.857298 284.51245 
L 282.297775 291.09233 
L 295.718867 297.66272 
L 309.120616 304.22364 
L 322.503064 310.775112 
L 335.866253 317.317155 
L 349.210223 323.849789 
L 362.535017 330.373036 
L 375.840676 336.886915 
L 389.127241 343.391446 
L 402.394753 349.88665 
L 415.643253 356.372546 
" clip-path="url(#pa18b5cfc13)" style="fill: none; stroke: #ff0000; stroke-width: 0.5"/>
    <path d="M 162.851145 219.928387 
L 176.416509 226.578595 
L 189.962238 233.219178 
L 203.488375 239.850156 
L 216.994962 246.47155 
L 230.482041 253.08338 
L 243.949655 259.685668 
L 257.397846 266.278435 
L 270.826656 272.861699 
L 284.236126 279.435483 
L 297.626299 285.999807 
L 310.997215 292.554691 
L 324.348918 299.100155 
L 337.681447 305.63622 
L 350.994845 312.162906 
L 364.289151 318.680232 
L 377.564409 325.188221 
L 390.820657 331.68689 
L 404.057938 338.176261 
L 417.276291 344.656353 
" clip-path="url(#pa18b5cfc13)" style="fill: none; stroke: #ff0000; stroke-width: 0.5"/>
    <path d="M 165.061912 208.378781 
L 178.595708 215.022644 
L 192.109959 221.656911 
L 205.604705 228.281603 
L 219.07999 234.896742 
L 232.535856 241.502347 
L 245.972344 248.09844 
L 259.389497 254.685041 
L 272.787355 261.26217 
L 286.165961 267.829848 
L 299.525357 274.388095 
L 312.865582 280.936932 
L 326.18668 287.476378 
L 339.48869 294.006455 
L 352.771654 300.527181 
L 366.035612 307.038578 
L 379.280606 313.540664 
L 392.506676 320.033461 
L 405.713863 326.516988 
L 418.902207 332.991264 
" clip-path="url(#pa18b5cfc13)" style="fill: none; stroke: #ff0000; stroke-width: 0.5"/>
    <path d="M 167.262925 196.880134 
L 180.7653 203.517641 
L 194.248217 210.145583 
L 207.711719 216.763981 
L 221.155846 223.372855 
L 234.580642 229.972226 
L 247.986148 236.562115 
L 261.372404 243.142541 
L 274.739454 249.713525 
L 288.087337 256.275087 
L 301.416096 262.827248 
L 314.725771 269.370028 
L 328.016403 275.903446 
L 341.288033 282.427524 
L 354.540702 288.942281 
L 367.77445 295.447737 
L 380.989318 301.943911 
L 394.185347 308.430825 
L 407.362576 314.908497 
L 420.521046 321.376947 
" clip-path="url(#pa18b5cfc13)" style="fill: none; stroke: #ff0000; stroke-width: 0.5"/>
    <path d="M 169.454249 185.432107 
L 182.925347 192.063251 
L 196.377076 198.68486 
L 209.809476 205.296955 
L 223.22259 211.899556 
L 236.616459 218.492683 
L 249.991124 225.076358 
L 263.346626 231.6506 
L 276.683008 238.21543 
L 290.000309 244.770867 
L 303.298571 251.316932 
L 316.577834 257.853645 
L 329.83814 264.381026 
L 343.079528 270.899096 
L 356.30204 277.407873 
L 369.505715 283.907378 
L 382.690594 290.39763 
L 395.856717 296.87865 
L 409.004123 303.350457 
L 422.132854 309.81307 
" clip-path="url(#pa18b5cfc13)" style="fill: none; stroke: #ff0000; stroke-width: 0.5"/>
    <path d="M 171.635947 174.034368 
L 185.075913 180.659141 
L 198.496597 187.274408 
L 211.898039 193.880191 
L 225.280281 200.476511 
L 238.643365 207.063386 
L 251.98733 213.640838 
L 265.31222 220.208887 
L 278.618073 226.767553 
L 291.904932 233.316856 
L 305.172836 239.856817 
L 318.421826 246.387454 
L 331.651943 252.908788 
L 344.863227 259.420839 
L 358.055718 265.923627 
L 371.229456 272.417171 
L 384.384481 278.901492 
L 397.520833 285.376608 
L 410.638552 291.842539 
L 423.737677 298.299305 
" clip-path="url(#pa18b5cfc13)" style="fill: none; stroke: #ff0000; stroke-width: 0.5"/>
    <path d="M 173.808082 162.686586 
L 187.21706 169.304979 
L 200.606841 175.913897 
L 213.977467 182.513361 
L 227.328979 189.10339 
L 240.661418 195.684005 
L 253.974825 202.255226 
L 267.269241 208.817074 
L 280.544705 215.369568 
L 293.80126 221.912728 
L 307.038944 228.446574 
L 320.257799 234.971126 
L 333.457864 241.486404 
L 346.63918 247.992428 
L 359.801786 254.489217 
L 372.945722 260.976791 
L 386.071028 267.45517 
L 399.177744 273.924373 
L 412.265908 280.384419 
L 425.335561 286.835328 
" clip-path="url(#pa18b5cfc13)" style="fill: none; stroke: #ff0000; stroke-width: 0.5"/>
    <path d="M 175.970718 151.388434 
L 189.348848 158.000439 
L 202.707869 164.603 
L 216.04782 171.196136 
L 229.368742 177.779868 
L 242.670677 184.354214 
L 255.953665 190.919197 
L 269.217745 197.474834 
L 282.462959 204.021147 
L 295.689347 210.558156 
L 308.896949 217.08588 
L 322.085805 223.604338 
L 335.255954 230.113551 
L 348.407437 236.613539 
L 361.540293 243.10432 
L 374.654562 249.585915 
L 387.750282 256.058342 
L 400.827495 262.521622 
L 413.886238 268.975774 
L 426.92655 275.420817 
" clip-path="url(#pa18b5cfc13)" style="fill: none; stroke: #ff0000; stroke-width: 0.5"/>
    <path d="M 178.123916 140.139585 
L 191.471341 146.745197 
L 204.799741 153.341393 
L 218.109157 159.928194 
L 231.39963 166.50562 
L 244.671199 173.07369 
L 257.923905 179.632425 
L 271.157789 186.181845 
L 284.37289 192.72197 
L 297.569248 199.252818 
L 310.746903 205.774411 
L 323.905895 212.286767 
L 337.046264 218.789907 
L 350.168048 225.283849 
L 363.271288 231.768614 
L 376.356023 238.244221 
L 389.422291 244.710688 
L 402.470133 251.168036 
L 415.499586 257.616284 
L 428.51069 264.055451 
" clip-path="url(#pa18b5cfc13)" style="fill: none; stroke: #ff0000; stroke-width: 0.5"/>
    <path d="M 180.267738 128.93972 
L 193.584598 135.53893 
L 206.882518 142.128754 
L 220.161538 148.709212 
L 233.421699 155.280325 
L 246.663041 161.842112 
L 259.885603 168.394593 
L 273.089427 174.937787 
L 286.274551 181.471715 
L 299.441015 187.996396 
L 312.588859 194.511849 
L 325.718122 201.018095 
L 338.828844 207.515153 
L 351.921064 214.003042 
L 364.994821 220.481781 
L 378.050154 226.951391 
L 391.087102 233.41189 
L 404.105703 239.863297 
L 417.105998 246.305632 
L 430.088023 252.738914 
" clip-path="url(#pa18b5cfc13)" style="fill: none; stroke: #ff0000; stroke-width: 0.5"/>
    <path d="M 182.402245 117.788517 
L 195.688679 124.381319 
L 208.956257 130.964764 
L 222.20502 137.538873 
L 235.435007 144.103666 
L 248.646259 150.659162 
L 261.838814 157.205381 
L 275.012713 163.742342 
L 288.167996 170.270066 
L 301.304701 176.788571 
L 314.422868 183.297878 
L 327.522536 189.798006 
L 340.603744 196.288973 
L 353.666532 202.770801 
L 366.710938 209.243507 
L 379.737001 215.707111 
L 392.74476 222.161633 
L 405.734252 228.60709 
L 418.705518 235.043504 
L 431.658594 241.470892 
" clip-path="url(#pa18b5cfc13)" style="fill: none; stroke: #ff0000; stroke-width: 0.5"/>
    <path d="M 184.527497 106.685661 
L 197.783644 113.272048 
L 211.021019 119.849108 
L 224.239661 126.416861 
L 237.439611 132.975327 
L 250.620909 139.524525 
L 263.783592 146.064475 
L 276.927702 152.595196 
L 290.053278 159.116708 
L 303.160358 165.62903 
L 316.248981 172.132183 
L 329.319187 178.626185 
L 342.371015 185.111055 
L 355.404502 191.586813 
L 368.419688 198.053477 
L 381.416612 204.511068 
L 394.395311 210.959604 
L 407.355825 217.399105 
L 420.29819 223.829588 
L 433.222446 230.251074 
" clip-path="url(#pa18b5cfc13)" style="fill: none; stroke: #ff0000; stroke-width: 0.5"/>
    <path d="M 142.50439 326.224959 
L 144.805939 314.201087 
L 147.097128 302.231341 
L 149.378026 290.315355 
L 151.648703 278.452767 
L 153.909227 266.64322 
L 156.159666 254.886359 
L 158.400088 243.181831 
L 160.630559 231.529289 
L 162.851145 219.928387 
L 165.061912 208.378781 
L 167.262925 196.880134 
L 169.454249 185.432107 
L 171.635947 174.034368 
L 173.808082 162.686586 
L 175.970718 151.388434 
L 178.123916 140.139585 
L 180.267738 128.93972 
L 182.402245 117.788517 
L 184.527497 106.685661 
" clip-path="url(#pa18b5cfc13)" style="fill: none; stroke: #ff0000; stroke-width: 0.5"/>
    <path d="M 156.360615 332.931837 
L 158.629233 320.901712 
L 160.887647 308.925701 
L 163.135925 297.003439 
L 165.374135 285.134564 
L 167.602344 273.31872 
L 169.820621 261.55555 
L 172.02903 249.844705 
L 174.227638 238.185835 
L 176.416509 226.578595 
L 178.595708 215.022644 
L 180.7653 203.517641 
L 182.925347 192.063251 
L 185.075913 180.659141 
L 187.21706 169.304979 
L 189.348848 158.000439 
L 191.471341 146.745197 
L 193.584598 135.53893 
L 195.688679 124.381319 
L 197.783644 113.272048 
" clip-path="url(#pa18b5cfc13)" style="fill: none; stroke: #ff0000; stroke-width: 0.5"/>
    <path d="M 170.196376 339.628809 
L 172.432158 327.592464 
L 174.657891 315.610219 
L 176.873642 303.681712 
L 179.079478 291.806582 
L 181.275465 279.98447 
L 183.46167 268.215024 
L 185.638157 256.497891 
L 187.804992 244.832724 
L 189.962238 233.219178 
L 192.109959 221.656911 
L 194.248217 210.145583 
L 196.377076 198.68486 
L 198.496597 187.274408 
L 200.606841 175.913897 
L 202.707869 164.603 
L 204.799741 153.341393 
L 206.882518 142.128754 
L 208.956257 130.964764 
L 211.021019 119.849108 
" clip-path="url(#pa18b5cfc13)" style="fill: none; stroke: #ff0000; stroke-width: 0.5"/>
    <path d="M 184.01172 346.315899 
L 186.21476 334.273364 
L 188.407905 322.284917 
L 190.591222 310.350196 
L 192.764776 298.468841 
L 194.928633 286.640494 
L 197.082857 274.864801 
L 199.227514 263.141412 
L 201.362665 251.469978 
L 203.488375 239.850156 
L 205.604705 228.281603 
L 207.711719 216.763981 
L 209.809476 205.296955 
L 211.898039 193.880191 
L 213.977467 182.513361 
L 216.04782 171.196136 
L 218.109157 159.928194 
L 220.161538 148.709212 
L 222.20502 137.538873 
L 224.239661 126.416861 
" clip-path="url(#pa18b5cfc13)" style="fill: none; stroke: #ff0000; stroke-width: 0.5"/>
    <path d="M 197.80669 352.993128 
L 199.977082 340.944433 
L 202.137734 328.949816 
L 204.288709 317.008913 
L 206.430073 305.121363 
L 208.561891 293.286811 
L 210.684226 281.504903 
L 212.797141 269.775288 
L 214.900699 258.097618 
L 216.994962 246.47155 
L 219.07999 234.896742 
L 221.155846 223.372855 
L 223.22259 211.899556 
L 225.280281 200.476511 
L 227.328979 189.10339 
L 229.368742 177.779868 
L 231.39963 166.50562 
L 233.421699 155.280325 
L 235.435007 144.103666 
L 237.439611 132.975327 
" clip-path="url(#pa18b5cfc13)" style="fill: none; stroke: #ff0000; stroke-width: 0.5"/>
    <path d="M 211.581332 359.660517 
L 213.719171 347.605695 
L 215.847421 335.604938 
L 217.966147 323.657883 
L 220.075414 311.76417 
L 222.175284 299.923444 
L 224.26582 288.135351 
L 226.347083 276.39954 
L 228.419137 264.715664 
L 230.482041 253.08338 
L 232.535856 241.502347 
L 234.580642 229.972226 
L 236.616459 218.492683 
L 238.643365 207.063386 
L 240.661418 195.684005 
L 242.670677 184.354214 
L 244.671199 173.07369 
L 246.663041 161.842112 
L 248.646259 150.659162 
L 250.620909 139.524525 
" clip-path="url(#pa18b5cfc13)" style="fill: none; stroke: #ff0000; stroke-width: 0.5"/>
    <path d="M 225.335692 366.318089 
L 227.441069 354.25717 
L 229.537011 342.250304 
L 231.623581 330.297128 
L 233.700841 318.397283 
L 235.768854 306.550413 
L 237.827681 294.756165 
L 239.877383 283.014189 
L 241.918021 271.324138 
L 243.949655 259.685668 
L 245.972344 248.09844 
L 247.986148 236.562115 
L 249.991124 225.076358 
L 251.98733 213.640838 
L 253.974825 202.255226 
L 255.953665 190.919197 
L 257.923905 179.632425 
L 259.885603 168.394593 
L 261.838814 157.205381 
L 263.783592 146.064475 
" clip-path="url(#pa18b5cfc13)" style="fill: none; stroke: #ff0000; stroke-width: 0.5"/>
    <path d="M 239.069812 372.965864 
L 241.142822 360.89888 
L 243.206548 348.885936 
L 245.261053 336.92667 
L 247.306398 325.020723 
L 249.342644 313.16774 
L 251.369852 301.367367 
L 253.388082 289.619256 
L 255.397394 277.923059 
L 257.397846 266.278435 
L 259.389497 254.685041 
L 261.372404 243.142541 
L 263.346626 231.6506 
L 265.31222 220.208887 
L 267.269241 208.817074 
L 269.217745 197.474834 
L 271.157789 186.181845 
L 273.089427 174.937787 
L 275.012713 163.742342 
L 276.927702 152.595196 
" clip-path="url(#pa18b5cfc13)" style="fill: none; stroke: #ff0000; stroke-width: 0.5"/>
    <path d="M 252.78374 379.603865 
L 254.824475 367.530846 
L 256.856077 355.511855 
L 258.878608 343.546529 
L 260.892129 331.634511 
L 262.896699 319.775445 
L 264.892378 307.968978 
L 266.879224 296.214762 
L 268.857298 284.51245 
L 270.826656 272.861699 
L 272.787355 261.26217 
L 274.739454 249.713525 
L 276.683008 238.21543 
L 278.618073 226.767553 
L 280.544705 215.369568 
L 282.462959 204.021147 
L 284.37289 192.72197 
L 286.274551 181.471715 
L 288.167996 170.270066 
L 290.053278 159.116708 
" clip-path="url(#pa18b5cfc13)" style="fill: none; stroke: #ff0000; stroke-width: 0.5"/>
    <path d="M 266.477518 386.232113 
L 268.48607 374.15309 
L 270.485641 362.128082 
L 272.47629 350.156727 
L 274.458077 338.238668 
L 276.43106 326.373549 
L 278.395299 314.561019 
L 280.350851 302.800728 
L 282.297775 291.09233 
L 284.236126 279.435483 
L 286.165961 267.829848 
L 288.087337 256.275087 
L 290.000309 244.770867 
L 291.904932 233.316856 
L 293.80126 221.912728 
L 295.689347 210.558156 
L 297.569248 199.252818 
L 299.441015 187.996396 
L 301.304701 176.788571 
L 303.160358 165.62903 
" clip-path="url(#pa18b5cfc13)" style="fill: none; stroke: #ff0000; stroke-width: 0.5"/>
    <path d="M 280.151191 392.85063 
L 282.127653 380.765633 
L 284.095284 368.734639 
L 286.054141 356.757286 
L 288.004284 344.833216 
L 289.945771 332.962074 
L 291.878659 321.14351 
L 293.803006 309.377173 
L 295.718867 297.66272 
L 297.626299 285.999807 
L 299.525357 274.388095 
L 301.416096 262.827248 
L 303.298571 251.316932 
L 305.172836 239.856817 
L 307.038944 228.446574 
L 308.896949 217.08588 
L 310.746903 205.774411 
L 312.588859 194.511849 
L 314.422868 183.297878 
L 316.248981 172.132183 
" clip-path="url(#pa18b5cfc13)" style="fill: none; stroke: #ff0000; stroke-width: 0.5"/>
    <path d="M 293.804804 399.459437 
L 295.749268 387.368497 
L 297.685049 375.331547 
L 299.612206 363.348225 
L 301.530795 351.418174 
L 303.440875 339.54104 
L 305.342501 327.716472 
L 307.23573 315.94412 
L 309.120616 304.22364 
L 310.997215 292.554691 
L 312.865582 280.936932 
L 314.725771 269.370028 
L 316.577834 257.853645 
L 318.421826 246.387454 
L 320.257799 234.971126 
L 322.085805 223.604338 
L 323.905895 212.286767 
L 325.718122 201.018095 
L 327.522536 189.798006 
L 329.319187 178.626185 
" clip-path="url(#pa18b5cfc13)" style="fill: none; stroke: #ff0000; stroke-width: 0.5"/>
    <path d="M 307.4384 406.058555 
L 309.350957 393.961703 
L 311.254981 381.918827 
L 313.150527 369.929567 
L 315.037653 357.993565 
L 316.916414 346.110468 
L 318.786866 334.279925 
L 320.649065 322.501588 
L 322.503064 310.775112 
L 324.348918 299.100155 
L 326.18668 287.476378 
L 328.016403 275.903446 
L 329.83814 264.381026 
L 331.651943 252.908788 
L 333.457864 241.486404 
L 335.255954 230.113551 
L 337.046264 218.789907 
L 338.828844 207.515153 
L 340.603744 196.288973 
L 342.371015 185.111055 
" clip-path="url(#pa18b5cfc13)" style="fill: none; stroke: #ff0000; stroke-width: 0.5"/>
    <path d="M 321.052024 412.648006 
L 322.932766 400.545271 
L 324.805121 388.4965 
L 326.669147 376.501331 
L 328.524899 364.559409 
L 330.372431 352.670379 
L 332.211798 340.833892 
L 334.043054 329.049598 
L 335.866253 317.317155 
L 337.681447 305.63622 
L 339.48869 294.006455 
L 341.288033 282.427524 
L 343.079528 270.899096 
L 344.863227 259.420839 
L 346.63918 247.992428 
L 348.407437 236.613539 
L 350.168048 225.283849 
L 351.921064 214.003042 
L 353.666532 202.770801 
L 355.404502 191.586813 
" clip-path="url(#pa18b5cfc13)" style="fill: none; stroke: #ff0000; stroke-width: 0.5"/>
    <path d="M 334.64572 419.227811 
L 336.494737 407.119224 
L 338.335515 395.064586 
L 340.16811 383.06354 
L 341.992576 371.115726 
L 343.808967 359.220793 
L 345.617337 347.378391 
L 347.417738 335.588171 
L 349.210223 323.849789 
L 350.994845 312.162906 
L 352.771654 300.527181 
L 354.540702 288.942281 
L 356.30204 277.407873 
L 358.055718 265.923627 
L 359.801786 254.489217 
L 361.540293 243.10432 
L 363.271288 231.768614 
L 364.994821 220.481781 
L 366.710938 209.243507 
L 368.419688 198.053477 
" clip-path="url(#pa18b5cfc13)" style="fill: none; stroke: #ff0000; stroke-width: 0.5"/>
    <path d="M 348.21953 425.797991 
L 350.036913 413.683581 
L 351.846204 401.623108 
L 353.647458 389.616213 
L 355.440728 377.662538 
L 357.226066 365.761732 
L 359.003526 353.913443 
L 360.773159 342.117326 
L 362.535017 330.373036 
L 364.289151 318.680232 
L 366.035612 307.038578 
L 367.77445 295.447737 
L 369.505715 283.907378 
L 371.229456 272.417171 
L 372.945722 260.976791 
L 374.654562 249.585915 
L 376.356023 238.244221 
L 378.050154 226.951391 
L 379.737001 215.707111 
L 381.416612 204.511068 
" clip-path="url(#pa18b5cfc13)" style="fill: none; stroke: #ff0000; stroke-width: 0.5"/>
    <path d="M 361.7735 432.358567 
L 363.559339 420.238365 
L 365.337233 408.172086 
L 367.107234 396.159372 
L 368.869396 384.199865 
L 370.62377 372.293214 
L 372.370407 360.43907 
L 374.109359 348.637084 
L 375.840676 336.886915 
L 377.564409 325.188221 
L 379.280606 313.540664 
L 380.989318 301.943911 
L 382.690594 290.39763 
L 384.384481 278.901492 
L 386.071028 267.45517 
L 387.750282 256.058342 
L 389.422291 244.710688 
L 391.087102 233.41189 
L 392.74476 222.161633 
L 394.395311 210.959604 
" clip-path="url(#pa18b5cfc13)" style="fill: none; stroke: #ff0000; stroke-width: 0.5"/>
    <path d="M 375.307671 438.90956 
L 377.062057 426.783595 
L 378.808643 414.711541 
L 380.547481 402.693037 
L 382.278623 390.727728 
L 384.00212 378.815262 
L 385.718022 366.95529 
L 387.426379 355.147466 
L 389.127241 343.391446 
L 390.820657 331.68689 
L 392.506676 320.033461 
L 394.185347 308.430825 
L 395.856717 296.87865 
L 397.520833 285.376608 
L 399.177744 273.924373 
L 400.827495 262.521622 
L 402.470133 251.168036 
L 404.105703 239.863297 
L 405.734252 228.60709 
L 407.355825 217.399105 
" clip-path="url(#pa18b5cfc13)" style="fill: none; stroke: #ff0000; stroke-width: 0.5"/>
    <path d="M 388.822088 445.450992 
L 390.54511 433.319294 
L 392.260477 421.241492 
L 393.968241 409.217228 
L 395.668451 397.246147 
L 397.361158 385.327896 
L 399.046412 373.462126 
L 400.72426 361.648491 
L 402.394753 349.88665 
L 404.057938 338.176261 
L 405.713863 326.516988 
L 407.362576 314.908497 
L 409.004123 303.350457 
L 410.638552 291.842539 
L 412.265908 280.384419 
L 413.886238 268.975774 
L 415.499586 257.616284 
L 417.105998 246.305632 
L 418.705518 235.043504 
L 420.29819 223.829588 
" clip-path="url(#pa18b5cfc13)" style="fill: none; stroke: #ff0000; stroke-width: 0.5"/>
    <path d="M 402.316794 451.982882 
L 404.008542 439.845481 
L 405.692779 427.761962 
L 407.369556 415.731968 
L 409.038923 403.755142 
L 410.700927 391.831135 
L 412.355618 379.959596 
L 414.003044 368.14018 
L 415.643253 356.372546 
L 417.276291 344.656353 
L 418.902207 332.991264 
L 420.521046 321.376947 
L 422.132854 309.81307 
L 423.737677 298.299305 
L 425.335561 286.835328 
L 426.92655 275.420817 
L 428.51069 264.055451 
L 430.088023 252.738914 
L 431.658594 241.470892 
L 433.222446 230.251074 
" clip-path="url(#pa18b5cfc13)" style="fill: none; stroke: #ff0000; stroke-width: 0.5"/>
   </g>
  </g>
 </g>
 <defs>
  <clipPath id="pa18b5cfc13">
   <rect x="7.2" y="7.2" width="554.4" height="554.4"/>
  </clipPath>
 </defs>
</svg>