<?xml version="1.0" encoding="utf-8" standalone="no"?>
<!DOCTYPE svg PUBLIC "-//W3C//DTD SVG 1.1//EN"
  "http://www.w3.org/Graphics/SVG/1.1/DTD/svg11.dtd">
<svg xmlns:xlink="http://www.w3.org/1999/xlink" width="451.442625pt" height="335.86825pt" viewBox="0 0 451.442625 335.86825" xmlns="http://www.w3.org/2000/svg" version="1.1">
 <metadata>
  <rdf:RDF xmlns:dc="http://purl.org/dc/elements/1.1/" xmlns:cc="http://creativecommons.org/ns#" xmlns:rdf="http://www.w3.org/1999/02/22-rdf-syntax-ns#">
   <cc:Work>
    <dc:type rdf:resource="http://purl.org/dc/dcmitype/StillImage"/>
    <dc:date>2024-12-17T09:44:33.204265</dc:date>
    <dc:format>image/svg+xml</dc:format>
    <dc:creator>
     <cc:Agent>
      <dc:title>Matplotlib v3.9.0, https://matplotlib.org/</dc:title>
     </cc:Agent>
    </dc:creator>
   </cc:Work>
  </rdf:RDF>
 </metadata>
 <defs>
  <style type="text/css">*{stroke-linejoin: round; stroke-linecap: butt}</style>
 </defs>
 <g id="figure_1">
  <g id="patch_1">
   <path d="M 0 335.86825 
L 451.442625 335.86825 
L 451.442625 0 
L 0 0 
z
" style="fill: #ffffff"/>
  </g>
  <g id="axes_1">
   <g id="patch_2">
    <path d="M 34.240625 298.312 
L 444.242625 298.312 
L 444.242625 7.2 
L 34.240625 7.2 
z
" style="fill: #ffffff"/>
   </g>
   <g id="PathCollection_1">
    <defs>
     <path id="mb9ed74cf62" d="M 0 3.535534 
C 0.937635 3.535534 1.836992 3.163008 2.5 2.5 
C 3.163008 1.836992 3.535534 0.937635 3.535534 0 
C 3.535534 -0.937635 3.163008 -1.836992 2.5 -2.5 
C 1.836992 -3.163008 0.937635 -3.535534 0 -3.535534 
C -0.937635 -3.535534 -1.836992 -3.163008 -2.5 -2.5 
C -3.163008 -1.836992 -3.535534 -0.937635 -3.535534 0 
C -3.535534 0.937635 -3.163008 1.836992 -2.5 2.5 
C -1.836992 3.163008 -0.937635 3.535534 0 3.535534 
z
" style="stroke: #000000"/>
    </defs>
    <g clip-path="url(#p776656ff84)">
     <use xlink:href="#mb9ed74cf62" x="384.287709" y="215.736672" style="fill: #ffffff; stroke: #000000"/>
     <use xlink:href="#mb9ed74cf62" x="250.836062" y="115.138302" style="fill: #ffffff; stroke: #000000"/>
     <use xlink:href="#mb9ed74cf62" x="268.215886" y="63.657528" style="fill: #ffffff; stroke: #000000"/>
     <use xlink:href="#mb9ed74cf62" x="250.588798" y="58.103823" style="fill: #ffffff; stroke: #000000"/>
     <use xlink:href="#mb9ed74cf62" x="385.156142" y="257.535041" style="fill: #ffffff; stroke: #000000"/>
     <use xlink:href="#mb9ed74cf62" x="319.022014" y="38.460141" style="fill: #ffffff; stroke: #000000"/>
     <use xlink:href="#mb9ed74cf62" x="328.759844" y="32.029001" style="fill: #ffffff; stroke: #000000"/>
     <use xlink:href="#mb9ed74cf62" x="369.4944" y="270.471194" style="fill: #ffffff; stroke: #000000"/>
     <use xlink:href="#mb9ed74cf62" x="79.977449" y="146.401169" style="fill: #ffffff; stroke: #000000"/>
     <use xlink:href="#mb9ed74cf62" x="327.326413" y="21.754494" style="fill: #ffffff; stroke: #000000"/>
     <use xlink:href="#mb9ed74cf62" x="418.526779" y="199.325992" style="fill: #ffffff; stroke: #000000"/>
     <use xlink:href="#mb9ed74cf62" x="192.41827" y="159.726953" style="fill: #ffffff; stroke: #000000"/>
     <use xlink:href="#mb9ed74cf62" x="97.729051" y="143.762398" style="fill: #ffffff; stroke: #000000"/>
     <use xlink:href="#mb9ed74cf62" x="263.009087" y="77.976333" style="fill: #ffffff; stroke: #000000"/>
     <use xlink:href="#mb9ed74cf62" x="226.936023" y="56.275988" style="fill: #ffffff; stroke: #000000"/>
     <use xlink:href="#mb9ed74cf62" x="87.845689" y="144.070199" style="fill: #ffffff; stroke: #000000"/>
     <use xlink:href="#mb9ed74cf62" x="121.395676" y="120.150169" style="fill: #ffffff; stroke: #000000"/>
     <use xlink:href="#mb9ed74cf62" x="337.002186" y="237.287339" style="fill: #ffffff; stroke: #000000"/>
     <use xlink:href="#mb9ed74cf62" x="113.971931" y="141.366045" style="fill: #ffffff; stroke: #000000"/>
     <use xlink:href="#mb9ed74cf62" x="347.622426" y="259.658737" style="fill: #ffffff; stroke: #000000"/>
     <use xlink:href="#mb9ed74cf62" x="257.767899" y="76.084871" style="fill: #ffffff; stroke: #000000"/>
     <use xlink:href="#mb9ed74cf62" x="373.73282" y="211.684001" style="fill: #ffffff; stroke: #000000"/>
     <use xlink:href="#mb9ed74cf62" x="289.49441" y="87.997694" style="fill: #ffffff; stroke: #000000"/>
     <use xlink:href="#mb9ed74cf62" x="284.053118" y="32.392383" style="fill: #ffffff; stroke: #000000"/>
     <use xlink:href="#mb9ed74cf62" x="135.024001" y="148.062597" style="fill: #ffffff; stroke: #000000"/>
     <use xlink:href="#mb9ed74cf62" x="365.732562" y="235.653343" style="fill: #ffffff; stroke: #000000"/>
     <use xlink:href="#mb9ed74cf62" x="368.655719" y="209.306399" style="fill: #ffffff; stroke: #000000"/>
     <use xlink:href="#mb9ed74cf62" x="294.4068" y="104.429662" style="fill: #ffffff; stroke: #000000"/>
     <use xlink:href="#mb9ed74cf62" x="52.87708" y="84.462011" style="fill: #ffffff; stroke: #000000"/>
     <use xlink:href="#mb9ed74cf62" x="311.94727" y="242.067495" style="fill: #ffffff; stroke: #000000"/>
     <use xlink:href="#mb9ed74cf62" x="113.873129" y="106.806603" style="fill: #ffffff; stroke: #000000"/>
     <use xlink:href="#mb9ed74cf62" x="99.020641" y="139.923883" style="fill: #ffffff; stroke: #000000"/>
     <use xlink:href="#mb9ed74cf62" x="143.563455" y="145.428057" style="fill: #ffffff; stroke: #000000"/>
     <use xlink:href="#mb9ed74cf62" x="103.325411" y="122.594489" style="fill: #ffffff; stroke: #000000"/>
     <use xlink:href="#mb9ed74cf62" x="239.085528" y="48.695121" style="fill: #ffffff; stroke: #000000"/>
     <use xlink:href="#mb9ed74cf62" x="325.07873" y="194.352024" style="fill: #ffffff; stroke: #000000"/>
     <use xlink:href="#mb9ed74cf62" x="409.008229" y="209.695718" style="fill: #ffffff; stroke: #000000"/>
     <use xlink:href="#mb9ed74cf62" x="328.417626" y="215.226727" style="fill: #ffffff; stroke: #000000"/>
     <use xlink:href="#mb9ed74cf62" x="258.995664" y="76.161666" style="fill: #ffffff; stroke: #000000"/>
     <use xlink:href="#mb9ed74cf62" x="290.888299" y="50.403414" style="fill: #ffffff; stroke: #000000"/>
     <use xlink:href="#mb9ed74cf62" x="131.095932" y="200.980479" style="fill: #ffffff; stroke: #000000"/>
     <use xlink:href="#mb9ed74cf62" x="108.301808" y="174.565221" style="fill: #ffffff; stroke: #000000"/>
     <use xlink:href="#mb9ed74cf62" x="238.516057" y="44.072371" style="fill: #ffffff; stroke: #000000"/>
     <use xlink:href="#mb9ed74cf62" x="337.491122" y="264.641646" style="fill: #ffffff; stroke: #000000"/>
     <use xlink:href="#mb9ed74cf62" x="354.252653" y="216.224039" style="fill: #ffffff; stroke: #000000"/>
     <use xlink:href="#mb9ed74cf62" x="376.470463" y="247.203312" style="fill: #ffffff; stroke: #000000"/>
     <use xlink:href="#mb9ed74cf62" x="140.511963" y="117.457176" style="fill: #ffffff; stroke: #000000"/>
     <use xlink:href="#mb9ed74cf62" x="352.484847" y="102.457338" style="fill: #ffffff; stroke: #000000"/>
     <use xlink:href="#mb9ed74cf62" x="139.702142" y="145.290769" style="fill: #ffffff; stroke: #000000"/>
     <use xlink:href="#mb9ed74cf62" x="310.001632" y="71.069729" style="fill: #ffffff; stroke: #000000"/>
     <use xlink:href="#mb9ed74cf62" x="334.878399" y="186.974921" style="fill: #ffffff; stroke: #000000"/>
     <use xlink:href="#mb9ed74cf62" x="244.94592" y="42.023518" style="fill: #ffffff; stroke: #000000"/>
     <use xlink:href="#mb9ed74cf62" x="286.120881" y="43.897914" style="fill: #ffffff; stroke: #000000"/>
     <use xlink:href="#mb9ed74cf62" x="335.571648" y="249.526154" style="fill: #ffffff; stroke: #000000"/>
     <use xlink:href="#mb9ed74cf62" x="370.529812" y="221.705865" style="fill: #ffffff; stroke: #000000"/>
     <use xlink:href="#mb9ed74cf62" x="123.287995" y="128.59978" style="fill: #ffffff; stroke: #000000"/>
     <use xlink:href="#mb9ed74cf62" x="262.97197" y="95.86349" style="fill: #ffffff; stroke: #000000"/>
     <use xlink:href="#mb9ed74cf62" x="410.791142" y="195.857555" style="fill: #ffffff; stroke: #000000"/>
     <use xlink:href="#mb9ed74cf62" x="140.456574" y="102.833077" style="fill: #ffffff; stroke: #000000"/>
     <use xlink:href="#mb9ed74cf62" x="302.887182" y="64.316737" style="fill: #ffffff; stroke: #000000"/>
     <use xlink:href="#mb9ed74cf62" x="67.291098" y="119.489523" style="fill: #ffffff; stroke: #000000"/>
     <use xlink:href="#mb9ed74cf62" x="181.215176" y="124.795899" style="fill: #ffffff; stroke: #000000"/>
     <use xlink:href="#mb9ed74cf62" x="108.241505" y="131.846458" style="fill: #ffffff; stroke: #000000"/>
     <use xlink:href="#mb9ed74cf62" x="117.701747" y="125.059466" style="fill: #ffffff; stroke: #000000"/>
     <use xlink:href="#mb9ed74cf62" x="285.127783" y="77.102078" style="fill: #ffffff; stroke: #000000"/>
     <use xlink:href="#mb9ed74cf62" x="190.98224" y="135.210603" style="fill: #ffffff; stroke: #000000"/>
     <use xlink:href="#mb9ed74cf62" x="283.501615" y="57.740402" style="fill: #ffffff; stroke: #000000"/>
     <use xlink:href="#mb9ed74cf62" x="321.162117" y="185.510307" style="fill: #ffffff; stroke: #000000"/>
     <use xlink:href="#mb9ed74cf62" x="197.229156" y="51.679014" style="fill: #ffffff; stroke: #000000"/>
     <use xlink:href="#mb9ed74cf62" x="224.487088" y="20.432364" style="fill: #ffffff; stroke: #000000"/>
     <use xlink:href="#mb9ed74cf62" x="316.096047" y="97.168937" style="fill: #ffffff; stroke: #000000"/>
     <use xlink:href="#mb9ed74cf62" x="309.43733" y="211.181542" style="fill: #ffffff; stroke: #000000"/>
     <use xlink:href="#mb9ed74cf62" x="379.381343" y="235.255008" style="fill: #ffffff; stroke: #000000"/>
     <use xlink:href="#mb9ed74cf62" x="241.650359" y="20.604698" style="fill: #ffffff; stroke: #000000"/>
     <use xlink:href="#mb9ed74cf62" x="315.59228" y="215.102401" style="fill: #ffffff; stroke: #000000"/>
     <use xlink:href="#mb9ed74cf62" x="269.386389" y="66.070808" style="fill: #ffffff; stroke: #000000"/>
     <use xlink:href="#mb9ed74cf62" x="317.363748" y="71.757882" style="fill: #ffffff; stroke: #000000"/>
     <use xlink:href="#mb9ed74cf62" x="92.065532" y="169.516752" style="fill: #ffffff; stroke: #000000"/>
     <use xlink:href="#mb9ed74cf62" x="127.467764" y="119.526512" style="fill: #ffffff; stroke: #000000"/>
     <use xlink:href="#mb9ed74cf62" x="278.508758" y="57.105849" style="fill: #ffffff; stroke: #000000"/>
     <use xlink:href="#mb9ed74cf62" x="327.178651" y="230.754285" style="fill: #ffffff; stroke: #000000"/>
     <use xlink:href="#mb9ed74cf62" x="323.023353" y="248.131304" style="fill: #ffffff; stroke: #000000"/>
     <use xlink:href="#mb9ed74cf62" x="245.66058" y="101.62995" style="fill: #ffffff; stroke: #000000"/>
     <use xlink:href="#mb9ed74cf62" x="293.705031" y="59.386014" style="fill: #ffffff; stroke: #000000"/>
     <use xlink:href="#mb9ed74cf62" x="358.488035" y="199.5703" style="fill: #ffffff; stroke: #000000"/>
     <use xlink:href="#mb9ed74cf62" x="425.60617" y="208.769878" style="fill: #ffffff; stroke: #000000"/>
     <use xlink:href="#mb9ed74cf62" x="378.531684" y="223.843344" style="fill: #ffffff; stroke: #000000"/>
     <use xlink:href="#mb9ed74cf62" x="100.773664" y="124.170639" style="fill: #ffffff; stroke: #000000"/>
     <use xlink:href="#mb9ed74cf62" x="84.600466" y="105.017932" style="fill: #ffffff; stroke: #000000"/>
     <use xlink:href="#mb9ed74cf62" x="369.014731" y="270.112313" style="fill: #ffffff; stroke: #000000"/>
     <use xlink:href="#mb9ed74cf62" x="361.005073" y="258.004028" style="fill: #ffffff; stroke: #000000"/>
     <use xlink:href="#mb9ed74cf62" x="280.889087" y="71.932741" style="fill: #ffffff; stroke: #000000"/>
     <use xlink:href="#mb9ed74cf62" x="300.879881" y="220.93672" style="fill: #ffffff; stroke: #000000"/>
     <use xlink:href="#mb9ed74cf62" x="266.43678" y="37.976799" style="fill: #ffffff; stroke: #000000"/>
     <use xlink:href="#mb9ed74cf62" x="326.527231" y="235.125519" style="fill: #ffffff; stroke: #000000"/>
     <use xlink:href="#mb9ed74cf62" x="340.039141" y="99.889337" style="fill: #ffffff; stroke: #000000"/>
     <use xlink:href="#mb9ed74cf62" x="87.475516" y="142.526894" style="fill: #ffffff; stroke: #000000"/>
     <use xlink:href="#mb9ed74cf62" x="81.029394" y="115.374745" style="fill: #ffffff; stroke: #000000"/>
     <use xlink:href="#mb9ed74cf62" x="306.524823" y="242.63995" style="fill: #ffffff; stroke: #000000"/>
     <use xlink:href="#mb9ed74cf62" x="346.690173" y="190.249064" style="fill: #ffffff; stroke: #000000"/>
     <use xlink:href="#mb9ed74cf62" x="324.101592" y="218.531296" style="fill: #ffffff; stroke: #000000"/>
     <use xlink:href="#mb9ed74cf62" x="379.451163" y="229.412053" style="fill: #ffffff; stroke: #000000"/>
     <use xlink:href="#mb9ed74cf62" x="76.189447" y="94.250694" style="fill: #ffffff; stroke: #000000"/>
     <use xlink:href="#mb9ed74cf62" x="345.717611" y="247.503279" style="fill: #ffffff; stroke: #000000"/>
     <use xlink:href="#mb9ed74cf62" x="313.334289" y="230.264455" style="fill: #ffffff; stroke: #000000"/>
     <use xlink:href="#mb9ed74cf62" x="284.40414" y="58.314357" style="fill: #ffffff; stroke: #000000"/>
     <use xlink:href="#mb9ed74cf62" x="105.390454" y="125.278572" style="fill: #ffffff; stroke: #000000"/>
     <use xlink:href="#mb9ed74cf62" x="327.513994" y="72.365719" style="fill: #ffffff; stroke: #000000"/>
     <use xlink:href="#mb9ed74cf62" x="276.093149" y="57.53302" style="fill: #ffffff; stroke: #000000"/>
     <use xlink:href="#mb9ed74cf62" x="241.907048" y="45.72413" style="fill: #ffffff; stroke: #000000"/>
     <use xlink:href="#mb9ed74cf62" x="131.971964" y="117.886943" style="fill: #ffffff; stroke: #000000"/>
     <use xlink:href="#mb9ed74cf62" x="266.947033" y="74.705791" style="fill: #ffffff; stroke: #000000"/>
     <use xlink:href="#mb9ed74cf62" x="334.222352" y="231.099989" style="fill: #ffffff; stroke: #000000"/>
     <use xlink:href="#mb9ed74cf62" x="135.114982" y="132.062727" style="fill: #ffffff; stroke: #000000"/>
     <use xlink:href="#mb9ed74cf62" x="279.754032" y="24.404687" style="fill: #ffffff; stroke: #000000"/>
     <use xlink:href="#mb9ed74cf62" x="55.916192" y="129.645283" style="fill: #ffffff; stroke: #000000"/>
     <use xlink:href="#mb9ed74cf62" x="281.55736" y="60.137635" style="fill: #ffffff; stroke: #000000"/>
     <use xlink:href="#mb9ed74cf62" x="307.244282" y="85.301443" style="fill: #ffffff; stroke: #000000"/>
     <use xlink:href="#mb9ed74cf62" x="134.144405" y="136.989466" style="fill: #ffffff; stroke: #000000"/>
     <use xlink:href="#mb9ed74cf62" x="99.052898" y="135.45896" style="fill: #ffffff; stroke: #000000"/>
     <use xlink:href="#mb9ed74cf62" x="251.382966" y="81.36741" style="fill: #ffffff; stroke: #000000"/>
     <use xlink:href="#mb9ed74cf62" x="387.132557" y="223.886343" style="fill: #ffffff; stroke: #000000"/>
     <use xlink:href="#mb9ed74cf62" x="250.207904" y="66.17246" style="fill: #ffffff; stroke: #000000"/>
     <use xlink:href="#mb9ed74cf62" x="227.460775" y="72.548359" style="fill: #ffffff; stroke: #000000"/>
     <use xlink:href="#mb9ed74cf62" x="332.854177" y="185.041372" style="fill: #ffffff; stroke: #000000"/>
     <use xlink:href="#mb9ed74cf62" x="340.259363" y="212.191011" style="fill: #ffffff; stroke: #000000"/>
     <use xlink:href="#mb9ed74cf62" x="117.466559" y="151.970797" style="fill: #ffffff; stroke: #000000"/>
     <use xlink:href="#mb9ed74cf62" x="324.911593" y="251.428759" style="fill: #ffffff; stroke: #000000"/>
     <use xlink:href="#mb9ed74cf62" x="68.64773" y="132.668798" style="fill: #ffffff; stroke: #000000"/>
     <use xlink:href="#mb9ed74cf62" x="122.819487" y="141.884853" style="fill: #ffffff; stroke: #000000"/>
     <use xlink:href="#mb9ed74cf62" x="127.261118" y="136.556991" style="fill: #ffffff; stroke: #000000"/>
     <use xlink:href="#mb9ed74cf62" x="147.550514" y="126.551356" style="fill: #ffffff; stroke: #000000"/>
     <use xlink:href="#mb9ed74cf62" x="307.266874" y="225.088164" style="fill: #ffffff; stroke: #000000"/>
     <use xlink:href="#mb9ed74cf62" x="114.445692" y="150.577208" style="fill: #ffffff; stroke: #000000"/>
     <use xlink:href="#mb9ed74cf62" x="114.691107" y="109.618188" style="fill: #ffffff; stroke: #000000"/>
     <use xlink:href="#mb9ed74cf62" x="166.360711" y="184.055665" style="fill: #ffffff; stroke: #000000"/>
     <use xlink:href="#mb9ed74cf62" x="253.238885" y="109.007427" style="fill: #ffffff; stroke: #000000"/>
     <use xlink:href="#mb9ed74cf62" x="97.247081" y="143.610196" style="fill: #ffffff; stroke: #000000"/>
     <use xlink:href="#mb9ed74cf62" x="319.5011" y="204.613714" style="fill: #ffffff; stroke: #000000"/>
     <use xlink:href="#mb9ed74cf62" x="98.030033" y="145.779943" style="fill: #ffffff; stroke: #000000"/>
     <use xlink:href="#mb9ed74cf62" x="303.915638" y="64.492773" style="fill: #ffffff; stroke: #000000"/>
     <use xlink:href="#mb9ed74cf62" x="292.368352" y="83.919845" style="fill: #ffffff; stroke: #000000"/>
     <use xlink:href="#mb9ed74cf62" x="328.167416" y="285.079636" style="fill: #ffffff; stroke: #000000"/>
     <use xlink:href="#mb9ed74cf62" x="367.448873" y="236.538656" style="fill: #ffffff; stroke: #000000"/>
     <use xlink:href="#mb9ed74cf62" x="155.345987" y="108.186222" style="fill: #ffffff; stroke: #000000"/>
     <use xlink:href="#mb9ed74cf62" x="72.405744" y="146.076059" style="fill: #ffffff; stroke: #000000"/>
     <use xlink:href="#mb9ed74cf62" x="95.970933" y="97.183565" style="fill: #ffffff; stroke: #000000"/>
     <use xlink:href="#mb9ed74cf62" x="94.890958" y="167.515946" style="fill: #ffffff; stroke: #000000"/>
     <use xlink:href="#mb9ed74cf62" x="361.635438" y="257.851324" style="fill: #ffffff; stroke: #000000"/>
     <use xlink:href="#mb9ed74cf62" x="316.687707" y="268.732362" style="fill: #ffffff; stroke: #000000"/>
    </g>
   </g>
   <g id="matplotlib.axis_1">
    <g id="xtick_1">
     <g id="line2d_1">
      <defs>
       <path id="m92566e2ca0" d="M 0 0 
L 0 3.5 
" style="stroke: #000000; stroke-width: 0.8"/>
      </defs>
      <g>
       <use xlink:href="#m92566e2ca0" x="87.78949" y="298.312" style="stroke: #000000; stroke-width: 0.8"/>
      </g>
     </g>
     <g id="text_1">
      <!-- −2 -->
      <g transform="translate(80.418396 312.910437) scale(0.1 -0.1)">
       <defs>
        <path id="DejaVuSans-2212" d="M 678 2272 
L 4684 2272 
L 4684 1741 
L 678 1741 
L 678 2272 
z
" transform="scale(0.015625)"/>
        <path id="DejaVuSans-32" d="M 1228 531 
L 3431 531 
L 3431 0 
L 469 0 
L 469 531 
Q 828 903 1448 1529 
Q 2069 2156 2228 2338 
Q 2531 2678 2651 2914 
Q 2772 3150 2772 3378 
Q 2772 3750 2511 3984 
Q 2250 4219 1831 4219 
Q 1534 4219 1204 4116 
Q 875 4013 500 3803 
L 500 4441 
Q 881 4594 1212 4672 
Q 1544 4750 1819 4750 
Q 2544 4750 2975 4387 
Q 3406 4025 3406 3419 
Q 3406 3131 3298 2873 
Q 3191 2616 2906 2266 
Q 2828 2175 2409 1742 
Q 1991 1309 1228 531 
z
" transform="scale(0.015625)"/>
       </defs>
       <use xlink:href="#DejaVuSans-2212"/>
       <use xlink:href="#DejaVuSans-32" x="83.789062"/>
      </g>
     </g>
    </g>
    <g id="xtick_2">
     <g id="line2d_2">
      <g>
       <use xlink:href="#m92566e2ca0" x="152.174279" y="298.312" style="stroke: #000000; stroke-width: 0.8"/>
      </g>
     </g>
     <g id="text_2">
      <!-- −1 -->
      <g transform="translate(144.803185 312.910437) scale(0.1 -0.1)">
       <defs>
        <path id="DejaVuSans-31" d="M 794 531 
L 1825 531 
L 1825 4091 
L 703 3866 
L 703 4441 
L 1819 4666 
L 2450 4666 
L 2450 531 
L 3481 531 
L 3481 0 
L 794 0 
L 794 531 
z
" transform="scale(0.015625)"/>
       </defs>
       <use xlink:href="#DejaVuSans-2212"/>
       <use xlink:href="#DejaVuSans-31" x="83.789062"/>
      </g>
     </g>
    </g>
    <g id="xtick_3">
     <g id="line2d_3">
      <g>
       <use xlink:href="#m92566e2ca0" x="216.559068" y="298.312" style="stroke: #000000; stroke-width: 0.8"/>
      </g>
     </g>
     <g id="text_3">
      <!-- 0 -->
      <g transform="translate(213.377818 312.910437) scale(0.1 -0.1)">
       <defs>
        <path id="DejaVuSans-30" d="M 2034 4250 
Q 1547 4250 1301 3770 
Q 1056 3291 1056 2328 
Q 1056 1369 1301 889 
Q 1547 409 2034 409 
Q 2525 409 2770 889 
Q 3016 1369 3016 2328 
Q 3016 3291 2770 3770 
Q 2525 4250 2034 4250 
z
M 2034 4750 
Q 2819 4750 3233 4129 
Q 3647 3509 3647 2328 
Q 3647 1150 3233 529 
Q 2819 -91 2034 -91 
Q 1250 -91 836 529 
Q 422 1150 422 2328 
Q 422 3509 836 4129 
Q 1250 4750 2034 4750 
z
" transform="scale(0.015625)"/>
       </defs>
       <use xlink:href="#DejaVuSans-30"/>
      </g>
     </g>
    </g>
    <g id="xtick_4">
     <g id="line2d_4">
      <g>
       <use xlink:href="#m92566e2ca0" x="280.943857" y="298.312" style="stroke: #000000; stroke-width: 0.8"/>
      </g>
     </g>
     <g id="text_4">
      <!-- 1 -->
      <g transform="translate(277.762607 312.910437) scale(0.1 -0.1)">
       <use xlink:href="#DejaVuSans-31"/>
      </g>
     </g>
    </g>
    <g id="xtick_5">
     <g id="line2d_5">
      <g>
       <use xlink:href="#m92566e2ca0" x="345.328646" y="298.312" style="stroke: #000000; stroke-width: 0.8"/>
      </g>
     </g>
     <g id="text_5">
      <!-- 2 -->
      <g transform="translate(342.147396 312.910437) scale(0.1 -0.1)">
       <use xlink:href="#DejaVuSans-32"/>
      </g>
     </g>
    </g>
    <g id="xtick_6">
     <g id="line2d_6">
      <g>
       <use xlink:href="#m92566e2ca0" x="409.713435" y="298.312" style="stroke: #000000; stroke-width: 0.8"/>
      </g>
     </g>
     <g id="text_6">
      <!-- 3 -->
      <g transform="translate(406.532185 312.910437) scale(0.1 -0.1)">
       <defs>
        <path id="DejaVuSans-33" d="M 2597 2516 
Q 3050 2419 3304 2112 
Q 3559 1806 3559 1356 
Q 3559 666 3084 287 
Q 2609 -91 1734 -91 
Q 1441 -91 1130 -33 
Q 819 25 488 141 
L 488 750 
Q 750 597 1062 519 
Q 1375 441 1716 441 
Q 2309 441 2620 675 
Q 2931 909 2931 1356 
Q 2931 1769 2642 2001 
Q 2353 2234 1838 2234 
L 1294 2234 
L 1294 2753 
L 1863 2753 
Q 2328 2753 2575 2939 
Q 2822 3125 2822 3475 
Q 2822 3834 2567 4026 
Q 2313 4219 1838 4219 
Q 1578 4219 1281 4162 
Q 984 4106 628 3988 
L 628 4550 
Q 988 4650 1302 4700 
Q 1616 4750 1894 4750 
Q 2613 4750 3031 4423 
Q 3450 4097 3450 3541 
Q 3450 3153 3228 2886 
Q 3006 2619 2597 2516 
z
" transform="scale(0.015625)"/>
       </defs>
       <use xlink:href="#DejaVuSans-33"/>
      </g>
     </g>
    </g>
    <g id="text_7">
     <!-- $\mathbf{x}_1$: Feature 1 -->
     <g transform="translate(206.241625 326.588562) scale(0.1 -0.1)">
      <defs>
       <path id="DejaVuSans-Bold-78" d="M 1422 1791 
L 159 3500 
L 1344 3500 
L 2059 2463 
L 2784 3500 
L 3969 3500 
L 2706 1797 
L 4031 0 
L 2847 0 
L 2059 1106 
L 1281 0 
L 97 0 
L 1422 1791 
z
" transform="scale(0.015625)"/>
       <path id="DejaVuSans-3a" d="M 750 794 
L 1409 794 
L 1409 0 
L 750 0 
L 750 794 
z
M 750 3309 
L 1409 3309 
L 1409 2516 
L 750 2516 
L 750 3309 
z
" transform="scale(0.015625)"/>
       <path id="DejaVuSans-20" transform="scale(0.015625)"/>
       <path id="DejaVuSans-46" d="M 628 4666 
L 3309 4666 
L 3309 4134 
L 1259 4134 
L 1259 2759 
L 3109 2759 
L 3109 2228 
L 1259 2228 
L 1259 0 
L 628 0 
L 628 4666 
z
" transform="scale(0.015625)"/>
       <path id="DejaVuSans-65" d="M 3597 1894 
L 3597 1613 
L 953 1613 
Q 991 1019 1311 708 
Q 1631 397 2203 397 
Q 2534 397 2845 478 
Q 3156 559 3463 722 
L 3463 178 
Q 3153 47 2828 -22 
Q 2503 -91 2169 -91 
Q 1331 -91 842 396 
Q 353 884 353 1716 
Q 353 2575 817 3079 
Q 1281 3584 2069 3584 
Q 2775 3584 3186 3129 
Q 3597 2675 3597 1894 
z
M 3022 2063 
Q 3016 2534 2758 2815 
Q 2500 3097 2075 3097 
Q 1594 3097 1305 2825 
Q 1016 2553 972 2059 
L 3022 2063 
z
" transform="scale(0.015625)"/>
       <path id="DejaVuSans-61" d="M 2194 1759 
Q 1497 1759 1228 1600 
Q 959 1441 959 1056 
Q 959 750 1161 570 
Q 1363 391 1709 391 
Q 2188 391 2477 730 
Q 2766 1069 2766 1631 
L 2766 1759 
L 2194 1759 
z
M 3341 1997 
L 3341 0 
L 2766 0 
L 2766 531 
Q 2569 213 2275 61 
Q 1981 -91 1556 -91 
Q 1019 -91 701 211 
Q 384 513 384 1019 
Q 384 1609 779 1909 
Q 1175 2209 1959 2209 
L 2766 2209 
L 2766 2266 
Q 2766 2663 2505 2880 
Q 2244 3097 1772 3097 
Q 1472 3097 1187 3025 
Q 903 2953 641 2809 
L 641 3341 
Q 956 3463 1253 3523 
Q 1550 3584 1831 3584 
Q 2591 3584 2966 3190 
Q 3341 2797 3341 1997 
z
" transform="scale(0.015625)"/>
       <path id="DejaVuSans-74" d="M 1172 4494 
L 1172 3500 
L 2356 3500 
L 2356 3053 
L 1172 3053 
L 1172 1153 
Q 1172 725 1289 603 
Q 1406 481 1766 481 
L 2356 481 
L 2356 0 
L 1766 0 
Q 1100 0 847 248 
Q 594 497 594 1153 
L 594 3053 
L 172 3053 
L 172 3500 
L 594 3500 
L 594 4494 
L 1172 4494 
z
" transform="scale(0.015625)"/>
       <path id="DejaVuSans-75" d="M 544 1381 
L 544 3500 
L 1119 3500 
L 1119 1403 
Q 1119 906 1312 657 
Q 1506 409 1894 409 
Q 2359 409 2629 706 
Q 2900 1003 2900 1516 
L 2900 3500 
L 3475 3500 
L 3475 0 
L 2900 0 
L 2900 538 
Q 2691 219 2414 64 
Q 2138 -91 1772 -91 
Q 1169 -91 856 284 
Q 544 659 544 1381 
z
M 1991 3584 
L 1991 3584 
z
" transform="scale(0.015625)"/>
       <path id="DejaVuSans-72" d="M 2631 2963 
Q 2534 3019 2420 3045 
Q 2306 3072 2169 3072 
Q 1681 3072 1420 2755 
Q 1159 2438 1159 1844 
L 1159 0 
L 581 0 
L 581 3500 
L 1159 3500 
L 1159 2956 
Q 1341 3275 1631 3429 
Q 1922 3584 2338 3584 
Q 2397 3584 2469 3576 
Q 2541 3569 2628 3553 
L 2631 2963 
z
" transform="scale(0.015625)"/>
      </defs>
      <use xlink:href="#DejaVuSans-Bold-78" transform="translate(0 0.09375)"/>
      <use xlink:href="#DejaVuSans-31" transform="translate(65.458984 -16.3125) scale(0.7)"/>
      <use xlink:href="#DejaVuSans-3a" transform="translate(112.729492 0.09375)"/>
      <use xlink:href="#DejaVuSans-20" transform="translate(146.420898 0.09375)"/>
      <use xlink:href="#DejaVuSans-46" transform="translate(178.208008 0.09375)"/>
      <use xlink:href="#DejaVuSans-65" transform="translate(235.727539 0.09375)"/>
      <use xlink:href="#DejaVuSans-61" transform="translate(297.250977 0.09375)"/>
      <use xlink:href="#DejaVuSans-74" transform="translate(358.530273 0.09375)"/>
      <use xlink:href="#DejaVuSans-75" transform="translate(397.739258 0.09375)"/>
      <use xlink:href="#DejaVuSans-72" transform="translate(461.118164 0.09375)"/>
      <use xlink:href="#DejaVuSans-65" transform="translate(502.231445 0.09375)"/>
      <use xlink:href="#DejaVuSans-20" transform="translate(563.754883 0.09375)"/>
      <use xlink:href="#DejaVuSans-31" transform="translate(595.541992 0.09375)"/>
     </g>
    </g>
   </g>
   <g id="matplotlib.axis_2">
    <g id="ytick_1">
     <g id="line2d_7">
      <defs>
       <path id="ma3dafa5d8e" d="M 0 0 
L -3.5 0 
" style="stroke: #000000; stroke-width: 0.8"/>
      </defs>
      <g>
       <use xlink:href="#ma3dafa5d8e" x="34.240625" y="274.767902" style="stroke: #000000; stroke-width: 0.8"/>
      </g>
     </g>
     <g id="text_8">
      <!-- 0 -->
      <g transform="translate(20.878125 278.567121) scale(0.1 -0.1)">
       <use xlink:href="#DejaVuSans-30"/>
      </g>
     </g>
    </g>
    <g id="ytick_2">
     <g id="line2d_8">
      <g>
       <use xlink:href="#ma3dafa5d8e" x="34.240625" y="226.590765" style="stroke: #000000; stroke-width: 0.8"/>
      </g>
     </g>
     <g id="text_9">
      <!-- 1 -->
      <g transform="translate(20.878125 230.389984) scale(0.1 -0.1)">
       <use xlink:href="#DejaVuSans-31"/>
      </g>
     </g>
    </g>
    <g id="ytick_3">
     <g id="line2d_9">
      <g>
       <use xlink:href="#ma3dafa5d8e" x="34.240625" y="178.413628" style="stroke: #000000; stroke-width: 0.8"/>
      </g>
     </g>
     <g id="text_10">
      <!-- 2 -->
      <g transform="translate(20.878125 182.212847) scale(0.1 -0.1)">
       <use xlink:href="#DejaVuSans-32"/>
      </g>
     </g>
    </g>
    <g id="ytick_4">
     <g id="line2d_10">
      <g>
       <use xlink:href="#ma3dafa5d8e" x="34.240625" y="130.236491" style="stroke: #000000; stroke-width: 0.8"/>
      </g>
     </g>
     <g id="text_11">
      <!-- 3 -->
      <g transform="translate(20.878125 134.03571) scale(0.1 -0.1)">
       <use xlink:href="#DejaVuSans-33"/>
      </g>
     </g>
    </g>
    <g id="ytick_5">
     <g id="line2d_11">
      <g>
       <use xlink:href="#ma3dafa5d8e" x="34.240625" y="82.059354" style="stroke: #000000; stroke-width: 0.8"/>
      </g>
     </g>
     <g id="text_12">
      <!-- 4 -->
      <g transform="translate(20.878125 85.858573) scale(0.1 -0.1)">
       <defs>
        <path id="DejaVuSans-34" d="M 2419 4116 
L 825 1625 
L 2419 1625 
L 2419 4116 
z
M 2253 4666 
L 3047 4666 
L 3047 1625 
L 3713 1625 
L 3713 1100 
L 3047 1100 
L 3047 0 
L 2419 0 
L 2419 1100 
L 313 1100 
L 313 1709 
L 2253 4666 
z
" transform="scale(0.015625)"/>
       </defs>
       <use xlink:href="#DejaVuSans-34"/>
      </g>
     </g>
    </g>
    <g id="ytick_6">
     <g id="line2d_12">
      <g>
       <use xlink:href="#ma3dafa5d8e" x="34.240625" y="33.882217" style="stroke: #000000; stroke-width: 0.8"/>
      </g>
     </g>
     <g id="text_13">
      <!-- 5 -->
      <g transform="translate(20.878125 37.681436) scale(0.1 -0.1)">
       <defs>
        <path id="DejaVuSans-35" d="M 691 4666 
L 3169 4666 
L 3169 4134 
L 1269 4134 
L 1269 2991 
Q 1406 3038 1543 3061 
Q 1681 3084 1819 3084 
Q 2600 3084 3056 2656 
Q 3513 2228 3513 1497 
Q 3513 744 3044 326 
Q 2575 -91 1722 -91 
Q 1428 -91 1123 -41 
Q 819 9 494 109 
L 494 744 
Q 775 591 1075 516 
Q 1375 441 1709 441 
Q 2250 441 2565 725 
Q 2881 1009 2881 1497 
Q 2881 1984 2565 2268 
Q 2250 2553 1709 2553 
Q 1456 2553 1204 2497 
Q 953 2441 691 2322 
L 691 4666 
z
" transform="scale(0.015625)"/>
       </defs>
       <use xlink:href="#DejaVuSans-35"/>
      </g>
     </g>
    </g>
    <g id="text_14">
     <!-- $\mathbf{x}_2$: Feature 2 -->
     <g transform="translate(14.798438 185.756) rotate(-90) scale(0.1 -0.1)">
      <use xlink:href="#DejaVuSans-Bold-78" transform="translate(0 0.78125)"/>
      <use xlink:href="#DejaVuSans-32" transform="translate(65.458984 -15.625) scale(0.7)"/>
      <use xlink:href="#DejaVuSans-3a" transform="translate(112.729492 0.78125)"/>
      <use xlink:href="#DejaVuSans-20" transform="translate(146.420898 0.78125)"/>
      <use xlink:href="#DejaVuSans-46" transform="translate(178.208008 0.78125)"/>
      <use xlink:href="#DejaVuSans-65" transform="translate(235.727539 0.78125)"/>
      <use xlink:href="#DejaVuSans-61" transform="translate(297.250977 0.78125)"/>
      <use xlink:href="#DejaVuSans-74" transform="translate(358.530273 0.78125)"/>
      <use xlink:href="#DejaVuSans-75" transform="translate(397.739258 0.78125)"/>
      <use xlink:href="#DejaVuSans-72" transform="translate(461.118164 0.78125)"/>
      <use xlink:href="#DejaVuSans-65" transform="translate(502.231445 0.78125)"/>
      <use xlink:href="#DejaVuSans-20" transform="translate(563.754883 0.78125)"/>
      <use xlink:href="#DejaVuSans-32" transform="translate(595.541992 0.78125)"/>
     </g>
    </g>
   </g>
   <g id="patch_3">
    <path d="M 34.240625 298.312 
L 34.240625 7.2 
" style="fill: none; stroke: #000000; stroke-width: 0.8; stroke-linejoin: miter; stroke-linecap: square"/>
   </g>
   <g id="patch_4">
    <path d="M 444.242625 298.312 
L 444.242625 7.2 
" style="fill: none; stroke: #000000; stroke-width: 0.8; stroke-linejoin: miter; stroke-linecap: square"/>
   </g>
   <g id="patch_5">
    <path d="M 34.240625 298.312 
L 444.242625 298.312 
" style="fill: none; stroke: #000000; stroke-width: 0.8; stroke-linejoin: miter; stroke-linecap: square"/>
   </g>
   <g id="patch_6">
    <path d="M 34.240625 7.2 
L 444.242625 7.2 
" style="fill: none; stroke: #000000; stroke-width: 0.8; stroke-linejoin: miter; stroke-linecap: square"/>
   </g>
  </g>
 </g>
 <defs>
  <clipPath id="p776656ff84">
   <rect x="34.240625" y="7.2" width="410.002" height="291.112"/>
  </clipPath>
 </defs>
</svg>