<?xml version="1.0" encoding="utf-8" standalone="no"?>
<!DOCTYPE svg PUBLIC "-//W3C//DTD SVG 1.1//EN"
  "http://www.w3.org/Graphics/SVG/1.1/DTD/svg11.dtd">
<svg xmlns:xlink="http://www.w3.org/1999/xlink" width="856.46125pt" height="423.034375pt" viewBox="0 0 856.46125 423.034375" xmlns="http://www.w3.org/2000/svg" version="1.1">
 <metadata>
  <rdf:RDF xmlns:dc="http://purl.org/dc/elements/1.1/" xmlns:cc="http://creativecommons.org/ns#" xmlns:rdf="http://www.w3.org/1999/02/22-rdf-syntax-ns#">
   <cc:Work>
    <dc:type rdf:resource="http://purl.org/dc/dcmitype/StillImage"/>
    <dc:date>2024-09-20T13:32:34.482267</dc:date>
    <dc:format>image/svg+xml</dc:format>
    <dc:creator>
     <cc:Agent>
      <dc:title>Matplotlib v3.9.0, https://matplotlib.org/</dc:title>
     </cc:Agent>
    </dc:creator>
   </cc:Work>
  </rdf:RDF>
 </metadata>
 <defs>
  <style type="text/css">*{stroke-linejoin: round; stroke-linecap: butt}</style>
 </defs>
 <g id="figure_1">
  <g id="patch_1">
   <path d="M 0 423.034375 
L 856.46125 423.034375 
L 856.46125 0 
L 0 0 
z
" style="fill: #ffffff"/>
  </g>
  <g id="axes_1">
   <g id="patch_2">
    <path d="M 43.78125 385.478125 
L 849.26125 385.478125 
L 849.26125 22.318125 
L 43.78125 22.318125 
z
" style="fill: #ffffff"/>
   </g>
   <g id="patch_3">
    <path d="M 80.393977 385.478125 
L 100.851943 385.478125 
L 100.851943 338.069786 
L 80.393977 338.069786 
z
" clip-path="url(#pd1614b5790)" style="fill: #ff0000; opacity: 0.3; stroke: #000000; stroke-linejoin: miter"/>
   </g>
   <g id="patch_4">
    <path d="M 100.851943 385.478125 
L 121.309909 385.478125 
L 121.309909 240.783922 
L 100.851943 240.783922 
z
" clip-path="url(#pd1614b5790)" style="fill: #ff0000; opacity: 0.3; stroke: #000000; stroke-linejoin: miter"/>
   </g>
   <g id="patch_5">
    <path d="M 121.309909 385.478125 
L 141.767875 385.478125 
L 141.767875 171.64676 
L 121.309909 171.64676 
z
" clip-path="url(#pd1614b5790)" style="fill: #ff0000; opacity: 0.3; stroke: #000000; stroke-linejoin: miter"/>
   </g>
   <g id="patch_6">
    <path d="M 141.767875 385.478125 
L 162.225841 385.478125 
L 162.225841 107.447967 
L 141.767875 107.447967 
z
" clip-path="url(#pd1614b5790)" style="fill: #ff0000; opacity: 0.3; stroke: #000000; stroke-linejoin: miter"/>
   </g>
   <g id="patch_7">
    <path d="M 162.225841 385.478125 
L 182.683807 385.478125 
L 182.683807 85.719145 
L 162.225841 85.719145 
z
" clip-path="url(#pd1614b5790)" style="fill: #ff0000; opacity: 0.3; stroke: #000000; stroke-linejoin: miter"/>
   </g>
   <g id="patch_8">
    <path d="M 182.683807 385.478125 
L 203.141774 385.478125 
L 203.141774 76.830082 
L 182.683807 76.830082 
z
" clip-path="url(#pd1614b5790)" style="fill: #ff0000; opacity: 0.3; stroke: #000000; stroke-linejoin: miter"/>
   </g>
   <g id="patch_9">
    <path d="M 203.141774 385.478125 
L 223.59974 385.478125 
L 223.59974 43.743011 
L 203.141774 43.743011 
z
" clip-path="url(#pd1614b5790)" style="fill: #ff0000; opacity: 0.3; stroke: #000000; stroke-linejoin: miter"/>
   </g>
   <g id="patch_10">
    <path d="M 223.59974 385.478125 
L 244.057706 385.478125 
L 244.057706 43.743011 
L 223.59974 43.743011 
z
" clip-path="url(#pd1614b5790)" style="fill: #ff0000; opacity: 0.3; stroke: #000000; stroke-linejoin: miter"/>
   </g>
   <g id="patch_11">
    <path d="M 244.057706 385.478125 
L 264.515672 385.478125 
L 264.515672 62.014975 
L 244.057706 62.014975 
z
" clip-path="url(#pd1614b5790)" style="fill: #ff0000; opacity: 0.3; stroke: #000000; stroke-linejoin: miter"/>
   </g>
   <g id="patch_12">
    <path d="M 264.515672 385.478125 
L 284.973638 385.478125 
L 284.973638 58.06428 
L 264.515672 58.06428 
z
" clip-path="url(#pd1614b5790)" style="fill: #ff0000; opacity: 0.3; stroke: #000000; stroke-linejoin: miter"/>
   </g>
   <g id="patch_13">
    <path d="M 284.973638 385.478125 
L 305.431604 385.478125 
L 305.431604 94.114372 
L 284.973638 94.114372 
z
" clip-path="url(#pd1614b5790)" style="fill: #ff0000; opacity: 0.3; stroke: #000000; stroke-linejoin: miter"/>
   </g>
   <g id="patch_14">
    <path d="M 305.431604 385.478125 
L 325.88957 385.478125 
L 325.88957 107.941804 
L 305.431604 107.941804 
z
" clip-path="url(#pd1614b5790)" style="fill: #ff0000; opacity: 0.3; stroke: #000000; stroke-linejoin: miter"/>
   </g>
   <g id="patch_15">
    <path d="M 325.88957 385.478125 
L 346.347536 385.478125 
L 346.347536 101.521925 
L 325.88957 101.521925 
z
" clip-path="url(#pd1614b5790)" style="fill: #ff0000; opacity: 0.3; stroke: #000000; stroke-linejoin: miter"/>
   </g>
   <g id="patch_16">
    <path d="M 346.347536 385.478125 
L 366.805502 385.478125 
L 366.805502 142.510385 
L 346.347536 142.510385 
z
" clip-path="url(#pd1614b5790)" style="fill: #ff0000; opacity: 0.3; stroke: #000000; stroke-linejoin: miter"/>
   </g>
   <g id="patch_17">
    <path d="M 366.805502 385.478125 
L 387.263468 385.478125 
L 387.263468 165.720718 
L 366.805502 165.720718 
z
" clip-path="url(#pd1614b5790)" style="fill: #ff0000; opacity: 0.3; stroke: #000000; stroke-linejoin: miter"/>
   </g>
   <g id="patch_18">
    <path d="M 387.263468 385.478125 
L 407.721434 385.478125 
L 407.721434 196.832441 
L 387.263468 196.832441 
z
" clip-path="url(#pd1614b5790)" style="fill: #ff0000; opacity: 0.3; stroke: #000000; stroke-linejoin: miter"/>
   </g>
   <g id="patch_19">
    <path d="M 407.721434 385.478125 
L 428.1794 385.478125 
L 428.1794 228.931837 
L 407.721434 228.931837 
z
" clip-path="url(#pd1614b5790)" style="fill: #ff0000; opacity: 0.3; stroke: #000000; stroke-linejoin: miter"/>
   </g>
   <g id="patch_20">
    <path d="M 428.1794 385.478125 
L 448.637366 385.478125 
L 448.637366 246.709965 
L 428.1794 246.709965 
z
" clip-path="url(#pd1614b5790)" style="fill: #ff0000; opacity: 0.3; stroke: #000000; stroke-linejoin: miter"/>
   </g>
   <g id="patch_21">
    <path d="M 448.637366 385.478125 
L 469.095332 385.478125 
L 469.095332 264.488092 
L 448.637366 264.488092 
z
" clip-path="url(#pd1614b5790)" style="fill: #ff0000; opacity: 0.3; stroke: #000000; stroke-linejoin: miter"/>
   </g>
   <g id="patch_22">
    <path d="M 469.095332 385.478125 
L 489.553298 385.478125 
L 489.553298 287.698425 
L 469.095332 287.698425 
z
" clip-path="url(#pd1614b5790)" style="fill: #ff0000; opacity: 0.3; stroke: #000000; stroke-linejoin: miter"/>
   </g>
   <g id="patch_23">
    <path d="M 489.553298 385.478125 
L 510.011264 385.478125 
L 510.011264 303.007368 
L 489.553298 303.007368 
z
" clip-path="url(#pd1614b5790)" style="fill: #ff0000; opacity: 0.3; stroke: #000000; stroke-linejoin: miter"/>
   </g>
   <g id="patch_24">
    <path d="M 510.011264 385.478125 
L 530.46923 385.478125 
L 530.46923 328.193048 
L 510.011264 328.193048 
z
" clip-path="url(#pd1614b5790)" style="fill: #ff0000; opacity: 0.3; stroke: #000000; stroke-linejoin: miter"/>
   </g>
   <g id="patch_25">
    <path d="M 530.46923 385.478125 
L 550.927196 385.478125 
L 550.927196 346.958849 
L 530.46923 346.958849 
z
" clip-path="url(#pd1614b5790)" style="fill: #ff0000; opacity: 0.3; stroke: #000000; stroke-linejoin: miter"/>
   </g>
   <g id="patch_26">
    <path d="M 550.927196 385.478125 
L 571.385162 385.478125 
L 571.385162 349.428034 
L 550.927196 349.428034 
z
" clip-path="url(#pd1614b5790)" style="fill: #ff0000; opacity: 0.3; stroke: #000000; stroke-linejoin: miter"/>
   </g>
   <g id="patch_27">
    <path d="M 571.385162 385.478125 
L 591.843128 385.478125 
L 591.843128 357.82326 
L 571.385162 357.82326 
z
" clip-path="url(#pd1614b5790)" style="fill: #ff0000; opacity: 0.3; stroke: #000000; stroke-linejoin: miter"/>
   </g>
   <g id="patch_28">
    <path d="M 591.843128 385.478125 
L 612.301094 385.478125 
L 612.301094 365.72465 
L 591.843128 365.72465 
z
" clip-path="url(#pd1614b5790)" style="fill: #ff0000; opacity: 0.3; stroke: #000000; stroke-linejoin: miter"/>
   </g>
   <g id="patch_29">
    <path d="M 612.301094 385.478125 
L 632.75906 385.478125 
L 632.75906 371.156856 
L 612.301094 371.156856 
z
" clip-path="url(#pd1614b5790)" style="fill: #ff0000; opacity: 0.3; stroke: #000000; stroke-linejoin: miter"/>
   </g>
   <g id="patch_30">
    <path d="M 632.75906 385.478125 
L 653.217026 385.478125 
L 653.217026 378.070572 
L 632.75906 378.070572 
z
" clip-path="url(#pd1614b5790)" style="fill: #ff0000; opacity: 0.3; stroke: #000000; stroke-linejoin: miter"/>
   </g>
   <g id="patch_31">
    <path d="M 653.217026 385.478125 
L 673.674992 385.478125 
L 673.674992 378.070572 
L 653.217026 378.070572 
z
" clip-path="url(#pd1614b5790)" style="fill: #ff0000; opacity: 0.3; stroke: #000000; stroke-linejoin: miter"/>
   </g>
   <g id="patch_32">
    <path d="M 673.674992 385.478125 
L 694.132959 385.478125 
L 694.132959 383.008941 
L 673.674992 383.008941 
z
" clip-path="url(#pd1614b5790)" style="fill: #ff0000; opacity: 0.3; stroke: #000000; stroke-linejoin: miter"/>
   </g>
   <g id="patch_33">
    <path d="M 152.785964 385.478125 
L 174.781382 385.478125 
L 174.781382 384.559488 
L 152.785964 384.559488 
z
" clip-path="url(#pd1614b5790)" style="fill: #0000ff; opacity: 0.3; stroke: #000000; stroke-linejoin: miter"/>
   </g>
   <g id="patch_34">
    <path d="M 174.781382 385.478125 
L 196.776801 385.478125 
L 196.776801 384.559488 
L 174.781382 384.559488 
z
" clip-path="url(#pd1614b5790)" style="fill: #0000ff; opacity: 0.3; stroke: #000000; stroke-linejoin: miter"/>
   </g>
   <g id="patch_35">
    <path d="M 196.776801 385.478125 
L 218.77222 385.478125 
L 218.77222 383.640852 
L 196.776801 383.640852 
z
" clip-path="url(#pd1614b5790)" style="fill: #0000ff; opacity: 0.3; stroke: #000000; stroke-linejoin: miter"/>
   </g>
   <g id="patch_36">
    <path d="M 218.77222 385.478125 
L 240.767638 385.478125 
L 240.767638 379.506987 
L 218.77222 379.506987 
z
" clip-path="url(#pd1614b5790)" style="fill: #0000ff; opacity: 0.3; stroke: #000000; stroke-linejoin: miter"/>
   </g>
   <g id="patch_37">
    <path d="M 240.767638 385.478125 
L 262.763057 385.478125 
L 262.763057 376.751078 
L 240.767638 376.751078 
z
" clip-path="url(#pd1614b5790)" style="fill: #0000ff; opacity: 0.3; stroke: #000000; stroke-linejoin: miter"/>
   </g>
   <g id="patch_38">
    <path d="M 262.763057 385.478125 
L 284.758476 385.478125 
L 284.758476 372.157895 
L 262.763057 372.157895 
z
" clip-path="url(#pd1614b5790)" style="fill: #0000ff; opacity: 0.3; stroke: #000000; stroke-linejoin: miter"/>
   </g>
   <g id="patch_39">
    <path d="M 284.758476 385.478125 
L 306.753894 385.478125 
L 306.753894 361.134256 
L 284.758476 361.134256 
z
" clip-path="url(#pd1614b5790)" style="fill: #0000ff; opacity: 0.3; stroke: #000000; stroke-linejoin: miter"/>
   </g>
   <g id="patch_40">
    <path d="M 306.753894 385.478125 
L 328.749313 385.478125 
L 328.749313 348.273344 
L 306.753894 348.273344 
z
" clip-path="url(#pd1614b5790)" style="fill: #0000ff; opacity: 0.3; stroke: #000000; stroke-linejoin: miter"/>
   </g>
   <g id="patch_41">
    <path d="M 328.749313 385.478125 
L 350.744731 385.478125 
L 350.744731 355.163118 
L 328.749313 355.163118 
z
" clip-path="url(#pd1614b5790)" style="fill: #0000ff; opacity: 0.3; stroke: #000000; stroke-linejoin: miter"/>
   </g>
   <g id="patch_42">
    <path d="M 350.744731 385.478125 
L 372.74015 385.478125 
L 372.74015 326.226067 
L 350.744731 326.226067 
z
" clip-path="url(#pd1614b5790)" style="fill: #0000ff; opacity: 0.3; stroke: #000000; stroke-linejoin: miter"/>
   </g>
   <g id="patch_43">
    <path d="M 372.74015 385.478125 
L 394.735569 385.478125 
L 394.735569 312.905836 
L 372.74015 312.905836 
z
" clip-path="url(#pd1614b5790)" style="fill: #0000ff; opacity: 0.3; stroke: #000000; stroke-linejoin: miter"/>
   </g>
   <g id="patch_44">
    <path d="M 394.735569 385.478125 
L 416.730987 385.478125 
L 416.730987 293.614469 
L 394.735569 293.614469 
z
" clip-path="url(#pd1614b5790)" style="fill: #0000ff; opacity: 0.3; stroke: #000000; stroke-linejoin: miter"/>
   </g>
   <g id="patch_45">
    <path d="M 416.730987 385.478125 
L 438.726406 385.478125 
L 438.726406 286.265376 
L 416.730987 286.265376 
z
" clip-path="url(#pd1614b5790)" style="fill: #0000ff; opacity: 0.3; stroke: #000000; stroke-linejoin: miter"/>
   </g>
   <g id="patch_46">
    <path d="M 438.726406 385.478125 
L 460.721825 385.478125 
L 460.721825 252.275823 
L 438.726406 252.275823 
z
" clip-path="url(#pd1614b5790)" style="fill: #0000ff; opacity: 0.3; stroke: #000000; stroke-linejoin: miter"/>
   </g>
   <g id="patch_47">
    <path d="M 460.721825 385.478125 
L 482.717243 385.478125 
L 482.717243 228.391272 
L 460.721825 228.391272 
z
" clip-path="url(#pd1614b5790)" style="fill: #0000ff; opacity: 0.3; stroke: #000000; stroke-linejoin: miter"/>
   </g>
   <g id="patch_48">
    <path d="M 482.717243 385.478125 
L 504.712662 385.478125 
L 504.712662 197.157629 
L 482.717243 197.157629 
z
" clip-path="url(#pd1614b5790)" style="fill: #0000ff; opacity: 0.3; stroke: #000000; stroke-linejoin: miter"/>
   </g>
   <g id="patch_49">
    <path d="M 504.712662 385.478125 
L 526.70808 385.478125 
L 526.70808 195.779674 
L 504.712662 195.779674 
z
" clip-path="url(#pd1614b5790)" style="fill: #0000ff; opacity: 0.3; stroke: #000000; stroke-linejoin: miter"/>
   </g>
   <g id="patch_50">
    <path d="M 526.70808 385.478125 
L 548.703499 385.478125 
L 548.703499 164.546031 
L 526.70808 164.546031 
z
" clip-path="url(#pd1614b5790)" style="fill: #0000ff; opacity: 0.3; stroke: #000000; stroke-linejoin: miter"/>
   </g>
   <g id="patch_51">
    <path d="M 548.703499 385.478125 
L 570.698918 385.478125 
L 570.698918 132.393751 
L 548.703499 132.393751 
z
" clip-path="url(#pd1614b5790)" style="fill: #0000ff; opacity: 0.3; stroke: #000000; stroke-linejoin: miter"/>
   </g>
   <g id="patch_52">
    <path d="M 570.698918 385.478125 
L 592.694336 385.478125 
L 592.694336 107.131246 
L 570.698918 107.131246 
z
" clip-path="url(#pd1614b5790)" style="fill: #0000ff; opacity: 0.3; stroke: #000000; stroke-linejoin: miter"/>
   </g>
   <g id="patch_53">
    <path d="M 592.694336 385.478125 
L 614.689755 385.478125 
L 614.689755 77.734876 
L 592.694336 77.734876 
z
" clip-path="url(#pd1614b5790)" style="fill: #0000ff; opacity: 0.3; stroke: #000000; stroke-linejoin: miter"/>
   </g>
   <g id="patch_54">
    <path d="M 614.689755 385.478125 
L 636.685174 385.478125 
L 636.685174 51.553734 
L 614.689755 51.553734 
z
" clip-path="url(#pd1614b5790)" style="fill: #0000ff; opacity: 0.3; stroke: #000000; stroke-linejoin: miter"/>
   </g>
   <g id="patch_55">
    <path d="M 636.685174 385.478125 
L 658.680592 385.478125 
L 658.680592 39.611458 
L 636.685174 39.611458 
z
" clip-path="url(#pd1614b5790)" style="fill: #0000ff; opacity: 0.3; stroke: #000000; stroke-linejoin: miter"/>
   </g>
   <g id="patch_56">
    <path d="M 658.680592 385.478125 
L 680.676011 385.478125 
L 680.676011 54.768962 
L 658.680592 54.768962 
z
" clip-path="url(#pd1614b5790)" style="fill: #0000ff; opacity: 0.3; stroke: #000000; stroke-linejoin: miter"/>
   </g>
   <g id="patch_57">
    <path d="M 680.676011 385.478125 
L 702.67143 385.478125 
L 702.67143 42.367368 
L 680.676011 42.367368 
z
" clip-path="url(#pd1614b5790)" style="fill: #0000ff; opacity: 0.3; stroke: #000000; stroke-linejoin: miter"/>
   </g>
   <g id="patch_58">
    <path d="M 702.67143 385.478125 
L 724.666848 385.478125 
L 724.666848 79.572149 
L 702.67143 79.572149 
z
" clip-path="url(#pd1614b5790)" style="fill: #0000ff; opacity: 0.3; stroke: #000000; stroke-linejoin: miter"/>
   </g>
   <g id="patch_59">
    <path d="M 724.666848 385.478125 
L 746.662267 385.478125 
L 746.662267 93.351697 
L 724.666848 93.351697 
z
" clip-path="url(#pd1614b5790)" style="fill: #0000ff; opacity: 0.3; stroke: #000000; stroke-linejoin: miter"/>
   </g>
   <g id="patch_60">
    <path d="M 746.662267 385.478125 
L 768.657685 385.478125 
L 768.657685 150.766483 
L 746.662267 150.766483 
z
" clip-path="url(#pd1614b5790)" style="fill: #0000ff; opacity: 0.3; stroke: #000000; stroke-linejoin: miter"/>
   </g>
   <g id="patch_61">
    <path d="M 768.657685 385.478125 
L 790.653104 385.478125 
L 790.653104 224.716726 
L 768.657685 224.716726 
z
" clip-path="url(#pd1614b5790)" style="fill: #0000ff; opacity: 0.3; stroke: #000000; stroke-linejoin: miter"/>
   </g>
   <g id="patch_62">
    <path d="M 790.653104 385.478125 
L 812.648523 385.478125 
L 812.648523 314.283791 
L 790.653104 314.283791 
z
" clip-path="url(#pd1614b5790)" style="fill: #0000ff; opacity: 0.3; stroke: #000000; stroke-linejoin: miter"/>
   </g>
   <g id="patch_63">
    <path d="M 117.975642 385.478125 
L 139.885413 385.478125 
L 139.885413 383.172556 
L 117.975642 383.172556 
z
" clip-path="url(#pd1614b5790)" style="fill: #008000; opacity: 0.3; stroke: #000000; stroke-linejoin: miter"/>
   </g>
   <g id="patch_64">
    <path d="M 139.885413 385.478125 
L 161.795184 385.478125 
L 161.795184 380.405873 
L 139.885413 380.405873 
z
" clip-path="url(#pd1614b5790)" style="fill: #008000; opacity: 0.3; stroke: #000000; stroke-linejoin: miter"/>
   </g>
   <g id="patch_65">
    <path d="M 161.795184 385.478125 
L 183.704955 385.478125 
L 183.704955 373.489166 
L 161.795184 373.489166 
z
" clip-path="url(#pd1614b5790)" style="fill: #008000; opacity: 0.3; stroke: #000000; stroke-linejoin: miter"/>
   </g>
   <g id="patch_66">
    <path d="M 183.704955 385.478125 
L 205.614727 385.478125 
L 205.614727 357.350183 
L 183.704955 357.350183 
z
" clip-path="url(#pd1614b5790)" style="fill: #008000; opacity: 0.3; stroke: #000000; stroke-linejoin: miter"/>
   </g>
   <g id="patch_67">
    <path d="M 205.614727 385.478125 
L 227.524498 385.478125 
L 227.524498 340.750086 
L 205.614727 340.750086 
z
" clip-path="url(#pd1614b5790)" style="fill: #008000; opacity: 0.3; stroke: #000000; stroke-linejoin: miter"/>
   </g>
   <g id="patch_68">
    <path d="M 227.524498 385.478125 
L 249.434269 385.478125 
L 249.434269 311.699917 
L 227.524498 311.699917 
z
" clip-path="url(#pd1614b5790)" style="fill: #008000; opacity: 0.3; stroke: #000000; stroke-linejoin: miter"/>
   </g>
   <g id="patch_69">
    <path d="M 249.434269 385.478125 
L 271.34404 385.478125 
L 271.34404 290.949795 
L 249.434269 290.949795 
z
" clip-path="url(#pd1614b5790)" style="fill: #008000; opacity: 0.3; stroke: #000000; stroke-linejoin: miter"/>
   </g>
   <g id="patch_70">
    <path d="M 271.34404 385.478125 
L 293.253811 385.478125 
L 293.253811 239.766163 
L 271.34404 239.766163 
z
" clip-path="url(#pd1614b5790)" style="fill: #008000; opacity: 0.3; stroke: #000000; stroke-linejoin: miter"/>
   </g>
   <g id="patch_71">
    <path d="M 293.253811 385.478125 
L 315.163583 385.478125 
L 315.163583 191.810328 
L 293.253811 191.810328 
z
" clip-path="url(#pd1614b5790)" style="fill: #008000; opacity: 0.3; stroke: #000000; stroke-linejoin: miter"/>
   </g>
   <g id="patch_72">
    <path d="M 315.163583 385.478125 
L 337.073354 385.478125 
L 337.073354 174.749117 
L 315.163583 174.749117 
z
" clip-path="url(#pd1614b5790)" style="fill: #008000; opacity: 0.3; stroke: #000000; stroke-linejoin: miter"/>
   </g>
   <g id="patch_73">
    <path d="M 337.073354 385.478125 
L 358.983125 385.478125 
L 358.983125 132.787761 
L 337.073354 132.787761 
z
" clip-path="url(#pd1614b5790)" style="fill: #008000; opacity: 0.3; stroke: #000000; stroke-linejoin: miter"/>
   </g>
   <g id="patch_74">
    <path d="M 358.983125 385.478125 
L 380.892896 385.478125 
L 380.892896 104.198705 
L 358.983125 104.198705 
z
" clip-path="url(#pd1614b5790)" style="fill: #008000; opacity: 0.3; stroke: #000000; stroke-linejoin: miter"/>
   </g>
   <g id="patch_75">
    <path d="M 380.892896 385.478125 
L 402.802667 385.478125 
L 402.802667 96.359771 
L 380.892896 96.359771 
z
" clip-path="url(#pd1614b5790)" style="fill: #008000; opacity: 0.3; stroke: #000000; stroke-linejoin: miter"/>
   </g>
   <g id="patch_76">
    <path d="M 402.802667 385.478125 
L 424.712439 385.478125 
L 424.712439 68.692943 
L 402.802667 68.692943 
z
" clip-path="url(#pd1614b5790)" style="fill: #008000; opacity: 0.3; stroke: #000000; stroke-linejoin: miter"/>
   </g>
   <g id="patch_77">
    <path d="M 424.712439 385.478125 
L 446.62221 385.478125 
L 446.62221 57.626211 
L 424.712439 57.626211 
z
" clip-path="url(#pd1614b5790)" style="fill: #008000; opacity: 0.3; stroke: #000000; stroke-linejoin: miter"/>
   </g>
   <g id="patch_78">
    <path d="M 446.62221 385.478125 
L 468.531981 385.478125 
L 468.531981 51.170618 
L 446.62221 51.170618 
z
" clip-path="url(#pd1614b5790)" style="fill: #008000; opacity: 0.3; stroke: #000000; stroke-linejoin: miter"/>
   </g>
   <g id="patch_79">
    <path d="M 468.531981 385.478125 
L 490.441752 385.478125 
L 490.441752 43.331683 
L 468.531981 43.331683 
z
" clip-path="url(#pd1614b5790)" style="fill: #008000; opacity: 0.3; stroke: #000000; stroke-linejoin: miter"/>
   </g>
   <g id="patch_80">
    <path d="M 490.441752 385.478125 
L 512.351523 385.478125 
L 512.351523 72.381853 
L 490.441752 72.381853 
z
" clip-path="url(#pd1614b5790)" style="fill: #008000; opacity: 0.3; stroke: #000000; stroke-linejoin: miter"/>
   </g>
   <g id="patch_81">
    <path d="M 512.351523 385.478125 
L 534.261295 385.478125 
L 534.261295 99.587567 
L 512.351523 99.587567 
z
" clip-path="url(#pd1614b5790)" style="fill: #008000; opacity: 0.3; stroke: #000000; stroke-linejoin: miter"/>
   </g>
   <g id="patch_82">
    <path d="M 534.261295 385.478125 
L 556.171066 385.478125 
L 556.171066 134.171103 
L 534.261295 134.171103 
z
" clip-path="url(#pd1614b5790)" style="fill: #008000; opacity: 0.3; stroke: #000000; stroke-linejoin: miter"/>
   </g>
   <g id="patch_83">
    <path d="M 556.171066 385.478125 
L 578.080837 385.478125 
L 578.080837 163.682386 
L 556.171066 163.682386 
z
" clip-path="url(#pd1614b5790)" style="fill: #008000; opacity: 0.3; stroke: #000000; stroke-linejoin: miter"/>
   </g>
   <g id="patch_84">
    <path d="M 578.080837 385.478125 
L 599.990608 385.478125 
L 599.990608 228.699432 
L 578.080837 228.699432 
z
" clip-path="url(#pd1614b5790)" style="fill: #008000; opacity: 0.3; stroke: #000000; stroke-linejoin: miter"/>
   </g>
   <g id="patch_85">
    <path d="M 599.990608 385.478125 
L 621.900379 385.478125 
L 621.900379 242.99396 
L 599.990608 242.99396 
z
" clip-path="url(#pd1614b5790)" style="fill: #008000; opacity: 0.3; stroke: #000000; stroke-linejoin: miter"/>
   </g>
   <g id="patch_86">
    <path d="M 621.900379 385.478125 
L 643.810151 385.478125 
L 643.810151 275.271926 
L 621.900379 275.271926 
z
" clip-path="url(#pd1614b5790)" style="fill: #008000; opacity: 0.3; stroke: #000000; stroke-linejoin: miter"/>
   </g>
   <g id="patch_87">
    <path d="M 643.810151 385.478125 
L 665.719922 385.478125 
L 665.719922 312.622144 
L 643.810151 312.622144 
z
" clip-path="url(#pd1614b5790)" style="fill: #008000; opacity: 0.3; stroke: #000000; stroke-linejoin: miter"/>
   </g>
   <g id="patch_88">
    <path d="M 665.719922 385.478125 
L 687.629693 385.478125 
L 687.629693 338.905631 
L 665.719922 338.905631 
z
" clip-path="url(#pd1614b5790)" style="fill: #008000; opacity: 0.3; stroke: #000000; stroke-linejoin: miter"/>
   </g>
   <g id="patch_89">
    <path d="M 687.629693 385.478125 
L 709.539464 385.478125 
L 709.539464 356.427955 
L 687.629693 356.427955 
z
" clip-path="url(#pd1614b5790)" style="fill: #008000; opacity: 0.3; stroke: #000000; stroke-linejoin: miter"/>
   </g>
   <g id="patch_90">
    <path d="M 709.539464 385.478125 
L 731.449235 385.478125 
L 731.449235 367.955801 
L 709.539464 367.955801 
z
" clip-path="url(#pd1614b5790)" style="fill: #008000; opacity: 0.3; stroke: #000000; stroke-linejoin: miter"/>
   </g>
   <g id="patch_91">
    <path d="M 731.449235 385.478125 
L 753.359006 385.478125 
L 753.359006 380.866987 
L 731.449235 380.866987 
z
" clip-path="url(#pd1614b5790)" style="fill: #008000; opacity: 0.3; stroke: #000000; stroke-linejoin: miter"/>
   </g>
   <g id="patch_92">
    <path d="M 753.359006 385.478125 
L 775.268778 385.478125 
L 775.268778 381.328101 
L 753.359006 381.328101 
z
" clip-path="url(#pd1614b5790)" style="fill: #008000; opacity: 0.3; stroke: #000000; stroke-linejoin: miter"/>
   </g>
   <g id="matplotlib.axis_1">
    <g id="xtick_1">
     <g id="line2d_1">
      <path d="M 79.862987 385.478125 
L 79.862987 22.318125 
" clip-path="url(#pd1614b5790)" style="fill: none; stroke: #b0b0b0; stroke-opacity: 0.3; stroke-width: 0.8; stroke-linecap: square"/>
     </g>
     <g id="line2d_2">
      <defs>
       <path id="md239002a81" d="M 0 0 
L 0 3.5 
" style="stroke: #000000; stroke-width: 0.8"/>
      </defs>
      <g>
       <use xlink:href="#md239002a81" x="79.862987" y="385.478125" style="stroke: #000000; stroke-width: 0.8"/>
      </g>
     </g>
     <g id="text_1">
      <!-- 0.0 -->
      <g transform="translate(71.911425 400.076562) scale(0.1 -0.1)">
       <defs>
        <path id="DejaVuSans-30" d="M 2034 4250 
Q 1547 4250 1301 3770 
Q 1056 3291 1056 2328 
Q 1056 1369 1301 889 
Q 1547 409 2034 409 
Q 2525 409 2770 889 
Q 3016 1369 3016 2328 
Q 3016 3291 2770 3770 
Q 2525 4250 2034 4250 
z
M 2034 4750 
Q 2819 4750 3233 4129 
Q 3647 3509 3647 2328 
Q 3647 1150 3233 529 
Q 2819 -91 2034 -91 
Q 1250 -91 836 529 
Q 422 1150 422 2328 
Q 422 3509 836 4129 
Q 1250 4750 2034 4750 
z
" transform="scale(0.015625)"/>
        <path id="DejaVuSans-2e" d="M 684 794 
L 1344 794 
L 1344 0 
L 684 0 
L 684 794 
z
" transform="scale(0.015625)"/>
       </defs>
       <use xlink:href="#DejaVuSans-30"/>
       <use xlink:href="#DejaVuSans-2e" x="63.623047"/>
       <use xlink:href="#DejaVuSans-30" x="95.410156"/>
      </g>
     </g>
    </g>
    <g id="xtick_2">
     <g id="line2d_3">
      <path d="M 226.831721 385.478125 
L 226.831721 22.318125 
" clip-path="url(#pd1614b5790)" style="fill: none; stroke: #b0b0b0; stroke-opacity: 0.3; stroke-width: 0.8; stroke-linecap: square"/>
     </g>
     <g id="line2d_4">
      <g>
       <use xlink:href="#md239002a81" x="226.831721" y="385.478125" style="stroke: #000000; stroke-width: 0.8"/>
      </g>
     </g>
     <g id="text_2">
      <!-- 0.2 -->
      <g transform="translate(218.880159 400.076562) scale(0.1 -0.1)">
       <defs>
        <path id="DejaVuSans-32" d="M 1228 531 
L 3431 531 
L 3431 0 
L 469 0 
L 469 531 
Q 828 903 1448 1529 
Q 2069 2156 2228 2338 
Q 2531 2678 2651 2914 
Q 2772 3150 2772 3378 
Q 2772 3750 2511 3984 
Q 2250 4219 1831 4219 
Q 1534 4219 1204 4116 
Q 875 4013 500 3803 
L 500 4441 
Q 881 4594 1212 4672 
Q 1544 4750 1819 4750 
Q 2544 4750 2975 4387 
Q 3406 4025 3406 3419 
Q 3406 3131 3298 2873 
Q 3191 2616 2906 2266 
Q 2828 2175 2409 1742 
Q 1991 1309 1228 531 
z
" transform="scale(0.015625)"/>
       </defs>
       <use xlink:href="#DejaVuSans-30"/>
       <use xlink:href="#DejaVuSans-2e" x="63.623047"/>
       <use xlink:href="#DejaVuSans-32" x="95.410156"/>
      </g>
     </g>
    </g>
    <g id="xtick_3">
     <g id="line2d_5">
      <path d="M 373.800455 385.478125 
L 373.800455 22.318125 
" clip-path="url(#pd1614b5790)" style="fill: none; stroke: #b0b0b0; stroke-opacity: 0.3; stroke-width: 0.8; stroke-linecap: square"/>
     </g>
     <g id="line2d_6">
      <g>
       <use xlink:href="#md239002a81" x="373.800455" y="385.478125" style="stroke: #000000; stroke-width: 0.8"/>
      </g>
     </g>
     <g id="text_3">
      <!-- 0.4 -->
      <g transform="translate(365.848892 400.076562) scale(0.1 -0.1)">
       <defs>
        <path id="DejaVuSans-34" d="M 2419 4116 
L 825 1625 
L 2419 1625 
L 2419 4116 
z
M 2253 4666 
L 3047 4666 
L 3047 1625 
L 3713 1625 
L 3713 1100 
L 3047 1100 
L 3047 0 
L 2419 0 
L 2419 1100 
L 313 1100 
L 313 1709 
L 2253 4666 
z
" transform="scale(0.015625)"/>
       </defs>
       <use xlink:href="#DejaVuSans-30"/>
       <use xlink:href="#DejaVuSans-2e" x="63.623047"/>
       <use xlink:href="#DejaVuSans-34" x="95.410156"/>
      </g>
     </g>
    </g>
    <g id="xtick_4">
     <g id="line2d_7">
      <path d="M 520.769188 385.478125 
L 520.769188 22.318125 
" clip-path="url(#pd1614b5790)" style="fill: none; stroke: #b0b0b0; stroke-opacity: 0.3; stroke-width: 0.8; stroke-linecap: square"/>
     </g>
     <g id="line2d_8">
      <g>
       <use xlink:href="#md239002a81" x="520.769188" y="385.478125" style="stroke: #000000; stroke-width: 0.8"/>
      </g>
     </g>
     <g id="text_4">
      <!-- 0.6 -->
      <g transform="translate(512.817626 400.076562) scale(0.1 -0.1)">
       <defs>
        <path id="DejaVuSans-36" d="M 2113 2584 
Q 1688 2584 1439 2293 
Q 1191 2003 1191 1497 
Q 1191 994 1439 701 
Q 1688 409 2113 409 
Q 2538 409 2786 701 
Q 3034 994 3034 1497 
Q 3034 2003 2786 2293 
Q 2538 2584 2113 2584 
z
M 3366 4563 
L 3366 3988 
Q 3128 4100 2886 4159 
Q 2644 4219 2406 4219 
Q 1781 4219 1451 3797 
Q 1122 3375 1075 2522 
Q 1259 2794 1537 2939 
Q 1816 3084 2150 3084 
Q 2853 3084 3261 2657 
Q 3669 2231 3669 1497 
Q 3669 778 3244 343 
Q 2819 -91 2113 -91 
Q 1303 -91 875 529 
Q 447 1150 447 2328 
Q 447 3434 972 4092 
Q 1497 4750 2381 4750 
Q 2619 4750 2861 4703 
Q 3103 4656 3366 4563 
z
" transform="scale(0.015625)"/>
       </defs>
       <use xlink:href="#DejaVuSans-30"/>
       <use xlink:href="#DejaVuSans-2e" x="63.623047"/>
       <use xlink:href="#DejaVuSans-36" x="95.410156"/>
      </g>
     </g>
    </g>
    <g id="xtick_5">
     <g id="line2d_9">
      <path d="M 667.737922 385.478125 
L 667.737922 22.318125 
" clip-path="url(#pd1614b5790)" style="fill: none; stroke: #b0b0b0; stroke-opacity: 0.3; stroke-width: 0.8; stroke-linecap: square"/>
     </g>
     <g id="line2d_10">
      <g>
       <use xlink:href="#md239002a81" x="667.737922" y="385.478125" style="stroke: #000000; stroke-width: 0.8"/>
      </g>
     </g>
     <g id="text_5">
      <!-- 0.8 -->
      <g transform="translate(659.78636 400.076562) scale(0.1 -0.1)">
       <defs>
        <path id="DejaVuSans-38" d="M 2034 2216 
Q 1584 2216 1326 1975 
Q 1069 1734 1069 1313 
Q 1069 891 1326 650 
Q 1584 409 2034 409 
Q 2484 409 2743 651 
Q 3003 894 3003 1313 
Q 3003 1734 2745 1975 
Q 2488 2216 2034 2216 
z
M 1403 2484 
Q 997 2584 770 2862 
Q 544 3141 544 3541 
Q 544 4100 942 4425 
Q 1341 4750 2034 4750 
Q 2731 4750 3128 4425 
Q 3525 4100 3525 3541 
Q 3525 3141 3298 2862 
Q 3072 2584 2669 2484 
Q 3125 2378 3379 2068 
Q 3634 1759 3634 1313 
Q 3634 634 3220 271 
Q 2806 -91 2034 -91 
Q 1263 -91 848 271 
Q 434 634 434 1313 
Q 434 1759 690 2068 
Q 947 2378 1403 2484 
z
M 1172 3481 
Q 1172 3119 1398 2916 
Q 1625 2713 2034 2713 
Q 2441 2713 2670 2916 
Q 2900 3119 2900 3481 
Q 2900 3844 2670 4047 
Q 2441 4250 2034 4250 
Q 1625 4250 1398 4047 
Q 1172 3844 1172 3481 
z
" transform="scale(0.015625)"/>
       </defs>
       <use xlink:href="#DejaVuSans-30"/>
       <use xlink:href="#DejaVuSans-2e" x="63.623047"/>
       <use xlink:href="#DejaVuSans-38" x="95.410156"/>
      </g>
     </g>
    </g>
    <g id="xtick_6">
     <g id="line2d_11">
      <path d="M 814.706656 385.478125 
L 814.706656 22.318125 
" clip-path="url(#pd1614b5790)" style="fill: none; stroke: #b0b0b0; stroke-opacity: 0.3; stroke-width: 0.8; stroke-linecap: square"/>
     </g>
     <g id="line2d_12">
      <g>
       <use xlink:href="#md239002a81" x="814.706656" y="385.478125" style="stroke: #000000; stroke-width: 0.8"/>
      </g>
     </g>
     <g id="text_6">
      <!-- 1.0 -->
      <g transform="translate(806.755093 400.076562) scale(0.1 -0.1)">
       <defs>
        <path id="DejaVuSans-31" d="M 794 531 
L 1825 531 
L 1825 4091 
L 703 3866 
L 703 4441 
L 1819 4666 
L 2450 4666 
L 2450 531 
L 3481 531 
L 3481 0 
L 794 0 
L 794 531 
z
" transform="scale(0.015625)"/>
       </defs>
       <use xlink:href="#DejaVuSans-31"/>
       <use xlink:href="#DejaVuSans-2e" x="63.623047"/>
       <use xlink:href="#DejaVuSans-30" x="95.410156"/>
      </g>
     </g>
    </g>
    <g id="text_7">
     <!-- Value -->
     <g transform="translate(432.79 413.754687) scale(0.1 -0.1)">
      <defs>
       <path id="DejaVuSans-56" d="M 1831 0 
L 50 4666 
L 709 4666 
L 2188 738 
L 3669 4666 
L 4325 4666 
L 2547 0 
L 1831 0 
z
" transform="scale(0.015625)"/>
       <path id="DejaVuSans-61" d="M 2194 1759 
Q 1497 1759 1228 1600 
Q 959 1441 959 1056 
Q 959 750 1161 570 
Q 1363 391 1709 391 
Q 2188 391 2477 730 
Q 2766 1069 2766 1631 
L 2766 1759 
L 2194 1759 
z
M 3341 1997 
L 3341 0 
L 2766 0 
L 2766 531 
Q 2569 213 2275 61 
Q 1981 -91 1556 -91 
Q 1019 -91 701 211 
Q 384 513 384 1019 
Q 384 1609 779 1909 
Q 1175 2209 1959 2209 
L 2766 2209 
L 2766 2266 
Q 2766 2663 2505 2880 
Q 2244 3097 1772 3097 
Q 1472 3097 1187 3025 
Q 903 2953 641 2809 
L 641 3341 
Q 956 3463 1253 3523 
Q 1550 3584 1831 3584 
Q 2591 3584 2966 3190 
Q 3341 2797 3341 1997 
z
" transform="scale(0.015625)"/>
       <path id="DejaVuSans-6c" d="M 603 4863 
L 1178 4863 
L 1178 0 
L 603 0 
L 603 4863 
z
" transform="scale(0.015625)"/>
       <path id="DejaVuSans-75" d="M 544 1381 
L 544 3500 
L 1119 3500 
L 1119 1403 
Q 1119 906 1312 657 
Q 1506 409 1894 409 
Q 2359 409 2629 706 
Q 2900 1003 2900 1516 
L 2900 3500 
L 3475 3500 
L 3475 0 
L 2900 0 
L 2900 538 
Q 2691 219 2414 64 
Q 2138 -91 1772 -91 
Q 1169 -91 856 284 
Q 544 659 544 1381 
z
M 1991 3584 
L 1991 3584 
z
" transform="scale(0.015625)"/>
       <path id="DejaVuSans-65" d="M 3597 1894 
L 3597 1613 
L 953 1613 
Q 991 1019 1311 708 
Q 1631 397 2203 397 
Q 2534 397 2845 478 
Q 3156 559 3463 722 
L 3463 178 
Q 3153 47 2828 -22 
Q 2503 -91 2169 -91 
Q 1331 -91 842 396 
Q 353 884 353 1716 
Q 353 2575 817 3079 
Q 1281 3584 2069 3584 
Q 2775 3584 3186 3129 
Q 3597 2675 3597 1894 
z
M 3022 2063 
Q 3016 2534 2758 2815 
Q 2500 3097 2075 3097 
Q 1594 3097 1305 2825 
Q 1016 2553 972 2059 
L 3022 2063 
z
" transform="scale(0.015625)"/>
      </defs>
      <use xlink:href="#DejaVuSans-56"/>
      <use xlink:href="#DejaVuSans-61" x="60.658203"/>
      <use xlink:href="#DejaVuSans-6c" x="121.9375"/>
      <use xlink:href="#DejaVuSans-75" x="149.720703"/>
      <use xlink:href="#DejaVuSans-65" x="213.099609"/>
     </g>
    </g>
   </g>
   <g id="matplotlib.axis_2">
    <g id="ytick_1">
     <g id="line2d_13">
      <path d="M 43.78125 385.478125 
L 849.26125 385.478125 
" clip-path="url(#pd1614b5790)" style="fill: none; stroke: #b0b0b0; stroke-opacity: 0.3; stroke-width: 0.8; stroke-linecap: square"/>
     </g>
     <g id="line2d_14">
      <defs>
       <path id="mb163b58406" d="M 0 0 
L -3.5 0 
" style="stroke: #000000; stroke-width: 0.8"/>
      </defs>
      <g>
       <use xlink:href="#mb163b58406" x="43.78125" y="385.478125" style="stroke: #000000; stroke-width: 0.8"/>
      </g>
     </g>
     <g id="text_8">
      <!-- 0.0 -->
      <g transform="translate(20.878125 389.277344) scale(0.1 -0.1)">
       <use xlink:href="#DejaVuSans-30"/>
       <use xlink:href="#DejaVuSans-2e" x="63.623047"/>
       <use xlink:href="#DejaVuSans-30" x="95.410156"/>
      </g>
     </g>
    </g>
    <g id="ytick_2">
     <g id="line2d_15">
      <path d="M 43.78125 316.736307 
L 849.26125 316.736307 
" clip-path="url(#pd1614b5790)" style="fill: none; stroke: #b0b0b0; stroke-opacity: 0.3; stroke-width: 0.8; stroke-linecap: square"/>
     </g>
     <g id="line2d_16">
      <g>
       <use xlink:href="#mb163b58406" x="43.78125" y="316.736307" style="stroke: #000000; stroke-width: 0.8"/>
      </g>
     </g>
     <g id="text_9">
      <!-- 0.5 -->
      <g transform="translate(20.878125 320.535526) scale(0.1 -0.1)">
       <defs>
        <path id="DejaVuSans-35" d="M 691 4666 
L 3169 4666 
L 3169 4134 
L 1269 4134 
L 1269 2991 
Q 1406 3038 1543 3061 
Q 1681 3084 1819 3084 
Q 2600 3084 3056 2656 
Q 3513 2228 3513 1497 
Q 3513 744 3044 326 
Q 2575 -91 1722 -91 
Q 1428 -91 1123 -41 
Q 819 9 494 109 
L 494 744 
Q 775 591 1075 516 
Q 1375 441 1709 441 
Q 2250 441 2565 725 
Q 2881 1009 2881 1497 
Q 2881 1984 2565 2268 
Q 2250 2553 1709 2553 
Q 1456 2553 1204 2497 
Q 953 2441 691 2322 
L 691 4666 
z
" transform="scale(0.015625)"/>
       </defs>
       <use xlink:href="#DejaVuSans-30"/>
       <use xlink:href="#DejaVuSans-2e" x="63.623047"/>
       <use xlink:href="#DejaVuSans-35" x="95.410156"/>
      </g>
     </g>
    </g>
    <g id="ytick_3">
     <g id="line2d_17">
      <path d="M 43.78125 247.994489 
L 849.26125 247.994489 
" clip-path="url(#pd1614b5790)" style="fill: none; stroke: #b0b0b0; stroke-opacity: 0.3; stroke-width: 0.8; stroke-linecap: square"/>
     </g>
     <g id="line2d_18">
      <g>
       <use xlink:href="#mb163b58406" x="43.78125" y="247.994489" style="stroke: #000000; stroke-width: 0.8"/>
      </g>
     </g>
     <g id="text_10">
      <!-- 1.0 -->
      <g transform="translate(20.878125 251.793708) scale(0.1 -0.1)">
       <use xlink:href="#DejaVuSans-31"/>
       <use xlink:href="#DejaVuSans-2e" x="63.623047"/>
       <use xlink:href="#DejaVuSans-30" x="95.410156"/>
      </g>
     </g>
    </g>
    <g id="ytick_4">
     <g id="line2d_19">
      <path d="M 43.78125 179.252672 
L 849.26125 179.252672 
" clip-path="url(#pd1614b5790)" style="fill: none; stroke: #b0b0b0; stroke-opacity: 0.3; stroke-width: 0.8; stroke-linecap: square"/>
     </g>
     <g id="line2d_20">
      <g>
       <use xlink:href="#mb163b58406" x="43.78125" y="179.252672" style="stroke: #000000; stroke-width: 0.8"/>
      </g>
     </g>
     <g id="text_11">
      <!-- 1.5 -->
      <g transform="translate(20.878125 183.05189) scale(0.1 -0.1)">
       <use xlink:href="#DejaVuSans-31"/>
       <use xlink:href="#DejaVuSans-2e" x="63.623047"/>
       <use xlink:href="#DejaVuSans-35" x="95.410156"/>
      </g>
     </g>
    </g>
    <g id="ytick_5">
     <g id="line2d_21">
      <path d="M 43.78125 110.510854 
L 849.26125 110.510854 
" clip-path="url(#pd1614b5790)" style="fill: none; stroke: #b0b0b0; stroke-opacity: 0.3; stroke-width: 0.8; stroke-linecap: square"/>
     </g>
     <g id="line2d_22">
      <g>
       <use xlink:href="#mb163b58406" x="43.78125" y="110.510854" style="stroke: #000000; stroke-width: 0.8"/>
      </g>
     </g>
     <g id="text_12">
      <!-- 2.0 -->
      <g transform="translate(20.878125 114.310073) scale(0.1 -0.1)">
       <use xlink:href="#DejaVuSans-32"/>
       <use xlink:href="#DejaVuSans-2e" x="63.623047"/>
       <use xlink:href="#DejaVuSans-30" x="95.410156"/>
      </g>
     </g>
    </g>
    <g id="ytick_6">
     <g id="line2d_23">
      <path d="M 43.78125 41.769036 
L 849.26125 41.769036 
" clip-path="url(#pd1614b5790)" style="fill: none; stroke: #b0b0b0; stroke-opacity: 0.3; stroke-width: 0.8; stroke-linecap: square"/>
     </g>
     <g id="line2d_24">
      <g>
       <use xlink:href="#mb163b58406" x="43.78125" y="41.769036" style="stroke: #000000; stroke-width: 0.8"/>
      </g>
     </g>
     <g id="text_13">
      <!-- 2.5 -->
      <g transform="translate(20.878125 45.568255) scale(0.1 -0.1)">
       <use xlink:href="#DejaVuSans-32"/>
       <use xlink:href="#DejaVuSans-2e" x="63.623047"/>
       <use xlink:href="#DejaVuSans-35" x="95.410156"/>
      </g>
     </g>
    </g>
    <g id="text_14">
     <!-- Density -->
     <g transform="translate(14.798438 222.906719) rotate(-90) scale(0.1 -0.1)">
      <defs>
       <path id="DejaVuSans-44" d="M 1259 4147 
L 1259 519 
L 2022 519 
Q 2988 519 3436 956 
Q 3884 1394 3884 2338 
Q 3884 3275 3436 3711 
Q 2988 4147 2022 4147 
L 1259 4147 
z
M 628 4666 
L 1925 4666 
Q 3281 4666 3915 4102 
Q 4550 3538 4550 2338 
Q 4550 1131 3912 565 
Q 3275 0 1925 0 
L 628 0 
L 628 4666 
z
" transform="scale(0.015625)"/>
       <path id="DejaVuSans-6e" d="M 3513 2113 
L 3513 0 
L 2938 0 
L 2938 2094 
Q 2938 2591 2744 2837 
Q 2550 3084 2163 3084 
Q 1697 3084 1428 2787 
Q 1159 2491 1159 1978 
L 1159 0 
L 581 0 
L 581 3500 
L 1159 3500 
L 1159 2956 
Q 1366 3272 1645 3428 
Q 1925 3584 2291 3584 
Q 2894 3584 3203 3211 
Q 3513 2838 3513 2113 
z
" transform="scale(0.015625)"/>
       <path id="DejaVuSans-73" d="M 2834 3397 
L 2834 2853 
Q 2591 2978 2328 3040 
Q 2066 3103 1784 3103 
Q 1356 3103 1142 2972 
Q 928 2841 928 2578 
Q 928 2378 1081 2264 
Q 1234 2150 1697 2047 
L 1894 2003 
Q 2506 1872 2764 1633 
Q 3022 1394 3022 966 
Q 3022 478 2636 193 
Q 2250 -91 1575 -91 
Q 1294 -91 989 -36 
Q 684 19 347 128 
L 347 722 
Q 666 556 975 473 
Q 1284 391 1588 391 
Q 1994 391 2212 530 
Q 2431 669 2431 922 
Q 2431 1156 2273 1281 
Q 2116 1406 1581 1522 
L 1381 1569 
Q 847 1681 609 1914 
Q 372 2147 372 2553 
Q 372 3047 722 3315 
Q 1072 3584 1716 3584 
Q 2034 3584 2315 3537 
Q 2597 3491 2834 3397 
z
" transform="scale(0.015625)"/>
       <path id="DejaVuSans-69" d="M 603 3500 
L 1178 3500 
L 1178 0 
L 603 0 
L 603 3500 
z
M 603 4863 
L 1178 4863 
L 1178 4134 
L 603 4134 
L 603 4863 
z
" transform="scale(0.015625)"/>
       <path id="DejaVuSans-74" d="M 1172 4494 
L 1172 3500 
L 2356 3500 
L 2356 3053 
L 1172 3053 
L 1172 1153 
Q 1172 725 1289 603 
Q 1406 481 1766 481 
L 2356 481 
L 2356 0 
L 1766 0 
Q 1100 0 847 248 
Q 594 497 594 1153 
L 594 3053 
L 172 3053 
L 172 3500 
L 594 3500 
L 594 4494 
L 1172 4494 
z
" transform="scale(0.015625)"/>
       <path id="DejaVuSans-79" d="M 2059 -325 
Q 1816 -950 1584 -1140 
Q 1353 -1331 966 -1331 
L 506 -1331 
L 506 -850 
L 844 -850 
Q 1081 -850 1212 -737 
Q 1344 -625 1503 -206 
L 1606 56 
L 191 3500 
L 800 3500 
L 1894 763 
L 2988 3500 
L 3597 3500 
L 2059 -325 
z
" transform="scale(0.015625)"/>
      </defs>
      <use xlink:href="#DejaVuSans-44"/>
      <use xlink:href="#DejaVuSans-65" x="77.001953"/>
      <use xlink:href="#DejaVuSans-6e" x="138.525391"/>
      <use xlink:href="#DejaVuSans-73" x="201.904297"/>
      <use xlink:href="#DejaVuSans-69" x="254.003906"/>
      <use xlink:href="#DejaVuSans-74" x="281.787109"/>
      <use xlink:href="#DejaVuSans-79" x="320.996094"/>
     </g>
    </g>
   </g>
   <g id="line2d_25">
    <path d="M 80.393977 350.544456 
L 82.851391 344.556406 
L 85.308804 337.997125 
L 87.766217 330.88875 
L 90.837984 321.283421 
L 93.909751 310.962779 
L 97.595871 297.793173 
L 102.510697 279.280365 
L 117.869531 220.49383 
L 122.170004 205.217969 
L 125.856124 192.841659 
L 129.542244 181.181966 
L 133.228364 170.252427 
L 136.914484 160.039683 
L 140.600604 150.513121 
L 144.286724 141.633387 
L 147.972844 133.359112 
L 151.658964 125.65169 
L 155.345084 118.47809 
L 159.031204 111.811637 
L 162.717324 105.63066 
L 166.403444 99.915145 
L 170.089564 94.642132 
L 173.775684 89.781267 
L 177.461804 85.292284 
L 181.147924 81.125961 
L 185.448397 76.602236 
L 190.363224 71.785209 
L 195.278051 67.280603 
L 200.192878 63.090215 
L 204.493351 59.736161 
L 208.179471 57.153431 
L 211.251238 55.24749 
L 214.323004 53.595654 
L 217.394771 52.221172 
L 219.852184 51.332977 
L 222.309598 50.639077 
L 224.767011 50.142581 
L 227.224424 49.844086 
L 229.681838 49.741746 
L 232.139251 49.831252 
L 234.596664 50.105733 
L 237.668431 50.694113 
L 240.740198 51.531588 
L 243.811964 52.587036 
L 247.498084 54.0904 
L 251.798558 56.087957 
L 257.942091 59.225828 
L 264.699978 62.921777 
L 270.229158 66.180557 
L 274.529631 68.950168 
L 278.830104 71.989487 
L 283.130578 75.317126 
L 288.045404 79.422647 
L 304.018591 93.074388 
L 308.319064 96.334955 
L 313.233891 99.763073 
L 320.606131 104.552209 
L 326.749664 108.636626 
L 331.050138 111.783057 
L 334.736258 114.765897 
L 338.422378 118.056065 
L 342.108498 121.666509 
L 345.794618 125.586692 
L 350.095091 130.515588 
L 354.395565 135.775246 
L 359.310391 142.124226 
L 364.839571 149.622197 
L 371.597458 159.189636 
L 381.427111 173.561365 
L 392.485471 189.62283 
L 400.472065 200.795498 
L 408.458658 211.589734 
L 417.059605 222.83442 
L 424.431845 232.095773 
L 430.575378 239.455276 
L 436.104558 245.731572 
L 441.019385 250.993255 
L 445.934211 255.93637 
L 450.849038 260.570367 
L 456.378218 265.476497 
L 465.593518 273.283295 
L 474.194465 280.665127 
L 481.566705 287.300705 
L 490.167651 295.377627 
L 499.997305 304.923016 
L 512.898725 317.808302 
L 520.885318 325.665339 
L 526.414498 330.788143 
L 530.714972 334.477563 
L 534.401092 337.384343 
L 538.087212 340.029298 
L 541.773332 342.403017 
L 545.459452 344.511783 
L 549.145572 346.37698 
L 553.446045 348.291305 
L 558.360872 350.219055 
L 565.118758 352.609288 
L 597.679485 363.621033 
L 609.966552 367.368945 
L 629.011505 372.972957 
L 635.769392 374.699344 
L 641.912925 376.026422 
L 648.670812 377.230152 
L 658.500465 378.700959 
L 693.518605 383.631153 
L 694.132959 383.695705 
L 694.132959 383.695705 
" clip-path="url(#pd1614b5790)" style="fill: none; stroke: #ff0000; stroke-width: 1.5; stroke-linecap: square"/>
   </g>
   <g id="line2d_26">
    <path d="M 152.785964 384.95611 
L 195.059441 383.984018 
L 202.325195 383.437766 
L 209.590949 382.655044 
L 217.517226 381.567915 
L 228.085595 379.871508 
L 255.167041 375.201261 
L 262.432795 373.747187 
L 267.71698 372.49065 
L 273.001165 370.998694 
L 277.624826 369.470096 
L 282.909011 367.464963 
L 288.853719 364.928291 
L 299.422088 360.077661 
L 306.027319 357.183301 
L 311.311503 355.11041 
L 316.595688 353.287995 
L 323.861442 351.061268 
L 330.466673 348.982232 
L 334.429811 347.525182 
L 337.732427 346.113967 
L 341.035042 344.485751 
L 344.337658 342.622373 
L 347.640273 340.524053 
L 351.603411 337.72193 
L 356.227073 334.135114 
L 362.171781 329.202514 
L 381.32695 313.093035 
L 389.253227 306.801058 
L 395.858458 301.814512 
L 402.463689 297.116897 
L 409.729443 292.246311 
L 419.637289 285.606698 
L 424.26095 282.20666 
L 428.224089 279.003898 
L 432.187227 275.47467 
L 436.150366 271.593067 
L 440.113504 267.366887 
L 444.737166 262.054062 
L 450.021351 255.603037 
L 458.608151 244.69547 
L 468.515997 232.211579 
L 474.460705 225.093087 
L 479.084366 219.880113 
L 483.047505 215.699455 
L 487.010643 211.820195 
L 490.973782 208.251096 
L 494.93692 204.965919 
L 500.221105 200.90763 
L 510.128951 193.399229 
L 514.09209 190.059182 
L 517.394705 187.002205 
L 520.69732 183.652309 
L 523.999936 179.991036 
L 527.302551 176.02279 
L 531.26569 170.893656 
L 535.889351 164.506874 
L 543.155105 153.996577 
L 551.081382 142.606212 
L 556.365567 135.401128 
L 560.989228 129.444465 
L 566.273413 123.015158 
L 572.878644 115.374899 
L 586.089106 100.204974 
L 593.354859 91.442879 
L 611.188983 69.702307 
L 615.812644 64.554496 
L 619.775783 60.500667 
L 623.078398 57.448892 
L 625.72049 55.262314 
L 628.362583 53.332211 
L 631.004675 51.68203 
L 633.646767 50.328481 
L 636.28886 49.278883 
L 638.930952 48.528925 
L 641.573044 48.061288 
L 644.215137 47.84548 
L 646.857229 47.839132 
L 650.159845 48.046832 
L 656.765075 48.765753 
L 662.04926 49.227059 
L 666.672922 49.39858 
L 676.580768 49.626549 
L 679.22286 49.924228 
L 681.864952 50.43695 
L 684.507045 51.214093 
L 687.149137 52.290305 
L 689.791229 53.682398 
L 692.433322 55.388423 
L 695.075414 57.389007 
L 697.717506 59.650738 
L 701.020122 62.779987 
L 704.98326 66.861516 
L 710.267445 72.650373 
L 716.212153 79.481995 
L 720.835814 85.092324 
L 724.798953 90.240524 
L 728.101568 94.869187 
L 731.404184 99.884098 
L 734.706799 105.347649 
L 738.009414 111.306887 
L 741.31203 117.792586 
L 744.614645 124.820726 
L 747.917261 132.395052 
L 751.219876 140.509518 
L 754.522492 149.149947 
L 758.48563 160.182038 
L 762.448768 171.890399 
L 767.07243 186.321846 
L 771.696092 201.477534 
L 776.980276 219.53453 
L 783.585507 242.9445 
L 801.41963 306.822951 
L 805.382769 319.907248 
L 808.685384 330.099643 
L 811.988 339.496546 
L 812.648523 341.269919 
L 812.648523 341.269919 
" clip-path="url(#pd1614b5790)" style="fill: none; stroke: #0000ff; stroke-width: 1.5; stroke-linecap: square"/>
   </g>
   <g id="line2d_27">
    <path d="M 117.975642 384.21607 
L 125.213104 383.529777 
L 131.792615 382.685635 
L 137.714175 381.716086 
L 143.635734 380.529379 
L 149.557294 379.11275 
L 155.478854 377.44799 
L 160.742463 375.732987 
L 165.34812 374.022696 
L 169.953778 372.089854 
L 174.559435 369.912426 
L 179.165093 367.476668 
L 183.770751 364.778253 
L 188.376408 361.819116 
L 192.982066 358.601696 
L 197.587723 355.12395 
L 202.193381 351.378241 
L 206.799039 347.355004 
L 211.404696 343.04918 
L 216.010354 338.465626 
L 221.273963 332.908056 
L 227.195522 326.290799 
L 233.117082 319.332241 
L 239.038642 312.055717 
L 244.960202 304.445537 
L 250.22381 297.350633 
L 255.487419 289.866712 
L 260.093077 282.92569 
L 264.698734 275.55617 
L 269.304392 267.720382 
L 273.910049 259.416795 
L 279.173658 249.412363 
L 285.753169 236.351566 
L 297.596289 212.700856 
L 302.201946 204.024761 
L 306.149653 197.014955 
L 310.097359 190.447873 
L 314.045066 184.307683 
L 318.650723 177.57727 
L 328.51999 163.759007 
L 334.441549 155.182504 
L 340.363109 146.164675 
L 352.206229 127.92922 
L 356.153935 122.366218 
L 359.443691 118.125194 
L 362.075495 115.038118 
L 364.707299 112.243671 
L 367.339104 109.745872 
L 369.970908 107.53327 
L 372.602713 105.578779 
L 375.892468 103.433555 
L 379.840174 101.148226 
L 387.077636 97.038183 
L 390.367392 94.8886 
L 392.999196 92.938287 
L 395.631001 90.748503 
L 398.262805 88.310058 
L 401.55256 84.936253 
L 405.500267 80.521074 
L 414.711582 70.021618 
L 417.343386 67.364465 
L 419.975191 65.002413 
L 422.606995 62.98527 
L 424.580848 61.714515 
L 426.554702 60.652331 
L 428.528555 59.790303 
L 431.160359 58.922829 
L 433.792164 58.323589 
L 437.081919 57.839712 
L 448.267087 56.471 
L 451.556843 55.735545 
L 455.504549 54.599185 
L 466.031767 51.346816 
L 468.663571 50.850809 
L 471.295376 50.622896 
L 473.269229 50.662902 
L 475.243082 50.905402 
L 477.216935 51.364486 
L 479.190789 52.048851 
L 481.164642 52.96168 
L 483.138495 54.100744 
L 485.112348 55.458717 
L 487.744153 57.588675 
L 490.375957 60.047358 
L 493.007761 62.787005 
L 496.297517 66.526002 
L 500.903174 72.161838 
L 508.798587 82.291298 
L 525.905316 104.578566 
L 531.168924 111.835282 
L 535.774582 118.515949 
L 540.38024 125.559847 
L 544.985897 132.995199 
L 549.591555 140.836055 
L 554.197212 149.085859 
L 559.460821 158.99425 
L 565.382381 170.646301 
L 579.199354 198.129155 
L 583.805011 206.647724 
L 587.752718 213.486906 
L 591.700424 219.88344 
L 595.648131 225.885907 
L 600.91174 233.442454 
L 626.571832 269.525006 
L 641.046756 290.316241 
L 648.284218 300.300348 
L 654.863729 309.017323 
L 661.44324 317.3932 
L 668.022751 325.431877 
L 673.94431 332.327594 
L 679.207919 338.102526 
L 683.813577 342.810611 
L 687.761283 346.551181 
L 691.70899 350.002126 
L 695.656696 353.163972 
L 699.604403 356.053456 
L 704.21006 359.120666 
L 708.815718 361.91871 
L 714.079327 364.866465 
L 720.658837 368.280303 
L 727.238348 371.444371 
L 733.159908 374.044625 
L 738.423517 376.09759 
L 743.029174 377.654324 
L 747.634832 378.972848 
L 752.24049 380.064372 
L 757.504098 381.076642 
L 764.083609 382.0871 
L 772.636973 383.148326 
L 775.268778 383.435919 
L 775.268778 383.435919 
" clip-path="url(#pd1614b5790)" style="fill: none; stroke: #008000; stroke-width: 1.5; stroke-linecap: square"/>
   </g>
   <g id="patch_93">
    <path d="M 43.78125 385.478125 
L 43.78125 22.318125 
" style="fill: none; stroke: #000000; stroke-width: 0.8; stroke-linejoin: miter; stroke-linecap: square"/>
   </g>
   <g id="patch_94">
    <path d="M 849.26125 385.478125 
L 849.26125 22.318125 
" style="fill: none; stroke: #000000; stroke-width: 0.8; stroke-linejoin: miter; stroke-linecap: square"/>
   </g>
   <g id="patch_95">
    <path d="M 43.78125 385.478125 
L 849.26125 385.478125 
" style="fill: none; stroke: #000000; stroke-width: 0.8; stroke-linejoin: miter; stroke-linecap: square"/>
   </g>
   <g id="patch_96">
    <path d="M 43.78125 22.318125 
L 849.26125 22.318125 
" style="fill: none; stroke: #000000; stroke-width: 0.8; stroke-linejoin: miter; stroke-linecap: square"/>
   </g>
   <g id="text_15">
    <!-- Comparison of Skewed Distributions -->
    <g transform="translate(337.799375 16.318125) scale(0.12 -0.12)">
     <defs>
      <path id="DejaVuSans-43" d="M 4122 4306 
L 4122 3641 
Q 3803 3938 3442 4084 
Q 3081 4231 2675 4231 
Q 1875 4231 1450 3742 
Q 1025 3253 1025 2328 
Q 1025 1406 1450 917 
Q 1875 428 2675 428 
Q 3081 428 3442 575 
Q 3803 722 4122 1019 
L 4122 359 
Q 3791 134 3420 21 
Q 3050 -91 2638 -91 
Q 1578 -91 968 557 
Q 359 1206 359 2328 
Q 359 3453 968 4101 
Q 1578 4750 2638 4750 
Q 3056 4750 3426 4639 
Q 3797 4528 4122 4306 
z
" transform="scale(0.015625)"/>
      <path id="DejaVuSans-6f" d="M 1959 3097 
Q 1497 3097 1228 2736 
Q 959 2375 959 1747 
Q 959 1119 1226 758 
Q 1494 397 1959 397 
Q 2419 397 2687 759 
Q 2956 1122 2956 1747 
Q 2956 2369 2687 2733 
Q 2419 3097 1959 3097 
z
M 1959 3584 
Q 2709 3584 3137 3096 
Q 3566 2609 3566 1747 
Q 3566 888 3137 398 
Q 2709 -91 1959 -91 
Q 1206 -91 779 398 
Q 353 888 353 1747 
Q 353 2609 779 3096 
Q 1206 3584 1959 3584 
z
" transform="scale(0.015625)"/>
      <path id="DejaVuSans-6d" d="M 3328 2828 
Q 3544 3216 3844 3400 
Q 4144 3584 4550 3584 
Q 5097 3584 5394 3201 
Q 5691 2819 5691 2113 
L 5691 0 
L 5113 0 
L 5113 2094 
Q 5113 2597 4934 2840 
Q 4756 3084 4391 3084 
Q 3944 3084 3684 2787 
Q 3425 2491 3425 1978 
L 3425 0 
L 2847 0 
L 2847 2094 
Q 2847 2600 2669 2842 
Q 2491 3084 2119 3084 
Q 1678 3084 1418 2786 
Q 1159 2488 1159 1978 
L 1159 0 
L 581 0 
L 581 3500 
L 1159 3500 
L 1159 2956 
Q 1356 3278 1631 3431 
Q 1906 3584 2284 3584 
Q 2666 3584 2933 3390 
Q 3200 3197 3328 2828 
z
" transform="scale(0.015625)"/>
      <path id="DejaVuSans-70" d="M 1159 525 
L 1159 -1331 
L 581 -1331 
L 581 3500 
L 1159 3500 
L 1159 2969 
Q 1341 3281 1617 3432 
Q 1894 3584 2278 3584 
Q 2916 3584 3314 3078 
Q 3713 2572 3713 1747 
Q 3713 922 3314 415 
Q 2916 -91 2278 -91 
Q 1894 -91 1617 61 
Q 1341 213 1159 525 
z
M 3116 1747 
Q 3116 2381 2855 2742 
Q 2594 3103 2138 3103 
Q 1681 3103 1420 2742 
Q 1159 2381 1159 1747 
Q 1159 1113 1420 752 
Q 1681 391 2138 391 
Q 2594 391 2855 752 
Q 3116 1113 3116 1747 
z
" transform="scale(0.015625)"/>
      <path id="DejaVuSans-72" d="M 2631 2963 
Q 2534 3019 2420 3045 
Q 2306 3072 2169 3072 
Q 1681 3072 1420 2755 
Q 1159 2438 1159 1844 
L 1159 0 
L 581 0 
L 581 3500 
L 1159 3500 
L 1159 2956 
Q 1341 3275 1631 3429 
Q 1922 3584 2338 3584 
Q 2397 3584 2469 3576 
Q 2541 3569 2628 3553 
L 2631 2963 
z
" transform="scale(0.015625)"/>
      <path id="DejaVuSans-20" transform="scale(0.015625)"/>
      <path id="DejaVuSans-66" d="M 2375 4863 
L 2375 4384 
L 1825 4384 
Q 1516 4384 1395 4259 
Q 1275 4134 1275 3809 
L 1275 3500 
L 2222 3500 
L 2222 3053 
L 1275 3053 
L 1275 0 
L 697 0 
L 697 3053 
L 147 3053 
L 147 3500 
L 697 3500 
L 697 3744 
Q 697 4328 969 4595 
Q 1241 4863 1831 4863 
L 2375 4863 
z
" transform="scale(0.015625)"/>
      <path id="DejaVuSans-53" d="M 3425 4513 
L 3425 3897 
Q 3066 4069 2747 4153 
Q 2428 4238 2131 4238 
Q 1616 4238 1336 4038 
Q 1056 3838 1056 3469 
Q 1056 3159 1242 3001 
Q 1428 2844 1947 2747 
L 2328 2669 
Q 3034 2534 3370 2195 
Q 3706 1856 3706 1288 
Q 3706 609 3251 259 
Q 2797 -91 1919 -91 
Q 1588 -91 1214 -16 
Q 841 59 441 206 
L 441 856 
Q 825 641 1194 531 
Q 1563 422 1919 422 
Q 2459 422 2753 634 
Q 3047 847 3047 1241 
Q 3047 1584 2836 1778 
Q 2625 1972 2144 2069 
L 1759 2144 
Q 1053 2284 737 2584 
Q 422 2884 422 3419 
Q 422 4038 858 4394 
Q 1294 4750 2059 4750 
Q 2388 4750 2728 4690 
Q 3069 4631 3425 4513 
z
" transform="scale(0.015625)"/>
      <path id="DejaVuSans-6b" d="M 581 4863 
L 1159 4863 
L 1159 1991 
L 2875 3500 
L 3609 3500 
L 1753 1863 
L 3688 0 
L 2938 0 
L 1159 1709 
L 1159 0 
L 581 0 
L 581 4863 
z
" transform="scale(0.015625)"/>
      <path id="DejaVuSans-77" d="M 269 3500 
L 844 3500 
L 1563 769 
L 2278 3500 
L 2956 3500 
L 3675 769 
L 4391 3500 
L 4966 3500 
L 4050 0 
L 3372 0 
L 2619 2869 
L 1863 0 
L 1184 0 
L 269 3500 
z
" transform="scale(0.015625)"/>
      <path id="DejaVuSans-64" d="M 2906 2969 
L 2906 4863 
L 3481 4863 
L 3481 0 
L 2906 0 
L 2906 525 
Q 2725 213 2448 61 
Q 2172 -91 1784 -91 
Q 1150 -91 751 415 
Q 353 922 353 1747 
Q 353 2572 751 3078 
Q 1150 3584 1784 3584 
Q 2172 3584 2448 3432 
Q 2725 3281 2906 2969 
z
M 947 1747 
Q 947 1113 1208 752 
Q 1469 391 1925 391 
Q 2381 391 2643 752 
Q 2906 1113 2906 1747 
Q 2906 2381 2643 2742 
Q 2381 3103 1925 3103 
Q 1469 3103 1208 2742 
Q 947 2381 947 1747 
z
" transform="scale(0.015625)"/>
      <path id="DejaVuSans-62" d="M 3116 1747 
Q 3116 2381 2855 2742 
Q 2594 3103 2138 3103 
Q 1681 3103 1420 2742 
Q 1159 2381 1159 1747 
Q 1159 1113 1420 752 
Q 1681 391 2138 391 
Q 2594 391 2855 752 
Q 3116 1113 3116 1747 
z
M 1159 2969 
Q 1341 3281 1617 3432 
Q 1894 3584 2278 3584 
Q 2916 3584 3314 3078 
Q 3713 2572 3713 1747 
Q 3713 922 3314 415 
Q 2916 -91 2278 -91 
Q 1894 -91 1617 61 
Q 1341 213 1159 525 
L 1159 0 
L 581 0 
L 581 4863 
L 1159 4863 
L 1159 2969 
z
" transform="scale(0.015625)"/>
     </defs>
     <use xlink:href="#DejaVuSans-43"/>
     <use xlink:href="#DejaVuSans-6f" x="69.824219"/>
     <use xlink:href="#DejaVuSans-6d" x="131.005859"/>
     <use xlink:href="#DejaVuSans-70" x="228.417969"/>
     <use xlink:href="#DejaVuSans-61" x="291.894531"/>
     <use xlink:href="#DejaVuSans-72" x="353.173828"/>
     <use xlink:href="#DejaVuSans-69" x="394.287109"/>
     <use xlink:href="#DejaVuSans-73" x="422.070312"/>
     <use xlink:href="#DejaVuSans-6f" x="474.169922"/>
     <use xlink:href="#DejaVuSans-6e" x="535.351562"/>
     <use xlink:href="#DejaVuSans-20" x="598.730469"/>
     <use xlink:href="#DejaVuSans-6f" x="630.517578"/>
     <use xlink:href="#DejaVuSans-66" x="691.699219"/>
     <use xlink:href="#DejaVuSans-20" x="726.904297"/>
     <use xlink:href="#DejaVuSans-53" x="758.691406"/>
     <use xlink:href="#DejaVuSans-6b" x="822.167969"/>
     <use xlink:href="#DejaVuSans-65" x="876.453125"/>
     <use xlink:href="#DejaVuSans-77" x="937.976562"/>
     <use xlink:href="#DejaVuSans-65" x="1019.763672"/>
     <use xlink:href="#DejaVuSans-64" x="1081.287109"/>
     <use xlink:href="#DejaVuSans-20" x="1144.763672"/>
     <use xlink:href="#DejaVuSans-44" x="1176.550781"/>
     <use xlink:href="#DejaVuSans-69" x="1253.552734"/>
     <use xlink:href="#DejaVuSans-73" x="1281.335938"/>
     <use xlink:href="#DejaVuSans-74" x="1333.435547"/>
     <use xlink:href="#DejaVuSans-72" x="1372.644531"/>
     <use xlink:href="#DejaVuSans-69" x="1413.757812"/>
     <use xlink:href="#DejaVuSans-62" x="1441.541016"/>
     <use xlink:href="#DejaVuSans-75" x="1505.017578"/>
     <use xlink:href="#DejaVuSans-74" x="1568.396484"/>
     <use xlink:href="#DejaVuSans-69" x="1607.605469"/>
     <use xlink:href="#DejaVuSans-6f" x="1635.388672"/>
     <use xlink:href="#DejaVuSans-6e" x="1696.570312"/>
     <use xlink:href="#DejaVuSans-73" x="1759.949219"/>
    </g>
   </g>
   <g id="legend_1">
    <g id="patch_97">
     <path d="M 642.501875 244.212031 
L 842.26125 244.212031 
Q 844.26125 244.212031 844.26125 242.212031 
L 844.26125 165.584219 
Q 844.26125 163.584219 842.26125 163.584219 
L 642.501875 163.584219 
Q 640.501875 163.584219 640.501875 165.584219 
L 640.501875 242.212031 
Q 640.501875 244.212031 642.501875 244.212031 
z
" style="fill: #ffffff; opacity: 0.8; stroke: #cccccc; stroke-linejoin: miter"/>
    </g>
    <g id="line2d_28">
     <path d="M 644.501875 178.321406 
L 654.501875 178.321406 
L 664.501875 178.321406 
" style="fill: none; stroke: #ff0000; stroke-width: 1.5; stroke-linecap: square"/>
    </g>
    <g id="text_16">
     <!-- Positive Skewness -->
     <g transform="translate(672.501875 175.182656) scale(0.1 -0.1)">
      <defs>
       <path id="DejaVuSans-50" d="M 1259 4147 
L 1259 2394 
L 2053 2394 
Q 2494 2394 2734 2622 
Q 2975 2850 2975 3272 
Q 2975 3691 2734 3919 
Q 2494 4147 2053 4147 
L 1259 4147 
z
M 628 4666 
L 2053 4666 
Q 2838 4666 3239 4311 
Q 3641 3956 3641 3272 
Q 3641 2581 3239 2228 
Q 2838 1875 2053 1875 
L 1259 1875 
L 1259 0 
L 628 0 
L 628 4666 
z
" transform="scale(0.015625)"/>
       <path id="DejaVuSans-76" d="M 191 3500 
L 800 3500 
L 1894 563 
L 2988 3500 
L 3597 3500 
L 2284 0 
L 1503 0 
L 191 3500 
z
" transform="scale(0.015625)"/>
      </defs>
      <use xlink:href="#DejaVuSans-50"/>
      <use xlink:href="#DejaVuSans-6f" x="56.677734"/>
      <use xlink:href="#DejaVuSans-73" x="117.859375"/>
      <use xlink:href="#DejaVuSans-69" x="169.958984"/>
      <use xlink:href="#DejaVuSans-74" x="197.742188"/>
      <use xlink:href="#DejaVuSans-69" x="236.951172"/>
      <use xlink:href="#DejaVuSans-76" x="264.734375"/>
      <use xlink:href="#DejaVuSans-65" x="323.914062"/>
      <use xlink:href="#DejaVuSans-20" x="385.4375"/>
      <use xlink:href="#DejaVuSans-53" x="417.224609"/>
      <use xlink:href="#DejaVuSans-6b" x="480.701172"/>
      <use xlink:href="#DejaVuSans-65" x="534.986328"/>
      <use xlink:href="#DejaVuSans-77" x="596.509766"/>
      <use xlink:href="#DejaVuSans-6e" x="678.296875"/>
      <use xlink:href="#DejaVuSans-65" x="741.675781"/>
      <use xlink:href="#DejaVuSans-73" x="803.199219"/>
      <use xlink:href="#DejaVuSans-73" x="855.298828"/>
     </g>
     <!-- (Skewness: 0.56, Kurtosis: -0.17) -->
     <g transform="translate(672.501875 186.380469) scale(0.1 -0.1)">
      <defs>
       <path id="DejaVuSans-28" d="M 1984 4856 
Q 1566 4138 1362 3434 
Q 1159 2731 1159 2009 
Q 1159 1288 1364 580 
Q 1569 -128 1984 -844 
L 1484 -844 
Q 1016 -109 783 600 
Q 550 1309 550 2009 
Q 550 2706 781 3412 
Q 1013 4119 1484 4856 
L 1984 4856 
z
" transform="scale(0.015625)"/>
       <path id="DejaVuSans-3a" d="M 750 794 
L 1409 794 
L 1409 0 
L 750 0 
L 750 794 
z
M 750 3309 
L 1409 3309 
L 1409 2516 
L 750 2516 
L 750 3309 
z
" transform="scale(0.015625)"/>
       <path id="DejaVuSans-2c" d="M 750 794 
L 1409 794 
L 1409 256 
L 897 -744 
L 494 -744 
L 750 256 
L 750 794 
z
" transform="scale(0.015625)"/>
       <path id="DejaVuSans-4b" d="M 628 4666 
L 1259 4666 
L 1259 2694 
L 3353 4666 
L 4166 4666 
L 1850 2491 
L 4331 0 
L 3500 0 
L 1259 2247 
L 1259 0 
L 628 0 
L 628 4666 
z
" transform="scale(0.015625)"/>
       <path id="DejaVuSans-2d" d="M 313 2009 
L 1997 2009 
L 1997 1497 
L 313 1497 
L 313 2009 
z
" transform="scale(0.015625)"/>
       <path id="DejaVuSans-37" d="M 525 4666 
L 3525 4666 
L 3525 4397 
L 1831 0 
L 1172 0 
L 2766 4134 
L 525 4134 
L 525 4666 
z
" transform="scale(0.015625)"/>
       <path id="DejaVuSans-29" d="M 513 4856 
L 1013 4856 
Q 1481 4119 1714 3412 
Q 1947 2706 1947 2009 
Q 1947 1309 1714 600 
Q 1481 -109 1013 -844 
L 513 -844 
Q 928 -128 1133 580 
Q 1338 1288 1338 2009 
Q 1338 2731 1133 3434 
Q 928 4138 513 4856 
z
" transform="scale(0.015625)"/>
      </defs>
      <use xlink:href="#DejaVuSans-28"/>
      <use xlink:href="#DejaVuSans-53" x="39.013672"/>
      <use xlink:href="#DejaVuSans-6b" x="102.490234"/>
      <use xlink:href="#DejaVuSans-65" x="156.775391"/>
      <use xlink:href="#DejaVuSans-77" x="218.298828"/>
      <use xlink:href="#DejaVuSans-6e" x="300.085938"/>
      <use xlink:href="#DejaVuSans-65" x="363.464844"/>
      <use xlink:href="#DejaVuSans-73" x="424.988281"/>
      <use xlink:href="#DejaVuSans-73" x="477.087891"/>
      <use xlink:href="#DejaVuSans-3a" x="529.1875"/>
      <use xlink:href="#DejaVuSans-20" x="562.878906"/>
      <use xlink:href="#DejaVuSans-30" x="594.666016"/>
      <use xlink:href="#DejaVuSans-2e" x="658.289062"/>
      <use xlink:href="#DejaVuSans-35" x="690.076172"/>
      <use xlink:href="#DejaVuSans-36" x="753.699219"/>
      <use xlink:href="#DejaVuSans-2c" x="817.322266"/>
      <use xlink:href="#DejaVuSans-20" x="849.109375"/>
      <use xlink:href="#DejaVuSans-4b" x="880.896484"/>
      <use xlink:href="#DejaVuSans-75" x="941.472656"/>
      <use xlink:href="#DejaVuSans-72" x="1004.851562"/>
      <use xlink:href="#DejaVuSans-74" x="1045.964844"/>
      <use xlink:href="#DejaVuSans-6f" x="1085.173828"/>
      <use xlink:href="#DejaVuSans-73" x="1146.355469"/>
      <use xlink:href="#DejaVuSans-69" x="1198.455078"/>
      <use xlink:href="#DejaVuSans-73" x="1226.238281"/>
      <use xlink:href="#DejaVuSans-3a" x="1278.337891"/>
      <use xlink:href="#DejaVuSans-20" x="1312.029297"/>
      <use xlink:href="#DejaVuSans-2d" x="1343.816406"/>
      <use xlink:href="#DejaVuSans-30" x="1379.900391"/>
      <use xlink:href="#DejaVuSans-2e" x="1443.523438"/>
      <use xlink:href="#DejaVuSans-31" x="1475.310547"/>
      <use xlink:href="#DejaVuSans-37" x="1538.933594"/>
      <use xlink:href="#DejaVuSans-29" x="1602.556641"/>
     </g>
    </g>
    <g id="line2d_29">
     <path d="M 644.501875 204.197344 
L 654.501875 204.197344 
L 664.501875 204.197344 
" style="fill: none; stroke: #0000ff; stroke-width: 1.5; stroke-linecap: square"/>
    </g>
    <g id="text_17">
     <!-- Negative Skewness -->
     <g transform="translate(672.501875 201.058594) scale(0.1 -0.1)">
      <defs>
       <path id="DejaVuSans-4e" d="M 628 4666 
L 1478 4666 
L 3547 763 
L 3547 4666 
L 4159 4666 
L 4159 0 
L 3309 0 
L 1241 3903 
L 1241 0 
L 628 0 
L 628 4666 
z
" transform="scale(0.015625)"/>
       <path id="DejaVuSans-67" d="M 2906 1791 
Q 2906 2416 2648 2759 
Q 2391 3103 1925 3103 
Q 1463 3103 1205 2759 
Q 947 2416 947 1791 
Q 947 1169 1205 825 
Q 1463 481 1925 481 
Q 2391 481 2648 825 
Q 2906 1169 2906 1791 
z
M 3481 434 
Q 3481 -459 3084 -895 
Q 2688 -1331 1869 -1331 
Q 1566 -1331 1297 -1286 
Q 1028 -1241 775 -1147 
L 775 -588 
Q 1028 -725 1275 -790 
Q 1522 -856 1778 -856 
Q 2344 -856 2625 -561 
Q 2906 -266 2906 331 
L 2906 616 
Q 2728 306 2450 153 
Q 2172 0 1784 0 
Q 1141 0 747 490 
Q 353 981 353 1791 
Q 353 2603 747 3093 
Q 1141 3584 1784 3584 
Q 2172 3584 2450 3431 
Q 2728 3278 2906 2969 
L 2906 3500 
L 3481 3500 
L 3481 434 
z
" transform="scale(0.015625)"/>
      </defs>
      <use xlink:href="#DejaVuSans-4e"/>
      <use xlink:href="#DejaVuSans-65" x="74.804688"/>
      <use xlink:href="#DejaVuSans-67" x="136.328125"/>
      <use xlink:href="#DejaVuSans-61" x="199.804688"/>
      <use xlink:href="#DejaVuSans-74" x="261.083984"/>
      <use xlink:href="#DejaVuSans-69" x="300.292969"/>
      <use xlink:href="#DejaVuSans-76" x="328.076172"/>
      <use xlink:href="#DejaVuSans-65" x="387.255859"/>
      <use xlink:href="#DejaVuSans-20" x="448.779297"/>
      <use xlink:href="#DejaVuSans-53" x="480.566406"/>
      <use xlink:href="#DejaVuSans-6b" x="544.042969"/>
      <use xlink:href="#DejaVuSans-65" x="598.328125"/>
      <use xlink:href="#DejaVuSans-77" x="659.851562"/>
      <use xlink:href="#DejaVuSans-6e" x="741.638672"/>
      <use xlink:href="#DejaVuSans-65" x="805.017578"/>
      <use xlink:href="#DejaVuSans-73" x="866.541016"/>
      <use xlink:href="#DejaVuSans-73" x="918.640625"/>
     </g>
     <!-- (Skewness: -0.60, Kurtosis: -0.13) -->
     <g transform="translate(672.501875 212.256406) scale(0.1 -0.1)">
      <defs>
       <path id="DejaVuSans-33" d="M 2597 2516 
Q 3050 2419 3304 2112 
Q 3559 1806 3559 1356 
Q 3559 666 3084 287 
Q 2609 -91 1734 -91 
Q 1441 -91 1130 -33 
Q 819 25 488 141 
L 488 750 
Q 750 597 1062 519 
Q 1375 441 1716 441 
Q 2309 441 2620 675 
Q 2931 909 2931 1356 
Q 2931 1769 2642 2001 
Q 2353 2234 1838 2234 
L 1294 2234 
L 1294 2753 
L 1863 2753 
Q 2328 2753 2575 2939 
Q 2822 3125 2822 3475 
Q 2822 3834 2567 4026 
Q 2313 4219 1838 4219 
Q 1578 4219 1281 4162 
Q 984 4106 628 3988 
L 628 4550 
Q 988 4650 1302 4700 
Q 1616 4750 1894 4750 
Q 2613 4750 3031 4423 
Q 3450 4097 3450 3541 
Q 3450 3153 3228 2886 
Q 3006 2619 2597 2516 
z
" transform="scale(0.015625)"/>
      </defs>
      <use xlink:href="#DejaVuSans-28"/>
      <use xlink:href="#DejaVuSans-53" x="39.013672"/>
      <use xlink:href="#DejaVuSans-6b" x="102.490234"/>
      <use xlink:href="#DejaVuSans-65" x="156.775391"/>
      <use xlink:href="#DejaVuSans-77" x="218.298828"/>
      <use xlink:href="#DejaVuSans-6e" x="300.085938"/>
      <use xlink:href="#DejaVuSans-65" x="363.464844"/>
      <use xlink:href="#DejaVuSans-73" x="424.988281"/>
      <use xlink:href="#DejaVuSans-73" x="477.087891"/>
      <use xlink:href="#DejaVuSans-3a" x="529.1875"/>
      <use xlink:href="#DejaVuSans-20" x="562.878906"/>
      <use xlink:href="#DejaVuSans-2d" x="594.666016"/>
      <use xlink:href="#DejaVuSans-30" x="630.75"/>
      <use xlink:href="#DejaVuSans-2e" x="694.373047"/>
      <use xlink:href="#DejaVuSans-36" x="726.160156"/>
      <use xlink:href="#DejaVuSans-30" x="789.783203"/>
      <use xlink:href="#DejaVuSans-2c" x="853.40625"/>
      <use xlink:href="#DejaVuSans-20" x="885.193359"/>
      <use xlink:href="#DejaVuSans-4b" x="916.980469"/>
      <use xlink:href="#DejaVuSans-75" x="977.556641"/>
      <use xlink:href="#DejaVuSans-72" x="1040.935547"/>
      <use xlink:href="#DejaVuSans-74" x="1082.048828"/>
      <use xlink:href="#DejaVuSans-6f" x="1121.257812"/>
      <use xlink:href="#DejaVuSans-73" x="1182.439453"/>
      <use xlink:href="#DejaVuSans-69" x="1234.539062"/>
      <use xlink:href="#DejaVuSans-73" x="1262.322266"/>
      <use xlink:href="#DejaVuSans-3a" x="1314.421875"/>
      <use xlink:href="#DejaVuSans-20" x="1348.113281"/>
      <use xlink:href="#DejaVuSans-2d" x="1379.900391"/>
      <use xlink:href="#DejaVuSans-30" x="1415.984375"/>
      <use xlink:href="#DejaVuSans-2e" x="1479.607422"/>
      <use xlink:href="#DejaVuSans-31" x="1511.394531"/>
      <use xlink:href="#DejaVuSans-33" x="1575.017578"/>
      <use xlink:href="#DejaVuSans-29" x="1638.640625"/>
     </g>
    </g>
    <g id="line2d_30">
     <path d="M 644.501875 230.073281 
L 654.501875 230.073281 
L 664.501875 230.073281 
" style="fill: none; stroke: #008000; stroke-width: 1.5; stroke-linecap: square"/>
    </g>
    <g id="text_18">
     <!-- Symmetric (No Skewness) -->
     <g transform="translate(672.501875 226.934531) scale(0.1 -0.1)">
      <defs>
       <path id="DejaVuSans-63" d="M 3122 3366 
L 3122 2828 
Q 2878 2963 2633 3030 
Q 2388 3097 2138 3097 
Q 1578 3097 1268 2742 
Q 959 2388 959 1747 
Q 959 1106 1268 751 
Q 1578 397 2138 397 
Q 2388 397 2633 464 
Q 2878 531 3122 666 
L 3122 134 
Q 2881 22 2623 -34 
Q 2366 -91 2075 -91 
Q 1284 -91 818 406 
Q 353 903 353 1747 
Q 353 2603 823 3093 
Q 1294 3584 2113 3584 
Q 2378 3584 2631 3529 
Q 2884 3475 3122 3366 
z
" transform="scale(0.015625)"/>
      </defs>
      <use xlink:href="#DejaVuSans-53"/>
      <use xlink:href="#DejaVuSans-79" x="63.476562"/>
      <use xlink:href="#DejaVuSans-6d" x="122.65625"/>
      <use xlink:href="#DejaVuSans-6d" x="220.068359"/>
      <use xlink:href="#DejaVuSans-65" x="317.480469"/>
      <use xlink:href="#DejaVuSans-74" x="379.003906"/>
      <use xlink:href="#DejaVuSans-72" x="418.212891"/>
      <use xlink:href="#DejaVuSans-69" x="459.326172"/>
      <use xlink:href="#DejaVuSans-63" x="487.109375"/>
      <use xlink:href="#DejaVuSans-20" x="542.089844"/>
      <use xlink:href="#DejaVuSans-28" x="573.876953"/>
      <use xlink:href="#DejaVuSans-4e" x="612.890625"/>
      <use xlink:href="#DejaVuSans-6f" x="687.695312"/>
      <use xlink:href="#DejaVuSans-20" x="748.876953"/>
      <use xlink:href="#DejaVuSans-53" x="780.664062"/>
      <use xlink:href="#DejaVuSans-6b" x="844.140625"/>
      <use xlink:href="#DejaVuSans-65" x="898.425781"/>
      <use xlink:href="#DejaVuSans-77" x="959.949219"/>
      <use xlink:href="#DejaVuSans-6e" x="1041.736328"/>
      <use xlink:href="#DejaVuSans-65" x="1105.115234"/>
      <use xlink:href="#DejaVuSans-73" x="1166.638672"/>
      <use xlink:href="#DejaVuSans-73" x="1218.738281"/>
      <use xlink:href="#DejaVuSans-29" x="1270.837891"/>
     </g>
     <!-- (Skewness: 0.01, Kurtosis: -0.45) -->
     <g transform="translate(672.501875 238.132344) scale(0.1 -0.1)">
      <use xlink:href="#DejaVuSans-28"/>
      <use xlink:href="#DejaVuSans-53" x="39.013672"/>
      <use xlink:href="#DejaVuSans-6b" x="102.490234"/>
      <use xlink:href="#DejaVuSans-65" x="156.775391"/>
      <use xlink:href="#DejaVuSans-77" x="218.298828"/>
      <use xlink:href="#DejaVuSans-6e" x="300.085938"/>
      <use xlink:href="#DejaVuSans-65" x="363.464844"/>
      <use xlink:href="#DejaVuSans-73" x="424.988281"/>
      <use xlink:href="#DejaVuSans-73" x="477.087891"/>
      <use xlink:href="#DejaVuSans-3a" x="529.1875"/>
      <use xlink:href="#DejaVuSans-20" x="562.878906"/>
      <use xlink:href="#DejaVuSans-30" x="594.666016"/>
      <use xlink:href="#DejaVuSans-2e" x="658.289062"/>
      <use xlink:href="#DejaVuSans-30" x="690.076172"/>
      <use xlink:href="#DejaVuSans-31" x="753.699219"/>
      <use xlink:href="#DejaVuSans-2c" x="817.322266"/>
      <use xlink:href="#DejaVuSans-20" x="849.109375"/>
      <use xlink:href="#DejaVuSans-4b" x="880.896484"/>
      <use xlink:href="#DejaVuSans-75" x="941.472656"/>
      <use xlink:href="#DejaVuSans-72" x="1004.851562"/>
      <use xlink:href="#DejaVuSans-74" x="1045.964844"/>
      <use xlink:href="#DejaVuSans-6f" x="1085.173828"/>
      <use xlink:href="#DejaVuSans-73" x="1146.355469"/>
      <use xlink:href="#DejaVuSans-69" x="1198.455078"/>
      <use xlink:href="#DejaVuSans-73" x="1226.238281"/>
      <use xlink:href="#DejaVuSans-3a" x="1278.337891"/>
      <use xlink:href="#DejaVuSans-20" x="1312.029297"/>
      <use xlink:href="#DejaVuSans-2d" x="1343.816406"/>
      <use xlink:href="#DejaVuSans-30" x="1379.900391"/>
      <use xlink:href="#DejaVuSans-2e" x="1443.523438"/>
      <use xlink:href="#DejaVuSans-34" x="1475.310547"/>
      <use xlink:href="#DejaVuSans-35" x="1538.933594"/>
      <use xlink:href="#DejaVuSans-29" x="1602.556641"/>
     </g>
    </g>
   </g>
  </g>
 </g>
 <defs>
  <clipPath id="pd1614b5790">
   <rect x="43.78125" y="22.318125" width="805.48" height="363.16"/>
  </clipPath>
 </defs>
</svg>