<?xml version="1.0" encoding="utf-8" standalone="no"?>
<!DOCTYPE svg PUBLIC "-//W3C//DTD SVG 1.1//EN"
  "http://www.w3.org/Graphics/SVG/1.1/DTD/svg11.dtd">
<svg xmlns:xlink="http://www.w3.org/1999/xlink" width="856.863125pt" height="496.398125pt" viewBox="0 0 856.863125 496.398125" xmlns="http://www.w3.org/2000/svg" version="1.1">
 <metadata>
  <rdf:RDF xmlns:dc="http://purl.org/dc/elements/1.1/" xmlns:cc="http://creativecommons.org/ns#" xmlns:rdf="http://www.w3.org/1999/02/22-rdf-syntax-ns#">
   <cc:Work>
    <dc:type rdf:resource="http://purl.org/dc/dcmitype/StillImage"/>
    <dc:date>2024-09-20T13:28:03.472542</dc:date>
    <dc:format>image/svg+xml</dc:format>
    <dc:creator>
     <cc:Agent>
      <dc:title>Matplotlib v3.9.0, https://matplotlib.org/</dc:title>
     </cc:Agent>
    </dc:creator>
   </cc:Work>
  </rdf:RDF>
 </metadata>
 <defs>
  <style type="text/css">*{stroke-linejoin: round; stroke-linecap: butt}</style>
 </defs>
 <g id="figure_1">
  <g id="patch_1">
   <path d="M 0 496.398125 
L 856.863125 496.398125 
L 856.863125 0 
L 0 0 
z
" style="fill: #ffffff"/>
  </g>
  <g id="axes_1">
   <g id="patch_2">
    <path d="M 30.103125 472.52 
L 849.663125 472.52 
L 849.663125 7.2 
L 30.103125 7.2 
z
" style="fill: #ffffff"/>
   </g>
   <g id="matplotlib.axis_1">
    <g id="xtick_1">
     <g id="line2d_1">
      <defs>
       <path id="mccfb91ab4d" d="M 0 0 
L 0 3.5 
" style="stroke: #000000; stroke-width: 0.8"/>
      </defs>
      <g>
       <use xlink:href="#mccfb91ab4d" x="185.652302" y="472.52" style="stroke: #000000; stroke-width: 0.8"/>
      </g>
     </g>
     <g id="text_1">
      <!-- 0.2 -->
      <g transform="translate(177.70074 487.118438) scale(0.1 -0.1)">
       <defs>
        <path id="DejaVuSans-30" d="M 2034 4250 
Q 1547 4250 1301 3770 
Q 1056 3291 1056 2328 
Q 1056 1369 1301 889 
Q 1547 409 2034 409 
Q 2525 409 2770 889 
Q 3016 1369 3016 2328 
Q 3016 3291 2770 3770 
Q 2525 4250 2034 4250 
z
M 2034 4750 
Q 2819 4750 3233 4129 
Q 3647 3509 3647 2328 
Q 3647 1150 3233 529 
Q 2819 -91 2034 -91 
Q 1250 -91 836 529 
Q 422 1150 422 2328 
Q 422 3509 836 4129 
Q 1250 4750 2034 4750 
z
" transform="scale(0.015625)"/>
        <path id="DejaVuSans-2e" d="M 684 794 
L 1344 794 
L 1344 0 
L 684 0 
L 684 794 
z
" transform="scale(0.015625)"/>
        <path id="DejaVuSans-32" d="M 1228 531 
L 3431 531 
L 3431 0 
L 469 0 
L 469 531 
Q 828 903 1448 1529 
Q 2069 2156 2228 2338 
Q 2531 2678 2651 2914 
Q 2772 3150 2772 3378 
Q 2772 3750 2511 3984 
Q 2250 4219 1831 4219 
Q 1534 4219 1204 4116 
Q 875 4013 500 3803 
L 500 4441 
Q 881 4594 1212 4672 
Q 1544 4750 1819 4750 
Q 2544 4750 2975 4387 
Q 3406 4025 3406 3419 
Q 3406 3131 3298 2873 
Q 3191 2616 2906 2266 
Q 2828 2175 2409 1742 
Q 1991 1309 1228 531 
z
" transform="scale(0.015625)"/>
       </defs>
       <use xlink:href="#DejaVuSans-30"/>
       <use xlink:href="#DejaVuSans-2e" x="63.623047"/>
       <use xlink:href="#DejaVuSans-32" x="95.410156"/>
      </g>
     </g>
    </g>
    <g id="xtick_2">
     <g id="line2d_2">
      <g>
       <use xlink:href="#mccfb91ab4d" x="357.999281" y="472.52" style="stroke: #000000; stroke-width: 0.8"/>
      </g>
     </g>
     <g id="text_2">
      <!-- 0.4 -->
      <g transform="translate(350.047718 487.118438) scale(0.1 -0.1)">
       <defs>
        <path id="DejaVuSans-34" d="M 2419 4116 
L 825 1625 
L 2419 1625 
L 2419 4116 
z
M 2253 4666 
L 3047 4666 
L 3047 1625 
L 3713 1625 
L 3713 1100 
L 3047 1100 
L 3047 0 
L 2419 0 
L 2419 1100 
L 313 1100 
L 313 1709 
L 2253 4666 
z
" transform="scale(0.015625)"/>
       </defs>
       <use xlink:href="#DejaVuSans-30"/>
       <use xlink:href="#DejaVuSans-2e" x="63.623047"/>
       <use xlink:href="#DejaVuSans-34" x="95.410156"/>
      </g>
     </g>
    </g>
    <g id="xtick_3">
     <g id="line2d_3">
      <g>
       <use xlink:href="#mccfb91ab4d" x="530.346259" y="472.52" style="stroke: #000000; stroke-width: 0.8"/>
      </g>
     </g>
     <g id="text_3">
      <!-- 0.6 -->
      <g transform="translate(522.394697 487.118438) scale(0.1 -0.1)">
       <defs>
        <path id="DejaVuSans-36" d="M 2113 2584 
Q 1688 2584 1439 2293 
Q 1191 2003 1191 1497 
Q 1191 994 1439 701 
Q 1688 409 2113 409 
Q 2538 409 2786 701 
Q 3034 994 3034 1497 
Q 3034 2003 2786 2293 
Q 2538 2584 2113 2584 
z
M 3366 4563 
L 3366 3988 
Q 3128 4100 2886 4159 
Q 2644 4219 2406 4219 
Q 1781 4219 1451 3797 
Q 1122 3375 1075 2522 
Q 1259 2794 1537 2939 
Q 1816 3084 2150 3084 
Q 2853 3084 3261 2657 
Q 3669 2231 3669 1497 
Q 3669 778 3244 343 
Q 2819 -91 2113 -91 
Q 1303 -91 875 529 
Q 447 1150 447 2328 
Q 447 3434 972 4092 
Q 1497 4750 2381 4750 
Q 2619 4750 2861 4703 
Q 3103 4656 3366 4563 
z
" transform="scale(0.015625)"/>
       </defs>
       <use xlink:href="#DejaVuSans-30"/>
       <use xlink:href="#DejaVuSans-2e" x="63.623047"/>
       <use xlink:href="#DejaVuSans-36" x="95.410156"/>
      </g>
     </g>
    </g>
    <g id="xtick_4">
     <g id="line2d_4">
      <g>
       <use xlink:href="#mccfb91ab4d" x="702.693238" y="472.52" style="stroke: #000000; stroke-width: 0.8"/>
      </g>
     </g>
     <g id="text_4">
      <!-- 0.8 -->
      <g transform="translate(694.741675 487.118438) scale(0.1 -0.1)">
       <defs>
        <path id="DejaVuSans-38" d="M 2034 2216 
Q 1584 2216 1326 1975 
Q 1069 1734 1069 1313 
Q 1069 891 1326 650 
Q 1584 409 2034 409 
Q 2484 409 2743 651 
Q 3003 894 3003 1313 
Q 3003 1734 2745 1975 
Q 2488 2216 2034 2216 
z
M 1403 2484 
Q 997 2584 770 2862 
Q 544 3141 544 3541 
Q 544 4100 942 4425 
Q 1341 4750 2034 4750 
Q 2731 4750 3128 4425 
Q 3525 4100 3525 3541 
Q 3525 3141 3298 2862 
Q 3072 2584 2669 2484 
Q 3125 2378 3379 2068 
Q 3634 1759 3634 1313 
Q 3634 634 3220 271 
Q 2806 -91 2034 -91 
Q 1263 -91 848 271 
Q 434 634 434 1313 
Q 434 1759 690 2068 
Q 947 2378 1403 2484 
z
M 1172 3481 
Q 1172 3119 1398 2916 
Q 1625 2713 2034 2713 
Q 2441 2713 2670 2916 
Q 2900 3119 2900 3481 
Q 2900 3844 2670 4047 
Q 2441 4250 2034 4250 
Q 1625 4250 1398 4047 
Q 1172 3844 1172 3481 
z
" transform="scale(0.015625)"/>
       </defs>
       <use xlink:href="#DejaVuSans-30"/>
       <use xlink:href="#DejaVuSans-2e" x="63.623047"/>
       <use xlink:href="#DejaVuSans-38" x="95.410156"/>
      </g>
     </g>
    </g>
   </g>
   <g id="matplotlib.axis_2">
    <g id="ytick_1">
     <g id="line2d_5">
      <defs>
       <path id="ma0a7529023" d="M 0 0 
L -3.5 0 
" style="stroke: #000000; stroke-width: 0.8"/>
      </defs>
      <g>
       <use xlink:href="#ma0a7529023" x="30.103125" y="408.234164" style="stroke: #000000; stroke-width: 0.8"/>
      </g>
     </g>
     <g id="text_5">
      <!-- 0.3 -->
      <g transform="translate(7.2 412.033383) scale(0.1 -0.1)">
       <defs>
        <path id="DejaVuSans-33" d="M 2597 2516 
Q 3050 2419 3304 2112 
Q 3559 1806 3559 1356 
Q 3559 666 3084 287 
Q 2609 -91 1734 -91 
Q 1441 -91 1130 -33 
Q 819 25 488 141 
L 488 750 
Q 750 597 1062 519 
Q 1375 441 1716 441 
Q 2309 441 2620 675 
Q 2931 909 2931 1356 
Q 2931 1769 2642 2001 
Q 2353 2234 1838 2234 
L 1294 2234 
L 1294 2753 
L 1863 2753 
Q 2328 2753 2575 2939 
Q 2822 3125 2822 3475 
Q 2822 3834 2567 4026 
Q 2313 4219 1838 4219 
Q 1578 4219 1281 4162 
Q 984 4106 628 3988 
L 628 4550 
Q 988 4650 1302 4700 
Q 1616 4750 1894 4750 
Q 2613 4750 3031 4423 
Q 3450 4097 3450 3541 
Q 3450 3153 3228 2886 
Q 3006 2619 2597 2516 
z
" transform="scale(0.015625)"/>
       </defs>
       <use xlink:href="#DejaVuSans-30"/>
       <use xlink:href="#DejaVuSans-2e" x="63.623047"/>
       <use xlink:href="#DejaVuSans-33" x="95.410156"/>
      </g>
     </g>
    </g>
    <g id="ytick_2">
     <g id="line2d_6">
      <g>
       <use xlink:href="#ma0a7529023" x="30.103125" y="324.044827" style="stroke: #000000; stroke-width: 0.8"/>
      </g>
     </g>
     <g id="text_6">
      <!-- 0.4 -->
      <g transform="translate(7.2 327.844045) scale(0.1 -0.1)">
       <use xlink:href="#DejaVuSans-30"/>
       <use xlink:href="#DejaVuSans-2e" x="63.623047"/>
       <use xlink:href="#DejaVuSans-34" x="95.410156"/>
      </g>
     </g>
    </g>
    <g id="ytick_3">
     <g id="line2d_7">
      <g>
       <use xlink:href="#ma0a7529023" x="30.103125" y="239.855489" style="stroke: #000000; stroke-width: 0.8"/>
      </g>
     </g>
     <g id="text_7">
      <!-- 0.5 -->
      <g transform="translate(7.2 243.654708) scale(0.1 -0.1)">
       <defs>
        <path id="DejaVuSans-35" d="M 691 4666 
L 3169 4666 
L 3169 4134 
L 1269 4134 
L 1269 2991 
Q 1406 3038 1543 3061 
Q 1681 3084 1819 3084 
Q 2600 3084 3056 2656 
Q 3513 2228 3513 1497 
Q 3513 744 3044 326 
Q 2575 -91 1722 -91 
Q 1428 -91 1123 -41 
Q 819 9 494 109 
L 494 744 
Q 775 591 1075 516 
Q 1375 441 1709 441 
Q 2250 441 2565 725 
Q 2881 1009 2881 1497 
Q 2881 1984 2565 2268 
Q 2250 2553 1709 2553 
Q 1456 2553 1204 2497 
Q 953 2441 691 2322 
L 691 4666 
z
" transform="scale(0.015625)"/>
       </defs>
       <use xlink:href="#DejaVuSans-30"/>
       <use xlink:href="#DejaVuSans-2e" x="63.623047"/>
       <use xlink:href="#DejaVuSans-35" x="95.410156"/>
      </g>
     </g>
    </g>
    <g id="ytick_4">
     <g id="line2d_8">
      <g>
       <use xlink:href="#ma0a7529023" x="30.103125" y="155.666151" style="stroke: #000000; stroke-width: 0.8"/>
      </g>
     </g>
     <g id="text_8">
      <!-- 0.6 -->
      <g transform="translate(7.2 159.46537) scale(0.1 -0.1)">
       <use xlink:href="#DejaVuSans-30"/>
       <use xlink:href="#DejaVuSans-2e" x="63.623047"/>
       <use xlink:href="#DejaVuSans-36" x="95.410156"/>
      </g>
     </g>
    </g>
    <g id="ytick_5">
     <g id="line2d_9">
      <g>
       <use xlink:href="#ma0a7529023" x="30.103125" y="71.476813" style="stroke: #000000; stroke-width: 0.8"/>
      </g>
     </g>
     <g id="text_9">
      <!-- 0.7 -->
      <g transform="translate(7.2 75.276032) scale(0.1 -0.1)">
       <defs>
        <path id="DejaVuSans-37" d="M 525 4666 
L 3525 4666 
L 3525 4397 
L 1831 0 
L 1172 0 
L 2766 4134 
L 525 4134 
L 525 4666 
z
" transform="scale(0.015625)"/>
       </defs>
       <use xlink:href="#DejaVuSans-30"/>
       <use xlink:href="#DejaVuSans-2e" x="63.623047"/>
       <use xlink:href="#DejaVuSans-37" x="95.410156"/>
      </g>
     </g>
    </g>
   </g>
   <g id="line2d_10">
    <path d="M 223.268872 291.477937 
L 222.205779 288.80539 
L 220.260545 284.679185 
L 217.93329 280.492973 
L 215.275189 276.338801 
L 212.344688 272.308016 
L 209.206227 268.489248 
L 205.928815 264.966466 
L 202.584517 261.817131 
L 199.246871 259.110494 
L 197.061765 257.581843 
L 194.933646 256.29158 
L 192.883332 255.252327 
L 190.930881 254.47425 
L 189.095393 253.964961 
L 187.394823 253.729443 
L 185.845809 253.769998 
L 184.463503 254.086231 
L 183.261428 254.675049 
L 182.251344 255.530689 
L 181.443132 256.644783 
L 180.844699 258.006432 
L 180.461898 259.602314 
L 180.298475 261.416819 
L 180.356029 263.432194 
L 180.633995 265.628724 
L 181.129656 267.984922 
L 181.838162 270.477738 
L 182.752582 273.082784 
L 183.863971 275.774578 
L 185.876086 279.917145 
L 188.262246 284.104416 
L 190.969985 288.244318 
L 193.939762 292.24582 
L 197.106276 296.020935 
L 200.3999 299.486653 
L 203.748211 302.566769 
L 205.974444 304.372114 
L 208.170474 305.958113 
L 210.314816 307.30925 
L 212.386495 308.412306 
L 214.365243 309.256492 
L 216.231704 309.833549 
L 217.967617 310.137831 
L 219.556001 310.166362 
L 220.981318 309.918864 
L 222.229624 309.397756 
L 223.288707 308.608137 
L 224.148207 307.557732 
L 224.799715 306.256815 
L 225.236858 304.718115 
L 225.45536 302.956683 
L 225.453082 300.989751 
L 225.230048 298.83656 
L 224.788439 296.518175 
L 224.132574 294.057276 
L 223.268872 291.477937 
L 223.268872 291.477937 
" clip-path="url(#p8a5569918f)" style="fill: none; stroke: #1f77b4; stroke-width: 1.5; stroke-linecap: square"/>
   </g>
   <g id="line2d_11">
    <path d="M 243.650743 301.005716 
L 241.524559 295.660623 
L 239.020396 290.181405 
L 236.162751 284.621664 
L 232.97958 279.035787 
L 229.502023 273.478422 
L 225.7641 268.003932 
L 221.802377 262.665874 
L 217.655611 257.516468 
L 213.364369 252.606089 
L 208.97063 247.982774 
L 204.517376 243.69175 
L 200.048173 239.774997 
L 195.606742 236.27083 
L 191.236531 233.213529 
L 186.980293 230.633003 
L 182.879665 228.554496 
L 178.974762 226.998342 
L 177.107731 226.421109 
L 175.303785 225.979765 
L 173.567341 225.675389 
L 171.902646 225.508727 
L 170.313776 225.480187 
L 168.804617 225.589839 
L 167.378864 225.837413 
L 166.040006 226.222305 
L 164.791318 226.743572 
L 163.635856 227.399939 
L 162.576449 228.1898 
L 161.615688 229.111221 
L 160.755926 230.161948 
L 159.999265 231.339409 
L 159.347557 232.640724 
L 158.802398 234.062706 
L 158.365121 235.601878 
L 158.036797 237.254471 
L 157.818228 239.016442 
L 157.709951 240.883479 
L 157.825058 244.91423 
L 158.380991 249.307291 
L 159.372313 254.019687 
L 160.789324 259.005318 
L 162.618165 264.215411 
L 164.840942 269.598998 
L 167.435912 275.103412 
L 170.377688 280.674805 
L 173.637493 286.258675 
L 177.183436 291.800396 
L 180.980829 297.245755 
L 184.992523 302.541482 
L 189.179273 307.635771 
L 193.500122 312.478786 
L 197.912799 317.023148 
L 202.374138 321.224403 
L 206.840493 325.041451 
L 211.268173 328.43695 
L 215.613862 331.377684 
L 219.835049 333.834883 
L 223.890438 335.784511 
L 227.740357 337.207495 
L 229.576407 337.71694 
L 231.347144 338.089914 
L 233.048234 338.325505 
L 234.675514 338.423135 
L 236.225003 338.382567 
L 237.692908 338.2039 
L 239.075637 337.88757 
L 240.369806 337.434351 
L 241.572248 336.845354 
L 242.680022 336.122019 
L 243.690415 335.266116 
L 244.600955 334.279741 
L 245.409414 333.165306 
L 246.113814 331.925539 
L 246.712431 330.563473 
L 247.203799 329.082443 
L 247.586717 327.486072 
L 247.860247 325.778268 
L 248.02372 323.963208 
L 248.076736 322.045336 
L 247.851148 317.920165 
L 247.18569 313.443112 
L 246.086872 308.657973 
L 244.565443 303.61156 
L 243.650743 301.005716 
L 243.650743 301.005716 
" clip-path="url(#p8a5569918f)" style="fill: none; stroke: #ff7f0e; stroke-width: 1.5; stroke-linecap: square"/>
   </g>
   <g id="line2d_12">
    <path d="M 264.032615 310.533495 
L 262.510931 306.554782 
L 260.843338 302.515856 
L 257.087093 294.297029 
L 252.800626 285.957416 
L 248.02587 277.578602 
L 242.809534 269.242554 
L 237.20265 261.030819 
L 231.260065 253.023732 
L 225.039917 245.299623 
L 218.603053 237.934055 
L 212.012444 230.999082 
L 205.332564 224.562547 
L 198.62876 218.687417 
L 195.288389 215.978569 
L 191.966613 213.431166 
L 188.671561 211.05144 
L 185.411296 208.845214 
L 182.193798 206.817889 
L 179.026939 204.974425 
L 175.91847 203.319334 
L 172.875997 201.856665 
L 169.906966 200.589999 
L 167.018643 199.522435 
L 164.218096 198.656585 
L 161.512178 197.994568 
L 158.907511 197.538005 
L 156.41047 197.288012 
L 154.027164 197.245202 
L 151.763426 197.409679 
L 149.624797 197.781041 
L 147.616508 198.358379 
L 145.743477 199.14028 
L 144.010284 200.12483 
L 142.421173 201.309621 
L 140.980033 202.691753 
L 139.690388 204.267843 
L 138.555397 206.034035 
L 137.577835 207.986007 
L 136.760097 210.118981 
L 136.104181 212.427738 
L 135.611695 214.906628 
L 135.283842 217.549584 
L 135.121426 220.35014 
L 135.124844 223.301442 
L 135.294086 226.396266 
L 135.62874 229.62704 
L 136.127987 232.985858 
L 136.790603 236.4645 
L 137.614969 240.054452 
L 138.599066 243.746931 
L 139.740487 247.532899 
L 141.036437 251.403091 
L 142.483747 255.348038 
L 144.078873 259.358085 
L 147.69661 267.534089 
L 151.854257 275.851121 
L 156.511141 284.227818 
L 161.621705 292.582233 
L 167.135954 300.832638 
L 172.999945 308.898322 
L 179.156311 316.700381 
L 185.544827 324.162489 
L 192.102996 331.211647 
L 198.766661 337.778896 
L 205.470634 343.79999 
L 208.81724 346.587098 
L 212.149333 349.216027 
L 215.458759 351.680346 
L 218.737421 353.974024 
L 221.977293 356.091446 
L 225.170449 358.027433 
L 228.309073 359.777246 
L 231.385485 361.336603 
L 234.392157 362.701688 
L 237.32173 363.869161 
L 240.167036 364.836164 
L 242.921111 365.600331 
L 245.577216 366.159792 
L 248.128851 366.513178 
L 250.569771 366.659624 
L 252.894004 366.598772 
L 255.095861 366.330771 
L 257.169955 365.856276 
L 259.111209 365.176448 
L 260.914873 364.292952 
L 262.576533 363.20795 
L 264.092122 361.924096 
L 265.457933 360.444532 
L 266.670622 358.77288 
L 267.727221 356.913229 
L 268.625146 354.870131 
L 269.362198 352.648586 
L 269.936575 350.25403 
L 270.34687 347.692323 
L 270.59208 344.969733 
L 270.671603 342.092925 
L 270.585247 339.068937 
L 270.333221 335.905169 
L 269.916144 332.609365 
L 269.335034 329.189589 
L 268.591316 325.65421 
L 267.686807 322.011881 
L 266.623723 318.271513 
L 265.404665 314.442261 
L 264.032615 310.533495 
L 264.032615 310.533495 
" clip-path="url(#p8a5569918f)" style="fill: none; stroke: #2ca02c; stroke-width: 1.5; stroke-linecap: square"/>
   </g>
   <g id="line2d_13">
    <path d="M 284.414486 320.061275 
L 282.385575 314.756323 
L 280.162118 309.371089 
L 277.749555 303.918751 
L 275.153791 298.412653 
L 272.381178 292.866268 
L 269.438502 287.293169 
L 266.332962 281.706996 
L 263.07216 276.121417 
L 259.664074 270.550102 
L 256.117046 265.006685 
L 252.439755 259.504732 
L 248.641199 254.057706 
L 244.730676 248.678938 
L 240.717754 243.38159 
L 236.612254 238.178626 
L 232.424222 233.082778 
L 228.163908 228.106517 
L 223.841738 223.26202 
L 219.468287 218.561143 
L 215.054259 214.01539 
L 210.610456 209.635884 
L 206.147752 205.433343 
L 201.677069 201.418052 
L 197.209347 197.599836 
L 192.755519 193.98804 
L 188.326484 190.591502 
L 183.933081 187.418534 
L 179.586062 184.4769 
L 175.296064 181.7738 
L 171.073585 179.315848 
L 166.92896 177.10906 
L 162.872329 175.158835 
L 158.913622 173.469946 
L 155.062524 172.046527 
L 151.328461 170.89206 
L 147.720571 170.009372 
L 144.247682 169.400621 
L 140.918293 169.067297 
L 137.740552 169.010217 
L 134.722235 169.22952 
L 131.870729 169.724669 
L 129.193011 170.494453 
L 126.695635 171.536987 
L 124.384713 172.849721 
L 122.265898 174.429442 
L 120.344377 176.272285 
L 118.624851 178.373738 
L 117.111529 180.728661 
L 115.808114 183.331289 
L 114.717796 186.175255 
L 113.843242 189.253598 
L 113.186593 192.558784 
L 112.749457 196.082727 
L 112.532902 199.816801 
L 112.537458 203.751869 
L 112.763115 207.878302 
L 113.20932 212.186001 
L 113.874982 216.664425 
L 114.758471 221.302614 
L 115.857625 226.089217 
L 117.169755 231.012521 
L 118.691649 236.060479 
L 120.419583 241.220736 
L 122.349329 246.480665 
L 124.476164 251.827394 
L 126.794884 257.247838 
L 129.299813 262.728733 
L 131.984823 268.256666 
L 134.843342 273.818109 
L 137.868376 279.399452 
L 141.052521 284.987038 
L 144.387985 290.567192 
L 147.866607 296.126259 
L 151.479872 301.650634 
L 155.218939 307.126799 
L 159.074658 312.541352 
L 163.037593 317.881044 
L 167.098047 323.132807 
L 171.246081 328.283789 
L 175.471547 333.321384 
L 179.764103 338.233266 
L 184.113244 343.007414 
L 188.508328 347.632144 
L 192.938599 352.096139 
L 197.393215 356.388476 
L 201.861275 360.498649 
L 206.331846 364.416601 
L 210.793986 368.132744 
L 215.236777 371.637984 
L 219.649346 374.923742 
L 224.020894 377.981979 
L 228.340725 380.805209 
L 232.598265 383.386525 
L 236.783098 385.719609 
L 240.884981 387.798752 
L 244.893876 389.618865 
L 248.799974 391.175495 
L 252.593715 392.464833 
L 256.265815 393.483722 
L 259.807288 394.22967 
L 263.209468 394.700852 
L 266.464029 394.896113 
L 269.563006 394.814977 
L 272.498815 394.457642 
L 275.264273 393.824982 
L 277.852612 392.918545 
L 280.257497 391.740551 
L 282.473043 390.293881 
L 284.49383 388.582075 
L 286.31491 386.609324 
L 287.931829 384.380454 
L 289.340628 381.900919 
L 290.537861 379.176789 
L 291.520598 376.214729 
L 292.286433 373.021987 
L 292.833493 369.606378 
L 293.160439 365.976259 
L 293.266471 362.140514 
L 293.151329 358.10853 
L 292.815295 353.890173 
L 292.259191 349.495767 
L 291.484379 344.936066 
L 290.492754 340.222228 
L 289.286743 335.365788 
L 287.869298 330.378631 
L 286.243886 325.272962 
L 284.414486 320.061275 
L 284.414486 320.061275 
" clip-path="url(#p8a5569918f)" style="fill: none; stroke: #d62728; stroke-width: 1.5; stroke-linecap: square"/>
   </g>
   <g id="line2d_14">
    <path d="M 304.796358 329.589054 
L 302.260219 322.957864 
L 299.480897 316.226322 
L 296.465194 309.4109 
L 293.220489 302.528277 
L 289.754723 295.595295 
L 286.076377 288.628922 
L 282.194453 281.646205 
L 278.11845 274.664232 
L 273.858343 267.700089 
L 269.424557 260.770817 
L 264.827943 253.893376 
L 260.079749 247.084594 
L 255.191595 240.361133 
L 250.175443 233.739449 
L 245.043567 227.235743 
L 239.808528 220.865933 
L 234.483136 214.645607 
L 229.080422 208.589986 
L 223.613609 202.71389 
L 218.096074 197.031698 
L 212.54132 191.557315 
L 206.962941 186.304139 
L 201.374587 181.285025 
L 195.789934 176.512256 
L 190.222648 171.997511 
L 184.686355 167.751838 
L 179.194601 163.785627 
L 173.760827 160.108586 
L 168.39833 156.72971 
L 163.120232 153.657271 
L 157.93945 150.898785 
L 152.868662 148.461004 
L 147.920277 146.349893 
L 143.106405 144.570619 
L 138.438827 143.127536 
L 133.928963 142.024175 
L 129.587852 141.263236 
L 125.426116 140.846582 
L 121.45394 140.775232 
L 117.681044 141.04936 
L 114.116661 141.668297 
L 110.769514 142.630527 
L 107.647794 143.933695 
L 104.759141 145.574612 
L 102.110622 147.549263 
L 99.708721 149.852816 
L 97.559314 152.479633 
L 95.667661 155.423287 
L 94.038392 158.676572 
L 92.675494 162.231529 
L 91.582302 166.079458 
L 90.761492 170.210941 
L 90.215071 174.615869 
L 89.944377 179.283462 
L 89.950073 184.202297 
L 90.232144 189.360338 
L 90.789901 194.744962 
L 91.621978 200.342992 
L 92.726339 206.140728 
L 94.100281 212.123982 
L 95.740444 218.278112 
L 97.642811 224.588059 
L 99.802729 231.038381 
L 102.214911 237.613292 
L 104.873455 244.296703 
L 107.771855 251.072258 
L 110.903017 257.923376 
L 114.259279 264.833293 
L 117.832428 271.785096 
L 121.61372 278.761776 
L 125.593901 285.746258 
L 129.763232 292.72145 
L 134.111508 299.670284 
L 138.62809 306.575753 
L 143.301924 313.420959 
L 148.121573 320.189151 
L 153.075242 326.863765 
L 158.150808 333.428469 
L 163.335852 339.867196 
L 168.617684 346.164191 
L 173.983378 352.304043 
L 179.419805 358.271728 
L 184.91366 364.05264 
L 190.451498 369.632635 
L 196.019769 374.998055 
L 201.604844 380.135772 
L 207.193057 385.033212 
L 212.770733 389.678391 
L 218.324221 394.05994 
L 223.839932 398.167138 
L 229.304368 401.989934 
L 234.704156 405.518972 
L 240.026082 408.745617 
L 245.257122 411.661972 
L 250.384476 414.2609 
L 255.395595 416.536042 
L 260.278217 418.48183 
L 265.020393 420.093501 
L 269.610519 421.367113 
L 274.03736 422.299548 
L 278.290085 422.888525 
L 282.358286 423.132602 
L 286.232007 423.031182 
L 289.901769 422.584513 
L 293.358591 421.793688 
L 296.594015 420.660642 
L 299.600121 419.188149 
L 302.369554 417.379811 
L 304.895537 415.240055 
L 307.171888 412.774115 
L 309.193036 409.988027 
L 310.954035 406.88861 
L 312.450577 403.483447 
L 313.678998 399.780871 
L 314.636292 395.789945 
L 315.320117 391.520433 
L 315.728799 386.982784 
L 315.861339 382.188103 
L 315.717411 377.148123 
L 315.297369 371.875177 
L 314.602239 366.38217 
L 313.633724 360.682543 
L 312.394193 354.790246 
L 310.886679 348.719696 
L 309.114872 342.48575 
L 307.083108 336.103663 
L 304.796358 329.589054 
L 304.796358 329.589054 
" clip-path="url(#p8a5569918f)" style="fill: none; stroke: #9467bd; stroke-width: 1.5; stroke-linecap: square"/>
   </g>
   <g id="line2d_15">
    <path d="M 325.17823 339.116833 
L 322.134863 331.159405 
L 318.799677 323.081554 
L 315.180833 314.903048 
L 311.287187 306.6439 
L 307.128268 298.324323 
L 302.714253 289.964675 
L 298.055943 281.585415 
L 293.16474 273.207047 
L 288.052612 264.850075 
L 282.732069 256.534949 
L 277.216132 248.282019 
L 271.518299 240.111481 
L 265.652514 232.043329 
L 259.633131 224.097307 
L 253.474881 216.29286 
L 247.192834 208.649089 
L 240.802363 201.184697 
L 234.319106 193.917952 
L 227.758931 186.866636 
L 221.137889 180.048006 
L 214.472184 173.478747 
L 207.778129 167.174936 
L 201.072104 161.151999 
L 194.37052 155.424676 
L 187.689778 150.006981 
L 181.046226 144.912174 
L 174.456122 140.152721 
L 167.935593 135.740271 
L 161.500595 131.685621 
L 155.166878 127.998693 
L 148.949939 124.68851 
L 142.864994 121.763173 
L 136.926932 119.229841 
L 131.150286 117.094712 
L 125.549192 115.363012 
L 120.137356 114.038979 
L 114.928022 113.125852 
L 109.933939 112.625867 
L 105.167328 112.540247 
L 100.639852 112.869201 
L 96.362593 113.611925 
L 92.346017 114.7666 
L 88.599953 116.330402 
L 85.133569 118.299503 
L 81.955347 120.669085 
L 79.073065 123.433348 
L 76.493777 126.585529 
L 74.223794 130.117913 
L 72.268671 134.021855 
L 70.633193 138.287804 
L 69.321363 142.905318 
L 68.33639 147.863098 
L 67.680685 153.149011 
L 67.355852 158.750123 
L 67.362687 164.652725 
L 67.701173 170.842375 
L 68.370481 177.303923 
L 69.368973 184.021558 
L 70.694206 190.978842 
L 72.342938 198.158747 
L 74.311132 205.543703 
L 76.593973 213.11564 
L 79.185875 220.856025 
L 82.080494 228.745919 
L 85.270746 236.766012 
L 88.748825 244.896678 
L 92.50622 253.11802 
L 96.533735 261.409919 
L 100.821514 269.752084 
L 105.359064 278.1241 
L 110.135282 286.505478 
L 115.138478 294.875709 
L 120.35641 303.214309 
L 125.776308 311.500872 
L 131.384909 319.715119 
L 137.168487 327.836949 
L 143.11289 335.846487 
L 149.20357 343.724131 
L 155.425622 351.450604 
L 161.76382 359.006998 
L 168.202654 366.37482 
L 174.726366 373.536042 
L 181.318992 380.473137 
L 187.964398 387.16913 
L 194.646322 393.607635 
L 201.348413 399.772895 
L 208.054269 405.649823 
L 214.747479 411.224037 
L 221.411666 416.481897 
L 228.030519 421.410535 
L 234.587841 425.997889 
L 241.067587 430.232735 
L 247.453898 434.104709 
L 253.731147 437.604335 
L 259.883971 440.723049 
L 265.897314 443.453219 
L 271.756461 445.788164 
L 277.447072 447.72217 
L 282.955222 449.250504 
L 288.267432 450.369427 
L 293.370702 451.076199 
L 298.252543 451.369091 
L 302.901008 451.247387 
L 307.304723 450.711384 
L 311.45291 449.762394 
L 315.335418 448.402739 
L 318.942745 446.635747 
L 322.266065 444.465742 
L 325.297244 441.898034 
L 328.028865 438.938907 
L 330.454243 435.595601 
L 332.567442 431.8763 
L 334.363292 427.790105 
L 335.837397 423.347014 
L 336.98615 418.557902 
L 337.80674 413.434488 
L 338.297159 407.989309 
L 338.456207 402.235692 
L 338.283494 396.187716 
L 337.779443 389.860181 
L 336.945287 383.268572 
L 335.783069 376.42902 
L 334.295631 369.358263 
L 332.486615 362.073603 
L 330.360447 354.592868 
L 327.922329 346.934364 
L 325.17823 339.116833 
L 325.17823 339.116833 
" clip-path="url(#p8a5569918f)" style="fill: none; stroke: #8c564b; stroke-width: 1.5; stroke-linecap: square"/>
   </g>
   <g id="line2d_16">
    <defs>
     <path id="mdd999335b3" d="M 0 3 
C 0.795609 3 1.55874 2.683901 2.12132 2.12132 
C 2.683901 1.55874 3 0.795609 3 0 
C 3 -0.795609 2.683901 -1.55874 2.12132 -2.12132 
C 1.55874 -2.683901 0.795609 -3 0 -3 
C -0.795609 -3 -1.55874 -2.683901 -2.12132 -2.12132 
C -2.683901 -1.55874 -3 -0.795609 -3 0 
C -3 0.795609 -2.683901 1.55874 -2.12132 2.12132 
C -1.55874 2.683901 -0.795609 3 0 3 
z
" style="stroke: #ff0000"/>
    </defs>
    <g clip-path="url(#p8a5569918f)">
     <use xlink:href="#mdd999335b3" x="202.887" y="281.950158" style="fill: #ff0000; stroke: #ff0000"/>
    </g>
   </g>
   <g id="line2d_17">
    <path d="M 471.381271 230.32771 
L 472.211582 228.407221 
L 472.767599 226.598727 
L 473.043881 224.91992 
L 473.037727 223.387223 
L 472.749196 222.015629 
L 472.181111 220.818558 
L 471.339029 219.807718 
L 470.231189 218.993 
L 468.868427 218.382372 
L 467.264075 217.981809 
L 465.433829 217.79523 
L 463.395592 217.824459 
L 461.169304 218.06921 
L 458.776745 218.52709 
L 456.24132 219.193618 
L 453.587832 220.062276 
L 450.84224 221.124563 
L 446.610092 223.057827 
L 442.32435 225.360447 
L 438.079253 227.981793 
L 433.968143 230.864225 
L 430.081419 233.944362 
L 426.504544 237.154476 
L 423.316168 240.423982 
L 421.441438 242.601152 
L 419.789081 244.751462 
L 418.375262 246.853876 
L 417.213812 248.887827 
L 416.316092 250.833417 
L 415.690886 252.671614 
L 415.344309 254.384435 
L 415.279752 255.955124 
L 415.497846 257.368315 
L 415.996457 258.610184 
L 416.770708 259.668582 
L 417.813026 260.533154 
L 419.113212 261.195444 
L 420.658547 261.648971 
L 422.433915 261.8893 
L 424.421947 261.914079 
L 426.603195 261.723066 
L 428.956321 261.318129 
L 431.458305 260.70323 
L 434.084669 259.884384 
L 436.809723 258.869602 
L 441.02383 257.002265 
L 445.307177 254.757895 
L 449.565581 252.185841 
L 453.705404 249.342661 
L 457.635618 246.29087 
L 461.269802 243.097575 
L 464.528048 239.832991 
L 467.338709 236.568902 
L 468.932858 234.428609 
L 470.284787 232.341405 
L 471.381271 230.32771 
L 471.381271 230.32771 
" clip-path="url(#p8a5569918f)" style="fill: none; stroke: #e377c2; stroke-width: 1.5; stroke-linecap: square"/>
   </g>
   <g id="line2d_18">
    <path d="M 498.589772 220.79993 
L 500.250394 216.958953 
L 500.875792 215.120194 
L 501.362428 213.341966 
L 501.709111 211.62862 
L 501.914993 209.984351 
L 501.97957 208.413182 
L 501.902684 206.918957 
L 501.684524 205.505333 
L 501.325622 204.17577 
L 500.826858 202.933521 
L 500.189452 201.781626 
L 499.414964 200.722905 
L 498.505288 199.759947 
L 497.462652 198.89511 
L 496.289607 198.13051 
L 494.989023 197.468018 
L 493.564083 196.909255 
L 492.018275 196.455589 
L 490.35538 196.10813 
L 488.579469 195.867727 
L 486.694887 195.734971 
L 482.618414 195.793428 
L 478.165839 196.282931 
L 473.380721 197.198691 
L 468.309871 198.531748 
L 463.002895 200.269062 
L 457.51171 202.393638 
L 451.890034 204.884691 
L 446.192863 207.717852 
L 440.47593 210.865406 
L 434.795162 214.29656 
L 429.206132 217.977749 
L 423.763516 221.872961 
L 418.520557 225.944091 
L 413.528546 230.151311 
L 408.836317 234.453464 
L 404.489774 238.808464 
L 400.531437 243.173706 
L 397.000029 247.506487 
L 393.930096 251.76442 
L 391.351672 255.905853 
L 389.28998 259.89027 
L 387.765189 263.678693 
L 387.209002 265.48774 
L 386.792215 267.234061 
L 386.515848 268.913382 
L 386.380577 270.521593 
L 386.386734 272.05476 
L 386.534302 273.509129 
L 386.822921 274.881142 
L 387.251885 276.167442 
L 387.820144 277.36488 
L 388.526308 278.470526 
L 389.368647 279.481675 
L 390.345101 280.395852 
L 391.453281 281.21082 
L 392.690474 281.924584 
L 394.053653 282.535399 
L 395.539482 283.041768 
L 397.144325 283.442453 
L 398.864254 283.736474 
L 400.69506 283.923111 
L 402.632264 284.001907 
L 406.806652 283.835469 
L 411.346581 283.238789 
L 416.207638 282.217704 
L 421.342269 280.782203 
L 426.700244 278.946328 
L 432.229146 276.728041 
L 437.87489 274.149041 
L 443.582243 271.234559 
L 449.295374 268.013104 
L 454.958391 264.516193 
L 460.515897 260.778034 
L 465.913522 256.835197 
L 471.098465 252.726252 
L 476.020003 248.491397 
L 480.629989 244.172059 
L 484.883325 239.810494 
L 488.738404 235.449369 
L 492.15751 231.131348 
L 495.107198 226.898672 
L 497.55861 222.792748 
L 498.589772 220.79993 
L 498.589772 220.79993 
" clip-path="url(#p8a5569918f)" style="fill: none; stroke: #7f7f7f; stroke-width: 1.5; stroke-linecap: square"/>
   </g>
   <g id="line2d_19">
    <path d="M 525.798272 211.272151 
L 527.145263 208.352872 
L 528.289207 205.510685 
L 529.227303 202.752546 
L 529.957257 200.085204 
L 530.477281 197.515186 
L 530.786104 195.048782 
L 530.88297 192.692028 
L 530.767641 190.450691 
L 530.4404 188.330255 
L 529.902048 186.33591 
L 529.153902 184.472537 
L 528.197793 182.744695 
L 527.03606 181.156613 
L 525.671548 179.712177 
L 524.107594 178.414921 
L 522.348026 177.268021 
L 520.39715 176.274283 
L 518.25974 175.436139 
L 515.941027 174.755639 
L 513.446685 174.23445 
L 510.782818 173.873847 
L 507.955946 173.674711 
L 504.972985 173.637532 
L 501.841236 173.762398 
L 498.568362 174.049006 
L 495.162373 174.496653 
L 491.631605 175.104244 
L 487.984696 175.870292 
L 484.230573 176.792922 
L 480.378421 177.869878 
L 476.437668 179.098522 
L 472.417957 180.475849 
L 468.329126 181.998488 
L 459.98427 185.464451 
L 451.484735 189.462503 
L 442.913669 193.953534 
L 434.354921 198.89361 
L 425.892218 204.234402 
L 417.608347 209.923665 
L 409.584348 215.90574 
L 401.898717 222.122109 
L 394.626639 228.511957 
L 387.839255 235.012776 
L 381.602963 241.560969 
L 378.71077 244.832814 
L 375.978773 248.092478 
L 373.413658 251.331986 
L 371.021702 254.543408 
L 368.80876 257.718886 
L 366.780245 260.85065 
L 364.941124 263.931035 
L 363.295895 266.952503 
L 361.848586 269.90766 
L 360.602737 272.789275 
L 359.561399 275.590295 
L 358.727119 278.303866 
L 358.101938 280.923347 
L 357.687388 283.442328 
L 357.484481 285.854645 
L 357.493715 288.154395 
L 357.715068 290.335949 
L 358.147997 292.393969 
L 358.791443 294.323418 
L 359.643831 296.119575 
L 360.703076 297.778045 
L 361.966586 299.294768 
L 363.431267 300.666033 
L 365.093537 301.888485 
L 366.949326 302.959132 
L 368.994095 303.875353 
L 371.222838 304.634908 
L 373.630102 305.235936 
L 376.209995 305.676967 
L 378.956205 305.956922 
L 381.862011 306.075116 
L 384.920302 306.031259 
L 388.123593 305.825459 
L 391.464046 305.458219 
L 394.933486 304.930439 
L 398.523423 304.243409 
L 402.225072 303.398811 
L 406.029374 302.398712 
L 409.927018 301.245559 
L 413.908468 299.942175 
L 417.96398 298.491748 
L 426.257334 295.164317 
L 434.725949 291.295818 
L 443.28698 286.924094 
L 451.856675 282.091912 
L 460.351202 276.846546 
L 468.68746 271.239307 
L 476.783898 265.325051 
L 484.561313 259.161634 
L 491.943619 252.809351 
L 498.858598 246.330345 
L 505.238603 239.787997 
L 511.02122 233.246309 
L 513.670587 229.995729 
L 516.149881 226.769277 
L 518.453034 223.57485 
L 520.574412 220.420263 
L 522.508822 217.313239 
L 524.25153 214.261378 
L 525.798272 211.272151 
L 525.798272 211.272151 
" clip-path="url(#p8a5569918f)" style="fill: none; stroke: #bcbd22; stroke-width: 1.5; stroke-linecap: square"/>
   </g>
   <g id="line2d_20">
    <path d="M 553.006773 201.744372 
L 554.802761 197.852 
L 556.328019 194.062418 
L 557.578814 190.384898 
L 558.552086 186.828442 
L 559.245452 183.401752 
L 559.657216 180.113214 
L 559.78637 176.970875 
L 559.632598 173.982425 
L 559.196277 171.155177 
L 558.478474 168.496051 
L 557.480946 166.011553 
L 556.206134 163.707764 
L 554.657157 161.590321 
L 552.837807 159.664406 
L 550.752535 157.934732 
L 548.406444 156.405532 
L 545.805276 155.080547 
L 542.955397 153.963022 
L 539.863779 153.055689 
L 536.53799 152.360771 
L 532.986168 151.879966 
L 529.217004 151.614452 
L 525.239723 151.564879 
L 521.064058 151.731368 
L 516.700226 152.113511 
L 512.158908 152.710374 
L 507.451216 153.520495 
L 502.588672 154.541893 
L 497.583173 155.772067 
L 492.446971 157.208007 
L 487.192634 158.8462 
L 481.833019 160.682636 
L 476.381244 162.712821 
L 470.850649 164.931787 
L 465.254769 167.334104 
L 459.607298 169.913894 
L 453.922056 172.664841 
L 448.212956 175.580216 
L 442.493969 178.652883 
L 436.77909 181.875323 
L 431.082305 185.23965 
L 425.417554 188.737632 
L 419.7987 192.360707 
L 414.239494 196.10001 
L 408.75354 199.94639 
L 403.354262 203.890434 
L 398.054874 207.922491 
L 392.868345 212.032693 
L 387.807365 216.210982 
L 382.884322 220.447133 
L 378.111261 224.73078 
L 373.499865 229.05144 
L 369.061416 233.398538 
L 364.806778 237.761438 
L 360.746361 242.129463 
L 356.890103 246.491922 
L 353.24744 250.838142 
L 349.827287 255.157485 
L 346.638013 259.439381 
L 343.687423 263.673352 
L 340.982737 267.849037 
L 338.530575 271.956217 
L 336.336937 275.984841 
L 334.407191 279.925051 
L 332.74606 283.767203 
L 331.357609 287.501897 
L 330.245235 291.119991 
L 329.411661 294.612633 
L 328.858927 297.971275 
L 328.588385 301.187698 
L 328.600697 304.25403 
L 328.895834 307.162769 
L 329.473073 309.906795 
L 330.331001 312.479394 
L 331.467519 314.87427 
L 332.879845 317.085563 
L 334.564524 319.107861 
L 336.517433 320.936215 
L 338.733792 322.566151 
L 341.208178 323.99368 
L 343.934536 325.215308 
L 346.906194 326.228047 
L 350.115879 327.029418 
L 353.555737 327.61746 
L 357.21735 327.990733 
L 361.091758 328.148324 
L 365.169479 328.089849 
L 369.440534 327.815449 
L 373.894472 327.325796 
L 378.520392 326.622089 
L 383.306975 325.706049 
L 388.242506 324.579919 
L 393.314908 323.246453 
L 398.511768 321.708916 
L 403.820368 319.97107 
L 409.227717 318.037168 
L 414.720583 315.911942 
L 420.285522 313.600593 
L 425.908918 311.108778 
L 431.577009 308.442594 
L 437.275924 305.608566 
L 442.991716 302.613628 
L 448.710399 299.465112 
L 454.417977 296.17072 
L 460.100484 292.738516 
L 465.744012 289.176898 
L 471.334753 285.494582 
L 476.859023 281.70058 
L 482.303305 277.804176 
L 487.654275 273.814905 
L 492.898838 269.742529 
L 498.02416 265.597016 
L 503.017699 261.388508 
L 507.867235 257.127305 
L 512.5609 252.823835 
L 517.087207 248.48863 
L 521.435081 244.132298 
L 525.593881 239.7655 
L 529.553429 235.398922 
L 533.304037 231.043249 
L 536.836526 226.709142 
L 540.142251 222.407207 
L 543.213123 218.14797 
L 546.041626 213.941855 
L 548.620839 209.799155 
L 550.94445 205.730008 
L 553.006773 201.744372 
L 553.006773 201.744372 
" clip-path="url(#p8a5569918f)" style="fill: none; stroke: #17becf; stroke-width: 1.5; stroke-linecap: square"/>
   </g>
   <g id="line2d_21">
    <path d="M 580.215274 192.216593 
L 582.460259 187.351128 
L 584.366831 182.61415 
L 585.930325 178.017251 
L 587.146914 173.571681 
L 588.013622 169.288318 
L 588.528327 165.177645 
L 588.68977 161.249721 
L 588.497556 157.514159 
L 587.952154 153.980099 
L 587.0549 150.656192 
L 585.80799 147.550569 
L 584.214475 144.670833 
L 582.278254 142.024029 
L 580.004066 139.616635 
L 577.397476 137.454543 
L 574.464863 135.543042 
L 571.213403 133.886812 
L 567.651053 132.489905 
L 563.786532 131.355739 
L 559.629295 130.487091 
L 555.189517 129.886085 
L 550.478063 129.554193 
L 545.506461 129.492227 
L 540.28688 129.700338 
L 534.83209 130.178017 
L 529.155442 130.924095 
L 523.270828 131.936747 
L 517.192647 133.213494 
L 510.935774 134.751211 
L 504.515521 136.546137 
L 497.947599 138.593878 
L 491.248082 140.889423 
L 484.433363 143.427154 
L 477.520119 146.200862 
L 470.525269 149.203758 
L 463.46593 152.428495 
L 456.359378 155.86718 
L 449.223003 159.511398 
L 442.074269 163.352232 
L 434.93067 167.380282 
L 427.809688 171.585691 
L 420.72875 175.958167 
L 413.705183 180.487011 
L 406.756175 185.16114 
L 399.898732 189.969115 
L 393.149635 194.89917 
L 386.5254 199.939241 
L 380.042238 205.076994 
L 373.716014 210.299855 
L 367.56221 215.595044 
L 361.595884 220.949603 
L 355.831638 226.350427 
L 350.283578 231.784301 
L 344.96528 237.237926 
L 339.889759 242.697956 
L 335.069436 248.151031 
L 330.516108 253.583805 
L 326.240916 258.982983 
L 322.254324 264.335354 
L 318.566086 269.627818 
L 315.185229 274.847424 
L 312.120026 279.981399 
L 309.377978 285.017179 
L 306.965796 289.942441 
L 304.889382 294.745132 
L 303.153818 299.413499 
L 301.763351 303.936117 
L 300.721384 308.301919 
L 300.030466 312.500221 
L 299.692289 316.52075 
L 299.707679 320.353666 
L 300.0766 323.989589 
L 300.798148 327.419622 
L 301.870558 330.635371 
L 303.291206 333.628966 
L 305.056614 336.393082 
L 307.162463 338.920954 
L 309.603599 341.206396 
L 312.374048 343.243816 
L 315.467031 345.028227 
L 318.874978 346.555263 
L 322.58955 347.821187 
L 326.601656 348.8229 
L 330.901479 349.557952 
L 335.478496 350.024544 
L 340.321505 350.221533 
L 345.418656 350.148439 
L 350.757475 349.805439 
L 356.324897 349.193373 
L 362.107297 348.313739 
L 368.090526 347.168689 
L 374.25994 345.761026 
L 380.600443 344.094194 
L 387.096517 342.172273 
L 393.732267 339.999966 
L 400.491454 337.582588 
L 407.357536 334.926056 
L 414.313711 332.03687 
L 421.342956 328.9221 
L 428.428069 325.58937 
L 435.551712 322.046835 
L 442.696453 318.303163 
L 449.844806 314.367517 
L 456.979279 310.249528 
L 464.082412 305.959273 
L 471.136823 301.50725 
L 478.125248 296.904356 
L 485.030586 292.161853 
L 491.835938 287.291348 
L 498.524651 282.304759 
L 505.080355 277.21429 
L 511.487008 272.032397 
L 517.728932 266.771763 
L 523.790851 261.445259 
L 529.657932 256.065922 
L 535.315817 250.646915 
L 540.750659 245.2015 
L 545.949158 239.743002 
L 550.898594 234.28478 
L 555.586854 228.84019 
L 560.002465 223.422556 
L 564.134621 218.045136 
L 567.973211 212.72109 
L 571.50884 207.463447 
L 574.732856 202.285072 
L 577.63737 197.198638 
L 580.215274 192.216593 
L 580.215274 192.216593 
" clip-path="url(#p8a5569918f)" style="fill: none; stroke: #1f77b4; stroke-width: 1.5; stroke-linecap: square"/>
   </g>
   <g id="line2d_22">
    <path d="M 607.423775 182.688813 
L 610.117757 176.850255 
L 612.405643 171.165882 
L 614.281836 165.649603 
L 615.741743 160.314919 
L 616.781793 155.174884 
L 617.399439 150.242076 
L 617.59317 145.528567 
L 617.362513 141.045893 
L 616.708031 136.805022 
L 615.631327 132.816332 
L 614.135034 129.089585 
L 612.222816 125.633902 
L 609.899351 122.457737 
L 607.170325 119.568864 
L 604.042417 116.974353 
L 600.523281 114.680553 
L 596.62153 112.693077 
L 592.34671 111.016788 
L 587.709284 109.65579 
L 582.7206 108.613411 
L 577.392867 107.892205 
L 571.739121 107.493934 
L 565.7732 107.419574 
L 559.509701 107.669308 
L 552.963954 108.242523 
L 546.151977 109.137816 
L 539.090439 110.352998 
L 531.796622 111.885095 
L 524.288375 113.730356 
L 516.584072 115.884267 
L 508.702565 118.341556 
L 500.663144 121.09621 
L 492.485481 124.141487 
L 484.189589 127.469937 
L 475.795769 131.073412 
L 467.324562 134.943096 
L 458.796699 139.069518 
L 450.233049 143.44258 
L 441.654568 148.05158 
L 433.08225 152.88524 
L 424.537072 157.931731 
L 416.039946 163.178703 
L 407.611665 168.613316 
L 399.272856 174.22227 
L 391.043925 179.99184 
L 382.945008 185.907907 
L 374.995926 191.955992 
L 367.216132 198.121295 
L 359.624663 204.388729 
L 352.240098 210.742956 
L 345.080507 217.168426 
L 338.163412 223.649415 
L 331.505739 230.170063 
L 325.123782 236.714413 
L 319.033157 243.26645 
L 313.24877 249.810139 
L 307.784776 256.329468 
L 302.654546 262.808482 
L 297.870635 269.231327 
L 293.444749 275.582284 
L 289.387721 281.845811 
L 285.709477 288.006581 
L 282.41902 294.049517 
L 279.524401 299.959832 
L 277.032705 305.723061 
L 274.950028 311.325101 
L 273.281467 316.752242 
L 272.031107 321.991205 
L 271.202005 327.029168 
L 270.796192 331.853802 
L 270.814661 336.453301 
L 271.257366 340.816409 
L 272.123224 344.932448 
L 273.410116 348.791347 
L 275.114893 352.383661 
L 277.233383 355.7006 
L 279.760401 358.734047 
L 282.689764 361.476578 
L 286.014303 363.921481 
L 289.725883 366.062775 
L 293.815419 367.895218 
L 298.272906 369.414326 
L 303.087434 370.616382 
L 308.247221 371.498445 
L 313.739641 372.058355 
L 319.551252 372.294742 
L 325.667834 372.207029 
L 332.074416 371.795429 
L 338.755323 371.060949 
L 345.694203 370.005389 
L 352.874077 368.631329 
L 360.277374 366.942133 
L 367.885977 364.941936 
L 375.681267 362.63563 
L 383.644167 360.028861 
L 391.755191 357.128008 
L 399.994489 353.940169 
L 408.341899 350.473146 
L 416.776993 346.735423 
L 425.279129 342.736146 
L 433.827501 338.485104 
L 442.401189 333.992698 
L 450.979213 329.269923 
L 459.540581 324.328336 
L 468.06434 319.180029 
L 476.529634 313.837602 
L 484.915744 308.314129 
L 493.20215 302.623126 
L 501.368572 296.778519 
L 509.395027 290.794613 
L 517.261872 284.68605 
L 524.949856 278.467779 
L 532.440164 272.155017 
L 539.714468 265.763213 
L 546.754965 259.308009 
L 553.544426 252.805201 
L 560.066236 246.270702 
L 566.304436 239.720505 
L 572.243759 233.170638 
L 577.869671 226.63713 
L 583.168404 220.135969 
L 588.126991 213.683066 
L 592.733299 207.29421 
L 596.976054 200.985038 
L 600.844873 194.770988 
L 604.33029 188.667268 
L 607.423775 182.688813 
L 607.423775 182.688813 
" clip-path="url(#p8a5569918f)" style="fill: none; stroke: #ff7f0e; stroke-width: 1.5; stroke-linecap: square"/>
   </g>
   <g id="line2d_23">
    <g clip-path="url(#p8a5569918f)">
     <use xlink:href="#mdd999335b3" x="444.17277" y="239.855489" style="fill: #ff0000; stroke: #ff0000"/>
    </g>
   </g>
   <g id="line2d_24">
    <path d="M 697.223063 207.288599 
L 696.159971 204.616053 
L 694.214736 200.489847 
L 691.887481 196.303635 
L 689.22938 192.149464 
L 686.29888 188.118678 
L 683.160418 184.29991 
L 679.883006 180.777128 
L 676.538708 177.627794 
L 673.201062 174.921156 
L 671.015956 173.392506 
L 668.887837 172.102243 
L 666.837523 171.062989 
L 664.885072 170.284912 
L 663.049584 169.775623 
L 661.349014 169.540105 
L 659.8 169.580661 
L 658.417694 169.896894 
L 657.215619 170.485711 
L 656.205535 171.341352 
L 655.397323 172.455446 
L 654.79889 173.817094 
L 654.416089 175.412977 
L 654.252666 177.227481 
L 654.31022 179.242856 
L 654.588187 181.439387 
L 655.083847 183.795585 
L 655.792353 186.2884 
L 656.706773 188.893447 
L 657.818162 191.58524 
L 659.830277 195.727808 
L 662.216437 199.915079 
L 664.924176 204.05498 
L 667.893953 208.056482 
L 671.060467 211.831597 
L 674.354091 215.297315 
L 677.702403 218.377431 
L 679.928635 220.182776 
L 682.124665 221.768775 
L 684.269007 223.119912 
L 686.340686 224.222968 
L 688.319435 225.067154 
L 690.185895 225.644211 
L 691.921808 225.948493 
L 693.510192 225.977025 
L 694.935509 225.729526 
L 696.183815 225.208418 
L 697.242898 224.418799 
L 698.102398 223.368394 
L 698.753906 222.067478 
L 699.191049 220.528777 
L 699.409551 218.767345 
L 699.407273 216.800413 
L 699.184239 214.647222 
L 698.74263 212.328838 
L 698.086766 209.867938 
L 697.223063 207.288599 
L 697.223063 207.288599 
" clip-path="url(#p8a5569918f)" style="fill: none; stroke: #2ca02c; stroke-width: 1.5; stroke-linecap: square"/>
   </g>
   <g id="line2d_25">
    <path d="M 717.604934 216.816378 
L 715.47875 211.471286 
L 712.974587 205.992068 
L 710.116942 200.432326 
L 706.933771 194.84645 
L 703.456214 189.289084 
L 699.718291 183.814594 
L 695.756568 178.476536 
L 691.609802 173.32713 
L 687.31856 168.416751 
L 682.924821 163.793436 
L 678.471567 159.502413 
L 674.002364 155.585659 
L 669.560933 152.081492 
L 665.190722 149.024191 
L 660.934484 146.443665 
L 656.833856 144.365158 
L 652.928953 142.809005 
L 651.061922 142.231771 
L 649.257976 141.790427 
L 647.521532 141.486051 
L 645.856837 141.31939 
L 644.267967 141.29085 
L 642.758809 141.400501 
L 641.333055 141.648076 
L 639.994197 142.032967 
L 638.745509 142.554235 
L 637.590047 143.210602 
L 636.53064 144.000462 
L 635.569879 144.921883 
L 634.710117 145.97261 
L 633.953456 147.150072 
L 633.301748 148.451386 
L 632.756589 149.873369 
L 632.319312 151.41254 
L 631.990988 153.065133 
L 631.772419 154.827104 
L 631.664142 156.694142 
L 631.779249 160.724892 
L 632.335182 165.117954 
L 633.326504 169.83035 
L 634.743516 174.815981 
L 636.572356 180.026074 
L 638.795133 185.40966 
L 641.390103 190.914074 
L 644.331879 196.485467 
L 647.591684 202.069337 
L 651.137627 207.611058 
L 654.93502 213.056417 
L 658.946714 218.352144 
L 663.133465 223.446433 
L 667.454313 228.289448 
L 671.86699 232.833811 
L 676.328329 237.035066 
L 680.794684 240.852113 
L 685.222364 244.247612 
L 689.568053 247.188346 
L 693.78924 249.645546 
L 697.844629 251.595174 
L 701.694548 253.018157 
L 703.530599 253.527602 
L 705.301335 253.900576 
L 707.002425 254.136167 
L 708.629705 254.233798 
L 710.179194 254.19323 
L 711.647099 254.014562 
L 713.029828 253.698232 
L 714.323997 253.245014 
L 715.52644 252.656016 
L 716.634213 251.932681 
L 717.644606 251.076779 
L 718.555146 250.090403 
L 719.363605 248.975968 
L 720.068005 247.736201 
L 720.666622 246.374136 
L 721.15799 244.893105 
L 721.540908 243.296735 
L 721.814438 241.58893 
L 721.977911 239.77387 
L 722.030927 237.855998 
L 721.805339 233.730828 
L 721.139881 229.253774 
L 720.041063 224.468635 
L 718.519634 219.422222 
L 717.604934 216.816378 
L 717.604934 216.816378 
" clip-path="url(#p8a5569918f)" style="fill: none; stroke: #d62728; stroke-width: 1.5; stroke-linecap: square"/>
   </g>
   <g id="line2d_26">
    <path d="M 737.986806 226.344158 
L 736.465123 222.365444 
L 734.797529 218.326518 
L 731.041285 210.107691 
L 726.754817 201.768079 
L 721.980061 193.389265 
L 716.763726 185.053216 
L 711.156841 176.841481 
L 705.214257 168.834394 
L 698.994108 161.110285 
L 692.557244 153.744717 
L 685.966636 146.809744 
L 679.286755 140.373209 
L 672.582951 134.498079 
L 669.24258 131.789232 
L 665.920804 129.241828 
L 662.625752 126.862102 
L 659.365487 124.655877 
L 656.147989 122.628552 
L 652.98113 120.785088 
L 649.872661 119.129996 
L 646.830188 117.667328 
L 643.861157 116.400661 
L 640.972834 115.333097 
L 638.172287 114.467247 
L 635.466369 113.80523 
L 632.861702 113.348667 
L 630.364661 113.098675 
L 627.981355 113.055865 
L 625.717617 113.220342 
L 623.578988 113.591703 
L 621.5707 114.169041 
L 619.697668 114.950942 
L 617.964476 115.935493 
L 616.375365 117.120283 
L 614.934224 118.502415 
L 613.644579 120.078505 
L 612.509588 121.844697 
L 611.532027 123.796669 
L 610.714288 125.929643 
L 610.058373 128.2384 
L 609.565886 130.71729 
L 609.238033 133.360247 
L 609.075617 136.160802 
L 609.079035 139.112104 
L 609.248277 142.206928 
L 609.582931 145.437703 
L 610.082178 148.79652 
L 610.744794 152.275162 
L 611.56916 155.865114 
L 612.553257 159.557593 
L 613.694678 163.343561 
L 614.990629 167.213754 
L 616.437938 171.1587 
L 618.033064 175.168747 
L 621.650801 183.344751 
L 625.808448 191.661783 
L 630.465332 200.03848 
L 635.575896 208.392896 
L 641.090146 216.643301 
L 646.954136 224.708985 
L 653.110502 232.511043 
L 659.499018 239.973151 
L 666.057187 247.02231 
L 672.720852 253.589559 
L 679.424825 259.610653 
L 682.771431 262.39776 
L 686.103524 265.02669 
L 689.41295 267.491008 
L 692.691612 269.784686 
L 695.931485 271.902109 
L 699.12464 273.838096 
L 702.263264 275.587909 
L 705.339677 277.147266 
L 708.346348 278.512351 
L 711.275921 279.679823 
L 714.121227 280.646826 
L 716.875302 281.410993 
L 719.531407 281.970454 
L 722.083042 282.32384 
L 724.523963 282.470287 
L 726.848195 282.409434 
L 729.050053 282.141433 
L 731.124146 281.666938 
L 733.0654 280.987111 
L 734.869064 280.103615 
L 736.530724 279.018612 
L 738.046313 277.734758 
L 739.412124 276.255194 
L 740.624813 274.583542 
L 741.681412 272.723891 
L 742.579337 270.680793 
L 743.31639 268.459248 
L 743.890766 266.064692 
L 744.301061 263.502985 
L 744.546271 260.780396 
L 744.625794 257.903587 
L 744.539438 254.879599 
L 744.287412 251.715832 
L 743.870335 248.420027 
L 743.289225 245.000251 
L 742.545507 241.464873 
L 741.640999 237.822543 
L 740.577914 234.082175 
L 739.358856 230.252923 
L 737.986806 226.344158 
L 737.986806 226.344158 
" clip-path="url(#p8a5569918f)" style="fill: none; stroke: #9467bd; stroke-width: 1.5; stroke-linecap: square"/>
   </g>
   <g id="line2d_27">
    <path d="M 758.368678 235.871937 
L 756.339766 230.566985 
L 754.116309 225.181751 
L 751.703746 219.729414 
L 749.107982 214.223315 
L 746.33537 208.67693 
L 743.392693 203.103832 
L 740.287153 197.517658 
L 737.026351 191.932079 
L 733.618266 186.360765 
L 730.071237 180.817348 
L 726.393946 175.315394 
L 722.59539 169.868369 
L 718.684867 164.489601 
L 714.671945 159.192253 
L 710.566445 153.989288 
L 706.378414 148.893441 
L 702.1181 143.917179 
L 697.795929 139.072683 
L 693.422478 134.371805 
L 689.00845 129.826052 
L 684.564647 125.446546 
L 680.101944 121.244005 
L 675.63126 117.228714 
L 671.163538 113.410499 
L 666.70971 109.798702 
L 662.280675 106.402164 
L 657.887272 103.229196 
L 653.540253 100.287562 
L 649.250255 97.584462 
L 645.027776 95.12651 
L 640.883151 92.919722 
L 636.82652 90.969497 
L 632.867813 89.280609 
L 629.016715 87.857189 
L 625.282652 86.702723 
L 621.674762 85.820034 
L 618.201873 85.211283 
L 614.872484 84.87796 
L 611.694743 84.820879 
L 608.676426 85.040182 
L 605.82492 85.535331 
L 603.147202 86.305115 
L 600.649827 87.34765 
L 598.338904 88.660384 
L 596.220089 90.240105 
L 594.298568 92.082947 
L 592.579042 94.184401 
L 591.06572 96.539323 
L 589.762305 99.141952 
L 588.671987 101.985917 
L 587.797433 105.06426 
L 587.140784 108.369447 
L 586.703648 111.893389 
L 586.487093 115.627463 
L 586.491649 119.562532 
L 586.717306 123.688965 
L 587.163512 127.996664 
L 587.829173 132.475087 
L 588.712662 137.113276 
L 589.811816 141.899879 
L 591.123946 146.823184 
L 592.64584 151.871141 
L 594.373774 157.031398 
L 596.30352 162.291327 
L 598.430355 167.638056 
L 600.749075 173.0585 
L 603.254004 178.539395 
L 605.939014 184.067328 
L 608.797534 189.628771 
L 611.822567 195.210115 
L 615.006712 200.7977 
L 618.342176 206.377854 
L 621.820798 211.936921 
L 625.434063 217.461296 
L 629.17313 222.937461 
L 633.028849 228.352014 
L 636.991784 233.691706 
L 641.052238 238.943469 
L 645.200273 244.094451 
L 649.425738 249.132047 
L 653.718294 254.043928 
L 658.067435 258.818076 
L 662.462519 263.442806 
L 666.89279 267.906802 
L 671.347406 272.199138 
L 675.815466 276.309311 
L 680.286037 280.227264 
L 684.748177 283.943406 
L 689.190968 287.448646 
L 693.603537 290.734405 
L 697.975085 293.792641 
L 702.294916 296.615872 
L 706.552457 299.197187 
L 710.737289 301.530271 
L 714.839172 303.609414 
L 718.848067 305.429528 
L 722.754165 306.986158 
L 726.547906 308.275495 
L 730.220006 309.294384 
L 733.761479 310.040333 
L 737.163659 310.511514 
L 740.41822 310.706775 
L 743.517197 310.625639 
L 746.453006 310.268304 
L 749.218464 309.635644 
L 751.806803 308.729208 
L 754.211688 307.551213 
L 756.427235 306.104543 
L 758.448021 304.392737 
L 760.269101 302.419986 
L 761.88602 300.191116 
L 763.294819 297.711582 
L 764.492052 294.987451 
L 765.474789 292.025391 
L 766.240625 288.832649 
L 766.787685 285.41704 
L 767.114631 281.786921 
L 767.220662 277.951176 
L 767.10552 273.919192 
L 766.769486 269.700835 
L 766.213383 265.30643 
L 765.43857 260.746728 
L 764.446945 256.03289 
L 763.240934 251.17645 
L 761.823489 246.189294 
L 760.198077 241.083624 
L 758.368678 235.871937 
L 758.368678 235.871937 
" clip-path="url(#p8a5569918f)" style="fill: none; stroke: #8c564b; stroke-width: 1.5; stroke-linecap: square"/>
   </g>
   <g id="line2d_28">
    <path d="M 778.750549 245.399716 
L 776.21441 238.768526 
L 773.435088 232.036984 
L 770.419385 225.221562 
L 767.17468 218.338939 
L 763.708914 211.405958 
L 760.030568 204.439585 
L 756.148644 197.456868 
L 752.072641 190.474894 
L 747.812534 183.510751 
L 743.378749 176.58148 
L 738.782134 169.704038 
L 734.03394 162.895256 
L 729.145786 156.171796 
L 724.129634 149.550111 
L 718.997758 143.046406 
L 713.762719 136.676596 
L 708.437327 130.456269 
L 703.034613 124.400648 
L 697.5678 118.524552 
L 692.050265 112.84236 
L 686.495511 107.367978 
L 680.917132 102.114802 
L 675.328778 97.095688 
L 669.744125 92.322918 
L 664.176839 87.808173 
L 658.640546 83.5625 
L 653.148792 79.59629 
L 647.715018 75.919248 
L 642.352521 72.540373 
L 637.074423 69.467933 
L 631.893641 66.709447 
L 626.822853 64.271666 
L 621.874468 62.160556 
L 617.060596 60.381282 
L 612.393018 58.938198 
L 607.883154 57.834837 
L 603.542043 57.073899 
L 599.380307 56.657244 
L 595.408131 56.585894 
L 591.635235 56.860023 
L 588.070852 57.478959 
L 584.723705 58.441189 
L 581.601985 59.744357 
L 578.713332 61.385274 
L 576.064814 63.359926 
L 573.662912 65.663479 
L 571.513505 68.290296 
L 569.621852 71.233949 
L 567.992584 74.487235 
L 566.629686 78.042191 
L 565.536493 81.89012 
L 564.715683 86.021603 
L 564.169262 90.426531 
L 563.898568 95.094124 
L 563.904264 100.01296 
L 564.186335 105.171001 
L 564.744092 110.555624 
L 565.576169 116.153654 
L 566.68053 121.95139 
L 568.054473 127.934644 
L 569.694635 134.088775 
L 571.597002 140.398722 
L 573.75692 146.849043 
L 576.169102 153.423954 
L 578.827646 160.107365 
L 581.726046 166.88292 
L 584.857208 173.734039 
L 588.21347 180.643955 
L 591.786619 187.595759 
L 595.567911 194.572438 
L 599.548092 201.55692 
L 603.717423 208.532113 
L 608.065699 215.480946 
L 612.582281 222.386415 
L 617.256115 229.231621 
L 622.075764 235.999813 
L 627.029433 242.674428 
L 632.104999 249.239131 
L 637.290043 255.677859 
L 642.571875 261.974853 
L 647.937569 268.114705 
L 653.373996 274.08239 
L 658.867851 279.863303 
L 664.405689 285.443297 
L 669.97396 290.808718 
L 675.559035 295.946434 
L 681.147248 300.843874 
L 686.724924 305.489053 
L 692.278412 309.870603 
L 697.794123 313.977801 
L 703.258559 317.800596 
L 708.658347 321.329635 
L 713.980273 324.556279 
L 719.211313 327.472634 
L 724.338667 330.071563 
L 729.349786 332.346704 
L 734.232408 334.292492 
L 738.974584 335.904164 
L 743.56471 337.177776 
L 747.991551 338.110211 
L 752.244276 338.699187 
L 756.312477 338.943264 
L 760.186198 338.841844 
L 763.85596 338.395175 
L 767.312783 337.60435 
L 770.548206 336.471305 
L 773.554312 334.998811 
L 776.323745 333.190474 
L 778.849728 331.050717 
L 781.126079 328.584777 
L 783.147227 325.79869 
L 784.908226 322.699272 
L 786.404768 319.294109 
L 787.633189 315.591534 
L 788.590483 311.600607 
L 789.274308 307.331095 
L 789.68299 302.793446 
L 789.81553 297.998765 
L 789.671602 292.958785 
L 789.25156 287.685839 
L 788.55643 282.192832 
L 787.587915 276.493206 
L 786.348384 270.600908 
L 784.84087 264.530358 
L 783.069063 258.296412 
L 781.037299 251.914325 
L 778.750549 245.399716 
L 778.750549 245.399716 
" clip-path="url(#p8a5569918f)" style="fill: none; stroke: #e377c2; stroke-width: 1.5; stroke-linecap: square"/>
   </g>
   <g id="line2d_29">
    <path d="M 799.132421 254.927495 
L 796.089054 246.970068 
L 792.753868 238.892217 
L 789.135024 230.71371 
L 785.241378 222.454563 
L 781.082459 214.134985 
L 776.668444 205.775338 
L 772.010134 197.396077 
L 767.118931 189.017709 
L 762.006803 180.660737 
L 756.68626 172.345612 
L 751.170323 164.092682 
L 745.47249 155.922143 
L 739.606705 147.853991 
L 733.587322 139.907969 
L 727.429072 132.103523 
L 721.147025 124.459751 
L 714.756554 116.995359 
L 708.273298 109.728614 
L 701.713122 102.677298 
L 695.09208 95.858668 
L 688.426375 89.289409 
L 681.73232 82.985598 
L 675.026295 76.962661 
L 668.324711 71.235338 
L 661.643969 65.817643 
L 655.000417 60.722836 
L 648.410313 55.963384 
L 641.889784 51.550933 
L 635.454787 47.496283 
L 629.121069 43.809355 
L 622.904131 40.499173 
L 616.819185 37.573836 
L 610.881124 35.040503 
L 605.104477 32.905374 
L 599.503383 31.173674 
L 594.091547 29.849641 
L 588.882213 28.936514 
L 583.88813 28.436529 
L 579.121519 28.350909 
L 574.594044 28.679863 
L 570.316784 29.422587 
L 566.300208 30.577263 
L 562.554144 32.141064 
L 559.08776 34.110165 
L 555.909538 36.479747 
L 553.027256 39.24401 
L 550.447968 42.396191 
L 548.177985 45.928575 
L 546.222862 49.832518 
L 544.587384 54.098466 
L 543.275554 58.71598 
L 542.290581 63.67376 
L 541.634876 68.959673 
L 541.310043 74.560785 
L 541.316878 80.463388 
L 541.655364 86.653037 
L 542.324672 93.114585 
L 543.323164 99.832221 
L 544.648398 106.789504 
L 546.297129 113.969409 
L 548.265323 121.354366 
L 550.548165 128.926302 
L 553.140066 136.666688 
L 556.034685 144.556581 
L 559.224937 152.576674 
L 562.703017 160.70734 
L 566.460411 168.928682 
L 570.487926 177.220582 
L 574.775705 185.562747 
L 579.313255 193.934762 
L 584.089473 202.31614 
L 589.092669 210.686371 
L 594.310601 219.024971 
L 599.730499 227.311534 
L 605.3391 235.525781 
L 611.122678 243.647612 
L 617.067081 251.657149 
L 623.157761 259.534793 
L 629.379813 267.261266 
L 635.718012 274.81766 
L 642.156845 282.185483 
L 648.680557 289.346704 
L 655.273183 296.283799 
L 661.918589 302.979792 
L 668.600513 309.418297 
L 675.302604 315.583557 
L 682.00846 321.460485 
L 688.701671 327.0347 
L 695.365857 332.292559 
L 701.98471 337.221197 
L 708.542033 341.808552 
L 715.021778 346.043398 
L 721.408089 349.915371 
L 727.685338 353.414997 
L 733.838162 356.533711 
L 739.851505 359.263881 
L 745.710652 361.598826 
L 751.401263 363.532833 
L 756.909413 365.061167 
L 762.221623 366.180089 
L 767.324893 366.886861 
L 772.206734 367.179753 
L 776.8552 367.058049 
L 781.258914 366.522046 
L 785.407101 365.573056 
L 789.289609 364.213401 
L 792.896936 362.446409 
L 796.220256 360.276404 
L 799.251435 357.708696 
L 801.983056 354.749569 
L 804.408434 351.406264 
L 806.521634 347.686962 
L 808.317483 343.600767 
L 809.791588 339.157676 
L 810.940341 334.368564 
L 811.760931 329.24515 
L 812.25135 323.799971 
L 812.410398 318.046354 
L 812.237685 311.998378 
L 811.733634 305.670843 
L 810.899478 299.079234 
L 809.73726 292.239683 
L 808.249822 285.168925 
L 806.440806 277.884266 
L 804.314638 270.403531 
L 801.87652 262.745027 
L 799.132421 254.927495 
L 799.132421 254.927495 
" clip-path="url(#p8a5569918f)" style="fill: none; stroke: #7f7f7f; stroke-width: 1.5; stroke-linecap: square"/>
   </g>
   <g id="line2d_30">
    <g clip-path="url(#p8a5569918f)">
     <use xlink:href="#mdd999335b3" x="676.841191" y="197.76082" style="fill: #ff0000; stroke: #ff0000"/>
    </g>
   </g>
   <g id="patch_3">
    <path d="M 30.103125 472.52 
L 30.103125 7.2 
" style="fill: none; stroke: #000000; stroke-width: 0.8; stroke-linejoin: miter; stroke-linecap: square"/>
   </g>
   <g id="patch_4">
    <path d="M 849.663125 472.52 
L 849.663125 7.2 
" style="fill: none; stroke: #000000; stroke-width: 0.8; stroke-linejoin: miter; stroke-linecap: square"/>
   </g>
   <g id="patch_5">
    <path d="M 30.103125 472.52 
L 849.663125 472.52 
" style="fill: none; stroke: #000000; stroke-width: 0.8; stroke-linejoin: miter; stroke-linecap: square"/>
   </g>
   <g id="patch_6">
    <path d="M 30.103125 7.2 
L 849.663125 7.2 
" style="fill: none; stroke: #000000; stroke-width: 0.8; stroke-linejoin: miter; stroke-linecap: square"/>
   </g>
  </g>
 </g>
 <defs>
  <clipPath id="p8a5569918f">
   <rect x="30.103125" y="7.2" width="819.56" height="465.32"/>
  </clipPath>
 </defs>
</svg>