<svg xmlns="http://www.w3.org/2000/svg" xmlns:xlink="http://www.w3.org/1999/xlink" width="386pt" height="188pt" viewBox="0.00 0.00 386.00 188.00">
<g id="graph0" class="graph" transform="scale(1 1) rotate(0) translate(4 184)">
<title>G</title>
<polygon fill="#ffffff" stroke="transparent" points="-4,4 -4,-184 382,-184 382,4 -4,4"></polygon>
<!-- a0 -->
<g id="node1" class="node">
<title>a0</title>
<ellipse fill="none" stroke="#000000" cx="135" cy="-90" rx="27" ry="18"></ellipse>
<text text-anchor="start" x="129.5547" y="-86.8" font-family="Times,serif" font-size="14.00" fill="#000000">t</text>
<text text-anchor="start" x="133.4453" y="-86.8" font-family="Times,serif" baseline-shift="sub" font-size="14.00" fill="#000000">0</text>
</g>
<!-- a00 -->
<g id="node6" class="node">
<title>a00</title>
<ellipse fill="none" stroke="#000000" cx="27" cy="-18" rx="27" ry="18"></ellipse>
<text text-anchor="start" x="19.2244" y="-14.8" font-family="Times,serif" font-size="14.00" fill="#000000">t'</text>
<text text-anchor="start" x="27.7756" y="-14.8" font-family="Times,serif" baseline-shift="sub" font-size="14.00" fill="#000000">0</text>
</g>
<!-- a0&#45;&gt;a00 -->
<g id="edge6" class="edge">
<title>a0-&gt;a00</title>
<path fill="none" stroke="#000000" d="M115.6918,-77.1278C98.6445,-65.763 73.5981,-49.0654 54.4656,-36.3104"></path>
<polygon fill="#000000" stroke="#000000" points="56.4031,-33.3956 46.1411,-30.7607 52.5201,-39.2199 56.4031,-33.3956"></polygon>
</g>
<!-- a01 -->
<g id="node7" class="node">
<title>a01</title>
<ellipse fill="none" stroke="#000000" cx="99" cy="-18" rx="27" ry="18"></ellipse>
<text text-anchor="start" x="91.2244" y="-14.8" font-family="Times,serif" font-size="14.00" fill="#000000">t'</text>
<text text-anchor="start" x="99.7756" y="-14.8" font-family="Times,serif" baseline-shift="sub" font-size="14.00" fill="#000000">1</text>
</g>
<!-- a0&#45;&gt;a01 -->
<g id="edge7" class="edge">
<title>a0-&gt;a01</title>
<path fill="none" stroke="#000000" d="M126.2854,-72.5708C122.0403,-64.0807 116.8464,-53.6929 112.1337,-44.2674"></path>
<polygon fill="#000000" stroke="#000000" points="115.237,-42.6477 107.6343,-35.2687 108.976,-45.7782 115.237,-42.6477"></polygon>
</g>
<!-- a02 -->
<g id="node8" class="node">
<title>a02</title>
<ellipse fill="none" stroke="#000000" cx="171" cy="-18" rx="27" ry="18"></ellipse>
<text text-anchor="start" x="163.2244" y="-14.8" font-family="Times,serif" font-size="14.00" fill="#000000">t'</text>
<text text-anchor="start" x="171.7756" y="-14.8" font-family="Times,serif" baseline-shift="sub" font-size="14.00" fill="#000000">2</text>
</g>
<!-- a0&#45;&gt;a02 -->
<g id="edge8" class="edge">
<title>a0-&gt;a02</title>
<path fill="none" stroke="#000000" d="M143.7146,-72.5708C147.9597,-64.0807 153.1536,-53.6929 157.8663,-44.2674"></path>
<polygon fill="#000000" stroke="#000000" points="161.024,-45.7782 162.3657,-35.2687 154.763,-42.6477 161.024,-45.7782"></polygon>
</g>
<!-- a0n -->
<g id="node9" class="node">
<title>a0n</title>
<ellipse fill="none" stroke="#000000" cx="245" cy="-18" rx="28.9696" ry="18"></ellipse>
<text text-anchor="start" x="232.1718" y="-14.8" font-family="Times,serif" font-size="14.00" fill="#000000">t'</text>
<text text-anchor="start" x="240.723" y="-14.8" font-family="Times,serif" baseline-shift="sub" font-size="14.00" fill="#000000">a/b</text>
</g>
<!-- a0&#45;&gt;a0n -->
<g id="edge9" class="edge">
<title>a0-&gt;a0n</title>
<path fill="none" stroke="#000000" d="M154.4126,-77.2936C171.635,-66.0207 197.0162,-49.4076 216.5342,-36.6322"></path>
<polygon fill="#000000" stroke="#000000" points="218.5888,-39.4705 225.039,-31.0654 214.7551,-33.6136 218.5888,-39.4705"></polygon>
</g>
<!-- a1 -->
<g id="node2" class="node">
<title>a1</title>
<ellipse fill="none" stroke="#000000" cx="207" cy="-90" rx="27" ry="18"></ellipse>
<text text-anchor="start" x="201.5547" y="-86.8" font-family="Times,serif" font-size="14.00" fill="#000000">t</text>
<text text-anchor="start" x="205.4453" y="-86.8" font-family="Times,serif" baseline-shift="sub" font-size="14.00" fill="#000000">1</text>
</g>
<!-- a2 -->
<g id="node3" class="node">
<title>a2</title>
<ellipse fill="none" stroke="#000000" cx="279" cy="-90" rx="27" ry="18"></ellipse>
<text text-anchor="start" x="273.5547" y="-86.8" font-family="Times,serif" font-size="14.00" fill="#000000">t</text>
<text text-anchor="start" x="277.4453" y="-86.8" font-family="Times,serif" baseline-shift="sub" font-size="14.00" fill="#000000">2</text>
</g>
<!-- an -->
<g id="node4" class="node">
<title>an</title>
<ellipse fill="none" stroke="#000000" cx="351" cy="-90" rx="27" ry="18"></ellipse>
<text text-anchor="start" x="345.9474" y="-86.8" font-family="Times,serif" font-size="14.00" fill="#000000">t</text>
<text text-anchor="start" x="349.838" y="-86.8" font-family="Times,serif" baseline-shift="sub" font-size="14.00" fill="#000000">a</text>
</g>
<!-- a2&#45;&gt;an -->
<g id="edge5" class="edge">
<title>a2-&gt;an</title>
<path fill="none" stroke="#000000" stroke-dasharray="1,5" d="M306,-90C311.9766,-90 317.9531,-90 323.9297,-90"></path>
</g>
<!-- T -->
<g id="node5" class="node">
<title>T</title>
<ellipse fill="none" stroke="#000000" cx="243" cy="-162" rx="27" ry="18"></ellipse>
<text text-anchor="middle" x="243" y="-157.8" font-family="Times,serif" font-size="14.00" fill="#000000">T</text>
</g>
<!-- T&#45;&gt;a0 -->
<g id="edge1" class="edge">
<title>T-&gt;a0</title>
<path fill="none" stroke="#000000" d="M223.6918,-149.1278C206.6445,-137.763 181.5981,-121.0654 162.4656,-108.3104"></path>
<polygon fill="#000000" stroke="#000000" points="164.4031,-105.3956 154.1411,-102.7607 160.5201,-111.2199 164.4031,-105.3956"></polygon>
</g>
<!-- T&#45;&gt;a1 -->
<g id="edge2" class="edge">
<title>T-&gt;a1</title>
<path fill="none" stroke="#000000" d="M234.2854,-144.5708C230.0403,-136.0807 224.8464,-125.6929 220.1337,-116.2674"></path>
<polygon fill="#000000" stroke="#000000" points="223.237,-114.6477 215.6343,-107.2687 216.976,-117.7782 223.237,-114.6477"></polygon>
</g>
<!-- T&#45;&gt;a2 -->
<g id="edge3" class="edge">
<title>T-&gt;a2</title>
<path fill="none" stroke="#000000" d="M251.7146,-144.5708C255.9597,-136.0807 261.1536,-125.6929 265.8663,-116.2674"></path>
<polygon fill="#000000" stroke="#000000" points="269.024,-117.7782 270.3657,-107.2687 262.763,-114.6477 269.024,-117.7782"></polygon>
</g>
<!-- T&#45;&gt;an -->
<g id="edge4" class="edge">
<title>T-&gt;an</title>
<path fill="none" stroke="#000000" d="M262.3082,-149.1278C279.3555,-137.763 304.4019,-121.0654 323.5344,-108.3104"></path>
<polygon fill="#000000" stroke="#000000" points="325.4799,-111.2199 331.8589,-102.7607 321.5969,-105.3956 325.4799,-111.2199"></polygon>
</g>
<!-- a02&#45;&gt;a0n -->
<g id="edge10" class="edge">
<title>a02-&gt;a0n</title>
<path fill="none" stroke="#000000" stroke-dasharray="1,5" d="M198.1719,-18C204.1473,-18 210.1228,-18 216.0983,-18"></path>
</g>
</g>
</svg>