<svg xmlns="http://www.w3.org/2000/svg" xmlns:xlink="http://www.w3.org/1999/xlink" version="1.1" width="281.401pt" height="133.295pt" viewBox="0 0 281.401 133.295">
<path transform="matrix(1,0,0,-1,30.095,108.761)" stroke-width=".79701" stroke-linecap="butt" stroke-miterlimit="10" stroke-linejoin="miter" fill="none" stroke="#000000" d="M-14.17339-14.17339H14.1734V14.1734H-14.17339Z"/>
<text xml:space="preserve" transform="matrix(1 0 -0 1 -.0000019073487 133.295)" font-size="9.9626" font-family="CMR10"><tspan y="-21.324" x="25.114 30.0953">10</tspan></text>
<text xml:space="preserve" transform="matrix(1 0 -0 1 -.0000019073487 133.295)" font-size="7.9701" font-family="CMR8"><tspan y="-42.227" x="27.978">0</tspan></text>
<path transform="matrix(1,0,0,-1,30.095,108.761)" stroke-width=".79701" stroke-linecap="butt" stroke-miterlimit="10" stroke-linejoin="miter" fill="none" stroke="#000000" d="M14.1734-14.17339H42.52019V14.1734H14.1734Z"/>
<text xml:space="preserve" transform="matrix(1 0 -0 1 0 133.295)" font-size="9.9626" font-family="CMR10"><tspan y="-21.324" x="53.46 58.4413">50</tspan></text>
<text xml:space="preserve" transform="matrix(1 0 -0 1 -.0000038146974 133.295)" font-size="7.9701" font-family="CMR8"><tspan y="-42.227" x="56.324">1</tspan></text>
<path transform="matrix(1,0,0,-1,30.095,108.761)" stroke-width=".79701" stroke-linecap="butt" stroke-miterlimit="10" stroke-linejoin="miter" fill="none" stroke="#000000" d="M42.52022-14.17339H70.86701V14.1734H42.52022Z"/>
<text xml:space="preserve" transform="matrix(1 0 -0 1 0 133.295)" font-size="9.9626" font-family="CMR10"><tspan y="-21.324" x="81.807 86.7883">30</tspan></text>
<text xml:space="preserve" transform="matrix(1 0 -0 1 0 133.295)" font-size="7.9701" font-family="CMR8"><tspan y="-42.227" x="84.671">2</tspan></text>
<path transform="matrix(1,0,0,-1,30.095,108.761)" stroke-width=".79701" stroke-linecap="butt" stroke-miterlimit="10" stroke-linejoin="miter" fill="none" stroke="#000000" d="M70.86702-14.17339H99.213809V14.1734H70.86702Z"/>
<text xml:space="preserve" transform="matrix(1 0 -0 1 0 133.295)" font-size="9.9626" font-family="CMR10"><tspan y="-21.324" x="110.153 115.1343">70</tspan></text>
<text xml:space="preserve" transform="matrix(1 0 -0 1 0 133.295)" font-size="7.9701" font-family="CMR8"><tspan y="-42.227" x="113.017">3</tspan></text>
<path transform="matrix(1,0,0,-1,30.095,108.761)" stroke-width=".79701" stroke-linecap="butt" stroke-miterlimit="10" stroke-linejoin="miter" fill="none" stroke="#000000" d="M99.21384-14.17339H127.56062V14.1734H99.21384Z"/>
<text xml:space="preserve" transform="matrix(1 0 -0 1 0 133.295)" font-size="9.9626" font-family="CMR10"><tspan y="-21.324" x="138.5 143.4813">80</tspan></text>
<text xml:space="preserve" transform="matrix(1 0 -0 1 0 133.295)" font-size="7.9701" font-family="CMR8"><tspan y="-42.227" x="141.364">4</tspan></text>
<path transform="matrix(1,0,0,-1,30.095,108.761)" stroke-width=".79701" stroke-linecap="butt" stroke-miterlimit="10" stroke-linejoin="miter" fill="none" stroke="#000000" d="M127.56064-14.17339H155.90743V14.1734H127.56064Z"/>
<text xml:space="preserve" transform="matrix(1 0 -0 1 .000015258789 133.295)" font-size="9.9626" font-family="CMR10"><tspan y="-21.324" x="166.846 171.82729">60</tspan></text>
<text xml:space="preserve" transform="matrix(1 0 -0 1 0 133.295)" font-size="7.9701" font-family="CMR8"><tspan y="-42.227" x="169.71">5</tspan></text>
<path transform="matrix(1,0,0,-1,30.095,108.761)" stroke-width=".79701" stroke-linecap="butt" stroke-miterlimit="10" stroke-linejoin="miter" fill="none" stroke="#000000" d="M155.90746-14.17339H184.25424V14.1734H155.90746Z"/>
<text xml:space="preserve" transform="matrix(1 0 -0 1 0 133.295)" font-size="9.9626" font-family="CMR10"><tspan y="-21.324" x="195.192 200.1733">20</tspan></text>
<text xml:space="preserve" transform="matrix(1 0 -0 1 0 133.295)" font-size="7.9701" font-family="CMR8"><tspan y="-42.227" x="198.057">6</tspan></text>
<path transform="matrix(1,0,0,-1,30.095,108.761)" stroke-width=".79701" stroke-linecap="butt" stroke-miterlimit="10" stroke-linejoin="miter" fill="none" stroke="#000000" d="M184.25426-14.17339H212.60105V14.1734H184.25426Z"/>
<text xml:space="preserve" transform="matrix(1 0 -0 1 0 133.295)" font-size="9.9626" font-family="CMR10"><tspan y="-21.324" x="223.539 228.5203">90</tspan></text>
<text xml:space="preserve" transform="matrix(1 0 -0 1 0 133.295)" font-size="7.9701" font-family="CMR8"><tspan y="-42.227" x="226.403">7</tspan></text>
<path transform="matrix(1,0,0,-1,30.095,108.761)" stroke-width=".79701" stroke-linecap="butt" stroke-miterlimit="10" stroke-linejoin="miter" fill="none" stroke="#000000" d="M212.60108-14.17339H240.94786V14.1734H212.60108Z"/>
<text xml:space="preserve" transform="matrix(1 0 -0 1 0 133.295)" font-size="9.9626" font-family="CMR10"><tspan y="-21.324" x="251.885 256.8663">40</tspan></text>
<text xml:space="preserve" transform="matrix(1 0 -0 1 0 133.295)" font-size="7.9701" font-family="CMR8"><tspan y="-42.227" x="254.75">8</tspan></text>
<path transform="matrix(1,0,0,-1,30.095,108.761)" stroke-width=".79701" stroke-linecap="butt" stroke-miterlimit="10" stroke-linejoin="miter" fill="none" stroke="#000000" d="M0 28.34679C5.52716 37.92015 22.81964 37.92015 26.29169 31.9064"/>
<path transform="matrix(.49998,.86601,.86601,-.49998,55.15419,74.71982)" d="M5.44046 0 1.28699 1.5706 2.66432 0 1.28699-1.5706Z"/>
<path transform="matrix(.49998,.86601,.86601,-.49998,55.15419,74.71982)" stroke-width=".79701" stroke-linecap="butt" stroke-miterlimit="10" stroke-linejoin="miter" fill="none" stroke="#000000" d="M5.44046 0 1.28699 1.5706 2.66432 0 1.28699-1.5706Z"/>
<path transform="matrix(1,0,0,-1,30.095,108.761)" stroke-width=".79701" stroke-linecap="butt" stroke-miterlimit="10" stroke-linejoin="miter" fill="none" stroke="#000000" d="M28.3468 28.34679C33.87396 37.92015 51.16644 37.92015 54.6385 31.9064"/>
<path transform="matrix(.49998,.86601,.86601,-.49998,83.501,74.71982)" d="M5.44046 0 1.28699 1.5706 2.66432 0 1.28699-1.5706Z"/>
<path transform="matrix(.49998,.86601,.86601,-.49998,83.501,74.71982)" stroke-width=".79701" stroke-linecap="butt" stroke-miterlimit="10" stroke-linejoin="miter" fill="none" stroke="#000000" d="M5.44046 0 1.28699 1.5706 2.66432 0 1.28699-1.5706Z"/>
<path transform="matrix(1,0,0,-1,30.095,108.761)" stroke-width=".79701" stroke-linecap="butt" stroke-miterlimit="10" stroke-linejoin="miter" fill="none" stroke="#000000" d="M56.69362 28.34679C62.22078 37.92015 79.51326 37.92015 82.9853 31.9064"/>
<path transform="matrix(.49998,.86601,.86601,-.49998,111.8478,74.71982)" d="M5.44046 0 1.28699 1.5706 2.66432 0 1.28699-1.5706Z"/>
<path transform="matrix(.49998,.86601,.86601,-.49998,111.8478,74.71982)" stroke-width=".79701" stroke-linecap="butt" stroke-miterlimit="10" stroke-linejoin="miter" fill="none" stroke="#000000" d="M5.44046 0 1.28699 1.5706 2.66432 0 1.28699-1.5706Z"/>
<path transform="matrix(1,0,0,-1,30.095,108.761)" stroke-width=".79701" stroke-linecap="butt" stroke-miterlimit="10" stroke-linejoin="miter" fill="none" stroke="#000000" d="M85.04042 28.34679C90.56758 37.92015 107.86006 37.92015 111.33212 31.9064"/>
<path transform="matrix(.49998,.86601,.86601,-.49998,140.19461,74.71982)" d="M5.44046 0 1.28699 1.5706 2.66432 0 1.28699-1.5706Z"/>
<path transform="matrix(.49998,.86601,.86601,-.49998,140.19461,74.71982)" stroke-width=".79701" stroke-linecap="butt" stroke-miterlimit="10" stroke-linejoin="miter" fill="none" stroke="#000000" d="M5.44046 0 1.28699 1.5706 2.66432 0 1.28699-1.5706Z"/>
<path transform="matrix(1,0,0,-1,30.095,108.761)" stroke-width=".79701" stroke-linecap="butt" stroke-miterlimit="10" stroke-linejoin="miter" fill="none" stroke="#000000" d="M113.38724 28.34679C118.9144 37.92015 136.20688 37.92015 139.67893 31.9064"/>
<path transform="matrix(.49998,.86601,.86601,-.49998,168.54143,74.71982)" d="M5.44046 0 1.28699 1.5706 2.66432 0 1.28699-1.5706Z"/>
<path transform="matrix(.49998,.86601,.86601,-.49998,168.54143,74.71982)" stroke-width=".79701" stroke-linecap="butt" stroke-miterlimit="10" stroke-linejoin="miter" fill="none" stroke="#000000" d="M5.44046 0 1.28699 1.5706 2.66432 0 1.28699-1.5706Z"/>
<path transform="matrix(1,0,0,-1,30.095,108.761)" stroke-width=".79701" stroke-linecap="butt" stroke-miterlimit="10" stroke-linejoin="miter" fill="none" stroke="#000000" d="M141.73404 28.34679C147.2612 37.92015 164.55368 37.92015 168.02574 31.9064"/>
<path transform="matrix(.49998,.86601,.86601,-.49998,196.88825,74.71982)" d="M5.44046 0 1.28699 1.5706 2.66432 0 1.28699-1.5706Z"/>
<path transform="matrix(.49998,.86601,.86601,-.49998,196.88825,74.71982)" stroke-width=".79701" stroke-linecap="butt" stroke-miterlimit="10" stroke-linejoin="miter" fill="none" stroke="#000000" d="M5.44046 0 1.28699 1.5706 2.66432 0 1.28699-1.5706Z"/>
<text xml:space="preserve" transform="matrix(1 0 -0 1 -.0000009536743 133.29502)" font-size="9.9626" font-family="CMR10"><tspan y="-113.093" x="13.283 19.788578 22.558182 28.097388 36.95414 41.93544">Find20</tspan></text>
<path transform="matrix(1,0,0,-1,30.095,108.761)" stroke-width=".79701" stroke-linecap="butt" stroke-miterlimit="10" stroke-linejoin="miter" fill="none" stroke="#000000" d="M0 85.04042C19.14682 73.98602 19.14682 39.40118 3.55962 30.4019"/>
<path transform="matrix(-.86601,.49998,.49998,.86601,35.7894,77.1266)" d="M5.44046 0 1.28699 1.5706 2.66432 0 1.28699-1.5706Z"/>
<path transform="matrix(-.86601,.49998,.49998,.86601,35.7894,77.1266)" stroke-width=".79701" stroke-linecap="butt" stroke-miterlimit="10" stroke-linejoin="miter" fill="none" stroke="#000000" d="M5.44046 0 1.28699 1.5706 2.66432 0 1.28699-1.5706Z"/>
<path transform="matrix(1,0,0,-1,30.095,108.761)" d="M155.90746-14.17339H184.25424V14.1734H155.90746Z" fill="#b3ffb3"/>
<path transform="matrix(1,0,0,-1,30.095,108.761)" stroke-width=".79701" stroke-linecap="butt" stroke-miterlimit="10" stroke-linejoin="miter" fill="none" stroke="#000000" d="M155.90746-14.17339H184.25424V14.1734H155.90746Z"/>
<text xml:space="preserve" transform="matrix(1 0 -0 1 0 133.295)" font-size="9.9626" font-family="CMR10"><tspan y="-21.324" x="195.192 200.1733">20</tspan></text>
</svg>
