<svg xmlns="http://www.w3.org/2000/svg" xmlns:xlink="http://www.w3.org/1999/xlink" version="1.1" width="407.571pt" height="169.442pt" viewBox="0 0 407.571 169.442">
<path transform="matrix(1,0,0,-1,39.601,86.692)" stroke-width=".79701" stroke-linecap="butt" stroke-miterlimit="10" stroke-linejoin="miter" fill="none" stroke="#000000" d="M-17.00804-56.69363H17.008063V56.693639H-17.00804Z"/>
<text xml:space="preserve" transform="matrix(1 0 -0 1 .0000009536743 169.442)" font-size="9.9626" font-family="CMR10"><tspan y="-15.22" x="13.283 17.706395 26.005242 31.544447 35.140947 43.728708 47.653974 51.529424 56.510725 60.655164">emptystack</tspan></text>
<path transform="matrix(1,0,0,-1,39.601,86.692)" stroke-width=".79701" stroke-linecap="butt" stroke-miterlimit="10" stroke-linejoin="miter" fill="none" stroke="#000000" d="M68.03238-56.69363H102.04848V56.693639H68.03238Z"/>
<text xml:space="preserve" transform="matrix(1 0 -0 1 0 169.442)" font-size="9.9626" font-family="CMR10"><tspan y="-15.22" x="114.373 119.91221 125.451419 129.37668">push</tspan></text>
<path transform="matrix(1,0,0,-1,39.601,86.692)" d="M70.86702-56.52507H99.213809V-28.17828H70.86702Z" fill="#b3b3ff"/>
<path transform="matrix(1,0,0,-1,39.601,86.692)" stroke-width=".79701" stroke-linecap="butt" stroke-miterlimit="10" stroke-linejoin="miter" fill="none" stroke="#000000" d="M70.86702-56.52507H99.213809V-28.17828H70.86702Z"/>
<text xml:space="preserve" transform="matrix(1 0 -0 1 .0000076293949 169.442)" font-size="9.9626" font-family="CMR10"><tspan y="-37.189" x="122.15">1</tspan></text>
<path transform="matrix(1,0,0,-1,39.601,86.692)" stroke-width=".79701" stroke-linecap="butt" stroke-miterlimit="10" stroke-linejoin="miter" fill="none" stroke="#000000" d="M85.04042 42.91873V-23.66942"/>
<path transform="matrix(0,1,1,0,124.64142,107.89633)" d="M5.44046 0 1.28699 1.5706 2.66432 0 1.28699-1.5706Z"/>
<path transform="matrix(0,1,1,0,124.64142,107.89633)" stroke-width=".79701" stroke-linecap="butt" stroke-miterlimit="10" stroke-linejoin="miter" fill="none" stroke="#000000" d="M5.44046 0 1.28699 1.5706 2.66432 0 1.28699-1.5706Z"/>
<text xml:space="preserve" transform="matrix(1 0 -0 1 -.0000076293949 169.442)" font-size="9.9626" font-family="CMR10"><tspan y="-148.687" x="108.008 113.54721 119.08642 123.01168 128.55089 132.42635 137.40764">push(1)</tspan></text>
<path transform="matrix(1,0,0,-1,39.601,86.692)" stroke-width=".79701" stroke-linecap="butt" stroke-miterlimit="10" stroke-linejoin="miter" fill="none" stroke="#000000" d="M153.0728-56.69363H187.0889V56.693639H153.0728Z"/>
<text xml:space="preserve" transform="matrix(1 0 -0 1 0 169.442)" font-size="9.9626" font-family="CMR10"><tspan y="-15.22" x="199.413 204.9522 210.4914 214.41666">push</tspan></text>
<path transform="matrix(1,0,0,-1,39.601,86.692)" d="M155.90746-56.52507H184.25424V-28.17828H155.90746Z" fill="#b3b3ff"/>
<path transform="matrix(1,0,0,-1,39.601,86.692)" stroke-width=".79701" stroke-linecap="butt" stroke-miterlimit="10" stroke-linejoin="miter" fill="none" stroke="#000000" d="M155.90746-56.52507H184.25424V-28.17828H155.90746Z"/>
<text xml:space="preserve" transform="matrix(1 0 -0 1 0 169.442)" font-size="9.9626" font-family="CMR10"><tspan y="-37.189" x="207.189">1</tspan></text>
<path transform="matrix(1,0,0,-1,39.601,86.692)" d="M155.90746-28.7453H184.25424V-.39850999H155.90746Z" fill="#b3b3ff"/>
<path transform="matrix(1,0,0,-1,39.601,86.692)" stroke-width=".79701" stroke-linecap="butt" stroke-miterlimit="10" stroke-linejoin="miter" fill="none" stroke="#000000" d="M155.90746-28.7453H184.25424V-.39850999H155.90746Z"/>
<text xml:space="preserve" transform="matrix(1 0 -0 1 0 169.442)" font-size="9.9626" font-family="CMR10"><tspan y="-64.968" x="207.189">2</tspan></text>
<path transform="matrix(1,0,0,-1,39.601,86.692)" stroke-width=".79701" stroke-linecap="butt" stroke-miterlimit="10" stroke-linejoin="miter" fill="none" stroke="#000000" d="M170.08086 42.91873V4.11034"/>
<path transform="matrix(0,1,1,0,209.68186,80.11659)" d="M5.44046 0 1.28699 1.5706 2.66432 0 1.28699-1.5706Z"/>
<path transform="matrix(0,1,1,0,209.68186,80.11659)" stroke-width=".79701" stroke-linecap="butt" stroke-miterlimit="10" stroke-linejoin="miter" fill="none" stroke="#000000" d="M5.44046 0 1.28699 1.5706 2.66432 0 1.28699-1.5706Z"/>
<text xml:space="preserve" transform="matrix(1 0 -0 1 0 169.442)" font-size="9.9626" font-family="CMR10"><tspan y="-148.687" x="193.048 198.5872 204.1264 208.05167 213.59087 217.46633 222.44762">push(2)</tspan></text>
<path transform="matrix(1,0,0,-1,39.601,86.692)" stroke-width=".79701" stroke-linecap="butt" stroke-miterlimit="10" stroke-linejoin="miter" fill="none" stroke="#000000" d="M238.11324-56.69363H272.12934V56.693639H238.11324Z"/>
<text xml:space="preserve" transform="matrix(1 0 -0 1 0 169.442)" font-size="9.9626" font-family="CMR10"><tspan y="-15.22" x="284.452 289.9912 295.53044 299.4557">push</tspan></text>
<path transform="matrix(1,0,0,-1,39.601,86.692)" d="M240.94789-56.52507H269.29469V-28.17828H240.94789Z" fill="#b3b3ff"/>
<path transform="matrix(1,0,0,-1,39.601,86.692)" stroke-width=".79701" stroke-linecap="butt" stroke-miterlimit="10" stroke-linejoin="miter" fill="none" stroke="#000000" d="M240.94789-56.52507H269.29469V-28.17828H240.94789Z"/>
<text xml:space="preserve" transform="matrix(1 0 -0 1 0 169.442)" font-size="9.9626" font-family="CMR10"><tspan y="-37.189" x="292.228">1</tspan></text>
<path transform="matrix(1,0,0,-1,39.601,86.692)" d="M240.94789-28.7453H269.29469V-.39850999H240.94789Z" fill="#b3b3ff"/>
<path transform="matrix(1,0,0,-1,39.601,86.692)" stroke-width=".79701" stroke-linecap="butt" stroke-miterlimit="10" stroke-linejoin="miter" fill="none" stroke="#000000" d="M240.94789-28.7453H269.29469V-.39850999H240.94789Z"/>
<text xml:space="preserve" transform="matrix(1 0 -0 1 0 169.442)" font-size="9.9626" font-family="CMR10"><tspan y="-64.968" x="292.228">2</tspan></text>
<path transform="matrix(1,0,0,-1,39.601,86.692)" d="M240.94789-.39848H269.29469V27.94831H240.94789Z" fill="#b3b3ff"/>
<path transform="matrix(1,0,0,-1,39.601,86.692)" stroke-width=".79701" stroke-linecap="butt" stroke-miterlimit="10" stroke-linejoin="miter" fill="none" stroke="#000000" d="M240.94789-.39848H269.29469V27.94831H240.94789Z"/>
<text xml:space="preserve" transform="matrix(1 0 -0 1 0 169.442)" font-size="9.9626" font-family="CMR10"><tspan y="-93.315" x="292.228">3</tspan></text>
<path transform="matrix(1,0,0,-1,39.601,86.692)" stroke-width=".79701" stroke-linecap="butt" stroke-miterlimit="10" stroke-linejoin="miter" fill="none" stroke="#000000" d="M255.12128 42.91873V32.45715"/>
<path transform="matrix(0,1,1,0,294.7223,51.76976)" d="M5.44046 0 1.28699 1.5706 2.66432 0 1.28699-1.5706Z"/>
<path transform="matrix(0,1,1,0,294.7223,51.76976)" stroke-width=".79701" stroke-linecap="butt" stroke-miterlimit="10" stroke-linejoin="miter" fill="none" stroke="#000000" d="M5.44046 0 1.28699 1.5706 2.66432 0 1.28699-1.5706Z"/>
<text xml:space="preserve" transform="matrix(1 0 -0 1 0 169.442)" font-size="9.9626" font-family="CMR10"><tspan y="-148.687" x="278.087 283.62623 289.16545 293.0907 298.6299 302.50538 307.48667">push(3)</tspan></text>
<path transform="matrix(1,0,0,-1,39.601,86.692)" stroke-width=".79701" stroke-linecap="butt" stroke-miterlimit="10" stroke-linejoin="miter" fill="none" stroke="#000000" d="M323.15367-56.69363H357.16978V56.693639H323.15367Z"/>
<text xml:space="preserve" transform="matrix(1 0 -0 1 0 169.442)" font-size="9.9626" font-family="CMR10"><tspan y="-17.849" x="371.595 377.41319 382.39448">pop</tspan></text>
<path transform="matrix(1,0,0,-1,39.601,86.692)" d="M325.9883-56.52507H354.3351V-28.17828H325.9883Z" fill="#b3b3ff"/>
<path transform="matrix(1,0,0,-1,39.601,86.692)" stroke-width=".79701" stroke-linecap="butt" stroke-miterlimit="10" stroke-linejoin="miter" fill="none" stroke="#000000" d="M325.9883-56.52507H354.3351V-28.17828H325.9883Z"/>
<text xml:space="preserve" transform="matrix(1 0 -0 1 0 169.442)" font-size="9.9626" font-family="CMR10"><tspan y="-37.189" x="377.268">1</tspan></text>
<path transform="matrix(1,0,0,-1,39.601,86.692)" d="M325.9883-28.7453H354.3351V-.39850999H325.9883Z" fill="#b3b3ff"/>
<path transform="matrix(1,0,0,-1,39.601,86.692)" stroke-width=".79701" stroke-linecap="butt" stroke-miterlimit="10" stroke-linejoin="miter" fill="none" stroke="#000000" d="M325.9883-28.7453H354.3351V-.39850999H325.9883Z"/>
<text xml:space="preserve" transform="matrix(1 0 -0 1 0 169.442)" font-size="9.9626" font-family="CMR10"><tspan y="-64.968" x="377.268">2</tspan></text>
<path transform="matrix(1,0,0,-1,39.601,86.692)" stroke-width=".79701" stroke-linecap="butt" stroke-miterlimit="10" stroke-linejoin="miter" fill="none" stroke="#000000" d="M340.1617 0V38.40984"/>
<path transform="matrix(0,-1,-1,-0,379.76274,50.747243)" d="M5.44046 0 1.28699 1.5706 2.66432 0 1.28699-1.5706Z"/>
<path transform="matrix(0,-1,-1,-0,379.76274,50.747243)" stroke-width=".79701" stroke-linecap="butt" stroke-miterlimit="10" stroke-linejoin="miter" fill="none" stroke="#000000" d="M5.44046 0 1.28699 1.5706 2.66432 0 1.28699-1.5706Z"/>
<text xml:space="preserve" transform="matrix(1 0 -0 1 0 169.442)" font-size="9.9626" font-family="CMR10"><tspan y="-148.687" x="365.23 371.0482 376.02949 381.5687 385.44416 390.42546">pop(3)</tspan></text>
</svg>
